<?xml version="1.0" encoding="UTF-8" standalone="no"?>
<!DOCTYPE svg PUBLIC "-//W3C//DTD SVG 1.1//EN"
 "http://www.w3.org/Graphics/SVG/1.1/DTD/svg11.dtd">
<!-- Generated by graphviz version 2.43.0 (0)
 -->
<!-- Title: ClassDiagram Pages: 1 -->
<svg width="4751pt" height="854pt"
 viewBox="0.00 0.00 4751.00 854.00" xmlns="http://www.w3.org/2000/svg" xmlns:xlink="http://www.w3.org/1999/xlink">
<g id="graph0" class="graph" transform="scale(1 1) rotate(0) translate(4 850)">
<title>ClassDiagram</title>
<polygon fill="white" stroke="transparent" points="-4,4 -4,-850 4747,-850 4747,4 -4,4"/>
<!-- FlowsWrapper -->
<g id="node1" class="node">
<title>FlowsWrapper</title>
<polygon fill="none" stroke="black" points="9,-725.5 9,-746.5 127,-746.5 127,-725.5 9,-725.5"/>
<text text-anchor="start" x="12" y="-733.3" font-family="Times,serif" font-weight="bold" font-size="14.00">FlowsWrapper</text>
<polygon fill="none" stroke="black" points="8,-725 8,-748 128,-748 128,-725 8,-725"/>
</g>
<!-- CapabilitiesResource -->
<g id="node2" class="node">
<title>CapabilitiesResource</title>
<polygon fill="none" stroke="black" points="137,-543.5 137,-564.5 311,-564.5 311,-543.5 137,-543.5"/>
<text text-anchor="start" x="140" y="-551.3" font-family="Times,serif" font-weight="bold" font-size="14.00">CapabilitiesResource</text>
<polygon fill="none" stroke="black" points="137,-509.5 137,-543.5 311,-543.5 311,-509.5 137,-509.5"/>
<text text-anchor="start" x="192.5" y="-530.3" font-family="Times,serif" font-style="italic" font-size="14.00">Methods</text>
<text text-anchor="start" x="153" y="-516.3" font-family="Times,serif" font-size="14.00">getAll():Capabilities</text>
<polygon fill="none" stroke="black" points="136,-509 136,-566 312,-566 312,-509 136,-509"/>
</g>
<!-- LanguageService -->
<g id="node3" class="node">
<title>LanguageService</title>
<text text-anchor="middle" x="224" y="-732.8" font-family="Times,serif" font-size="14.00">LanguageService</text>
</g>
<!-- LanguageService&#45;&gt;CapabilitiesResource -->
<g id="edge1" class="edge">
<title>LanguageService&#45;&gt;CapabilitiesResource</title>
<path fill="none" stroke="black" d="M224,-718.36C224,-688.29 224,-625.13 224,-582.26"/>
<polygon fill="black" stroke="black" points="224,-582.2 220,-576.2 224,-570.2 228,-576.2 224,-582.2"/>
<text text-anchor="middle" x="210" y="-707.16" font-family="Times,serif" font-size="14.00">0..1</text>
</g>
<!-- DeploymentsResource -->
<g id="node4" class="node">
<title>DeploymentsResource</title>
<polygon fill="none" stroke="black" points="321,-770.5 321,-791.5 807,-791.5 807,-770.5 321,-770.5"/>
<text text-anchor="start" x="475.5" y="-778.3" font-family="Times,serif" font-weight="bold" font-size="14.00">DeploymentsResource</text>
<polygon fill="none" stroke="black" points="321,-680.5 321,-770.5 807,-770.5 807,-680.5 321,-680.5"/>
<text text-anchor="start" x="532.5" y="-757.3" font-family="Times,serif" font-style="italic" font-size="14.00">Methods</text>
<text text-anchor="start" x="324" y="-743.3" font-family="Times,serif" font-size="14.00">all(&lt;String&gt; namespace):String</text>
<text text-anchor="start" x="324" y="-729.3" font-family="Times,serif" font-size="14.00">start(&lt;String&gt; crd, &lt;String&gt; namespace, &lt;String&gt; name):String</text>
<text text-anchor="start" x="324" y="-715.3" font-family="Times,serif" font-size="14.00">get(&lt;String&gt; name, &lt;String&gt; type, &lt;String&gt; namespace):String</text>
<text text-anchor="start" x="324" y="-701.3" font-family="Times,serif" font-size="14.00">stop(&lt;String&gt; name, &lt;String&gt; type, &lt;String&gt; namespace):String</text>
<text text-anchor="start" x="324" y="-687.3" font-family="Times,serif" font-size="14.00">logs(&lt;String&gt; name, &lt;String&gt; namespace):String</text>
<polygon fill="none" stroke="black" points="320,-680 320,-793 808,-793 808,-680 320,-680"/>
</g>
<!-- IntegrationsResource -->
<g id="node5" class="node">
<title>IntegrationsResource</title>
<polygon fill="none" stroke="black" points="694,-564.5 694,-585.5 1130,-585.5 1130,-564.5 694,-564.5"/>
<text text-anchor="start" x="825.5" y="-572.3" font-family="Times,serif" font-weight="bold" font-size="14.00">IntegrationsResource</text>
<polygon fill="none" stroke="black" points="694,-488.5 694,-564.5 1130,-564.5 1130,-488.5 694,-488.5"/>
<text text-anchor="start" x="880.5" y="-551.3" font-family="Times,serif" font-style="italic" font-size="14.00">Methods</text>
<text text-anchor="start" x="697" y="-537.3" font-family="Times,serif" font-size="14.00">crd(&lt;String&gt; dsl, &lt;Integration&gt; integration):Map</text>
<text text-anchor="start" x="697" y="-523.3" font-family="Times,serif" font-size="14.00">integration(&lt;String&gt; dsl, &lt;String&gt; crd):Map</text>
<text text-anchor="start" x="697" y="-509.3" font-family="Times,serif" font-size="14.00">compatibleDSL(&lt;List[Step]&gt; steps):Map</text>
<text text-anchor="start" x="697" y="-495.3" font-family="Times,serif" font-size="14.00">CRDs(&lt;String&gt; dsl, &lt;List&lt;Integration&gt;&gt; integration):Map</text>
<polygon fill="none" stroke="black" points="693,-488 693,-587 1131,-587 1131,-488 693,-488"/>
</g>
<!-- DeploymentService -->
<g id="node6" class="node">
<title>DeploymentService</title>
<text text-anchor="middle" x="912" y="-732.8" font-family="Times,serif" font-size="14.00">DeploymentService</text>
</g>
<!-- DeploymentService&#45;&gt;IntegrationsResource -->
<g id="edge2" class="edge">
<title>DeploymentService&#45;&gt;IntegrationsResource</title>
<path fill="none" stroke="black" d="M907.99,-718.36C905.5,-692.91 904.71,-643.77 905.61,-603.28"/>
<polygon fill="black" stroke="black" points="905.62,-603.03 901.79,-596.92 905.95,-591.03 909.78,-597.14 905.62,-603.03"/>
<text text-anchor="middle" x="893.99" y="-707.16" font-family="Times,serif" font-size="14.00">0..1</text>
</g>
<!-- DeploymentService&#45;&gt;IntegrationsResource -->
<g id="edge3" class="edge">
<title>DeploymentService&#45;&gt;IntegrationsResource</title>
<path fill="none" stroke="black" d="M916.01,-718.36C918.5,-692.91 919.29,-643.77 918.39,-603.28"/>
<polygon fill="black" stroke="black" points="918.38,-603.03 914.22,-597.14 918.05,-591.03 922.21,-596.92 918.38,-603.03"/>
<text text-anchor="middle" x="930.01" y="-707.16" font-family="Times,serif" font-size="14.00">0..1</text>
</g>
<!-- StepResource -->
<g id="node7" class="node">
<title>StepResource</title>
<polygon fill="none" stroke="black" points="1017,-756.5 1017,-777.5 1489,-777.5 1489,-756.5 1017,-756.5"/>
<text text-anchor="start" x="1198.5" y="-764.3" font-family="Times,serif" font-weight="bold" font-size="14.00">StepResource</text>
<polygon fill="none" stroke="black" points="1017,-694.5 1017,-756.5 1489,-756.5 1489,-694.5 1017,-694.5"/>
<text text-anchor="start" x="1221.5" y="-743.3" font-family="Times,serif" font-style="italic" font-size="14.00">Methods</text>
<text text-anchor="start" x="1020" y="-729.3" font-family="Times,serif" font-size="14.00">allSteps(&lt;String&gt; type, &lt;String&gt; dsl, &lt;String&gt; kind):List[Step]</text>
<text text-anchor="start" x="1020" y="-715.3" font-family="Times,serif" font-size="14.00">stepById(&lt;String&gt; id):Step</text>
<text text-anchor="start" x="1020" y="-701.3" font-family="Times,serif" font-size="14.00">stepsByName(&lt;String&gt; name):List[Step]</text>
<polygon fill="none" stroke="black" points="1016,-694 1016,-779 1490,-779 1490,-694 1016,-694"/>
</g>
<!-- StepCatalog -->
<g id="node8" class="node">
<title>StepCatalog</title>
<polygon fill="none" stroke="black" points="1202,-526.5 1202,-547.5 1304,-547.5 1304,-526.5 1202,-526.5"/>
<text text-anchor="start" x="1205" y="-534.3" font-family="Times,serif" font-weight="bold" font-size="14.00">StepCatalog</text>
<polygon fill="none" stroke="black" points="1201,-526 1201,-549 1305,-549 1305,-526 1201,-526"/>
</g>
<!-- StepResource&#45;&gt;StepCatalog -->
<g id="edge4" class="edge">
<title>StepResource&#45;&gt;StepCatalog</title>
<path fill="none" stroke="black" stroke-dasharray="5,2" d="M1253,-689.81C1253,-651.58 1253,-598.28 1253,-566.21"/>
<polygon fill="black" stroke="black" points="1253,-555.81 1257.5,-565.81 1253,-560.81 1253,-565.81 1253,-565.81 1253,-565.81 1253,-560.81 1248.5,-565.81 1253,-555.81 1253,-555.81"/>
</g>
<!-- AbstractCatalog -->
<g id="node15" class="node">
<title>AbstractCatalog</title>
<polygon fill="none" stroke="black" points="1267,-414.5 1267,-435.5 1545,-435.5 1545,-414.5 1267,-414.5"/>
<text text-anchor="start" x="1342.5" y="-422.3" font-family="Times,serif" font-weight="bold" font-size="14.00">AbstractCatalog</text>
<polygon fill="none" stroke="black" points="1267,-338.5 1267,-414.5 1545,-414.5 1545,-338.5 1267,-338.5"/>
<text text-anchor="start" x="1374.5" y="-401.3" font-family="Times,serif" font-style="italic" font-size="14.00">Methods</text>
<text text-anchor="start" x="1270" y="-387.3" font-family="Times,serif" font-size="14.00">waitForWarmUp():CompletableFuture</text>
<text text-anchor="start" x="1270" y="-373.3" font-family="Times,serif" font-size="14.00">loadParsers():List[ParseCatalog]</text>
<text text-anchor="start" x="1270" y="-359.3" font-family="Times,serif" font-size="14.00">warmUpCatalog():</text>
<text text-anchor="start" x="1270" y="-345.3" font-family="Times,serif" font-size="14.00">refresh():</text>
<polygon fill="none" stroke="black" points="1266,-338 1266,-437 1546,-437 1546,-338 1266,-338"/>
</g>
<!-- StepCatalog&#45;&gt;AbstractCatalog -->
<g id="edge9" class="edge">
<title>StepCatalog&#45;&gt;AbstractCatalog</title>
<path fill="none" stroke="black" d="M1270.85,-519.23C1288.86,-501.81 1317.72,-473.9 1344.15,-448.33"/>
<polygon fill="none" stroke="black" points="1346.78,-450.66 1351.53,-441.19 1341.91,-445.63 1346.78,-450.66"/>
</g>
<!-- ViewDefinitionResource -->
<g id="node9" class="node">
<title>ViewDefinitionResource</title>
<polygon fill="none" stroke="black" points="1761,-543.5 1761,-564.5 2229,-564.5 2229,-543.5 1761,-543.5"/>
<text text-anchor="start" x="1900" y="-551.3" font-family="Times,serif" font-weight="bold" font-size="14.00">ViewDefinitionResource</text>
<polygon fill="none" stroke="black" points="1761,-509.5 1761,-543.5 2229,-543.5 2229,-509.5 1761,-509.5"/>
<text text-anchor="start" x="1963.5" y="-530.3" font-family="Times,serif" font-style="italic" font-size="14.00">Methods</text>
<text text-anchor="start" x="1764" y="-516.3" font-family="Times,serif" font-size="14.00">viewsPerStepList:(&lt;Step[]&gt; DeploymentResourceYamlRequest):</text>
<polygon fill="none" stroke="black" points="1760,-509 1760,-566 2230,-566 2230,-509 1760,-509"/>
</g>
<!-- ViewDefinitionService -->
<g id="node10" class="node">
<title>ViewDefinitionService</title>
<text text-anchor="middle" x="1995" y="-732.8" font-family="Times,serif" font-size="14.00">ViewDefinitionService</text>
</g>
<!-- ViewDefinitionService&#45;&gt;ViewDefinitionResource -->
<g id="edge5" class="edge">
<title>ViewDefinitionService&#45;&gt;ViewDefinitionResource</title>
<path fill="none" stroke="black" d="M1995,-718.36C1995,-688.29 1995,-625.13 1995,-582.26"/>
<polygon fill="black" stroke="black" points="1995,-582.2 1991,-576.2 1995,-570.2 1999,-576.2 1995,-582.2"/>
<text text-anchor="middle" x="1981" y="-707.16" font-family="Times,serif" font-size="14.00">0..1</text>
</g>
<!-- CamelRestDSLParseCatalog -->
<g id="node11" class="node">
<title>CamelRestDSLParseCatalog</title>
<polygon fill="none" stroke="black" points="2109,-725.5 2109,-746.5 2337,-746.5 2337,-725.5 2109,-725.5"/>
<text text-anchor="start" x="2112" y="-733.3" font-family="Times,serif" font-weight="bold" font-size="14.00">CamelRestDSLParseCatalog</text>
<polygon fill="none" stroke="black" points="2108,-725 2108,-748 2338,-748 2338,-725 2108,-725"/>
</g>
<!-- StepCatalogParser -->
<g id="node12" class="node">
<title>StepCatalogParser</title>
<polygon fill="none" stroke="black" points="2268,-564.5 2268,-585.5 2653,-585.5 2653,-564.5 2268,-564.5"/>
<text text-anchor="start" x="2386.5" y="-572.3" font-family="Times,serif" font-weight="bold" font-size="14.00">StepCatalogParser</text>
<polygon fill="none" stroke="black" points="2268,-488.5 2268,-564.5 2653,-564.5 2653,-488.5 2268,-488.5"/>
<text text-anchor="start" x="2429" y="-551.3" font-family="Times,serif" font-style="italic" font-size="14.00">Methods</text>
<text text-anchor="start" x="2271" y="-537.3" font-family="Times,serif" font-size="14.00">getParser(&lt;String&gt; url, &lt;String&gt; tag):ParseCatalog</text>
<text text-anchor="start" x="2271" y="-523.3" font-family="Times,serif" font-size="14.00">getParserFromCluster():ParseCatalog</text>
<text text-anchor="start" x="2271" y="-509.3" font-family="Times,serif" font-size="14.00">getLocalFolder(&lt;Path&gt; path):ParseCatalog</text>
<text text-anchor="start" x="2271" y="-495.3" font-family="Times,serif" font-size="14.00">generatesKind(&lt;String&gt; kind):Boolean</text>
<polygon fill="none" stroke="black" points="2266.5,-488 2266.5,-587 2653.5,-587 2653.5,-488 2266.5,-488"/>
</g>
<!-- CamelRestDSLParseCatalog&#45;&gt;StepCatalogParser -->
<g id="edge6" class="edge">
<title>CamelRestDSLParseCatalog&#45;&gt;StepCatalogParser</title>
<path fill="none" stroke="black" d="M2243.62,-718.36C2275.69,-691.7 2339.02,-639.06 2388.92,-597.58"/>
<polygon fill="none" stroke="black" points="2391.35,-600.11 2396.8,-591.03 2386.88,-594.73 2391.35,-600.11"/>
</g>
<!-- ParseCatalog -->
<g id="node13" class="node">
<title>ParseCatalog</title>
<polygon fill="none" stroke="black" points="2868,-550.5 2868,-571.5 3200,-571.5 3200,-550.5 2868,-550.5"/>
<text text-anchor="start" x="2981.5" y="-558.3" font-family="Times,serif" font-weight="bold" font-size="14.00">ParseCatalog</text>
<polygon fill="none" stroke="black" points="2868,-502.5 2868,-550.5 3200,-550.5 3200,-502.5 2868,-502.5"/>
<text text-anchor="start" x="3002.5" y="-537.3" font-family="Times,serif" font-style="italic" font-size="14.00">Methods</text>
<text text-anchor="start" x="2871" y="-523.3" font-family="Times,serif" font-size="14.00">parse():CompletableFuture[List[T]]</text>
<text text-anchor="start" x="2871" y="-509.3" font-family="Times,serif" font-size="14.00">setFileVisitor(&lt;YamlProcessFile&gt; fileVisitor):</text>
<polygon fill="none" stroke="black" points="2867,-502 2867,-573 3201,-573 3201,-502 2867,-502"/>
</g>
<!-- CamelRestDSLParseCatalog&#45;&gt;ParseCatalog -->
<g id="edge7" class="edge">
<title>CamelRestDSLParseCatalog&#45;&gt;ParseCatalog</title>
<path fill="none" stroke="black" stroke-dasharray="5,2" d="M2237.62,-718.41C2260.05,-693.52 2305.56,-647.95 2355,-627 2484.74,-572.01 2530.25,-609.06 2670,-591 2728.09,-583.49 2791.3,-574.62 2848.49,-566.33"/>
<polygon fill="black" stroke="black" points="2858.72,-564.85 2849.47,-570.74 2853.77,-565.57 2848.82,-566.28 2848.82,-566.28 2848.82,-566.28 2853.77,-565.57 2848.18,-561.83 2858.72,-564.85 2858.72,-564.85"/>
</g>
<!-- CamelRoute -->
<g id="node14" class="node">
<title>CamelRoute</title>
<polygon fill="none" stroke="black" points="3832,-725.5 3832,-746.5 3935,-746.5 3935,-725.5 3832,-725.5"/>
<text text-anchor="start" x="3835" y="-733.3" font-family="Times,serif" font-weight="bold" font-size="14.00">CamelRoute</text>
<polygon fill="none" stroke="black" points="3830.5,-725 3830.5,-748 3935.5,-748 3935.5,-725 3830.5,-725"/>
</g>
<!-- MetadataCatalog -->
<g id="node16" class="node">
<title>MetadataCatalog</title>
<polygon fill="none" stroke="black" points="1480,-215.5 1480,-236.5 1828,-236.5 1828,-215.5 1480,-215.5"/>
<text text-anchor="start" x="1586" y="-223.3" font-family="Times,serif" font-weight="bold" font-size="14.00">MetadataCatalog</text>
<polygon fill="none" stroke="black" points="1480,-125.5 1480,-215.5 1828,-215.5 1828,-125.5 1480,-125.5"/>
<text text-anchor="start" x="1622.5" y="-202.3" font-family="Times,serif" font-style="italic" font-size="14.00">Methods</text>
<text text-anchor="start" x="1483" y="-188.3" font-family="Times,serif" font-size="14.00">searchStepByID(&lt;String&gt; id):Metadata</text>
<text text-anchor="start" x="1483" y="-174.3" font-family="Times,serif" font-size="14.00">searchByName(&lt;String&gt; name):List[Metadata]</text>
<text text-anchor="start" x="1483" y="-160.3" font-family="Times,serif" font-size="14.00">store(&lt;List[Step]&gt; steps):boolean</text>
<text text-anchor="start" x="1483" y="-146.3" font-family="Times,serif" font-size="14.00">getAll():List[Metadata]</text>
<text text-anchor="start" x="1483" y="-132.3" font-family="Times,serif" font-size="14.00">clear():void</text>
<polygon fill="none" stroke="black" points="1479,-125 1479,-238 1829,-238 1829,-125 1479,-125"/>
</g>
<!-- AbstractCatalog&#45;&gt;MetadataCatalog -->
<g id="edge8" class="edge">
<title>AbstractCatalog&#45;&gt;MetadataCatalog</title>
<path fill="none" stroke="black" stroke-dasharray="5,2" d="M1469.87,-333.96C1501.49,-307.95 1539.99,-276.28 1573.6,-248.63"/>
<polygon fill="black" stroke="black" points="1581.59,-242.07 1576.72,-251.89 1577.72,-245.24 1573.86,-248.42 1573.86,-248.42 1573.86,-248.42 1577.72,-245.24 1571,-244.94 1581.59,-242.07 1581.59,-242.07"/>
</g>
<!-- Metadata -->
<g id="node22" class="node">
<title>Metadata</title>
<text text-anchor="middle" x="1654" y="-14.3" font-family="Times,serif" font-size="14.00">Metadata</text>
</g>
<!-- MetadataCatalog&#45;&gt;Metadata -->
<g id="edge13" class="edge">
<title>MetadataCatalog&#45;&gt;Metadata</title>
<path fill="none" stroke="black" stroke-dasharray="5,2" d="M1654,-120.82C1654,-95.23 1654,-66.6 1654,-46.24"/>
<polygon fill="black" stroke="black" points="1654,-36.12 1658.5,-46.12 1654,-41.12 1654,-46.12 1654,-46.12 1654,-46.12 1654,-41.12 1649.5,-46.12 1654,-36.12 1654,-36.12"/>
</g>
<!-- ViewDefinitionCatalog -->
<g id="node17" class="node">
<title>ViewDefinitionCatalog</title>
<polygon fill="none" stroke="black" points="1340,-526.5 1340,-547.5 1522,-547.5 1522,-526.5 1340,-526.5"/>
<text text-anchor="start" x="1343" y="-534.3" font-family="Times,serif" font-weight="bold" font-size="14.00">ViewDefinitionCatalog</text>
<polygon fill="none" stroke="black" points="1339,-526 1339,-549 1523,-549 1523,-526 1339,-526"/>
</g>
<!-- ViewDefinitionCatalog&#45;&gt;AbstractCatalog -->
<g id="edge10" class="edge">
<title>ViewDefinitionCatalog&#45;&gt;AbstractCatalog</title>
<path fill="none" stroke="black" d="M1428.08,-519.23C1425.25,-502.48 1420.78,-476.03 1416.61,-451.29"/>
<polygon fill="none" stroke="black" points="1420.02,-450.47 1414.9,-441.19 1413.11,-451.63 1420.02,-450.47"/>
</g>
<!-- KameletParseCatalog -->
<g id="node18" class="node">
<title>KameletParseCatalog</title>
<polygon fill="none" stroke="black" points="2374,-725.5 2374,-746.5 2551,-746.5 2551,-725.5 2374,-725.5"/>
<text text-anchor="start" x="2377" y="-733.3" font-family="Times,serif" font-weight="bold" font-size="14.00">KameletParseCatalog</text>
<polygon fill="none" stroke="black" points="2372.5,-725 2372.5,-748 2551.5,-748 2551.5,-725 2372.5,-725"/>
</g>
<!-- KameletParseCatalog&#45;&gt;StepCatalogParser -->
<g id="edge11" class="edge">
<title>KameletParseCatalog&#45;&gt;StepCatalogParser</title>
<path fill="none" stroke="black" d="M2461.83,-718.36C2461.56,-692.47 2461.05,-642.07 2460.64,-601.2"/>
<polygon fill="none" stroke="black" points="2464.13,-600.99 2460.53,-591.03 2457.14,-601.06 2464.13,-600.99"/>
</g>
<!-- KameletParseCatalog&#45;&gt;ParseCatalog -->
<g id="edge12" class="edge">
<title>KameletParseCatalog&#45;&gt;ParseCatalog</title>
<path fill="none" stroke="black" stroke-dasharray="5,2" d="M2473.58,-718.42C2491.16,-693.95 2526.99,-649.42 2569,-627 2617.25,-601.25 2741.02,-578.36 2848.74,-562.31"/>
<polygon fill="black" stroke="black" points="2858.78,-560.82 2849.54,-566.74 2853.83,-561.55 2848.88,-562.28 2848.88,-562.28 2848.88,-562.28 2853.83,-561.55 2848.23,-557.83 2858.78,-560.82 2858.78,-560.82"/>
</g>
<!-- Kamelet -->
<g id="node19" class="node">
<title>Kamelet</title>
<polygon fill="none" stroke="black" points="3971,-725.5 3971,-746.5 4044,-746.5 4044,-725.5 3971,-725.5"/>
<text text-anchor="start" x="3974" y="-733.3" font-family="Times,serif" font-weight="bold" font-size="14.00">Kamelet</text>
<polygon fill="none" stroke="black" points="3969.5,-725 3969.5,-748 4044.5,-748 4044.5,-725 3969.5,-725"/>
</g>
<!-- KameletBinding -->
<g id="node20" class="node">
<title>KameletBinding</title>
<polygon fill="none" stroke="black" points="4080,-725.5 4080,-746.5 4216,-746.5 4216,-725.5 4080,-725.5"/>
<text text-anchor="start" x="4083" y="-733.3" font-family="Times,serif" font-weight="bold" font-size="14.00">KameletBinding</text>
<polygon fill="none" stroke="black" points="4079,-725 4079,-748 4217,-748 4217,-725 4079,-725"/>
</g>
<!-- SimplifiedKamelet -->
<g id="node21" class="node">
<title>SimplifiedKamelet</title>
<polygon fill="none" stroke="black" points="4252,-725.5 4252,-746.5 4404,-746.5 4404,-725.5 4252,-725.5"/>
<text text-anchor="start" x="4255" y="-733.3" font-family="Times,serif" font-weight="bold" font-size="14.00">SimplifiedKamelet</text>
<polygon fill="none" stroke="black" points="4251,-725 4251,-748 4405,-748 4405,-725 4251,-725"/>
</g>
<!-- CatalogCollection -->
<g id="node23" class="node">
<title>CatalogCollection</title>
<polygon fill="none" stroke="black" points="1581,-376.5 1581,-397.5 1727,-397.5 1727,-376.5 1581,-376.5"/>
<text text-anchor="start" x="1584" y="-384.3" font-family="Times,serif" font-weight="bold" font-size="14.00">CatalogCollection</text>
<polygon fill="none" stroke="black" points="1580,-376 1580,-399 1728,-399 1728,-376 1580,-376"/>
</g>
<!-- CatalogCollection&#45;&gt;MetadataCatalog -->
<g id="edge14" class="edge">
<title>CatalogCollection&#45;&gt;MetadataCatalog</title>
<path fill="none" stroke="black" d="M1654,-369.46C1654,-343.89 1654,-294.15 1654,-252.4"/>
<polygon fill="none" stroke="black" points="1657.5,-252.25 1654,-242.25 1650.5,-252.25 1657.5,-252.25"/>
</g>
<!-- InMemoryCatalog -->
<g id="node24" class="node">
<title>InMemoryCatalog</title>
<polygon fill="none" stroke="black" points="1763,-376.5 1763,-397.5 1911,-397.5 1911,-376.5 1763,-376.5"/>
<text text-anchor="start" x="1766" y="-384.3" font-family="Times,serif" font-weight="bold" font-size="14.00">InMemoryCatalog</text>
<polygon fill="none" stroke="black" points="1762,-376 1762,-399 1912,-399 1912,-376 1762,-376"/>
</g>
<!-- InMemoryCatalog&#45;&gt;MetadataCatalog -->
<g id="edge15" class="edge">
<title>InMemoryCatalog&#45;&gt;MetadataCatalog</title>
<path fill="none" stroke="black" d="M1821.71,-369.46C1798.29,-343.35 1752.26,-292.04 1714.34,-249.76"/>
<polygon fill="none" stroke="black" points="1716.89,-247.36 1707.6,-242.25 1711.68,-252.04 1716.89,-247.36"/>
</g>
<!-- ReadOnlyCatalog -->
<g id="node25" class="node">
<title>ReadOnlyCatalog</title>
<polygon fill="none" stroke="black" points="1583,-526.5 1583,-547.5 1725,-547.5 1725,-526.5 1583,-526.5"/>
<text text-anchor="start" x="1586" y="-534.3" font-family="Times,serif" font-weight="bold" font-size="14.00">ReadOnlyCatalog</text>
<polygon fill="none" stroke="black" points="1582,-526 1582,-549 1726,-549 1726,-526 1582,-526"/>
</g>
<!-- ReadOnlyCatalog&#45;&gt;CatalogCollection -->
<g id="edge16" class="edge">
<title>ReadOnlyCatalog&#45;&gt;CatalogCollection</title>
<path fill="none" stroke="black" d="M1654,-519.23C1654,-493.83 1654,-446.15 1654,-415.93"/>
<polygon fill="none" stroke="black" points="1657.5,-415.66 1654,-405.66 1650.5,-415.66 1657.5,-415.66"/>
</g>
<!-- ClusterParseCatalog -->
<g id="node26" class="node">
<title>ClusterParseCatalog</title>
<polygon fill="none" stroke="black" points="2850,-725.5 2850,-746.5 3019,-746.5 3019,-725.5 2850,-725.5"/>
<text text-anchor="start" x="2853" y="-733.3" font-family="Times,serif" font-weight="bold" font-size="14.00">ClusterParseCatalog</text>
<polygon fill="none" stroke="black" points="2848.5,-725 2848.5,-748 3019.5,-748 3019.5,-725 2848.5,-725"/>
</g>
<!-- ClusterParseCatalog&#45;&gt;ParseCatalog -->
<g id="edge17" class="edge">
<title>ClusterParseCatalog&#45;&gt;ParseCatalog</title>
<path fill="none" stroke="black" d="M2942.7,-718.36C2957.49,-689.23 2988.02,-629.08 3009.7,-586.37"/>
<polygon fill="none" stroke="black" points="3012.92,-587.77 3014.32,-577.26 3006.68,-584.6 3012.92,-587.77"/>
</g>
<!-- EmptyParseCatalog -->
<g id="node27" class="node">
<title>EmptyParseCatalog</title>
<polygon fill="none" stroke="black" points="3055,-725.5 3055,-746.5 3216,-746.5 3216,-725.5 3055,-725.5"/>
<text text-anchor="start" x="3058" y="-733.3" font-family="Times,serif" font-weight="bold" font-size="14.00">EmptyParseCatalog</text>
<polygon fill="none" stroke="black" points="3053.5,-725 3053.5,-748 3216.5,-748 3216.5,-725 3053.5,-725"/>
</g>
<!-- EmptyParseCatalog&#45;&gt;ParseCatalog -->
<g id="edge18" class="edge">
<title>EmptyParseCatalog&#45;&gt;ParseCatalog</title>
<path fill="none" stroke="black" d="M3126.21,-718.36C3111.28,-689.23 3080.44,-629.08 3058.54,-586.37"/>
<polygon fill="none" stroke="black" points="3061.55,-584.57 3053.87,-577.26 3055.32,-587.76 3061.55,-584.57"/>
</g>
<!-- GitParseCatalog -->
<g id="node28" class="node">
<title>GitParseCatalog</title>
<polygon fill="none" stroke="black" points="3661,-725.5 3661,-746.5 3796,-746.5 3796,-725.5 3661,-725.5"/>
<text text-anchor="start" x="3664" y="-733.3" font-family="Times,serif" font-weight="bold" font-size="14.00">GitParseCatalog</text>
<polygon fill="none" stroke="black" points="3659.5,-725 3659.5,-748 3796.5,-748 3796.5,-725 3659.5,-725"/>
</g>
<!-- GitParseCatalog&#45;&gt;ParseCatalog -->
<g id="edge19" class="edge">
<title>GitParseCatalog&#45;&gt;ParseCatalog</title>
<path fill="none" stroke="black" d="M3719.67,-718.2C3706.78,-693.46 3679.49,-648.59 3642,-627 3571.86,-586.6 3371.21,-563 3219.43,-550.48"/>
<polygon fill="none" stroke="black" points="3219.3,-546.95 3209.05,-549.63 3218.73,-553.93 3219.3,-546.95"/>
</g>
<!-- YamlProcessFile -->
<g id="node29" class="node">
<title>YamlProcessFile</title>
<text text-anchor="middle" x="3728" y="-533.8" font-family="Times,serif" font-size="14.00">YamlProcessFile</text>
</g>
<!-- GitParseCatalog&#45;&gt;YamlProcessFile -->
<g id="edge20" class="edge">
<title>GitParseCatalog&#45;&gt;YamlProcessFile</title>
<path fill="none" stroke="black" stroke-dasharray="5,2" d="M3728,-718.36C3728,-684.16 3728,-607.19 3728,-565.9"/>
<polygon fill="black" stroke="black" points="3728,-555.74 3732.5,-565.74 3728,-560.74 3728,-565.74 3728,-565.74 3728,-565.74 3728,-560.74 3723.5,-565.74 3728,-555.74 3728,-555.74"/>
</g>
<!-- JarParseCatalog -->
<g id="node30" class="node">
<title>JarParseCatalog</title>
<polygon fill="none" stroke="black" points="3252,-725.5 3252,-746.5 3386,-746.5 3386,-725.5 3252,-725.5"/>
<text text-anchor="start" x="3255" y="-733.3" font-family="Times,serif" font-weight="bold" font-size="14.00">JarParseCatalog</text>
<polygon fill="none" stroke="black" points="3251,-725 3251,-748 3387,-748 3387,-725 3251,-725"/>
</g>
<!-- JarParseCatalog&#45;&gt;ParseCatalog -->
<g id="edge21" class="edge">
<title>JarParseCatalog&#45;&gt;ParseCatalog</title>
<path fill="none" stroke="black" d="M3309.26,-718.31C3295.26,-694.92 3267.42,-653.02 3234,-627 3210.78,-608.93 3183.29,-593.69 3156.25,-581.22"/>
<polygon fill="none" stroke="black" points="3157.66,-578.02 3147.1,-577.1 3154.78,-584.4 3157.66,-578.02"/>
</g>
<!-- LocalFolderParseCatalog -->
<g id="node31" class="node">
<title>LocalFolderParseCatalog</title>
<polygon fill="none" stroke="black" points="3422,-725.5 3422,-746.5 3624,-746.5 3624,-725.5 3422,-725.5"/>
<text text-anchor="start" x="3425" y="-733.3" font-family="Times,serif" font-weight="bold" font-size="14.00">LocalFolderParseCatalog</text>
<polygon fill="none" stroke="black" points="3421,-725 3421,-748 3625,-748 3625,-725 3421,-725"/>
</g>
<!-- LocalFolderParseCatalog&#45;&gt;ParseCatalog -->
<g id="edge22" class="edge">
<title>LocalFolderParseCatalog&#45;&gt;ParseCatalog</title>
<path fill="none" stroke="black" d="M3509.18,-718.31C3488.78,-694.14 3448.23,-650.42 3404,-627 3347.21,-596.93 3280.14,-576.93 3218.81,-563.69"/>
<polygon fill="none" stroke="black" points="3219.53,-560.27 3209.02,-561.62 3218.08,-567.11 3219.53,-560.27"/>
</g>
<!-- ProcessFile -->
<g id="node32" class="node">
<title>ProcessFile</title>
<polygon fill="none" stroke="black" points="4441,-725.5 4441,-746.5 4538,-746.5 4538,-725.5 4441,-725.5"/>
<text text-anchor="start" x="4444" y="-733.3" font-family="Times,serif" font-weight="bold" font-size="14.00">ProcessFile</text>
<polygon fill="none" stroke="black" points="4439.5,-725 4439.5,-748 4538.5,-748 4538.5,-725 4439.5,-725"/>
</g>
<!-- ViewDefinitionParseCatalog -->
<g id="node33" class="node">
<title>ViewDefinitionParseCatalog</title>
<polygon fill="none" stroke="black" points="2587,-725.5 2587,-746.5 2813,-746.5 2813,-725.5 2587,-725.5"/>
<text text-anchor="start" x="2590" y="-733.3" font-family="Times,serif" font-weight="bold" font-size="14.00">ViewDefinitionParseCatalog</text>
<polygon fill="none" stroke="black" points="2586,-725 2586,-748 2814,-748 2814,-725 2586,-725"/>
</g>
<!-- ViewDefinitionParseCatalog&#45;&gt;ParseCatalog -->
<g id="edge23" class="edge">
<title>ViewDefinitionParseCatalog&#45;&gt;ParseCatalog</title>
<path fill="none" stroke="black" stroke-dasharray="5,2" d="M2717.58,-718.34C2741.8,-695.35 2787.5,-654.31 2832,-627 2860.02,-609.8 2891.97,-594.19 2922.06,-581.02"/>
<polygon fill="black" stroke="black" points="2931.33,-577.02 2923.94,-585.11 2926.74,-579 2922.15,-580.98 2922.15,-580.98 2922.15,-580.98 2926.74,-579 2920.37,-576.85 2931.33,-577.02 2931.33,-577.02"/>
</g>
<!-- Parameter -->
<g id="node34" class="node">
<title>Parameter</title>
<polygon fill="none" stroke="black" points="4574,-819.5 4574,-840.5 4734,-840.5 4734,-819.5 4574,-819.5"/>
<text text-anchor="start" x="4612" y="-827.3" font-family="Times,serif" font-weight="bold" font-size="14.00">Parameter</text>
<polygon fill="none" stroke="black" points="4574,-631.5 4574,-819.5 4734,-819.5 4734,-631.5 4574,-631.5"/>
<text text-anchor="start" x="4616" y="-806.3" font-family="Times,serif" font-style="italic" font-size="14.00">Properties</text>
<text text-anchor="start" x="4577" y="-792.3" font-family="Times,serif" font-size="14.00">description:String</text>
<text text-anchor="start" x="4577" y="-778.3" font-family="Times,serif" font-size="14.00">title:String</text>
<text text-anchor="start" x="4577" y="-764.3" font-family="Times,serif" font-size="14.00">id:String</text>
<text text-anchor="start" x="4577" y="-750.3" font-family="Times,serif" font-size="14.00">value:Object</text>
<text text-anchor="start" x="4577" y="-736.3" font-family="Times,serif" font-size="14.00">default:Object</text>
<text text-anchor="start" x="4577" y="-722.3" font-family="Times,serif" font-size="14.00">type:String</text>
<text text-anchor="start" x="4577" y="-708.3" font-family="Times,serif" font-size="14.00">path:Boolean</text>
<text text-anchor="start" x="4577" y="-694.3" font-family="Times,serif" font-size="14.00">nullable:Boolean</text>
<text text-anchor="start" x="4577" y="-680.3" font-family="Times,serif" font-size="14.00">enum:Object[]</text>
<text text-anchor="start" x="4577" y="-666.3" font-family="Times,serif" font-size="14.00">examples:Object[]</text>
<text text-anchor="start" x="4577" y="-652.3" font-family="Times,serif" font-size="14.00">pathOrder:Integer</text>
<text text-anchor="start" x="4577" y="-638.3" font-family="Times,serif" font-size="14.00">pathSeparator:String</text>
<polygon fill="none" stroke="black" points="4573,-631 4573,-842 4735,-842 4735,-631 4573,-631"/>
</g>
<!-- Step -->
<g id="node35" class="node">
<title>Step</title>
<polygon fill="none" stroke="black" points="1088,-264.5 1088,-285.5 1294,-285.5 1294,-264.5 1088,-264.5"/>
<text text-anchor="start" x="1173" y="-272.3" font-family="Times,serif" font-weight="bold" font-size="14.00">Step</text>
<polygon fill="none" stroke="black" points="1088,-76.5 1088,-264.5 1294,-264.5 1294,-76.5 1088,-76.5"/>
<text text-anchor="start" x="1153" y="-251.3" font-family="Times,serif" font-style="italic" font-size="14.00">Properties</text>
<text text-anchor="start" x="1091" y="-237.3" font-family="Times,serif" font-size="14.00">description:String</text>
<text text-anchor="start" x="1091" y="-223.3" font-family="Times,serif" font-size="14.00">title:String</text>
<text text-anchor="start" x="1091" y="-209.3" font-family="Times,serif" font-size="14.00">parameters:List[Parameter]</text>
<text text-anchor="start" x="1091" y="-195.3" font-family="Times,serif" font-size="14.00">icon:String</text>
<text text-anchor="start" x="1091" y="-181.3" font-family="Times,serif" font-size="14.00">UUID:String</text>
<text text-anchor="start" x="1091" y="-167.3" font-family="Times,serif" font-size="14.00">required:String[]</text>
<text text-anchor="start" x="1091" y="-153.3" font-family="Times,serif" font-size="14.00">group:String</text>
<text text-anchor="start" x="1091" y="-139.3" font-family="Times,serif" font-size="14.00">kind:String</text>
<text text-anchor="start" x="1091" y="-125.3" font-family="Times,serif" font-size="14.00">branches:Branch[]</text>
<text text-anchor="start" x="1091" y="-111.3" font-family="Times,serif" font-size="14.00">minBranches:Integer</text>
<text text-anchor="start" x="1091" y="-97.3" font-family="Times,serif" font-size="14.00">maxBranches:Integer</text>
<text text-anchor="start" x="1091" y="-83.3" font-family="Times,serif" font-size="14.00">id:String</text>
<polygon fill="none" stroke="black" points="1087,-76 1087,-287 1295,-287 1295,-76 1087,-76"/>
</g>
<!-- Step&#45;&gt;Metadata -->
<g id="edge24" class="edge">
<title>Step&#45;&gt;Metadata</title>
<path fill="none" stroke="black" d="M1303.02,-132.39C1351.45,-112.44 1409.05,-89.85 1462,-72 1508.47,-56.34 1562.38,-41.76 1601.23,-31.88"/>
<polygon fill="none" stroke="black" points="1602.42,-35.18 1611.26,-29.34 1600.71,-28.4 1602.42,-35.18"/>
</g>
<!-- ViewDefinition -->
<g id="node36" class="node">
<title>ViewDefinition</title>
<polygon fill="none" stroke="black" points="1883,-208.5 1883,-229.5 2192,-229.5 2192,-208.5 1883,-208.5"/>
<text text-anchor="start" x="1979.5" y="-216.3" font-family="Times,serif" font-weight="bold" font-size="14.00">ViewDefinition</text>
<polygon fill="none" stroke="black" points="1883,-132.5 1883,-208.5 2192,-208.5 2192,-132.5 1883,-132.5"/>
<text text-anchor="start" x="1999.5" y="-195.3" font-family="Times,serif" font-style="italic" font-size="14.00">Properties</text>
<text text-anchor="start" x="1886" y="-181.3" font-family="Times,serif" font-size="14.00">properties:Map[String, String]</text>
<text text-anchor="start" x="1886" y="-167.3" font-family="Times,serif" font-size="14.00">step:Step</text>
<text text-anchor="start" x="1886" y="-153.3" font-family="Times,serif" font-size="14.00">url:String</text>
<text text-anchor="start" x="1886" y="-139.3" font-family="Times,serif" font-size="14.00">constraints:List[ViewDefinitionConstraint]</text>
<polygon fill="none" stroke="black" points="1881.5,-132 1881.5,-231 2192.5,-231 2192.5,-132 1881.5,-132"/>
</g>
<!-- ViewDefinition&#45;&gt;Metadata -->
<g id="edge25" class="edge">
<title>ViewDefinition&#45;&gt;Metadata</title>
<path fill="none" stroke="black" d="M1954.65,-127.79C1921.77,-108.34 1882.99,-87.33 1846,-72 1800.3,-53.06 1745.73,-38.74 1706.46,-29.79"/>
<polygon fill="none" stroke="black" points="1707.1,-26.34 1696.57,-27.57 1705.57,-33.17 1707.1,-26.34"/>
</g>
<!-- ViewDefinitionConstraint -->
<g id="node37" class="node">
<title>ViewDefinitionConstraint</title>
<text text-anchor="middle" x="2037" y="-383.8" font-family="Times,serif" font-size="14.00">ViewDefinitionConstraint</text>
</g>
<!-- ViewDefinitionConstraint&#45;&gt;ViewDefinition -->
<g id="edge26" class="edge">
<title>ViewDefinitionConstraint&#45;&gt;ViewDefinition</title>
<path fill="none" stroke="black" d="M2037,-369.46C2037,-342.82 2037,-289.93 2037,-247.19"/>
<polygon fill="black" stroke="black" points="2037,-247.15 2033,-241.15 2037,-235.15 2041,-241.15 2037,-247.15"/>
<text text-anchor="middle" x="2023" y="-358.26" font-family="Times,serif" font-size="14.00">0..n</text>
</g>
<!-- StepParserService -->
<g id="node38" class="node">
<title>StepParserService</title>
<polygon fill="none" stroke="black" points="851,-421.5 851,-442.5 1231,-442.5 1231,-421.5 851,-421.5"/>
<text text-anchor="start" x="968.5" y="-429.3" font-family="Times,serif" font-weight="bold" font-size="14.00">StepParserService</text>
<polygon fill="none" stroke="black" points="851,-331.5 851,-421.5 1231,-421.5 1231,-331.5 851,-331.5"/>
<text text-anchor="start" x="1009.5" y="-408.3" font-family="Times,serif" font-style="italic" font-size="14.00">Methods</text>
<text text-anchor="start" x="854" y="-394.3" font-family="Times,serif" font-size="14.00">identifier():String</text>
<text text-anchor="start" x="854" y="-380.3" font-family="Times,serif" font-size="14.00">description():String</text>
<text text-anchor="start" x="854" y="-366.3" font-family="Times,serif" font-size="14.00">parse(&lt;String&gt; yaml):ParseResult</text>
<text text-anchor="start" x="854" y="-352.3" font-family="Times,serif" font-size="14.00">getParsedFlows(&lt;String&gt; yaml):List&lt;ParseResult&gt;</text>
<text text-anchor="start" x="854" y="-338.3" font-family="Times,serif" font-size="14.00">appliesTo(&lt;String&gt; yaml):boolean</text>
<polygon fill="none" stroke="black" points="850,-331 850,-444 1232,-444 1232,-331 850,-331"/>
</g>
<!-- StepParserService&#45;&gt;Step -->
<g id="edge27" class="edge">
<title>StepParserService&#45;&gt;Step</title>
<path fill="none" stroke="black" stroke-dasharray="5,2" d="M1084.79,-326.95C1091.21,-318.21 1098,-308.98 1104.92,-299.56"/>
<polygon fill="black" stroke="black" points="1111.03,-291.26 1108.73,-301.98 1108.07,-295.28 1105.11,-299.31 1105.11,-299.31 1105.11,-299.31 1108.07,-295.28 1101.48,-296.65 1111.03,-291.26 1111.03,-291.26"/>
</g>
<!-- ViewDefinitionParserService -->
<g id="node39" class="node">
<title>ViewDefinitionParserService</title>
<polygon fill="none" stroke="black" points="2163,-414.5 2163,-435.5 2761,-435.5 2761,-414.5 2163,-414.5"/>
<text text-anchor="start" x="2349.5" y="-422.3" font-family="Times,serif" font-weight="bold" font-size="14.00">ViewDefinitionParserService</text>
<polygon fill="none" stroke="black" points="2163,-338.5 2163,-414.5 2761,-414.5 2761,-338.5 2163,-338.5"/>
<text text-anchor="start" x="2430.5" y="-401.3" font-family="Times,serif" font-style="italic" font-size="14.00">Methods</text>
<text text-anchor="start" x="2166" y="-387.3" font-family="Times,serif" font-size="14.00">parse(&lt;List[Step]&gt; steps):List[ViewDefinition]</text>
<text text-anchor="start" x="2166" y="-373.3" font-family="Times,serif" font-size="14.00">getViewsPerStep(&lt;List[Step]&gt; steps, &lt;ViewDefinition&gt; view):List[ViewDefinition]</text>
<text text-anchor="start" x="2166" y="-359.3" font-family="Times,serif" font-size="14.00">appliesTo(&lt;List[Step]&gt; steps, &lt;ViewDefinition&gt; viewDefinition):boolean</text>
<text text-anchor="start" x="2166" y="-345.3" font-family="Times,serif" font-size="14.00">appliesToStep(&lt;Step&gt; steps, &lt;ViewDefinition&gt; viewDefinition):boolean</text>
<polygon fill="none" stroke="black" points="2162,-338 2162,-437 2762,-437 2762,-338 2162,-338"/>
</g>
<!-- ViewDefinitionParserService&#45;&gt;ViewDefinition -->
<g id="edge28" class="edge">
<title>ViewDefinitionParserService&#45;&gt;ViewDefinition</title>
<path fill="none" stroke="black" stroke-dasharray="5,2" d="M2352.55,-333.96C2292.31,-305.05 2217.5,-269.14 2155.83,-239.54"/>
<polygon fill="black" stroke="black" points="2146.45,-235.03 2157.41,-235.3 2150.95,-237.2 2155.46,-239.36 2155.46,-239.36 2155.46,-239.36 2150.95,-237.2 2153.51,-243.42 2146.45,-235.03 2146.45,-235.03"/>
</g>
</g>
</svg>
