<?xml version="1.0" encoding="UTF-8" standalone="no"?>
<!DOCTYPE svg PUBLIC "-//W3C//DTD SVG 1.1//EN"
 "http://www.w3.org/Graphics/SVG/1.1/DTD/svg11.dtd">
<!-- Generated by graphviz version 2.43.0 (0)
 -->
<!-- Title: ClassDiagram Pages: 1 -->
<svg width="5752pt" height="855pt"
 viewBox="0.00 0.00 5751.50 855.00" xmlns="http://www.w3.org/2000/svg" xmlns:xlink="http://www.w3.org/1999/xlink">
<g id="graph0" class="graph" transform="scale(1 1) rotate(0) translate(4 851)">
<title>ClassDiagram</title>
<polygon fill="white" stroke="transparent" points="-4,4 -4,-851 5747.5,-851 5747.5,4 -4,4"/>
<!-- DeploymentResource -->
<g id="node1" class="node">
<title>DeploymentResource</title>
<polygon fill="none" stroke="black" points="9.5,-593.5 9.5,-614.5 536.5,-614.5 536.5,-593.5 9.5,-593.5"/>
<text text-anchor="start" x="188.5" y="-601.3" font-family="Times,serif" font-weight="bold" font-size="14.00">DeploymentResource</text>
<polygon fill="none" stroke="black" points="9.5,-517.5 9.5,-593.5 536.5,-593.5 536.5,-517.5 9.5,-517.5"/>
<text text-anchor="start" x="241.5" y="-580.3" font-family="Times,serif" font-style="italic" font-size="14.00">Methods</text>
<text text-anchor="start" x="12.5" y="-566.3" font-family="Times,serif" font-size="14.00">yaml(&lt;DeploymentResourceYamlRequest&gt; steps, &lt;String&gt; dsl):String[]</text>
<text text-anchor="start" x="12.5" y="-552.3" font-family="Times,serif" font-size="14.00">start(&lt;DeploymentResourceYamlRequest&gt; steps):String</text>
<text text-anchor="start" x="12.5" y="-538.3" font-family="Times,serif" font-size="14.00">integrations():String</text>
<text text-anchor="start" x="12.5" y="-524.3" font-family="Times,serif" font-size="14.00">stop():String</text>
<polygon fill="none" stroke="black" points="8,-517 8,-616 537,-616 537,-517 8,-517"/>
</g>
<!-- DeploymentService -->
<g id="node2" class="node">
<title>DeploymentService</title>
<text text-anchor="middle" x="509.5" y="-747.8" font-family="Times,serif" font-size="14.00">DeploymentService</text>
</g>
<!-- DeploymentService&#45;&gt;DeploymentResource -->
<g id="edge1" class="edge">
<title>DeploymentService&#45;&gt;DeploymentResource</title>
<path fill="none" stroke="black" d="M487.2,-733.28C456.1,-709.27 398.13,-664.5 350.25,-627.54"/>
<polygon fill="black" stroke="black" points="350.01,-627.35 342.82,-626.85 340.51,-620.02 347.71,-620.52 350.01,-627.35"/>
<text text-anchor="middle" x="473.2" y="-722.08" font-family="Times,serif" font-size="14.00">0..1</text>
</g>
<!-- IntegrationsResource -->
<g id="node9" class="node">
<title>IntegrationsResource</title>
<polygon fill="none" stroke="black" points="572.5,-572.5 572.5,-593.5 921.5,-593.5 921.5,-572.5 572.5,-572.5"/>
<text text-anchor="start" x="660.5" y="-580.3" font-family="Times,serif" font-weight="bold" font-size="14.00">IntegrationsResource</text>
<polygon fill="none" stroke="black" points="572.5,-538.5 572.5,-572.5 921.5,-572.5 921.5,-538.5 572.5,-538.5"/>
<text text-anchor="start" x="715.5" y="-559.3" font-family="Times,serif" font-style="italic" font-size="14.00">Methods</text>
<text text-anchor="start" x="575.5" y="-545.3" font-family="Times,serif" font-size="14.00">crd(&lt;String&gt; dsl):Map&lt;String, Map&lt;String&gt;&gt;</text>
<polygon fill="none" stroke="black" points="571,-538 571,-595 922,-595 922,-538 571,-538"/>
</g>
<!-- DeploymentService&#45;&gt;IntegrationsResource -->
<g id="edge6" class="edge">
<title>DeploymentService&#45;&gt;IntegrationsResource</title>
<path fill="none" stroke="black" d="M531.8,-733.28C569.07,-704.51 644.93,-645.93 695.75,-606.69"/>
<polygon fill="black" stroke="black" points="696.07,-606.44 698.37,-599.61 705.56,-599.11 703.26,-605.94 696.07,-606.44"/>
<text text-anchor="middle" x="517.8" y="-722.08" font-family="Times,serif" font-size="14.00">0..1</text>
</g>
<!-- LanguageResource 🐱relationship compositionOf LanguageService, 0..1 -->
<g id="node3" class="node">
<title>LanguageResource 🐱relationship compositionOf LanguageService, 0..1</title>
<polygon fill="none" stroke="black" points="1145.5,-757.5 1145.5,-778.5 1715.5,-778.5 1715.5,-757.5 1145.5,-757.5"/>
<text text-anchor="start" x="1148.5" y="-765.3" font-family="Times,serif" font-weight="bold" font-size="14.00">LanguageResource 🐱relationship compositionOf LanguageService, 0..1</text>
<polygon fill="none" stroke="black" points="1145.5,-723.5 1145.5,-757.5 1715.5,-757.5 1715.5,-723.5 1145.5,-723.5"/>
<text text-anchor="start" x="1399" y="-744.3" font-family="Times,serif" font-style="italic" font-size="14.00">Methods</text>
<text text-anchor="start" x="1386" y="-730.3" font-family="Times,serif" font-size="14.00">getAll():Map</text>
<polygon fill="none" stroke="black" points="1144.5,-723 1144.5,-780 1716.5,-780 1716.5,-723 1144.5,-723"/>
</g>
<!-- StepResource -->
<g id="node4" class="node">
<title>StepResource</title>
<polygon fill="none" stroke="black" points="2256.5,-785.5 2256.5,-806.5 2728.5,-806.5 2728.5,-785.5 2256.5,-785.5"/>
<text text-anchor="start" x="2438" y="-793.3" font-family="Times,serif" font-weight="bold" font-size="14.00">StepResource</text>
<polygon fill="none" stroke="black" points="2256.5,-695.5 2256.5,-785.5 2728.5,-785.5 2728.5,-695.5 2256.5,-695.5"/>
<text text-anchor="start" x="2461" y="-772.3" font-family="Times,serif" font-style="italic" font-size="14.00">Methods</text>
<text text-anchor="start" x="2259.5" y="-758.3" font-family="Times,serif" font-size="14.00">stepById(&lt;String&gt; id):Step</text>
<text text-anchor="start" x="2259.5" y="-744.3" font-family="Times,serif" font-size="14.00">stepsByName(&lt;String&gt; name):List[Step]</text>
<text text-anchor="start" x="2259.5" y="-730.3" font-family="Times,serif" font-size="14.00">stepsByKind(&lt;String&gt; type):List[Step]</text>
<text text-anchor="start" x="2259.5" y="-716.3" font-family="Times,serif" font-size="14.00">stepsByIntegrationType(&lt;String&gt; type):List[Step]</text>
<text text-anchor="start" x="2259.5" y="-702.3" font-family="Times,serif" font-size="14.00">allSteps(&lt;String&gt; type, &lt;String&gt; dsl, &lt;String&gt; kind):List[Step]</text>
<polygon fill="none" stroke="black" points="2255.5,-695 2255.5,-808 2729.5,-808 2729.5,-695 2255.5,-695"/>
</g>
<!-- StepCatalog -->
<g id="node5" class="node">
<title>StepCatalog</title>
<polygon fill="none" stroke="black" points="2441.5,-555.5 2441.5,-576.5 2543.5,-576.5 2543.5,-555.5 2441.5,-555.5"/>
<text text-anchor="start" x="2444.5" y="-563.3" font-family="Times,serif" font-weight="bold" font-size="14.00">StepCatalog</text>
<polygon fill="none" stroke="black" points="2440.5,-555 2440.5,-578 2544.5,-578 2544.5,-555 2440.5,-555"/>
</g>
<!-- StepResource&#45;&gt;StepCatalog -->
<g id="edge2" class="edge">
<title>StepResource&#45;&gt;StepCatalog</title>
<path fill="none" stroke="black" stroke-dasharray="5,2" d="M2486.13,-690.83C2485.33,-658.49 2485.8,-620.08 2487.52,-594.82"/>
<polygon fill="black" stroke="black" points="2488.37,-584.53 2492.03,-594.87 2487.96,-589.51 2487.55,-594.5 2487.55,-594.5 2487.55,-594.5 2487.96,-589.51 2483.06,-594.13 2488.37,-584.53 2488.37,-584.53"/>
</g>
<!-- StepResource&#45;&gt;StepCatalog -->
<g id="edge3" class="edge">
<title>StepResource&#45;&gt;StepCatalog</title>
<path fill="none" stroke="black" stroke-dasharray="5,2" d="M2498.87,-690.83C2499.67,-658.49 2499.2,-620.08 2497.48,-594.82"/>
<polygon fill="black" stroke="black" points="2496.63,-584.53 2501.94,-594.13 2497.04,-589.51 2497.45,-594.5 2497.45,-594.5 2497.45,-594.5 2497.04,-589.51 2492.97,-594.87 2496.63,-584.53 2496.63,-584.53"/>
</g>
<!-- AbstractCatalog -->
<g id="node16" class="node">
<title>AbstractCatalog</title>
<polygon fill="none" stroke="black" points="2506.5,-422.5 2506.5,-443.5 2784.5,-443.5 2784.5,-422.5 2506.5,-422.5"/>
<text text-anchor="start" x="2582" y="-430.3" font-family="Times,serif" font-weight="bold" font-size="14.00">AbstractCatalog</text>
<polygon fill="none" stroke="black" points="2506.5,-374.5 2506.5,-422.5 2784.5,-422.5 2784.5,-374.5 2506.5,-374.5"/>
<text text-anchor="start" x="2614" y="-409.3" font-family="Times,serif" font-style="italic" font-size="14.00">Methods</text>
<text text-anchor="start" x="2509.5" y="-395.3" font-family="Times,serif" font-size="14.00">waitForWarmUp():CompletableFuture</text>
<text text-anchor="start" x="2509.5" y="-381.3" font-family="Times,serif" font-size="14.00">loadParsers():List[ParseCatalog]</text>
<polygon fill="none" stroke="black" points="2505.5,-374 2505.5,-445 2785.5,-445 2785.5,-374 2505.5,-374"/>
</g>
<!-- StepCatalog&#45;&gt;AbstractCatalog -->
<g id="edge10" class="edge">
<title>StepCatalog&#45;&gt;AbstractCatalog</title>
<path fill="none" stroke="black" d="M2509.46,-548.32C2531.21,-526.28 2569.77,-487.22 2600.3,-456.29"/>
<polygon fill="none" stroke="black" points="2602.94,-458.6 2607.47,-449.02 2597.96,-453.68 2602.94,-458.6"/>
</g>
<!-- ViewDefinitionResource -->
<g id="node6" class="node">
<title>ViewDefinitionResource</title>
<polygon fill="none" stroke="black" points="922.5,-422.5 922.5,-443.5 1390.5,-443.5 1390.5,-422.5 922.5,-422.5"/>
<text text-anchor="start" x="1061.5" y="-430.3" font-family="Times,serif" font-weight="bold" font-size="14.00">ViewDefinitionResource</text>
<polygon fill="none" stroke="black" points="922.5,-374.5 922.5,-422.5 1390.5,-422.5 1390.5,-374.5 922.5,-374.5"/>
<text text-anchor="start" x="1125" y="-409.3" font-family="Times,serif" font-style="italic" font-size="14.00">Methods</text>
<text text-anchor="start" x="925.5" y="-395.3" font-family="Times,serif" font-size="14.00">views:(&lt;String&gt; yaml):</text>
<text text-anchor="start" x="925.5" y="-381.3" font-family="Times,serif" font-size="14.00">viewsPerStepList:(&lt;Step[]&gt; DeploymentResourceYamlRequest):</text>
<polygon fill="none" stroke="black" points="921.5,-374 921.5,-445 1391.5,-445 1391.5,-374 921.5,-374"/>
</g>
<!-- ViewDefinitionService -->
<g id="node7" class="node">
<title>ViewDefinitionService</title>
<polygon fill="none" stroke="black" points="957.5,-572.5 957.5,-593.5 1355.5,-593.5 1355.5,-572.5 957.5,-572.5"/>
<text text-anchor="start" x="1070" y="-580.3" font-family="Times,serif" font-weight="bold" font-size="14.00">ViewDefinitionService</text>
<polygon fill="none" stroke="black" points="957.5,-538.5 957.5,-572.5 1355.5,-572.5 1355.5,-538.5 957.5,-538.5"/>
<text text-anchor="start" x="1125" y="-559.3" font-family="Times,serif" font-style="italic" font-size="14.00">Methods</text>
<text text-anchor="start" x="960.5" y="-545.3" font-family="Times,serif" font-size="14.00">viewsPerStepList(&lt;Step[]&gt; steps):List[ViewDefinition]</text>
<polygon fill="none" stroke="black" points="956.5,-538 956.5,-595 1356.5,-595 1356.5,-538 956.5,-538"/>
</g>
<!-- ViewDefinitionService&#45;&gt;ViewDefinitionResource -->
<g id="edge4" class="edge">
<title>ViewDefinitionService&#45;&gt;ViewDefinitionResource</title>
<path fill="none" stroke="black" d="M1150.93,-533.76C1149.7,-512.87 1149.43,-485.06 1150.12,-461.15"/>
<polygon fill="black" stroke="black" points="1150.13,-461.05 1146.35,-454.91 1150.57,-449.06 1154.35,-455.2 1150.13,-461.05"/>
<text text-anchor="middle" x="1136.93" y="-522.56" font-family="Times,serif" font-size="14.00">0..1</text>
</g>
<!-- ViewDefinitionService&#45;&gt;ViewDefinitionResource -->
<g id="edge5" class="edge">
<title>ViewDefinitionService&#45;&gt;ViewDefinitionResource</title>
<path fill="none" stroke="black" d="M1162.07,-533.76C1163.3,-512.87 1163.57,-485.06 1162.88,-461.15"/>
<polygon fill="black" stroke="black" points="1162.87,-461.05 1158.65,-455.2 1162.43,-449.06 1166.65,-454.91 1162.87,-461.05"/>
<text text-anchor="middle" x="1176.07" y="-522.56" font-family="Times,serif" font-size="14.00">0..1</text>
</g>
<!-- StepParserService -->
<g id="node14" class="node">
<title>StepParserService</title>
<polygon fill="none" stroke="black" points="631.5,-436.5 631.5,-457.5 886.5,-457.5 886.5,-436.5 631.5,-436.5"/>
<text text-anchor="start" x="686.5" y="-444.3" font-family="Times,serif" font-weight="bold" font-size="14.00">StepParserService</text>
<polygon fill="none" stroke="black" points="631.5,-360.5 631.5,-436.5 886.5,-436.5 886.5,-360.5 631.5,-360.5"/>
<text text-anchor="start" x="727.5" y="-423.3" font-family="Times,serif" font-style="italic" font-size="14.00">Methods</text>
<text text-anchor="start" x="634.5" y="-409.3" font-family="Times,serif" font-size="14.00">identifier():String</text>
<text text-anchor="start" x="634.5" y="-395.3" font-family="Times,serif" font-size="14.00">description():String</text>
<text text-anchor="start" x="634.5" y="-381.3" font-family="Times,serif" font-size="14.00">parse(&lt;String&gt; yaml):ParseResult</text>
<text text-anchor="start" x="634.5" y="-367.3" font-family="Times,serif" font-size="14.00">appliesTo(&lt;String&gt; yaml):boolean</text>
<polygon fill="none" stroke="black" points="630,-360 630,-459 887,-459 887,-360 630,-360"/>
</g>
<!-- ViewDefinitionService&#45;&gt;StepParserService -->
<g id="edge7" class="edge">
<title>ViewDefinitionService&#45;&gt;StepParserService</title>
<path fill="none" stroke="black" stroke-dasharray="5,2" d="M1060.32,-533.98C1013.01,-517.91 955.37,-497.47 904.5,-477 896.7,-473.86 888.71,-470.54 880.68,-467.12"/>
<polygon fill="black" stroke="black" points="871.25,-463.06 882.21,-462.88 875.84,-465.04 880.44,-467.01 880.44,-467.01 880.44,-467.01 875.84,-465.04 878.66,-471.15 871.25,-463.06 871.25,-463.06"/>
</g>
<!-- ViewDefinitionParserService -->
<g id="node15" class="node">
<title>ViewDefinitionParserService</title>
<polygon fill="none" stroke="black" points="1688.5,-429.5 1688.5,-450.5 2286.5,-450.5 2286.5,-429.5 1688.5,-429.5"/>
<text text-anchor="start" x="1875" y="-437.3" font-family="Times,serif" font-weight="bold" font-size="14.00">ViewDefinitionParserService</text>
<polygon fill="none" stroke="black" points="1688.5,-367.5 1688.5,-429.5 2286.5,-429.5 2286.5,-367.5 1688.5,-367.5"/>
<text text-anchor="start" x="1956" y="-416.3" font-family="Times,serif" font-style="italic" font-size="14.00">Methods</text>
<text text-anchor="start" x="1691.5" y="-402.3" font-family="Times,serif" font-size="14.00">parse(&lt;List[Step]&gt; steps):List[ViewDefinition]</text>
<text text-anchor="start" x="1691.5" y="-388.3" font-family="Times,serif" font-size="14.00">getViewsPerStep(&lt;List[Step]&gt; steps, &lt;ViewDefinition&gt; view):List[ViewDefinition]</text>
<text text-anchor="start" x="1691.5" y="-374.3" font-family="Times,serif" font-size="14.00">appliesTo(&lt;List[Step]&gt; steps, &lt;ViewDefinition&gt; viewDefinition):boolean</text>
<polygon fill="none" stroke="black" points="1687.5,-367 1687.5,-452 2287.5,-452 2287.5,-367 1687.5,-367"/>
</g>
<!-- ViewDefinitionService&#45;&gt;ViewDefinitionParserService -->
<g id="edge8" class="edge">
<title>ViewDefinitionService&#45;&gt;ViewDefinitionParserService</title>
<path fill="none" stroke="black" stroke-dasharray="5,2" d="M1349.62,-533.95C1446.15,-517.75 1564.66,-497.21 1670.5,-477 1701.41,-471.1 1733.95,-464.6 1765.94,-458.05"/>
<polygon fill="black" stroke="black" points="1775.85,-456.01 1766.96,-462.43 1770.95,-457.02 1766.05,-458.02 1766.05,-458.02 1766.05,-458.02 1770.95,-457.02 1765.15,-453.62 1775.85,-456.01 1775.85,-456.01"/>
</g>
<!-- DeploymentResource 🐱relationship compositionOf DeploymentService, -->
<g id="node8" class="node">
<title>DeploymentResource 🐱relationship compositionOf DeploymentService,</title>
<polygon fill="none" stroke="black" points="2765.5,-778.5 2765.5,-799.5 3336.5,-799.5 3336.5,-778.5 2765.5,-778.5"/>
<text text-anchor="start" x="2768.5" y="-786.3" font-family="Times,serif" font-weight="bold" font-size="14.00">DeploymentResource 🐱relationship compositionOf DeploymentService,</text>
<polygon fill="none" stroke="black" points="2765.5,-702.5 2765.5,-778.5 3336.5,-778.5 3336.5,-702.5 2765.5,-702.5"/>
<text text-anchor="start" x="3019.5" y="-765.3" font-family="Times,serif" font-style="italic" font-size="14.00">Methods</text>
<text text-anchor="start" x="2847.5" y="-751.3" font-family="Times,serif" font-size="14.00">all():String</text>
<text text-anchor="start" x="2847.5" y="-737.3" font-family="Times,serif" font-size="14.00">start(&lt;DeploymentResourceYamlRequest&gt; steps):String</text>
<text text-anchor="start" x="2847.5" y="-723.3" font-family="Times,serif" font-size="14.00">get():String</text>
<text text-anchor="start" x="2847.5" y="-709.3" font-family="Times,serif" font-size="14.00">stop():String</text>
<polygon fill="none" stroke="black" points="2764,-702 2764,-801 3337,-801 3337,-702 2764,-702"/>
</g>
<!-- Capabilities -->
<g id="node10" class="node">
<title>Capabilities</title>
<polygon fill="none" stroke="black" points="3372.5,-740.5 3372.5,-761.5 3472.5,-761.5 3472.5,-740.5 3372.5,-740.5"/>
<text text-anchor="start" x="3375.5" y="-748.3" font-family="Times,serif" font-weight="bold" font-size="14.00">Capabilities</text>
<polygon fill="none" stroke="black" points="3371.5,-740 3371.5,-763 3473.5,-763 3473.5,-740 3371.5,-740"/>
</g>
<!-- Integration -->
<g id="node11" class="node">
<title>Integration</title>
<polygon fill="none" stroke="black" points="3509.5,-740.5 3509.5,-761.5 3606.5,-761.5 3606.5,-740.5 3509.5,-740.5"/>
<text text-anchor="start" x="3512.5" y="-748.3" font-family="Times,serif" font-weight="bold" font-size="14.00">Integration</text>
<polygon fill="none" stroke="black" points="3508,-740 3508,-763 3607,-763 3607,-740 3508,-740"/>
</g>
<!-- DeploymentService This endpoint will return a list of views based on -->
<g id="node12" class="node">
<title>DeploymentService This endpoint will return a list of views based on</title>
<polygon fill="none" stroke="black" points="3642.5,-757.5 3642.5,-778.5 4187.5,-778.5 4187.5,-757.5 3642.5,-757.5"/>
<text text-anchor="start" x="3645.5" y="-765.3" font-family="Times,serif" font-weight="bold" font-size="14.00">DeploymentService This endpoint will return a list of views based on</text>
<polygon fill="none" stroke="black" points="3642.5,-723.5 3642.5,-757.5 4187.5,-757.5 4187.5,-723.5 3642.5,-723.5"/>
<text text-anchor="start" x="3883.5" y="-744.3" font-family="Times,serif" font-style="italic" font-size="14.00">Methods</text>
<text text-anchor="start" x="3738" y="-730.3" font-family="Times,serif" font-size="14.00">yaml(&lt;List[Step]&gt; steps, &lt;String&gt; name):String</text>
<polygon fill="none" stroke="black" points="3641,-723 3641,-780 4188,-780 4188,-723 3641,-723"/>
</g>
<!-- LanguageService -->
<g id="node13" class="node">
<title>LanguageService</title>
<polygon fill="none" stroke="black" points="4223.5,-757.5 4223.5,-778.5 4364.5,-778.5 4364.5,-757.5 4223.5,-757.5"/>
<text text-anchor="start" x="4226.5" y="-765.3" font-family="Times,serif" font-weight="bold" font-size="14.00">LanguageService</text>
<polygon fill="none" stroke="black" points="4223.5,-723.5 4223.5,-757.5 4364.5,-757.5 4364.5,-723.5 4223.5,-723.5"/>
<text text-anchor="start" x="4262.5" y="-744.3" font-family="Times,serif" font-style="italic" font-size="14.00">Methods</text>
<text text-anchor="start" x="4249.5" y="-730.3" font-family="Times,serif" font-size="14.00">getAll():Map</text>
<polygon fill="none" stroke="black" points="4222,-723 4222,-780 4365,-780 4365,-723 4222,-723"/>
</g>
<!-- Step -->
<g id="node33" class="node">
<title>Step</title>
<polygon fill="none" stroke="black" points="655.5,-279.5 655.5,-300.5 861.5,-300.5 861.5,-279.5 655.5,-279.5"/>
<text text-anchor="start" x="740.5" y="-287.3" font-family="Times,serif" font-weight="bold" font-size="14.00">Step</text>
<polygon fill="none" stroke="black" points="655.5,-133.5 655.5,-279.5 861.5,-279.5 861.5,-133.5 655.5,-133.5"/>
<text text-anchor="start" x="720.5" y="-266.3" font-family="Times,serif" font-style="italic" font-size="14.00">Properties</text>
<text text-anchor="start" x="658.5" y="-252.3" font-family="Times,serif" font-size="14.00">description:String</text>
<text text-anchor="start" x="658.5" y="-238.3" font-family="Times,serif" font-size="14.00">title:String</text>
<text text-anchor="start" x="658.5" y="-224.3" font-family="Times,serif" font-size="14.00">parameters:List[Parameter]</text>
<text text-anchor="start" x="658.5" y="-210.3" font-family="Times,serif" font-size="14.00">icon:String</text>
<text text-anchor="start" x="658.5" y="-196.3" font-family="Times,serif" font-size="14.00">UUID:String</text>
<text text-anchor="start" x="658.5" y="-182.3" font-family="Times,serif" font-size="14.00">required:String[]</text>
<text text-anchor="start" x="658.5" y="-168.3" font-family="Times,serif" font-size="14.00">group:String</text>
<text text-anchor="start" x="658.5" y="-154.3" font-family="Times,serif" font-size="14.00">kind:String</text>
<text text-anchor="start" x="658.5" y="-140.3" font-family="Times,serif" font-size="14.00">branches:Branch[]</text>
<polygon fill="none" stroke="black" points="654.5,-133 654.5,-302 862.5,-302 862.5,-133 654.5,-133"/>
</g>
<!-- StepParserService&#45;&gt;Step -->
<g id="edge26" class="edge">
<title>StepParserService&#45;&gt;Step</title>
<path fill="none" stroke="black" stroke-dasharray="5,2" d="M758.5,-355.83C758.5,-343.57 758.5,-330.14 758.5,-316.62"/>
<polygon fill="black" stroke="black" points="758.5,-306.29 763,-316.29 758.5,-311.29 758.5,-316.29 758.5,-316.29 758.5,-316.29 758.5,-311.29 754,-316.29 758.5,-306.29 758.5,-306.29"/>
</g>
<!-- ViewDefinition -->
<g id="node34" class="node">
<title>ViewDefinition</title>
<polygon fill="none" stroke="black" points="1609.5,-244.5 1609.5,-265.5 1918.5,-265.5 1918.5,-244.5 1609.5,-244.5"/>
<text text-anchor="start" x="1706" y="-252.3" font-family="Times,serif" font-weight="bold" font-size="14.00">ViewDefinition</text>
<polygon fill="none" stroke="black" points="1609.5,-168.5 1609.5,-244.5 1918.5,-244.5 1918.5,-168.5 1609.5,-168.5"/>
<text text-anchor="start" x="1726" y="-231.3" font-family="Times,serif" font-style="italic" font-size="14.00">Properties</text>
<text text-anchor="start" x="1612.5" y="-217.3" font-family="Times,serif" font-size="14.00">properties:Map[String, String]</text>
<text text-anchor="start" x="1612.5" y="-203.3" font-family="Times,serif" font-size="14.00">step:Step</text>
<text text-anchor="start" x="1612.5" y="-189.3" font-family="Times,serif" font-size="14.00">url:String</text>
<text text-anchor="start" x="1612.5" y="-175.3" font-family="Times,serif" font-size="14.00">constraints:List[ViewDefinitionConstraint]</text>
<polygon fill="none" stroke="black" points="1608,-168 1608,-267 1919,-267 1919,-168 1608,-168"/>
</g>
<!-- ViewDefinitionParserService&#45;&gt;ViewDefinition -->
<g id="edge27" class="edge">
<title>ViewDefinitionParserService&#45;&gt;ViewDefinition</title>
<path fill="none" stroke="black" stroke-dasharray="5,2" d="M1933.85,-362.99C1903.65,-337.38 1865.6,-305.11 1833.13,-277.56"/>
<polygon fill="black" stroke="black" points="1825.44,-271.04 1835.97,-274.07 1829.25,-274.27 1833.06,-277.5 1833.06,-277.5 1833.06,-277.5 1829.25,-274.27 1830.15,-280.94 1825.44,-271.04 1825.44,-271.04"/>
</g>
<!-- MetadataCatalog -->
<g id="node17" class="node">
<title>MetadataCatalog</title>
<polygon fill="none" stroke="black" points="2349.5,-244.5 2349.5,-265.5 2692.5,-265.5 2692.5,-244.5 2349.5,-244.5"/>
<text text-anchor="start" x="2453" y="-252.3" font-family="Times,serif" font-weight="bold" font-size="14.00">MetadataCatalog</text>
<polygon fill="none" stroke="black" points="2349.5,-168.5 2349.5,-244.5 2692.5,-244.5 2692.5,-168.5 2349.5,-168.5"/>
<text text-anchor="start" x="2489.5" y="-231.3" font-family="Times,serif" font-style="italic" font-size="14.00">Methods</text>
<text text-anchor="start" x="2352.5" y="-217.3" font-family="Times,serif" font-size="14.00">searchStepByID(&lt;String&gt; id):Metadata</text>
<text text-anchor="start" x="2352.5" y="-203.3" font-family="Times,serif" font-size="14.00">searchStepByName(&lt;String&gt; name):Metadata</text>
<text text-anchor="start" x="2352.5" y="-189.3" font-family="Times,serif" font-size="14.00">store(&lt;List[Step]&gt; steps):boolean</text>
<text text-anchor="start" x="2352.5" y="-175.3" font-family="Times,serif" font-size="14.00">getAll():List[Metadata]</text>
<polygon fill="none" stroke="black" points="2348,-168 2348,-267 2693,-267 2693,-168 2348,-168"/>
</g>
<!-- AbstractCatalog&#45;&gt;MetadataCatalog -->
<g id="edge9" class="edge">
<title>AbstractCatalog&#45;&gt;MetadataCatalog</title>
<path fill="none" stroke="black" stroke-dasharray="5,2" d="M2619.9,-369.59C2602.87,-343.7 2580.14,-309.15 2560.72,-279.63"/>
<polygon fill="black" stroke="black" points="2555.07,-271.05 2564.32,-276.93 2557.82,-275.22 2560.57,-279.4 2560.57,-279.4 2560.57,-279.4 2557.82,-275.22 2556.81,-281.87 2555.07,-271.05 2555.07,-271.05"/>
</g>
<!-- Metadata -->
<g id="node23" class="node">
<title>Metadata</title>
<polygon fill="none" stroke="black" points="1716.5,-66.5 1716.5,-87.5 1811.5,-87.5 1811.5,-66.5 1716.5,-66.5"/>
<text text-anchor="start" x="1726" y="-74.3" font-family="Times,serif" font-weight="bold" font-size="14.00">Metadata</text>
<polygon fill="none" stroke="black" points="1716.5,-4.5 1716.5,-66.5 1811.5,-66.5 1811.5,-4.5 1716.5,-4.5"/>
<text text-anchor="start" x="1726" y="-53.3" font-family="Times,serif" font-style="italic" font-size="14.00">Properties</text>
<text text-anchor="start" x="1719.5" y="-39.3" font-family="Times,serif" font-size="14.00">ID:String</text>
<text text-anchor="start" x="1719.5" y="-25.3" font-family="Times,serif" font-size="14.00">name:String</text>
<text text-anchor="start" x="1719.5" y="-11.3" font-family="Times,serif" font-size="14.00">type:String</text>
<polygon fill="none" stroke="black" points="1715,-4 1715,-89 1812,-89 1812,-4 1715,-4"/>
</g>
<!-- MetadataCatalog&#45;&gt;Metadata -->
<g id="edge13" class="edge">
<title>MetadataCatalog&#45;&gt;Metadata</title>
<path fill="none" stroke="black" stroke-dasharray="5,2" d="M2339.66,-176.13C2175.79,-139.54 1943.2,-87.62 1830.23,-62.4"/>
<polygon fill="black" stroke="black" points="1820.33,-60.19 1831.07,-57.98 1825.21,-61.28 1830.09,-62.37 1830.09,-62.37 1830.09,-62.37 1825.21,-61.28 1829.11,-66.76 1820.33,-60.19 1820.33,-60.19"/>
</g>
<!-- ViewDefinitionCatalog -->
<g id="node18" class="node">
<title>ViewDefinitionCatalog</title>
<polygon fill="none" stroke="black" points="2579.5,-555.5 2579.5,-576.5 2761.5,-576.5 2761.5,-555.5 2579.5,-555.5"/>
<text text-anchor="start" x="2582.5" y="-563.3" font-family="Times,serif" font-weight="bold" font-size="14.00">ViewDefinitionCatalog</text>
<polygon fill="none" stroke="black" points="2578.5,-555 2578.5,-578 2762.5,-578 2762.5,-555 2578.5,-555"/>
</g>
<!-- ViewDefinitionCatalog&#45;&gt;AbstractCatalog -->
<g id="edge11" class="edge">
<title>ViewDefinitionCatalog&#45;&gt;AbstractCatalog</title>
<path fill="none" stroke="black" d="M2667.73,-548.32C2664.28,-526.93 2658.24,-489.51 2653.33,-459.05"/>
<polygon fill="none" stroke="black" points="2656.76,-458.34 2651.71,-449.02 2649.85,-459.45 2656.76,-458.34"/>
</g>
<!-- KameletParseCatalog -->
<g id="node19" class="node">
<title>KameletParseCatalog</title>
<polygon fill="none" stroke="black" points="4400.5,-740.5 4400.5,-761.5 4577.5,-761.5 4577.5,-740.5 4400.5,-740.5"/>
<text text-anchor="start" x="4403.5" y="-748.3" font-family="Times,serif" font-weight="bold" font-size="14.00">KameletParseCatalog</text>
<polygon fill="none" stroke="black" points="4399,-740 4399,-763 4578,-763 4578,-740 4399,-740"/>
</g>
<!-- ParseCatalog -->
<g id="node20" class="node">
<title>ParseCatalog</title>
<polygon fill="none" stroke="black" points="4595.5,-579.5 4595.5,-600.5 4927.5,-600.5 4927.5,-579.5 4595.5,-579.5"/>
<text text-anchor="start" x="4709" y="-587.3" font-family="Times,serif" font-weight="bold" font-size="14.00">ParseCatalog</text>
<polygon fill="none" stroke="black" points="4595.5,-531.5 4595.5,-579.5 4927.5,-579.5 4927.5,-531.5 4595.5,-531.5"/>
<text text-anchor="start" x="4730" y="-566.3" font-family="Times,serif" font-style="italic" font-size="14.00">Methods</text>
<text text-anchor="start" x="4598.5" y="-552.3" font-family="Times,serif" font-size="14.00">parse():CompletableFuture[List[T]]</text>
<text text-anchor="start" x="4598.5" y="-538.3" font-family="Times,serif" font-size="14.00">setFileVisitor(&lt;YamlProcessFile&gt; fileVisitor):</text>
<polygon fill="none" stroke="black" points="4594.5,-531 4594.5,-602 4928.5,-602 4928.5,-531 4594.5,-531"/>
</g>
<!-- KameletParseCatalog&#45;&gt;ParseCatalog -->
<g id="edge12" class="edge">
<title>KameletParseCatalog&#45;&gt;ParseCatalog</title>
<path fill="none" stroke="black" stroke-dasharray="5,2" d="M4505.25,-733.45C4525.48,-713.41 4561.09,-679.88 4595.5,-656 4618.92,-639.75 4645.67,-624.29 4670.75,-610.98"/>
<polygon fill="black" stroke="black" points="4679.9,-606.17 4673.14,-614.8 4675.48,-608.49 4671.05,-610.82 4671.05,-610.82 4671.05,-610.82 4675.48,-608.49 4668.96,-606.83 4679.9,-606.17 4679.9,-606.17"/>
</g>
<!-- Kamelet -->
<g id="node21" class="node">
<title>Kamelet</title>
<polygon fill="none" stroke="black" points="5217.5,-740.5 5217.5,-761.5 5290.5,-761.5 5290.5,-740.5 5217.5,-740.5"/>
<text text-anchor="start" x="5220.5" y="-748.3" font-family="Times,serif" font-weight="bold" font-size="14.00">Kamelet</text>
<polygon fill="none" stroke="black" points="5216,-740 5216,-763 5291,-763 5291,-740 5216,-740"/>
</g>
<!-- KameletBinding -->
<g id="node22" class="node">
<title>KameletBinding</title>
<polygon fill="none" stroke="black" points="5326.5,-740.5 5326.5,-761.5 5462.5,-761.5 5462.5,-740.5 5326.5,-740.5"/>
<text text-anchor="start" x="5329.5" y="-748.3" font-family="Times,serif" font-weight="bold" font-size="14.00">KameletBinding</text>
<polygon fill="none" stroke="black" points="5325.5,-740 5325.5,-763 5463.5,-763 5463.5,-740 5325.5,-740"/>
</g>
<!-- CatalogCollection -->
<g id="node24" class="node">
<title>CatalogCollection</title>
<polygon fill="none" stroke="black" points="2820.5,-398.5 2820.5,-419.5 2966.5,-419.5 2966.5,-398.5 2820.5,-398.5"/>
<text text-anchor="start" x="2823.5" y="-406.3" font-family="Times,serif" font-weight="bold" font-size="14.00">CatalogCollection</text>
<polygon fill="none" stroke="black" points="2819.5,-398 2819.5,-421 2967.5,-421 2967.5,-398 2819.5,-398"/>
</g>
<!-- CatalogCollection&#45;&gt;MetadataCatalog -->
<g id="edge14" class="edge">
<title>CatalogCollection&#45;&gt;MetadataCatalog</title>
<path fill="none" stroke="black" d="M2872.7,-391.26C2854.81,-376.95 2827.94,-356.63 2802.5,-342 2759.59,-317.32 2710.81,-294.33 2666.04,-275.04"/>
<polygon fill="none" stroke="black" points="2667.41,-271.83 2656.84,-271.11 2664.66,-278.26 2667.41,-271.83"/>
</g>
<!-- InMemoryCatalog -->
<g id="node25" class="node">
<title>InMemoryCatalog</title>
<polygon fill="none" stroke="black" points="2322.5,-398.5 2322.5,-419.5 2470.5,-419.5 2470.5,-398.5 2322.5,-398.5"/>
<text text-anchor="start" x="2325.5" y="-406.3" font-family="Times,serif" font-weight="bold" font-size="14.00">InMemoryCatalog</text>
<polygon fill="none" stroke="black" points="2321.5,-398 2321.5,-421 2471.5,-421 2471.5,-398 2321.5,-398"/>
</g>
<!-- InMemoryCatalog&#45;&gt;MetadataCatalog -->
<g id="edge15" class="edge">
<title>InMemoryCatalog&#45;&gt;MetadataCatalog</title>
<path fill="none" stroke="black" d="M2407.72,-391.3C2424.02,-366.34 2455.06,-318.78 2480.45,-279.87"/>
<polygon fill="none" stroke="black" points="2483.57,-281.49 2486.11,-271.2 2477.71,-277.66 2483.57,-281.49"/>
</g>
<!-- ReadOnlyCatalog -->
<g id="node26" class="node">
<title>ReadOnlyCatalog</title>
<polygon fill="none" stroke="black" points="2822.5,-555.5 2822.5,-576.5 2964.5,-576.5 2964.5,-555.5 2822.5,-555.5"/>
<text text-anchor="start" x="2825.5" y="-563.3" font-family="Times,serif" font-weight="bold" font-size="14.00">ReadOnlyCatalog</text>
<polygon fill="none" stroke="black" points="2821.5,-555 2821.5,-578 2965.5,-578 2965.5,-555 2821.5,-555"/>
</g>
<!-- ReadOnlyCatalog&#45;&gt;CatalogCollection -->
<g id="edge16" class="edge">
<title>ReadOnlyCatalog&#45;&gt;CatalogCollection</title>
<path fill="none" stroke="black" d="M2893.5,-548.32C2893.5,-521.67 2893.5,-470.11 2893.5,-438.16"/>
<polygon fill="none" stroke="black" points="2897,-437.76 2893.5,-427.76 2890,-437.76 2897,-437.76"/>
</g>
<!-- GitParseCatalog -->
<g id="node27" class="node">
<title>GitParseCatalog</title>
<polygon fill="none" stroke="black" points="5046.5,-740.5 5046.5,-761.5 5181.5,-761.5 5181.5,-740.5 5046.5,-740.5"/>
<text text-anchor="start" x="5049.5" y="-748.3" font-family="Times,serif" font-weight="bold" font-size="14.00">GitParseCatalog</text>
<polygon fill="none" stroke="black" points="5045,-740 5045,-763 5182,-763 5182,-740 5045,-740"/>
</g>
<!-- GitParseCatalog&#45;&gt;ParseCatalog -->
<g id="edge17" class="edge">
<title>GitParseCatalog&#45;&gt;ParseCatalog</title>
<path fill="none" stroke="black" d="M5102.13,-733.37C5087.31,-712.31 5059.48,-676.81 5027.5,-656 4998.35,-637.04 4964.76,-621.76 4931.46,-609.6"/>
<polygon fill="none" stroke="black" points="4932.21,-606.15 4921.62,-606.09 4929.86,-612.74 4932.21,-606.15"/>
</g>
<!-- YamlProcessFile -->
<g id="node28" class="node">
<title>YamlProcessFile</title>
<polygon fill="none" stroke="black" points="5046.5,-555.5 5046.5,-576.5 5181.5,-576.5 5181.5,-555.5 5046.5,-555.5"/>
<text text-anchor="start" x="5049.5" y="-563.3" font-family="Times,serif" font-weight="bold" font-size="14.00">YamlProcessFile</text>
<polygon fill="none" stroke="black" points="5045,-555 5045,-578 5182,-578 5182,-555 5045,-555"/>
</g>
<!-- GitParseCatalog&#45;&gt;YamlProcessFile -->
<g id="edge18" class="edge">
<title>GitParseCatalog&#45;&gt;YamlProcessFile</title>
<path fill="none" stroke="black" stroke-dasharray="5,2" d="M5109.35,-733.28C5106.19,-701.46 5105.91,-633.19 5108.52,-594.93"/>
<polygon fill="black" stroke="black" points="5109.37,-584.54 5113.04,-594.87 5108.96,-589.52 5108.55,-594.5 5108.55,-594.5 5108.55,-594.5 5108.96,-589.52 5104.07,-594.13 5109.37,-584.54 5109.37,-584.54"/>
</g>
<!-- YamlProcessFile&#45;&gt;GitParseCatalog -->
<g id="edge20" class="edge">
<title>YamlProcessFile&#45;&gt;GitParseCatalog</title>
<path fill="none" stroke="black" stroke-dasharray="5,2" d="M5117.63,-584.54C5120.8,-616.23 5121.09,-684.48 5118.5,-722.86"/>
<polygon fill="black" stroke="black" points="5117.65,-733.28 5113.98,-722.95 5118.05,-728.3 5118.46,-723.32 5118.46,-723.32 5118.46,-723.32 5118.05,-728.3 5122.95,-723.68 5117.65,-733.28 5117.65,-733.28"/>
</g>
<!-- JarParseCatalog -->
<g id="node29" class="node">
<title>JarParseCatalog</title>
<polygon fill="none" stroke="black" points="4613.5,-740.5 4613.5,-761.5 4747.5,-761.5 4747.5,-740.5 4613.5,-740.5"/>
<text text-anchor="start" x="4616.5" y="-748.3" font-family="Times,serif" font-weight="bold" font-size="14.00">JarParseCatalog</text>
<polygon fill="none" stroke="black" points="4612.5,-740 4612.5,-763 4748.5,-763 4748.5,-740 4612.5,-740"/>
</g>
<!-- JarParseCatalog&#45;&gt;ParseCatalog -->
<g id="edge19" class="edge">
<title>JarParseCatalog&#45;&gt;ParseCatalog</title>
<path fill="none" stroke="black" d="M4688.12,-733.28C4699.92,-706.63 4723.04,-654.4 4740.19,-615.65"/>
<polygon fill="none" stroke="black" points="4743.56,-616.68 4744.41,-606.12 4737.16,-613.85 4743.56,-616.68"/>
</g>
<!-- ViewDefinitionParseCatalog -->
<g id="node30" class="node">
<title>ViewDefinitionParseCatalog</title>
<polygon fill="none" stroke="black" points="4783.5,-740.5 4783.5,-761.5 5009.5,-761.5 5009.5,-740.5 4783.5,-740.5"/>
<text text-anchor="start" x="4786.5" y="-748.3" font-family="Times,serif" font-weight="bold" font-size="14.00">ViewDefinitionParseCatalog</text>
<polygon fill="none" stroke="black" points="4782.5,-740 4782.5,-763 5010.5,-763 5010.5,-740 4782.5,-740"/>
</g>
<!-- ViewDefinitionParseCatalog&#45;&gt;ParseCatalog -->
<g id="edge21" class="edge">
<title>ViewDefinitionParseCatalog&#45;&gt;ParseCatalog</title>
<path fill="none" stroke="black" stroke-dasharray="5,2" d="M4883.8,-733.28C4863.88,-706.29 4824.62,-653.07 4795.94,-614.18"/>
<polygon fill="black" stroke="black" points="4789.99,-606.12 4799.55,-611.49 4792.96,-610.14 4795.93,-614.17 4795.93,-614.17 4795.93,-614.17 4792.96,-610.14 4792.3,-616.84 4789.99,-606.12 4789.99,-606.12"/>
</g>
<!-- Parameter -->
<g id="node31" class="node">
<title>Parameter</title>
<polygon fill="none" stroke="black" points="5498.5,-820.5 5498.5,-841.5 5634.5,-841.5 5634.5,-820.5 5498.5,-820.5"/>
<text text-anchor="start" x="5524.5" y="-828.3" font-family="Times,serif" font-weight="bold" font-size="14.00">Parameter</text>
<polygon fill="none" stroke="black" points="5498.5,-660.5 5498.5,-820.5 5634.5,-820.5 5634.5,-660.5 5498.5,-660.5"/>
<text text-anchor="start" x="5528.5" y="-807.3" font-family="Times,serif" font-style="italic" font-size="14.00">Properties</text>
<text text-anchor="start" x="5501.5" y="-793.3" font-family="Times,serif" font-size="14.00">description:String</text>
<text text-anchor="start" x="5501.5" y="-779.3" font-family="Times,serif" font-size="14.00">title:String</text>
<text text-anchor="start" x="5501.5" y="-765.3" font-family="Times,serif" font-size="14.00">id:String</text>
<text text-anchor="start" x="5501.5" y="-751.3" font-family="Times,serif" font-size="14.00">value:Object</text>
<text text-anchor="start" x="5501.5" y="-737.3" font-family="Times,serif" font-size="14.00">default:Object</text>
<text text-anchor="start" x="5501.5" y="-723.3" font-family="Times,serif" font-size="14.00">type:String</text>
<text text-anchor="start" x="5501.5" y="-709.3" font-family="Times,serif" font-size="14.00">path:Boolean</text>
<text text-anchor="start" x="5501.5" y="-695.3" font-family="Times,serif" font-size="14.00">nullable:Boolean</text>
<text text-anchor="start" x="5501.5" y="-681.3" font-family="Times,serif" font-size="14.00">enum:Object[]</text>
<text text-anchor="start" x="5501.5" y="-667.3" font-family="Times,serif" font-size="14.00">examples:Object[]</text>
<polygon fill="none" stroke="black" points="5497.5,-660 5497.5,-843 5635.5,-843 5635.5,-660 5497.5,-660"/>
</g>
<!-- Branch -->
<g id="node32" class="node">
<title>Branch</title>
<polygon fill="none" stroke="black" points="5670.5,-740.5 5670.5,-761.5 5734.5,-761.5 5734.5,-740.5 5670.5,-740.5"/>
<text text-anchor="start" x="5673.5" y="-748.3" font-family="Times,serif" font-weight="bold" font-size="14.00">Branch</text>
<polygon fill="none" stroke="black" points="5669.5,-740 5669.5,-763 5735.5,-763 5735.5,-740 5669.5,-740"/>
</g>
<!-- Step&#45;&gt;Metadata -->
<g id="edge22" class="edge">
<title>Step&#45;&gt;Metadata</title>
<path fill="none" stroke="black" d="M870.86,-197.61C1081.05,-162.26 1527.74,-87.15 1696.79,-58.72"/>
<polygon fill="none" stroke="black" points="1697.52,-62.14 1706.8,-57.03 1696.36,-55.24 1697.52,-62.14"/>
</g>
<!-- ViewDefinition&#45;&gt;Metadata -->
<g id="edge23" class="edge">
<title>ViewDefinition&#45;&gt;Metadata</title>
<path fill="none" stroke="black" d="M1763.5,-163.95C1763.5,-144.73 1763.5,-122.93 1763.5,-103.43"/>
<polygon fill="none" stroke="black" points="1767,-103.16 1763.5,-93.16 1760,-103.16 1767,-103.16"/>
</g>
<!-- ViewDefinitionConstraint -->
<g id="node35" class="node">
<title>ViewDefinitionConstraint</title>
<polygon fill="none" stroke="black" points="1426.5,-429.5 1426.5,-450.5 1652.5,-450.5 1652.5,-429.5 1426.5,-429.5"/>
<text text-anchor="start" x="1439" y="-437.3" font-family="Times,serif" font-weight="bold" font-size="14.00">ViewDefinitionConstraint</text>
<polygon fill="none" stroke="black" points="1426.5,-367.5 1426.5,-429.5 1652.5,-429.5 1652.5,-367.5 1426.5,-367.5"/>
<text text-anchor="start" x="1501.5" y="-416.3" font-family="Times,serif" font-style="italic" font-size="14.00">Properties</text>
<text text-anchor="start" x="1429.5" y="-402.3" font-family="Times,serif" font-size="14.00">mandatory:boolean</text>
<text text-anchor="start" x="1429.5" y="-388.3" font-family="Times,serif" font-size="14.00">operation:ConstraintOperation</text>
<text text-anchor="start" x="1429.5" y="-374.3" font-family="Times,serif" font-size="14.00">parameter:String</text>
<polygon fill="none" stroke="black" points="1425.5,-367 1425.5,-452 1653.5,-452 1653.5,-367 1425.5,-367"/>
</g>
<!-- ViewDefinitionConstraint&#45;&gt;ViewDefinition -->
<g id="edge24" class="edge">
<title>ViewDefinitionConstraint&#45;&gt;ViewDefinition</title>
<path fill="none" stroke="black" d="M1593.15,-362.99C1622.84,-337.81 1660.11,-306.19 1692.22,-278.96"/>
<polygon fill="black" stroke="black" points="1692.41,-278.8 1694.4,-271.87 1701.56,-271.04 1699.58,-277.97 1692.41,-278.8"/>
<text text-anchor="middle" x="1579.15" y="-351.79" font-family="Times,serif" font-size="14.00">0..n</text>
</g>
<!-- DeploymentGeneratorService -->
<g id="node36" class="node">
<title>DeploymentGeneratorService</title>
<polygon fill="none" stroke="black" points="214.5,-450.5 214.5,-471.5 594.5,-471.5 594.5,-450.5 214.5,-450.5"/>
<text text-anchor="start" x="288.5" y="-458.3" font-family="Times,serif" font-weight="bold" font-size="14.00">DeploymentGeneratorService</text>
<polygon fill="none" stroke="black" points="214.5,-346.5 214.5,-450.5 594.5,-450.5 594.5,-346.5 214.5,-346.5"/>
<text text-anchor="start" x="373" y="-437.3" font-family="Times,serif" font-style="italic" font-size="14.00">Methods</text>
<text text-anchor="start" x="217.5" y="-423.3" font-family="Times,serif" font-size="14.00">identifier():String</text>
<text text-anchor="start" x="217.5" y="-409.3" font-family="Times,serif" font-size="14.00">description():String</text>
<text text-anchor="start" x="217.5" y="-395.3" font-family="Times,serif" font-size="14.00">parse(&lt;List[Step]&gt; steps, &lt;Map&gt; metadata):String</text>
<text text-anchor="start" x="217.5" y="-381.3" font-family="Times,serif" font-size="14.00">appliesTo(&lt;List[Step]&gt; steps):boolean</text>
<text text-anchor="start" x="217.5" y="-367.3" font-family="Times,serif" font-size="14.00">supportedCustomResources():List&lt;Class&gt;</text>
<text text-anchor="start" x="217.5" y="-353.3" font-family="Times,serif" font-size="14.00">getKinds():String[]</text>
<polygon fill="none" stroke="black" points="213.5,-346 213.5,-473 595.5,-473 595.5,-346 213.5,-346"/>
</g>
<!-- DeploymentGeneratorService&#45;&gt;Step -->
<g id="edge25" class="edge">
<title>DeploymentGeneratorService&#45;&gt;Step</title>
<path fill="none" stroke="black" stroke-dasharray="5,2" d="M528.81,-341.78C564.07,-322.85 602.4,-302.28 637.47,-283.46"/>
<polygon fill="black" stroke="black" points="646.31,-278.72 639.63,-287.41 641.9,-281.08 637.5,-283.44 637.5,-283.44 637.5,-283.44 641.9,-281.08 635.37,-279.48 646.31,-278.72 646.31,-278.72"/>
</g>
</g>
</svg>
