<?xml version="1.0" encoding="UTF-8" standalone="no"?>
<!DOCTYPE svg PUBLIC "-//W3C//DTD SVG 1.1//EN"
 "http://www.w3.org/Graphics/SVG/1.1/DTD/svg11.dtd">
<!-- Generated by graphviz version 2.43.0 (0)
 -->
<!-- Title: ClassDiagram Pages: 1 -->
<svg width="4447pt" height="715pt"
 viewBox="0.00 0.00 4447.00 715.00" xmlns="http://www.w3.org/2000/svg" xmlns:xlink="http://www.w3.org/1999/xlink">
<g id="graph0" class="graph" transform="scale(1 1) rotate(0) translate(4 711)">
<title>ClassDiagram</title>
<polygon fill="white" stroke="transparent" points="-4,4 -4,-711 4443,-711 4443,4 -4,4"/>
<!-- AbstractCatalog -->
<g id="node1" class="node">
<title>AbstractCatalog</title>
<polygon fill="none" stroke="black" points="1905,-359.5 1905,-380.5 2183,-380.5 2183,-359.5 1905,-359.5"/>
<text text-anchor="start" x="1980.5" y="-367.3" font-family="Times,serif" font-weight="bold" font-size="14.00">AbstractCatalog</text>
<polygon fill="none" stroke="black" points="1905,-311.5 1905,-359.5 2183,-359.5 2183,-311.5 1905,-311.5"/>
<text text-anchor="start" x="2012.5" y="-346.3" font-family="Times,serif" font-style="italic" font-size="14.00">Methods</text>
<text text-anchor="start" x="1908" y="-332.3" font-family="Times,serif" font-size="14.00">waitForWarmUp():CompletableFuture</text>
<text text-anchor="start" x="1908" y="-318.3" font-family="Times,serif" font-size="14.00">loadParsers():List[ParseCatalog]</text>
<polygon fill="none" stroke="black" points="1904,-311 1904,-382 2184,-382 2184,-311 1904,-311"/>
</g>
<!-- MetadataCatalog -->
<g id="node2" class="node">
<title>MetadataCatalog</title>
<polygon fill="none" stroke="black" points="1532,-216.5 1532,-237.5 1875,-237.5 1875,-216.5 1532,-216.5"/>
<text text-anchor="start" x="1635.5" y="-224.3" font-family="Times,serif" font-weight="bold" font-size="14.00">MetadataCatalog</text>
<polygon fill="none" stroke="black" points="1532,-140.5 1532,-216.5 1875,-216.5 1875,-140.5 1532,-140.5"/>
<text text-anchor="start" x="1672" y="-203.3" font-family="Times,serif" font-style="italic" font-size="14.00">Methods</text>
<text text-anchor="start" x="1535" y="-189.3" font-family="Times,serif" font-size="14.00">searchStepByID(&lt;String&gt; id):Metadata</text>
<text text-anchor="start" x="1535" y="-175.3" font-family="Times,serif" font-size="14.00">searchStepByName(&lt;String&gt; name):Metadata</text>
<text text-anchor="start" x="1535" y="-161.3" font-family="Times,serif" font-size="14.00">store(&lt;List[Step]&gt; steps):boolean</text>
<text text-anchor="start" x="1535" y="-147.3" font-family="Times,serif" font-size="14.00">getAll():List[Metadata]</text>
<polygon fill="none" stroke="black" points="1530.5,-140 1530.5,-239 1875.5,-239 1875.5,-140 1530.5,-140"/>
</g>
<!-- AbstractCatalog&#45;&gt;MetadataCatalog -->
<g id="edge1" class="edge">
<title>AbstractCatalog&#45;&gt;MetadataCatalog</title>
<path fill="none" stroke="black" stroke-dasharray="5,2" d="M1959.27,-306.99C1919.59,-288.95 1871.52,-267.1 1827.78,-247.22"/>
<polygon fill="black" stroke="black" points="1818.52,-243.01 1829.49,-243.05 1823.07,-245.08 1827.63,-247.15 1827.63,-247.15 1827.63,-247.15 1823.07,-245.08 1825.76,-251.25 1818.52,-243.01 1818.52,-243.01"/>
</g>
<!-- Metadata -->
<g id="node15" class="node">
<title>Metadata</title>
<polygon fill="none" stroke="black" points="1208,-66.5 1208,-87.5 1303,-87.5 1303,-66.5 1208,-66.5"/>
<text text-anchor="start" x="1217.5" y="-74.3" font-family="Times,serif" font-weight="bold" font-size="14.00">Metadata</text>
<polygon fill="none" stroke="black" points="1208,-4.5 1208,-66.5 1303,-66.5 1303,-4.5 1208,-4.5"/>
<text text-anchor="start" x="1217.5" y="-53.3" font-family="Times,serif" font-style="italic" font-size="14.00">Properties</text>
<text text-anchor="start" x="1211" y="-39.3" font-family="Times,serif" font-size="14.00">ID:String</text>
<text text-anchor="start" x="1211" y="-25.3" font-family="Times,serif" font-size="14.00">name:String</text>
<text text-anchor="start" x="1211" y="-11.3" font-family="Times,serif" font-size="14.00">type:String</text>
<polygon fill="none" stroke="black" points="1206.5,-4 1206.5,-89 1303.5,-89 1303.5,-4 1206.5,-4"/>
</g>
<!-- MetadataCatalog&#45;&gt;Metadata -->
<g id="edge11" class="edge">
<title>MetadataCatalog&#45;&gt;Metadata</title>
<path fill="none" stroke="black" stroke-dasharray="5,2" d="M1536.18,-136C1461.67,-112.55 1378.11,-86.25 1321.59,-68.46"/>
<polygon fill="black" stroke="black" points="1311.71,-65.35 1322.6,-64.06 1316.48,-66.85 1321.25,-68.35 1321.25,-68.35 1321.25,-68.35 1316.48,-66.85 1319.9,-72.64 1311.71,-65.35 1311.71,-65.35"/>
</g>
<!-- StepCatalog -->
<g id="node3" class="node">
<title>StepCatalog</title>
<polygon fill="none" stroke="black" points="1904,-499.5 1904,-520.5 2006,-520.5 2006,-499.5 1904,-499.5"/>
<text text-anchor="start" x="1907" y="-507.3" font-family="Times,serif" font-weight="bold" font-size="14.00">StepCatalog</text>
<polygon fill="none" stroke="black" points="1903,-499 1903,-522 2007,-522 2007,-499 1903,-499"/>
</g>
<!-- StepCatalog&#45;&gt;AbstractCatalog -->
<g id="edge2" class="edge">
<title>StepCatalog&#45;&gt;AbstractCatalog</title>
<path fill="none" stroke="black" d="M1964.36,-492.47C1976.92,-469.6 1999.75,-428.05 2017.75,-395.28"/>
<polygon fill="none" stroke="black" points="2020.94,-396.74 2022.69,-386.29 2014.81,-393.37 2020.94,-396.74"/>
</g>
<!-- ViewDefinitionCatalog -->
<g id="node4" class="node">
<title>ViewDefinitionCatalog</title>
<polygon fill="none" stroke="black" points="2042,-499.5 2042,-520.5 2224,-520.5 2224,-499.5 2042,-499.5"/>
<text text-anchor="start" x="2045" y="-507.3" font-family="Times,serif" font-weight="bold" font-size="14.00">ViewDefinitionCatalog</text>
<polygon fill="none" stroke="black" points="2041,-499 2041,-522 2225,-522 2225,-499 2041,-499"/>
</g>
<!-- ViewDefinitionCatalog&#45;&gt;AbstractCatalog -->
<g id="edge3" class="edge">
<title>ViewDefinitionCatalog&#45;&gt;AbstractCatalog</title>
<path fill="none" stroke="black" d="M2123.64,-492.47C2111.08,-469.6 2088.25,-428.05 2070.25,-395.28"/>
<polygon fill="none" stroke="black" points="2073.19,-393.37 2065.31,-386.29 2067.06,-396.74 2073.19,-393.37"/>
</g>
<!-- DeploymentResource -->
<g id="node5" class="node">
<title>DeploymentResource</title>
<polygon fill="none" stroke="black" points="2261,-516.5 2261,-537.5 2674,-537.5 2674,-516.5 2261,-516.5"/>
<text text-anchor="start" x="2383" y="-524.3" font-family="Times,serif" font-weight="bold" font-size="14.00">DeploymentResource</text>
<polygon fill="none" stroke="black" points="2261,-482.5 2261,-516.5 2674,-516.5 2674,-482.5 2261,-482.5"/>
<text text-anchor="start" x="2436" y="-503.3" font-family="Times,serif" font-style="italic" font-size="14.00">Methods</text>
<text text-anchor="start" x="2264" y="-489.3" font-family="Times,serif" font-size="14.00">yaml(&lt;DeploymentResourceYamlRequest&gt; steps):String</text>
<polygon fill="none" stroke="black" points="2259.5,-482 2259.5,-539 2674.5,-539 2674.5,-482 2259.5,-482"/>
</g>
<!-- DeploymentService -->
<g id="node6" class="node">
<title>DeploymentService</title>
<polygon fill="none" stroke="black" points="2287,-666.5 2287,-687.5 2647,-687.5 2647,-666.5 2287,-666.5"/>
<text text-anchor="start" x="2391" y="-674.3" font-family="Times,serif" font-weight="bold" font-size="14.00">DeploymentService</text>
<polygon fill="none" stroke="black" points="2287,-632.5 2287,-666.5 2647,-666.5 2647,-632.5 2287,-632.5"/>
<text text-anchor="start" x="2435.5" y="-653.3" font-family="Times,serif" font-style="italic" font-size="14.00">Methods</text>
<text text-anchor="start" x="2290" y="-639.3" font-family="Times,serif" font-size="14.00">yaml(&lt;List[Step]&gt; steps, &lt;String&gt; name):String</text>
<polygon fill="none" stroke="black" points="2286,-632 2286,-689 2648,-689 2648,-632 2286,-632"/>
</g>
<!-- DeploymentService&#45;&gt;DeploymentResource -->
<g id="edge4" class="edge">
<title>DeploymentService&#45;&gt;DeploymentResource</title>
<path fill="none" stroke="black" d="M2467,-627.75C2467,-606.58 2467,-578.48 2467,-555.21"/>
<polygon fill="black" stroke="black" points="2467,-555.2 2463,-549.2 2467,-543.2 2471,-549.2 2467,-555.2"/>
<text text-anchor="middle" x="2453" y="-616.55" font-family="Times,serif" font-size="14.00">0..1</text>
</g>
<!-- StepResource -->
<g id="node7" class="node">
<title>StepResource</title>
<polygon fill="none" stroke="black" points="1803,-680.5 1803,-701.5 2107,-701.5 2107,-680.5 1803,-680.5"/>
<text text-anchor="start" x="1900.5" y="-688.3" font-family="Times,serif" font-weight="bold" font-size="14.00">StepResource</text>
<polygon fill="none" stroke="black" points="1803,-618.5 1803,-680.5 2107,-680.5 2107,-618.5 1803,-618.5"/>
<text text-anchor="start" x="1923.5" y="-667.3" font-family="Times,serif" font-style="italic" font-size="14.00">Methods</text>
<text text-anchor="start" x="1806" y="-653.3" font-family="Times,serif" font-size="14.00">stepById(&lt;String&gt; id):Step</text>
<text text-anchor="start" x="1806" y="-639.3" font-family="Times,serif" font-size="14.00">stepsByName(&lt;String&gt; name):List[Step]</text>
<text text-anchor="start" x="1806" y="-625.3" font-family="Times,serif" font-size="14.00">allSteps():List[Step]</text>
<polygon fill="none" stroke="black" points="1802,-618 1802,-703 2108,-703 2108,-618 1802,-618"/>
</g>
<!-- StepResource&#45;&gt;StepCatalog -->
<g id="edge5" class="edge">
<title>StepResource&#45;&gt;StepCatalog</title>
<path fill="none" stroke="black" stroke-dasharray="5,2" d="M1955,-613.89C1955,-589.3 1955,-559.78 1955,-538.76"/>
<polygon fill="black" stroke="black" points="1955,-528.62 1959.5,-538.62 1955,-533.62 1955,-538.62 1955,-538.62 1955,-538.62 1955,-533.62 1950.5,-538.62 1955,-528.62 1955,-528.62"/>
</g>
<!-- ViewDefinitionResource -->
<g id="node8" class="node">
<title>ViewDefinitionResource</title>
<polygon fill="none" stroke="black" points="571,-352.5 571,-373.5 767,-373.5 767,-352.5 571,-352.5"/>
<text text-anchor="start" x="574" y="-360.3" font-family="Times,serif" font-weight="bold" font-size="14.00">ViewDefinitionResource</text>
<polygon fill="none" stroke="black" points="571,-318.5 571,-352.5 767,-352.5 767,-318.5 571,-318.5"/>
<text text-anchor="start" x="637.5" y="-339.3" font-family="Times,serif" font-style="italic" font-size="14.00">Methods</text>
<text text-anchor="start" x="584.5" y="-325.3" font-family="Times,serif" font-size="14.00">views:(&lt;String&gt; yaml):</text>
<polygon fill="none" stroke="black" points="570,-318 570,-375 768,-375 768,-318 570,-318"/>
</g>
<!-- ViewDefinitionService -->
<g id="node9" class="node">
<title>ViewDefinitionService</title>
<polygon fill="none" stroke="black" points="513,-516.5 513,-537.5 825,-537.5 825,-516.5 513,-516.5"/>
<text text-anchor="start" x="582.5" y="-524.3" font-family="Times,serif" font-weight="bold" font-size="14.00">ViewDefinitionService</text>
<polygon fill="none" stroke="black" points="513,-482.5 513,-516.5 825,-516.5 825,-482.5 513,-482.5"/>
<text text-anchor="start" x="637.5" y="-503.3" font-family="Times,serif" font-style="italic" font-size="14.00">Methods</text>
<text text-anchor="start" x="516" y="-489.3" font-family="Times,serif" font-size="14.00">views(&lt;String&gt; yaml):List[ViewDefinition]</text>
<polygon fill="none" stroke="black" points="512,-482 512,-539 826,-539 826,-482 512,-482"/>
</g>
<!-- ViewDefinitionService&#45;&gt;ViewDefinitionResource -->
<g id="edge6" class="edge">
<title>ViewDefinitionService&#45;&gt;ViewDefinitionResource</title>
<path fill="none" stroke="black" d="M669,-477.88C669,-453.13 669,-418.42 669,-391.04"/>
<polygon fill="black" stroke="black" points="669,-391.04 665,-385.04 669,-379.04 673,-385.04 669,-391.04"/>
<text text-anchor="middle" x="655" y="-466.68" font-family="Times,serif" font-size="14.00">0..1</text>
</g>
<!-- StepParserService -->
<g id="node11" class="node">
<title>StepParserService</title>
<polygon fill="none" stroke="black" points="1066,-359.5 1066,-380.5 1319,-380.5 1319,-359.5 1066,-359.5"/>
<text text-anchor="start" x="1120" y="-367.3" font-family="Times,serif" font-weight="bold" font-size="14.00">StepParserService</text>
<polygon fill="none" stroke="black" points="1066,-311.5 1066,-359.5 1319,-359.5 1319,-311.5 1066,-311.5"/>
<text text-anchor="start" x="1161" y="-346.3" font-family="Times,serif" font-style="italic" font-size="14.00">Methods</text>
<text text-anchor="start" x="1069" y="-332.3" font-family="Times,serif" font-size="14.00">parse(&lt;String&gt; yaml):List[Step]</text>
<text text-anchor="start" x="1069" y="-318.3" font-family="Times,serif" font-size="14.00">appliesTo(&lt;String&gt; yaml):boolean</text>
<polygon fill="none" stroke="black" points="1064.5,-311 1064.5,-382 1319.5,-382 1319.5,-311 1064.5,-311"/>
</g>
<!-- ViewDefinitionService&#45;&gt;StepParserService -->
<g id="edge9" class="edge">
<title>ViewDefinitionService&#45;&gt;StepParserService</title>
<path fill="none" stroke="black" stroke-dasharray="5,2" d="M801.42,-477.9C874.5,-459.39 966.51,-434.31 1047,-407 1062.15,-401.86 1077.99,-395.94 1093.4,-389.87"/>
<polygon fill="black" stroke="black" points="1102.94,-386.08 1095.31,-393.96 1098.29,-387.93 1093.64,-389.78 1093.64,-389.78 1093.64,-389.78 1098.29,-387.93 1091.98,-385.6 1102.94,-386.08 1102.94,-386.08"/>
</g>
<!-- ViewParserService -->
<g id="node13" class="node">
<title>ViewParserService</title>
<polygon fill="none" stroke="black" points="9,-359.5 9,-380.5 535,-380.5 535,-359.5 9,-359.5"/>
<text text-anchor="start" x="199" y="-367.3" font-family="Times,serif" font-weight="bold" font-size="14.00">ViewParserService</text>
<polygon fill="none" stroke="black" points="9,-311.5 9,-359.5 535,-359.5 535,-311.5 9,-311.5"/>
<text text-anchor="start" x="240.5" y="-346.3" font-family="Times,serif" font-style="italic" font-size="14.00">Methods</text>
<text text-anchor="start" x="12" y="-332.3" font-family="Times,serif" font-size="14.00">parse(&lt;List[Step]&gt; steps):List[ViewDefinition]</text>
<text text-anchor="start" x="12" y="-318.3" font-family="Times,serif" font-size="14.00">appliesTo(&lt;List[Step]&gt; steps, &lt;ViewDefinition&gt; viewDefinition):boolean</text>
<polygon fill="none" stroke="black" points="8,-311 8,-382 536,-382 536,-311 8,-311"/>
</g>
<!-- ViewDefinitionService&#45;&gt;ViewParserService -->
<g id="edge10" class="edge">
<title>ViewDefinitionService&#45;&gt;ViewParserService</title>
<path fill="none" stroke="black" stroke-dasharray="5,2" d="M591.51,-477.88C529.98,-452.77 443.37,-417.43 375.84,-389.87"/>
<polygon fill="black" stroke="black" points="366.44,-386.04 377.4,-385.65 371.07,-387.93 375.7,-389.82 375.7,-389.82 375.7,-389.82 371.07,-387.93 374,-393.98 366.44,-386.04 366.44,-386.04"/>
</g>
<!-- DeploymentResourceYamlRequest -->
<g id="node10" class="node">
<title>DeploymentResourceYamlRequest</title>
<polygon fill="none" stroke="black" points="2683,-649.5 2683,-670.5 2961,-670.5 2961,-649.5 2683,-649.5"/>
<text text-anchor="start" x="2686" y="-657.3" font-family="Times,serif" font-weight="bold" font-size="14.00">DeploymentResourceYamlRequest</text>
<polygon fill="none" stroke="black" points="2682,-649 2682,-672 2962,-672 2962,-649 2682,-649"/>
</g>
<!-- Step -->
<g id="node12" class="node">
<title>Step</title>
<polygon fill="none" stroke="black" points="1152,-223.5 1152,-244.5 1358,-244.5 1358,-223.5 1152,-223.5"/>
<text text-anchor="start" x="1237" y="-231.3" font-family="Times,serif" font-weight="bold" font-size="14.00">Step</text>
<polygon fill="none" stroke="black" points="1152,-133.5 1152,-223.5 1358,-223.5 1358,-133.5 1152,-133.5"/>
<text text-anchor="start" x="1217" y="-210.3" font-family="Times,serif" font-style="italic" font-size="14.00">Properties</text>
<text text-anchor="start" x="1155" y="-196.3" font-family="Times,serif" font-size="14.00">subtype:String</text>
<text text-anchor="start" x="1155" y="-182.3" font-family="Times,serif" font-size="14.00">description:String</text>
<text text-anchor="start" x="1155" y="-168.3" font-family="Times,serif" font-size="14.00">title:String</text>
<text text-anchor="start" x="1155" y="-154.3" font-family="Times,serif" font-size="14.00">parameters:List[Parameter]</text>
<text text-anchor="start" x="1155" y="-140.3" font-family="Times,serif" font-size="14.00">icon:String</text>
<polygon fill="none" stroke="black" points="1151,-133 1151,-246 1359,-246 1359,-133 1151,-133"/>
</g>
<!-- StepParserService&#45;&gt;Step -->
<g id="edge7" class="edge">
<title>StepParserService&#45;&gt;Step</title>
<path fill="none" stroke="black" stroke-dasharray="5,2" d="M1207.74,-306.79C1213.55,-292.47 1220.34,-275.77 1226.92,-259.57"/>
<polygon fill="black" stroke="black" points="1230.77,-250.12 1231.17,-261.07 1228.89,-254.75 1227,-259.38 1227,-259.38 1227,-259.38 1228.89,-254.75 1222.83,-257.69 1230.77,-250.12 1230.77,-250.12"/>
</g>
<!-- Step&#45;&gt;Metadata -->
<g id="edge19" class="edge">
<title>Step&#45;&gt;Metadata</title>
<path fill="none" stroke="black" d="M1255,-128.7C1255,-120.27 1255,-111.63 1255,-103.28"/>
<polygon fill="none" stroke="black" points="1258.5,-103.27 1255,-93.27 1251.5,-103.27 1258.5,-103.27"/>
</g>
<!-- ViewDefinition -->
<g id="node14" class="node">
<title>ViewDefinition</title>
<polygon fill="none" stroke="black" points="762,-209.5 762,-230.5 1071,-230.5 1071,-209.5 762,-209.5"/>
<text text-anchor="start" x="858.5" y="-217.3" font-family="Times,serif" font-weight="bold" font-size="14.00">ViewDefinition</text>
<polygon fill="none" stroke="black" points="762,-147.5 762,-209.5 1071,-209.5 1071,-147.5 762,-147.5"/>
<text text-anchor="start" x="878.5" y="-196.3" font-family="Times,serif" font-style="italic" font-size="14.00">Properties</text>
<text text-anchor="start" x="765" y="-182.3" font-family="Times,serif" font-size="14.00">steps:List[Step]</text>
<text text-anchor="start" x="765" y="-168.3" font-family="Times,serif" font-size="14.00">properties:Map[String, String]</text>
<text text-anchor="start" x="765" y="-154.3" font-family="Times,serif" font-size="14.00">constraints:List[ViewDefinitionConstraint]</text>
<polygon fill="none" stroke="black" points="760.5,-147 760.5,-232 1071.5,-232 1071.5,-147 760.5,-147"/>
</g>
<!-- ViewParserService&#45;&gt;ViewDefinition -->
<g id="edge8" class="edge">
<title>ViewParserService&#45;&gt;ViewDefinition</title>
<path fill="none" stroke="black" stroke-dasharray="5,2" d="M432.02,-306.99C526.38,-284.28 645.83,-255.53 742.45,-232.27"/>
<polygon fill="black" stroke="black" points="752.32,-229.89 743.65,-236.61 747.46,-231.06 742.6,-232.23 742.6,-232.23 742.6,-232.23 747.46,-231.06 741.55,-227.86 752.32,-229.89 752.32,-229.89"/>
</g>
<!-- ViewDefinition&#45;&gt;Metadata -->
<g id="edge22" class="edge">
<title>ViewDefinition&#45;&gt;Metadata</title>
<path fill="none" stroke="black" d="M1025.6,-142.92C1079.53,-120.48 1142.74,-94.19 1189.14,-74.89"/>
<polygon fill="none" stroke="black" points="1190.6,-78.08 1198.48,-71.01 1187.91,-71.62 1190.6,-78.08"/>
</g>
<!-- ParseCatalog -->
<g id="node16" class="node">
<title>ParseCatalog</title>
<polygon fill="none" stroke="black" points="3129,-352.5 3129,-373.5 3386,-373.5 3386,-352.5 3129,-352.5"/>
<text text-anchor="start" x="3205" y="-360.3" font-family="Times,serif" font-weight="bold" font-size="14.00">ParseCatalog</text>
<polygon fill="none" stroke="black" points="3129,-318.5 3129,-352.5 3386,-352.5 3386,-318.5 3129,-318.5"/>
<text text-anchor="start" x="3226" y="-339.3" font-family="Times,serif" font-style="italic" font-size="14.00">Methods</text>
<text text-anchor="start" x="3132" y="-325.3" font-family="Times,serif" font-size="14.00">parse():CompletableFuture[List[T]]</text>
<polygon fill="none" stroke="black" points="3127.5,-318 3127.5,-375 3386.5,-375 3386.5,-318 3127.5,-318"/>
</g>
<!-- CatalogCollection -->
<g id="node17" class="node">
<title>CatalogCollection</title>
<polygon fill="none" stroke="black" points="1539,-335.5 1539,-356.5 1685,-356.5 1685,-335.5 1539,-335.5"/>
<text text-anchor="start" x="1542" y="-343.3" font-family="Times,serif" font-weight="bold" font-size="14.00">CatalogCollection</text>
<polygon fill="none" stroke="black" points="1538,-335 1538,-358 1686,-358 1686,-335 1538,-335"/>
</g>
<!-- CatalogCollection&#45;&gt;MetadataCatalog -->
<g id="edge12" class="edge">
<title>CatalogCollection&#45;&gt;MetadataCatalog</title>
<path fill="none" stroke="black" d="M1622.09,-328.32C1632.9,-309.9 1650.7,-279.58 1666.86,-252.06"/>
<polygon fill="none" stroke="black" points="1669.99,-253.64 1672.03,-243.24 1663.95,-250.1 1669.99,-253.64"/>
</g>
<!-- InMemoryCatalog -->
<g id="node18" class="node">
<title>InMemoryCatalog</title>
<polygon fill="none" stroke="black" points="1721,-335.5 1721,-356.5 1869,-356.5 1869,-335.5 1721,-335.5"/>
<text text-anchor="start" x="1724" y="-343.3" font-family="Times,serif" font-weight="bold" font-size="14.00">InMemoryCatalog</text>
<polygon fill="none" stroke="black" points="1720,-335 1720,-358 1870,-358 1870,-335 1720,-335"/>
</g>
<!-- InMemoryCatalog&#45;&gt;MetadataCatalog -->
<g id="edge13" class="edge">
<title>InMemoryCatalog&#45;&gt;MetadataCatalog</title>
<path fill="none" stroke="black" d="M1784.8,-328.32C1773.87,-309.9 1755.87,-279.58 1739.54,-252.06"/>
<polygon fill="none" stroke="black" points="1742.42,-250.06 1734.31,-243.24 1736.4,-253.63 1742.42,-250.06"/>
</g>
<!-- ReadOnlyCatalog -->
<g id="node19" class="node">
<title>ReadOnlyCatalog</title>
<polygon fill="none" stroke="black" points="1541,-499.5 1541,-520.5 1683,-520.5 1683,-499.5 1541,-499.5"/>
<text text-anchor="start" x="1544" y="-507.3" font-family="Times,serif" font-weight="bold" font-size="14.00">ReadOnlyCatalog</text>
<polygon fill="none" stroke="black" points="1540,-499 1540,-522 1684,-522 1684,-499 1540,-499"/>
</g>
<!-- ReadOnlyCatalog&#45;&gt;CatalogCollection -->
<g id="edge14" class="edge">
<title>ReadOnlyCatalog&#45;&gt;CatalogCollection</title>
<path fill="none" stroke="black" d="M1612,-492.47C1612,-464.47 1612,-408.46 1612,-374.85"/>
<polygon fill="none" stroke="black" points="1615.5,-374.79 1612,-364.79 1608.5,-374.79 1615.5,-374.79"/>
</g>
<!-- GitParseCatalog -->
<g id="node20" class="node">
<title>GitParseCatalog</title>
<polygon fill="none" stroke="black" points="2856,-516.5 2856,-537.5 3658,-537.5 3658,-516.5 2856,-516.5"/>
<text text-anchor="start" x="3192.5" y="-524.3" font-family="Times,serif" font-weight="bold" font-size="14.00">GitParseCatalog</text>
<polygon fill="none" stroke="black" points="2856,-482.5 2856,-516.5 3658,-516.5 3658,-482.5 2856,-482.5"/>
<text text-anchor="start" x="3225.5" y="-503.3" font-family="Times,serif" font-style="italic" font-size="14.00">Methods</text>
<text text-anchor="start" x="2859" y="-489.3" font-family="Times,serif" font-size="14.00">getFileVisitor(&lt;List[Metadata]&gt; metadataList, &lt;List[CompletableFuture[]]&gt; futureMetadata):YamlProcessFile</text>
<polygon fill="none" stroke="black" points="2855,-482 2855,-539 3659,-539 3659,-482 2855,-482"/>
</g>
<!-- GitParseCatalog&#45;&gt;ParseCatalog -->
<g id="edge15" class="edge">
<title>GitParseCatalog&#45;&gt;ParseCatalog</title>
<path fill="none" stroke="black" d="M3257,-477.88C3257,-452.57 3257,-416.86 3257,-389.2"/>
<polygon fill="none" stroke="black" points="3260.5,-389.04 3257,-379.04 3253.5,-389.04 3260.5,-389.04"/>
</g>
<!-- YamlProcessFile -->
<g id="node21" class="node">
<title>YamlProcessFile</title>
<polygon fill="none" stroke="black" points="2998,-649.5 2998,-670.5 3133,-670.5 3133,-649.5 2998,-649.5"/>
<text text-anchor="start" x="3001" y="-657.3" font-family="Times,serif" font-weight="bold" font-size="14.00">YamlProcessFile</text>
<polygon fill="none" stroke="black" points="2996.5,-649 2996.5,-672 3133.5,-672 3133.5,-649 2996.5,-649"/>
</g>
<!-- YamlProcessFile&#45;&gt;GitParseCatalog -->
<g id="edge16" class="edge">
<title>YamlProcessFile&#45;&gt;GitParseCatalog</title>
<path fill="none" stroke="black" stroke-dasharray="5,2" d="M3087.4,-642.23C3116.77,-619.6 3169.1,-579.25 3207.89,-549.35"/>
<polygon fill="black" stroke="black" points="3215.95,-543.14 3210.78,-552.81 3211.99,-546.19 3208.03,-549.25 3208.03,-549.25 3208.03,-549.25 3211.99,-546.19 3205.29,-545.68 3215.95,-543.14 3215.95,-543.14"/>
</g>
<!-- KameletParseCatalog -->
<g id="node22" class="node">
<title>KameletParseCatalog</title>
<polygon fill="none" stroke="black" points="3169,-649.5 3169,-670.5 3346,-670.5 3346,-649.5 3169,-649.5"/>
<text text-anchor="start" x="3172" y="-657.3" font-family="Times,serif" font-weight="bold" font-size="14.00">KameletParseCatalog</text>
<polygon fill="none" stroke="black" points="3167.5,-649 3167.5,-672 3346.5,-672 3346.5,-649 3167.5,-649"/>
</g>
<!-- KameletParseCatalog&#45;&gt;GitParseCatalog -->
<g id="edge17" class="edge">
<title>KameletParseCatalog&#45;&gt;GitParseCatalog</title>
<path fill="none" stroke="black" d="M3257,-642.23C3257,-620.54 3257,-582.6 3257,-553.16"/>
<polygon fill="none" stroke="black" points="3260.5,-553.14 3257,-543.14 3253.5,-553.14 3260.5,-553.14"/>
</g>
<!-- ViewDefinitionParseCatalog -->
<g id="node23" class="node">
<title>ViewDefinitionParseCatalog</title>
<polygon fill="none" stroke="black" points="3382,-649.5 3382,-670.5 3608,-670.5 3608,-649.5 3382,-649.5"/>
<text text-anchor="start" x="3385" y="-657.3" font-family="Times,serif" font-weight="bold" font-size="14.00">ViewDefinitionParseCatalog</text>
<polygon fill="none" stroke="black" points="3381,-649 3381,-672 3609,-672 3609,-649 3381,-649"/>
</g>
<!-- ViewDefinitionParseCatalog&#45;&gt;GitParseCatalog -->
<g id="edge18" class="edge">
<title>ViewDefinitionParseCatalog&#45;&gt;GitParseCatalog</title>
<path fill="none" stroke="black" d="M3467.23,-642.23C3430.52,-619.41 3364.87,-578.58 3316.67,-548.6"/>
<polygon fill="none" stroke="black" points="3318.22,-545.45 3307.88,-543.14 3314.53,-551.39 3318.22,-545.45"/>
</g>
<!-- KameletBinding -->
<g id="node24" class="node">
<title>KameletBinding</title>
<polygon fill="none" stroke="black" points="3644,-660.5 3644,-681.5 3780,-681.5 3780,-660.5 3644,-660.5"/>
<text text-anchor="start" x="3647" y="-668.3" font-family="Times,serif" font-weight="bold" font-size="14.00">KameletBinding</text>
<polygon fill="none" stroke="black" points="3644,-639.5 3644,-660.5 3780,-660.5 3780,-639.5 3644,-639.5"/>
<text text-anchor="start" x="3657" y="-647.3" font-family="Times,serif" font-style="italic" font-size="14.00">Usage example</text>
<polygon fill="none" stroke="black" points="3643,-638.5 3643,-682.5 3781,-682.5 3781,-638.5 3643,-638.5"/>
</g>
<!-- KameletBindingSpec -->
<g id="node25" class="node">
<title>KameletBindingSpec</title>
<polygon fill="none" stroke="black" points="3816,-660.5 3816,-681.5 3988,-681.5 3988,-660.5 3816,-660.5"/>
<text text-anchor="start" x="3819" y="-668.3" font-family="Times,serif" font-weight="bold" font-size="14.00">KameletBindingSpec</text>
<polygon fill="none" stroke="black" points="3816,-639.5 3816,-660.5 3988,-660.5 3988,-639.5 3816,-639.5"/>
<text text-anchor="start" x="3847" y="-647.3" font-family="Times,serif" font-style="italic" font-size="14.00">Usage example</text>
<polygon fill="none" stroke="black" points="3815,-638.5 3815,-682.5 3989,-682.5 3989,-638.5 3815,-638.5"/>
</g>
<!-- KameletBindingStep -->
<g id="node26" class="node">
<title>KameletBindingStep</title>
<polygon fill="none" stroke="black" points="4025,-660.5 4025,-681.5 4196,-681.5 4196,-660.5 4025,-660.5"/>
<text text-anchor="start" x="4028" y="-668.3" font-family="Times,serif" font-weight="bold" font-size="14.00">KameletBindingStep</text>
<polygon fill="none" stroke="black" points="4025,-639.5 4025,-660.5 4196,-660.5 4196,-639.5 4025,-639.5"/>
<text text-anchor="start" x="4055.5" y="-647.3" font-family="Times,serif" font-style="italic" font-size="14.00">Usage example</text>
<polygon fill="none" stroke="black" points="4023.5,-638.5 4023.5,-682.5 4196.5,-682.5 4196.5,-638.5 4023.5,-638.5"/>
</g>
<!-- KameletBindingStepRef -->
<g id="node27" class="node">
<title>KameletBindingStepRef</title>
<polygon fill="none" stroke="black" points="4232,-660.5 4232,-681.5 4430,-681.5 4430,-660.5 4232,-660.5"/>
<text text-anchor="start" x="4235" y="-668.3" font-family="Times,serif" font-weight="bold" font-size="14.00">KameletBindingStepRef</text>
<polygon fill="none" stroke="black" points="4232,-639.5 4232,-660.5 4430,-660.5 4430,-639.5 4232,-639.5"/>
<text text-anchor="start" x="4276" y="-647.3" font-family="Times,serif" font-style="italic" font-size="14.00">Usage example</text>
<polygon fill="none" stroke="black" points="4231,-638.5 4231,-682.5 4431,-682.5 4431,-638.5 4231,-638.5"/>
</g>
<!-- Parameter -->
<g id="node28" class="node">
<title>Parameter</title>
<polygon fill="none" stroke="black" points="1361,-551.5 1361,-572.5 1497,-572.5 1497,-551.5 1361,-551.5"/>
<text text-anchor="start" x="1387" y="-559.3" font-family="Times,serif" font-weight="bold" font-size="14.00">Parameter</text>
<polygon fill="none" stroke="black" points="1361,-447.5 1361,-551.5 1497,-551.5 1497,-447.5 1361,-447.5"/>
<text text-anchor="start" x="1391" y="-538.3" font-family="Times,serif" font-style="italic" font-size="14.00">Properties</text>
<text text-anchor="start" x="1364" y="-524.3" font-family="Times,serif" font-size="14.00">description:String</text>
<text text-anchor="start" x="1364" y="-510.3" font-family="Times,serif" font-size="14.00">label:String</text>
<text text-anchor="start" x="1364" y="-496.3" font-family="Times,serif" font-size="14.00">id:String</text>
<text text-anchor="start" x="1364" y="-482.3" font-family="Times,serif" font-size="14.00">value:String</text>
<text text-anchor="start" x="1364" y="-468.3" font-family="Times,serif" font-size="14.00">default:String</text>
<text text-anchor="start" x="1364" y="-454.3" font-family="Times,serif" font-size="14.00">type:String</text>
<polygon fill="none" stroke="black" points="1360,-447 1360,-574 1498,-574 1498,-447 1360,-447"/>
</g>
<!-- KameletStep -->
<g id="node29" class="node">
<title>KameletStep</title>
<polygon fill="none" stroke="black" points="1355,-380.5 1355,-401.5 1503,-401.5 1503,-380.5 1355,-380.5"/>
<text text-anchor="start" x="1378" y="-388.3" font-family="Times,serif" font-weight="bold" font-size="14.00">KameletStep</text>
<polygon fill="none" stroke="black" points="1355,-290.5 1355,-380.5 1503,-380.5 1503,-290.5 1355,-290.5"/>
<text text-anchor="start" x="1391" y="-367.3" font-family="Times,serif" font-style="italic" font-size="14.00">Properties</text>
<text text-anchor="start" x="1358" y="-353.3" font-family="Times,serif" font-size="14.00">group:String</text>
<text text-anchor="start" x="1358" y="-339.3" font-family="Times,serif" font-size="14.00">kameletType:String</text>
<text text-anchor="start" x="1358" y="-325.3" font-family="Times,serif" font-size="14.00">apiVersion:String</text>
<text text-anchor="start" x="1358" y="-311.3" font-family="Times,serif" font-size="14.00">kind:String</text>
<text text-anchor="start" x="1358" y="-297.3" font-family="Times,serif" font-size="14.00">spec:String</text>
<polygon fill="none" stroke="black" points="1354,-290 1354,-403 1504,-403 1504,-290 1354,-290"/>
</g>
<!-- Parameter&#45;&gt;KameletStep -->
<g id="edge21" class="edge">
<title>Parameter&#45;&gt;KameletStep</title>
<path fill="none" stroke="black" d="M1429,-442.67C1429,-434.95 1429,-427.05 1429,-419.27"/>
<polygon fill="black" stroke="black" points="1429,-419.17 1425,-413.17 1429,-407.17 1433,-413.17 1429,-419.17"/>
<text text-anchor="middle" x="1415" y="-431.47" font-family="Times,serif" font-size="14.00">0..n</text>
</g>
<!-- KameletStep&#45;&gt;Step -->
<g id="edge20" class="edge">
<title>KameletStep&#45;&gt;Step</title>
<path fill="none" stroke="black" d="M1361.73,-285.57C1351.18,-276.18 1340.23,-266.43 1329.54,-256.9"/>
<polygon fill="none" stroke="black" points="1331.6,-254.05 1321.81,-250.01 1326.95,-259.28 1331.6,-254.05"/>
</g>
<!-- ViewDefinitionConstraint -->
<g id="node30" class="node">
<title>ViewDefinitionConstraint</title>
<polygon fill="none" stroke="black" points="803,-366.5 803,-387.5 1029,-387.5 1029,-366.5 803,-366.5"/>
<text text-anchor="start" x="815.5" y="-374.3" font-family="Times,serif" font-weight="bold" font-size="14.00">ViewDefinitionConstraint</text>
<polygon fill="none" stroke="black" points="803,-304.5 803,-366.5 1029,-366.5 1029,-304.5 803,-304.5"/>
<text text-anchor="start" x="878" y="-353.3" font-family="Times,serif" font-style="italic" font-size="14.00">Properties</text>
<text text-anchor="start" x="806" y="-339.3" font-family="Times,serif" font-size="14.00">mandatory:boolean</text>
<text text-anchor="start" x="806" y="-325.3" font-family="Times,serif" font-size="14.00">operation:ConstraintOperation</text>
<text text-anchor="start" x="806" y="-311.3" font-family="Times,serif" font-size="14.00">parameter:String</text>
<polygon fill="none" stroke="black" points="802,-304 802,-389 1030,-389 1030,-304 802,-304"/>
</g>
<!-- ViewDefinitionConstraint&#45;&gt;ViewDefinition -->
<g id="edge23" class="edge">
<title>ViewDefinitionConstraint&#45;&gt;ViewDefinition</title>
<path fill="none" stroke="black" d="M916,-299.83C916,-283.67 916,-265.26 916,-248.22"/>
<polygon fill="black" stroke="black" points="916,-248.11 912,-242.11 916,-236.11 920,-242.11 916,-248.11"/>
<text text-anchor="middle" x="902" y="-288.63" font-family="Times,serif" font-size="14.00">0..n</text>
</g>
</g>
</svg>
