<?xml version="1.0" encoding="UTF-8" standalone="no"?>
<!DOCTYPE svg PUBLIC "-//W3C//DTD SVG 1.1//EN"
 "http://www.w3.org/Graphics/SVG/1.1/DTD/svg11.dtd">
<!-- Generated by graphviz version 2.43.0 (0)
 -->
<!-- Title: ClassDiagram Pages: 1 -->
<svg width="3932pt" height="784pt"
 viewBox="0.00 0.00 3932.00 784.00" xmlns="http://www.w3.org/2000/svg" xmlns:xlink="http://www.w3.org/1999/xlink">
<g id="graph0" class="graph" transform="scale(1 1) rotate(0) translate(4 780)">
<title>ClassDiagram</title>
<polygon fill="white" stroke="transparent" points="-4,4 -4,-780 3928,-780 3928,4 -4,4"/>
<!-- CapabilitiesResource -->
<g id="node1" class="node">
<title>CapabilitiesResource</title>
<polygon fill="none" stroke="black" points="9,-508.5 9,-529.5 183,-529.5 183,-508.5 9,-508.5"/>
<text text-anchor="start" x="12" y="-516.3" font-family="Times,serif" font-weight="bold" font-size="14.00">CapabilitiesResource</text>
<polygon fill="none" stroke="black" points="9,-474.5 9,-508.5 183,-508.5 183,-474.5 9,-474.5"/>
<text text-anchor="start" x="64.5" y="-495.3" font-family="Times,serif" font-style="italic" font-size="14.00">Methods</text>
<text text-anchor="start" x="25" y="-481.3" font-family="Times,serif" font-size="14.00">getAll():Capabilities</text>
<polygon fill="none" stroke="black" points="8,-474 8,-531 184,-531 184,-474 8,-474"/>
</g>
<!-- LanguageService -->
<g id="node2" class="node">
<title>LanguageService</title>
<text text-anchor="middle" x="96" y="-676.8" font-family="Times,serif" font-size="14.00">LanguageService</text>
</g>
<!-- LanguageService&#45;&gt;CapabilitiesResource -->
<g id="edge1" class="edge">
<title>LanguageService&#45;&gt;CapabilitiesResource</title>
<path fill="none" stroke="black" d="M96,-662.3C96,-635.88 96,-584.46 96,-547.28"/>
<polygon fill="black" stroke="black" points="96,-547.27 92,-541.27 96,-535.27 100,-541.27 96,-547.27"/>
<text text-anchor="middle" x="82" y="-651.1" font-family="Times,serif" font-size="14.00">0..1</text>
</g>
<!-- DeploymentsResource -->
<g id="node3" class="node">
<title>DeploymentsResource</title>
<polygon fill="none" stroke="black" points="194,-714.5 194,-735.5 675,-735.5 675,-714.5 194,-714.5"/>
<text text-anchor="start" x="346" y="-722.3" font-family="Times,serif" font-weight="bold" font-size="14.00">DeploymentsResource</text>
<polygon fill="none" stroke="black" points="194,-624.5 194,-714.5 675,-714.5 675,-624.5 194,-624.5"/>
<text text-anchor="start" x="403" y="-701.3" font-family="Times,serif" font-style="italic" font-size="14.00">Methods</text>
<text text-anchor="start" x="197" y="-687.3" font-family="Times,serif" font-size="14.00">all(&lt;String&gt; namespace):String</text>
<text text-anchor="start" x="197" y="-673.3" font-family="Times,serif" font-size="14.00">start(&lt;String&gt; crd, &lt;String&gt; namespace, &lt;String&gt; name):String</text>
<text text-anchor="start" x="197" y="-659.3" font-family="Times,serif" font-size="14.00">get(&lt;String&gt; name, &lt;String&gt; namespace):String</text>
<text text-anchor="start" x="197" y="-645.3" font-family="Times,serif" font-size="14.00">stop(&lt;String&gt; name, &lt;String&gt; namespace):String</text>
<text text-anchor="start" x="197" y="-631.3" font-family="Times,serif" font-size="14.00">logs(&lt;String&gt; name, &lt;String&gt; namespace):String</text>
<polygon fill="none" stroke="black" points="192.5,-624 192.5,-737 675.5,-737 675.5,-624 192.5,-624"/>
</g>
<!-- IntegrationsResource -->
<g id="node4" class="node">
<title>IntegrationsResource</title>
<polygon fill="none" stroke="black" points="596,-522.5 596,-543.5 964,-543.5 964,-522.5 596,-522.5"/>
<text text-anchor="start" x="693.5" y="-530.3" font-family="Times,serif" font-weight="bold" font-size="14.00">IntegrationsResource</text>
<polygon fill="none" stroke="black" points="596,-460.5 596,-522.5 964,-522.5 964,-460.5 596,-460.5"/>
<text text-anchor="start" x="748.5" y="-509.3" font-family="Times,serif" font-style="italic" font-size="14.00">Methods</text>
<text text-anchor="start" x="599" y="-495.3" font-family="Times,serif" font-size="14.00">crd(&lt;String&gt; dsl, &lt;Integration&gt; integration):Map</text>
<text text-anchor="start" x="599" y="-481.3" font-family="Times,serif" font-size="14.00">integration(&lt;String&gt; dsl, &lt;String&gt; crd):Map</text>
<text text-anchor="start" x="599" y="-467.3" font-family="Times,serif" font-size="14.00">compatibleDSL(&lt;List[Step]&gt; steps):Map</text>
<polygon fill="none" stroke="black" points="595,-460 595,-545 965,-545 965,-460 595,-460"/>
</g>
<!-- DeploymentService -->
<g id="node5" class="node">
<title>DeploymentService</title>
<text text-anchor="middle" x="780" y="-676.8" font-family="Times,serif" font-size="14.00">DeploymentService</text>
</g>
<!-- DeploymentService&#45;&gt;IntegrationsResource -->
<g id="edge2" class="edge">
<title>DeploymentService&#45;&gt;IntegrationsResource</title>
<path fill="none" stroke="black" d="M780,-662.3C780,-639.09 780,-596.59 780,-561.39"/>
<polygon fill="black" stroke="black" points="780,-561.29 776,-555.29 780,-549.29 784,-555.29 780,-561.29"/>
<text text-anchor="middle" x="766" y="-651.1" font-family="Times,serif" font-size="14.00">0..1</text>
</g>
<!-- StepResource -->
<g id="node6" class="node">
<title>StepResource</title>
<polygon fill="none" stroke="black" points="885,-700.5 885,-721.5 1357,-721.5 1357,-700.5 885,-700.5"/>
<text text-anchor="start" x="1066.5" y="-708.3" font-family="Times,serif" font-weight="bold" font-size="14.00">StepResource</text>
<polygon fill="none" stroke="black" points="885,-638.5 885,-700.5 1357,-700.5 1357,-638.5 885,-638.5"/>
<text text-anchor="start" x="1089.5" y="-687.3" font-family="Times,serif" font-style="italic" font-size="14.00">Methods</text>
<text text-anchor="start" x="888" y="-673.3" font-family="Times,serif" font-size="14.00">allSteps(&lt;String&gt; type, &lt;String&gt; dsl, &lt;String&gt; kind):List[Step]</text>
<text text-anchor="start" x="888" y="-659.3" font-family="Times,serif" font-size="14.00">stepById(&lt;String&gt; id):Step</text>
<text text-anchor="start" x="888" y="-645.3" font-family="Times,serif" font-size="14.00">stepsByName(&lt;String&gt; name):List[Step]</text>
<polygon fill="none" stroke="black" points="884,-638 884,-723 1358,-723 1358,-638 884,-638"/>
</g>
<!-- StepCatalog -->
<g id="node7" class="node">
<title>StepCatalog</title>
<polygon fill="none" stroke="black" points="1070,-491.5 1070,-512.5 1172,-512.5 1172,-491.5 1070,-491.5"/>
<text text-anchor="start" x="1073" y="-499.3" font-family="Times,serif" font-weight="bold" font-size="14.00">StepCatalog</text>
<polygon fill="none" stroke="black" points="1069,-491 1069,-514 1173,-514 1173,-491 1069,-491"/>
</g>
<!-- StepResource&#45;&gt;StepCatalog -->
<g id="edge3" class="edge">
<title>StepResource&#45;&gt;StepCatalog</title>
<path fill="none" stroke="black" stroke-dasharray="5,2" d="M1121,-633.72C1121,-600.99 1121,-558.05 1121,-530.61"/>
<polygon fill="black" stroke="black" points="1121,-520.56 1125.5,-530.56 1121,-525.56 1121,-530.56 1121,-530.56 1121,-530.56 1121,-525.56 1116.5,-530.56 1121,-520.56 1121,-520.56"/>
</g>
<!-- AbstractCatalog -->
<g id="node11" class="node">
<title>AbstractCatalog</title>
<polygon fill="none" stroke="black" points="1135,-393.5 1135,-414.5 1413,-414.5 1413,-393.5 1135,-393.5"/>
<text text-anchor="start" x="1210.5" y="-401.3" font-family="Times,serif" font-weight="bold" font-size="14.00">AbstractCatalog</text>
<polygon fill="none" stroke="black" points="1135,-317.5 1135,-393.5 1413,-393.5 1413,-317.5 1135,-317.5"/>
<text text-anchor="start" x="1242.5" y="-380.3" font-family="Times,serif" font-style="italic" font-size="14.00">Methods</text>
<text text-anchor="start" x="1138" y="-366.3" font-family="Times,serif" font-size="14.00">waitForWarmUp():CompletableFuture</text>
<text text-anchor="start" x="1138" y="-352.3" font-family="Times,serif" font-size="14.00">loadParsers():List[ParseCatalog]</text>
<text text-anchor="start" x="1138" y="-338.3" font-family="Times,serif" font-size="14.00">warmUpCatalog():</text>
<text text-anchor="start" x="1138" y="-324.3" font-family="Times,serif" font-size="14.00">refresh():</text>
<polygon fill="none" stroke="black" points="1134,-317 1134,-416 1414,-416 1414,-317 1134,-317"/>
</g>
<!-- StepCatalog&#45;&gt;AbstractCatalog -->
<g id="edge6" class="edge">
<title>StepCatalog&#45;&gt;AbstractCatalog</title>
<path fill="none" stroke="black" d="M1140.69,-484.26C1157.37,-469.65 1182.3,-447.82 1206.1,-426.97"/>
<polygon fill="none" stroke="black" points="1208.56,-429.46 1213.78,-420.24 1203.95,-424.2 1208.56,-429.46"/>
</g>
<!-- ViewDefinitionResource -->
<g id="node8" class="node">
<title>ViewDefinitionResource</title>
<polygon fill="none" stroke="black" points="1629,-508.5 1629,-529.5 2097,-529.5 2097,-508.5 1629,-508.5"/>
<text text-anchor="start" x="1768" y="-516.3" font-family="Times,serif" font-weight="bold" font-size="14.00">ViewDefinitionResource</text>
<polygon fill="none" stroke="black" points="1629,-474.5 1629,-508.5 2097,-508.5 2097,-474.5 1629,-474.5"/>
<text text-anchor="start" x="1831.5" y="-495.3" font-family="Times,serif" font-style="italic" font-size="14.00">Methods</text>
<text text-anchor="start" x="1632" y="-481.3" font-family="Times,serif" font-size="14.00">viewsPerStepList:(&lt;Step[]&gt; DeploymentResourceYamlRequest):</text>
<polygon fill="none" stroke="black" points="1628,-474 1628,-531 2098,-531 2098,-474 1628,-474"/>
</g>
<!-- ViewDefinitionService -->
<g id="node9" class="node">
<title>ViewDefinitionService</title>
<text text-anchor="middle" x="1863" y="-676.8" font-family="Times,serif" font-size="14.00">ViewDefinitionService</text>
</g>
<!-- ViewDefinitionService&#45;&gt;ViewDefinitionResource -->
<g id="edge4" class="edge">
<title>ViewDefinitionService&#45;&gt;ViewDefinitionResource</title>
<path fill="none" stroke="black" d="M1863,-662.3C1863,-635.88 1863,-584.46 1863,-547.28"/>
<polygon fill="black" stroke="black" points="1863,-547.27 1859,-541.27 1863,-535.27 1867,-541.27 1863,-547.27"/>
<text text-anchor="middle" x="1849" y="-651.1" font-family="Times,serif" font-size="14.00">0..1</text>
</g>
<!-- CamelRoute -->
<g id="node10" class="node">
<title>CamelRoute</title>
<polygon fill="none" stroke="black" points="2039,-669.5 2039,-690.5 2142,-690.5 2142,-669.5 2039,-669.5"/>
<text text-anchor="start" x="2042" y="-677.3" font-family="Times,serif" font-weight="bold" font-size="14.00">CamelRoute</text>
<polygon fill="none" stroke="black" points="2037.5,-669 2037.5,-692 2142.5,-692 2142.5,-669 2037.5,-669"/>
</g>
<!-- MetadataCatalog -->
<g id="node12" class="node">
<title>MetadataCatalog</title>
<polygon fill="none" stroke="black" points="1351,-208.5 1351,-229.5 1694,-229.5 1694,-208.5 1351,-208.5"/>
<text text-anchor="start" x="1454.5" y="-216.3" font-family="Times,serif" font-weight="bold" font-size="14.00">MetadataCatalog</text>
<polygon fill="none" stroke="black" points="1351,-118.5 1351,-208.5 1694,-208.5 1694,-118.5 1351,-118.5"/>
<text text-anchor="start" x="1491" y="-195.3" font-family="Times,serif" font-style="italic" font-size="14.00">Methods</text>
<text text-anchor="start" x="1354" y="-181.3" font-family="Times,serif" font-size="14.00">searchStepByID(&lt;String&gt; id):Metadata</text>
<text text-anchor="start" x="1354" y="-167.3" font-family="Times,serif" font-size="14.00">searchStepByName(&lt;String&gt; name):Metadata</text>
<text text-anchor="start" x="1354" y="-153.3" font-family="Times,serif" font-size="14.00">store(&lt;List[Step]&gt; steps):boolean</text>
<text text-anchor="start" x="1354" y="-139.3" font-family="Times,serif" font-size="14.00">getAll():List[Metadata]</text>
<text text-anchor="start" x="1354" y="-125.3" font-family="Times,serif" font-size="14.00">clear():void</text>
<polygon fill="none" stroke="black" points="1349.5,-118 1349.5,-231 1694.5,-231 1694.5,-118 1349.5,-118"/>
</g>
<!-- AbstractCatalog&#45;&gt;MetadataCatalog -->
<g id="edge5" class="edge">
<title>AbstractCatalog&#45;&gt;MetadataCatalog</title>
<path fill="none" stroke="black" stroke-dasharray="5,2" d="M1342.75,-312.83C1371.57,-290.75 1405.39,-264.84 1435.85,-241.5"/>
<polygon fill="black" stroke="black" points="1443.92,-235.32 1438.72,-244.97 1439.96,-238.36 1435.99,-241.4 1435.99,-241.4 1435.99,-241.4 1439.96,-238.36 1433.25,-237.83 1443.92,-235.32 1443.92,-235.32"/>
</g>
<!-- Metadata -->
<g id="node19" class="node">
<title>Metadata</title>
<text text-anchor="middle" x="1522" y="-14.3" font-family="Times,serif" font-size="14.00">Metadata</text>
</g>
<!-- MetadataCatalog&#45;&gt;Metadata -->
<g id="edge10" class="edge">
<title>MetadataCatalog&#45;&gt;Metadata</title>
<path fill="none" stroke="black" stroke-dasharray="5,2" d="M1522,-113.77C1522,-90.48 1522,-64.96 1522,-46.27"/>
<polygon fill="black" stroke="black" points="1522,-36.13 1526.5,-46.13 1522,-41.13 1522,-46.13 1522,-46.13 1522,-46.13 1522,-41.13 1517.5,-46.13 1522,-36.13 1522,-36.13"/>
</g>
<!-- StepCatalogParser -->
<g id="node13" class="node">
<title>StepCatalogParser</title>
<polygon fill="none" stroke="black" points="2134,-522.5 2134,-543.5 2519,-543.5 2519,-522.5 2134,-522.5"/>
<text text-anchor="start" x="2252.5" y="-530.3" font-family="Times,serif" font-weight="bold" font-size="14.00">StepCatalogParser</text>
<polygon fill="none" stroke="black" points="2134,-460.5 2134,-522.5 2519,-522.5 2519,-460.5 2134,-460.5"/>
<text text-anchor="start" x="2295" y="-509.3" font-family="Times,serif" font-style="italic" font-size="14.00">Methods</text>
<text text-anchor="start" x="2137" y="-495.3" font-family="Times,serif" font-size="14.00">getParser(&lt;String&gt; url, &lt;String&gt; tag):ParseCatalog</text>
<text text-anchor="start" x="2137" y="-481.3" font-family="Times,serif" font-size="14.00">getParserFromCluster():ParseCatalog</text>
<text text-anchor="start" x="2137" y="-467.3" font-family="Times,serif" font-size="14.00">getLocalFolder(&lt;Path&gt; path):ParseCatalog</text>
<polygon fill="none" stroke="black" points="2132.5,-460 2132.5,-545 2519.5,-545 2519.5,-460 2132.5,-460"/>
</g>
<!-- ViewDefinitionCatalog -->
<g id="node14" class="node">
<title>ViewDefinitionCatalog</title>
<polygon fill="none" stroke="black" points="1208,-491.5 1208,-512.5 1390,-512.5 1390,-491.5 1208,-491.5"/>
<text text-anchor="start" x="1211" y="-499.3" font-family="Times,serif" font-weight="bold" font-size="14.00">ViewDefinitionCatalog</text>
<polygon fill="none" stroke="black" points="1207,-491 1207,-514 1391,-514 1391,-491 1207,-491"/>
</g>
<!-- ViewDefinitionCatalog&#45;&gt;AbstractCatalog -->
<g id="edge7" class="edge">
<title>ViewDefinitionCatalog&#45;&gt;AbstractCatalog</title>
<path fill="none" stroke="black" d="M1295.78,-484.26C1293.2,-470.41 1289.4,-450.06 1285.7,-430.22"/>
<polygon fill="none" stroke="black" points="1289.11,-429.43 1283.84,-420.24 1282.23,-430.72 1289.11,-429.43"/>
</g>
<!-- KameletParseCatalog -->
<g id="node15" class="node">
<title>KameletParseCatalog</title>
<polygon fill="none" stroke="black" points="2238,-669.5 2238,-690.5 2415,-690.5 2415,-669.5 2238,-669.5"/>
<text text-anchor="start" x="2241" y="-677.3" font-family="Times,serif" font-weight="bold" font-size="14.00">KameletParseCatalog</text>
<polygon fill="none" stroke="black" points="2236.5,-669 2236.5,-692 2415.5,-692 2415.5,-669 2236.5,-669"/>
</g>
<!-- KameletParseCatalog&#45;&gt;StepCatalogParser -->
<g id="edge8" class="edge">
<title>KameletParseCatalog&#45;&gt;StepCatalogParser</title>
<path fill="none" stroke="black" d="M2326,-662.3C2326,-638.69 2326,-595.09 2326,-559.55"/>
<polygon fill="none" stroke="black" points="2329.5,-559.29 2326,-549.29 2322.5,-559.29 2329.5,-559.29"/>
</g>
<!-- ParseCatalog -->
<g id="node16" class="node">
<title>ParseCatalog</title>
<polygon fill="none" stroke="black" points="2659,-515.5 2659,-536.5 2991,-536.5 2991,-515.5 2659,-515.5"/>
<text text-anchor="start" x="2772.5" y="-523.3" font-family="Times,serif" font-weight="bold" font-size="14.00">ParseCatalog</text>
<polygon fill="none" stroke="black" points="2659,-467.5 2659,-515.5 2991,-515.5 2991,-467.5 2659,-467.5"/>
<text text-anchor="start" x="2793.5" y="-502.3" font-family="Times,serif" font-style="italic" font-size="14.00">Methods</text>
<text text-anchor="start" x="2662" y="-488.3" font-family="Times,serif" font-size="14.00">parse():CompletableFuture[List[T]]</text>
<text text-anchor="start" x="2662" y="-474.3" font-family="Times,serif" font-size="14.00">setFileVisitor(&lt;YamlProcessFile&gt; fileVisitor):</text>
<polygon fill="none" stroke="black" points="2658,-467 2658,-538 2992,-538 2992,-467 2658,-467"/>
</g>
<!-- KameletParseCatalog&#45;&gt;ParseCatalog -->
<g id="edge9" class="edge">
<title>KameletParseCatalog&#45;&gt;ParseCatalog</title>
<path fill="none" stroke="black" stroke-dasharray="5,2" d="M2340.19,-662.19C2358.89,-640.59 2393.9,-604.18 2432,-585 2469.08,-566.34 2556.79,-547.39 2639.96,-532.47"/>
<polygon fill="black" stroke="black" points="2649.81,-530.71 2640.75,-536.9 2644.89,-531.59 2639.97,-532.47 2639.97,-532.47 2639.97,-532.47 2644.89,-531.59 2639.18,-528.04 2649.81,-530.71 2649.81,-530.71"/>
</g>
<!-- Kamelet -->
<g id="node17" class="node">
<title>Kamelet</title>
<polygon fill="none" stroke="black" points="3498,-669.5 3498,-690.5 3571,-690.5 3571,-669.5 3498,-669.5"/>
<text text-anchor="start" x="3501" y="-677.3" font-family="Times,serif" font-weight="bold" font-size="14.00">Kamelet</text>
<polygon fill="none" stroke="black" points="3496.5,-669 3496.5,-692 3571.5,-692 3571.5,-669 3496.5,-669"/>
</g>
<!-- KameletBinding -->
<g id="node18" class="node">
<title>KameletBinding</title>
<polygon fill="none" stroke="black" points="3607,-669.5 3607,-690.5 3743,-690.5 3743,-669.5 3607,-669.5"/>
<text text-anchor="start" x="3610" y="-677.3" font-family="Times,serif" font-weight="bold" font-size="14.00">KameletBinding</text>
<polygon fill="none" stroke="black" points="3606,-669 3606,-692 3744,-692 3744,-669 3606,-669"/>
</g>
<!-- CatalogCollection -->
<g id="node20" class="node">
<title>CatalogCollection</title>
<polygon fill="none" stroke="black" points="1449,-355.5 1449,-376.5 1595,-376.5 1595,-355.5 1449,-355.5"/>
<text text-anchor="start" x="1452" y="-363.3" font-family="Times,serif" font-weight="bold" font-size="14.00">CatalogCollection</text>
<polygon fill="none" stroke="black" points="1448,-355 1448,-378 1596,-378 1596,-355 1448,-355"/>
</g>
<!-- CatalogCollection&#45;&gt;MetadataCatalog -->
<g id="edge11" class="edge">
<title>CatalogCollection&#45;&gt;MetadataCatalog</title>
<path fill="none" stroke="black" d="M1522,-348.3C1522,-325.17 1522,-282.66 1522,-245.59"/>
<polygon fill="none" stroke="black" points="1525.5,-245.3 1522,-235.3 1518.5,-245.3 1525.5,-245.3"/>
</g>
<!-- InMemoryCatalog -->
<g id="node21" class="node">
<title>InMemoryCatalog</title>
<polygon fill="none" stroke="black" points="1631,-355.5 1631,-376.5 1779,-376.5 1779,-355.5 1631,-355.5"/>
<text text-anchor="start" x="1634" y="-363.3" font-family="Times,serif" font-weight="bold" font-size="14.00">InMemoryCatalog</text>
<polygon fill="none" stroke="black" points="1630,-355 1630,-378 1780,-378 1780,-355 1630,-355"/>
</g>
<!-- InMemoryCatalog&#45;&gt;MetadataCatalog -->
<g id="edge12" class="edge">
<title>InMemoryCatalog&#45;&gt;MetadataCatalog</title>
<path fill="none" stroke="black" d="M1688.44,-348.3C1665.59,-324.58 1623.1,-280.47 1586.77,-242.75"/>
<polygon fill="none" stroke="black" points="1589.06,-240.08 1579.6,-235.3 1584.02,-244.93 1589.06,-240.08"/>
</g>
<!-- ReadOnlyCatalog -->
<g id="node22" class="node">
<title>ReadOnlyCatalog</title>
<polygon fill="none" stroke="black" points="1451,-491.5 1451,-512.5 1593,-512.5 1593,-491.5 1451,-491.5"/>
<text text-anchor="start" x="1454" y="-499.3" font-family="Times,serif" font-weight="bold" font-size="14.00">ReadOnlyCatalog</text>
<polygon fill="none" stroke="black" points="1450,-491 1450,-514 1594,-514 1594,-491 1450,-491"/>
</g>
<!-- ReadOnlyCatalog&#45;&gt;CatalogCollection -->
<g id="edge13" class="edge">
<title>ReadOnlyCatalog&#45;&gt;CatalogCollection</title>
<path fill="none" stroke="black" d="M1522,-484.26C1522,-461.64 1522,-421.7 1522,-394.92"/>
<polygon fill="none" stroke="black" points="1525.5,-394.68 1522,-384.68 1518.5,-394.68 1525.5,-394.68"/>
</g>
<!-- ClusterParseCatalog -->
<g id="node23" class="node">
<title>ClusterParseCatalog</title>
<polygon fill="none" stroke="black" points="2451,-669.5 2451,-690.5 2620,-690.5 2620,-669.5 2451,-669.5"/>
<text text-anchor="start" x="2454" y="-677.3" font-family="Times,serif" font-weight="bold" font-size="14.00">ClusterParseCatalog</text>
<polygon fill="none" stroke="black" points="2449.5,-669 2449.5,-692 2620.5,-692 2620.5,-669 2449.5,-669"/>
</g>
<!-- ClusterParseCatalog&#45;&gt;ParseCatalog -->
<g id="edge14" class="edge">
<title>ClusterParseCatalog&#45;&gt;ParseCatalog</title>
<path fill="none" stroke="black" d="M2550.35,-662.29C2569.34,-641.79 2603.42,-607.49 2638,-585 2660.38,-570.45 2685.78,-557.4 2710.5,-546.23"/>
<polygon fill="none" stroke="black" points="2712.21,-549.3 2719.93,-542.04 2709.37,-542.9 2712.21,-549.3"/>
</g>
<!-- GitParseCatalog -->
<g id="node24" class="node">
<title>GitParseCatalog</title>
<polygon fill="none" stroke="black" points="3327,-669.5 3327,-690.5 3462,-690.5 3462,-669.5 3327,-669.5"/>
<text text-anchor="start" x="3330" y="-677.3" font-family="Times,serif" font-weight="bold" font-size="14.00">GitParseCatalog</text>
<polygon fill="none" stroke="black" points="3325.5,-669 3325.5,-692 3462.5,-692 3462.5,-669 3325.5,-669"/>
</g>
<!-- GitParseCatalog&#45;&gt;ParseCatalog -->
<g id="edge15" class="edge">
<title>GitParseCatalog&#45;&gt;ParseCatalog</title>
<path fill="none" stroke="black" d="M3383.61,-662.32C3369.43,-640.51 3341.88,-603.5 3308,-585 3257.24,-557.28 3124.06,-536.01 3010.38,-522.16"/>
<polygon fill="none" stroke="black" points="3010.49,-518.65 3000.15,-520.93 3009.66,-525.6 3010.49,-518.65"/>
</g>
<!-- YamlProcessFile -->
<g id="node25" class="node">
<title>YamlProcessFile</title>
<polygon fill="none" stroke="black" points="3327,-491.5 3327,-512.5 3462,-512.5 3462,-491.5 3327,-491.5"/>
<text text-anchor="start" x="3330" y="-499.3" font-family="Times,serif" font-weight="bold" font-size="14.00">YamlProcessFile</text>
<polygon fill="none" stroke="black" points="3325.5,-491 3325.5,-514 3462.5,-514 3462.5,-491 3325.5,-491"/>
</g>
<!-- GitParseCatalog&#45;&gt;YamlProcessFile -->
<g id="edge16" class="edge">
<title>GitParseCatalog&#45;&gt;YamlProcessFile</title>
<path fill="none" stroke="black" stroke-dasharray="5,2" d="M3389.79,-662.3C3386.7,-631.6 3386.43,-567.14 3388.97,-530.49"/>
<polygon fill="black" stroke="black" points="3389.81,-520.51 3393.46,-530.85 3389.39,-525.49 3388.97,-530.47 3388.97,-530.47 3388.97,-530.47 3389.39,-525.49 3384.49,-530.1 3389.81,-520.51 3389.81,-520.51"/>
</g>
<!-- YamlProcessFile&#45;&gt;GitParseCatalog -->
<g id="edge19" class="edge">
<title>YamlProcessFile&#45;&gt;GitParseCatalog</title>
<path fill="none" stroke="black" stroke-dasharray="5,2" d="M3398.19,-520.51C3401.29,-551.07 3401.57,-615.52 3399.04,-652.28"/>
<polygon fill="black" stroke="black" points="3398.21,-662.3 3394.55,-651.97 3398.62,-657.32 3399.04,-652.34 3399.04,-652.34 3399.04,-652.34 3398.62,-657.32 3403.52,-652.71 3398.21,-662.3 3398.21,-662.3"/>
</g>
<!-- JarParseCatalog -->
<g id="node26" class="node">
<title>JarParseCatalog</title>
<polygon fill="none" stroke="black" points="2656,-669.5 2656,-690.5 2790,-690.5 2790,-669.5 2656,-669.5"/>
<text text-anchor="start" x="2659" y="-677.3" font-family="Times,serif" font-weight="bold" font-size="14.00">JarParseCatalog</text>
<polygon fill="none" stroke="black" points="2655,-669 2655,-692 2791,-692 2791,-669 2655,-669"/>
</g>
<!-- JarParseCatalog&#45;&gt;ParseCatalog -->
<g id="edge17" class="edge">
<title>JarParseCatalog&#45;&gt;ParseCatalog</title>
<path fill="none" stroke="black" d="M2732.97,-662.3C2747.75,-636.79 2776.05,-587.96 2797.39,-551.15"/>
<polygon fill="none" stroke="black" points="2800.66,-552.48 2802.65,-542.07 2794.6,-548.97 2800.66,-552.48"/>
</g>
<!-- LocalFolderParseCatalog -->
<g id="node27" class="node">
<title>LocalFolderParseCatalog</title>
<polygon fill="none" stroke="black" points="2826,-669.5 2826,-690.5 3028,-690.5 3028,-669.5 2826,-669.5"/>
<text text-anchor="start" x="2829" y="-677.3" font-family="Times,serif" font-weight="bold" font-size="14.00">LocalFolderParseCatalog</text>
<polygon fill="none" stroke="black" points="2825,-669 2825,-692 3029,-692 3029,-669 2825,-669"/>
</g>
<!-- LocalFolderParseCatalog&#45;&gt;ParseCatalog -->
<g id="edge18" class="edge">
<title>LocalFolderParseCatalog&#45;&gt;ParseCatalog</title>
<path fill="none" stroke="black" d="M2917.03,-662.3C2902.25,-636.79 2873.95,-587.96 2852.61,-551.15"/>
<polygon fill="none" stroke="black" points="2855.4,-548.97 2847.35,-542.07 2849.34,-552.48 2855.4,-548.97"/>
</g>
<!-- ViewDefinitionParseCatalog -->
<g id="node28" class="node">
<title>ViewDefinitionParseCatalog</title>
<polygon fill="none" stroke="black" points="3064,-669.5 3064,-690.5 3290,-690.5 3290,-669.5 3064,-669.5"/>
<text text-anchor="start" x="3067" y="-677.3" font-family="Times,serif" font-weight="bold" font-size="14.00">ViewDefinitionParseCatalog</text>
<polygon fill="none" stroke="black" points="3063,-669 3063,-692 3291,-692 3291,-669 3063,-669"/>
</g>
<!-- ViewDefinitionParseCatalog&#45;&gt;ParseCatalog -->
<g id="edge20" class="edge">
<title>ViewDefinitionParseCatalog&#45;&gt;ParseCatalog</title>
<path fill="none" stroke="black" stroke-dasharray="5,2" d="M3156.83,-662.25C3132.04,-641.72 3088.08,-607.4 3046,-585 3018.23,-570.22 2987.2,-556.96 2957.36,-545.65"/>
<polygon fill="black" stroke="black" points="2947.73,-542.04 2958.67,-541.33 2952.41,-543.8 2957.09,-545.55 2957.09,-545.55 2957.09,-545.55 2952.41,-543.8 2955.52,-549.76 2947.73,-542.04 2947.73,-542.04"/>
</g>
<!-- Parameter -->
<g id="node29" class="node">
<title>Parameter</title>
<polygon fill="none" stroke="black" points="3779,-749.5 3779,-770.5 3915,-770.5 3915,-749.5 3779,-749.5"/>
<text text-anchor="start" x="3805" y="-757.3" font-family="Times,serif" font-weight="bold" font-size="14.00">Parameter</text>
<polygon fill="none" stroke="black" points="3779,-589.5 3779,-749.5 3915,-749.5 3915,-589.5 3779,-589.5"/>
<text text-anchor="start" x="3809" y="-736.3" font-family="Times,serif" font-style="italic" font-size="14.00">Properties</text>
<text text-anchor="start" x="3782" y="-722.3" font-family="Times,serif" font-size="14.00">description:String</text>
<text text-anchor="start" x="3782" y="-708.3" font-family="Times,serif" font-size="14.00">title:String</text>
<text text-anchor="start" x="3782" y="-694.3" font-family="Times,serif" font-size="14.00">id:String</text>
<text text-anchor="start" x="3782" y="-680.3" font-family="Times,serif" font-size="14.00">value:Object</text>
<text text-anchor="start" x="3782" y="-666.3" font-family="Times,serif" font-size="14.00">default:Object</text>
<text text-anchor="start" x="3782" y="-652.3" font-family="Times,serif" font-size="14.00">type:String</text>
<text text-anchor="start" x="3782" y="-638.3" font-family="Times,serif" font-size="14.00">path:Boolean</text>
<text text-anchor="start" x="3782" y="-624.3" font-family="Times,serif" font-size="14.00">nullable:Boolean</text>
<text text-anchor="start" x="3782" y="-610.3" font-family="Times,serif" font-size="14.00">enum:Object[]</text>
<text text-anchor="start" x="3782" y="-596.3" font-family="Times,serif" font-size="14.00">examples:Object[]</text>
<polygon fill="none" stroke="black" points="3778,-589 3778,-772 3916,-772 3916,-589 3778,-589"/>
</g>
<!-- Step -->
<g id="node30" class="node">
<title>Step</title>
<polygon fill="none" stroke="black" points="988,-250.5 988,-271.5 1194,-271.5 1194,-250.5 988,-250.5"/>
<text text-anchor="start" x="1073" y="-258.3" font-family="Times,serif" font-weight="bold" font-size="14.00">Step</text>
<polygon fill="none" stroke="black" points="988,-76.5 988,-250.5 1194,-250.5 1194,-76.5 988,-76.5"/>
<text text-anchor="start" x="1053" y="-237.3" font-family="Times,serif" font-style="italic" font-size="14.00">Properties</text>
<text text-anchor="start" x="991" y="-223.3" font-family="Times,serif" font-size="14.00">description:String</text>
<text text-anchor="start" x="991" y="-209.3" font-family="Times,serif" font-size="14.00">title:String</text>
<text text-anchor="start" x="991" y="-195.3" font-family="Times,serif" font-size="14.00">parameters:List[Parameter]</text>
<text text-anchor="start" x="991" y="-181.3" font-family="Times,serif" font-size="14.00">icon:String</text>
<text text-anchor="start" x="991" y="-167.3" font-family="Times,serif" font-size="14.00">UUID:String</text>
<text text-anchor="start" x="991" y="-153.3" font-family="Times,serif" font-size="14.00">required:String[]</text>
<text text-anchor="start" x="991" y="-139.3" font-family="Times,serif" font-size="14.00">group:String</text>
<text text-anchor="start" x="991" y="-125.3" font-family="Times,serif" font-size="14.00">kind:String</text>
<text text-anchor="start" x="991" y="-111.3" font-family="Times,serif" font-size="14.00">branches:Branch[]</text>
<text text-anchor="start" x="991" y="-97.3" font-family="Times,serif" font-size="14.00">minBranches:Integer</text>
<text text-anchor="start" x="991" y="-83.3" font-family="Times,serif" font-size="14.00">maxBranches:Integer</text>
<polygon fill="none" stroke="black" points="987,-76 987,-273 1195,-273 1195,-76 987,-76"/>
</g>
<!-- Step&#45;&gt;Metadata -->
<g id="edge21" class="edge">
<title>Step&#45;&gt;Metadata</title>
<path fill="none" stroke="black" d="M1203.25,-122.75C1243.44,-105.51 1289.34,-86.87 1332,-72 1377.72,-56.07 1430.88,-41.57 1469.33,-31.78"/>
<polygon fill="none" stroke="black" points="1470.43,-35.11 1479.27,-29.27 1468.71,-28.33 1470.43,-35.11"/>
</g>
<!-- ViewDefinition -->
<g id="node31" class="node">
<title>ViewDefinition</title>
<polygon fill="none" stroke="black" points="1751,-201.5 1751,-222.5 2060,-222.5 2060,-201.5 1751,-201.5"/>
<text text-anchor="start" x="1847.5" y="-209.3" font-family="Times,serif" font-weight="bold" font-size="14.00">ViewDefinition</text>
<polygon fill="none" stroke="black" points="1751,-125.5 1751,-201.5 2060,-201.5 2060,-125.5 1751,-125.5"/>
<text text-anchor="start" x="1867.5" y="-188.3" font-family="Times,serif" font-style="italic" font-size="14.00">Properties</text>
<text text-anchor="start" x="1754" y="-174.3" font-family="Times,serif" font-size="14.00">properties:Map[String, String]</text>
<text text-anchor="start" x="1754" y="-160.3" font-family="Times,serif" font-size="14.00">step:Step</text>
<text text-anchor="start" x="1754" y="-146.3" font-family="Times,serif" font-size="14.00">url:String</text>
<text text-anchor="start" x="1754" y="-132.3" font-family="Times,serif" font-size="14.00">constraints:List[ViewDefinitionConstraint]</text>
<polygon fill="none" stroke="black" points="1749.5,-125 1749.5,-224 2060.5,-224 2060.5,-125 1749.5,-125"/>
</g>
<!-- ViewDefinition&#45;&gt;Metadata -->
<g id="edge22" class="edge">
<title>ViewDefinition&#45;&gt;Metadata</title>
<path fill="none" stroke="black" d="M1814.09,-120.93C1782.17,-103.83 1745.63,-85.74 1711,-72 1666.22,-54.23 1613.26,-39.93 1574.81,-30.68"/>
<polygon fill="none" stroke="black" points="1575.41,-27.22 1564.87,-28.32 1573.79,-34.03 1575.41,-27.22"/>
</g>
<!-- ViewDefinitionConstraint -->
<g id="node32" class="node">
<title>ViewDefinitionConstraint</title>
<text text-anchor="middle" x="1905" y="-362.8" font-family="Times,serif" font-size="14.00">ViewDefinitionConstraint</text>
</g>
<!-- ViewDefinitionConstraint&#45;&gt;ViewDefinition -->
<g id="edge23" class="edge">
<title>ViewDefinitionConstraint&#45;&gt;ViewDefinition</title>
<path fill="none" stroke="black" d="M1905,-348.3C1905,-324.07 1905,-278.56 1905,-240.32"/>
<polygon fill="black" stroke="black" points="1905,-240.2 1901,-234.2 1905,-228.2 1909,-234.2 1905,-240.2"/>
<text text-anchor="middle" x="1891" y="-337.1" font-family="Times,serif" font-size="14.00">0..n</text>
</g>
<!-- StepParserService -->
<g id="node33" class="node">
<title>StepParserService</title>
<polygon fill="none" stroke="black" points="844,-393.5 844,-414.5 1099,-414.5 1099,-393.5 844,-393.5"/>
<text text-anchor="start" x="899" y="-401.3" font-family="Times,serif" font-weight="bold" font-size="14.00">StepParserService</text>
<polygon fill="none" stroke="black" points="844,-317.5 844,-393.5 1099,-393.5 1099,-317.5 844,-317.5"/>
<text text-anchor="start" x="940" y="-380.3" font-family="Times,serif" font-style="italic" font-size="14.00">Methods</text>
<text text-anchor="start" x="847" y="-366.3" font-family="Times,serif" font-size="14.00">identifier():String</text>
<text text-anchor="start" x="847" y="-352.3" font-family="Times,serif" font-size="14.00">description():String</text>
<text text-anchor="start" x="847" y="-338.3" font-family="Times,serif" font-size="14.00">parse(&lt;String&gt; yaml):ParseResult</text>
<text text-anchor="start" x="847" y="-324.3" font-family="Times,serif" font-size="14.00">appliesTo(&lt;String&gt; yaml):boolean</text>
<polygon fill="none" stroke="black" points="842.5,-317 842.5,-416 1099.5,-416 1099.5,-317 842.5,-317"/>
</g>
<!-- StepParserService&#45;&gt;Step -->
<g id="edge24" class="edge">
<title>StepParserService&#45;&gt;Step</title>
<path fill="none" stroke="black" stroke-dasharray="5,2" d="M1004.27,-312.83C1009.68,-304.25 1015.47,-295.1 1021.38,-285.74"/>
<polygon fill="black" stroke="black" points="1026.83,-277.1 1025.3,-287.96 1024.16,-281.33 1021.49,-285.55 1021.49,-285.55 1021.49,-285.55 1024.16,-281.33 1017.69,-283.15 1026.83,-277.1 1026.83,-277.1"/>
</g>
<!-- ViewDefinitionParserService -->
<g id="node34" class="node">
<title>ViewDefinitionParserService</title>
<polygon fill="none" stroke="black" points="2031,-386.5 2031,-407.5 2629,-407.5 2629,-386.5 2031,-386.5"/>
<text text-anchor="start" x="2217.5" y="-394.3" font-family="Times,serif" font-weight="bold" font-size="14.00">ViewDefinitionParserService</text>
<polygon fill="none" stroke="black" points="2031,-324.5 2031,-386.5 2629,-386.5 2629,-324.5 2031,-324.5"/>
<text text-anchor="start" x="2298.5" y="-373.3" font-family="Times,serif" font-style="italic" font-size="14.00">Methods</text>
<text text-anchor="start" x="2034" y="-359.3" font-family="Times,serif" font-size="14.00">parse(&lt;List[Step]&gt; steps):List[ViewDefinition]</text>
<text text-anchor="start" x="2034" y="-345.3" font-family="Times,serif" font-size="14.00">getViewsPerStep(&lt;List[Step]&gt; steps, &lt;ViewDefinition&gt; view):List[ViewDefinition]</text>
<text text-anchor="start" x="2034" y="-331.3" font-family="Times,serif" font-size="14.00">appliesTo(&lt;List[Step]&gt; steps, &lt;ViewDefinition&gt; viewDefinition):boolean</text>
<polygon fill="none" stroke="black" points="2030,-324 2030,-409 2630,-409 2630,-324 2030,-324"/>
</g>
<!-- ViewDefinitionParserService&#45;&gt;ViewDefinition -->
<g id="edge25" class="edge">
<title>ViewDefinitionParserService&#45;&gt;ViewDefinition</title>
<path fill="none" stroke="black" stroke-dasharray="5,2" d="M2228.2,-319.99C2169.22,-293.62 2094.45,-260.19 2031.68,-232.13"/>
<polygon fill="black" stroke="black" points="2022.51,-228.04 2033.48,-228.01 2027.08,-230.08 2031.64,-232.12 2031.64,-232.12 2031.64,-232.12 2027.08,-230.08 2029.81,-236.22 2022.51,-228.04 2022.51,-228.04"/>
</g>
</g>
</svg>
