<?xml version="1.0" encoding="UTF-8" standalone="no"?>
<!DOCTYPE svg PUBLIC "-//W3C//DTD SVG 1.1//EN"
 "http://www.w3.org/Graphics/SVG/1.1/DTD/svg11.dtd">
<!-- Generated by graphviz version 2.43.0 (0)
 -->
<!-- Title: ClassDiagram Pages: 1 -->
<svg width="374pt" height="94pt"
 viewBox="0.00 0.00 373.50 94.00" xmlns="http://www.w3.org/2000/svg" xmlns:xlink="http://www.w3.org/1999/xlink">
<g id="graph0" class="graph" transform="scale(1 1) rotate(0) translate(4 90)">
<title>ClassDiagram</title>
<polygon fill="white" stroke="transparent" points="-4,4 -4,-90 369.5,-90 369.5,4 -4,4"/>
<!-- StepResource -->
<g id="node1" class="node">
<title>StepResource</title>
<polygon fill="none" stroke="black" points="9.5,-32 9.5,-53 124.5,-53 124.5,-32 9.5,-32"/>
<text text-anchor="start" x="12.5" y="-39.8" font-family="Times,serif" font-weight="bold" font-size="14.00">StepResource</text>
<polygon fill="none" stroke="black" points="8,-31.5 8,-54.5 125,-54.5 125,-31.5 8,-31.5"/>
</g>
<!-- ViewDefinitionResource -->
<g id="node2" class="node">
<title>ViewDefinitionResource</title>
<polygon fill="none" stroke="black" points="160.5,-60 160.5,-81 356.5,-81 356.5,-60 160.5,-60"/>
<text text-anchor="start" x="163.5" y="-67.8" font-family="Times,serif" font-weight="bold" font-size="14.00">ViewDefinitionResource</text>
<polygon fill="none" stroke="black" points="160.5,-39 160.5,-60 356.5,-60 356.5,-39 160.5,-39"/>
<text text-anchor="start" x="203.5" y="-46.8" font-family="Times,serif" font-style="italic" font-size="14.00">Usage example</text>
<polygon fill="none" stroke="black" points="160.5,-5 160.5,-39 356.5,-39 356.5,-5 160.5,-5"/>
<text text-anchor="start" x="227" y="-25.8" font-family="Times,serif" font-style="italic" font-size="14.00">Methods</text>
<text text-anchor="start" x="174" y="-11.8" font-family="Times,serif" font-size="14.00">views:(&lt;String&gt; yaml):</text>
<polygon fill="none" stroke="black" points="159.5,-4 159.5,-82 357.5,-82 357.5,-4 159.5,-4"/>
</g>
</g>
</svg>
