<?xml version="1.0" encoding="UTF-8" standalone="no"?>
<!DOCTYPE svg PUBLIC "-//W3C//DTD SVG 1.1//EN"
 "http://www.w3.org/Graphics/SVG/1.1/DTD/svg11.dtd">
<!-- Generated by graphviz version 2.43.0 (0)
 -->
<!-- Title: ClassDiagram Pages: 1 -->
<svg width="3137pt" height="757pt"
 viewBox="0.00 0.00 3137.00 757.00" xmlns="http://www.w3.org/2000/svg" xmlns:xlink="http://www.w3.org/1999/xlink">
<g id="graph0" class="graph" transform="scale(1 1) rotate(0) translate(4 753)">
<title>ClassDiagram</title>
<polygon fill="white" stroke="transparent" points="-4,4 -4,-753 3133,-753 3133,4 -4,4"/>
<!-- AbstractCatalog -->
<g id="node1" class="node">
<title>AbstractCatalog</title>
<polygon fill="none" stroke="black" points="1963,-373.5 1963,-394.5 2241,-394.5 2241,-373.5 1963,-373.5"/>
<text text-anchor="start" x="2038.5" y="-381.3" font-family="Times,serif" font-weight="bold" font-size="14.00">AbstractCatalog</text>
<polygon fill="none" stroke="black" points="1963,-325.5 1963,-373.5 2241,-373.5 2241,-325.5 1963,-325.5"/>
<text text-anchor="start" x="2070.5" y="-360.3" font-family="Times,serif" font-style="italic" font-size="14.00">Methods</text>
<text text-anchor="start" x="1966" y="-346.3" font-family="Times,serif" font-size="14.00">waitForWarmUp():CompletableFuture</text>
<text text-anchor="start" x="1966" y="-332.3" font-family="Times,serif" font-size="14.00">loadParsers():List[ParseCatalog]</text>
<polygon fill="none" stroke="black" points="1962,-325 1962,-396 2242,-396 2242,-325 1962,-325"/>
</g>
<!-- MetadataCatalog -->
<g id="node2" class="node">
<title>MetadataCatalog</title>
<polygon fill="none" stroke="black" points="1590,-209.5 1590,-230.5 1933,-230.5 1933,-209.5 1590,-209.5"/>
<text text-anchor="start" x="1693.5" y="-217.3" font-family="Times,serif" font-weight="bold" font-size="14.00">MetadataCatalog</text>
<polygon fill="none" stroke="black" points="1590,-133.5 1590,-209.5 1933,-209.5 1933,-133.5 1590,-133.5"/>
<text text-anchor="start" x="1730" y="-196.3" font-family="Times,serif" font-style="italic" font-size="14.00">Methods</text>
<text text-anchor="start" x="1593" y="-182.3" font-family="Times,serif" font-size="14.00">searchStepByID(&lt;String&gt; id):Metadata</text>
<text text-anchor="start" x="1593" y="-168.3" font-family="Times,serif" font-size="14.00">searchStepByName(&lt;String&gt; name):Metadata</text>
<text text-anchor="start" x="1593" y="-154.3" font-family="Times,serif" font-size="14.00">store(&lt;List[Step]&gt; steps):boolean</text>
<text text-anchor="start" x="1593" y="-140.3" font-family="Times,serif" font-size="14.00">getAll():List[Metadata]</text>
<polygon fill="none" stroke="black" points="1588.5,-133 1588.5,-232 1933.5,-232 1933.5,-133 1588.5,-133"/>
</g>
<!-- AbstractCatalog&#45;&gt;MetadataCatalog -->
<g id="edge1" class="edge">
<title>AbstractCatalog&#45;&gt;MetadataCatalog</title>
<path fill="none" stroke="black" stroke-dasharray="5,2" d="M2034.86,-320.92C2007.23,-305.34 1974.78,-287.44 1945,-272 1924.76,-261.51 1903.08,-250.7 1881.96,-240.4"/>
<polygon fill="black" stroke="black" points="1872.94,-236.02 1883.9,-236.34 1877.44,-238.2 1881.94,-240.39 1881.94,-240.39 1881.94,-240.39 1877.44,-238.2 1879.97,-244.44 1872.94,-236.02 1872.94,-236.02"/>
</g>
<!-- Metadata -->
<g id="node12" class="node">
<title>Metadata</title>
<polygon fill="none" stroke="black" points="1252,-66.5 1252,-87.5 1347,-87.5 1347,-66.5 1252,-66.5"/>
<text text-anchor="start" x="1261.5" y="-74.3" font-family="Times,serif" font-weight="bold" font-size="14.00">Metadata</text>
<polygon fill="none" stroke="black" points="1252,-4.5 1252,-66.5 1347,-66.5 1347,-4.5 1252,-4.5"/>
<text text-anchor="start" x="1261.5" y="-53.3" font-family="Times,serif" font-style="italic" font-size="14.00">Properties</text>
<text text-anchor="start" x="1255" y="-39.3" font-family="Times,serif" font-size="14.00">ID:String</text>
<text text-anchor="start" x="1255" y="-25.3" font-family="Times,serif" font-size="14.00">name:String</text>
<text text-anchor="start" x="1255" y="-11.3" font-family="Times,serif" font-size="14.00">type:String</text>
<polygon fill="none" stroke="black" points="1250.5,-4 1250.5,-89 1347.5,-89 1347.5,-4 1250.5,-4"/>
</g>
<!-- MetadataCatalog&#45;&gt;Metadata -->
<g id="edge10" class="edge">
<title>MetadataCatalog&#45;&gt;Metadata</title>
<path fill="none" stroke="black" stroke-dasharray="5,2" d="M1580.39,-129.12C1504.83,-107.2 1421.7,-83.09 1365.53,-66.8"/>
<polygon fill="black" stroke="black" points="1355.71,-63.95 1366.57,-62.41 1360.52,-65.34 1365.32,-66.74 1365.32,-66.74 1365.32,-66.74 1360.52,-65.34 1364.06,-71.06 1355.71,-63.95 1355.71,-63.95"/>
</g>
<!-- StepCatalog -->
<g id="node3" class="node">
<title>StepCatalog</title>
<polygon fill="none" stroke="black" points="1962,-541.5 1962,-562.5 2064,-562.5 2064,-541.5 1962,-541.5"/>
<text text-anchor="start" x="1965" y="-549.3" font-family="Times,serif" font-weight="bold" font-size="14.00">StepCatalog</text>
<polygon fill="none" stroke="black" points="1961,-541 1961,-564 2065,-564 2065,-541 1961,-541"/>
</g>
<!-- StepCatalog&#45;&gt;AbstractCatalog -->
<g id="edge2" class="edge">
<title>StepCatalog&#45;&gt;AbstractCatalog</title>
<path fill="none" stroke="black" d="M2021.06,-534.3C2034.16,-506.34 2060.53,-450.03 2079.62,-409.27"/>
<polygon fill="none" stroke="black" points="2082.87,-410.6 2083.94,-400.05 2076.53,-407.63 2082.87,-410.6"/>
</g>
<!-- ViewDefinitionCatalog -->
<g id="node4" class="node">
<title>ViewDefinitionCatalog</title>
<polygon fill="none" stroke="black" points="2100,-541.5 2100,-562.5 2282,-562.5 2282,-541.5 2100,-541.5"/>
<text text-anchor="start" x="2103" y="-549.3" font-family="Times,serif" font-weight="bold" font-size="14.00">ViewDefinitionCatalog</text>
<polygon fill="none" stroke="black" points="2099,-541 2099,-564 2283,-564 2283,-541 2099,-541"/>
</g>
<!-- ViewDefinitionCatalog&#45;&gt;AbstractCatalog -->
<g id="edge3" class="edge">
<title>ViewDefinitionCatalog&#45;&gt;AbstractCatalog</title>
<path fill="none" stroke="black" d="M2182.94,-534.3C2169.84,-506.34 2143.47,-450.03 2124.38,-409.27"/>
<polygon fill="none" stroke="black" points="2127.47,-407.63 2120.06,-400.05 2121.13,-410.6 2127.47,-407.63"/>
</g>
<!-- StepResource -->
<g id="node5" class="node">
<title>StepResource</title>
<polygon fill="none" stroke="black" points="1861,-722.5 1861,-743.5 2165,-743.5 2165,-722.5 1861,-722.5"/>
<text text-anchor="start" x="1958.5" y="-730.3" font-family="Times,serif" font-weight="bold" font-size="14.00">StepResource</text>
<polygon fill="none" stroke="black" points="1861,-660.5 1861,-722.5 2165,-722.5 2165,-660.5 1861,-660.5"/>
<text text-anchor="start" x="1981.5" y="-709.3" font-family="Times,serif" font-style="italic" font-size="14.00">Methods</text>
<text text-anchor="start" x="1864" y="-695.3" font-family="Times,serif" font-size="14.00">stepById(&lt;String&gt; id):Step</text>
<text text-anchor="start" x="1864" y="-681.3" font-family="Times,serif" font-size="14.00">stepsByName(&lt;String&gt; name):List[Step]</text>
<text text-anchor="start" x="1864" y="-667.3" font-family="Times,serif" font-size="14.00">allSteps():List[Step]</text>
<polygon fill="none" stroke="black" points="1860,-660 1860,-745 2166,-745 2166,-660 1860,-660"/>
</g>
<!-- StepResource&#45;&gt;StepCatalog -->
<g id="edge4" class="edge">
<title>StepResource&#45;&gt;StepCatalog</title>
<path fill="none" stroke="black" stroke-dasharray="5,2" d="M2013,-655.89C2013,-631.3 2013,-601.78 2013,-580.76"/>
<polygon fill="black" stroke="black" points="2013,-570.62 2017.5,-580.62 2013,-575.62 2013,-580.62 2013,-580.62 2013,-580.62 2013,-575.62 2008.5,-580.62 2013,-570.62 2013,-570.62"/>
</g>
<!-- ViewDefinitionResource -->
<g id="node6" class="node">
<title>ViewDefinitionResource</title>
<polygon fill="none" stroke="black" points="571,-366.5 571,-387.5 767,-387.5 767,-366.5 571,-366.5"/>
<text text-anchor="start" x="574" y="-374.3" font-family="Times,serif" font-weight="bold" font-size="14.00">ViewDefinitionResource</text>
<polygon fill="none" stroke="black" points="571,-332.5 571,-366.5 767,-366.5 767,-332.5 571,-332.5"/>
<text text-anchor="start" x="637.5" y="-353.3" font-family="Times,serif" font-style="italic" font-size="14.00">Methods</text>
<text text-anchor="start" x="584.5" y="-339.3" font-family="Times,serif" font-size="14.00">views:(&lt;String&gt; yaml):</text>
<polygon fill="none" stroke="black" points="570,-332 570,-389 768,-389 768,-332 570,-332"/>
</g>
<!-- ViewDefinitionService -->
<g id="node7" class="node">
<title>ViewDefinitionService</title>
<polygon fill="none" stroke="black" points="513,-558.5 513,-579.5 825,-579.5 825,-558.5 513,-558.5"/>
<text text-anchor="start" x="582.5" y="-566.3" font-family="Times,serif" font-weight="bold" font-size="14.00">ViewDefinitionService</text>
<polygon fill="none" stroke="black" points="513,-524.5 513,-558.5 825,-558.5 825,-524.5 513,-524.5"/>
<text text-anchor="start" x="637.5" y="-545.3" font-family="Times,serif" font-style="italic" font-size="14.00">Methods</text>
<text text-anchor="start" x="516" y="-531.3" font-family="Times,serif" font-size="14.00">views(&lt;String&gt; yaml):List[ViewDefinition]</text>
<polygon fill="none" stroke="black" points="512,-524 512,-581 826,-581 826,-524 512,-524"/>
</g>
<!-- ViewDefinitionService&#45;&gt;ViewDefinitionResource -->
<g id="edge5" class="edge">
<title>ViewDefinitionService&#45;&gt;ViewDefinitionResource</title>
<path fill="none" stroke="black" d="M669,-519.7C669,-488.37 669,-440.25 669,-405.31"/>
<polygon fill="black" stroke="black" points="669,-405.09 665,-399.09 669,-393.09 673,-399.09 669,-405.09"/>
<text text-anchor="middle" x="655" y="-508.5" font-family="Times,serif" font-size="14.00">0..1</text>
</g>
<!-- StepParserService -->
<g id="node8" class="node">
<title>StepParserService</title>
<polygon fill="none" stroke="black" points="1066,-373.5 1066,-394.5 1319,-394.5 1319,-373.5 1066,-373.5"/>
<text text-anchor="start" x="1120" y="-381.3" font-family="Times,serif" font-weight="bold" font-size="14.00">StepParserService</text>
<polygon fill="none" stroke="black" points="1066,-325.5 1066,-373.5 1319,-373.5 1319,-325.5 1066,-325.5"/>
<text text-anchor="start" x="1161" y="-360.3" font-family="Times,serif" font-style="italic" font-size="14.00">Methods</text>
<text text-anchor="start" x="1069" y="-346.3" font-family="Times,serif" font-size="14.00">parse(&lt;String&gt; yaml):List[Step]</text>
<text text-anchor="start" x="1069" y="-332.3" font-family="Times,serif" font-size="14.00">appliesTo(&lt;String&gt; yaml):boolean</text>
<polygon fill="none" stroke="black" points="1064.5,-325 1064.5,-396 1319.5,-396 1319.5,-325 1064.5,-325"/>
</g>
<!-- ViewDefinitionService&#45;&gt;StepParserService -->
<g id="edge8" class="edge">
<title>ViewDefinitionService&#45;&gt;StepParserService</title>
<path fill="none" stroke="black" stroke-dasharray="5,2" d="M823.09,-519.99C892.97,-503.12 975.72,-479.46 1047,-449 1074.69,-437.17 1103.44,-420.79 1127.96,-405.41"/>
<polygon fill="black" stroke="black" points="1136.45,-400.02 1130.42,-409.18 1132.23,-402.7 1128,-405.38 1128,-405.38 1128,-405.38 1132.23,-402.7 1125.59,-401.58 1136.45,-400.02 1136.45,-400.02"/>
</g>
<!-- ViewParserService -->
<g id="node10" class="node">
<title>ViewParserService</title>
<polygon fill="none" stroke="black" points="9,-373.5 9,-394.5 535,-394.5 535,-373.5 9,-373.5"/>
<text text-anchor="start" x="199" y="-381.3" font-family="Times,serif" font-weight="bold" font-size="14.00">ViewParserService</text>
<polygon fill="none" stroke="black" points="9,-325.5 9,-373.5 535,-373.5 535,-325.5 9,-325.5"/>
<text text-anchor="start" x="240.5" y="-360.3" font-family="Times,serif" font-style="italic" font-size="14.00">Methods</text>
<text text-anchor="start" x="12" y="-346.3" font-family="Times,serif" font-size="14.00">parse(&lt;List[Step]&gt; steps):List[ViewDefinition]</text>
<text text-anchor="start" x="12" y="-332.3" font-family="Times,serif" font-size="14.00">appliesTo(&lt;List[Step]&gt; steps, &lt;ViewDefinition&gt; viewDefinition):boolean</text>
<polygon fill="none" stroke="black" points="8,-325 8,-396 536,-396 536,-325 8,-325"/>
</g>
<!-- ViewDefinitionService&#45;&gt;ViewParserService -->
<g id="edge9" class="edge">
<title>ViewDefinitionService&#45;&gt;ViewParserService</title>
<path fill="none" stroke="black" stroke-dasharray="5,2" d="M603,-519.91C537.03,-488.34 435.12,-439.57 361.81,-404.48"/>
<polygon fill="black" stroke="black" points="352.57,-400.06 363.53,-400.32 357.08,-402.22 361.59,-404.38 361.59,-404.38 361.59,-404.38 357.08,-402.22 359.65,-408.44 352.57,-400.06 352.57,-400.06"/>
</g>
<!-- Step -->
<g id="node9" class="node">
<title>Step</title>
<polygon fill="none" stroke="black" points="1243,-188.5 1243,-209.5 1356,-209.5 1356,-188.5 1243,-188.5"/>
<text text-anchor="start" x="1281.5" y="-196.3" font-family="Times,serif" font-weight="bold" font-size="14.00">Step</text>
<polygon fill="none" stroke="black" points="1243,-154.5 1243,-188.5 1356,-188.5 1356,-154.5 1243,-154.5"/>
<text text-anchor="start" x="1261.5" y="-175.3" font-family="Times,serif" font-style="italic" font-size="14.00">Properties</text>
<text text-anchor="start" x="1246" y="-161.3" font-family="Times,serif" font-size="14.00">subtype:String</text>
<polygon fill="none" stroke="black" points="1241.5,-154 1241.5,-211 1356.5,-211 1356.5,-154 1241.5,-154"/>
</g>
<!-- StepParserService&#45;&gt;Step -->
<g id="edge6" class="edge">
<title>StepParserService&#45;&gt;Step</title>
<path fill="none" stroke="black" stroke-dasharray="5,2" d="M1215.48,-320.88C1232.93,-292.17 1256.68,-253.11 1274.39,-223.97"/>
<polygon fill="black" stroke="black" points="1279.68,-215.27 1278.33,-226.16 1277.09,-219.55 1274.49,-223.82 1274.49,-223.82 1274.49,-223.82 1277.09,-219.55 1270.64,-221.48 1279.68,-215.27 1279.68,-215.27"/>
</g>
<!-- Step&#45;&gt;Metadata -->
<g id="edge18" class="edge">
<title>Step&#45;&gt;Metadata</title>
<path fill="none" stroke="black" d="M1299,-149.74C1299,-135.9 1299,-119.26 1299,-103.46"/>
<polygon fill="none" stroke="black" points="1302.5,-103.23 1299,-93.23 1295.5,-103.23 1302.5,-103.23"/>
</g>
<!-- ViewDefinition -->
<g id="node11" class="node">
<title>ViewDefinition</title>
<polygon fill="none" stroke="black" points="762,-202.5 762,-223.5 1071,-223.5 1071,-202.5 762,-202.5"/>
<text text-anchor="start" x="858.5" y="-210.3" font-family="Times,serif" font-weight="bold" font-size="14.00">ViewDefinition</text>
<polygon fill="none" stroke="black" points="762,-140.5 762,-202.5 1071,-202.5 1071,-140.5 762,-140.5"/>
<text text-anchor="start" x="878.5" y="-189.3" font-family="Times,serif" font-style="italic" font-size="14.00">Properties</text>
<text text-anchor="start" x="765" y="-175.3" font-family="Times,serif" font-size="14.00">steps:List[Step]</text>
<text text-anchor="start" x="765" y="-161.3" font-family="Times,serif" font-size="14.00">properties:Map[String, String]</text>
<text text-anchor="start" x="765" y="-147.3" font-family="Times,serif" font-size="14.00">constraints:List[ViewDefinitionConstraint]</text>
<polygon fill="none" stroke="black" points="760.5,-140 760.5,-225 1071.5,-225 1071.5,-140 760.5,-140"/>
</g>
<!-- ViewParserService&#45;&gt;ViewDefinition -->
<g id="edge7" class="edge">
<title>ViewParserService&#45;&gt;ViewDefinition</title>
<path fill="none" stroke="black" stroke-dasharray="5,2" d="M390.12,-320.91C440.15,-305.04 499.21,-286.92 553,-272 614.43,-254.96 682.2,-237.97 742.38,-223.49"/>
<polygon fill="black" stroke="black" points="752.35,-221.09 743.68,-227.8 747.49,-222.26 742.63,-223.43 742.63,-223.43 742.63,-223.43 747.49,-222.26 741.58,-219.05 752.35,-221.09 752.35,-221.09"/>
</g>
<!-- ViewDefinition&#45;&gt;Metadata -->
<g id="edge21" class="edge">
<title>ViewDefinition&#45;&gt;Metadata</title>
<path fill="none" stroke="black" d="M1046.2,-135.95C1108.95,-113.99 1181.51,-88.6 1232.76,-70.68"/>
<polygon fill="none" stroke="black" points="1234.11,-73.91 1242.39,-67.3 1231.8,-67.3 1234.11,-73.91"/>
</g>
<!-- ParseCatalog -->
<g id="node13" class="node">
<title>ParseCatalog</title>
<polygon fill="none" stroke="black" points="2591,-366.5 2591,-387.5 2848,-387.5 2848,-366.5 2591,-366.5"/>
<text text-anchor="start" x="2667" y="-374.3" font-family="Times,serif" font-weight="bold" font-size="14.00">ParseCatalog</text>
<polygon fill="none" stroke="black" points="2591,-332.5 2591,-366.5 2848,-366.5 2848,-332.5 2591,-332.5"/>
<text text-anchor="start" x="2688" y="-353.3" font-family="Times,serif" font-style="italic" font-size="14.00">Methods</text>
<text text-anchor="start" x="2594" y="-339.3" font-family="Times,serif" font-size="14.00">parse():CompletableFuture[List[T]]</text>
<polygon fill="none" stroke="black" points="2589.5,-332 2589.5,-389 2848.5,-389 2848.5,-332 2589.5,-332"/>
</g>
<!-- CatalogCollection -->
<g id="node14" class="node">
<title>CatalogCollection</title>
<polygon fill="none" stroke="black" points="1597,-349.5 1597,-370.5 1743,-370.5 1743,-349.5 1597,-349.5"/>
<text text-anchor="start" x="1600" y="-357.3" font-family="Times,serif" font-weight="bold" font-size="14.00">CatalogCollection</text>
<polygon fill="none" stroke="black" points="1596,-349 1596,-372 1744,-372 1744,-349 1596,-349"/>
</g>
<!-- CatalogCollection&#45;&gt;MetadataCatalog -->
<g id="edge11" class="edge">
<title>CatalogCollection&#45;&gt;MetadataCatalog</title>
<path fill="none" stroke="black" d="M1678.89,-342.3C1690.47,-319.91 1711.33,-279.57 1729.12,-245.15"/>
<polygon fill="none" stroke="black" points="1732.33,-246.57 1733.81,-236.08 1726.11,-243.36 1732.33,-246.57"/>
</g>
<!-- InMemoryCatalog -->
<g id="node15" class="node">
<title>InMemoryCatalog</title>
<polygon fill="none" stroke="black" points="1779,-349.5 1779,-370.5 1927,-370.5 1927,-349.5 1779,-349.5"/>
<text text-anchor="start" x="1782" y="-357.3" font-family="Times,serif" font-weight="bold" font-size="14.00">InMemoryCatalog</text>
<polygon fill="none" stroke="black" points="1778,-349 1778,-372 1928,-372 1928,-349 1778,-349"/>
</g>
<!-- InMemoryCatalog&#45;&gt;MetadataCatalog -->
<g id="edge12" class="edge">
<title>InMemoryCatalog&#45;&gt;MetadataCatalog</title>
<path fill="none" stroke="black" d="M1844.01,-342.3C1832.31,-319.91 1811.22,-279.57 1793.23,-245.15"/>
<polygon fill="none" stroke="black" points="1796.22,-243.32 1788.49,-236.08 1790.02,-246.56 1796.22,-243.32"/>
</g>
<!-- ReadOnlyCatalog -->
<g id="node16" class="node">
<title>ReadOnlyCatalog</title>
<polygon fill="none" stroke="black" points="1599,-541.5 1599,-562.5 1741,-562.5 1741,-541.5 1599,-541.5"/>
<text text-anchor="start" x="1602" y="-549.3" font-family="Times,serif" font-weight="bold" font-size="14.00">ReadOnlyCatalog</text>
<polygon fill="none" stroke="black" points="1598,-541 1598,-564 1742,-564 1742,-541 1598,-541"/>
</g>
<!-- ReadOnlyCatalog&#45;&gt;CatalogCollection -->
<g id="edge13" class="edge">
<title>ReadOnlyCatalog&#45;&gt;CatalogCollection</title>
<path fill="none" stroke="black" d="M1670,-534.3C1670,-501.17 1670,-428.25 1670,-388.55"/>
<polygon fill="none" stroke="black" points="1673.5,-388.52 1670,-378.52 1666.5,-388.52 1673.5,-388.52"/>
</g>
<!-- GithubParseCatalog -->
<g id="node17" class="node">
<title>GithubParseCatalog</title>
<polygon fill="none" stroke="black" points="2318,-558.5 2318,-579.5 3120,-579.5 3120,-558.5 2318,-558.5"/>
<text text-anchor="start" x="2639" y="-566.3" font-family="Times,serif" font-weight="bold" font-size="14.00">GithubParseCatalog</text>
<polygon fill="none" stroke="black" points="2318,-524.5 2318,-558.5 3120,-558.5 3120,-524.5 2318,-524.5"/>
<text text-anchor="start" x="2687.5" y="-545.3" font-family="Times,serif" font-style="italic" font-size="14.00">Methods</text>
<text text-anchor="start" x="2321" y="-531.3" font-family="Times,serif" font-size="14.00">getFileVisitor(&lt;List[Metadata]&gt; metadataList, &lt;List[CompletableFuture[]]&gt; futureMetadata):YamlProcessFile</text>
<polygon fill="none" stroke="black" points="2317,-524 2317,-581 3121,-581 3121,-524 2317,-524"/>
</g>
<!-- GithubParseCatalog&#45;&gt;ParseCatalog -->
<g id="edge14" class="edge">
<title>GithubParseCatalog&#45;&gt;ParseCatalog</title>
<path fill="none" stroke="black" d="M2719,-519.7C2719,-487.82 2719,-438.56 2719,-403.48"/>
<polygon fill="none" stroke="black" points="2722.5,-403.09 2719,-393.09 2715.5,-403.09 2722.5,-403.09"/>
</g>
<!-- YamlProcessFile -->
<g id="node18" class="node">
<title>YamlProcessFile</title>
<polygon fill="none" stroke="black" points="2460,-691.5 2460,-712.5 2595,-712.5 2595,-691.5 2460,-691.5"/>
<text text-anchor="start" x="2463" y="-699.3" font-family="Times,serif" font-weight="bold" font-size="14.00">YamlProcessFile</text>
<polygon fill="none" stroke="black" points="2458.5,-691 2458.5,-714 2595.5,-714 2595.5,-691 2458.5,-691"/>
</g>
<!-- YamlProcessFile&#45;&gt;GithubParseCatalog -->
<g id="edge15" class="edge">
<title>YamlProcessFile&#45;&gt;GithubParseCatalog</title>
<path fill="none" stroke="black" stroke-dasharray="5,2" d="M2549.4,-684.23C2578.77,-661.6 2631.1,-621.25 2669.89,-591.35"/>
<polygon fill="black" stroke="black" points="2677.95,-585.14 2672.78,-594.81 2673.99,-588.19 2670.03,-591.25 2670.03,-591.25 2670.03,-591.25 2673.99,-588.19 2667.29,-587.68 2677.95,-585.14 2677.95,-585.14"/>
</g>
<!-- KameletParseCatalog -->
<g id="node19" class="node">
<title>KameletParseCatalog</title>
<polygon fill="none" stroke="black" points="2631,-691.5 2631,-712.5 2808,-712.5 2808,-691.5 2631,-691.5"/>
<text text-anchor="start" x="2634" y="-699.3" font-family="Times,serif" font-weight="bold" font-size="14.00">KameletParseCatalog</text>
<polygon fill="none" stroke="black" points="2629.5,-691 2629.5,-714 2808.5,-714 2808.5,-691 2629.5,-691"/>
</g>
<!-- KameletParseCatalog&#45;&gt;GithubParseCatalog -->
<g id="edge16" class="edge">
<title>KameletParseCatalog&#45;&gt;GithubParseCatalog</title>
<path fill="none" stroke="black" d="M2719,-684.23C2719,-662.54 2719,-624.6 2719,-595.16"/>
<polygon fill="none" stroke="black" points="2722.5,-595.14 2719,-585.14 2715.5,-595.14 2722.5,-595.14"/>
</g>
<!-- ViewDefinitionParseCatalog -->
<g id="node20" class="node">
<title>ViewDefinitionParseCatalog</title>
<polygon fill="none" stroke="black" points="2844,-691.5 2844,-712.5 3070,-712.5 3070,-691.5 2844,-691.5"/>
<text text-anchor="start" x="2847" y="-699.3" font-family="Times,serif" font-weight="bold" font-size="14.00">ViewDefinitionParseCatalog</text>
<polygon fill="none" stroke="black" points="2843,-691 2843,-714 3071,-714 3071,-691 2843,-691"/>
</g>
<!-- ViewDefinitionParseCatalog&#45;&gt;GithubParseCatalog -->
<g id="edge17" class="edge">
<title>ViewDefinitionParseCatalog&#45;&gt;GithubParseCatalog</title>
<path fill="none" stroke="black" d="M2929.23,-684.23C2892.52,-661.41 2826.87,-620.58 2778.67,-590.6"/>
<polygon fill="none" stroke="black" points="2780.22,-587.45 2769.88,-585.14 2776.53,-593.39 2780.22,-587.45"/>
</g>
<!-- Parameter -->
<g id="node21" class="node">
<title>Parameter</title>
<polygon fill="none" stroke="black" points="1390,-593.5 1390,-614.5 1526,-614.5 1526,-593.5 1390,-593.5"/>
<text text-anchor="start" x="1416" y="-601.3" font-family="Times,serif" font-weight="bold" font-size="14.00">Parameter</text>
<polygon fill="none" stroke="black" points="1390,-489.5 1390,-593.5 1526,-593.5 1526,-489.5 1390,-489.5"/>
<text text-anchor="start" x="1420" y="-580.3" font-family="Times,serif" font-style="italic" font-size="14.00">Properties</text>
<text text-anchor="start" x="1393" y="-566.3" font-family="Times,serif" font-size="14.00">description:String</text>
<text text-anchor="start" x="1393" y="-552.3" font-family="Times,serif" font-size="14.00">label:String</text>
<text text-anchor="start" x="1393" y="-538.3" font-family="Times,serif" font-size="14.00">id:String</text>
<text text-anchor="start" x="1393" y="-524.3" font-family="Times,serif" font-size="14.00">value:String</text>
<text text-anchor="start" x="1393" y="-510.3" font-family="Times,serif" font-size="14.00">default:String</text>
<text text-anchor="start" x="1393" y="-496.3" font-family="Times,serif" font-size="14.00">type:String</text>
<polygon fill="none" stroke="black" points="1389,-489 1389,-616 1527,-616 1527,-489 1389,-489"/>
</g>
<!-- KameletStep -->
<g id="node22" class="node">
<title>KameletStep</title>
<polygon fill="none" stroke="black" points="1355,-422.5 1355,-443.5 1561,-443.5 1561,-422.5 1355,-422.5"/>
<text text-anchor="start" x="1407" y="-430.3" font-family="Times,serif" font-weight="bold" font-size="14.00">KameletStep</text>
<polygon fill="none" stroke="black" points="1355,-276.5 1355,-422.5 1561,-422.5 1561,-276.5 1355,-276.5"/>
<text text-anchor="start" x="1420" y="-409.3" font-family="Times,serif" font-style="italic" font-size="14.00">Properties</text>
<text text-anchor="start" x="1358" y="-395.3" font-family="Times,serif" font-size="14.00">group:String</text>
<text text-anchor="start" x="1358" y="-381.3" font-family="Times,serif" font-size="14.00">title:String</text>
<text text-anchor="start" x="1358" y="-367.3" font-family="Times,serif" font-size="14.00">description:String</text>
<text text-anchor="start" x="1358" y="-353.3" font-family="Times,serif" font-size="14.00">kameletType:String</text>
<text text-anchor="start" x="1358" y="-339.3" font-family="Times,serif" font-size="14.00">apiVersion:String</text>
<text text-anchor="start" x="1358" y="-325.3" font-family="Times,serif" font-size="14.00">kind:String</text>
<text text-anchor="start" x="1358" y="-311.3" font-family="Times,serif" font-size="14.00">spec:String</text>
<text text-anchor="start" x="1358" y="-297.3" font-family="Times,serif" font-size="14.00">parameters:List[Parameter]</text>
<text text-anchor="start" x="1358" y="-283.3" font-family="Times,serif" font-size="14.00">icon:String</text>
<polygon fill="none" stroke="black" points="1354,-276 1354,-445 1562,-445 1562,-276 1354,-276"/>
</g>
<!-- Parameter&#45;&gt;KameletStep -->
<g id="edge20" class="edge">
<title>Parameter&#45;&gt;KameletStep</title>
<path fill="none" stroke="black" d="M1458,-484.78C1458,-477.11 1458,-469.17 1458,-461.19"/>
<polygon fill="black" stroke="black" points="1458,-461.07 1454,-455.07 1458,-449.07 1462,-455.07 1458,-461.07"/>
<text text-anchor="middle" x="1444" y="-473.58" font-family="Times,serif" font-size="14.00">0..n</text>
</g>
<!-- KameletStep&#45;&gt;Step -->
<g id="edge19" class="edge">
<title>KameletStep&#45;&gt;Step</title>
<path fill="none" stroke="black" d="M1378.73,-271.76C1363.24,-254.61 1347.74,-237.45 1334.58,-222.89"/>
<polygon fill="none" stroke="black" points="1336.83,-220.15 1327.52,-215.07 1331.63,-224.84 1336.83,-220.15"/>
</g>
<!-- ViewDefinitionConstraint -->
<g id="node23" class="node">
<title>ViewDefinitionConstraint</title>
<polygon fill="none" stroke="black" points="803,-380.5 803,-401.5 1029,-401.5 1029,-380.5 803,-380.5"/>
<text text-anchor="start" x="815.5" y="-388.3" font-family="Times,serif" font-weight="bold" font-size="14.00">ViewDefinitionConstraint</text>
<polygon fill="none" stroke="black" points="803,-318.5 803,-380.5 1029,-380.5 1029,-318.5 803,-318.5"/>
<text text-anchor="start" x="878" y="-367.3" font-family="Times,serif" font-style="italic" font-size="14.00">Properties</text>
<text text-anchor="start" x="806" y="-353.3" font-family="Times,serif" font-size="14.00">mandatory:boolean</text>
<text text-anchor="start" x="806" y="-339.3" font-family="Times,serif" font-size="14.00">operation:ConstraintOperation</text>
<text text-anchor="start" x="806" y="-325.3" font-family="Times,serif" font-size="14.00">parameter:String</text>
<polygon fill="none" stroke="black" points="802,-318 802,-403 1030,-403 1030,-318 802,-318"/>
</g>
<!-- ViewDefinitionConstraint&#45;&gt;ViewDefinition -->
<g id="edge22" class="edge">
<title>ViewDefinitionConstraint&#45;&gt;ViewDefinition</title>
<path fill="none" stroke="black" d="M916,-313.72C916,-291.62 916,-264.86 916,-241.36"/>
<polygon fill="black" stroke="black" points="916,-241.05 912,-235.05 916,-229.05 920,-235.05 916,-241.05"/>
<text text-anchor="middle" x="902" y="-302.52" font-family="Times,serif" font-size="14.00">0..n</text>
</g>
</g>
</svg>
