<?xml version="1.0" encoding="UTF-8" standalone="no"?>
<!DOCTYPE svg PUBLIC "-//W3C//DTD SVG 1.1//EN"
 "http://www.w3.org/Graphics/SVG/1.1/DTD/svg11.dtd">
<!-- Generated by graphviz version 2.43.0 (0)
 -->
<!-- Title: ClassDiagram Pages: 1 -->
<svg width="3698pt" height="813pt"
 viewBox="0.00 0.00 3698.00 813.00" xmlns="http://www.w3.org/2000/svg" xmlns:xlink="http://www.w3.org/1999/xlink">
<g id="graph0" class="graph" transform="scale(1 1) rotate(0) translate(4 809)">
<title>ClassDiagram</title>
<polygon fill="white" stroke="transparent" points="-4,4 -4,-809 3694,-809 3694,4 -4,4"/>
<!-- DeploymentResource -->
<g id="node1" class="node">
<title>DeploymentResource</title>
<polygon fill="none" stroke="black" points="205,-551.5 205,-572.5 743,-572.5 743,-551.5 205,-551.5"/>
<text text-anchor="start" x="389.5" y="-559.3" font-family="Times,serif" font-weight="bold" font-size="14.00">DeploymentResource</text>
<polygon fill="none" stroke="black" points="205,-475.5 205,-551.5 743,-551.5 743,-475.5 205,-475.5"/>
<text text-anchor="start" x="442.5" y="-538.3" font-family="Times,serif" font-style="italic" font-size="14.00">Methods</text>
<text text-anchor="start" x="208" y="-524.3" font-family="Times,serif" font-size="14.00">yaml(&lt;DeploymentResourceYamlRequest&gt; steps, &lt;String&gt; type):String[]</text>
<text text-anchor="start" x="208" y="-510.3" font-family="Times,serif" font-size="14.00">start(&lt;DeploymentResourceYamlRequest&gt; steps):String</text>
<text text-anchor="start" x="208" y="-496.3" font-family="Times,serif" font-size="14.00">integrations():String</text>
<text text-anchor="start" x="208" y="-482.3" font-family="Times,serif" font-size="14.00">stop():String</text>
<polygon fill="none" stroke="black" points="204,-475 204,-574 744,-574 744,-475 204,-475"/>
</g>
<!-- DeploymentService -->
<g id="node2" class="node">
<title>DeploymentService</title>
<polygon fill="none" stroke="black" points="294,-715.5 294,-736.5 654,-736.5 654,-715.5 294,-715.5"/>
<text text-anchor="start" x="398" y="-723.3" font-family="Times,serif" font-weight="bold" font-size="14.00">DeploymentService</text>
<polygon fill="none" stroke="black" points="294,-681.5 294,-715.5 654,-715.5 654,-681.5 294,-681.5"/>
<text text-anchor="start" x="442.5" y="-702.3" font-family="Times,serif" font-style="italic" font-size="14.00">Methods</text>
<text text-anchor="start" x="297" y="-688.3" font-family="Times,serif" font-size="14.00">yaml(&lt;List[Step]&gt; steps, &lt;String&gt; name):String</text>
<polygon fill="none" stroke="black" points="293,-681 293,-738 655,-738 655,-681 293,-681"/>
</g>
<!-- DeploymentService&#45;&gt;DeploymentResource -->
<g id="edge1" class="edge">
<title>DeploymentService&#45;&gt;DeploymentResource</title>
<path fill="none" stroke="black" d="M474,-676.62C474,-652.88 474,-619.65 474,-590.39"/>
<polygon fill="black" stroke="black" points="474,-590.13 470,-584.13 474,-578.13 478,-584.13 474,-590.13"/>
<text text-anchor="middle" x="460" y="-665.42" font-family="Times,serif" font-size="14.00">0..1</text>
</g>
<!-- StepResource -->
<g id="node3" class="node">
<title>StepResource</title>
<polygon fill="none" stroke="black" points="1951,-743.5 1951,-764.5 2320,-764.5 2320,-743.5 1951,-743.5"/>
<text text-anchor="start" x="2081" y="-751.3" font-family="Times,serif" font-weight="bold" font-size="14.00">StepResource</text>
<polygon fill="none" stroke="black" points="1951,-653.5 1951,-743.5 2320,-743.5 2320,-653.5 1951,-653.5"/>
<text text-anchor="start" x="2104" y="-730.3" font-family="Times,serif" font-style="italic" font-size="14.00">Methods</text>
<text text-anchor="start" x="1954" y="-716.3" font-family="Times,serif" font-size="14.00">stepById(&lt;String&gt; id):Step</text>
<text text-anchor="start" x="1954" y="-702.3" font-family="Times,serif" font-size="14.00">stepsByName(&lt;String&gt; name):List[Step]</text>
<text text-anchor="start" x="1954" y="-688.3" font-family="Times,serif" font-size="14.00">stepsByKind(&lt;String&gt; type):List[Step]</text>
<text text-anchor="start" x="1954" y="-674.3" font-family="Times,serif" font-size="14.00">stepsByIntegrationType(&lt;String&gt; type):List[Step]</text>
<text text-anchor="start" x="1954" y="-660.3" font-family="Times,serif" font-size="14.00">allSteps():List[Step]</text>
<polygon fill="none" stroke="black" points="1949.5,-653 1949.5,-766 2320.5,-766 2320.5,-653 1949.5,-653"/>
</g>
<!-- StepCatalog -->
<g id="node4" class="node">
<title>StepCatalog</title>
<polygon fill="none" stroke="black" points="2084,-513.5 2084,-534.5 2186,-534.5 2186,-513.5 2084,-513.5"/>
<text text-anchor="start" x="2087" y="-521.3" font-family="Times,serif" font-weight="bold" font-size="14.00">StepCatalog</text>
<polygon fill="none" stroke="black" points="2083,-513 2083,-536 2187,-536 2187,-513 2083,-513"/>
</g>
<!-- StepResource&#45;&gt;StepCatalog -->
<g id="edge2" class="edge">
<title>StepResource&#45;&gt;StepCatalog</title>
<path fill="none" stroke="black" stroke-dasharray="5,2" d="M2135,-648.83C2135,-616.49 2135,-578.08 2135,-552.82"/>
<polygon fill="black" stroke="black" points="2135,-542.53 2139.5,-552.53 2135,-547.53 2135,-552.53 2135,-552.53 2135,-552.53 2135,-547.53 2130.5,-552.53 2135,-542.53 2135,-542.53"/>
</g>
<!-- AbstractCatalog -->
<g id="node9" class="node">
<title>AbstractCatalog</title>
<polygon fill="none" stroke="black" points="2149,-394.5 2149,-415.5 2427,-415.5 2427,-394.5 2149,-394.5"/>
<text text-anchor="start" x="2224.5" y="-402.3" font-family="Times,serif" font-weight="bold" font-size="14.00">AbstractCatalog</text>
<polygon fill="none" stroke="black" points="2149,-346.5 2149,-394.5 2427,-394.5 2427,-346.5 2149,-346.5"/>
<text text-anchor="start" x="2256.5" y="-381.3" font-family="Times,serif" font-style="italic" font-size="14.00">Methods</text>
<text text-anchor="start" x="2152" y="-367.3" font-family="Times,serif" font-size="14.00">waitForWarmUp():CompletableFuture</text>
<text text-anchor="start" x="2152" y="-353.3" font-family="Times,serif" font-size="14.00">loadParsers():List[ParseCatalog]</text>
<polygon fill="none" stroke="black" points="2148,-346 2148,-417 2428,-417 2428,-346 2148,-346"/>
</g>
<!-- StepCatalog&#45;&gt;AbstractCatalog -->
<g id="edge7" class="edge">
<title>StepCatalog&#45;&gt;AbstractCatalog</title>
<path fill="none" stroke="black" d="M2153.46,-506.49C2174.39,-487.2 2209.41,-454.93 2238.47,-428.15"/>
<polygon fill="none" stroke="black" points="2241.12,-430.46 2246.1,-421.11 2236.38,-425.31 2241.12,-430.46"/>
</g>
<!-- ViewDefinitionResource -->
<g id="node5" class="node">
<title>ViewDefinitionResource</title>
<polygon fill="none" stroke="black" points="837,-387.5 837,-408.5 1033,-408.5 1033,-387.5 837,-387.5"/>
<text text-anchor="start" x="840" y="-395.3" font-family="Times,serif" font-weight="bold" font-size="14.00">ViewDefinitionResource</text>
<polygon fill="none" stroke="black" points="837,-353.5 837,-387.5 1033,-387.5 1033,-353.5 837,-353.5"/>
<text text-anchor="start" x="903.5" y="-374.3" font-family="Times,serif" font-style="italic" font-size="14.00">Methods</text>
<text text-anchor="start" x="850.5" y="-360.3" font-family="Times,serif" font-size="14.00">views:(&lt;String&gt; yaml):</text>
<polygon fill="none" stroke="black" points="836,-353 836,-410 1034,-410 1034,-353 836,-353"/>
</g>
<!-- ViewDefinitionService -->
<g id="node6" class="node">
<title>ViewDefinitionService</title>
<polygon fill="none" stroke="black" points="779,-530.5 779,-551.5 1091,-551.5 1091,-530.5 779,-530.5"/>
<text text-anchor="start" x="848.5" y="-538.3" font-family="Times,serif" font-weight="bold" font-size="14.00">ViewDefinitionService</text>
<polygon fill="none" stroke="black" points="779,-496.5 779,-530.5 1091,-530.5 1091,-496.5 779,-496.5"/>
<text text-anchor="start" x="903.5" y="-517.3" font-family="Times,serif" font-style="italic" font-size="14.00">Methods</text>
<text text-anchor="start" x="782" y="-503.3" font-family="Times,serif" font-size="14.00">views(&lt;String&gt; yaml):List[ViewDefinition]</text>
<polygon fill="none" stroke="black" points="778,-496 778,-553 1092,-553 1092,-496 778,-496"/>
</g>
<!-- ViewDefinitionService&#45;&gt;ViewDefinitionResource -->
<g id="edge3" class="edge">
<title>ViewDefinitionService&#45;&gt;ViewDefinitionResource</title>
<path fill="none" stroke="black" d="M935,-491.86C935,-472.45 935,-447.32 935,-426.04"/>
<polygon fill="black" stroke="black" points="935,-426.04 931,-420.04 935,-414.04 939,-420.04 935,-426.04"/>
<text text-anchor="middle" x="921" y="-480.66" font-family="Times,serif" font-size="14.00">0..1</text>
</g>
<!-- StepParserService -->
<g id="node7" class="node">
<title>StepParserService</title>
<polygon fill="none" stroke="black" points="548,-394.5 548,-415.5 801,-415.5 801,-394.5 548,-394.5"/>
<text text-anchor="start" x="602" y="-402.3" font-family="Times,serif" font-weight="bold" font-size="14.00">StepParserService</text>
<polygon fill="none" stroke="black" points="548,-346.5 548,-394.5 801,-394.5 801,-346.5 548,-346.5"/>
<text text-anchor="start" x="643" y="-381.3" font-family="Times,serif" font-style="italic" font-size="14.00">Methods</text>
<text text-anchor="start" x="551" y="-367.3" font-family="Times,serif" font-size="14.00">parse(&lt;String&gt; yaml):List[Step]</text>
<text text-anchor="start" x="551" y="-353.3" font-family="Times,serif" font-size="14.00">appliesTo(&lt;String&gt; yaml):boolean</text>
<polygon fill="none" stroke="black" points="546.5,-346 546.5,-417 801.5,-417 801.5,-346 546.5,-346"/>
</g>
<!-- ViewDefinitionService&#45;&gt;StepParserService -->
<g id="edge4" class="edge">
<title>ViewDefinitionService&#45;&gt;StepParserService</title>
<path fill="none" stroke="black" stroke-dasharray="5,2" d="M876.43,-491.86C840.38,-472.38 793.68,-447.15 754.22,-425.84"/>
<polygon fill="black" stroke="black" points="745.4,-421.07 756.33,-421.87 749.8,-423.45 754.2,-425.82 754.2,-425.82 754.2,-425.82 749.8,-423.45 752.06,-429.78 745.4,-421.07 745.4,-421.07"/>
</g>
<!-- ViewDefinitionParserService -->
<g id="node8" class="node">
<title>ViewDefinitionParserService</title>
<polygon fill="none" stroke="black" points="1331,-401.5 1331,-422.5 1929,-422.5 1929,-401.5 1331,-401.5"/>
<text text-anchor="start" x="1517.5" y="-409.3" font-family="Times,serif" font-weight="bold" font-size="14.00">ViewDefinitionParserService</text>
<polygon fill="none" stroke="black" points="1331,-339.5 1331,-401.5 1929,-401.5 1929,-339.5 1331,-339.5"/>
<text text-anchor="start" x="1598.5" y="-388.3" font-family="Times,serif" font-style="italic" font-size="14.00">Methods</text>
<text text-anchor="start" x="1334" y="-374.3" font-family="Times,serif" font-size="14.00">parse(&lt;List[Step]&gt; steps):List[ViewDefinition]</text>
<text text-anchor="start" x="1334" y="-360.3" font-family="Times,serif" font-size="14.00">getViewsPerStep(&lt;List[Step]&gt; steps, &lt;ViewDefinition&gt; view):List[ViewDefinition]</text>
<text text-anchor="start" x="1334" y="-346.3" font-family="Times,serif" font-size="14.00">appliesTo(&lt;List[Step]&gt; steps, &lt;ViewDefinition&gt; viewDefinition):boolean</text>
<polygon fill="none" stroke="black" points="1330,-339 1330,-424 1930,-424 1930,-339 1330,-339"/>
</g>
<!-- ViewDefinitionService&#45;&gt;ViewDefinitionParserService -->
<g id="edge5" class="edge">
<title>ViewDefinitionService&#45;&gt;ViewDefinitionParserService</title>
<path fill="none" stroke="black" stroke-dasharray="5,2" d="M1090.54,-491.94C1180.28,-473.74 1294.92,-450.48 1395.42,-430.09"/>
<polygon fill="black" stroke="black" points="1405.41,-428.06 1396.5,-434.46 1400.51,-429.06 1395.61,-430.05 1395.61,-430.05 1395.61,-430.05 1400.51,-429.06 1394.71,-425.64 1405.41,-428.06 1405.41,-428.06"/>
</g>
<!-- Step -->
<g id="node25" class="node">
<title>Step</title>
<polygon fill="none" stroke="black" points="571,-265.5 571,-286.5 777,-286.5 777,-265.5 571,-265.5"/>
<text text-anchor="start" x="656" y="-273.3" font-family="Times,serif" font-weight="bold" font-size="14.00">Step</text>
<polygon fill="none" stroke="black" points="571,-133.5 571,-265.5 777,-265.5 777,-133.5 571,-133.5"/>
<text text-anchor="start" x="636" y="-252.3" font-family="Times,serif" font-style="italic" font-size="14.00">Properties</text>
<text text-anchor="start" x="574" y="-238.3" font-family="Times,serif" font-size="14.00">description:String</text>
<text text-anchor="start" x="574" y="-224.3" font-family="Times,serif" font-size="14.00">title:String</text>
<text text-anchor="start" x="574" y="-210.3" font-family="Times,serif" font-size="14.00">parameters:List[Parameter]</text>
<text text-anchor="start" x="574" y="-196.3" font-family="Times,serif" font-size="14.00">icon:String</text>
<text text-anchor="start" x="574" y="-182.3" font-family="Times,serif" font-size="14.00">UUID:String</text>
<text text-anchor="start" x="574" y="-168.3" font-family="Times,serif" font-size="14.00">required:String[]</text>
<text text-anchor="start" x="574" y="-154.3" font-family="Times,serif" font-size="14.00">group:String</text>
<text text-anchor="start" x="574" y="-140.3" font-family="Times,serif" font-size="14.00">kind:String</text>
<polygon fill="none" stroke="black" points="570,-133 570,-288 778,-288 778,-133 570,-133"/>
</g>
<!-- StepParserService&#45;&gt;Step -->
<g id="edge23" class="edge">
<title>StepParserService&#45;&gt;Step</title>
<path fill="none" stroke="black" stroke-dasharray="5,2" d="M674,-341.73C674,-329.81 674,-316.15 674,-302.27"/>
<polygon fill="black" stroke="black" points="674,-292.14 678.5,-302.14 674,-297.14 674,-302.14 674,-302.14 674,-302.14 674,-297.14 669.5,-302.14 674,-292.14 674,-292.14"/>
</g>
<!-- ViewDefinition -->
<g id="node26" class="node">
<title>ViewDefinition</title>
<polygon fill="none" stroke="black" points="1252,-237.5 1252,-258.5 1561,-258.5 1561,-237.5 1252,-237.5"/>
<text text-anchor="start" x="1348.5" y="-245.3" font-family="Times,serif" font-weight="bold" font-size="14.00">ViewDefinition</text>
<polygon fill="none" stroke="black" points="1252,-161.5 1252,-237.5 1561,-237.5 1561,-161.5 1252,-161.5"/>
<text text-anchor="start" x="1368.5" y="-224.3" font-family="Times,serif" font-style="italic" font-size="14.00">Properties</text>
<text text-anchor="start" x="1255" y="-210.3" font-family="Times,serif" font-size="14.00">properties:Map[String, String]</text>
<text text-anchor="start" x="1255" y="-196.3" font-family="Times,serif" font-size="14.00">step:Step</text>
<text text-anchor="start" x="1255" y="-182.3" font-family="Times,serif" font-size="14.00">url:String</text>
<text text-anchor="start" x="1255" y="-168.3" font-family="Times,serif" font-size="14.00">constraints:List[ViewDefinitionConstraint]</text>
<polygon fill="none" stroke="black" points="1250.5,-161 1250.5,-260 1561.5,-260 1561.5,-161 1250.5,-161"/>
</g>
<!-- ViewDefinitionParserService&#45;&gt;ViewDefinition -->
<g id="edge24" class="edge">
<title>ViewDefinitionParserService&#45;&gt;ViewDefinition</title>
<path fill="none" stroke="black" stroke-dasharray="5,2" d="M1569.68,-334.99C1543.38,-315.15 1512.21,-291.63 1484.16,-270.47"/>
<polygon fill="black" stroke="black" points="1475.96,-264.28 1486.65,-266.71 1479.95,-267.29 1483.94,-270.3 1483.94,-270.3 1483.94,-270.3 1479.95,-267.29 1481.23,-273.89 1475.96,-264.28 1475.96,-264.28"/>
</g>
<!-- MetadataCatalog -->
<g id="node10" class="node">
<title>MetadataCatalog</title>
<polygon fill="none" stroke="black" points="1992,-237.5 1992,-258.5 2335,-258.5 2335,-237.5 1992,-237.5"/>
<text text-anchor="start" x="2095.5" y="-245.3" font-family="Times,serif" font-weight="bold" font-size="14.00">MetadataCatalog</text>
<polygon fill="none" stroke="black" points="1992,-161.5 1992,-237.5 2335,-237.5 2335,-161.5 1992,-161.5"/>
<text text-anchor="start" x="2132" y="-224.3" font-family="Times,serif" font-style="italic" font-size="14.00">Methods</text>
<text text-anchor="start" x="1995" y="-210.3" font-family="Times,serif" font-size="14.00">searchStepByID(&lt;String&gt; id):Metadata</text>
<text text-anchor="start" x="1995" y="-196.3" font-family="Times,serif" font-size="14.00">searchStepByName(&lt;String&gt; name):Metadata</text>
<text text-anchor="start" x="1995" y="-182.3" font-family="Times,serif" font-size="14.00">store(&lt;List[Step]&gt; steps):boolean</text>
<text text-anchor="start" x="1995" y="-168.3" font-family="Times,serif" font-size="14.00">getAll():List[Metadata]</text>
<polygon fill="none" stroke="black" points="1990.5,-161 1990.5,-260 2335.5,-260 2335.5,-161 1990.5,-161"/>
</g>
<!-- AbstractCatalog&#45;&gt;MetadataCatalog -->
<g id="edge6" class="edge">
<title>AbstractCatalog&#45;&gt;MetadataCatalog</title>
<path fill="none" stroke="black" stroke-dasharray="5,2" d="M2259.32,-341.73C2244.11,-321.16 2225.06,-295.41 2207.93,-272.25"/>
<polygon fill="black" stroke="black" points="2201.96,-264.18 2211.53,-269.54 2204.94,-268.2 2207.91,-272.22 2207.91,-272.22 2207.91,-272.22 2204.94,-268.2 2204.29,-274.9 2201.96,-264.18 2201.96,-264.18"/>
</g>
<!-- Metadata -->
<g id="node16" class="node">
<title>Metadata</title>
<polygon fill="none" stroke="black" points="1359,-66.5 1359,-87.5 1454,-87.5 1454,-66.5 1359,-66.5"/>
<text text-anchor="start" x="1368.5" y="-74.3" font-family="Times,serif" font-weight="bold" font-size="14.00">Metadata</text>
<polygon fill="none" stroke="black" points="1359,-4.5 1359,-66.5 1454,-66.5 1454,-4.5 1359,-4.5"/>
<text text-anchor="start" x="1368.5" y="-53.3" font-family="Times,serif" font-style="italic" font-size="14.00">Properties</text>
<text text-anchor="start" x="1362" y="-39.3" font-family="Times,serif" font-size="14.00">ID:String</text>
<text text-anchor="start" x="1362" y="-25.3" font-family="Times,serif" font-size="14.00">name:String</text>
<text text-anchor="start" x="1362" y="-11.3" font-family="Times,serif" font-size="14.00">type:String</text>
<polygon fill="none" stroke="black" points="1357.5,-4 1357.5,-89 1454.5,-89 1454.5,-4 1357.5,-4"/>
</g>
<!-- MetadataCatalog&#45;&gt;Metadata -->
<g id="edge10" class="edge">
<title>MetadataCatalog&#45;&gt;Metadata</title>
<path fill="none" stroke="black" stroke-dasharray="5,2" d="M1982.16,-170.8C1818.29,-135.73 1585.7,-85.96 1472.73,-61.78"/>
<polygon fill="black" stroke="black" points="1462.83,-59.66 1473.55,-57.35 1467.72,-60.71 1472.61,-61.76 1472.61,-61.76 1472.61,-61.76 1467.72,-60.71 1471.67,-66.16 1462.83,-59.66 1462.83,-59.66"/>
</g>
<!-- ViewDefinitionCatalog -->
<g id="node11" class="node">
<title>ViewDefinitionCatalog</title>
<polygon fill="none" stroke="black" points="2222,-513.5 2222,-534.5 2404,-534.5 2404,-513.5 2222,-513.5"/>
<text text-anchor="start" x="2225" y="-521.3" font-family="Times,serif" font-weight="bold" font-size="14.00">ViewDefinitionCatalog</text>
<polygon fill="none" stroke="black" points="2221,-513 2221,-536 2405,-536 2405,-513 2221,-513"/>
</g>
<!-- ViewDefinitionCatalog&#45;&gt;AbstractCatalog -->
<g id="edge8" class="edge">
<title>ViewDefinitionCatalog&#45;&gt;AbstractCatalog</title>
<path fill="none" stroke="black" d="M2309.98,-506.49C2306.69,-487.93 2301.28,-457.38 2296.64,-431.25"/>
<polygon fill="none" stroke="black" points="2300.04,-430.35 2294.85,-421.11 2293.15,-431.57 2300.04,-430.35"/>
</g>
<!-- KameletParseCatalog -->
<g id="node12" class="node">
<title>KameletParseCatalog</title>
<polygon fill="none" stroke="black" points="2447,-698.5 2447,-719.5 2624,-719.5 2624,-698.5 2447,-698.5"/>
<text text-anchor="start" x="2450" y="-706.3" font-family="Times,serif" font-weight="bold" font-size="14.00">KameletParseCatalog</text>
<polygon fill="none" stroke="black" points="2445.5,-698 2445.5,-721 2624.5,-721 2624.5,-698 2445.5,-698"/>
</g>
<!-- ParseCatalog -->
<g id="node13" class="node">
<title>ParseCatalog</title>
<polygon fill="none" stroke="black" points="2643,-537.5 2643,-558.5 2975,-558.5 2975,-537.5 2643,-537.5"/>
<text text-anchor="start" x="2756.5" y="-545.3" font-family="Times,serif" font-weight="bold" font-size="14.00">ParseCatalog</text>
<polygon fill="none" stroke="black" points="2643,-489.5 2643,-537.5 2975,-537.5 2975,-489.5 2643,-489.5"/>
<text text-anchor="start" x="2777.5" y="-524.3" font-family="Times,serif" font-style="italic" font-size="14.00">Methods</text>
<text text-anchor="start" x="2646" y="-510.3" font-family="Times,serif" font-size="14.00">parse():CompletableFuture[List[T]]</text>
<text text-anchor="start" x="2646" y="-496.3" font-family="Times,serif" font-size="14.00">setFileVisitor(&lt;YamlProcessFile&gt; fileVisitor):</text>
<polygon fill="none" stroke="black" points="2642,-489 2642,-560 2976,-560 2976,-489 2642,-489"/>
</g>
<!-- KameletParseCatalog&#45;&gt;ParseCatalog -->
<g id="edge9" class="edge">
<title>KameletParseCatalog&#45;&gt;ParseCatalog</title>
<path fill="none" stroke="black" stroke-dasharray="5,2" d="M2551.74,-691.43C2571.96,-671.38 2607.56,-637.84 2642,-614 2665.65,-597.63 2692.69,-582.09 2718.02,-568.74"/>
<polygon fill="black" stroke="black" points="2726.9,-564.11 2720.11,-572.72 2722.47,-566.42 2718.03,-568.73 2718.03,-568.73 2718.03,-568.73 2722.47,-566.42 2715.95,-564.74 2726.9,-564.11 2726.9,-564.11"/>
</g>
<!-- Kamelet -->
<g id="node14" class="node">
<title>Kamelet</title>
<polygon fill="none" stroke="black" points="3264,-698.5 3264,-719.5 3337,-719.5 3337,-698.5 3264,-698.5"/>
<text text-anchor="start" x="3267" y="-706.3" font-family="Times,serif" font-weight="bold" font-size="14.00">Kamelet</text>
<polygon fill="none" stroke="black" points="3262.5,-698 3262.5,-721 3337.5,-721 3337.5,-698 3262.5,-698"/>
</g>
<!-- KameletBinding -->
<g id="node15" class="node">
<title>KameletBinding</title>
<polygon fill="none" stroke="black" points="3373,-698.5 3373,-719.5 3509,-719.5 3509,-698.5 3373,-698.5"/>
<text text-anchor="start" x="3376" y="-706.3" font-family="Times,serif" font-weight="bold" font-size="14.00">KameletBinding</text>
<polygon fill="none" stroke="black" points="3372,-698 3372,-721 3510,-721 3510,-698 3372,-698"/>
</g>
<!-- CatalogCollection -->
<g id="node17" class="node">
<title>CatalogCollection</title>
<polygon fill="none" stroke="black" points="2463,-370.5 2463,-391.5 2609,-391.5 2609,-370.5 2463,-370.5"/>
<text text-anchor="start" x="2466" y="-378.3" font-family="Times,serif" font-weight="bold" font-size="14.00">CatalogCollection</text>
<polygon fill="none" stroke="black" points="2462,-370 2462,-393 2610,-393 2610,-370 2462,-370"/>
</g>
<!-- CatalogCollection&#45;&gt;MetadataCatalog -->
<g id="edge11" class="edge">
<title>CatalogCollection&#45;&gt;MetadataCatalog</title>
<path fill="none" stroke="black" d="M2508.64,-363.45C2490.83,-352.67 2466.93,-338.8 2445,-328 2401.85,-306.76 2353.84,-285.93 2309.84,-267.89"/>
<polygon fill="none" stroke="black" points="2311.1,-264.62 2300.51,-264.09 2308.45,-271.1 2311.1,-264.62"/>
</g>
<!-- InMemoryCatalog -->
<g id="node18" class="node">
<title>InMemoryCatalog</title>
<polygon fill="none" stroke="black" points="1965,-370.5 1965,-391.5 2113,-391.5 2113,-370.5 1965,-370.5"/>
<text text-anchor="start" x="1968" y="-378.3" font-family="Times,serif" font-weight="bold" font-size="14.00">InMemoryCatalog</text>
<polygon fill="none" stroke="black" points="1964,-370 1964,-393 2114,-393 2114,-370 1964,-370"/>
</g>
<!-- InMemoryCatalog&#45;&gt;MetadataCatalog -->
<g id="edge12" class="edge">
<title>InMemoryCatalog&#45;&gt;MetadataCatalog</title>
<path fill="none" stroke="black" d="M2051.57,-363.37C2067.18,-342.09 2094.65,-304.65 2118.41,-272.27"/>
<polygon fill="none" stroke="black" points="2121.27,-274.29 2124.36,-264.16 2115.62,-270.15 2121.27,-274.29"/>
</g>
<!-- ReadOnlyCatalog -->
<g id="node19" class="node">
<title>ReadOnlyCatalog</title>
<polygon fill="none" stroke="black" points="2465,-513.5 2465,-534.5 2607,-534.5 2607,-513.5 2465,-513.5"/>
<text text-anchor="start" x="2468" y="-521.3" font-family="Times,serif" font-weight="bold" font-size="14.00">ReadOnlyCatalog</text>
<polygon fill="none" stroke="black" points="2464,-513 2464,-536 2608,-536 2608,-513 2464,-513"/>
</g>
<!-- ReadOnlyCatalog&#45;&gt;CatalogCollection -->
<g id="edge13" class="edge">
<title>ReadOnlyCatalog&#45;&gt;CatalogCollection</title>
<path fill="none" stroke="black" d="M2536,-506.49C2536,-482.46 2536,-438.31 2536,-409.7"/>
<polygon fill="none" stroke="black" points="2539.5,-409.57 2536,-399.57 2532.5,-409.57 2539.5,-409.57"/>
</g>
<!-- GitParseCatalog -->
<g id="node20" class="node">
<title>GitParseCatalog</title>
<polygon fill="none" stroke="black" points="3093,-698.5 3093,-719.5 3228,-719.5 3228,-698.5 3093,-698.5"/>
<text text-anchor="start" x="3096" y="-706.3" font-family="Times,serif" font-weight="bold" font-size="14.00">GitParseCatalog</text>
<polygon fill="none" stroke="black" points="3091.5,-698 3091.5,-721 3228.5,-721 3228.5,-698 3091.5,-698"/>
</g>
<!-- GitParseCatalog&#45;&gt;ParseCatalog -->
<g id="edge14" class="edge">
<title>GitParseCatalog&#45;&gt;ParseCatalog</title>
<path fill="none" stroke="black" d="M3148.62,-691.38C3133.8,-670.33 3105.97,-634.83 3074,-614 3044.87,-595.02 3011.28,-579.74 2978.01,-567.56"/>
<polygon fill="none" stroke="black" points="2978.76,-564.11 2968.17,-564.04 2976.41,-570.7 2978.76,-564.11"/>
</g>
<!-- YamlProcessFile -->
<g id="node21" class="node">
<title>YamlProcessFile</title>
<polygon fill="none" stroke="black" points="3093,-513.5 3093,-534.5 3228,-534.5 3228,-513.5 3093,-513.5"/>
<text text-anchor="start" x="3096" y="-521.3" font-family="Times,serif" font-weight="bold" font-size="14.00">YamlProcessFile</text>
<polygon fill="none" stroke="black" points="3091.5,-513 3091.5,-536 3228.5,-536 3228.5,-513 3091.5,-513"/>
</g>
<!-- GitParseCatalog&#45;&gt;YamlProcessFile -->
<g id="edge15" class="edge">
<title>GitParseCatalog&#45;&gt;YamlProcessFile</title>
<path fill="none" stroke="black" stroke-dasharray="5,2" d="M3155.85,-691.28C3152.69,-659.46 3152.41,-591.19 3155.02,-552.93"/>
<polygon fill="black" stroke="black" points="3155.87,-542.54 3159.54,-552.87 3155.46,-547.52 3155.05,-552.5 3155.05,-552.5 3155.05,-552.5 3155.46,-547.52 3150.57,-552.13 3155.87,-542.54 3155.87,-542.54"/>
</g>
<!-- YamlProcessFile&#45;&gt;GitParseCatalog -->
<g id="edge17" class="edge">
<title>YamlProcessFile&#45;&gt;GitParseCatalog</title>
<path fill="none" stroke="black" stroke-dasharray="5,2" d="M3164.13,-542.54C3167.3,-574.23 3167.59,-642.48 3165,-680.86"/>
<polygon fill="black" stroke="black" points="3164.15,-691.28 3160.48,-680.95 3164.55,-686.3 3164.96,-681.32 3164.96,-681.32 3164.96,-681.32 3164.55,-686.3 3169.45,-681.68 3164.15,-691.28 3164.15,-691.28"/>
</g>
<!-- JarParseCatalog -->
<g id="node22" class="node">
<title>JarParseCatalog</title>
<polygon fill="none" stroke="black" points="2660,-698.5 2660,-719.5 2794,-719.5 2794,-698.5 2660,-698.5"/>
<text text-anchor="start" x="2663" y="-706.3" font-family="Times,serif" font-weight="bold" font-size="14.00">JarParseCatalog</text>
<polygon fill="none" stroke="black" points="2659,-698 2659,-721 2795,-721 2795,-698 2659,-698"/>
</g>
<!-- JarParseCatalog&#45;&gt;ParseCatalog -->
<g id="edge16" class="edge">
<title>JarParseCatalog&#45;&gt;ParseCatalog</title>
<path fill="none" stroke="black" d="M2734.71,-691.28C2746.66,-664.63 2770.06,-612.4 2787.42,-573.65"/>
<polygon fill="none" stroke="black" points="2790.8,-574.68 2791.7,-564.12 2784.41,-571.81 2790.8,-574.68"/>
</g>
<!-- ViewDefinitionParseCatalog -->
<g id="node23" class="node">
<title>ViewDefinitionParseCatalog</title>
<polygon fill="none" stroke="black" points="2830,-698.5 2830,-719.5 3056,-719.5 3056,-698.5 2830,-698.5"/>
<text text-anchor="start" x="2833" y="-706.3" font-family="Times,serif" font-weight="bold" font-size="14.00">ViewDefinitionParseCatalog</text>
<polygon fill="none" stroke="black" points="2829,-698 2829,-721 3057,-721 3057,-698 2829,-698"/>
</g>
<!-- ViewDefinitionParseCatalog&#45;&gt;ParseCatalog -->
<g id="edge18" class="edge">
<title>ViewDefinitionParseCatalog&#45;&gt;ParseCatalog</title>
<path fill="none" stroke="black" stroke-dasharray="5,2" d="M2930.39,-691.28C2910.71,-664.4 2871.98,-611.51 2843.54,-572.67"/>
<polygon fill="black" stroke="black" points="2837.28,-564.12 2846.82,-569.53 2840.23,-568.15 2843.19,-572.19 2843.19,-572.19 2843.19,-572.19 2840.23,-568.15 2839.56,-574.85 2837.28,-564.12 2837.28,-564.12"/>
</g>
<!-- Parameter -->
<g id="node24" class="node">
<title>Parameter</title>
<polygon fill="none" stroke="black" points="3545,-778.5 3545,-799.5 3681,-799.5 3681,-778.5 3545,-778.5"/>
<text text-anchor="start" x="3571" y="-786.3" font-family="Times,serif" font-weight="bold" font-size="14.00">Parameter</text>
<polygon fill="none" stroke="black" points="3545,-618.5 3545,-778.5 3681,-778.5 3681,-618.5 3545,-618.5"/>
<text text-anchor="start" x="3575" y="-765.3" font-family="Times,serif" font-style="italic" font-size="14.00">Properties</text>
<text text-anchor="start" x="3548" y="-751.3" font-family="Times,serif" font-size="14.00">description:String</text>
<text text-anchor="start" x="3548" y="-737.3" font-family="Times,serif" font-size="14.00">title:String</text>
<text text-anchor="start" x="3548" y="-723.3" font-family="Times,serif" font-size="14.00">id:String</text>
<text text-anchor="start" x="3548" y="-709.3" font-family="Times,serif" font-size="14.00">value:Object</text>
<text text-anchor="start" x="3548" y="-695.3" font-family="Times,serif" font-size="14.00">default:Object</text>
<text text-anchor="start" x="3548" y="-681.3" font-family="Times,serif" font-size="14.00">type:String</text>
<text text-anchor="start" x="3548" y="-667.3" font-family="Times,serif" font-size="14.00">path:Boolean</text>
<text text-anchor="start" x="3548" y="-653.3" font-family="Times,serif" font-size="14.00">nullable:Boolean</text>
<text text-anchor="start" x="3548" y="-639.3" font-family="Times,serif" font-size="14.00">enum:Object[]</text>
<text text-anchor="start" x="3548" y="-625.3" font-family="Times,serif" font-size="14.00">examples:Object[]</text>
<polygon fill="none" stroke="black" points="3544,-618 3544,-801 3682,-801 3682,-618 3544,-618"/>
</g>
<!-- Step&#45;&gt;Metadata -->
<g id="edge19" class="edge">
<title>Step&#45;&gt;Metadata</title>
<path fill="none" stroke="black" d="M786.37,-184.63C940.89,-150.43 1214.07,-89.98 1339.57,-62.2"/>
<polygon fill="none" stroke="black" points="1340.43,-65.6 1349.43,-60.02 1338.91,-58.76 1340.43,-65.6"/>
</g>
<!-- ViewDefinition&#45;&gt;Metadata -->
<g id="edge20" class="edge">
<title>ViewDefinition&#45;&gt;Metadata</title>
<path fill="none" stroke="black" d="M1406,-156.9C1406,-139.68 1406,-120.5 1406,-103.06"/>
<polygon fill="none" stroke="black" points="1409.5,-103.03 1406,-93.03 1402.5,-103.03 1409.5,-103.03"/>
</g>
<!-- ViewDefinitionConstraint -->
<g id="node27" class="node">
<title>ViewDefinitionConstraint</title>
<polygon fill="none" stroke="black" points="1069,-401.5 1069,-422.5 1295,-422.5 1295,-401.5 1069,-401.5"/>
<text text-anchor="start" x="1081.5" y="-409.3" font-family="Times,serif" font-weight="bold" font-size="14.00">ViewDefinitionConstraint</text>
<polygon fill="none" stroke="black" points="1069,-339.5 1069,-401.5 1295,-401.5 1295,-339.5 1069,-339.5"/>
<text text-anchor="start" x="1144" y="-388.3" font-family="Times,serif" font-style="italic" font-size="14.00">Properties</text>
<text text-anchor="start" x="1072" y="-374.3" font-family="Times,serif" font-size="14.00">mandatory:boolean</text>
<text text-anchor="start" x="1072" y="-360.3" font-family="Times,serif" font-size="14.00">operation:ConstraintOperation</text>
<text text-anchor="start" x="1072" y="-346.3" font-family="Times,serif" font-size="14.00">parameter:String</text>
<polygon fill="none" stroke="black" points="1068,-339 1068,-424 1296,-424 1296,-339 1068,-339"/>
</g>
<!-- ViewDefinitionConstraint&#45;&gt;ViewDefinition -->
<g id="edge21" class="edge">
<title>ViewDefinitionConstraint&#45;&gt;ViewDefinition</title>
<path fill="none" stroke="black" d="M1242.32,-334.99C1268.17,-315.49 1298.72,-292.44 1326.39,-271.56"/>
<polygon fill="black" stroke="black" points="1326.47,-271.51 1328.85,-264.7 1336.04,-264.28 1333.66,-271.09 1326.47,-271.51"/>
<text text-anchor="middle" x="1228.32" y="-323.79" font-family="Times,serif" font-size="14.00">0..n</text>
</g>
<!-- DeploymentGeneratorService -->
<g id="node28" class="node">
<title>DeploymentGeneratorService</title>
<polygon fill="none" stroke="black" points="9,-408.5 9,-429.5 511,-429.5 511,-408.5 9,-408.5"/>
<text text-anchor="start" x="144" y="-416.3" font-family="Times,serif" font-weight="bold" font-size="14.00">DeploymentGeneratorService</text>
<polygon fill="none" stroke="black" points="9,-332.5 9,-408.5 511,-408.5 511,-332.5 9,-332.5"/>
<text text-anchor="start" x="228.5" y="-395.3" font-family="Times,serif" font-style="italic" font-size="14.00">Methods</text>
<text text-anchor="start" x="12" y="-381.3" font-family="Times,serif" font-size="14.00">identifier():String</text>
<text text-anchor="start" x="12" y="-367.3" font-family="Times,serif" font-size="14.00">parse(&lt;String&gt; name, &lt;List[Step]&gt; steps, &lt;Map&gt; metadata):String</text>
<text text-anchor="start" x="12" y="-353.3" font-family="Times,serif" font-size="14.00">appliesTo(&lt;List[Step]&gt; steps):boolean</text>
<text text-anchor="start" x="12" y="-339.3" font-family="Times,serif" font-size="14.00">getKinds():String[]</text>
<polygon fill="none" stroke="black" points="8,-332 8,-431 512,-431 512,-332 8,-332"/>
</g>
<!-- DeploymentGeneratorService&#45;&gt;Step -->
<g id="edge22" class="edge">
<title>DeploymentGeneratorService&#45;&gt;Step</title>
<path fill="none" stroke="black" stroke-dasharray="5,2" d="M388.72,-327.95C440.9,-306.65 500.86,-282.18 552.3,-261.18"/>
<polygon fill="black" stroke="black" points="561.8,-257.3 554.24,-265.25 557.17,-259.19 552.54,-261.08 552.54,-261.08 552.54,-261.08 557.17,-259.19 550.84,-256.91 561.8,-257.3 561.8,-257.3"/>
</g>
</g>
</svg>
