<?xml version="1.0" encoding="UTF-8" standalone="no"?>
<!DOCTYPE svg PUBLIC "-//W3C//DTD SVG 1.1//EN"
 "http://www.w3.org/Graphics/SVG/1.1/DTD/svg11.dtd">
<!-- Generated by graphviz version 2.43.0 (0)
 -->
<!-- Title: ClassDiagram Pages: 1 -->
<svg width="5689pt" height="827pt"
 viewBox="0.00 0.00 5689.00 827.00" xmlns="http://www.w3.org/2000/svg" xmlns:xlink="http://www.w3.org/1999/xlink">
<g id="graph0" class="graph" transform="scale(1 1) rotate(0) translate(4 823)">
<title>ClassDiagram</title>
<polygon fill="white" stroke="transparent" points="-4,4 -4,-823 5685,-823 5685,4 -4,4"/>
<!-- LanguageResource 🐱relationship compositionOf LanguageService, 0..1 -->
<g id="node1" class="node">
<title>LanguageResource 🐱relationship compositionOf LanguageService, 0..1</title>
<polygon fill="none" stroke="black" points="9,-729.5 9,-750.5 579,-750.5 579,-729.5 9,-729.5"/>
<text text-anchor="start" x="12" y="-737.3" font-family="Times,serif" font-weight="bold" font-size="14.00">LanguageResource 🐱relationship compositionOf LanguageService, 0..1</text>
<polygon fill="none" stroke="black" points="9,-695.5 9,-729.5 579,-729.5 579,-695.5 9,-695.5"/>
<text text-anchor="start" x="262.5" y="-716.3" font-family="Times,serif" font-style="italic" font-size="14.00">Methods</text>
<text text-anchor="start" x="249.5" y="-702.3" font-family="Times,serif" font-size="14.00">getAll():Map</text>
<polygon fill="none" stroke="black" points="8,-695 8,-752 580,-752 580,-695 8,-695"/>
</g>
<!-- DeploymentResource 🐱relationship compositionOf DeploymentService, -->
<g id="node2" class="node">
<title>DeploymentResource 🐱relationship compositionOf DeploymentService,</title>
<polygon fill="none" stroke="black" points="616,-750.5 616,-771.5 1187,-771.5 1187,-750.5 616,-750.5"/>
<text text-anchor="start" x="619" y="-758.3" font-family="Times,serif" font-weight="bold" font-size="14.00">DeploymentResource 🐱relationship compositionOf DeploymentService,</text>
<polygon fill="none" stroke="black" points="616,-674.5 616,-750.5 1187,-750.5 1187,-674.5 616,-674.5"/>
<text text-anchor="start" x="870" y="-737.3" font-family="Times,serif" font-style="italic" font-size="14.00">Methods</text>
<text text-anchor="start" x="698" y="-723.3" font-family="Times,serif" font-size="14.00">all():String</text>
<text text-anchor="start" x="698" y="-709.3" font-family="Times,serif" font-size="14.00">start(&lt;DeploymentResourceYamlRequest&gt; steps):String</text>
<text text-anchor="start" x="698" y="-695.3" font-family="Times,serif" font-size="14.00">get():String</text>
<text text-anchor="start" x="698" y="-681.3" font-family="Times,serif" font-size="14.00">stop():String</text>
<polygon fill="none" stroke="black" points="614.5,-674 614.5,-773 1187.5,-773 1187.5,-674 614.5,-674"/>
</g>
<!-- IntegrationsResource -->
<g id="node3" class="node">
<title>IntegrationsResource</title>
<polygon fill="none" stroke="black" points="1118,-558.5 1118,-579.5 1467,-579.5 1467,-558.5 1118,-558.5"/>
<text text-anchor="start" x="1206" y="-566.3" font-family="Times,serif" font-weight="bold" font-size="14.00">IntegrationsResource</text>
<polygon fill="none" stroke="black" points="1118,-524.5 1118,-558.5 1467,-558.5 1467,-524.5 1118,-524.5"/>
<text text-anchor="start" x="1261" y="-545.3" font-family="Times,serif" font-style="italic" font-size="14.00">Methods</text>
<text text-anchor="start" x="1121" y="-531.3" font-family="Times,serif" font-size="14.00">crd(&lt;String&gt; dsl):Map&lt;String, Map&lt;String&gt;&gt;</text>
<polygon fill="none" stroke="black" points="1116.5,-524 1116.5,-581 1467.5,-581 1467.5,-524 1116.5,-524"/>
</g>
<!-- DeploymentService -->
<g id="node4" class="node">
<title>DeploymentService</title>
<text text-anchor="middle" x="1292" y="-719.8" font-family="Times,serif" font-size="14.00">DeploymentService</text>
</g>
<!-- DeploymentService&#45;&gt;IntegrationsResource -->
<g id="edge1" class="edge">
<title>DeploymentService&#45;&gt;IntegrationsResource</title>
<path fill="none" stroke="black" d="M1292,-705.37C1292,-680.25 1292,-632.62 1292,-597.37"/>
<polygon fill="black" stroke="black" points="1292,-597 1288,-591 1292,-585 1296,-591 1292,-597"/>
<text text-anchor="middle" x="1278" y="-694.17" font-family="Times,serif" font-size="14.00">0..1</text>
</g>
<!-- StepResource -->
<g id="node5" class="node">
<title>StepResource</title>
<polygon fill="none" stroke="black" points="2802,-743.5 2802,-764.5 3274,-764.5 3274,-743.5 2802,-743.5"/>
<text text-anchor="start" x="2983.5" y="-751.3" font-family="Times,serif" font-weight="bold" font-size="14.00">StepResource</text>
<polygon fill="none" stroke="black" points="2802,-681.5 2802,-743.5 3274,-743.5 3274,-681.5 2802,-681.5"/>
<text text-anchor="start" x="3006.5" y="-730.3" font-family="Times,serif" font-style="italic" font-size="14.00">Methods</text>
<text text-anchor="start" x="2805" y="-716.3" font-family="Times,serif" font-size="14.00">allSteps(&lt;String&gt; type, &lt;String&gt; dsl, &lt;String&gt; kind):List[Step]</text>
<text text-anchor="start" x="2805" y="-702.3" font-family="Times,serif" font-size="14.00">stepById(&lt;String&gt; id):Step</text>
<text text-anchor="start" x="2805" y="-688.3" font-family="Times,serif" font-size="14.00">stepsByName(&lt;String&gt; name):List[Step]</text>
<polygon fill="none" stroke="black" points="2801,-681 2801,-766 3275,-766 3275,-681 2801,-681"/>
</g>
<!-- StepCatalog -->
<g id="node6" class="node">
<title>StepCatalog</title>
<polygon fill="none" stroke="black" points="2987,-541.5 2987,-562.5 3089,-562.5 3089,-541.5 2987,-541.5"/>
<text text-anchor="start" x="2990" y="-549.3" font-family="Times,serif" font-weight="bold" font-size="14.00">StepCatalog</text>
<polygon fill="none" stroke="black" points="2986,-541 2986,-564 3090,-564 3090,-541 2986,-541"/>
</g>
<!-- StepResource&#45;&gt;StepCatalog -->
<g id="edge2" class="edge">
<title>StepResource&#45;&gt;StepCatalog</title>
<path fill="none" stroke="black" stroke-dasharray="5,2" d="M3038,-676.77C3038,-646.14 3038,-606.85 3038,-580.96"/>
<polygon fill="black" stroke="black" points="3038,-570.75 3042.5,-580.75 3038,-575.75 3038,-580.75 3038,-580.75 3038,-580.75 3038,-575.75 3033.5,-580.75 3038,-570.75 3038,-570.75"/>
</g>
<!-- AbstractCatalog -->
<g id="node15" class="node">
<title>AbstractCatalog</title>
<polygon fill="none" stroke="black" points="3052,-422.5 3052,-443.5 3330,-443.5 3330,-422.5 3052,-422.5"/>
<text text-anchor="start" x="3127.5" y="-430.3" font-family="Times,serif" font-weight="bold" font-size="14.00">AbstractCatalog</text>
<polygon fill="none" stroke="black" points="3052,-374.5 3052,-422.5 3330,-422.5 3330,-374.5 3052,-374.5"/>
<text text-anchor="start" x="3159.5" y="-409.3" font-family="Times,serif" font-style="italic" font-size="14.00">Methods</text>
<text text-anchor="start" x="3055" y="-395.3" font-family="Times,serif" font-size="14.00">waitForWarmUp():CompletableFuture</text>
<text text-anchor="start" x="3055" y="-381.3" font-family="Times,serif" font-size="14.00">loadParsers():List[ParseCatalog]</text>
<polygon fill="none" stroke="black" points="3051,-374 3051,-445 3331,-445 3331,-374 3051,-374"/>
</g>
<!-- StepCatalog&#45;&gt;AbstractCatalog -->
<g id="edge7" class="edge">
<title>StepCatalog&#45;&gt;AbstractCatalog</title>
<path fill="none" stroke="black" d="M3056.46,-534.49C3077.39,-515.2 3112.41,-482.93 3141.47,-456.15"/>
<polygon fill="none" stroke="black" points="3144.12,-458.46 3149.1,-449.11 3139.38,-453.31 3144.12,-458.46"/>
</g>
<!-- ViewDefinitionResource -->
<g id="node7" class="node">
<title>ViewDefinitionResource</title>
<polygon fill="none" stroke="black" points="1468,-422.5 1468,-443.5 1936,-443.5 1936,-422.5 1468,-422.5"/>
<text text-anchor="start" x="1607" y="-430.3" font-family="Times,serif" font-weight="bold" font-size="14.00">ViewDefinitionResource</text>
<polygon fill="none" stroke="black" points="1468,-374.5 1468,-422.5 1936,-422.5 1936,-374.5 1468,-374.5"/>
<text text-anchor="start" x="1670.5" y="-409.3" font-family="Times,serif" font-style="italic" font-size="14.00">Methods</text>
<text text-anchor="start" x="1471" y="-395.3" font-family="Times,serif" font-size="14.00">views:(&lt;String&gt; yaml):</text>
<text text-anchor="start" x="1471" y="-381.3" font-family="Times,serif" font-size="14.00">viewsPerStepList:(&lt;Step[]&gt; DeploymentResourceYamlRequest):</text>
<polygon fill="none" stroke="black" points="1467,-374 1467,-445 1937,-445 1937,-374 1467,-374"/>
</g>
<!-- ViewDefinitionService -->
<g id="node8" class="node">
<title>ViewDefinitionService</title>
<polygon fill="none" stroke="black" points="1503,-558.5 1503,-579.5 1901,-579.5 1901,-558.5 1503,-558.5"/>
<text text-anchor="start" x="1615.5" y="-566.3" font-family="Times,serif" font-weight="bold" font-size="14.00">ViewDefinitionService</text>
<polygon fill="none" stroke="black" points="1503,-524.5 1503,-558.5 1901,-558.5 1901,-524.5 1503,-524.5"/>
<text text-anchor="start" x="1670.5" y="-545.3" font-family="Times,serif" font-style="italic" font-size="14.00">Methods</text>
<text text-anchor="start" x="1506" y="-531.3" font-family="Times,serif" font-size="14.00">viewsPerStepList(&lt;Step[]&gt; steps):List[ViewDefinition]</text>
<polygon fill="none" stroke="black" points="1502,-524 1502,-581 1902,-581 1902,-524 1502,-524"/>
</g>
<!-- ViewDefinitionService&#45;&gt;ViewDefinitionResource -->
<g id="edge3" class="edge">
<title>ViewDefinitionService&#45;&gt;ViewDefinitionResource</title>
<path fill="none" stroke="black" d="M1702,-519.86C1702,-502.59 1702,-480.8 1702,-461.23"/>
<polygon fill="black" stroke="black" points="1702,-461.07 1698,-455.07 1702,-449.07 1706,-455.07 1702,-461.07"/>
<text text-anchor="middle" x="1688" y="-508.66" font-family="Times,serif" font-size="14.00">0..1</text>
</g>
<!-- StepParserService -->
<g id="node13" class="node">
<title>StepParserService</title>
<polygon fill="none" stroke="black" points="1177,-436.5 1177,-457.5 1432,-457.5 1432,-436.5 1177,-436.5"/>
<text text-anchor="start" x="1232" y="-444.3" font-family="Times,serif" font-weight="bold" font-size="14.00">StepParserService</text>
<polygon fill="none" stroke="black" points="1177,-360.5 1177,-436.5 1432,-436.5 1432,-360.5 1177,-360.5"/>
<text text-anchor="start" x="1273" y="-423.3" font-family="Times,serif" font-style="italic" font-size="14.00">Methods</text>
<text text-anchor="start" x="1180" y="-409.3" font-family="Times,serif" font-size="14.00">identifier():String</text>
<text text-anchor="start" x="1180" y="-395.3" font-family="Times,serif" font-size="14.00">description():String</text>
<text text-anchor="start" x="1180" y="-381.3" font-family="Times,serif" font-size="14.00">parse(&lt;String&gt; yaml):ParseResult</text>
<text text-anchor="start" x="1180" y="-367.3" font-family="Times,serif" font-size="14.00">appliesTo(&lt;String&gt; yaml):boolean</text>
<polygon fill="none" stroke="black" points="1175.5,-360 1175.5,-459 1432.5,-459 1432.5,-360 1175.5,-360"/>
</g>
<!-- ViewDefinitionService&#45;&gt;StepParserService -->
<g id="edge4" class="edge">
<title>ViewDefinitionService&#45;&gt;StepParserService</title>
<path fill="none" stroke="black" stroke-dasharray="5,2" d="M1582.61,-519.91C1540.3,-507.75 1492.63,-492.92 1450,-477 1441.66,-473.89 1433.14,-470.52 1424.59,-467"/>
<polygon fill="black" stroke="black" points="1415.32,-463.13 1426.29,-462.83 1419.94,-465.06 1424.55,-466.98 1424.55,-466.98 1424.55,-466.98 1419.94,-465.06 1422.82,-471.13 1415.32,-463.13 1415.32,-463.13"/>
</g>
<!-- ViewDefinitionParserService -->
<g id="node14" class="node">
<title>ViewDefinitionParserService</title>
<polygon fill="none" stroke="black" points="2234,-429.5 2234,-450.5 2832,-450.5 2832,-429.5 2234,-429.5"/>
<text text-anchor="start" x="2420.5" y="-437.3" font-family="Times,serif" font-weight="bold" font-size="14.00">ViewDefinitionParserService</text>
<polygon fill="none" stroke="black" points="2234,-367.5 2234,-429.5 2832,-429.5 2832,-367.5 2234,-367.5"/>
<text text-anchor="start" x="2501.5" y="-416.3" font-family="Times,serif" font-style="italic" font-size="14.00">Methods</text>
<text text-anchor="start" x="2237" y="-402.3" font-family="Times,serif" font-size="14.00">parse(&lt;List[Step]&gt; steps):List[ViewDefinition]</text>
<text text-anchor="start" x="2237" y="-388.3" font-family="Times,serif" font-size="14.00">getViewsPerStep(&lt;List[Step]&gt; steps, &lt;ViewDefinition&gt; view):List[ViewDefinition]</text>
<text text-anchor="start" x="2237" y="-374.3" font-family="Times,serif" font-size="14.00">appliesTo(&lt;List[Step]&gt; steps, &lt;ViewDefinition&gt; viewDefinition):boolean</text>
<polygon fill="none" stroke="black" points="2233,-367 2233,-452 2833,-452 2833,-367 2233,-367"/>
</g>
<!-- ViewDefinitionService&#45;&gt;ViewDefinitionParserService -->
<g id="edge5" class="edge">
<title>ViewDefinitionService&#45;&gt;ViewDefinitionParserService</title>
<path fill="none" stroke="black" stroke-dasharray="5,2" d="M1910.05,-524.37C2003.77,-511.37 2115.67,-494.78 2216,-477 2248.25,-471.29 2282.24,-464.73 2315.5,-458.01"/>
<polygon fill="black" stroke="black" points="2325.33,-456.01 2316.43,-462.41 2320.43,-457.01 2315.53,-458 2315.53,-458 2315.53,-458 2320.43,-457.01 2314.64,-453.59 2325.33,-456.01 2325.33,-456.01"/>
</g>
<!-- Capabilities -->
<g id="node9" class="node">
<title>Capabilities</title>
<polygon fill="none" stroke="black" points="3310,-712.5 3310,-733.5 3410,-733.5 3410,-712.5 3310,-712.5"/>
<text text-anchor="start" x="3313" y="-720.3" font-family="Times,serif" font-weight="bold" font-size="14.00">Capabilities</text>
<polygon fill="none" stroke="black" points="3309,-712 3309,-735 3411,-735 3411,-712 3309,-712"/>
</g>
<!-- Integration -->
<g id="node10" class="node">
<title>Integration</title>
<polygon fill="none" stroke="black" points="3447,-712.5 3447,-733.5 3544,-733.5 3544,-712.5 3447,-712.5"/>
<text text-anchor="start" x="3450" y="-720.3" font-family="Times,serif" font-weight="bold" font-size="14.00">Integration</text>
<polygon fill="none" stroke="black" points="3445.5,-712 3445.5,-735 3544.5,-735 3544.5,-712 3445.5,-712"/>
</g>
<!-- DeploymentService This endpoint will return a list of views based on -->
<g id="node11" class="node">
<title>DeploymentService This endpoint will return a list of views based on</title>
<polygon fill="none" stroke="black" points="3580,-729.5 3580,-750.5 4125,-750.5 4125,-729.5 3580,-729.5"/>
<text text-anchor="start" x="3583" y="-737.3" font-family="Times,serif" font-weight="bold" font-size="14.00">DeploymentService This endpoint will return a list of views based on</text>
<polygon fill="none" stroke="black" points="3580,-695.5 3580,-729.5 4125,-729.5 4125,-695.5 3580,-695.5"/>
<text text-anchor="start" x="3821" y="-716.3" font-family="Times,serif" font-style="italic" font-size="14.00">Methods</text>
<text text-anchor="start" x="3675.5" y="-702.3" font-family="Times,serif" font-size="14.00">yaml(&lt;List[Step]&gt; steps, &lt;String&gt; name):String</text>
<polygon fill="none" stroke="black" points="3578.5,-695 3578.5,-752 4125.5,-752 4125.5,-695 3578.5,-695"/>
</g>
<!-- LanguageService -->
<g id="node12" class="node">
<title>LanguageService</title>
<polygon fill="none" stroke="black" points="4161,-729.5 4161,-750.5 4302,-750.5 4302,-729.5 4161,-729.5"/>
<text text-anchor="start" x="4164" y="-737.3" font-family="Times,serif" font-weight="bold" font-size="14.00">LanguageService</text>
<polygon fill="none" stroke="black" points="4161,-695.5 4161,-729.5 4302,-729.5 4302,-695.5 4161,-695.5"/>
<text text-anchor="start" x="4200" y="-716.3" font-family="Times,serif" font-style="italic" font-size="14.00">Methods</text>
<text text-anchor="start" x="4187" y="-702.3" font-family="Times,serif" font-size="14.00">getAll():Map</text>
<polygon fill="none" stroke="black" points="4159.5,-695 4159.5,-752 4302.5,-752 4302.5,-695 4159.5,-695"/>
</g>
<!-- Step -->
<g id="node32" class="node">
<title>Step</title>
<polygon fill="none" stroke="black" points="1201,-279.5 1201,-300.5 1407,-300.5 1407,-279.5 1201,-279.5"/>
<text text-anchor="start" x="1286" y="-287.3" font-family="Times,serif" font-weight="bold" font-size="14.00">Step</text>
<polygon fill="none" stroke="black" points="1201,-133.5 1201,-279.5 1407,-279.5 1407,-133.5 1201,-133.5"/>
<text text-anchor="start" x="1266" y="-266.3" font-family="Times,serif" font-style="italic" font-size="14.00">Properties</text>
<text text-anchor="start" x="1204" y="-252.3" font-family="Times,serif" font-size="14.00">description:String</text>
<text text-anchor="start" x="1204" y="-238.3" font-family="Times,serif" font-size="14.00">title:String</text>
<text text-anchor="start" x="1204" y="-224.3" font-family="Times,serif" font-size="14.00">parameters:List[Parameter]</text>
<text text-anchor="start" x="1204" y="-210.3" font-family="Times,serif" font-size="14.00">icon:String</text>
<text text-anchor="start" x="1204" y="-196.3" font-family="Times,serif" font-size="14.00">UUID:String</text>
<text text-anchor="start" x="1204" y="-182.3" font-family="Times,serif" font-size="14.00">required:String[]</text>
<text text-anchor="start" x="1204" y="-168.3" font-family="Times,serif" font-size="14.00">group:String</text>
<text text-anchor="start" x="1204" y="-154.3" font-family="Times,serif" font-size="14.00">kind:String</text>
<text text-anchor="start" x="1204" y="-140.3" font-family="Times,serif" font-size="14.00">branches:Branch[]</text>
<polygon fill="none" stroke="black" points="1200,-133 1200,-302 1408,-302 1408,-133 1200,-133"/>
</g>
<!-- StepParserService&#45;&gt;Step -->
<g id="edge23" class="edge">
<title>StepParserService&#45;&gt;Step</title>
<path fill="none" stroke="black" stroke-dasharray="5,2" d="M1304,-355.83C1304,-343.57 1304,-330.14 1304,-316.62"/>
<polygon fill="black" stroke="black" points="1304,-306.29 1308.5,-316.29 1304,-311.29 1304,-316.29 1304,-316.29 1304,-316.29 1304,-311.29 1299.5,-316.29 1304,-306.29 1304,-306.29"/>
</g>
<!-- ViewDefinition -->
<g id="node33" class="node">
<title>ViewDefinition</title>
<polygon fill="none" stroke="black" points="2155,-244.5 2155,-265.5 2464,-265.5 2464,-244.5 2155,-244.5"/>
<text text-anchor="start" x="2251.5" y="-252.3" font-family="Times,serif" font-weight="bold" font-size="14.00">ViewDefinition</text>
<polygon fill="none" stroke="black" points="2155,-168.5 2155,-244.5 2464,-244.5 2464,-168.5 2155,-168.5"/>
<text text-anchor="start" x="2271.5" y="-231.3" font-family="Times,serif" font-style="italic" font-size="14.00">Properties</text>
<text text-anchor="start" x="2158" y="-217.3" font-family="Times,serif" font-size="14.00">properties:Map[String, String]</text>
<text text-anchor="start" x="2158" y="-203.3" font-family="Times,serif" font-size="14.00">step:Step</text>
<text text-anchor="start" x="2158" y="-189.3" font-family="Times,serif" font-size="14.00">url:String</text>
<text text-anchor="start" x="2158" y="-175.3" font-family="Times,serif" font-size="14.00">constraints:List[ViewDefinitionConstraint]</text>
<polygon fill="none" stroke="black" points="2153.5,-168 2153.5,-267 2464.5,-267 2464.5,-168 2153.5,-168"/>
</g>
<!-- ViewDefinitionParserService&#45;&gt;ViewDefinition -->
<g id="edge24" class="edge">
<title>ViewDefinitionParserService&#45;&gt;ViewDefinition</title>
<path fill="none" stroke="black" stroke-dasharray="5,2" d="M2479.35,-362.99C2449.15,-337.38 2411.1,-305.11 2378.63,-277.56"/>
<polygon fill="black" stroke="black" points="2370.94,-271.04 2381.47,-274.07 2374.75,-274.27 2378.56,-277.5 2378.56,-277.5 2378.56,-277.5 2374.75,-274.27 2375.65,-280.94 2370.94,-271.04 2370.94,-271.04"/>
</g>
<!-- MetadataCatalog -->
<g id="node16" class="node">
<title>MetadataCatalog</title>
<polygon fill="none" stroke="black" points="2895,-244.5 2895,-265.5 3238,-265.5 3238,-244.5 2895,-244.5"/>
<text text-anchor="start" x="2998.5" y="-252.3" font-family="Times,serif" font-weight="bold" font-size="14.00">MetadataCatalog</text>
<polygon fill="none" stroke="black" points="2895,-168.5 2895,-244.5 3238,-244.5 3238,-168.5 2895,-168.5"/>
<text text-anchor="start" x="3035" y="-231.3" font-family="Times,serif" font-style="italic" font-size="14.00">Methods</text>
<text text-anchor="start" x="2898" y="-217.3" font-family="Times,serif" font-size="14.00">searchStepByID(&lt;String&gt; id):Metadata</text>
<text text-anchor="start" x="2898" y="-203.3" font-family="Times,serif" font-size="14.00">searchStepByName(&lt;String&gt; name):Metadata</text>
<text text-anchor="start" x="2898" y="-189.3" font-family="Times,serif" font-size="14.00">store(&lt;List[Step]&gt; steps):boolean</text>
<text text-anchor="start" x="2898" y="-175.3" font-family="Times,serif" font-size="14.00">getAll():List[Metadata]</text>
<polygon fill="none" stroke="black" points="2893.5,-168 2893.5,-267 3238.5,-267 3238.5,-168 2893.5,-168"/>
</g>
<!-- AbstractCatalog&#45;&gt;MetadataCatalog -->
<g id="edge6" class="edge">
<title>AbstractCatalog&#45;&gt;MetadataCatalog</title>
<path fill="none" stroke="black" stroke-dasharray="5,2" d="M3165.4,-369.59C3148.37,-343.7 3125.64,-309.15 3106.22,-279.63"/>
<polygon fill="black" stroke="black" points="3100.57,-271.05 3109.82,-276.93 3103.32,-275.22 3106.07,-279.4 3106.07,-279.4 3106.07,-279.4 3103.32,-275.22 3102.31,-281.87 3100.57,-271.05 3100.57,-271.05"/>
</g>
<!-- Metadata -->
<g id="node22" class="node">
<title>Metadata</title>
<polygon fill="none" stroke="black" points="2262,-66.5 2262,-87.5 2357,-87.5 2357,-66.5 2262,-66.5"/>
<text text-anchor="start" x="2271.5" y="-74.3" font-family="Times,serif" font-weight="bold" font-size="14.00">Metadata</text>
<polygon fill="none" stroke="black" points="2262,-4.5 2262,-66.5 2357,-66.5 2357,-4.5 2262,-4.5"/>
<text text-anchor="start" x="2271.5" y="-53.3" font-family="Times,serif" font-style="italic" font-size="14.00">Properties</text>
<text text-anchor="start" x="2265" y="-39.3" font-family="Times,serif" font-size="14.00">ID:String</text>
<text text-anchor="start" x="2265" y="-25.3" font-family="Times,serif" font-size="14.00">name:String</text>
<text text-anchor="start" x="2265" y="-11.3" font-family="Times,serif" font-size="14.00">type:String</text>
<polygon fill="none" stroke="black" points="2260.5,-4 2260.5,-89 2357.5,-89 2357.5,-4 2260.5,-4"/>
</g>
<!-- MetadataCatalog&#45;&gt;Metadata -->
<g id="edge10" class="edge">
<title>MetadataCatalog&#45;&gt;Metadata</title>
<path fill="none" stroke="black" stroke-dasharray="5,2" d="M2885.16,-176.13C2721.29,-139.54 2488.7,-87.62 2375.73,-62.4"/>
<polygon fill="black" stroke="black" points="2365.83,-60.19 2376.57,-57.98 2370.71,-61.28 2375.59,-62.37 2375.59,-62.37 2375.59,-62.37 2370.71,-61.28 2374.61,-66.76 2365.83,-60.19 2365.83,-60.19"/>
</g>
<!-- ViewDefinitionCatalog -->
<g id="node17" class="node">
<title>ViewDefinitionCatalog</title>
<polygon fill="none" stroke="black" points="3125,-541.5 3125,-562.5 3307,-562.5 3307,-541.5 3125,-541.5"/>
<text text-anchor="start" x="3128" y="-549.3" font-family="Times,serif" font-weight="bold" font-size="14.00">ViewDefinitionCatalog</text>
<polygon fill="none" stroke="black" points="3124,-541 3124,-564 3308,-564 3308,-541 3124,-541"/>
</g>
<!-- ViewDefinitionCatalog&#45;&gt;AbstractCatalog -->
<g id="edge8" class="edge">
<title>ViewDefinitionCatalog&#45;&gt;AbstractCatalog</title>
<path fill="none" stroke="black" d="M3212.98,-534.49C3209.69,-515.93 3204.28,-485.38 3199.64,-459.25"/>
<polygon fill="none" stroke="black" points="3203.04,-458.35 3197.85,-449.11 3196.15,-459.57 3203.04,-458.35"/>
</g>
<!-- KameletParseCatalog -->
<g id="node18" class="node">
<title>KameletParseCatalog</title>
<polygon fill="none" stroke="black" points="4338,-712.5 4338,-733.5 4515,-733.5 4515,-712.5 4338,-712.5"/>
<text text-anchor="start" x="4341" y="-720.3" font-family="Times,serif" font-weight="bold" font-size="14.00">KameletParseCatalog</text>
<polygon fill="none" stroke="black" points="4336.5,-712 4336.5,-735 4515.5,-735 4515.5,-712 4336.5,-712"/>
</g>
<!-- ParseCatalog -->
<g id="node19" class="node">
<title>ParseCatalog</title>
<polygon fill="none" stroke="black" points="4534,-565.5 4534,-586.5 4866,-586.5 4866,-565.5 4534,-565.5"/>
<text text-anchor="start" x="4647.5" y="-573.3" font-family="Times,serif" font-weight="bold" font-size="14.00">ParseCatalog</text>
<polygon fill="none" stroke="black" points="4534,-517.5 4534,-565.5 4866,-565.5 4866,-517.5 4534,-517.5"/>
<text text-anchor="start" x="4668.5" y="-552.3" font-family="Times,serif" font-style="italic" font-size="14.00">Methods</text>
<text text-anchor="start" x="4537" y="-538.3" font-family="Times,serif" font-size="14.00">parse():CompletableFuture[List[T]]</text>
<text text-anchor="start" x="4537" y="-524.3" font-family="Times,serif" font-size="14.00">setFileVisitor(&lt;YamlProcessFile&gt; fileVisitor):</text>
<polygon fill="none" stroke="black" points="4533,-517 4533,-588 4867,-588 4867,-517 4533,-517"/>
</g>
<!-- KameletParseCatalog&#45;&gt;ParseCatalog -->
<g id="edge9" class="edge">
<title>KameletParseCatalog&#45;&gt;ParseCatalog</title>
<path fill="none" stroke="black" stroke-dasharray="5,2" d="M4442.12,-705.39C4462.01,-684.98 4497.56,-650.79 4533,-628 4551.06,-616.38 4571.24,-605.71 4591.15,-596.28"/>
<polygon fill="black" stroke="black" points="4600.27,-592.04 4593.1,-600.34 4595.74,-594.15 4591.2,-596.26 4591.2,-596.26 4591.2,-596.26 4595.74,-594.15 4589.31,-592.17 4600.27,-592.04 4600.27,-592.04"/>
</g>
<!-- Kamelet -->
<g id="node20" class="node">
<title>Kamelet</title>
<polygon fill="none" stroke="black" points="5155,-712.5 5155,-733.5 5228,-733.5 5228,-712.5 5155,-712.5"/>
<text text-anchor="start" x="5158" y="-720.3" font-family="Times,serif" font-weight="bold" font-size="14.00">Kamelet</text>
<polygon fill="none" stroke="black" points="5153.5,-712 5153.5,-735 5228.5,-735 5228.5,-712 5153.5,-712"/>
</g>
<!-- KameletBinding -->
<g id="node21" class="node">
<title>KameletBinding</title>
<polygon fill="none" stroke="black" points="5264,-712.5 5264,-733.5 5400,-733.5 5400,-712.5 5264,-712.5"/>
<text text-anchor="start" x="5267" y="-720.3" font-family="Times,serif" font-weight="bold" font-size="14.00">KameletBinding</text>
<polygon fill="none" stroke="black" points="5263,-712 5263,-735 5401,-735 5401,-712 5263,-712"/>
</g>
<!-- CatalogCollection -->
<g id="node23" class="node">
<title>CatalogCollection</title>
<polygon fill="none" stroke="black" points="3366,-398.5 3366,-419.5 3512,-419.5 3512,-398.5 3366,-398.5"/>
<text text-anchor="start" x="3369" y="-406.3" font-family="Times,serif" font-weight="bold" font-size="14.00">CatalogCollection</text>
<polygon fill="none" stroke="black" points="3365,-398 3365,-421 3513,-421 3513,-398 3365,-398"/>
</g>
<!-- CatalogCollection&#45;&gt;MetadataCatalog -->
<g id="edge11" class="edge">
<title>CatalogCollection&#45;&gt;MetadataCatalog</title>
<path fill="none" stroke="black" d="M3418.2,-391.26C3400.31,-376.95 3373.44,-356.63 3348,-342 3305.09,-317.32 3256.31,-294.33 3211.54,-275.04"/>
<polygon fill="none" stroke="black" points="3212.91,-271.83 3202.34,-271.11 3210.16,-278.26 3212.91,-271.83"/>
</g>
<!-- InMemoryCatalog -->
<g id="node24" class="node">
<title>InMemoryCatalog</title>
<polygon fill="none" stroke="black" points="2868,-398.5 2868,-419.5 3016,-419.5 3016,-398.5 2868,-398.5"/>
<text text-anchor="start" x="2871" y="-406.3" font-family="Times,serif" font-weight="bold" font-size="14.00">InMemoryCatalog</text>
<polygon fill="none" stroke="black" points="2867,-398 2867,-421 3017,-421 3017,-398 2867,-398"/>
</g>
<!-- InMemoryCatalog&#45;&gt;MetadataCatalog -->
<g id="edge12" class="edge">
<title>InMemoryCatalog&#45;&gt;MetadataCatalog</title>
<path fill="none" stroke="black" d="M2953.22,-391.3C2969.52,-366.34 3000.56,-318.78 3025.95,-279.87"/>
<polygon fill="none" stroke="black" points="3029.07,-281.49 3031.61,-271.2 3023.21,-277.66 3029.07,-281.49"/>
</g>
<!-- ReadOnlyCatalog -->
<g id="node25" class="node">
<title>ReadOnlyCatalog</title>
<polygon fill="none" stroke="black" points="3368,-541.5 3368,-562.5 3510,-562.5 3510,-541.5 3368,-541.5"/>
<text text-anchor="start" x="3371" y="-549.3" font-family="Times,serif" font-weight="bold" font-size="14.00">ReadOnlyCatalog</text>
<polygon fill="none" stroke="black" points="3367,-541 3367,-564 3511,-564 3511,-541 3367,-541"/>
</g>
<!-- ReadOnlyCatalog&#45;&gt;CatalogCollection -->
<g id="edge13" class="edge">
<title>ReadOnlyCatalog&#45;&gt;CatalogCollection</title>
<path fill="none" stroke="black" d="M3439,-534.49C3439,-510.46 3439,-466.31 3439,-437.7"/>
<polygon fill="none" stroke="black" points="3442.5,-437.57 3439,-427.57 3435.5,-437.57 3442.5,-437.57"/>
</g>
<!-- GitParseCatalog -->
<g id="node26" class="node">
<title>GitParseCatalog</title>
<polygon fill="none" stroke="black" points="4984,-712.5 4984,-733.5 5119,-733.5 5119,-712.5 4984,-712.5"/>
<text text-anchor="start" x="4987" y="-720.3" font-family="Times,serif" font-weight="bold" font-size="14.00">GitParseCatalog</text>
<polygon fill="none" stroke="black" points="4982.5,-712 4982.5,-735 5119.5,-735 5119.5,-712 4982.5,-712"/>
</g>
<!-- GitParseCatalog&#45;&gt;ParseCatalog -->
<g id="edge14" class="edge">
<title>GitParseCatalog&#45;&gt;ParseCatalog</title>
<path fill="none" stroke="black" d="M5040.04,-705.5C5025.45,-684.23 4997.65,-648.17 4965,-628 4940.43,-612.83 4912.7,-600.67 4884.67,-590.94"/>
<polygon fill="none" stroke="black" points="4885.75,-587.61 4875.15,-587.74 4883.51,-594.25 4885.75,-587.61"/>
</g>
<!-- YamlProcessFile -->
<g id="node27" class="node">
<title>YamlProcessFile</title>
<polygon fill="none" stroke="black" points="4984,-541.5 4984,-562.5 5119,-562.5 5119,-541.5 4984,-541.5"/>
<text text-anchor="start" x="4987" y="-549.3" font-family="Times,serif" font-weight="bold" font-size="14.00">YamlProcessFile</text>
<polygon fill="none" stroke="black" points="4982.5,-541 4982.5,-564 5119.5,-564 5119.5,-541 4982.5,-541"/>
</g>
<!-- GitParseCatalog&#45;&gt;YamlProcessFile -->
<g id="edge15" class="edge">
<title>GitParseCatalog&#45;&gt;YamlProcessFile</title>
<path fill="none" stroke="black" stroke-dasharray="5,2" d="M5046.72,-705.37C5043.74,-676.01 5043.45,-615.88 5045.88,-580.73"/>
<polygon fill="black" stroke="black" points="5046.72,-570.68 5050.37,-581.02 5046.3,-575.66 5045.89,-580.65 5045.89,-580.65 5045.89,-580.65 5046.3,-575.66 5041.4,-580.27 5046.72,-570.68 5046.72,-570.68"/>
</g>
<!-- YamlProcessFile&#45;&gt;GitParseCatalog -->
<g id="edge17" class="edge">
<title>YamlProcessFile&#45;&gt;GitParseCatalog</title>
<path fill="none" stroke="black" stroke-dasharray="5,2" d="M5055.28,-570.68C5058.27,-600.07 5058.54,-660.2 5056.12,-695.33"/>
<polygon fill="black" stroke="black" points="5055.28,-705.37 5051.63,-695.02 5055.69,-700.38 5056.11,-695.4 5056.11,-695.4 5056.11,-695.4 5055.69,-700.38 5060.59,-695.78 5055.28,-705.37 5055.28,-705.37"/>
</g>
<!-- JarParseCatalog -->
<g id="node28" class="node">
<title>JarParseCatalog</title>
<polygon fill="none" stroke="black" points="4551,-712.5 4551,-733.5 4685,-733.5 4685,-712.5 4551,-712.5"/>
<text text-anchor="start" x="4554" y="-720.3" font-family="Times,serif" font-weight="bold" font-size="14.00">JarParseCatalog</text>
<polygon fill="none" stroke="black" points="4550,-712 4550,-735 4686,-735 4686,-712 4550,-712"/>
</g>
<!-- JarParseCatalog&#45;&gt;ParseCatalog -->
<g id="edge16" class="edge">
<title>JarParseCatalog&#45;&gt;ParseCatalog</title>
<path fill="none" stroke="black" d="M4626.31,-705.37C4638.05,-681.18 4659.93,-636.09 4676.81,-601.3"/>
<polygon fill="none" stroke="black" points="4679.98,-602.77 4681.2,-592.25 4673.69,-599.72 4679.98,-602.77"/>
</g>
<!-- ViewDefinitionParseCatalog -->
<g id="node29" class="node">
<title>ViewDefinitionParseCatalog</title>
<polygon fill="none" stroke="black" points="4721,-712.5 4721,-733.5 4947,-733.5 4947,-712.5 4721,-712.5"/>
<text text-anchor="start" x="4724" y="-720.3" font-family="Times,serif" font-weight="bold" font-size="14.00">ViewDefinitionParseCatalog</text>
<polygon fill="none" stroke="black" points="4720,-712 4720,-735 4948,-735 4948,-712 4720,-712"/>
</g>
<!-- ViewDefinitionParseCatalog&#45;&gt;ParseCatalog -->
<g id="edge18" class="edge">
<title>ViewDefinitionParseCatalog&#45;&gt;ParseCatalog</title>
<path fill="none" stroke="black" stroke-dasharray="5,2" d="M4820.41,-705.37C4801.07,-680.97 4764.88,-635.32 4737.2,-600.42"/>
<polygon fill="black" stroke="black" points="4730.72,-592.25 4740.46,-597.29 4733.83,-596.17 4736.94,-600.08 4736.94,-600.08 4736.94,-600.08 4733.83,-596.17 4733.41,-602.88 4730.72,-592.25 4730.72,-592.25"/>
</g>
<!-- Parameter -->
<g id="node30" class="node">
<title>Parameter</title>
<polygon fill="none" stroke="black" points="5436,-792.5 5436,-813.5 5572,-813.5 5572,-792.5 5436,-792.5"/>
<text text-anchor="start" x="5462" y="-800.3" font-family="Times,serif" font-weight="bold" font-size="14.00">Parameter</text>
<polygon fill="none" stroke="black" points="5436,-632.5 5436,-792.5 5572,-792.5 5572,-632.5 5436,-632.5"/>
<text text-anchor="start" x="5466" y="-779.3" font-family="Times,serif" font-style="italic" font-size="14.00">Properties</text>
<text text-anchor="start" x="5439" y="-765.3" font-family="Times,serif" font-size="14.00">description:String</text>
<text text-anchor="start" x="5439" y="-751.3" font-family="Times,serif" font-size="14.00">title:String</text>
<text text-anchor="start" x="5439" y="-737.3" font-family="Times,serif" font-size="14.00">id:String</text>
<text text-anchor="start" x="5439" y="-723.3" font-family="Times,serif" font-size="14.00">value:Object</text>
<text text-anchor="start" x="5439" y="-709.3" font-family="Times,serif" font-size="14.00">default:Object</text>
<text text-anchor="start" x="5439" y="-695.3" font-family="Times,serif" font-size="14.00">type:String</text>
<text text-anchor="start" x="5439" y="-681.3" font-family="Times,serif" font-size="14.00">path:Boolean</text>
<text text-anchor="start" x="5439" y="-667.3" font-family="Times,serif" font-size="14.00">nullable:Boolean</text>
<text text-anchor="start" x="5439" y="-653.3" font-family="Times,serif" font-size="14.00">enum:Object[]</text>
<text text-anchor="start" x="5439" y="-639.3" font-family="Times,serif" font-size="14.00">examples:Object[]</text>
<polygon fill="none" stroke="black" points="5435,-632 5435,-815 5573,-815 5573,-632 5435,-632"/>
</g>
<!-- Branch -->
<g id="node31" class="node">
<title>Branch</title>
<polygon fill="none" stroke="black" points="5608,-712.5 5608,-733.5 5672,-733.5 5672,-712.5 5608,-712.5"/>
<text text-anchor="start" x="5611" y="-720.3" font-family="Times,serif" font-weight="bold" font-size="14.00">Branch</text>
<polygon fill="none" stroke="black" points="5607,-712 5607,-735 5673,-735 5673,-712 5607,-712"/>
</g>
<!-- Step&#45;&gt;Metadata -->
<g id="edge19" class="edge">
<title>Step&#45;&gt;Metadata</title>
<path fill="none" stroke="black" d="M1416.36,-197.61C1626.55,-162.26 2073.24,-87.15 2242.29,-58.72"/>
<polygon fill="none" stroke="black" points="2243.02,-62.14 2252.3,-57.03 2241.86,-55.24 2243.02,-62.14"/>
</g>
<!-- ViewDefinition&#45;&gt;Metadata -->
<g id="edge20" class="edge">
<title>ViewDefinition&#45;&gt;Metadata</title>
<path fill="none" stroke="black" d="M2309,-163.95C2309,-144.73 2309,-122.93 2309,-103.43"/>
<polygon fill="none" stroke="black" points="2312.5,-103.16 2309,-93.16 2305.5,-103.16 2312.5,-103.16"/>
</g>
<!-- ViewDefinitionConstraint -->
<g id="node34" class="node">
<title>ViewDefinitionConstraint</title>
<polygon fill="none" stroke="black" points="1972,-429.5 1972,-450.5 2198,-450.5 2198,-429.5 1972,-429.5"/>
<text text-anchor="start" x="1984.5" y="-437.3" font-family="Times,serif" font-weight="bold" font-size="14.00">ViewDefinitionConstraint</text>
<polygon fill="none" stroke="black" points="1972,-367.5 1972,-429.5 2198,-429.5 2198,-367.5 1972,-367.5"/>
<text text-anchor="start" x="2047" y="-416.3" font-family="Times,serif" font-style="italic" font-size="14.00">Properties</text>
<text text-anchor="start" x="1975" y="-402.3" font-family="Times,serif" font-size="14.00">mandatory:boolean</text>
<text text-anchor="start" x="1975" y="-388.3" font-family="Times,serif" font-size="14.00">operation:ConstraintOperation</text>
<text text-anchor="start" x="1975" y="-374.3" font-family="Times,serif" font-size="14.00">parameter:String</text>
<polygon fill="none" stroke="black" points="1971,-367 1971,-452 2199,-452 2199,-367 1971,-367"/>
</g>
<!-- ViewDefinitionConstraint&#45;&gt;ViewDefinition -->
<g id="edge21" class="edge">
<title>ViewDefinitionConstraint&#45;&gt;ViewDefinition</title>
<path fill="none" stroke="black" d="M2138.65,-362.99C2168.34,-337.81 2205.61,-306.19 2237.72,-278.96"/>
<polygon fill="black" stroke="black" points="2237.91,-278.8 2239.9,-271.87 2247.06,-271.04 2245.08,-277.97 2237.91,-278.8"/>
<text text-anchor="middle" x="2124.65" y="-351.79" font-family="Times,serif" font-size="14.00">0..n</text>
</g>
<!-- DeploymentGeneratorService -->
<g id="node35" class="node">
<title>DeploymentGeneratorService</title>
<polygon fill="none" stroke="black" points="760,-450.5 760,-471.5 1140,-471.5 1140,-450.5 760,-450.5"/>
<text text-anchor="start" x="834" y="-458.3" font-family="Times,serif" font-weight="bold" font-size="14.00">DeploymentGeneratorService</text>
<polygon fill="none" stroke="black" points="760,-346.5 760,-450.5 1140,-450.5 1140,-346.5 760,-346.5"/>
<text text-anchor="start" x="918.5" y="-437.3" font-family="Times,serif" font-style="italic" font-size="14.00">Methods</text>
<text text-anchor="start" x="763" y="-423.3" font-family="Times,serif" font-size="14.00">identifier():String</text>
<text text-anchor="start" x="763" y="-409.3" font-family="Times,serif" font-size="14.00">description():String</text>
<text text-anchor="start" x="763" y="-395.3" font-family="Times,serif" font-size="14.00">parse(&lt;List[Step]&gt; steps, &lt;Map&gt; metadata):String</text>
<text text-anchor="start" x="763" y="-381.3" font-family="Times,serif" font-size="14.00">appliesTo(&lt;List[Step]&gt; steps):boolean</text>
<text text-anchor="start" x="763" y="-367.3" font-family="Times,serif" font-size="14.00">supportedCustomResources():List&lt;Class&gt;</text>
<text text-anchor="start" x="763" y="-353.3" font-family="Times,serif" font-size="14.00">getKinds():String[]</text>
<polygon fill="none" stroke="black" points="759,-346 759,-473 1141,-473 1141,-346 759,-346"/>
</g>
<!-- DeploymentGeneratorService&#45;&gt;Step -->
<g id="edge22" class="edge">
<title>DeploymentGeneratorService&#45;&gt;Step</title>
<path fill="none" stroke="black" stroke-dasharray="5,2" d="M1074.31,-341.78C1109.57,-322.85 1147.9,-302.28 1182.97,-283.46"/>
<polygon fill="black" stroke="black" points="1191.81,-278.72 1185.13,-287.41 1187.4,-281.08 1183,-283.44 1183,-283.44 1183,-283.44 1187.4,-281.08 1180.87,-279.48 1191.81,-278.72 1191.81,-278.72"/>
</g>
</g>
</svg>
