<?xml version="1.0" encoding="UTF-8" standalone="no"?>
<!DOCTYPE svg PUBLIC "-//W3C//DTD SVG 1.1//EN"
 "http://www.w3.org/Graphics/SVG/1.1/DTD/svg11.dtd">
<!-- Generated by graphviz version 2.43.0 (0)
 -->
<!-- Title: ClassDiagram Pages: 1 -->
<svg width="3698pt" height="743pt"
 viewBox="0.00 0.00 3698.00 743.00" xmlns="http://www.w3.org/2000/svg" xmlns:xlink="http://www.w3.org/1999/xlink">
<g id="graph0" class="graph" transform="scale(1 1) rotate(0) translate(4 739)">
<title>ClassDiagram</title>
<polygon fill="white" stroke="transparent" points="-4,4 -4,-739 3694,-739 3694,4 -4,4"/>
<!-- DeploymentResource -->
<g id="node1" class="node">
<title>DeploymentResource</title>
<polygon fill="none" stroke="black" points="205,-537.5 205,-558.5 743,-558.5 743,-537.5 205,-537.5"/>
<text text-anchor="start" x="389.5" y="-545.3" font-family="Times,serif" font-weight="bold" font-size="14.00">DeploymentResource</text>
<polygon fill="none" stroke="black" points="205,-461.5 205,-537.5 743,-537.5 743,-461.5 205,-461.5"/>
<text text-anchor="start" x="442.5" y="-524.3" font-family="Times,serif" font-style="italic" font-size="14.00">Methods</text>
<text text-anchor="start" x="208" y="-510.3" font-family="Times,serif" font-size="14.00">yaml(&lt;DeploymentResourceYamlRequest&gt; steps, &lt;String&gt; type):String[]</text>
<text text-anchor="start" x="208" y="-496.3" font-family="Times,serif" font-size="14.00">start(&lt;DeploymentResourceYamlRequest&gt; steps):String</text>
<text text-anchor="start" x="208" y="-482.3" font-family="Times,serif" font-size="14.00">integrations():String</text>
<text text-anchor="start" x="208" y="-468.3" font-family="Times,serif" font-size="14.00">stop():String</text>
<polygon fill="none" stroke="black" points="204,-461 204,-560 744,-560 744,-461 204,-461"/>
</g>
<!-- DeploymentService -->
<g id="node2" class="node">
<title>DeploymentService</title>
<polygon fill="none" stroke="black" points="294,-673.5 294,-694.5 654,-694.5 654,-673.5 294,-673.5"/>
<text text-anchor="start" x="398" y="-681.3" font-family="Times,serif" font-weight="bold" font-size="14.00">DeploymentService</text>
<polygon fill="none" stroke="black" points="294,-639.5 294,-673.5 654,-673.5 654,-639.5 294,-639.5"/>
<text text-anchor="start" x="442.5" y="-660.3" font-family="Times,serif" font-style="italic" font-size="14.00">Methods</text>
<text text-anchor="start" x="297" y="-646.3" font-family="Times,serif" font-size="14.00">yaml(&lt;List[Step]&gt; steps, &lt;String&gt; name):String</text>
<polygon fill="none" stroke="black" points="293,-639 293,-696 655,-696 655,-639 293,-639"/>
</g>
<!-- DeploymentService&#45;&gt;DeploymentResource -->
<g id="edge1" class="edge">
<title>DeploymentService&#45;&gt;DeploymentResource</title>
<path fill="none" stroke="black" d="M474,-634.76C474,-617.88 474,-596.5 474,-576.3"/>
<polygon fill="black" stroke="black" points="474,-576.25 470,-570.25 474,-564.25 478,-570.25 474,-576.25"/>
<text text-anchor="middle" x="460" y="-623.56" font-family="Times,serif" font-size="14.00">0..1</text>
</g>
<!-- StepResource -->
<g id="node3" class="node">
<title>StepResource</title>
<polygon fill="none" stroke="black" points="1951,-701.5 1951,-722.5 2320,-722.5 2320,-701.5 1951,-701.5"/>
<text text-anchor="start" x="2081" y="-709.3" font-family="Times,serif" font-weight="bold" font-size="14.00">StepResource</text>
<polygon fill="none" stroke="black" points="1951,-611.5 1951,-701.5 2320,-701.5 2320,-611.5 1951,-611.5"/>
<text text-anchor="start" x="2104" y="-688.3" font-family="Times,serif" font-style="italic" font-size="14.00">Methods</text>
<text text-anchor="start" x="1954" y="-674.3" font-family="Times,serif" font-size="14.00">stepById(&lt;String&gt; id):Step</text>
<text text-anchor="start" x="1954" y="-660.3" font-family="Times,serif" font-size="14.00">stepsByName(&lt;String&gt; name):List[Step]</text>
<text text-anchor="start" x="1954" y="-646.3" font-family="Times,serif" font-size="14.00">stepsByKind(&lt;String&gt; type):List[Step]</text>
<text text-anchor="start" x="1954" y="-632.3" font-family="Times,serif" font-size="14.00">stepsByIntegrationType(&lt;String&gt; type):List[Step]</text>
<text text-anchor="start" x="1954" y="-618.3" font-family="Times,serif" font-size="14.00">allSteps():List[Step]</text>
<polygon fill="none" stroke="black" points="1949.5,-611 1949.5,-724 2320.5,-724 2320.5,-611 1949.5,-611"/>
</g>
<!-- StepCatalog -->
<g id="node4" class="node">
<title>StepCatalog</title>
<polygon fill="none" stroke="black" points="2084,-499.5 2084,-520.5 2186,-520.5 2186,-499.5 2084,-499.5"/>
<text text-anchor="start" x="2087" y="-507.3" font-family="Times,serif" font-weight="bold" font-size="14.00">StepCatalog</text>
<polygon fill="none" stroke="black" points="2083,-499 2083,-522 2187,-522 2187,-499 2083,-499"/>
</g>
<!-- StepResource&#45;&gt;StepCatalog -->
<g id="edge2" class="edge">
<title>StepResource&#45;&gt;StepCatalog</title>
<path fill="none" stroke="black" stroke-dasharray="5,2" d="M2135,-606.57C2135,-583.22 2135,-557.61 2135,-538.86"/>
<polygon fill="black" stroke="black" points="2135,-528.68 2139.5,-538.68 2135,-533.68 2135,-538.68 2135,-538.68 2135,-538.68 2135,-533.68 2130.5,-538.68 2135,-528.68 2135,-528.68"/>
</g>
<!-- AbstractCatalog -->
<g id="node9" class="node">
<title>AbstractCatalog</title>
<polygon fill="none" stroke="black" points="2149,-380.5 2149,-401.5 2427,-401.5 2427,-380.5 2149,-380.5"/>
<text text-anchor="start" x="2224.5" y="-388.3" font-family="Times,serif" font-weight="bold" font-size="14.00">AbstractCatalog</text>
<polygon fill="none" stroke="black" points="2149,-332.5 2149,-380.5 2427,-380.5 2427,-332.5 2149,-332.5"/>
<text text-anchor="start" x="2256.5" y="-367.3" font-family="Times,serif" font-style="italic" font-size="14.00">Methods</text>
<text text-anchor="start" x="2152" y="-353.3" font-family="Times,serif" font-size="14.00">waitForWarmUp():CompletableFuture</text>
<text text-anchor="start" x="2152" y="-339.3" font-family="Times,serif" font-size="14.00">loadParsers():List[ParseCatalog]</text>
<polygon fill="none" stroke="black" points="2148,-332 2148,-403 2428,-403 2428,-332 2148,-332"/>
</g>
<!-- StepCatalog&#45;&gt;AbstractCatalog -->
<g id="edge7" class="edge">
<title>StepCatalog&#45;&gt;AbstractCatalog</title>
<path fill="none" stroke="black" d="M2153.46,-492.49C2174.39,-473.2 2209.41,-440.93 2238.47,-414.15"/>
<polygon fill="none" stroke="black" points="2241.12,-416.46 2246.1,-407.11 2236.38,-411.31 2241.12,-416.46"/>
</g>
<!-- ViewDefinitionResource -->
<g id="node5" class="node">
<title>ViewDefinitionResource</title>
<polygon fill="none" stroke="black" points="837,-373.5 837,-394.5 1033,-394.5 1033,-373.5 837,-373.5"/>
<text text-anchor="start" x="840" y="-381.3" font-family="Times,serif" font-weight="bold" font-size="14.00">ViewDefinitionResource</text>
<polygon fill="none" stroke="black" points="837,-339.5 837,-373.5 1033,-373.5 1033,-339.5 837,-339.5"/>
<text text-anchor="start" x="903.5" y="-360.3" font-family="Times,serif" font-style="italic" font-size="14.00">Methods</text>
<text text-anchor="start" x="850.5" y="-346.3" font-family="Times,serif" font-size="14.00">views:(&lt;String&gt; yaml):</text>
<polygon fill="none" stroke="black" points="836,-339 836,-396 1034,-396 1034,-339 836,-339"/>
</g>
<!-- ViewDefinitionService -->
<g id="node6" class="node">
<title>ViewDefinitionService</title>
<polygon fill="none" stroke="black" points="779,-516.5 779,-537.5 1091,-537.5 1091,-516.5 779,-516.5"/>
<text text-anchor="start" x="848.5" y="-524.3" font-family="Times,serif" font-weight="bold" font-size="14.00">ViewDefinitionService</text>
<polygon fill="none" stroke="black" points="779,-482.5 779,-516.5 1091,-516.5 1091,-482.5 779,-482.5"/>
<text text-anchor="start" x="903.5" y="-503.3" font-family="Times,serif" font-style="italic" font-size="14.00">Methods</text>
<text text-anchor="start" x="782" y="-489.3" font-family="Times,serif" font-size="14.00">views(&lt;String&gt; yaml):List[ViewDefinition]</text>
<polygon fill="none" stroke="black" points="778,-482 778,-539 1092,-539 1092,-482 778,-482"/>
</g>
<!-- ViewDefinitionService&#45;&gt;ViewDefinitionResource -->
<g id="edge3" class="edge">
<title>ViewDefinitionService&#45;&gt;ViewDefinitionResource</title>
<path fill="none" stroke="black" d="M935,-477.86C935,-458.45 935,-433.32 935,-412.04"/>
<polygon fill="black" stroke="black" points="935,-412.04 931,-406.04 935,-400.04 939,-406.04 935,-412.04"/>
<text text-anchor="middle" x="921" y="-466.66" font-family="Times,serif" font-size="14.00">0..1</text>
</g>
<!-- StepParserService -->
<g id="node7" class="node">
<title>StepParserService</title>
<polygon fill="none" stroke="black" points="548,-380.5 548,-401.5 801,-401.5 801,-380.5 548,-380.5"/>
<text text-anchor="start" x="602" y="-388.3" font-family="Times,serif" font-weight="bold" font-size="14.00">StepParserService</text>
<polygon fill="none" stroke="black" points="548,-332.5 548,-380.5 801,-380.5 801,-332.5 548,-332.5"/>
<text text-anchor="start" x="643" y="-367.3" font-family="Times,serif" font-style="italic" font-size="14.00">Methods</text>
<text text-anchor="start" x="551" y="-353.3" font-family="Times,serif" font-size="14.00">parse(&lt;String&gt; yaml):List[Step]</text>
<text text-anchor="start" x="551" y="-339.3" font-family="Times,serif" font-size="14.00">appliesTo(&lt;String&gt; yaml):boolean</text>
<polygon fill="none" stroke="black" points="546.5,-332 546.5,-403 801.5,-403 801.5,-332 546.5,-332"/>
</g>
<!-- ViewDefinitionService&#45;&gt;StepParserService -->
<g id="edge4" class="edge">
<title>ViewDefinitionService&#45;&gt;StepParserService</title>
<path fill="none" stroke="black" stroke-dasharray="5,2" d="M876.43,-477.86C840.38,-458.38 793.68,-433.15 754.22,-411.84"/>
<polygon fill="black" stroke="black" points="745.4,-407.07 756.33,-407.87 749.8,-409.45 754.2,-411.82 754.2,-411.82 754.2,-411.82 749.8,-409.45 752.06,-415.78 745.4,-407.07 745.4,-407.07"/>
</g>
<!-- ViewDefinitionParserService -->
<g id="node8" class="node">
<title>ViewDefinitionParserService</title>
<polygon fill="none" stroke="black" points="1331,-387.5 1331,-408.5 1929,-408.5 1929,-387.5 1331,-387.5"/>
<text text-anchor="start" x="1517.5" y="-395.3" font-family="Times,serif" font-weight="bold" font-size="14.00">ViewDefinitionParserService</text>
<polygon fill="none" stroke="black" points="1331,-325.5 1331,-387.5 1929,-387.5 1929,-325.5 1331,-325.5"/>
<text text-anchor="start" x="1598.5" y="-374.3" font-family="Times,serif" font-style="italic" font-size="14.00">Methods</text>
<text text-anchor="start" x="1334" y="-360.3" font-family="Times,serif" font-size="14.00">parse(&lt;List[Step]&gt; steps):List[ViewDefinition]</text>
<text text-anchor="start" x="1334" y="-346.3" font-family="Times,serif" font-size="14.00">getViewsPerStep(&lt;List[Step]&gt; steps, &lt;ViewDefinition&gt; view):List[ViewDefinition]</text>
<text text-anchor="start" x="1334" y="-332.3" font-family="Times,serif" font-size="14.00">appliesTo(&lt;List[Step]&gt; steps, &lt;ViewDefinition&gt; viewDefinition):boolean</text>
<polygon fill="none" stroke="black" points="1330,-325 1330,-410 1930,-410 1930,-325 1330,-325"/>
</g>
<!-- ViewDefinitionService&#45;&gt;ViewDefinitionParserService -->
<g id="edge5" class="edge">
<title>ViewDefinitionService&#45;&gt;ViewDefinitionParserService</title>
<path fill="none" stroke="black" stroke-dasharray="5,2" d="M1090.54,-477.94C1180.28,-459.74 1294.92,-436.48 1395.42,-416.09"/>
<polygon fill="black" stroke="black" points="1405.41,-414.06 1396.5,-420.46 1400.51,-415.06 1395.61,-416.05 1395.61,-416.05 1395.61,-416.05 1400.51,-415.06 1394.71,-411.64 1405.41,-414.06 1405.41,-414.06"/>
</g>
<!-- Step -->
<g id="node25" class="node">
<title>Step</title>
<polygon fill="none" stroke="black" points="571,-251.5 571,-272.5 777,-272.5 777,-251.5 571,-251.5"/>
<text text-anchor="start" x="656" y="-259.3" font-family="Times,serif" font-weight="bold" font-size="14.00">Step</text>
<polygon fill="none" stroke="black" points="571,-133.5 571,-251.5 777,-251.5 777,-133.5 571,-133.5"/>
<text text-anchor="start" x="636" y="-238.3" font-family="Times,serif" font-style="italic" font-size="14.00">Properties</text>
<text text-anchor="start" x="574" y="-224.3" font-family="Times,serif" font-size="14.00">description:String</text>
<text text-anchor="start" x="574" y="-210.3" font-family="Times,serif" font-size="14.00">title:String</text>
<text text-anchor="start" x="574" y="-196.3" font-family="Times,serif" font-size="14.00">parameters:List[Parameter]</text>
<text text-anchor="start" x="574" y="-182.3" font-family="Times,serif" font-size="14.00">icon:String</text>
<text text-anchor="start" x="574" y="-168.3" font-family="Times,serif" font-size="14.00">UUID:String</text>
<text text-anchor="start" x="574" y="-154.3" font-family="Times,serif" font-size="14.00">group:String</text>
<text text-anchor="start" x="574" y="-140.3" font-family="Times,serif" font-size="14.00">kind:String</text>
<polygon fill="none" stroke="black" points="570,-133 570,-274 778,-274 778,-133 570,-133"/>
</g>
<!-- StepParserService&#45;&gt;Step -->
<g id="edge23" class="edge">
<title>StepParserService&#45;&gt;Step</title>
<path fill="none" stroke="black" stroke-dasharray="5,2" d="M674,-327.7C674,-315.72 674,-302.04 674,-288.25"/>
<polygon fill="black" stroke="black" points="674,-278.21 678.5,-288.21 674,-283.21 674,-288.21 674,-288.21 674,-288.21 674,-283.21 669.5,-288.21 674,-278.21 674,-278.21"/>
</g>
<!-- ViewDefinition -->
<g id="node26" class="node">
<title>ViewDefinition</title>
<polygon fill="none" stroke="black" points="1252,-230.5 1252,-251.5 1561,-251.5 1561,-230.5 1252,-230.5"/>
<text text-anchor="start" x="1348.5" y="-238.3" font-family="Times,serif" font-weight="bold" font-size="14.00">ViewDefinition</text>
<polygon fill="none" stroke="black" points="1252,-154.5 1252,-230.5 1561,-230.5 1561,-154.5 1252,-154.5"/>
<text text-anchor="start" x="1368.5" y="-217.3" font-family="Times,serif" font-style="italic" font-size="14.00">Properties</text>
<text text-anchor="start" x="1255" y="-203.3" font-family="Times,serif" font-size="14.00">properties:Map[String, String]</text>
<text text-anchor="start" x="1255" y="-189.3" font-family="Times,serif" font-size="14.00">step:Step</text>
<text text-anchor="start" x="1255" y="-175.3" font-family="Times,serif" font-size="14.00">url:String</text>
<text text-anchor="start" x="1255" y="-161.3" font-family="Times,serif" font-size="14.00">constraints:List[ViewDefinitionConstraint]</text>
<polygon fill="none" stroke="black" points="1250.5,-154 1250.5,-253 1561.5,-253 1561.5,-154 1250.5,-154"/>
</g>
<!-- ViewDefinitionParserService&#45;&gt;ViewDefinition -->
<g id="edge24" class="edge">
<title>ViewDefinitionParserService&#45;&gt;ViewDefinition</title>
<path fill="none" stroke="black" stroke-dasharray="5,2" d="M1567.01,-320.94C1542.25,-303.04 1513.52,-282.26 1487.24,-263.25"/>
<polygon fill="black" stroke="black" points="1478.8,-257.15 1489.54,-259.36 1482.85,-260.08 1486.9,-263.01 1486.9,-263.01 1486.9,-263.01 1482.85,-260.08 1484.26,-266.66 1478.8,-257.15 1478.8,-257.15"/>
</g>
<!-- MetadataCatalog -->
<g id="node10" class="node">
<title>MetadataCatalog</title>
<polygon fill="none" stroke="black" points="1992,-230.5 1992,-251.5 2335,-251.5 2335,-230.5 1992,-230.5"/>
<text text-anchor="start" x="2095.5" y="-238.3" font-family="Times,serif" font-weight="bold" font-size="14.00">MetadataCatalog</text>
<polygon fill="none" stroke="black" points="1992,-154.5 1992,-230.5 2335,-230.5 2335,-154.5 1992,-154.5"/>
<text text-anchor="start" x="2132" y="-217.3" font-family="Times,serif" font-style="italic" font-size="14.00">Methods</text>
<text text-anchor="start" x="1995" y="-203.3" font-family="Times,serif" font-size="14.00">searchStepByID(&lt;String&gt; id):Metadata</text>
<text text-anchor="start" x="1995" y="-189.3" font-family="Times,serif" font-size="14.00">searchStepByName(&lt;String&gt; name):Metadata</text>
<text text-anchor="start" x="1995" y="-175.3" font-family="Times,serif" font-size="14.00">store(&lt;List[Step]&gt; steps):boolean</text>
<text text-anchor="start" x="1995" y="-161.3" font-family="Times,serif" font-size="14.00">getAll():List[Metadata]</text>
<polygon fill="none" stroke="black" points="1990.5,-154 1990.5,-253 2335.5,-253 2335.5,-154 1990.5,-154"/>
</g>
<!-- AbstractCatalog&#45;&gt;MetadataCatalog -->
<g id="edge6" class="edge">
<title>AbstractCatalog&#45;&gt;MetadataCatalog</title>
<path fill="none" stroke="black" stroke-dasharray="5,2" d="M2258.06,-327.7C2243.59,-308.94 2225.88,-285.99 2209.69,-265.01"/>
<polygon fill="black" stroke="black" points="2203.57,-257.07 2213.24,-262.24 2206.62,-261.03 2209.68,-264.99 2209.68,-264.99 2209.68,-264.99 2206.62,-261.03 2206.11,-267.74 2203.57,-257.07 2203.57,-257.07"/>
</g>
<!-- Metadata -->
<g id="node16" class="node">
<title>Metadata</title>
<polygon fill="none" stroke="black" points="1359,-66.5 1359,-87.5 1454,-87.5 1454,-66.5 1359,-66.5"/>
<text text-anchor="start" x="1368.5" y="-74.3" font-family="Times,serif" font-weight="bold" font-size="14.00">Metadata</text>
<polygon fill="none" stroke="black" points="1359,-4.5 1359,-66.5 1454,-66.5 1454,-4.5 1359,-4.5"/>
<text text-anchor="start" x="1368.5" y="-53.3" font-family="Times,serif" font-style="italic" font-size="14.00">Properties</text>
<text text-anchor="start" x="1362" y="-39.3" font-family="Times,serif" font-size="14.00">ID:String</text>
<text text-anchor="start" x="1362" y="-25.3" font-family="Times,serif" font-size="14.00">name:String</text>
<text text-anchor="start" x="1362" y="-11.3" font-family="Times,serif" font-size="14.00">type:String</text>
<polygon fill="none" stroke="black" points="1357.5,-4 1357.5,-89 1454.5,-89 1454.5,-4 1357.5,-4"/>
</g>
<!-- MetadataCatalog&#45;&gt;Metadata -->
<g id="edge10" class="edge">
<title>MetadataCatalog&#45;&gt;Metadata</title>
<path fill="none" stroke="black" stroke-dasharray="5,2" d="M1982.16,-165.47C1818.29,-131.92 1585.7,-84.29 1472.73,-61.16"/>
<polygon fill="black" stroke="black" points="1462.83,-59.14 1473.53,-56.73 1467.73,-60.14 1472.63,-61.14 1472.63,-61.14 1472.63,-61.14 1467.73,-60.14 1471.73,-65.55 1462.83,-59.14 1462.83,-59.14"/>
</g>
<!-- ViewDefinitionCatalog -->
<g id="node11" class="node">
<title>ViewDefinitionCatalog</title>
<polygon fill="none" stroke="black" points="2222,-499.5 2222,-520.5 2404,-520.5 2404,-499.5 2222,-499.5"/>
<text text-anchor="start" x="2225" y="-507.3" font-family="Times,serif" font-weight="bold" font-size="14.00">ViewDefinitionCatalog</text>
<polygon fill="none" stroke="black" points="2221,-499 2221,-522 2405,-522 2405,-499 2221,-499"/>
</g>
<!-- ViewDefinitionCatalog&#45;&gt;AbstractCatalog -->
<g id="edge8" class="edge">
<title>ViewDefinitionCatalog&#45;&gt;AbstractCatalog</title>
<path fill="none" stroke="black" d="M2309.98,-492.49C2306.69,-473.93 2301.28,-443.38 2296.64,-417.25"/>
<polygon fill="none" stroke="black" points="2300.04,-416.35 2294.85,-407.11 2293.15,-417.57 2300.04,-416.35"/>
</g>
<!-- KameletParseCatalog -->
<g id="node12" class="node">
<title>KameletParseCatalog</title>
<polygon fill="none" stroke="black" points="2447,-656.5 2447,-677.5 2624,-677.5 2624,-656.5 2447,-656.5"/>
<text text-anchor="start" x="2450" y="-664.3" font-family="Times,serif" font-weight="bold" font-size="14.00">KameletParseCatalog</text>
<polygon fill="none" stroke="black" points="2445.5,-656 2445.5,-679 2624.5,-679 2624.5,-656 2445.5,-656"/>
</g>
<!-- ParseCatalog -->
<g id="node13" class="node">
<title>ParseCatalog</title>
<polygon fill="none" stroke="black" points="2643,-523.5 2643,-544.5 2975,-544.5 2975,-523.5 2643,-523.5"/>
<text text-anchor="start" x="2756.5" y="-531.3" font-family="Times,serif" font-weight="bold" font-size="14.00">ParseCatalog</text>
<polygon fill="none" stroke="black" points="2643,-475.5 2643,-523.5 2975,-523.5 2975,-475.5 2643,-475.5"/>
<text text-anchor="start" x="2777.5" y="-510.3" font-family="Times,serif" font-style="italic" font-size="14.00">Methods</text>
<text text-anchor="start" x="2646" y="-496.3" font-family="Times,serif" font-size="14.00">parse():CompletableFuture[List[T]]</text>
<text text-anchor="start" x="2646" y="-482.3" font-family="Times,serif" font-size="14.00">setFileVisitor(&lt;YamlProcessFile&gt; fileVisitor):</text>
<polygon fill="none" stroke="black" points="2642,-475 2642,-546 2976,-546 2976,-475 2642,-475"/>
</g>
<!-- KameletParseCatalog&#45;&gt;ParseCatalog -->
<g id="edge9" class="edge">
<title>KameletParseCatalog&#45;&gt;ParseCatalog</title>
<path fill="none" stroke="black" stroke-dasharray="5,2" d="M2561.52,-649.31C2582.98,-635.57 2614.13,-616.02 2642,-600 2668.58,-584.72 2698.01,-568.81 2724.66,-554.75"/>
<polygon fill="black" stroke="black" points="2733.58,-550.06 2726.82,-558.7 2729.16,-552.39 2724.73,-554.72 2724.73,-554.72 2724.73,-554.72 2729.16,-552.39 2722.64,-550.73 2733.58,-550.06 2733.58,-550.06"/>
</g>
<!-- Kamelet -->
<g id="node14" class="node">
<title>Kamelet</title>
<polygon fill="none" stroke="black" points="3264,-656.5 3264,-677.5 3337,-677.5 3337,-656.5 3264,-656.5"/>
<text text-anchor="start" x="3267" y="-664.3" font-family="Times,serif" font-weight="bold" font-size="14.00">Kamelet</text>
<polygon fill="none" stroke="black" points="3262.5,-656 3262.5,-679 3337.5,-679 3337.5,-656 3262.5,-656"/>
</g>
<!-- KameletBinding -->
<g id="node15" class="node">
<title>KameletBinding</title>
<polygon fill="none" stroke="black" points="3373,-656.5 3373,-677.5 3509,-677.5 3509,-656.5 3373,-656.5"/>
<text text-anchor="start" x="3376" y="-664.3" font-family="Times,serif" font-weight="bold" font-size="14.00">KameletBinding</text>
<polygon fill="none" stroke="black" points="3372,-656 3372,-679 3510,-679 3510,-656 3372,-656"/>
</g>
<!-- CatalogCollection -->
<g id="node17" class="node">
<title>CatalogCollection</title>
<polygon fill="none" stroke="black" points="2463,-356.5 2463,-377.5 2609,-377.5 2609,-356.5 2463,-356.5"/>
<text text-anchor="start" x="2466" y="-364.3" font-family="Times,serif" font-weight="bold" font-size="14.00">CatalogCollection</text>
<polygon fill="none" stroke="black" points="2462,-356 2462,-379 2610,-379 2610,-356 2462,-356"/>
</g>
<!-- CatalogCollection&#45;&gt;MetadataCatalog -->
<g id="edge11" class="edge">
<title>CatalogCollection&#45;&gt;MetadataCatalog</title>
<path fill="none" stroke="black" d="M2508.71,-349.29C2490.94,-338.45 2467.04,-324.56 2445,-314 2405.34,-295 2361.46,-276.71 2320.36,-260.71"/>
<polygon fill="none" stroke="black" points="2321.4,-257.36 2310.81,-257.01 2318.87,-263.89 2321.4,-257.36"/>
</g>
<!-- InMemoryCatalog -->
<g id="node18" class="node">
<title>InMemoryCatalog</title>
<polygon fill="none" stroke="black" points="1965,-356.5 1965,-377.5 2113,-377.5 2113,-356.5 1965,-356.5"/>
<text text-anchor="start" x="1968" y="-364.3" font-family="Times,serif" font-weight="bold" font-size="14.00">InMemoryCatalog</text>
<polygon fill="none" stroke="black" points="1964,-356 1964,-379 2114,-379 2114,-356 1964,-356"/>
</g>
<!-- InMemoryCatalog&#45;&gt;MetadataCatalog -->
<g id="edge12" class="edge">
<title>InMemoryCatalog&#45;&gt;MetadataCatalog</title>
<path fill="none" stroke="black" d="M2052.04,-349.47C2067.33,-329.48 2093.55,-295.23 2116.66,-265.04"/>
<polygon fill="none" stroke="black" points="2119.47,-267.13 2122.77,-257.06 2113.91,-262.87 2119.47,-267.13"/>
</g>
<!-- ReadOnlyCatalog -->
<g id="node19" class="node">
<title>ReadOnlyCatalog</title>
<polygon fill="none" stroke="black" points="2465,-499.5 2465,-520.5 2607,-520.5 2607,-499.5 2465,-499.5"/>
<text text-anchor="start" x="2468" y="-507.3" font-family="Times,serif" font-weight="bold" font-size="14.00">ReadOnlyCatalog</text>
<polygon fill="none" stroke="black" points="2464,-499 2464,-522 2608,-522 2608,-499 2464,-499"/>
</g>
<!-- ReadOnlyCatalog&#45;&gt;CatalogCollection -->
<g id="edge13" class="edge">
<title>ReadOnlyCatalog&#45;&gt;CatalogCollection</title>
<path fill="none" stroke="black" d="M2536,-492.49C2536,-468.46 2536,-424.31 2536,-395.7"/>
<polygon fill="none" stroke="black" points="2539.5,-395.57 2536,-385.57 2532.5,-395.57 2539.5,-395.57"/>
</g>
<!-- GitParseCatalog -->
<g id="node20" class="node">
<title>GitParseCatalog</title>
<polygon fill="none" stroke="black" points="3093,-656.5 3093,-677.5 3228,-677.5 3228,-656.5 3093,-656.5"/>
<text text-anchor="start" x="3096" y="-664.3" font-family="Times,serif" font-weight="bold" font-size="14.00">GitParseCatalog</text>
<polygon fill="none" stroke="black" points="3091.5,-656 3091.5,-679 3228.5,-679 3228.5,-656 3091.5,-656"/>
</g>
<!-- GitParseCatalog&#45;&gt;ParseCatalog -->
<g id="edge14" class="edge">
<title>GitParseCatalog&#45;&gt;ParseCatalog</title>
<path fill="none" stroke="black" d="M3141.81,-649.47C3125.22,-634.69 3099.48,-613.6 3074,-600 3039.63,-581.66 3000.74,-566.11 2963.55,-553.41"/>
<polygon fill="none" stroke="black" points="2964.22,-549.95 2953.62,-550.08 2961.99,-556.58 2964.22,-549.95"/>
</g>
<!-- YamlProcessFile -->
<g id="node21" class="node">
<title>YamlProcessFile</title>
<polygon fill="none" stroke="black" points="3093,-499.5 3093,-520.5 3228,-520.5 3228,-499.5 3093,-499.5"/>
<text text-anchor="start" x="3096" y="-507.3" font-family="Times,serif" font-weight="bold" font-size="14.00">YamlProcessFile</text>
<polygon fill="none" stroke="black" points="3091.5,-499 3091.5,-522 3228.5,-522 3228.5,-499 3091.5,-499"/>
</g>
<!-- GitParseCatalog&#45;&gt;YamlProcessFile -->
<g id="edge15" class="edge">
<title>GitParseCatalog&#45;&gt;YamlProcessFile</title>
<path fill="none" stroke="black" stroke-dasharray="5,2" d="M3155.57,-649.32C3152.79,-622.55 3152.51,-570.66 3154.72,-538.75"/>
<polygon fill="black" stroke="black" points="3155.56,-528.76 3159.2,-539.1 3155.14,-533.74 3154.72,-538.72 3154.72,-538.72 3154.72,-538.72 3155.14,-533.74 3150.23,-538.34 3155.56,-528.76 3155.56,-528.76"/>
</g>
<!-- YamlProcessFile&#45;&gt;GitParseCatalog -->
<g id="edge17" class="edge">
<title>YamlProcessFile&#45;&gt;GitParseCatalog</title>
<path fill="none" stroke="black" stroke-dasharray="5,2" d="M3164.44,-528.76C3167.21,-555.57 3167.49,-607.47 3165.28,-639.34"/>
<polygon fill="black" stroke="black" points="3164.43,-649.32 3160.79,-638.98 3164.85,-644.34 3165.28,-639.36 3165.28,-639.36 3165.28,-639.36 3164.85,-644.34 3169.76,-639.74 3164.43,-649.32 3164.43,-649.32"/>
</g>
<!-- JarParseCatalog -->
<g id="node22" class="node">
<title>JarParseCatalog</title>
<polygon fill="none" stroke="black" points="2660,-656.5 2660,-677.5 2794,-677.5 2794,-656.5 2660,-656.5"/>
<text text-anchor="start" x="2663" y="-664.3" font-family="Times,serif" font-weight="bold" font-size="14.00">JarParseCatalog</text>
<polygon fill="none" stroke="black" points="2659,-656 2659,-679 2795,-679 2795,-656 2659,-656"/>
</g>
<!-- JarParseCatalog&#45;&gt;ParseCatalog -->
<g id="edge16" class="edge">
<title>JarParseCatalog&#45;&gt;ParseCatalog</title>
<path fill="none" stroke="black" d="M2736.09,-649.32C2747.55,-627.65 2767.72,-589.53 2783.94,-558.86"/>
<polygon fill="none" stroke="black" points="2787.04,-560.5 2788.62,-550.02 2780.85,-557.23 2787.04,-560.5"/>
</g>
<!-- ViewDefinitionParseCatalog -->
<g id="node23" class="node">
<title>ViewDefinitionParseCatalog</title>
<polygon fill="none" stroke="black" points="2830,-656.5 2830,-677.5 3056,-677.5 3056,-656.5 2830,-656.5"/>
<text text-anchor="start" x="2833" y="-664.3" font-family="Times,serif" font-weight="bold" font-size="14.00">ViewDefinitionParseCatalog</text>
<polygon fill="none" stroke="black" points="2829,-656 2829,-679 3057,-679 3057,-656 2829,-656"/>
</g>
<!-- ViewDefinitionParseCatalog&#45;&gt;ParseCatalog -->
<g id="edge18" class="edge">
<title>ViewDefinitionParseCatalog&#45;&gt;ParseCatalog</title>
<path fill="none" stroke="black" stroke-dasharray="5,2" d="M2928.15,-649.32C2909.18,-627.38 2875.61,-588.55 2848.93,-557.68"/>
<polygon fill="black" stroke="black" points="2842.3,-550.02 2852.25,-554.65 2845.57,-553.81 2848.84,-557.59 2848.84,-557.59 2848.84,-557.59 2845.57,-553.81 2845.44,-560.53 2842.3,-550.02 2842.3,-550.02"/>
</g>
<!-- Parameter -->
<g id="node24" class="node">
<title>Parameter</title>
<polygon fill="none" stroke="black" points="3545,-708.5 3545,-729.5 3681,-729.5 3681,-708.5 3545,-708.5"/>
<text text-anchor="start" x="3571" y="-716.3" font-family="Times,serif" font-weight="bold" font-size="14.00">Parameter</text>
<polygon fill="none" stroke="black" points="3545,-604.5 3545,-708.5 3681,-708.5 3681,-604.5 3545,-604.5"/>
<text text-anchor="start" x="3575" y="-695.3" font-family="Times,serif" font-style="italic" font-size="14.00">Properties</text>
<text text-anchor="start" x="3548" y="-681.3" font-family="Times,serif" font-size="14.00">description:String</text>
<text text-anchor="start" x="3548" y="-667.3" font-family="Times,serif" font-size="14.00">label:String</text>
<text text-anchor="start" x="3548" y="-653.3" font-family="Times,serif" font-size="14.00">id:String</text>
<text text-anchor="start" x="3548" y="-639.3" font-family="Times,serif" font-size="14.00">value:String</text>
<text text-anchor="start" x="3548" y="-625.3" font-family="Times,serif" font-size="14.00">default:String</text>
<text text-anchor="start" x="3548" y="-611.3" font-family="Times,serif" font-size="14.00">type:String</text>
<polygon fill="none" stroke="black" points="3544,-604 3544,-731 3682,-731 3682,-604 3544,-604"/>
</g>
<!-- Step&#45;&gt;Metadata -->
<g id="edge19" class="edge">
<title>Step&#45;&gt;Metadata</title>
<path fill="none" stroke="black" d="M786.37,-178.71C940.89,-145.99 1214.07,-88.14 1339.57,-61.57"/>
<polygon fill="none" stroke="black" points="1340.38,-64.97 1349.43,-59.48 1338.93,-58.13 1340.38,-64.97"/>
</g>
<!-- ViewDefinition&#45;&gt;Metadata -->
<g id="edge20" class="edge">
<title>ViewDefinition&#45;&gt;Metadata</title>
<path fill="none" stroke="black" d="M1406,-149.59C1406,-134.7 1406,-118.45 1406,-103.39"/>
<polygon fill="none" stroke="black" points="1409.5,-103.19 1406,-93.19 1402.5,-103.19 1409.5,-103.19"/>
</g>
<!-- ViewDefinitionConstraint -->
<g id="node27" class="node">
<title>ViewDefinitionConstraint</title>
<polygon fill="none" stroke="black" points="1069,-387.5 1069,-408.5 1295,-408.5 1295,-387.5 1069,-387.5"/>
<text text-anchor="start" x="1081.5" y="-395.3" font-family="Times,serif" font-weight="bold" font-size="14.00">ViewDefinitionConstraint</text>
<polygon fill="none" stroke="black" points="1069,-325.5 1069,-387.5 1295,-387.5 1295,-325.5 1069,-325.5"/>
<text text-anchor="start" x="1144" y="-374.3" font-family="Times,serif" font-style="italic" font-size="14.00">Properties</text>
<text text-anchor="start" x="1072" y="-360.3" font-family="Times,serif" font-size="14.00">mandatory:boolean</text>
<text text-anchor="start" x="1072" y="-346.3" font-family="Times,serif" font-size="14.00">operation:ConstraintOperation</text>
<text text-anchor="start" x="1072" y="-332.3" font-family="Times,serif" font-size="14.00">parameter:String</text>
<polygon fill="none" stroke="black" points="1068,-325 1068,-410 1296,-410 1296,-325 1068,-325"/>
</g>
<!-- ViewDefinitionConstraint&#45;&gt;ViewDefinition -->
<g id="edge21" class="edge">
<title>ViewDefinitionConstraint&#45;&gt;ViewDefinition</title>
<path fill="none" stroke="black" d="M1244.99,-320.94C1269.32,-303.35 1297.49,-282.98 1323.39,-264.24"/>
<polygon fill="black" stroke="black" points="1323.48,-264.18 1326,-257.42 1333.2,-257.15 1330.68,-263.91 1323.48,-264.18"/>
<text text-anchor="middle" x="1230.99" y="-309.74" font-family="Times,serif" font-size="14.00">0..n</text>
</g>
<!-- DeploymentGeneratorService -->
<g id="node28" class="node">
<title>DeploymentGeneratorService</title>
<polygon fill="none" stroke="black" points="9,-394.5 9,-415.5 511,-415.5 511,-394.5 9,-394.5"/>
<text text-anchor="start" x="144" y="-402.3" font-family="Times,serif" font-weight="bold" font-size="14.00">DeploymentGeneratorService</text>
<polygon fill="none" stroke="black" points="9,-318.5 9,-394.5 511,-394.5 511,-318.5 9,-318.5"/>
<text text-anchor="start" x="228.5" y="-381.3" font-family="Times,serif" font-style="italic" font-size="14.00">Methods</text>
<text text-anchor="start" x="12" y="-367.3" font-family="Times,serif" font-size="14.00">identifier():String</text>
<text text-anchor="start" x="12" y="-353.3" font-family="Times,serif" font-size="14.00">parse(&lt;String&gt; name, &lt;List[Step]&gt; steps, &lt;Map&gt; metadata):String</text>
<text text-anchor="start" x="12" y="-339.3" font-family="Times,serif" font-size="14.00">appliesTo(&lt;List[Step]&gt; steps):boolean</text>
<text text-anchor="start" x="12" y="-325.3" font-family="Times,serif" font-size="14.00">getKinds():String[]</text>
<polygon fill="none" stroke="black" points="8,-318 8,-417 512,-417 512,-318 8,-318"/>
</g>
<!-- DeploymentGeneratorService&#45;&gt;Step -->
<g id="edge22" class="edge">
<title>DeploymentGeneratorService&#45;&gt;Step</title>
<path fill="none" stroke="black" stroke-dasharray="5,2" d="M394.41,-313.9C445.21,-294.03 502.68,-271.54 552.25,-252.14"/>
<polygon fill="black" stroke="black" points="561.73,-248.43 554.06,-256.27 557.07,-250.25 552.42,-252.08 552.42,-252.08 552.42,-252.08 557.07,-250.25 550.78,-247.89 561.73,-248.43 561.73,-248.43"/>
</g>
</g>
</svg>
