<?xml version="1.0" encoding="UTF-8" standalone="no"?>
<!DOCTYPE svg PUBLIC "-//W3C//DTD SVG 1.1//EN"
 "http://www.w3.org/Graphics/SVG/1.1/DTD/svg11.dtd">
<!-- Generated by graphviz version 2.43.0 (0)
 -->
<!-- Title: ClassDiagram Pages: 1 -->
<svg width="4457pt" height="812pt"
 viewBox="0.00 0.00 4457.00 812.00" xmlns="http://www.w3.org/2000/svg" xmlns:xlink="http://www.w3.org/1999/xlink">
<g id="graph0" class="graph" transform="scale(1 1) rotate(0) translate(4 808)">
<title>ClassDiagram</title>
<polygon fill="white" stroke="transparent" points="-4,4 -4,-808 4453,-808 4453,4 -4,4"/>
<!-- CapabilitiesResource -->
<g id="node1" class="node">
<title>CapabilitiesResource</title>
<polygon fill="none" stroke="black" points="9,-515.5 9,-536.5 183,-536.5 183,-515.5 9,-515.5"/>
<text text-anchor="start" x="12" y="-523.3" font-family="Times,serif" font-weight="bold" font-size="14.00">CapabilitiesResource</text>
<polygon fill="none" stroke="black" points="9,-481.5 9,-515.5 183,-515.5 183,-481.5 9,-481.5"/>
<text text-anchor="start" x="64.5" y="-502.3" font-family="Times,serif" font-style="italic" font-size="14.00">Methods</text>
<text text-anchor="start" x="25" y="-488.3" font-family="Times,serif" font-size="14.00">getAll():Capabilities</text>
<polygon fill="none" stroke="black" points="8,-481 8,-538 184,-538 184,-481 8,-481"/>
</g>
<!-- LanguageService -->
<g id="node2" class="node">
<title>LanguageService</title>
<text text-anchor="middle" x="96" y="-697.8" font-family="Times,serif" font-size="14.00">LanguageService</text>
</g>
<!-- LanguageService&#45;&gt;CapabilitiesResource -->
<g id="edge1" class="edge">
<title>LanguageService&#45;&gt;CapabilitiesResource</title>
<path fill="none" stroke="black" d="M96,-683.3C96,-654.41 96,-595.27 96,-554.28"/>
<polygon fill="black" stroke="black" points="96,-554.2 92,-548.2 96,-542.2 100,-548.2 96,-554.2"/>
<text text-anchor="middle" x="82" y="-672.1" font-family="Times,serif" font-size="14.00">0..1</text>
</g>
<!-- DeploymentsResource -->
<g id="node3" class="node">
<title>DeploymentsResource</title>
<polygon fill="none" stroke="black" points="193,-735.5 193,-756.5 679,-756.5 679,-735.5 193,-735.5"/>
<text text-anchor="start" x="347.5" y="-743.3" font-family="Times,serif" font-weight="bold" font-size="14.00">DeploymentsResource</text>
<polygon fill="none" stroke="black" points="193,-645.5 193,-735.5 679,-735.5 679,-645.5 193,-645.5"/>
<text text-anchor="start" x="404.5" y="-722.3" font-family="Times,serif" font-style="italic" font-size="14.00">Methods</text>
<text text-anchor="start" x="196" y="-708.3" font-family="Times,serif" font-size="14.00">all(&lt;String&gt; namespace):String</text>
<text text-anchor="start" x="196" y="-694.3" font-family="Times,serif" font-size="14.00">start(&lt;String&gt; crd, &lt;String&gt; namespace, &lt;String&gt; name):String</text>
<text text-anchor="start" x="196" y="-680.3" font-family="Times,serif" font-size="14.00">get(&lt;String&gt; name, &lt;String&gt; type, &lt;String&gt; namespace):String</text>
<text text-anchor="start" x="196" y="-666.3" font-family="Times,serif" font-size="14.00">stop(&lt;String&gt; name, &lt;String&gt; type, &lt;String&gt; namespace):String</text>
<text text-anchor="start" x="196" y="-652.3" font-family="Times,serif" font-size="14.00">logs(&lt;String&gt; name, &lt;String&gt; namespace):String</text>
<polygon fill="none" stroke="black" points="192,-645 192,-758 680,-758 680,-645 192,-645"/>
</g>
<!-- IntegrationsResource -->
<g id="node4" class="node">
<title>IntegrationsResource</title>
<polygon fill="none" stroke="black" points="600,-529.5 600,-550.5 968,-550.5 968,-529.5 600,-529.5"/>
<text text-anchor="start" x="697.5" y="-537.3" font-family="Times,serif" font-weight="bold" font-size="14.00">IntegrationsResource</text>
<polygon fill="none" stroke="black" points="600,-467.5 600,-529.5 968,-529.5 968,-467.5 600,-467.5"/>
<text text-anchor="start" x="752.5" y="-516.3" font-family="Times,serif" font-style="italic" font-size="14.00">Methods</text>
<text text-anchor="start" x="603" y="-502.3" font-family="Times,serif" font-size="14.00">crd(&lt;String&gt; dsl, &lt;Integration&gt; integration):Map</text>
<text text-anchor="start" x="603" y="-488.3" font-family="Times,serif" font-size="14.00">integration(&lt;String&gt; dsl, &lt;String&gt; crd):Map</text>
<text text-anchor="start" x="603" y="-474.3" font-family="Times,serif" font-size="14.00">compatibleDSL(&lt;List[Step]&gt; steps):Map</text>
<polygon fill="none" stroke="black" points="599,-467 599,-552 969,-552 969,-467 599,-467"/>
</g>
<!-- DeploymentService -->
<g id="node5" class="node">
<title>DeploymentService</title>
<text text-anchor="middle" x="784" y="-697.8" font-family="Times,serif" font-size="14.00">DeploymentService</text>
</g>
<!-- DeploymentService&#45;&gt;IntegrationsResource -->
<g id="edge2" class="edge">
<title>DeploymentService&#45;&gt;IntegrationsResource</title>
<path fill="none" stroke="black" d="M784,-683.3C784,-657.61 784,-608.01 784,-568.51"/>
<polygon fill="black" stroke="black" points="784,-568.35 780,-562.35 784,-556.35 788,-562.35 784,-568.35"/>
<text text-anchor="middle" x="770" y="-672.1" font-family="Times,serif" font-size="14.00">0..1</text>
</g>
<!-- StepResource -->
<g id="node6" class="node">
<title>StepResource</title>
<polygon fill="none" stroke="black" points="889,-721.5 889,-742.5 1361,-742.5 1361,-721.5 889,-721.5"/>
<text text-anchor="start" x="1070.5" y="-729.3" font-family="Times,serif" font-weight="bold" font-size="14.00">StepResource</text>
<polygon fill="none" stroke="black" points="889,-659.5 889,-721.5 1361,-721.5 1361,-659.5 889,-659.5"/>
<text text-anchor="start" x="1093.5" y="-708.3" font-family="Times,serif" font-style="italic" font-size="14.00">Methods</text>
<text text-anchor="start" x="892" y="-694.3" font-family="Times,serif" font-size="14.00">allSteps(&lt;String&gt; type, &lt;String&gt; dsl, &lt;String&gt; kind):List[Step]</text>
<text text-anchor="start" x="892" y="-680.3" font-family="Times,serif" font-size="14.00">stepById(&lt;String&gt; id):Step</text>
<text text-anchor="start" x="892" y="-666.3" font-family="Times,serif" font-size="14.00">stepsByName(&lt;String&gt; name):List[Step]</text>
<polygon fill="none" stroke="black" points="888,-659 888,-744 1362,-744 1362,-659 888,-659"/>
</g>
<!-- StepCatalog -->
<g id="node7" class="node">
<title>StepCatalog</title>
<polygon fill="none" stroke="black" points="1074,-498.5 1074,-519.5 1176,-519.5 1176,-498.5 1074,-498.5"/>
<text text-anchor="start" x="1077" y="-506.3" font-family="Times,serif" font-weight="bold" font-size="14.00">StepCatalog</text>
<polygon fill="none" stroke="black" points="1073,-498 1073,-521 1177,-521 1177,-498 1073,-498"/>
</g>
<!-- StepResource&#45;&gt;StepCatalog -->
<g id="edge3" class="edge">
<title>StepResource&#45;&gt;StepCatalog</title>
<path fill="none" stroke="black" stroke-dasharray="5,2" d="M1125,-654.99C1125,-618.62 1125,-568.82 1125,-538.19"/>
<polygon fill="black" stroke="black" points="1125,-527.84 1129.5,-537.84 1125,-532.84 1125,-537.84 1125,-537.84 1125,-537.84 1125,-532.84 1120.5,-537.84 1125,-527.84 1125,-527.84"/>
</g>
<!-- AbstractCatalog -->
<g id="node11" class="node">
<title>AbstractCatalog</title>
<polygon fill="none" stroke="black" points="1139,-393.5 1139,-414.5 1417,-414.5 1417,-393.5 1139,-393.5"/>
<text text-anchor="start" x="1214.5" y="-401.3" font-family="Times,serif" font-weight="bold" font-size="14.00">AbstractCatalog</text>
<polygon fill="none" stroke="black" points="1139,-317.5 1139,-393.5 1417,-393.5 1417,-317.5 1139,-317.5"/>
<text text-anchor="start" x="1246.5" y="-380.3" font-family="Times,serif" font-style="italic" font-size="14.00">Methods</text>
<text text-anchor="start" x="1142" y="-366.3" font-family="Times,serif" font-size="14.00">waitForWarmUp():CompletableFuture</text>
<text text-anchor="start" x="1142" y="-352.3" font-family="Times,serif" font-size="14.00">loadParsers():List[ParseCatalog]</text>
<text text-anchor="start" x="1142" y="-338.3" font-family="Times,serif" font-size="14.00">warmUpCatalog():</text>
<text text-anchor="start" x="1142" y="-324.3" font-family="Times,serif" font-size="14.00">refresh():</text>
<polygon fill="none" stroke="black" points="1138,-317 1138,-416 1418,-416 1418,-317 1138,-317"/>
</g>
<!-- StepCatalog&#45;&gt;AbstractCatalog -->
<g id="edge6" class="edge">
<title>StepCatalog&#45;&gt;AbstractCatalog</title>
<path fill="none" stroke="black" d="M1143.46,-491.49C1160.89,-475.43 1188.08,-450.37 1213.47,-426.97"/>
<polygon fill="none" stroke="black" points="1215.94,-429.45 1220.92,-420.1 1211.2,-424.31 1215.94,-429.45"/>
</g>
<!-- ViewDefinitionResource -->
<g id="node8" class="node">
<title>ViewDefinitionResource</title>
<polygon fill="none" stroke="black" points="1633,-515.5 1633,-536.5 2101,-536.5 2101,-515.5 1633,-515.5"/>
<text text-anchor="start" x="1772" y="-523.3" font-family="Times,serif" font-weight="bold" font-size="14.00">ViewDefinitionResource</text>
<polygon fill="none" stroke="black" points="1633,-481.5 1633,-515.5 2101,-515.5 2101,-481.5 1633,-481.5"/>
<text text-anchor="start" x="1835.5" y="-502.3" font-family="Times,serif" font-style="italic" font-size="14.00">Methods</text>
<text text-anchor="start" x="1636" y="-488.3" font-family="Times,serif" font-size="14.00">viewsPerStepList:(&lt;Step[]&gt; DeploymentResourceYamlRequest):</text>
<polygon fill="none" stroke="black" points="1632,-481 1632,-538 2102,-538 2102,-481 1632,-481"/>
</g>
<!-- ViewDefinitionService -->
<g id="node9" class="node">
<title>ViewDefinitionService</title>
<text text-anchor="middle" x="1867" y="-697.8" font-family="Times,serif" font-size="14.00">ViewDefinitionService</text>
</g>
<!-- ViewDefinitionService&#45;&gt;ViewDefinitionResource -->
<g id="edge4" class="edge">
<title>ViewDefinitionService&#45;&gt;ViewDefinitionResource</title>
<path fill="none" stroke="black" d="M1867,-683.3C1867,-654.41 1867,-595.27 1867,-554.28"/>
<polygon fill="black" stroke="black" points="1867,-554.2 1863,-548.2 1867,-542.2 1871,-548.2 1867,-554.2"/>
<text text-anchor="middle" x="1853" y="-672.1" font-family="Times,serif" font-size="14.00">0..1</text>
</g>
<!-- CamelRoute -->
<g id="node10" class="node">
<title>CamelRoute</title>
<polygon fill="none" stroke="black" points="2043,-690.5 2043,-711.5 2146,-711.5 2146,-690.5 2043,-690.5"/>
<text text-anchor="start" x="2046" y="-698.3" font-family="Times,serif" font-weight="bold" font-size="14.00">CamelRoute</text>
<polygon fill="none" stroke="black" points="2041.5,-690 2041.5,-713 2146.5,-713 2146.5,-690 2041.5,-690"/>
</g>
<!-- MetadataCatalog -->
<g id="node12" class="node">
<title>MetadataCatalog</title>
<polygon fill="none" stroke="black" points="1352,-208.5 1352,-229.5 1700,-229.5 1700,-208.5 1352,-208.5"/>
<text text-anchor="start" x="1458" y="-216.3" font-family="Times,serif" font-weight="bold" font-size="14.00">MetadataCatalog</text>
<polygon fill="none" stroke="black" points="1352,-118.5 1352,-208.5 1700,-208.5 1700,-118.5 1352,-118.5"/>
<text text-anchor="start" x="1494.5" y="-195.3" font-family="Times,serif" font-style="italic" font-size="14.00">Methods</text>
<text text-anchor="start" x="1355" y="-181.3" font-family="Times,serif" font-size="14.00">searchStepByID(&lt;String&gt; id):Metadata</text>
<text text-anchor="start" x="1355" y="-167.3" font-family="Times,serif" font-size="14.00">searchByName(&lt;String&gt; name):List[Metadata]</text>
<text text-anchor="start" x="1355" y="-153.3" font-family="Times,serif" font-size="14.00">store(&lt;List[Step]&gt; steps):boolean</text>
<text text-anchor="start" x="1355" y="-139.3" font-family="Times,serif" font-size="14.00">getAll():List[Metadata]</text>
<text text-anchor="start" x="1355" y="-125.3" font-family="Times,serif" font-size="14.00">clear():void</text>
<polygon fill="none" stroke="black" points="1351,-118 1351,-231 1701,-231 1701,-118 1351,-118"/>
</g>
<!-- AbstractCatalog&#45;&gt;MetadataCatalog -->
<g id="edge5" class="edge">
<title>AbstractCatalog&#45;&gt;MetadataCatalog</title>
<path fill="none" stroke="black" stroke-dasharray="5,2" d="M1346.75,-312.83C1375.57,-290.75 1409.39,-264.84 1439.85,-241.5"/>
<polygon fill="black" stroke="black" points="1447.92,-235.32 1442.72,-244.97 1443.96,-238.36 1439.99,-241.4 1439.99,-241.4 1439.99,-241.4 1443.96,-238.36 1437.25,-237.83 1447.92,-235.32 1447.92,-235.32"/>
</g>
<!-- Metadata -->
<g id="node20" class="node">
<title>Metadata</title>
<text text-anchor="middle" x="1526" y="-14.3" font-family="Times,serif" font-size="14.00">Metadata</text>
</g>
<!-- MetadataCatalog&#45;&gt;Metadata -->
<g id="edge10" class="edge">
<title>MetadataCatalog&#45;&gt;Metadata</title>
<path fill="none" stroke="black" stroke-dasharray="5,2" d="M1526,-113.77C1526,-90.48 1526,-64.96 1526,-46.27"/>
<polygon fill="black" stroke="black" points="1526,-36.13 1530.5,-46.13 1526,-41.13 1526,-46.13 1526,-46.13 1526,-46.13 1526,-41.13 1521.5,-46.13 1526,-36.13 1526,-36.13"/>
</g>
<!-- StepCatalogParser -->
<g id="node13" class="node">
<title>StepCatalogParser</title>
<polygon fill="none" stroke="black" points="2138,-536.5 2138,-557.5 2523,-557.5 2523,-536.5 2138,-536.5"/>
<text text-anchor="start" x="2256.5" y="-544.3" font-family="Times,serif" font-weight="bold" font-size="14.00">StepCatalogParser</text>
<polygon fill="none" stroke="black" points="2138,-460.5 2138,-536.5 2523,-536.5 2523,-460.5 2138,-460.5"/>
<text text-anchor="start" x="2299" y="-523.3" font-family="Times,serif" font-style="italic" font-size="14.00">Methods</text>
<text text-anchor="start" x="2141" y="-509.3" font-family="Times,serif" font-size="14.00">getParser(&lt;String&gt; url, &lt;String&gt; tag):ParseCatalog</text>
<text text-anchor="start" x="2141" y="-495.3" font-family="Times,serif" font-size="14.00">getParserFromCluster():ParseCatalog</text>
<text text-anchor="start" x="2141" y="-481.3" font-family="Times,serif" font-size="14.00">getLocalFolder(&lt;Path&gt; path):ParseCatalog</text>
<text text-anchor="start" x="2141" y="-467.3" font-family="Times,serif" font-size="14.00">generatesKind(&lt;String&gt; kind):Boolean</text>
<polygon fill="none" stroke="black" points="2136.5,-460 2136.5,-559 2523.5,-559 2523.5,-460 2136.5,-460"/>
</g>
<!-- ViewDefinitionCatalog -->
<g id="node14" class="node">
<title>ViewDefinitionCatalog</title>
<polygon fill="none" stroke="black" points="1212,-498.5 1212,-519.5 1394,-519.5 1394,-498.5 1212,-498.5"/>
<text text-anchor="start" x="1215" y="-506.3" font-family="Times,serif" font-weight="bold" font-size="14.00">ViewDefinitionCatalog</text>
<polygon fill="none" stroke="black" points="1211,-498 1211,-521 1395,-521 1395,-498 1211,-498"/>
</g>
<!-- ViewDefinitionCatalog&#45;&gt;AbstractCatalog -->
<g id="edge7" class="edge">
<title>ViewDefinitionCatalog&#45;&gt;AbstractCatalog</title>
<path fill="none" stroke="black" d="M1299.98,-491.49C1297.26,-476.12 1293.07,-452.5 1289.08,-429.99"/>
<polygon fill="none" stroke="black" points="1292.52,-429.34 1287.33,-420.1 1285.63,-430.56 1292.52,-429.34"/>
</g>
<!-- KameletParseCatalog -->
<g id="node15" class="node">
<title>KameletParseCatalog</title>
<polygon fill="none" stroke="black" points="2242,-690.5 2242,-711.5 2419,-711.5 2419,-690.5 2242,-690.5"/>
<text text-anchor="start" x="2245" y="-698.3" font-family="Times,serif" font-weight="bold" font-size="14.00">KameletParseCatalog</text>
<polygon fill="none" stroke="black" points="2240.5,-690 2240.5,-713 2419.5,-713 2419.5,-690 2240.5,-690"/>
</g>
<!-- KameletParseCatalog&#45;&gt;StepCatalogParser -->
<g id="edge8" class="edge">
<title>KameletParseCatalog&#45;&gt;StepCatalogParser</title>
<path fill="none" stroke="black" d="M2330,-683.3C2330,-658.65 2330,-611.97 2330,-573.34"/>
<polygon fill="none" stroke="black" points="2333.5,-573.2 2330,-563.2 2326.5,-573.2 2333.5,-573.2"/>
</g>
<!-- ParseCatalog -->
<g id="node16" class="node">
<title>ParseCatalog</title>
<polygon fill="none" stroke="black" points="2758,-522.5 2758,-543.5 3090,-543.5 3090,-522.5 2758,-522.5"/>
<text text-anchor="start" x="2871.5" y="-530.3" font-family="Times,serif" font-weight="bold" font-size="14.00">ParseCatalog</text>
<polygon fill="none" stroke="black" points="2758,-474.5 2758,-522.5 3090,-522.5 3090,-474.5 2758,-474.5"/>
<text text-anchor="start" x="2892.5" y="-509.3" font-family="Times,serif" font-style="italic" font-size="14.00">Methods</text>
<text text-anchor="start" x="2761" y="-495.3" font-family="Times,serif" font-size="14.00">parse():CompletableFuture[List[T]]</text>
<text text-anchor="start" x="2761" y="-481.3" font-family="Times,serif" font-size="14.00">setFileVisitor(&lt;YamlProcessFile&gt; fileVisitor):</text>
<polygon fill="none" stroke="black" points="2757,-474 2757,-545 3091,-545 3091,-474 2757,-474"/>
</g>
<!-- KameletParseCatalog&#45;&gt;ParseCatalog -->
<g id="edge9" class="edge">
<title>KameletParseCatalog&#45;&gt;ParseCatalog</title>
<path fill="none" stroke="black" stroke-dasharray="5,2" d="M2342.58,-683.32C2360.53,-660.17 2395.82,-619.49 2436,-599 2488.41,-572.28 2623.9,-548.87 2738.85,-532.85"/>
<polygon fill="black" stroke="black" points="2748.85,-531.47 2739.56,-537.29 2743.89,-532.15 2738.94,-532.84 2738.94,-532.84 2738.94,-532.84 2743.89,-532.15 2738.33,-528.38 2748.85,-531.47 2748.85,-531.47"/>
</g>
<!-- Kamelet -->
<g id="node17" class="node">
<title>Kamelet</title>
<polygon fill="none" stroke="black" points="3699,-690.5 3699,-711.5 3772,-711.5 3772,-690.5 3699,-690.5"/>
<text text-anchor="start" x="3702" y="-698.3" font-family="Times,serif" font-weight="bold" font-size="14.00">Kamelet</text>
<polygon fill="none" stroke="black" points="3697.5,-690 3697.5,-713 3772.5,-713 3772.5,-690 3697.5,-690"/>
</g>
<!-- KameletBinding -->
<g id="node18" class="node">
<title>KameletBinding</title>
<polygon fill="none" stroke="black" points="3808,-690.5 3808,-711.5 3944,-711.5 3944,-690.5 3808,-690.5"/>
<text text-anchor="start" x="3811" y="-698.3" font-family="Times,serif" font-weight="bold" font-size="14.00">KameletBinding</text>
<polygon fill="none" stroke="black" points="3807,-690 3807,-713 3945,-713 3945,-690 3807,-690"/>
</g>
<!-- SimplifiedKamelet -->
<g id="node19" class="node">
<title>SimplifiedKamelet</title>
<polygon fill="none" stroke="black" points="3980,-690.5 3980,-711.5 4132,-711.5 4132,-690.5 3980,-690.5"/>
<text text-anchor="start" x="3983" y="-698.3" font-family="Times,serif" font-weight="bold" font-size="14.00">SimplifiedKamelet</text>
<polygon fill="none" stroke="black" points="3979,-690 3979,-713 4133,-713 4133,-690 3979,-690"/>
</g>
<!-- CatalogCollection -->
<g id="node21" class="node">
<title>CatalogCollection</title>
<polygon fill="none" stroke="black" points="1453,-355.5 1453,-376.5 1599,-376.5 1599,-355.5 1453,-355.5"/>
<text text-anchor="start" x="1456" y="-363.3" font-family="Times,serif" font-weight="bold" font-size="14.00">CatalogCollection</text>
<polygon fill="none" stroke="black" points="1452,-355 1452,-378 1600,-378 1600,-355 1452,-355"/>
</g>
<!-- CatalogCollection&#45;&gt;MetadataCatalog -->
<g id="edge11" class="edge">
<title>CatalogCollection&#45;&gt;MetadataCatalog</title>
<path fill="none" stroke="black" d="M1526,-348.3C1526,-325.17 1526,-282.66 1526,-245.59"/>
<polygon fill="none" stroke="black" points="1529.5,-245.3 1526,-235.3 1522.5,-245.3 1529.5,-245.3"/>
</g>
<!-- InMemoryCatalog -->
<g id="node22" class="node">
<title>InMemoryCatalog</title>
<polygon fill="none" stroke="black" points="1635,-355.5 1635,-376.5 1783,-376.5 1783,-355.5 1635,-355.5"/>
<text text-anchor="start" x="1638" y="-363.3" font-family="Times,serif" font-weight="bold" font-size="14.00">InMemoryCatalog</text>
<polygon fill="none" stroke="black" points="1634,-355 1634,-378 1784,-378 1784,-355 1634,-355"/>
</g>
<!-- InMemoryCatalog&#45;&gt;MetadataCatalog -->
<g id="edge12" class="edge">
<title>InMemoryCatalog&#45;&gt;MetadataCatalog</title>
<path fill="none" stroke="black" d="M1692.44,-348.3C1669.59,-324.58 1627.1,-280.47 1590.77,-242.75"/>
<polygon fill="none" stroke="black" points="1593.06,-240.08 1583.6,-235.3 1588.02,-244.93 1593.06,-240.08"/>
</g>
<!-- ReadOnlyCatalog -->
<g id="node23" class="node">
<title>ReadOnlyCatalog</title>
<polygon fill="none" stroke="black" points="1455,-498.5 1455,-519.5 1597,-519.5 1597,-498.5 1455,-498.5"/>
<text text-anchor="start" x="1458" y="-506.3" font-family="Times,serif" font-weight="bold" font-size="14.00">ReadOnlyCatalog</text>
<polygon fill="none" stroke="black" points="1454,-498 1454,-521 1598,-521 1598,-498 1454,-498"/>
</g>
<!-- ReadOnlyCatalog&#45;&gt;CatalogCollection -->
<g id="edge13" class="edge">
<title>ReadOnlyCatalog&#45;&gt;CatalogCollection</title>
<path fill="none" stroke="black" d="M1526,-491.49C1526,-467.46 1526,-423.31 1526,-394.7"/>
<polygon fill="none" stroke="black" points="1529.5,-394.57 1526,-384.57 1522.5,-394.57 1529.5,-394.57"/>
</g>
<!-- ClusterParseCatalog -->
<g id="node24" class="node">
<title>ClusterParseCatalog</title>
<polygon fill="none" stroke="black" points="2455,-690.5 2455,-711.5 2624,-711.5 2624,-690.5 2455,-690.5"/>
<text text-anchor="start" x="2458" y="-698.3" font-family="Times,serif" font-weight="bold" font-size="14.00">ClusterParseCatalog</text>
<polygon fill="none" stroke="black" points="2453.5,-690 2453.5,-713 2624.5,-713 2624.5,-690 2453.5,-690"/>
</g>
<!-- ClusterParseCatalog&#45;&gt;ParseCatalog -->
<g id="edge14" class="edge">
<title>ClusterParseCatalog&#45;&gt;ParseCatalog</title>
<path fill="none" stroke="black" d="M2551.93,-683.23C2569.65,-660.73 2603.57,-621.59 2641,-599 2672.76,-579.83 2709.06,-564.44 2744.84,-552.22"/>
<polygon fill="none" stroke="black" points="2746.03,-555.51 2754.41,-549.02 2743.82,-548.87 2746.03,-555.51"/>
</g>
<!-- EmptyParseCatalog -->
<g id="node25" class="node">
<title>EmptyParseCatalog</title>
<polygon fill="none" stroke="black" points="2660,-690.5 2660,-711.5 2821,-711.5 2821,-690.5 2660,-690.5"/>
<text text-anchor="start" x="2663" y="-698.3" font-family="Times,serif" font-weight="bold" font-size="14.00">EmptyParseCatalog</text>
<polygon fill="none" stroke="black" points="2658.5,-690 2658.5,-713 2821.5,-713 2821.5,-690 2658.5,-690"/>
</g>
<!-- EmptyParseCatalog&#45;&gt;ParseCatalog -->
<g id="edge15" class="edge">
<title>EmptyParseCatalog&#45;&gt;ParseCatalog</title>
<path fill="none" stroke="black" d="M2756.65,-683.3C2784.14,-654.93 2839.88,-597.36 2879.47,-556.48"/>
<polygon fill="none" stroke="black" points="2882.22,-558.67 2886.66,-549.05 2877.19,-553.8 2882.22,-558.67"/>
</g>
<!-- GitParseCatalog -->
<g id="node26" class="node">
<title>GitParseCatalog</title>
<polygon fill="none" stroke="black" points="3528,-690.5 3528,-711.5 3663,-711.5 3663,-690.5 3528,-690.5"/>
<text text-anchor="start" x="3531" y="-698.3" font-family="Times,serif" font-weight="bold" font-size="14.00">GitParseCatalog</text>
<polygon fill="none" stroke="black" points="3526.5,-690 3526.5,-713 3663.5,-713 3663.5,-690 3526.5,-690"/>
</g>
<!-- GitParseCatalog&#45;&gt;ParseCatalog -->
<g id="edge16" class="edge">
<title>GitParseCatalog&#45;&gt;ParseCatalog</title>
<path fill="none" stroke="black" d="M3585.68,-683.16C3572.14,-659.82 3544.7,-618.92 3509,-599 3442.1,-561.67 3254.54,-537.79 3109.65,-524.37"/>
<polygon fill="none" stroke="black" points="3109.57,-520.85 3099.29,-523.42 3108.93,-527.82 3109.57,-520.85"/>
</g>
<!-- YamlProcessFile -->
<g id="node27" class="node">
<title>YamlProcessFile</title>
<text text-anchor="middle" x="3595" y="-505.8" font-family="Times,serif" font-size="14.00">YamlProcessFile</text>
</g>
<!-- GitParseCatalog&#45;&gt;YamlProcessFile -->
<g id="edge17" class="edge">
<title>GitParseCatalog&#45;&gt;YamlProcessFile</title>
<path fill="none" stroke="black" stroke-dasharray="5,2" d="M3595,-683.3C3595,-650.17 3595,-577.25 3595,-537.55"/>
<polygon fill="black" stroke="black" points="3595,-527.52 3599.5,-537.52 3595,-532.52 3595,-537.52 3595,-537.52 3595,-537.52 3595,-532.52 3590.5,-537.52 3595,-527.52 3595,-527.52"/>
</g>
<!-- JarParseCatalog -->
<g id="node28" class="node">
<title>JarParseCatalog</title>
<polygon fill="none" stroke="black" points="2857,-690.5 2857,-711.5 2991,-711.5 2991,-690.5 2857,-690.5"/>
<text text-anchor="start" x="2860" y="-698.3" font-family="Times,serif" font-weight="bold" font-size="14.00">JarParseCatalog</text>
<polygon fill="none" stroke="black" points="2856,-690 2856,-713 2992,-713 2992,-690 2856,-690"/>
</g>
<!-- JarParseCatalog&#45;&gt;ParseCatalog -->
<g id="edge18" class="edge">
<title>JarParseCatalog&#45;&gt;ParseCatalog</title>
<path fill="none" stroke="black" d="M2924,-683.3C2924,-655.57 2924,-599.98 2924,-559.31"/>
<polygon fill="none" stroke="black" points="2927.5,-559.05 2924,-549.05 2920.5,-559.05 2927.5,-559.05"/>
</g>
<!-- LocalFolderParseCatalog -->
<g id="node29" class="node">
<title>LocalFolderParseCatalog</title>
<polygon fill="none" stroke="black" points="3027,-690.5 3027,-711.5 3229,-711.5 3229,-690.5 3027,-690.5"/>
<text text-anchor="start" x="3030" y="-698.3" font-family="Times,serif" font-weight="bold" font-size="14.00">LocalFolderParseCatalog</text>
<polygon fill="none" stroke="black" points="3026,-690 3026,-713 3230,-713 3230,-690 3026,-690"/>
</g>
<!-- LocalFolderParseCatalog&#45;&gt;ParseCatalog -->
<g id="edge19" class="edge">
<title>LocalFolderParseCatalog&#45;&gt;ParseCatalog</title>
<path fill="none" stroke="black" d="M3109.54,-683.3C3078.94,-654.81 3016.75,-596.89 2972.83,-555.98"/>
<polygon fill="none" stroke="black" points="2975.1,-553.31 2965.4,-549.05 2970.33,-558.43 2975.1,-553.31"/>
</g>
<!-- ProcessFile -->
<g id="node30" class="node">
<title>ProcessFile</title>
<polygon fill="none" stroke="black" points="4169,-690.5 4169,-711.5 4266,-711.5 4266,-690.5 4169,-690.5"/>
<text text-anchor="start" x="4172" y="-698.3" font-family="Times,serif" font-weight="bold" font-size="14.00">ProcessFile</text>
<polygon fill="none" stroke="black" points="4167.5,-690 4167.5,-713 4266.5,-713 4266.5,-690 4167.5,-690"/>
</g>
<!-- ViewDefinitionParseCatalog -->
<g id="node31" class="node">
<title>ViewDefinitionParseCatalog</title>
<polygon fill="none" stroke="black" points="3265,-690.5 3265,-711.5 3491,-711.5 3491,-690.5 3265,-690.5"/>
<text text-anchor="start" x="3268" y="-698.3" font-family="Times,serif" font-weight="bold" font-size="14.00">ViewDefinitionParseCatalog</text>
<polygon fill="none" stroke="black" points="3264,-690 3264,-713 3492,-713 3492,-690 3264,-690"/>
</g>
<!-- ViewDefinitionParseCatalog&#45;&gt;ParseCatalog -->
<g id="edge20" class="edge">
<title>ViewDefinitionParseCatalog&#45;&gt;ParseCatalog</title>
<path fill="none" stroke="black" stroke-dasharray="5,2" d="M3360.48,-683.2C3336.72,-660.67 3292.04,-621.5 3247,-599 3204.15,-577.59 3155.42,-560.8 3109.04,-547.86"/>
<polygon fill="black" stroke="black" points="3099.18,-545.16 3110.02,-543.46 3104.01,-546.48 3108.83,-547.8 3108.83,-547.8 3108.83,-547.8 3104.01,-546.48 3107.64,-552.14 3099.18,-545.16 3099.18,-545.16"/>
</g>
<!-- Parameter -->
<g id="node32" class="node">
<title>Parameter</title>
<polygon fill="none" stroke="black" points="4302,-777.5 4302,-798.5 4440,-798.5 4440,-777.5 4302,-777.5"/>
<text text-anchor="start" x="4329" y="-785.3" font-family="Times,serif" font-weight="bold" font-size="14.00">Parameter</text>
<polygon fill="none" stroke="black" points="4302,-603.5 4302,-777.5 4440,-777.5 4440,-603.5 4302,-603.5"/>
<text text-anchor="start" x="4333" y="-764.3" font-family="Times,serif" font-style="italic" font-size="14.00">Properties</text>
<text text-anchor="start" x="4305" y="-750.3" font-family="Times,serif" font-size="14.00">description:String</text>
<text text-anchor="start" x="4305" y="-736.3" font-family="Times,serif" font-size="14.00">title:String</text>
<text text-anchor="start" x="4305" y="-722.3" font-family="Times,serif" font-size="14.00">id:String</text>
<text text-anchor="start" x="4305" y="-708.3" font-family="Times,serif" font-size="14.00">value:Object</text>
<text text-anchor="start" x="4305" y="-694.3" font-family="Times,serif" font-size="14.00">default:Object</text>
<text text-anchor="start" x="4305" y="-680.3" font-family="Times,serif" font-size="14.00">type:String</text>
<text text-anchor="start" x="4305" y="-666.3" font-family="Times,serif" font-size="14.00">path:Boolean</text>
<text text-anchor="start" x="4305" y="-652.3" font-family="Times,serif" font-size="14.00">nullable:Boolean</text>
<text text-anchor="start" x="4305" y="-638.3" font-family="Times,serif" font-size="14.00">enum:Object[]</text>
<text text-anchor="start" x="4305" y="-624.3" font-family="Times,serif" font-size="14.00">examples:Object[]</text>
<text text-anchor="start" x="4305" y="-610.3" font-family="Times,serif" font-size="14.00">pathOrder:Integer</text>
<polygon fill="none" stroke="black" points="4301,-603 4301,-800 4441,-800 4441,-603 4301,-603"/>
</g>
<!-- Step -->
<g id="node33" class="node">
<title>Step</title>
<polygon fill="none" stroke="black" points="991,-250.5 991,-271.5 1197,-271.5 1197,-250.5 991,-250.5"/>
<text text-anchor="start" x="1076" y="-258.3" font-family="Times,serif" font-weight="bold" font-size="14.00">Step</text>
<polygon fill="none" stroke="black" points="991,-76.5 991,-250.5 1197,-250.5 1197,-76.5 991,-76.5"/>
<text text-anchor="start" x="1056" y="-237.3" font-family="Times,serif" font-style="italic" font-size="14.00">Properties</text>
<text text-anchor="start" x="994" y="-223.3" font-family="Times,serif" font-size="14.00">description:String</text>
<text text-anchor="start" x="994" y="-209.3" font-family="Times,serif" font-size="14.00">title:String</text>
<text text-anchor="start" x="994" y="-195.3" font-family="Times,serif" font-size="14.00">parameters:List[Parameter]</text>
<text text-anchor="start" x="994" y="-181.3" font-family="Times,serif" font-size="14.00">icon:String</text>
<text text-anchor="start" x="994" y="-167.3" font-family="Times,serif" font-size="14.00">UUID:String</text>
<text text-anchor="start" x="994" y="-153.3" font-family="Times,serif" font-size="14.00">required:String[]</text>
<text text-anchor="start" x="994" y="-139.3" font-family="Times,serif" font-size="14.00">group:String</text>
<text text-anchor="start" x="994" y="-125.3" font-family="Times,serif" font-size="14.00">kind:String</text>
<text text-anchor="start" x="994" y="-111.3" font-family="Times,serif" font-size="14.00">branches:Branch[]</text>
<text text-anchor="start" x="994" y="-97.3" font-family="Times,serif" font-size="14.00">minBranches:Integer</text>
<text text-anchor="start" x="994" y="-83.3" font-family="Times,serif" font-size="14.00">maxBranches:Integer</text>
<polygon fill="none" stroke="black" points="990,-76 990,-273 1198,-273 1198,-76 990,-76"/>
</g>
<!-- Step&#45;&gt;Metadata -->
<g id="edge21" class="edge">
<title>Step&#45;&gt;Metadata</title>
<path fill="none" stroke="black" d="M1206.05,-122.53C1245.99,-105.32 1291.59,-86.75 1334,-72 1380.32,-55.89 1434.25,-41.36 1473.14,-31.61"/>
<polygon fill="none" stroke="black" points="1474.32,-34.92 1483.18,-29.11 1472.63,-28.13 1474.32,-34.92"/>
</g>
<!-- ViewDefinition -->
<g id="node34" class="node">
<title>ViewDefinition</title>
<polygon fill="none" stroke="black" points="1755,-201.5 1755,-222.5 2064,-222.5 2064,-201.5 1755,-201.5"/>
<text text-anchor="start" x="1851.5" y="-209.3" font-family="Times,serif" font-weight="bold" font-size="14.00">ViewDefinition</text>
<polygon fill="none" stroke="black" points="1755,-125.5 1755,-201.5 2064,-201.5 2064,-125.5 1755,-125.5"/>
<text text-anchor="start" x="1871.5" y="-188.3" font-family="Times,serif" font-style="italic" font-size="14.00">Properties</text>
<text text-anchor="start" x="1758" y="-174.3" font-family="Times,serif" font-size="14.00">properties:Map[String, String]</text>
<text text-anchor="start" x="1758" y="-160.3" font-family="Times,serif" font-size="14.00">step:Step</text>
<text text-anchor="start" x="1758" y="-146.3" font-family="Times,serif" font-size="14.00">url:String</text>
<text text-anchor="start" x="1758" y="-132.3" font-family="Times,serif" font-size="14.00">constraints:List[ViewDefinitionConstraint]</text>
<polygon fill="none" stroke="black" points="1753.5,-125 1753.5,-224 2064.5,-224 2064.5,-125 1753.5,-125"/>
</g>
<!-- ViewDefinition&#45;&gt;Metadata -->
<g id="edge22" class="edge">
<title>ViewDefinition&#45;&gt;Metadata</title>
<path fill="none" stroke="black" d="M1819.61,-120.79C1788.19,-103.68 1752.19,-85.61 1718,-72 1672.19,-53.76 1617.85,-39.4 1578.69,-30.25"/>
<polygon fill="none" stroke="black" points="1579.35,-26.81 1568.82,-27.98 1577.78,-33.63 1579.35,-26.81"/>
</g>
<!-- ViewDefinitionConstraint -->
<g id="node35" class="node">
<title>ViewDefinitionConstraint</title>
<text text-anchor="middle" x="1909" y="-362.8" font-family="Times,serif" font-size="14.00">ViewDefinitionConstraint</text>
</g>
<!-- ViewDefinitionConstraint&#45;&gt;ViewDefinition -->
<g id="edge23" class="edge">
<title>ViewDefinitionConstraint&#45;&gt;ViewDefinition</title>
<path fill="none" stroke="black" d="M1909,-348.3C1909,-324.07 1909,-278.56 1909,-240.32"/>
<polygon fill="black" stroke="black" points="1909,-240.2 1905,-234.2 1909,-228.2 1913,-234.2 1909,-240.2"/>
<text text-anchor="middle" x="1895" y="-337.1" font-family="Times,serif" font-size="14.00">0..n</text>
</g>
<!-- StepParserService -->
<g id="node36" class="node">
<title>StepParserService</title>
<polygon fill="none" stroke="black" points="848,-393.5 848,-414.5 1103,-414.5 1103,-393.5 848,-393.5"/>
<text text-anchor="start" x="903" y="-401.3" font-family="Times,serif" font-weight="bold" font-size="14.00">StepParserService</text>
<polygon fill="none" stroke="black" points="848,-317.5 848,-393.5 1103,-393.5 1103,-317.5 848,-317.5"/>
<text text-anchor="start" x="944" y="-380.3" font-family="Times,serif" font-style="italic" font-size="14.00">Methods</text>
<text text-anchor="start" x="851" y="-366.3" font-family="Times,serif" font-size="14.00">identifier():String</text>
<text text-anchor="start" x="851" y="-352.3" font-family="Times,serif" font-size="14.00">description():String</text>
<text text-anchor="start" x="851" y="-338.3" font-family="Times,serif" font-size="14.00">parse(&lt;String&gt; yaml):ParseResult</text>
<text text-anchor="start" x="851" y="-324.3" font-family="Times,serif" font-size="14.00">appliesTo(&lt;String&gt; yaml):boolean</text>
<polygon fill="none" stroke="black" points="846.5,-317 846.5,-416 1103.5,-416 1103.5,-317 846.5,-317"/>
</g>
<!-- StepParserService&#45;&gt;Step -->
<g id="edge24" class="edge">
<title>StepParserService&#45;&gt;Step</title>
<path fill="none" stroke="black" stroke-dasharray="5,2" d="M1007.99,-312.83C1013.36,-304.25 1019.1,-295.1 1024.96,-285.74"/>
<polygon fill="black" stroke="black" points="1030.37,-277.1 1028.87,-287.96 1027.71,-281.34 1025.06,-285.57 1025.06,-285.57 1025.06,-285.57 1027.71,-281.34 1021.25,-283.18 1030.37,-277.1 1030.37,-277.1"/>
</g>
<!-- ViewDefinitionParserService -->
<g id="node37" class="node">
<title>ViewDefinitionParserService</title>
<polygon fill="none" stroke="black" points="2035,-386.5 2035,-407.5 2633,-407.5 2633,-386.5 2035,-386.5"/>
<text text-anchor="start" x="2221.5" y="-394.3" font-family="Times,serif" font-weight="bold" font-size="14.00">ViewDefinitionParserService</text>
<polygon fill="none" stroke="black" points="2035,-324.5 2035,-386.5 2633,-386.5 2633,-324.5 2035,-324.5"/>
<text text-anchor="start" x="2302.5" y="-373.3" font-family="Times,serif" font-style="italic" font-size="14.00">Methods</text>
<text text-anchor="start" x="2038" y="-359.3" font-family="Times,serif" font-size="14.00">parse(&lt;List[Step]&gt; steps):List[ViewDefinition]</text>
<text text-anchor="start" x="2038" y="-345.3" font-family="Times,serif" font-size="14.00">getViewsPerStep(&lt;List[Step]&gt; steps, &lt;ViewDefinition&gt; view):List[ViewDefinition]</text>
<text text-anchor="start" x="2038" y="-331.3" font-family="Times,serif" font-size="14.00">appliesTo(&lt;List[Step]&gt; steps, &lt;ViewDefinition&gt; viewDefinition):boolean</text>
<polygon fill="none" stroke="black" points="2034,-324 2034,-409 2634,-409 2634,-324 2034,-324"/>
</g>
<!-- ViewDefinitionParserService&#45;&gt;ViewDefinition -->
<g id="edge25" class="edge">
<title>ViewDefinitionParserService&#45;&gt;ViewDefinition</title>
<path fill="none" stroke="black" stroke-dasharray="5,2" d="M2232.2,-319.99C2173.22,-293.62 2098.45,-260.19 2035.68,-232.13"/>
<polygon fill="black" stroke="black" points="2026.51,-228.04 2037.48,-228.01 2031.08,-230.08 2035.64,-232.12 2035.64,-232.12 2035.64,-232.12 2031.08,-230.08 2033.81,-236.22 2026.51,-228.04 2026.51,-228.04"/>
</g>
</g>
</svg>
