<?xml version="1.0" encoding="UTF-8" standalone="no"?>
<!DOCTYPE svg PUBLIC "-//W3C//DTD SVG 1.1//EN"
 "http://www.w3.org/Graphics/SVG/1.1/DTD/svg11.dtd">
<!-- Generated by graphviz version 2.43.0 (0)
 -->
<!-- Title: ClassDiagram Pages: 1 -->
<svg width="201pt" height="94pt"
 viewBox="0.00 0.00 201.00 94.00" xmlns="http://www.w3.org/2000/svg" xmlns:xlink="http://www.w3.org/1999/xlink">
<g id="graph0" class="graph" transform="scale(1 1) rotate(0) translate(4 90)">
<title>ClassDiagram</title>
<polygon fill="white" stroke="transparent" points="-4,4 -4,-90 197,-90 197,4 -4,4"/>
<!-- GetView -->
<g id="node1" class="node">
<title>GetView</title>
<polygon fill="none" stroke="black" points="9.5,-60 9.5,-81 184.5,-81 184.5,-60 9.5,-60"/>
<text text-anchor="start" x="64.5" y="-67.8" font-family="Times,serif" font-weight="bold" font-size="14.00">GetView</text>
<polygon fill="none" stroke="black" points="9.5,-39 9.5,-60 184.5,-60 184.5,-39 9.5,-39"/>
<text text-anchor="start" x="42" y="-46.8" font-family="Times,serif" font-style="italic" font-size="14.00">Usage example</text>
<polygon fill="none" stroke="black" points="9.5,-5 9.5,-39 184.5,-39 184.5,-5 9.5,-5"/>
<text text-anchor="start" x="65.5" y="-25.8" font-family="Times,serif" font-style="italic" font-size="14.00">Methods</text>
<text text-anchor="start" x="12.5" y="-11.8" font-family="Times,serif" font-size="14.00">views:(&lt;String&gt; yaml):</text>
<polygon fill="none" stroke="black" points="8,-4 8,-82 185,-82 185,-4 8,-4"/>
</g>
</g>
</svg>
