<?xml version="1.0" encoding="UTF-8" standalone="no"?>
<!DOCTYPE svg PUBLIC "-//W3C//DTD SVG 1.1//EN"
 "http://www.w3.org/Graphics/SVG/1.1/DTD/svg11.dtd">
<!-- Generated by graphviz version 2.43.0 (0)
 -->
<!-- Title: ClassDiagram Pages: 1 -->
<svg width="4787pt" height="841pt"
 viewBox="0.00 0.00 4787.00 841.00" xmlns="http://www.w3.org/2000/svg" xmlns:xlink="http://www.w3.org/1999/xlink">
<g id="graph0" class="graph" transform="scale(1 1) rotate(0) translate(4 837)">
<title>ClassDiagram</title>
<polygon fill="white" stroke="transparent" points="-4,4 -4,-837 4783,-837 4783,4 -4,4"/>
<!-- DeploymentResource -->
<g id="node1" class="node">
<title>DeploymentResource</title>
<polygon fill="none" stroke="black" points="187,-579.5 187,-600.5 714,-600.5 714,-579.5 187,-579.5"/>
<text text-anchor="start" x="366" y="-587.3" font-family="Times,serif" font-weight="bold" font-size="14.00">DeploymentResource</text>
<polygon fill="none" stroke="black" points="187,-503.5 187,-579.5 714,-579.5 714,-503.5 187,-503.5"/>
<text text-anchor="start" x="419" y="-566.3" font-family="Times,serif" font-style="italic" font-size="14.00">Methods</text>
<text text-anchor="start" x="190" y="-552.3" font-family="Times,serif" font-size="14.00">yaml(&lt;DeploymentResourceYamlRequest&gt; steps, &lt;String&gt; dsl):String[]</text>
<text text-anchor="start" x="190" y="-538.3" font-family="Times,serif" font-size="14.00">start(&lt;DeploymentResourceYamlRequest&gt; steps):String</text>
<text text-anchor="start" x="190" y="-524.3" font-family="Times,serif" font-size="14.00">integrations():String</text>
<text text-anchor="start" x="190" y="-510.3" font-family="Times,serif" font-size="14.00">stop():String</text>
<polygon fill="none" stroke="black" points="185.5,-503 185.5,-602 714.5,-602 714.5,-503 185.5,-503"/>
</g>
<!-- DeploymentService -->
<g id="node2" class="node">
<title>DeploymentService</title>
<text text-anchor="middle" x="450" y="-733.8" font-family="Times,serif" font-size="14.00">DeploymentService</text>
</g>
<!-- DeploymentService&#45;&gt;DeploymentResource -->
<g id="edge1" class="edge">
<title>DeploymentService&#45;&gt;DeploymentResource</title>
<path fill="none" stroke="black" d="M450,-719.28C450,-696.36 450,-654.53 450,-618.63"/>
<polygon fill="black" stroke="black" points="450,-618.22 446,-612.22 450,-606.22 454,-612.22 450,-618.22"/>
<text text-anchor="middle" x="436" y="-708.08" font-family="Times,serif" font-size="14.00">0..1</text>
</g>
<!-- LanguageResource 🐱relationship compositionOf LanguageService, 0..1 -->
<g id="node3" class="node">
<title>LanguageResource 🐱relationship compositionOf LanguageService, 0..1</title>
<polygon fill="none" stroke="black" points="1072,-743.5 1072,-764.5 1642,-764.5 1642,-743.5 1072,-743.5"/>
<text text-anchor="start" x="1075" y="-751.3" font-family="Times,serif" font-weight="bold" font-size="14.00">LanguageResource 🐱relationship compositionOf LanguageService, 0..1</text>
<polygon fill="none" stroke="black" points="1072,-709.5 1072,-743.5 1642,-743.5 1642,-709.5 1072,-709.5"/>
<text text-anchor="start" x="1325.5" y="-730.3" font-family="Times,serif" font-style="italic" font-size="14.00">Methods</text>
<text text-anchor="start" x="1312.5" y="-716.3" font-family="Times,serif" font-size="14.00">getAll():Map</text>
<polygon fill="none" stroke="black" points="1071,-709 1071,-766 1643,-766 1643,-709 1071,-709"/>
</g>
<!-- StepResource -->
<g id="node4" class="node">
<title>StepResource</title>
<polygon fill="none" stroke="black" points="2169,-771.5 2169,-792.5 2641,-792.5 2641,-771.5 2169,-771.5"/>
<text text-anchor="start" x="2350.5" y="-779.3" font-family="Times,serif" font-weight="bold" font-size="14.00">StepResource</text>
<polygon fill="none" stroke="black" points="2169,-681.5 2169,-771.5 2641,-771.5 2641,-681.5 2169,-681.5"/>
<text text-anchor="start" x="2373.5" y="-758.3" font-family="Times,serif" font-style="italic" font-size="14.00">Methods</text>
<text text-anchor="start" x="2172" y="-744.3" font-family="Times,serif" font-size="14.00">stepById(&lt;String&gt; id):Step</text>
<text text-anchor="start" x="2172" y="-730.3" font-family="Times,serif" font-size="14.00">stepsByName(&lt;String&gt; name):List[Step]</text>
<text text-anchor="start" x="2172" y="-716.3" font-family="Times,serif" font-size="14.00">stepsByKind(&lt;String&gt; type):List[Step]</text>
<text text-anchor="start" x="2172" y="-702.3" font-family="Times,serif" font-size="14.00">stepsByIntegrationType(&lt;String&gt; type):List[Step]</text>
<text text-anchor="start" x="2172" y="-688.3" font-family="Times,serif" font-size="14.00">allSteps(&lt;String&gt; type, &lt;String&gt; dsl, &lt;String&gt; kind):List[Step]</text>
<polygon fill="none" stroke="black" points="2168,-681 2168,-794 2642,-794 2642,-681 2168,-681"/>
</g>
<!-- StepCatalog -->
<g id="node5" class="node">
<title>StepCatalog</title>
<polygon fill="none" stroke="black" points="2354,-541.5 2354,-562.5 2456,-562.5 2456,-541.5 2354,-541.5"/>
<text text-anchor="start" x="2357" y="-549.3" font-family="Times,serif" font-weight="bold" font-size="14.00">StepCatalog</text>
<polygon fill="none" stroke="black" points="2353,-541 2353,-564 2457,-564 2457,-541 2353,-541"/>
</g>
<!-- StepResource&#45;&gt;StepCatalog -->
<g id="edge2" class="edge">
<title>StepResource&#45;&gt;StepCatalog</title>
<path fill="none" stroke="black" stroke-dasharray="5,2" d="M2405,-676.83C2405,-644.49 2405,-606.08 2405,-580.82"/>
<polygon fill="black" stroke="black" points="2405,-570.53 2409.5,-580.53 2405,-575.53 2405,-580.53 2405,-580.53 2405,-580.53 2405,-575.53 2400.5,-580.53 2405,-570.53 2405,-570.53"/>
</g>
<!-- AbstractCatalog -->
<g id="node12" class="node">
<title>AbstractCatalog</title>
<polygon fill="none" stroke="black" points="2419,-415.5 2419,-436.5 2697,-436.5 2697,-415.5 2419,-415.5"/>
<text text-anchor="start" x="2494.5" y="-423.3" font-family="Times,serif" font-weight="bold" font-size="14.00">AbstractCatalog</text>
<polygon fill="none" stroke="black" points="2419,-367.5 2419,-415.5 2697,-415.5 2697,-367.5 2419,-367.5"/>
<text text-anchor="start" x="2526.5" y="-402.3" font-family="Times,serif" font-style="italic" font-size="14.00">Methods</text>
<text text-anchor="start" x="2422" y="-388.3" font-family="Times,serif" font-size="14.00">waitForWarmUp():CompletableFuture</text>
<text text-anchor="start" x="2422" y="-374.3" font-family="Times,serif" font-size="14.00">loadParsers():List[ParseCatalog]</text>
<polygon fill="none" stroke="black" points="2418,-367 2418,-438 2698,-438 2698,-367 2418,-367"/>
</g>
<!-- StepCatalog&#45;&gt;AbstractCatalog -->
<g id="edge7" class="edge">
<title>StepCatalog&#45;&gt;AbstractCatalog</title>
<path fill="none" stroke="black" d="M2422.85,-534.23C2444.22,-513.57 2480.83,-478.15 2510.57,-449.38"/>
<polygon fill="none" stroke="black" points="2513.21,-451.69 2517.97,-442.23 2508.34,-446.66 2513.21,-451.69"/>
</g>
<!-- ViewDefinitionResource -->
<g id="node6" class="node">
<title>ViewDefinitionResource</title>
<polygon fill="none" stroke="black" points="715,-415.5 715,-436.5 1183,-436.5 1183,-415.5 715,-415.5"/>
<text text-anchor="start" x="854" y="-423.3" font-family="Times,serif" font-weight="bold" font-size="14.00">ViewDefinitionResource</text>
<polygon fill="none" stroke="black" points="715,-367.5 715,-415.5 1183,-415.5 1183,-367.5 715,-367.5"/>
<text text-anchor="start" x="917.5" y="-402.3" font-family="Times,serif" font-style="italic" font-size="14.00">Methods</text>
<text text-anchor="start" x="718" y="-388.3" font-family="Times,serif" font-size="14.00">views:(&lt;String&gt; yaml):</text>
<text text-anchor="start" x="718" y="-374.3" font-family="Times,serif" font-size="14.00">viewsPerStepList:(&lt;Step[]&gt; DeploymentResourceYamlRequest):</text>
<polygon fill="none" stroke="black" points="714,-367 714,-438 1184,-438 1184,-367 714,-367"/>
</g>
<!-- ViewDefinitionService -->
<g id="node7" class="node">
<title>ViewDefinitionService</title>
<polygon fill="none" stroke="black" points="750,-558.5 750,-579.5 1148,-579.5 1148,-558.5 750,-558.5"/>
<text text-anchor="start" x="862.5" y="-566.3" font-family="Times,serif" font-weight="bold" font-size="14.00">ViewDefinitionService</text>
<polygon fill="none" stroke="black" points="750,-524.5 750,-558.5 1148,-558.5 1148,-524.5 750,-524.5"/>
<text text-anchor="start" x="917.5" y="-545.3" font-family="Times,serif" font-style="italic" font-size="14.00">Methods</text>
<text text-anchor="start" x="753" y="-531.3" font-family="Times,serif" font-size="14.00">viewsPerStepList(&lt;Step[]&gt; steps):List[ViewDefinition]</text>
<polygon fill="none" stroke="black" points="749,-524 749,-581 1149,-581 1149,-524 749,-524"/>
</g>
<!-- ViewDefinitionService&#45;&gt;ViewDefinitionResource -->
<g id="edge3" class="edge">
<title>ViewDefinitionService&#45;&gt;ViewDefinitionResource</title>
<path fill="none" stroke="black" d="M949,-519.75C949,-500.63 949,-475.86 949,-454.09"/>
<polygon fill="black" stroke="black" points="949,-454.03 945,-448.03 949,-442.03 953,-448.03 949,-454.03"/>
<text text-anchor="middle" x="935" y="-508.55" font-family="Times,serif" font-size="14.00">0..1</text>
</g>
<!-- StepParserService -->
<g id="node10" class="node">
<title>StepParserService</title>
<polygon fill="none" stroke="black" points="426,-429.5 426,-450.5 679,-450.5 679,-429.5 426,-429.5"/>
<text text-anchor="start" x="480" y="-437.3" font-family="Times,serif" font-weight="bold" font-size="14.00">StepParserService</text>
<polygon fill="none" stroke="black" points="426,-353.5 426,-429.5 679,-429.5 679,-353.5 426,-353.5"/>
<text text-anchor="start" x="521" y="-416.3" font-family="Times,serif" font-style="italic" font-size="14.00">Methods</text>
<text text-anchor="start" x="429" y="-402.3" font-family="Times,serif" font-size="14.00">identifier():String</text>
<text text-anchor="start" x="429" y="-388.3" font-family="Times,serif" font-size="14.00">description():String</text>
<text text-anchor="start" x="429" y="-374.3" font-family="Times,serif" font-size="14.00">parse(&lt;String&gt; yaml):List[Step]</text>
<text text-anchor="start" x="429" y="-360.3" font-family="Times,serif" font-size="14.00">appliesTo(&lt;String&gt; yaml):boolean</text>
<polygon fill="none" stroke="black" points="424.5,-353 424.5,-452 679.5,-452 679.5,-353 424.5,-353"/>
</g>
<!-- ViewDefinitionService&#45;&gt;StepParserService -->
<g id="edge4" class="edge">
<title>ViewDefinitionService&#45;&gt;StepParserService</title>
<path fill="none" stroke="black" stroke-dasharray="5,2" d="M855.53,-519.96C807.87,-503.56 749.11,-482.83 697,-463 694.26,-461.96 691.49,-460.9 688.7,-459.82"/>
<polygon fill="black" stroke="black" points="679.16,-456.11 690.11,-455.54 683.82,-457.93 688.48,-459.74 688.48,-459.74 688.48,-459.74 683.82,-457.93 686.85,-463.93 679.16,-456.11 679.16,-456.11"/>
</g>
<!-- ViewDefinitionParserService -->
<g id="node11" class="node">
<title>ViewDefinitionParserService</title>
<polygon fill="none" stroke="black" points="1481,-422.5 1481,-443.5 2199,-443.5 2199,-422.5 1481,-422.5"/>
<text text-anchor="start" x="1727.5" y="-430.3" font-family="Times,serif" font-weight="bold" font-size="14.00">ViewDefinitionParserService</text>
<polygon fill="none" stroke="black" points="1481,-360.5 1481,-422.5 2199,-422.5 2199,-360.5 1481,-360.5"/>
<text text-anchor="start" x="1808.5" y="-409.3" font-family="Times,serif" font-style="italic" font-size="14.00">Methods</text>
<text text-anchor="start" x="1484" y="-395.3" font-family="Times,serif" font-size="14.00">parse(&lt;List[Step]&gt; steps, &lt;String&gt; name):List[ViewDefinition]</text>
<text text-anchor="start" x="1484" y="-381.3" font-family="Times,serif" font-size="14.00">getViewsPerStep(&lt;List[Step]&gt; steps, &lt;ViewDefinition&gt; view, &lt;String&gt; name):List[ViewDefinition]</text>
<text text-anchor="start" x="1484" y="-367.3" font-family="Times,serif" font-size="14.00">appliesTo(&lt;List[Step]&gt; steps, &lt;ViewDefinition&gt; viewDefinition):boolean</text>
<polygon fill="none" stroke="black" points="1480,-360 1480,-445 2200,-445 2200,-360 1480,-360"/>
</g>
<!-- ViewDefinitionService&#45;&gt;ViewDefinitionParserService -->
<g id="edge5" class="edge">
<title>ViewDefinitionService&#45;&gt;ViewDefinitionParserService</title>
<path fill="none" stroke="black" stroke-dasharray="5,2" d="M1138.78,-519.98C1260.05,-499.83 1419.55,-473.34 1555.78,-450.71"/>
<polygon fill="black" stroke="black" points="1565.96,-449.02 1556.84,-455.1 1561.03,-449.84 1556.1,-450.66 1556.1,-450.66 1556.1,-450.66 1561.03,-449.84 1555.36,-446.22 1565.96,-449.02 1565.96,-449.02"/>
</g>
<!-- DeploymentService This endpoint will return a list of views based on -->
<g id="node8" class="node">
<title>DeploymentService This endpoint will return a list of views based on</title>
<polygon fill="none" stroke="black" points="2678,-743.5 2678,-764.5 3223,-764.5 3223,-743.5 2678,-743.5"/>
<text text-anchor="start" x="2681" y="-751.3" font-family="Times,serif" font-weight="bold" font-size="14.00">DeploymentService This endpoint will return a list of views based on</text>
<polygon fill="none" stroke="black" points="2678,-709.5 2678,-743.5 3223,-743.5 3223,-709.5 2678,-709.5"/>
<text text-anchor="start" x="2919" y="-730.3" font-family="Times,serif" font-style="italic" font-size="14.00">Methods</text>
<text text-anchor="start" x="2773.5" y="-716.3" font-family="Times,serif" font-size="14.00">yaml(&lt;List[Step]&gt; steps, &lt;String&gt; name):String</text>
<polygon fill="none" stroke="black" points="2676.5,-709 2676.5,-766 3223.5,-766 3223.5,-709 2676.5,-709"/>
</g>
<!-- LanguageService -->
<g id="node9" class="node">
<title>LanguageService</title>
<polygon fill="none" stroke="black" points="3259,-743.5 3259,-764.5 3400,-764.5 3400,-743.5 3259,-743.5"/>
<text text-anchor="start" x="3262" y="-751.3" font-family="Times,serif" font-weight="bold" font-size="14.00">LanguageService</text>
<polygon fill="none" stroke="black" points="3259,-709.5 3259,-743.5 3400,-743.5 3400,-709.5 3259,-709.5"/>
<text text-anchor="start" x="3298" y="-730.3" font-family="Times,serif" font-style="italic" font-size="14.00">Methods</text>
<text text-anchor="start" x="3285" y="-716.3" font-family="Times,serif" font-size="14.00">getAll():Map</text>
<polygon fill="none" stroke="black" points="3257.5,-709 3257.5,-766 3400.5,-766 3400.5,-709 3257.5,-709"/>
</g>
<!-- Step -->
<g id="node29" class="node">
<title>Step</title>
<polygon fill="none" stroke="black" points="449,-279.5 449,-300.5 655,-300.5 655,-279.5 449,-279.5"/>
<text text-anchor="start" x="534" y="-287.3" font-family="Times,serif" font-weight="bold" font-size="14.00">Step</text>
<polygon fill="none" stroke="black" points="449,-133.5 449,-279.5 655,-279.5 655,-133.5 449,-133.5"/>
<text text-anchor="start" x="514" y="-266.3" font-family="Times,serif" font-style="italic" font-size="14.00">Properties</text>
<text text-anchor="start" x="452" y="-252.3" font-family="Times,serif" font-size="14.00">description:String</text>
<text text-anchor="start" x="452" y="-238.3" font-family="Times,serif" font-size="14.00">title:String</text>
<text text-anchor="start" x="452" y="-224.3" font-family="Times,serif" font-size="14.00">parameters:List[Parameter]</text>
<text text-anchor="start" x="452" y="-210.3" font-family="Times,serif" font-size="14.00">icon:String</text>
<text text-anchor="start" x="452" y="-196.3" font-family="Times,serif" font-size="14.00">UUID:String</text>
<text text-anchor="start" x="452" y="-182.3" font-family="Times,serif" font-size="14.00">required:String[]</text>
<text text-anchor="start" x="452" y="-168.3" font-family="Times,serif" font-size="14.00">group:String</text>
<text text-anchor="start" x="452" y="-154.3" font-family="Times,serif" font-size="14.00">kind:String</text>
<text text-anchor="start" x="452" y="-140.3" font-family="Times,serif" font-size="14.00">branches:Branch[]</text>
<polygon fill="none" stroke="black" points="448,-133 448,-302 656,-302 656,-133 448,-133"/>
</g>
<!-- StepParserService&#45;&gt;Step -->
<g id="edge23" class="edge">
<title>StepParserService&#45;&gt;Step</title>
<path fill="none" stroke="black" stroke-dasharray="5,2" d="M552,-348.57C552,-338.39 552,-327.42 552,-316.33"/>
<polygon fill="black" stroke="black" points="552,-306.14 556.5,-316.13 552,-311.14 552,-316.14 552,-316.14 552,-316.14 552,-311.14 547.5,-316.14 552,-306.14 552,-306.14"/>
</g>
<!-- ViewDefinition -->
<g id="node30" class="node">
<title>ViewDefinition</title>
<polygon fill="none" stroke="black" points="1432,-244.5 1432,-265.5 1741,-265.5 1741,-244.5 1432,-244.5"/>
<text text-anchor="start" x="1528.5" y="-252.3" font-family="Times,serif" font-weight="bold" font-size="14.00">ViewDefinition</text>
<polygon fill="none" stroke="black" points="1432,-168.5 1432,-244.5 1741,-244.5 1741,-168.5 1432,-168.5"/>
<text text-anchor="start" x="1548.5" y="-231.3" font-family="Times,serif" font-style="italic" font-size="14.00">Properties</text>
<text text-anchor="start" x="1435" y="-217.3" font-family="Times,serif" font-size="14.00">properties:Map[String, String]</text>
<text text-anchor="start" x="1435" y="-203.3" font-family="Times,serif" font-size="14.00">step:Step</text>
<text text-anchor="start" x="1435" y="-189.3" font-family="Times,serif" font-size="14.00">url:String</text>
<text text-anchor="start" x="1435" y="-175.3" font-family="Times,serif" font-size="14.00">constraints:List[ViewDefinitionConstraint]</text>
<polygon fill="none" stroke="black" points="1430.5,-168 1430.5,-267 1741.5,-267 1741.5,-168 1430.5,-168"/>
</g>
<!-- ViewDefinitionParserService&#45;&gt;ViewDefinition -->
<g id="edge24" class="edge">
<title>ViewDefinitionParserService&#45;&gt;ViewDefinition</title>
<path fill="none" stroke="black" stroke-dasharray="5,2" d="M1776.56,-355.79C1743.5,-331.98 1702.71,-302.58 1667.35,-277.11"/>
<polygon fill="black" stroke="black" points="1658.96,-271.07 1669.71,-273.26 1663.02,-273.99 1667.08,-276.91 1667.08,-276.91 1667.08,-276.91 1663.02,-273.99 1664.45,-280.56 1658.96,-271.07 1658.96,-271.07"/>
</g>
<!-- MetadataCatalog -->
<g id="node13" class="node">
<title>MetadataCatalog</title>
<polygon fill="none" stroke="black" points="2262,-244.5 2262,-265.5 2605,-265.5 2605,-244.5 2262,-244.5"/>
<text text-anchor="start" x="2365.5" y="-252.3" font-family="Times,serif" font-weight="bold" font-size="14.00">MetadataCatalog</text>
<polygon fill="none" stroke="black" points="2262,-168.5 2262,-244.5 2605,-244.5 2605,-168.5 2262,-168.5"/>
<text text-anchor="start" x="2402" y="-231.3" font-family="Times,serif" font-style="italic" font-size="14.00">Methods</text>
<text text-anchor="start" x="2265" y="-217.3" font-family="Times,serif" font-size="14.00">searchStepByID(&lt;String&gt; id):Metadata</text>
<text text-anchor="start" x="2265" y="-203.3" font-family="Times,serif" font-size="14.00">searchStepByName(&lt;String&gt; name):Metadata</text>
<text text-anchor="start" x="2265" y="-189.3" font-family="Times,serif" font-size="14.00">store(&lt;List[Step]&gt; steps):boolean</text>
<text text-anchor="start" x="2265" y="-175.3" font-family="Times,serif" font-size="14.00">getAll():List[Metadata]</text>
<polygon fill="none" stroke="black" points="2260.5,-168 2260.5,-267 2605.5,-267 2605.5,-168 2260.5,-168"/>
</g>
<!-- AbstractCatalog&#45;&gt;MetadataCatalog -->
<g id="edge6" class="edge">
<title>AbstractCatalog&#45;&gt;MetadataCatalog</title>
<path fill="none" stroke="black" stroke-dasharray="5,2" d="M2531.49,-362.69C2514.99,-338.54 2493.42,-306.96 2474.68,-279.51"/>
<polygon fill="black" stroke="black" points="2468.96,-271.14 2478.31,-276.86 2471.78,-275.27 2474.6,-279.4 2474.6,-279.4 2474.6,-279.4 2471.78,-275.27 2470.88,-281.94 2468.96,-271.14 2468.96,-271.14"/>
</g>
<!-- Metadata -->
<g id="node19" class="node">
<title>Metadata</title>
<polygon fill="none" stroke="black" points="1539,-66.5 1539,-87.5 1634,-87.5 1634,-66.5 1539,-66.5"/>
<text text-anchor="start" x="1548.5" y="-74.3" font-family="Times,serif" font-weight="bold" font-size="14.00">Metadata</text>
<polygon fill="none" stroke="black" points="1539,-4.5 1539,-66.5 1634,-66.5 1634,-4.5 1539,-4.5"/>
<text text-anchor="start" x="1548.5" y="-53.3" font-family="Times,serif" font-style="italic" font-size="14.00">Properties</text>
<text text-anchor="start" x="1542" y="-39.3" font-family="Times,serif" font-size="14.00">ID:String</text>
<text text-anchor="start" x="1542" y="-25.3" font-family="Times,serif" font-size="14.00">name:String</text>
<text text-anchor="start" x="1542" y="-11.3" font-family="Times,serif" font-size="14.00">type:String</text>
<polygon fill="none" stroke="black" points="1537.5,-4 1537.5,-89 1634.5,-89 1634.5,-4 1537.5,-4"/>
</g>
<!-- MetadataCatalog&#45;&gt;Metadata -->
<g id="edge10" class="edge">
<title>MetadataCatalog&#45;&gt;Metadata</title>
<path fill="none" stroke="black" stroke-dasharray="5,2" d="M2252.34,-180.45C2064.54,-142.98 1780.52,-86.31 1652.6,-60.79"/>
<polygon fill="black" stroke="black" points="1642.56,-58.78 1653.24,-56.33 1647.46,-59.76 1652.36,-60.74 1652.36,-60.74 1652.36,-60.74 1647.46,-59.76 1651.48,-65.15 1642.56,-58.78 1642.56,-58.78"/>
</g>
<!-- ViewDefinitionCatalog -->
<g id="node14" class="node">
<title>ViewDefinitionCatalog</title>
<polygon fill="none" stroke="black" points="2492,-541.5 2492,-562.5 2674,-562.5 2674,-541.5 2492,-541.5"/>
<text text-anchor="start" x="2495" y="-549.3" font-family="Times,serif" font-weight="bold" font-size="14.00">ViewDefinitionCatalog</text>
<polygon fill="none" stroke="black" points="2491,-541 2491,-564 2675,-564 2675,-541 2491,-541"/>
</g>
<!-- ViewDefinitionCatalog&#45;&gt;AbstractCatalog -->
<g id="edge8" class="edge">
<title>ViewDefinitionCatalog&#45;&gt;AbstractCatalog</title>
<path fill="none" stroke="black" d="M2580.08,-534.23C2576.71,-514.27 2571.01,-480.53 2566.25,-452.33"/>
<polygon fill="none" stroke="black" points="2569.66,-451.5 2564.54,-442.23 2562.76,-452.67 2569.66,-451.5"/>
</g>
<!-- KameletParseCatalog -->
<g id="node15" class="node">
<title>KameletParseCatalog</title>
<polygon fill="none" stroke="black" points="3436,-726.5 3436,-747.5 3613,-747.5 3613,-726.5 3436,-726.5"/>
<text text-anchor="start" x="3439" y="-734.3" font-family="Times,serif" font-weight="bold" font-size="14.00">KameletParseCatalog</text>
<polygon fill="none" stroke="black" points="3434.5,-726 3434.5,-749 3613.5,-749 3613.5,-726 3434.5,-726"/>
</g>
<!-- ParseCatalog -->
<g id="node16" class="node">
<title>ParseCatalog</title>
<polygon fill="none" stroke="black" points="3632,-565.5 3632,-586.5 3964,-586.5 3964,-565.5 3632,-565.5"/>
<text text-anchor="start" x="3745.5" y="-573.3" font-family="Times,serif" font-weight="bold" font-size="14.00">ParseCatalog</text>
<polygon fill="none" stroke="black" points="3632,-517.5 3632,-565.5 3964,-565.5 3964,-517.5 3632,-517.5"/>
<text text-anchor="start" x="3766.5" y="-552.3" font-family="Times,serif" font-style="italic" font-size="14.00">Methods</text>
<text text-anchor="start" x="3635" y="-538.3" font-family="Times,serif" font-size="14.00">parse():CompletableFuture[List[T]]</text>
<text text-anchor="start" x="3635" y="-524.3" font-family="Times,serif" font-size="14.00">setFileVisitor(&lt;YamlProcessFile&gt; fileVisitor):</text>
<polygon fill="none" stroke="black" points="3631,-517 3631,-588 3965,-588 3965,-517 3631,-517"/>
</g>
<!-- KameletParseCatalog&#45;&gt;ParseCatalog -->
<g id="edge9" class="edge">
<title>KameletParseCatalog&#45;&gt;ParseCatalog</title>
<path fill="none" stroke="black" stroke-dasharray="5,2" d="M3540.74,-719.43C3560.96,-699.38 3596.56,-665.84 3631,-642 3654.65,-625.63 3681.69,-610.09 3707.02,-596.74"/>
<polygon fill="black" stroke="black" points="3715.9,-592.11 3709.11,-600.72 3711.47,-594.42 3707.03,-596.73 3707.03,-596.73 3707.03,-596.73 3711.47,-594.42 3704.95,-592.74 3715.9,-592.11 3715.9,-592.11"/>
</g>
<!-- Kamelet -->
<g id="node17" class="node">
<title>Kamelet</title>
<polygon fill="none" stroke="black" points="4253,-726.5 4253,-747.5 4326,-747.5 4326,-726.5 4253,-726.5"/>
<text text-anchor="start" x="4256" y="-734.3" font-family="Times,serif" font-weight="bold" font-size="14.00">Kamelet</text>
<polygon fill="none" stroke="black" points="4251.5,-726 4251.5,-749 4326.5,-749 4326.5,-726 4251.5,-726"/>
</g>
<!-- KameletBinding -->
<g id="node18" class="node">
<title>KameletBinding</title>
<polygon fill="none" stroke="black" points="4362,-726.5 4362,-747.5 4498,-747.5 4498,-726.5 4362,-726.5"/>
<text text-anchor="start" x="4365" y="-734.3" font-family="Times,serif" font-weight="bold" font-size="14.00">KameletBinding</text>
<polygon fill="none" stroke="black" points="4361,-726 4361,-749 4499,-749 4499,-726 4361,-726"/>
</g>
<!-- CatalogCollection -->
<g id="node20" class="node">
<title>CatalogCollection</title>
<polygon fill="none" stroke="black" points="2733,-391.5 2733,-412.5 2879,-412.5 2879,-391.5 2733,-391.5"/>
<text text-anchor="start" x="2736" y="-399.3" font-family="Times,serif" font-weight="bold" font-size="14.00">CatalogCollection</text>
<polygon fill="none" stroke="black" points="2732,-391 2732,-414 2880,-414 2880,-391 2732,-391"/>
</g>
<!-- CatalogCollection&#45;&gt;MetadataCatalog -->
<g id="edge11" class="edge">
<title>CatalogCollection&#45;&gt;MetadataCatalog</title>
<path fill="none" stroke="black" d="M2782.34,-384.46C2764.35,-371.9 2738.74,-354.84 2715,-342 2670.47,-317.91 2620.29,-294.74 2574.73,-275.1"/>
<polygon fill="none" stroke="black" points="2575.95,-271.82 2565.38,-271.1 2573.19,-278.25 2575.95,-271.82"/>
</g>
<!-- InMemoryCatalog -->
<g id="node21" class="node">
<title>InMemoryCatalog</title>
<polygon fill="none" stroke="black" points="2235,-391.5 2235,-412.5 2383,-412.5 2383,-391.5 2235,-391.5"/>
<text text-anchor="start" x="2238" y="-399.3" font-family="Times,serif" font-weight="bold" font-size="14.00">InMemoryCatalog</text>
<polygon fill="none" stroke="black" points="2234,-391 2234,-414 2384,-414 2384,-391 2234,-391"/>
</g>
<!-- InMemoryCatalog&#45;&gt;MetadataCatalog -->
<g id="edge12" class="edge">
<title>InMemoryCatalog&#45;&gt;MetadataCatalog</title>
<path fill="none" stroke="black" d="M2320.67,-384.28C2336.74,-360.56 2366.54,-316.59 2391.4,-279.89"/>
<polygon fill="none" stroke="black" points="2394.57,-281.46 2397.28,-271.22 2388.77,-277.53 2394.57,-281.46"/>
</g>
<!-- ReadOnlyCatalog -->
<g id="node22" class="node">
<title>ReadOnlyCatalog</title>
<polygon fill="none" stroke="black" points="2735,-541.5 2735,-562.5 2877,-562.5 2877,-541.5 2735,-541.5"/>
<text text-anchor="start" x="2738" y="-549.3" font-family="Times,serif" font-weight="bold" font-size="14.00">ReadOnlyCatalog</text>
<polygon fill="none" stroke="black" points="2734,-541 2734,-564 2878,-564 2878,-541 2734,-541"/>
</g>
<!-- ReadOnlyCatalog&#45;&gt;CatalogCollection -->
<g id="edge13" class="edge">
<title>ReadOnlyCatalog&#45;&gt;CatalogCollection</title>
<path fill="none" stroke="black" d="M2806,-534.23C2806,-508.83 2806,-461.15 2806,-430.93"/>
<polygon fill="none" stroke="black" points="2809.5,-430.66 2806,-420.66 2802.5,-430.66 2809.5,-430.66"/>
</g>
<!-- GitParseCatalog -->
<g id="node23" class="node">
<title>GitParseCatalog</title>
<polygon fill="none" stroke="black" points="4082,-726.5 4082,-747.5 4217,-747.5 4217,-726.5 4082,-726.5"/>
<text text-anchor="start" x="4085" y="-734.3" font-family="Times,serif" font-weight="bold" font-size="14.00">GitParseCatalog</text>
<polygon fill="none" stroke="black" points="4080.5,-726 4080.5,-749 4217.5,-749 4217.5,-726 4080.5,-726"/>
</g>
<!-- GitParseCatalog&#45;&gt;ParseCatalog -->
<g id="edge14" class="edge">
<title>GitParseCatalog&#45;&gt;ParseCatalog</title>
<path fill="none" stroke="black" d="M4137.62,-719.38C4122.8,-698.33 4094.97,-662.83 4063,-642 4033.87,-623.02 4000.28,-607.74 3967.01,-595.56"/>
<polygon fill="none" stroke="black" points="3967.76,-592.11 3957.17,-592.04 3965.41,-598.7 3967.76,-592.11"/>
</g>
<!-- YamlProcessFile -->
<g id="node24" class="node">
<title>YamlProcessFile</title>
<polygon fill="none" stroke="black" points="4082,-541.5 4082,-562.5 4217,-562.5 4217,-541.5 4082,-541.5"/>
<text text-anchor="start" x="4085" y="-549.3" font-family="Times,serif" font-weight="bold" font-size="14.00">YamlProcessFile</text>
<polygon fill="none" stroke="black" points="4080.5,-541 4080.5,-564 4217.5,-564 4217.5,-541 4080.5,-541"/>
</g>
<!-- GitParseCatalog&#45;&gt;YamlProcessFile -->
<g id="edge15" class="edge">
<title>GitParseCatalog&#45;&gt;YamlProcessFile</title>
<path fill="none" stroke="black" stroke-dasharray="5,2" d="M4144.85,-719.28C4141.69,-687.46 4141.41,-619.19 4144.02,-580.93"/>
<polygon fill="black" stroke="black" points="4144.87,-570.54 4148.54,-580.87 4144.46,-575.52 4144.05,-580.5 4144.05,-580.5 4144.05,-580.5 4144.46,-575.52 4139.57,-580.13 4144.87,-570.54 4144.87,-570.54"/>
</g>
<!-- YamlProcessFile&#45;&gt;GitParseCatalog -->
<g id="edge17" class="edge">
<title>YamlProcessFile&#45;&gt;GitParseCatalog</title>
<path fill="none" stroke="black" stroke-dasharray="5,2" d="M4153.13,-570.54C4156.3,-602.23 4156.59,-670.48 4154,-708.86"/>
<polygon fill="black" stroke="black" points="4153.15,-719.28 4149.48,-708.95 4153.55,-714.3 4153.96,-709.32 4153.96,-709.32 4153.96,-709.32 4153.55,-714.3 4158.45,-709.68 4153.15,-719.28 4153.15,-719.28"/>
</g>
<!-- JarParseCatalog -->
<g id="node25" class="node">
<title>JarParseCatalog</title>
<polygon fill="none" stroke="black" points="3649,-726.5 3649,-747.5 3783,-747.5 3783,-726.5 3649,-726.5"/>
<text text-anchor="start" x="3652" y="-734.3" font-family="Times,serif" font-weight="bold" font-size="14.00">JarParseCatalog</text>
<polygon fill="none" stroke="black" points="3648,-726 3648,-749 3784,-749 3784,-726 3648,-726"/>
</g>
<!-- JarParseCatalog&#45;&gt;ParseCatalog -->
<g id="edge16" class="edge">
<title>JarParseCatalog&#45;&gt;ParseCatalog</title>
<path fill="none" stroke="black" d="M3723.71,-719.28C3735.66,-692.63 3759.06,-640.4 3776.42,-601.65"/>
<polygon fill="none" stroke="black" points="3779.8,-602.68 3780.7,-592.12 3773.41,-599.81 3779.8,-602.68"/>
</g>
<!-- ViewDefinitionParseCatalog -->
<g id="node26" class="node">
<title>ViewDefinitionParseCatalog</title>
<polygon fill="none" stroke="black" points="3819,-726.5 3819,-747.5 4045,-747.5 4045,-726.5 3819,-726.5"/>
<text text-anchor="start" x="3822" y="-734.3" font-family="Times,serif" font-weight="bold" font-size="14.00">ViewDefinitionParseCatalog</text>
<polygon fill="none" stroke="black" points="3818,-726 3818,-749 4046,-749 4046,-726 3818,-726"/>
</g>
<!-- ViewDefinitionParseCatalog&#45;&gt;ParseCatalog -->
<g id="edge18" class="edge">
<title>ViewDefinitionParseCatalog&#45;&gt;ParseCatalog</title>
<path fill="none" stroke="black" stroke-dasharray="5,2" d="M3919.39,-719.28C3899.71,-692.4 3860.98,-639.51 3832.54,-600.67"/>
<polygon fill="black" stroke="black" points="3826.28,-592.12 3835.82,-597.53 3829.23,-596.15 3832.19,-600.19 3832.19,-600.19 3832.19,-600.19 3829.23,-596.15 3828.56,-602.85 3826.28,-592.12 3826.28,-592.12"/>
</g>
<!-- Parameter -->
<g id="node27" class="node">
<title>Parameter</title>
<polygon fill="none" stroke="black" points="4534,-806.5 4534,-827.5 4670,-827.5 4670,-806.5 4534,-806.5"/>
<text text-anchor="start" x="4560" y="-814.3" font-family="Times,serif" font-weight="bold" font-size="14.00">Parameter</text>
<polygon fill="none" stroke="black" points="4534,-646.5 4534,-806.5 4670,-806.5 4670,-646.5 4534,-646.5"/>
<text text-anchor="start" x="4564" y="-793.3" font-family="Times,serif" font-style="italic" font-size="14.00">Properties</text>
<text text-anchor="start" x="4537" y="-779.3" font-family="Times,serif" font-size="14.00">description:String</text>
<text text-anchor="start" x="4537" y="-765.3" font-family="Times,serif" font-size="14.00">title:String</text>
<text text-anchor="start" x="4537" y="-751.3" font-family="Times,serif" font-size="14.00">id:String</text>
<text text-anchor="start" x="4537" y="-737.3" font-family="Times,serif" font-size="14.00">value:Object</text>
<text text-anchor="start" x="4537" y="-723.3" font-family="Times,serif" font-size="14.00">default:Object</text>
<text text-anchor="start" x="4537" y="-709.3" font-family="Times,serif" font-size="14.00">type:String</text>
<text text-anchor="start" x="4537" y="-695.3" font-family="Times,serif" font-size="14.00">path:Boolean</text>
<text text-anchor="start" x="4537" y="-681.3" font-family="Times,serif" font-size="14.00">nullable:Boolean</text>
<text text-anchor="start" x="4537" y="-667.3" font-family="Times,serif" font-size="14.00">enum:Object[]</text>
<text text-anchor="start" x="4537" y="-653.3" font-family="Times,serif" font-size="14.00">examples:Object[]</text>
<polygon fill="none" stroke="black" points="4533,-646 4533,-829 4671,-829 4671,-646 4533,-646"/>
</g>
<!-- Branch -->
<g id="node28" class="node">
<title>Branch</title>
<polygon fill="none" stroke="black" points="4706,-726.5 4706,-747.5 4770,-747.5 4770,-726.5 4706,-726.5"/>
<text text-anchor="start" x="4709" y="-734.3" font-family="Times,serif" font-weight="bold" font-size="14.00">Branch</text>
<polygon fill="none" stroke="black" points="4705,-726 4705,-749 4771,-749 4771,-726 4705,-726"/>
</g>
<!-- Step&#45;&gt;Metadata -->
<g id="edge19" class="edge">
<title>Step&#45;&gt;Metadata</title>
<path fill="none" stroke="black" d="M664.13,-198.17C879.68,-162.94 1345.85,-86.75 1519.25,-58.41"/>
<polygon fill="none" stroke="black" points="1519.96,-61.84 1529.26,-56.77 1518.83,-54.93 1519.96,-61.84"/>
</g>
<!-- ViewDefinition&#45;&gt;Metadata -->
<g id="edge20" class="edge">
<title>ViewDefinition&#45;&gt;Metadata</title>
<path fill="none" stroke="black" d="M1586,-163.95C1586,-144.73 1586,-122.93 1586,-103.43"/>
<polygon fill="none" stroke="black" points="1589.5,-103.16 1586,-93.16 1582.5,-103.16 1589.5,-103.16"/>
</g>
<!-- ViewDefinitionConstraint -->
<g id="node31" class="node">
<title>ViewDefinitionConstraint</title>
<polygon fill="none" stroke="black" points="1219,-422.5 1219,-443.5 1445,-443.5 1445,-422.5 1219,-422.5"/>
<text text-anchor="start" x="1231.5" y="-430.3" font-family="Times,serif" font-weight="bold" font-size="14.00">ViewDefinitionConstraint</text>
<polygon fill="none" stroke="black" points="1219,-360.5 1219,-422.5 1445,-422.5 1445,-360.5 1219,-360.5"/>
<text text-anchor="start" x="1294" y="-409.3" font-family="Times,serif" font-style="italic" font-size="14.00">Properties</text>
<text text-anchor="start" x="1222" y="-395.3" font-family="Times,serif" font-size="14.00">mandatory:boolean</text>
<text text-anchor="start" x="1222" y="-381.3" font-family="Times,serif" font-size="14.00">operation:ConstraintOperation</text>
<text text-anchor="start" x="1222" y="-367.3" font-family="Times,serif" font-size="14.00">parameter:String</text>
<polygon fill="none" stroke="black" points="1218,-360 1218,-445 1446,-445 1446,-360 1218,-360"/>
</g>
<!-- ViewDefinitionConstraint&#45;&gt;ViewDefinition -->
<g id="edge21" class="edge">
<title>ViewDefinitionConstraint&#45;&gt;ViewDefinition</title>
<path fill="none" stroke="black" d="M1395.44,-355.79C1427.94,-332.38 1467.92,-303.57 1502.85,-278.41"/>
<polygon fill="black" stroke="black" points="1503.3,-278.08 1505.83,-271.33 1513.04,-271.07 1510.51,-277.82 1503.3,-278.08"/>
<text text-anchor="middle" x="1381.44" y="-344.59" font-family="Times,serif" font-size="14.00">0..n</text>
</g>
<!-- DeploymentGeneratorService -->
<g id="node32" class="node">
<title>DeploymentGeneratorService</title>
<polygon fill="none" stroke="black" points="9,-436.5 9,-457.5 389,-457.5 389,-436.5 9,-436.5"/>
<text text-anchor="start" x="83" y="-444.3" font-family="Times,serif" font-weight="bold" font-size="14.00">DeploymentGeneratorService</text>
<polygon fill="none" stroke="black" points="9,-346.5 9,-436.5 389,-436.5 389,-346.5 9,-346.5"/>
<text text-anchor="start" x="167.5" y="-423.3" font-family="Times,serif" font-style="italic" font-size="14.00">Methods</text>
<text text-anchor="start" x="12" y="-409.3" font-family="Times,serif" font-size="14.00">identifier():String</text>
<text text-anchor="start" x="12" y="-395.3" font-family="Times,serif" font-size="14.00">description():String</text>
<text text-anchor="start" x="12" y="-381.3" font-family="Times,serif" font-size="14.00">parse(&lt;List[Step]&gt; steps, &lt;Map&gt; metadata):String</text>
<text text-anchor="start" x="12" y="-367.3" font-family="Times,serif" font-size="14.00">appliesTo(&lt;List[Step]&gt; steps):boolean</text>
<text text-anchor="start" x="12" y="-353.3" font-family="Times,serif" font-size="14.00">getKinds():String[]</text>
<polygon fill="none" stroke="black" points="8,-346 8,-459 390,-459 390,-346 8,-346"/>
</g>
<!-- DeploymentGeneratorService&#45;&gt;Step -->
<g id="edge22" class="edge">
<title>DeploymentGeneratorService&#45;&gt;Step</title>
<path fill="none" stroke="black" stroke-dasharray="5,2" d="M314.1,-341.83C351.44,-322.47 392.98,-300.94 430.76,-281.35"/>
<polygon fill="black" stroke="black" points="439.77,-276.68 432.96,-285.28 435.33,-278.98 430.89,-281.29 430.89,-281.29 430.89,-281.29 435.33,-278.98 428.82,-277.29 439.77,-276.68 439.77,-276.68"/>
</g>
</g>
</svg>
