<?xml version="1.0" encoding="UTF-8" standalone="no"?>
<!DOCTYPE svg PUBLIC "-//W3C//DTD SVG 1.1//EN"
 "http://www.w3.org/Graphics/SVG/1.1/DTD/svg11.dtd">
<!-- Generated by graphviz version 2.43.0 (0)
 -->
<!-- Title: ClassDiagram Pages: 1 -->
<svg width="4086pt" height="841pt"
 viewBox="0.00 0.00 4086.00 841.00" xmlns="http://www.w3.org/2000/svg" xmlns:xlink="http://www.w3.org/1999/xlink">
<g id="graph0" class="graph" transform="scale(1 1) rotate(0) translate(4 837)">
<title>ClassDiagram</title>
<polygon fill="white" stroke="transparent" points="-4,4 -4,-837 4082,-837 4082,4 -4,4"/>
<!-- DeploymentResource -->
<g id="node1" class="node">
<title>DeploymentResource</title>
<polygon fill="none" stroke="black" points="176,-579.5 176,-600.5 714,-600.5 714,-579.5 176,-579.5"/>
<text text-anchor="start" x="360.5" y="-587.3" font-family="Times,serif" font-weight="bold" font-size="14.00">DeploymentResource</text>
<polygon fill="none" stroke="black" points="176,-503.5 176,-579.5 714,-579.5 714,-503.5 176,-503.5"/>
<text text-anchor="start" x="413.5" y="-566.3" font-family="Times,serif" font-style="italic" font-size="14.00">Methods</text>
<text text-anchor="start" x="179" y="-552.3" font-family="Times,serif" font-size="14.00">yaml(&lt;DeploymentResourceYamlRequest&gt; steps, &lt;String&gt; type):String[]</text>
<text text-anchor="start" x="179" y="-538.3" font-family="Times,serif" font-size="14.00">start(&lt;DeploymentResourceYamlRequest&gt; steps):String</text>
<text text-anchor="start" x="179" y="-524.3" font-family="Times,serif" font-size="14.00">integrations():String</text>
<text text-anchor="start" x="179" y="-510.3" font-family="Times,serif" font-size="14.00">stop():String</text>
<polygon fill="none" stroke="black" points="175,-503 175,-602 715,-602 715,-503 175,-503"/>
</g>
<!-- DeploymentService -->
<g id="node2" class="node">
<title>DeploymentService</title>
<polygon fill="none" stroke="black" points="265,-743.5 265,-764.5 625,-764.5 625,-743.5 265,-743.5"/>
<text text-anchor="start" x="369" y="-751.3" font-family="Times,serif" font-weight="bold" font-size="14.00">DeploymentService</text>
<polygon fill="none" stroke="black" points="265,-709.5 265,-743.5 625,-743.5 625,-709.5 265,-709.5"/>
<text text-anchor="start" x="413.5" y="-730.3" font-family="Times,serif" font-style="italic" font-size="14.00">Methods</text>
<text text-anchor="start" x="268" y="-716.3" font-family="Times,serif" font-size="14.00">yaml(&lt;List[Step]&gt; steps, &lt;String&gt; name):String</text>
<polygon fill="none" stroke="black" points="264,-709 264,-766 626,-766 626,-709 264,-709"/>
</g>
<!-- DeploymentService&#45;&gt;DeploymentResource -->
<g id="edge1" class="edge">
<title>DeploymentService&#45;&gt;DeploymentResource</title>
<path fill="none" stroke="black" d="M445,-704.62C445,-680.88 445,-647.65 445,-618.39"/>
<polygon fill="black" stroke="black" points="445,-618.13 441,-612.13 445,-606.13 449,-612.13 445,-618.13"/>
<text text-anchor="middle" x="431" y="-693.42" font-family="Times,serif" font-size="14.00">0..1</text>
</g>
<!-- LanguageResource 🐱relationship compositionOf LanguageService, 0..1 -->
<g id="node3" class="node">
<title>LanguageResource 🐱relationship compositionOf LanguageService, 0..1</title>
<polygon fill="none" stroke="black" points="1065,-743.5 1065,-764.5 1635,-764.5 1635,-743.5 1065,-743.5"/>
<text text-anchor="start" x="1068" y="-751.3" font-family="Times,serif" font-weight="bold" font-size="14.00">LanguageResource 🐱relationship compositionOf LanguageService, 0..1</text>
<polygon fill="none" stroke="black" points="1065,-709.5 1065,-743.5 1635,-743.5 1635,-709.5 1065,-709.5"/>
<text text-anchor="start" x="1318.5" y="-730.3" font-family="Times,serif" font-style="italic" font-size="14.00">Methods</text>
<text text-anchor="start" x="1305.5" y="-716.3" font-family="Times,serif" font-size="14.00">getAll():Map</text>
<polygon fill="none" stroke="black" points="1064,-709 1064,-766 1636,-766 1636,-709 1064,-709"/>
</g>
<!-- StepResource -->
<g id="node4" class="node">
<title>StepResource</title>
<polygon fill="none" stroke="black" points="2049,-771.5 2049,-792.5 2521,-792.5 2521,-771.5 2049,-771.5"/>
<text text-anchor="start" x="2230.5" y="-779.3" font-family="Times,serif" font-weight="bold" font-size="14.00">StepResource</text>
<polygon fill="none" stroke="black" points="2049,-681.5 2049,-771.5 2521,-771.5 2521,-681.5 2049,-681.5"/>
<text text-anchor="start" x="2253.5" y="-758.3" font-family="Times,serif" font-style="italic" font-size="14.00">Methods</text>
<text text-anchor="start" x="2052" y="-744.3" font-family="Times,serif" font-size="14.00">stepById(&lt;String&gt; id):Step</text>
<text text-anchor="start" x="2052" y="-730.3" font-family="Times,serif" font-size="14.00">stepsByName(&lt;String&gt; name):List[Step]</text>
<text text-anchor="start" x="2052" y="-716.3" font-family="Times,serif" font-size="14.00">stepsByKind(&lt;String&gt; type):List[Step]</text>
<text text-anchor="start" x="2052" y="-702.3" font-family="Times,serif" font-size="14.00">stepsByIntegrationType(&lt;String&gt; type):List[Step]</text>
<text text-anchor="start" x="2052" y="-688.3" font-family="Times,serif" font-size="14.00">allSteps(&lt;String&gt; type, &lt;String&gt; dsl, &lt;String&gt; kind):List[Step]</text>
<polygon fill="none" stroke="black" points="2048,-681 2048,-794 2522,-794 2522,-681 2048,-681"/>
</g>
<!-- StepCatalog -->
<g id="node5" class="node">
<title>StepCatalog</title>
<polygon fill="none" stroke="black" points="2234,-541.5 2234,-562.5 2336,-562.5 2336,-541.5 2234,-541.5"/>
<text text-anchor="start" x="2237" y="-549.3" font-family="Times,serif" font-weight="bold" font-size="14.00">StepCatalog</text>
<polygon fill="none" stroke="black" points="2233,-541 2233,-564 2337,-564 2337,-541 2233,-541"/>
</g>
<!-- StepResource&#45;&gt;StepCatalog -->
<g id="edge2" class="edge">
<title>StepResource&#45;&gt;StepCatalog</title>
<path fill="none" stroke="black" stroke-dasharray="5,2" d="M2285,-676.83C2285,-644.49 2285,-606.08 2285,-580.82"/>
<polygon fill="black" stroke="black" points="2285,-570.53 2289.5,-580.53 2285,-575.53 2285,-580.53 2285,-580.53 2285,-580.53 2285,-575.53 2280.5,-580.53 2285,-570.53 2285,-570.53"/>
</g>
<!-- AbstractCatalog -->
<g id="node11" class="node">
<title>AbstractCatalog</title>
<polygon fill="none" stroke="black" points="2299,-415.5 2299,-436.5 2577,-436.5 2577,-415.5 2299,-415.5"/>
<text text-anchor="start" x="2374.5" y="-423.3" font-family="Times,serif" font-weight="bold" font-size="14.00">AbstractCatalog</text>
<polygon fill="none" stroke="black" points="2299,-367.5 2299,-415.5 2577,-415.5 2577,-367.5 2299,-367.5"/>
<text text-anchor="start" x="2406.5" y="-402.3" font-family="Times,serif" font-style="italic" font-size="14.00">Methods</text>
<text text-anchor="start" x="2302" y="-388.3" font-family="Times,serif" font-size="14.00">waitForWarmUp():CompletableFuture</text>
<text text-anchor="start" x="2302" y="-374.3" font-family="Times,serif" font-size="14.00">loadParsers():List[ParseCatalog]</text>
<polygon fill="none" stroke="black" points="2298,-367 2298,-438 2578,-438 2578,-367 2298,-367"/>
</g>
<!-- StepCatalog&#45;&gt;AbstractCatalog -->
<g id="edge7" class="edge">
<title>StepCatalog&#45;&gt;AbstractCatalog</title>
<path fill="none" stroke="black" d="M2302.85,-534.23C2324.22,-513.57 2360.83,-478.15 2390.57,-449.38"/>
<polygon fill="none" stroke="black" points="2393.21,-451.69 2397.97,-442.23 2388.34,-446.66 2393.21,-451.69"/>
</g>
<!-- ViewDefinitionResource -->
<g id="node6" class="node">
<title>ViewDefinitionResource</title>
<polygon fill="none" stroke="black" points="715,-415.5 715,-436.5 1183,-436.5 1183,-415.5 715,-415.5"/>
<text text-anchor="start" x="854" y="-423.3" font-family="Times,serif" font-weight="bold" font-size="14.00">ViewDefinitionResource</text>
<polygon fill="none" stroke="black" points="715,-367.5 715,-415.5 1183,-415.5 1183,-367.5 715,-367.5"/>
<text text-anchor="start" x="917.5" y="-402.3" font-family="Times,serif" font-style="italic" font-size="14.00">Methods</text>
<text text-anchor="start" x="718" y="-388.3" font-family="Times,serif" font-size="14.00">views:(&lt;String&gt; yaml):</text>
<text text-anchor="start" x="718" y="-374.3" font-family="Times,serif" font-size="14.00">viewsPerStepList:(&lt;Step[]&gt; DeploymentResourceYamlRequest):</text>
<polygon fill="none" stroke="black" points="714,-367 714,-438 1184,-438 1184,-367 714,-367"/>
</g>
<!-- ViewDefinitionService -->
<g id="node7" class="node">
<title>ViewDefinitionService</title>
<polygon fill="none" stroke="black" points="750,-558.5 750,-579.5 1148,-579.5 1148,-558.5 750,-558.5"/>
<text text-anchor="start" x="862.5" y="-566.3" font-family="Times,serif" font-weight="bold" font-size="14.00">ViewDefinitionService</text>
<polygon fill="none" stroke="black" points="750,-524.5 750,-558.5 1148,-558.5 1148,-524.5 750,-524.5"/>
<text text-anchor="start" x="917.5" y="-545.3" font-family="Times,serif" font-style="italic" font-size="14.00">Methods</text>
<text text-anchor="start" x="753" y="-531.3" font-family="Times,serif" font-size="14.00">viewsPerStepList(&lt;Step[]&gt; steps):List[ViewDefinition]</text>
<polygon fill="none" stroke="black" points="749,-524 749,-581 1149,-581 1149,-524 749,-524"/>
</g>
<!-- ViewDefinitionService&#45;&gt;ViewDefinitionResource -->
<g id="edge3" class="edge">
<title>ViewDefinitionService&#45;&gt;ViewDefinitionResource</title>
<path fill="none" stroke="black" d="M949,-519.75C949,-500.63 949,-475.86 949,-454.09"/>
<polygon fill="black" stroke="black" points="949,-454.03 945,-448.03 949,-442.03 953,-448.03 949,-454.03"/>
<text text-anchor="middle" x="935" y="-508.55" font-family="Times,serif" font-size="14.00">0..1</text>
</g>
<!-- StepParserService -->
<g id="node9" class="node">
<title>StepParserService</title>
<polygon fill="none" stroke="black" points="426,-429.5 426,-450.5 679,-450.5 679,-429.5 426,-429.5"/>
<text text-anchor="start" x="480" y="-437.3" font-family="Times,serif" font-weight="bold" font-size="14.00">StepParserService</text>
<polygon fill="none" stroke="black" points="426,-353.5 426,-429.5 679,-429.5 679,-353.5 426,-353.5"/>
<text text-anchor="start" x="521" y="-416.3" font-family="Times,serif" font-style="italic" font-size="14.00">Methods</text>
<text text-anchor="start" x="429" y="-402.3" font-family="Times,serif" font-size="14.00">identifier():String</text>
<text text-anchor="start" x="429" y="-388.3" font-family="Times,serif" font-size="14.00">description():String</text>
<text text-anchor="start" x="429" y="-374.3" font-family="Times,serif" font-size="14.00">parse(&lt;String&gt; yaml):List[Step]</text>
<text text-anchor="start" x="429" y="-360.3" font-family="Times,serif" font-size="14.00">appliesTo(&lt;String&gt; yaml):boolean</text>
<polygon fill="none" stroke="black" points="424.5,-353 424.5,-452 679.5,-452 679.5,-353 424.5,-353"/>
</g>
<!-- ViewDefinitionService&#45;&gt;StepParserService -->
<g id="edge4" class="edge">
<title>ViewDefinitionService&#45;&gt;StepParserService</title>
<path fill="none" stroke="black" stroke-dasharray="5,2" d="M855.53,-519.96C807.87,-503.56 749.11,-482.83 697,-463 694.26,-461.96 691.49,-460.9 688.7,-459.82"/>
<polygon fill="black" stroke="black" points="679.16,-456.11 690.11,-455.54 683.82,-457.93 688.48,-459.74 688.48,-459.74 688.48,-459.74 683.82,-457.93 686.85,-463.93 679.16,-456.11 679.16,-456.11"/>
</g>
<!-- ViewDefinitionParserService -->
<g id="node10" class="node">
<title>ViewDefinitionParserService</title>
<polygon fill="none" stroke="black" points="1481,-422.5 1481,-443.5 2079,-443.5 2079,-422.5 1481,-422.5"/>
<text text-anchor="start" x="1667.5" y="-430.3" font-family="Times,serif" font-weight="bold" font-size="14.00">ViewDefinitionParserService</text>
<polygon fill="none" stroke="black" points="1481,-360.5 1481,-422.5 2079,-422.5 2079,-360.5 1481,-360.5"/>
<text text-anchor="start" x="1748.5" y="-409.3" font-family="Times,serif" font-style="italic" font-size="14.00">Methods</text>
<text text-anchor="start" x="1484" y="-395.3" font-family="Times,serif" font-size="14.00">parse(&lt;List[Step]&gt; steps):List[ViewDefinition]</text>
<text text-anchor="start" x="1484" y="-381.3" font-family="Times,serif" font-size="14.00">getViewsPerStep(&lt;List[Step]&gt; steps, &lt;ViewDefinition&gt; view):List[ViewDefinition]</text>
<text text-anchor="start" x="1484" y="-367.3" font-family="Times,serif" font-size="14.00">appliesTo(&lt;List[Step]&gt; steps, &lt;ViewDefinition&gt; viewDefinition):boolean</text>
<polygon fill="none" stroke="black" points="1480,-360 1480,-445 2080,-445 2080,-360 1480,-360"/>
</g>
<!-- ViewDefinitionService&#45;&gt;ViewDefinitionParserService -->
<g id="edge5" class="edge">
<title>ViewDefinitionService&#45;&gt;ViewDefinitionParserService</title>
<path fill="none" stroke="black" stroke-dasharray="5,2" d="M1136.19,-519.96C1233.69,-503.36 1354.83,-482.46 1463,-463 1484.6,-459.11 1507.02,-455.02 1529.5,-450.88"/>
<polygon fill="black" stroke="black" points="1539.48,-449.04 1530.47,-455.28 1534.57,-449.94 1529.65,-450.85 1529.65,-450.85 1529.65,-450.85 1534.57,-449.94 1528.83,-446.43 1539.48,-449.04 1539.48,-449.04"/>
</g>
<!-- LanguageService -->
<g id="node8" class="node">
<title>LanguageService</title>
<polygon fill="none" stroke="black" points="2558,-743.5 2558,-764.5 2699,-764.5 2699,-743.5 2558,-743.5"/>
<text text-anchor="start" x="2561" y="-751.3" font-family="Times,serif" font-weight="bold" font-size="14.00">LanguageService</text>
<polygon fill="none" stroke="black" points="2558,-709.5 2558,-743.5 2699,-743.5 2699,-709.5 2558,-709.5"/>
<text text-anchor="start" x="2597" y="-730.3" font-family="Times,serif" font-style="italic" font-size="14.00">Methods</text>
<text text-anchor="start" x="2584" y="-716.3" font-family="Times,serif" font-size="14.00">getAll():Map</text>
<polygon fill="none" stroke="black" points="2556.5,-709 2556.5,-766 2699.5,-766 2699.5,-709 2556.5,-709"/>
</g>
<!-- Step -->
<g id="node28" class="node">
<title>Step</title>
<polygon fill="none" stroke="black" points="449,-279.5 449,-300.5 655,-300.5 655,-279.5 449,-279.5"/>
<text text-anchor="start" x="534" y="-287.3" font-family="Times,serif" font-weight="bold" font-size="14.00">Step</text>
<polygon fill="none" stroke="black" points="449,-133.5 449,-279.5 655,-279.5 655,-133.5 449,-133.5"/>
<text text-anchor="start" x="514" y="-266.3" font-family="Times,serif" font-style="italic" font-size="14.00">Properties</text>
<text text-anchor="start" x="452" y="-252.3" font-family="Times,serif" font-size="14.00">description:String</text>
<text text-anchor="start" x="452" y="-238.3" font-family="Times,serif" font-size="14.00">title:String</text>
<text text-anchor="start" x="452" y="-224.3" font-family="Times,serif" font-size="14.00">parameters:List[Parameter]</text>
<text text-anchor="start" x="452" y="-210.3" font-family="Times,serif" font-size="14.00">icon:String</text>
<text text-anchor="start" x="452" y="-196.3" font-family="Times,serif" font-size="14.00">UUID:String</text>
<text text-anchor="start" x="452" y="-182.3" font-family="Times,serif" font-size="14.00">required:String[]</text>
<text text-anchor="start" x="452" y="-168.3" font-family="Times,serif" font-size="14.00">group:String</text>
<text text-anchor="start" x="452" y="-154.3" font-family="Times,serif" font-size="14.00">kind:String</text>
<text text-anchor="start" x="452" y="-140.3" font-family="Times,serif" font-size="14.00">branches:Branch[]</text>
<polygon fill="none" stroke="black" points="448,-133 448,-302 656,-302 656,-133 448,-133"/>
</g>
<!-- StepParserService&#45;&gt;Step -->
<g id="edge23" class="edge">
<title>StepParserService&#45;&gt;Step</title>
<path fill="none" stroke="black" stroke-dasharray="5,2" d="M552,-348.57C552,-338.39 552,-327.42 552,-316.33"/>
<polygon fill="black" stroke="black" points="552,-306.14 556.5,-316.13 552,-311.14 552,-316.14 552,-316.14 552,-316.14 552,-311.14 547.5,-316.14 552,-306.14 552,-306.14"/>
</g>
<!-- ViewDefinition -->
<g id="node29" class="node">
<title>ViewDefinition</title>
<polygon fill="none" stroke="black" points="1402,-244.5 1402,-265.5 1711,-265.5 1711,-244.5 1402,-244.5"/>
<text text-anchor="start" x="1498.5" y="-252.3" font-family="Times,serif" font-weight="bold" font-size="14.00">ViewDefinition</text>
<polygon fill="none" stroke="black" points="1402,-168.5 1402,-244.5 1711,-244.5 1711,-168.5 1402,-168.5"/>
<text text-anchor="start" x="1518.5" y="-231.3" font-family="Times,serif" font-style="italic" font-size="14.00">Properties</text>
<text text-anchor="start" x="1405" y="-217.3" font-family="Times,serif" font-size="14.00">properties:Map[String, String]</text>
<text text-anchor="start" x="1405" y="-203.3" font-family="Times,serif" font-size="14.00">step:Step</text>
<text text-anchor="start" x="1405" y="-189.3" font-family="Times,serif" font-size="14.00">url:String</text>
<text text-anchor="start" x="1405" y="-175.3" font-family="Times,serif" font-size="14.00">constraints:List[ViewDefinitionConstraint]</text>
<polygon fill="none" stroke="black" points="1400.5,-168 1400.5,-267 1711.5,-267 1711.5,-168 1400.5,-168"/>
</g>
<!-- ViewDefinitionParserService&#45;&gt;ViewDefinition -->
<g id="edge24" class="edge">
<title>ViewDefinitionParserService&#45;&gt;ViewDefinition</title>
<path fill="none" stroke="black" stroke-dasharray="5,2" d="M1724.05,-355.79C1695.02,-332.08 1659.23,-302.83 1628.14,-277.44"/>
<polygon fill="black" stroke="black" points="1620.35,-271.07 1630.94,-273.91 1624.22,-274.23 1628.09,-277.39 1628.09,-277.39 1628.09,-277.39 1624.22,-274.23 1625.24,-280.88 1620.35,-271.07 1620.35,-271.07"/>
</g>
<!-- MetadataCatalog -->
<g id="node12" class="node">
<title>MetadataCatalog</title>
<polygon fill="none" stroke="black" points="2142,-244.5 2142,-265.5 2485,-265.5 2485,-244.5 2142,-244.5"/>
<text text-anchor="start" x="2245.5" y="-252.3" font-family="Times,serif" font-weight="bold" font-size="14.00">MetadataCatalog</text>
<polygon fill="none" stroke="black" points="2142,-168.5 2142,-244.5 2485,-244.5 2485,-168.5 2142,-168.5"/>
<text text-anchor="start" x="2282" y="-231.3" font-family="Times,serif" font-style="italic" font-size="14.00">Methods</text>
<text text-anchor="start" x="2145" y="-217.3" font-family="Times,serif" font-size="14.00">searchStepByID(&lt;String&gt; id):Metadata</text>
<text text-anchor="start" x="2145" y="-203.3" font-family="Times,serif" font-size="14.00">searchStepByName(&lt;String&gt; name):Metadata</text>
<text text-anchor="start" x="2145" y="-189.3" font-family="Times,serif" font-size="14.00">store(&lt;List[Step]&gt; steps):boolean</text>
<text text-anchor="start" x="2145" y="-175.3" font-family="Times,serif" font-size="14.00">getAll():List[Metadata]</text>
<polygon fill="none" stroke="black" points="2140.5,-168 2140.5,-267 2485.5,-267 2485.5,-168 2140.5,-168"/>
</g>
<!-- AbstractCatalog&#45;&gt;MetadataCatalog -->
<g id="edge6" class="edge">
<title>AbstractCatalog&#45;&gt;MetadataCatalog</title>
<path fill="none" stroke="black" stroke-dasharray="5,2" d="M2411.49,-362.69C2394.99,-338.54 2373.42,-306.96 2354.68,-279.51"/>
<polygon fill="black" stroke="black" points="2348.96,-271.14 2358.31,-276.86 2351.78,-275.27 2354.6,-279.4 2354.6,-279.4 2354.6,-279.4 2351.78,-275.27 2350.88,-281.94 2348.96,-271.14 2348.96,-271.14"/>
</g>
<!-- Metadata -->
<g id="node18" class="node">
<title>Metadata</title>
<polygon fill="none" stroke="black" points="1509,-66.5 1509,-87.5 1604,-87.5 1604,-66.5 1509,-66.5"/>
<text text-anchor="start" x="1518.5" y="-74.3" font-family="Times,serif" font-weight="bold" font-size="14.00">Metadata</text>
<polygon fill="none" stroke="black" points="1509,-4.5 1509,-66.5 1604,-66.5 1604,-4.5 1509,-4.5"/>
<text text-anchor="start" x="1518.5" y="-53.3" font-family="Times,serif" font-style="italic" font-size="14.00">Properties</text>
<text text-anchor="start" x="1512" y="-39.3" font-family="Times,serif" font-size="14.00">ID:String</text>
<text text-anchor="start" x="1512" y="-25.3" font-family="Times,serif" font-size="14.00">name:String</text>
<text text-anchor="start" x="1512" y="-11.3" font-family="Times,serif" font-size="14.00">type:String</text>
<polygon fill="none" stroke="black" points="1507.5,-4 1507.5,-89 1604.5,-89 1604.5,-4 1507.5,-4"/>
</g>
<!-- MetadataCatalog&#45;&gt;Metadata -->
<g id="edge10" class="edge">
<title>MetadataCatalog&#45;&gt;Metadata</title>
<path fill="none" stroke="black" stroke-dasharray="5,2" d="M2132.16,-176.13C1968.29,-139.54 1735.7,-87.62 1622.73,-62.4"/>
<polygon fill="black" stroke="black" points="1612.83,-60.19 1623.57,-57.98 1617.71,-61.28 1622.59,-62.37 1622.59,-62.37 1622.59,-62.37 1617.71,-61.28 1621.61,-66.76 1612.83,-60.19 1612.83,-60.19"/>
</g>
<!-- ViewDefinitionCatalog -->
<g id="node13" class="node">
<title>ViewDefinitionCatalog</title>
<polygon fill="none" stroke="black" points="2372,-541.5 2372,-562.5 2554,-562.5 2554,-541.5 2372,-541.5"/>
<text text-anchor="start" x="2375" y="-549.3" font-family="Times,serif" font-weight="bold" font-size="14.00">ViewDefinitionCatalog</text>
<polygon fill="none" stroke="black" points="2371,-541 2371,-564 2555,-564 2555,-541 2371,-541"/>
</g>
<!-- ViewDefinitionCatalog&#45;&gt;AbstractCatalog -->
<g id="edge8" class="edge">
<title>ViewDefinitionCatalog&#45;&gt;AbstractCatalog</title>
<path fill="none" stroke="black" d="M2460.08,-534.23C2456.71,-514.27 2451.01,-480.53 2446.25,-452.33"/>
<polygon fill="none" stroke="black" points="2449.66,-451.5 2444.54,-442.23 2442.76,-452.67 2449.66,-451.5"/>
</g>
<!-- KameletParseCatalog -->
<g id="node14" class="node">
<title>KameletParseCatalog</title>
<polygon fill="none" stroke="black" points="2735,-726.5 2735,-747.5 2912,-747.5 2912,-726.5 2735,-726.5"/>
<text text-anchor="start" x="2738" y="-734.3" font-family="Times,serif" font-weight="bold" font-size="14.00">KameletParseCatalog</text>
<polygon fill="none" stroke="black" points="2733.5,-726 2733.5,-749 2912.5,-749 2912.5,-726 2733.5,-726"/>
</g>
<!-- ParseCatalog -->
<g id="node15" class="node">
<title>ParseCatalog</title>
<polygon fill="none" stroke="black" points="2931,-565.5 2931,-586.5 3263,-586.5 3263,-565.5 2931,-565.5"/>
<text text-anchor="start" x="3044.5" y="-573.3" font-family="Times,serif" font-weight="bold" font-size="14.00">ParseCatalog</text>
<polygon fill="none" stroke="black" points="2931,-517.5 2931,-565.5 3263,-565.5 3263,-517.5 2931,-517.5"/>
<text text-anchor="start" x="3065.5" y="-552.3" font-family="Times,serif" font-style="italic" font-size="14.00">Methods</text>
<text text-anchor="start" x="2934" y="-538.3" font-family="Times,serif" font-size="14.00">parse():CompletableFuture[List[T]]</text>
<text text-anchor="start" x="2934" y="-524.3" font-family="Times,serif" font-size="14.00">setFileVisitor(&lt;YamlProcessFile&gt; fileVisitor):</text>
<polygon fill="none" stroke="black" points="2930,-517 2930,-588 3264,-588 3264,-517 2930,-517"/>
</g>
<!-- KameletParseCatalog&#45;&gt;ParseCatalog -->
<g id="edge9" class="edge">
<title>KameletParseCatalog&#45;&gt;ParseCatalog</title>
<path fill="none" stroke="black" stroke-dasharray="5,2" d="M2839.74,-719.43C2859.96,-699.38 2895.56,-665.84 2930,-642 2953.65,-625.63 2980.69,-610.09 3006.02,-596.74"/>
<polygon fill="black" stroke="black" points="3014.9,-592.11 3008.11,-600.72 3010.47,-594.42 3006.03,-596.73 3006.03,-596.73 3006.03,-596.73 3010.47,-594.42 3003.95,-592.74 3014.9,-592.11 3014.9,-592.11"/>
</g>
<!-- Kamelet -->
<g id="node16" class="node">
<title>Kamelet</title>
<polygon fill="none" stroke="black" points="3552,-726.5 3552,-747.5 3625,-747.5 3625,-726.5 3552,-726.5"/>
<text text-anchor="start" x="3555" y="-734.3" font-family="Times,serif" font-weight="bold" font-size="14.00">Kamelet</text>
<polygon fill="none" stroke="black" points="3550.5,-726 3550.5,-749 3625.5,-749 3625.5,-726 3550.5,-726"/>
</g>
<!-- KameletBinding -->
<g id="node17" class="node">
<title>KameletBinding</title>
<polygon fill="none" stroke="black" points="3661,-726.5 3661,-747.5 3797,-747.5 3797,-726.5 3661,-726.5"/>
<text text-anchor="start" x="3664" y="-734.3" font-family="Times,serif" font-weight="bold" font-size="14.00">KameletBinding</text>
<polygon fill="none" stroke="black" points="3660,-726 3660,-749 3798,-749 3798,-726 3660,-726"/>
</g>
<!-- CatalogCollection -->
<g id="node19" class="node">
<title>CatalogCollection</title>
<polygon fill="none" stroke="black" points="2613,-391.5 2613,-412.5 2759,-412.5 2759,-391.5 2613,-391.5"/>
<text text-anchor="start" x="2616" y="-399.3" font-family="Times,serif" font-weight="bold" font-size="14.00">CatalogCollection</text>
<polygon fill="none" stroke="black" points="2612,-391 2612,-414 2760,-414 2760,-391 2612,-391"/>
</g>
<!-- CatalogCollection&#45;&gt;MetadataCatalog -->
<g id="edge11" class="edge">
<title>CatalogCollection&#45;&gt;MetadataCatalog</title>
<path fill="none" stroke="black" d="M2662.34,-384.46C2644.35,-371.9 2618.74,-354.84 2595,-342 2550.47,-317.91 2500.29,-294.74 2454.73,-275.1"/>
<polygon fill="none" stroke="black" points="2455.95,-271.82 2445.38,-271.1 2453.19,-278.25 2455.95,-271.82"/>
</g>
<!-- InMemoryCatalog -->
<g id="node20" class="node">
<title>InMemoryCatalog</title>
<polygon fill="none" stroke="black" points="2115,-391.5 2115,-412.5 2263,-412.5 2263,-391.5 2115,-391.5"/>
<text text-anchor="start" x="2118" y="-399.3" font-family="Times,serif" font-weight="bold" font-size="14.00">InMemoryCatalog</text>
<polygon fill="none" stroke="black" points="2114,-391 2114,-414 2264,-414 2264,-391 2114,-391"/>
</g>
<!-- InMemoryCatalog&#45;&gt;MetadataCatalog -->
<g id="edge12" class="edge">
<title>InMemoryCatalog&#45;&gt;MetadataCatalog</title>
<path fill="none" stroke="black" d="M2200.67,-384.28C2216.74,-360.56 2246.54,-316.59 2271.4,-279.89"/>
<polygon fill="none" stroke="black" points="2274.57,-281.46 2277.28,-271.22 2268.77,-277.53 2274.57,-281.46"/>
</g>
<!-- ReadOnlyCatalog -->
<g id="node21" class="node">
<title>ReadOnlyCatalog</title>
<polygon fill="none" stroke="black" points="2615,-541.5 2615,-562.5 2757,-562.5 2757,-541.5 2615,-541.5"/>
<text text-anchor="start" x="2618" y="-549.3" font-family="Times,serif" font-weight="bold" font-size="14.00">ReadOnlyCatalog</text>
<polygon fill="none" stroke="black" points="2614,-541 2614,-564 2758,-564 2758,-541 2614,-541"/>
</g>
<!-- ReadOnlyCatalog&#45;&gt;CatalogCollection -->
<g id="edge13" class="edge">
<title>ReadOnlyCatalog&#45;&gt;CatalogCollection</title>
<path fill="none" stroke="black" d="M2686,-534.23C2686,-508.83 2686,-461.15 2686,-430.93"/>
<polygon fill="none" stroke="black" points="2689.5,-430.66 2686,-420.66 2682.5,-430.66 2689.5,-430.66"/>
</g>
<!-- GitParseCatalog -->
<g id="node22" class="node">
<title>GitParseCatalog</title>
<polygon fill="none" stroke="black" points="3381,-726.5 3381,-747.5 3516,-747.5 3516,-726.5 3381,-726.5"/>
<text text-anchor="start" x="3384" y="-734.3" font-family="Times,serif" font-weight="bold" font-size="14.00">GitParseCatalog</text>
<polygon fill="none" stroke="black" points="3379.5,-726 3379.5,-749 3516.5,-749 3516.5,-726 3379.5,-726"/>
</g>
<!-- GitParseCatalog&#45;&gt;ParseCatalog -->
<g id="edge14" class="edge">
<title>GitParseCatalog&#45;&gt;ParseCatalog</title>
<path fill="none" stroke="black" d="M3436.62,-719.38C3421.8,-698.33 3393.97,-662.83 3362,-642 3332.87,-623.02 3299.28,-607.74 3266.01,-595.56"/>
<polygon fill="none" stroke="black" points="3266.76,-592.11 3256.17,-592.04 3264.41,-598.7 3266.76,-592.11"/>
</g>
<!-- YamlProcessFile -->
<g id="node23" class="node">
<title>YamlProcessFile</title>
<polygon fill="none" stroke="black" points="3381,-541.5 3381,-562.5 3516,-562.5 3516,-541.5 3381,-541.5"/>
<text text-anchor="start" x="3384" y="-549.3" font-family="Times,serif" font-weight="bold" font-size="14.00">YamlProcessFile</text>
<polygon fill="none" stroke="black" points="3379.5,-541 3379.5,-564 3516.5,-564 3516.5,-541 3379.5,-541"/>
</g>
<!-- GitParseCatalog&#45;&gt;YamlProcessFile -->
<g id="edge15" class="edge">
<title>GitParseCatalog&#45;&gt;YamlProcessFile</title>
<path fill="none" stroke="black" stroke-dasharray="5,2" d="M3443.85,-719.28C3440.69,-687.46 3440.41,-619.19 3443.02,-580.93"/>
<polygon fill="black" stroke="black" points="3443.87,-570.54 3447.54,-580.87 3443.46,-575.52 3443.05,-580.5 3443.05,-580.5 3443.05,-580.5 3443.46,-575.52 3438.57,-580.13 3443.87,-570.54 3443.87,-570.54"/>
</g>
<!-- YamlProcessFile&#45;&gt;GitParseCatalog -->
<g id="edge17" class="edge">
<title>YamlProcessFile&#45;&gt;GitParseCatalog</title>
<path fill="none" stroke="black" stroke-dasharray="5,2" d="M3452.13,-570.54C3455.3,-602.23 3455.59,-670.48 3453,-708.86"/>
<polygon fill="black" stroke="black" points="3452.15,-719.28 3448.48,-708.95 3452.55,-714.3 3452.96,-709.32 3452.96,-709.32 3452.96,-709.32 3452.55,-714.3 3457.45,-709.68 3452.15,-719.28 3452.15,-719.28"/>
</g>
<!-- JarParseCatalog -->
<g id="node24" class="node">
<title>JarParseCatalog</title>
<polygon fill="none" stroke="black" points="2948,-726.5 2948,-747.5 3082,-747.5 3082,-726.5 2948,-726.5"/>
<text text-anchor="start" x="2951" y="-734.3" font-family="Times,serif" font-weight="bold" font-size="14.00">JarParseCatalog</text>
<polygon fill="none" stroke="black" points="2947,-726 2947,-749 3083,-749 3083,-726 2947,-726"/>
</g>
<!-- JarParseCatalog&#45;&gt;ParseCatalog -->
<g id="edge16" class="edge">
<title>JarParseCatalog&#45;&gt;ParseCatalog</title>
<path fill="none" stroke="black" d="M3022.71,-719.28C3034.66,-692.63 3058.06,-640.4 3075.42,-601.65"/>
<polygon fill="none" stroke="black" points="3078.8,-602.68 3079.7,-592.12 3072.41,-599.81 3078.8,-602.68"/>
</g>
<!-- ViewDefinitionParseCatalog -->
<g id="node25" class="node">
<title>ViewDefinitionParseCatalog</title>
<polygon fill="none" stroke="black" points="3118,-726.5 3118,-747.5 3344,-747.5 3344,-726.5 3118,-726.5"/>
<text text-anchor="start" x="3121" y="-734.3" font-family="Times,serif" font-weight="bold" font-size="14.00">ViewDefinitionParseCatalog</text>
<polygon fill="none" stroke="black" points="3117,-726 3117,-749 3345,-749 3345,-726 3117,-726"/>
</g>
<!-- ViewDefinitionParseCatalog&#45;&gt;ParseCatalog -->
<g id="edge18" class="edge">
<title>ViewDefinitionParseCatalog&#45;&gt;ParseCatalog</title>
<path fill="none" stroke="black" stroke-dasharray="5,2" d="M3218.39,-719.28C3198.71,-692.4 3159.98,-639.51 3131.54,-600.67"/>
<polygon fill="black" stroke="black" points="3125.28,-592.12 3134.82,-597.53 3128.23,-596.15 3131.19,-600.19 3131.19,-600.19 3131.19,-600.19 3128.23,-596.15 3127.56,-602.85 3125.28,-592.12 3125.28,-592.12"/>
</g>
<!-- Parameter -->
<g id="node26" class="node">
<title>Parameter</title>
<polygon fill="none" stroke="black" points="3833,-806.5 3833,-827.5 3969,-827.5 3969,-806.5 3833,-806.5"/>
<text text-anchor="start" x="3859" y="-814.3" font-family="Times,serif" font-weight="bold" font-size="14.00">Parameter</text>
<polygon fill="none" stroke="black" points="3833,-646.5 3833,-806.5 3969,-806.5 3969,-646.5 3833,-646.5"/>
<text text-anchor="start" x="3863" y="-793.3" font-family="Times,serif" font-style="italic" font-size="14.00">Properties</text>
<text text-anchor="start" x="3836" y="-779.3" font-family="Times,serif" font-size="14.00">description:String</text>
<text text-anchor="start" x="3836" y="-765.3" font-family="Times,serif" font-size="14.00">title:String</text>
<text text-anchor="start" x="3836" y="-751.3" font-family="Times,serif" font-size="14.00">id:String</text>
<text text-anchor="start" x="3836" y="-737.3" font-family="Times,serif" font-size="14.00">value:Object</text>
<text text-anchor="start" x="3836" y="-723.3" font-family="Times,serif" font-size="14.00">default:Object</text>
<text text-anchor="start" x="3836" y="-709.3" font-family="Times,serif" font-size="14.00">type:String</text>
<text text-anchor="start" x="3836" y="-695.3" font-family="Times,serif" font-size="14.00">path:Boolean</text>
<text text-anchor="start" x="3836" y="-681.3" font-family="Times,serif" font-size="14.00">nullable:Boolean</text>
<text text-anchor="start" x="3836" y="-667.3" font-family="Times,serif" font-size="14.00">enum:Object[]</text>
<text text-anchor="start" x="3836" y="-653.3" font-family="Times,serif" font-size="14.00">examples:Object[]</text>
<polygon fill="none" stroke="black" points="3832,-646 3832,-829 3970,-829 3970,-646 3832,-646"/>
</g>
<!-- Branch -->
<g id="node27" class="node">
<title>Branch</title>
<polygon fill="none" stroke="black" points="4005,-726.5 4005,-747.5 4069,-747.5 4069,-726.5 4005,-726.5"/>
<text text-anchor="start" x="4008" y="-734.3" font-family="Times,serif" font-weight="bold" font-size="14.00">Branch</text>
<polygon fill="none" stroke="black" points="4004,-726 4004,-749 4070,-749 4070,-726 4004,-726"/>
</g>
<!-- Step&#45;&gt;Metadata -->
<g id="edge19" class="edge">
<title>Step&#45;&gt;Metadata</title>
<path fill="none" stroke="black" d="M664.25,-197.61C874.23,-162.26 1320.47,-87.15 1489.36,-58.72"/>
<polygon fill="none" stroke="black" points="1490.08,-62.15 1499.36,-57.03 1488.91,-55.24 1490.08,-62.15"/>
</g>
<!-- ViewDefinition&#45;&gt;Metadata -->
<g id="edge20" class="edge">
<title>ViewDefinition&#45;&gt;Metadata</title>
<path fill="none" stroke="black" d="M1556,-163.95C1556,-144.73 1556,-122.93 1556,-103.43"/>
<polygon fill="none" stroke="black" points="1559.5,-103.16 1556,-93.16 1552.5,-103.16 1559.5,-103.16"/>
</g>
<!-- ViewDefinitionConstraint -->
<g id="node30" class="node">
<title>ViewDefinitionConstraint</title>
<polygon fill="none" stroke="black" points="1219,-422.5 1219,-443.5 1445,-443.5 1445,-422.5 1219,-422.5"/>
<text text-anchor="start" x="1231.5" y="-430.3" font-family="Times,serif" font-weight="bold" font-size="14.00">ViewDefinitionConstraint</text>
<polygon fill="none" stroke="black" points="1219,-360.5 1219,-422.5 1445,-422.5 1445,-360.5 1219,-360.5"/>
<text text-anchor="start" x="1294" y="-409.3" font-family="Times,serif" font-style="italic" font-size="14.00">Properties</text>
<text text-anchor="start" x="1222" y="-395.3" font-family="Times,serif" font-size="14.00">mandatory:boolean</text>
<text text-anchor="start" x="1222" y="-381.3" font-family="Times,serif" font-size="14.00">operation:ConstraintOperation</text>
<text text-anchor="start" x="1222" y="-367.3" font-family="Times,serif" font-size="14.00">parameter:String</text>
<polygon fill="none" stroke="black" points="1218,-360 1218,-445 1446,-445 1446,-360 1218,-360"/>
</g>
<!-- ViewDefinitionConstraint&#45;&gt;ViewDefinition -->
<g id="edge21" class="edge">
<title>ViewDefinitionConstraint&#45;&gt;ViewDefinition</title>
<path fill="none" stroke="black" d="M1387.95,-355.79C1416.48,-332.48 1451.56,-303.82 1482.28,-278.73"/>
<polygon fill="black" stroke="black" points="1482.36,-278.66 1484.48,-271.77 1491.65,-271.07 1489.54,-277.96 1482.36,-278.66"/>
<text text-anchor="middle" x="1373.95" y="-344.59" font-family="Times,serif" font-size="14.00">0..n</text>
</g>
<!-- DeploymentGeneratorService -->
<g id="node31" class="node">
<title>DeploymentGeneratorService</title>
<polygon fill="none" stroke="black" points="9,-436.5 9,-457.5 389,-457.5 389,-436.5 9,-436.5"/>
<text text-anchor="start" x="83" y="-444.3" font-family="Times,serif" font-weight="bold" font-size="14.00">DeploymentGeneratorService</text>
<polygon fill="none" stroke="black" points="9,-346.5 9,-436.5 389,-436.5 389,-346.5 9,-346.5"/>
<text text-anchor="start" x="167.5" y="-423.3" font-family="Times,serif" font-style="italic" font-size="14.00">Methods</text>
<text text-anchor="start" x="12" y="-409.3" font-family="Times,serif" font-size="14.00">identifier():String</text>
<text text-anchor="start" x="12" y="-395.3" font-family="Times,serif" font-size="14.00">description():String</text>
<text text-anchor="start" x="12" y="-381.3" font-family="Times,serif" font-size="14.00">parse(&lt;List[Step]&gt; steps, &lt;Map&gt; metadata):String</text>
<text text-anchor="start" x="12" y="-367.3" font-family="Times,serif" font-size="14.00">appliesTo(&lt;List[Step]&gt; steps):boolean</text>
<text text-anchor="start" x="12" y="-353.3" font-family="Times,serif" font-size="14.00">getKinds():String[]</text>
<polygon fill="none" stroke="black" points="8,-346 8,-459 390,-459 390,-346 8,-346"/>
</g>
<!-- DeploymentGeneratorService&#45;&gt;Step -->
<g id="edge22" class="edge">
<title>DeploymentGeneratorService&#45;&gt;Step</title>
<path fill="none" stroke="black" stroke-dasharray="5,2" d="M314.1,-341.83C351.44,-322.47 392.98,-300.94 430.76,-281.35"/>
<polygon fill="black" stroke="black" points="439.77,-276.68 432.96,-285.28 435.33,-278.98 430.89,-281.29 430.89,-281.29 430.89,-281.29 435.33,-278.98 428.82,-277.29 439.77,-276.68 439.77,-276.68"/>
</g>
</g>
</svg>
