<?xml version="1.0" encoding="UTF-8" standalone="no"?>
<!DOCTYPE svg PUBLIC "-//W3C//DTD SVG 1.1//EN"
 "http://www.w3.org/Graphics/SVG/1.1/DTD/svg11.dtd">
<!-- Generated by graphviz version 2.43.0 (0)
 -->
<!-- Title: ClassDiagram Pages: 1 -->
<svg width="4479pt" height="840pt"
 viewBox="0.00 0.00 4479.00 840.00" xmlns="http://www.w3.org/2000/svg" xmlns:xlink="http://www.w3.org/1999/xlink">
<g id="graph0" class="graph" transform="scale(1 1) rotate(0) translate(4 836)">
<title>ClassDiagram</title>
<polygon fill="white" stroke="transparent" points="-4,4 -4,-836 4475,-836 4475,4 -4,4"/>
<!-- CapabilitiesResource -->
<g id="node1" class="node">
<title>CapabilitiesResource</title>
<polygon fill="none" stroke="black" points="9,-529.5 9,-550.5 183,-550.5 183,-529.5 9,-529.5"/>
<text text-anchor="start" x="12" y="-537.3" font-family="Times,serif" font-weight="bold" font-size="14.00">CapabilitiesResource</text>
<polygon fill="none" stroke="black" points="9,-495.5 9,-529.5 183,-529.5 183,-495.5 9,-495.5"/>
<text text-anchor="start" x="64.5" y="-516.3" font-family="Times,serif" font-style="italic" font-size="14.00">Methods</text>
<text text-anchor="start" x="25" y="-502.3" font-family="Times,serif" font-size="14.00">getAll():Capabilities</text>
<polygon fill="none" stroke="black" points="8,-495 8,-552 184,-552 184,-495 8,-495"/>
</g>
<!-- LanguageService -->
<g id="node2" class="node">
<title>LanguageService</title>
<text text-anchor="middle" x="96" y="-718.8" font-family="Times,serif" font-size="14.00">LanguageService</text>
</g>
<!-- LanguageService&#45;&gt;CapabilitiesResource -->
<g id="edge1" class="edge">
<title>LanguageService&#45;&gt;CapabilitiesResource</title>
<path fill="none" stroke="black" d="M96,-704.36C96,-674.29 96,-611.13 96,-568.26"/>
<polygon fill="black" stroke="black" points="96,-568.2 92,-562.2 96,-556.2 100,-562.2 96,-568.2"/>
<text text-anchor="middle" x="82" y="-693.16" font-family="Times,serif" font-size="14.00">0..1</text>
</g>
<!-- DeploymentsResource -->
<g id="node3" class="node">
<title>DeploymentsResource</title>
<polygon fill="none" stroke="black" points="193,-756.5 193,-777.5 679,-777.5 679,-756.5 193,-756.5"/>
<text text-anchor="start" x="347.5" y="-764.3" font-family="Times,serif" font-weight="bold" font-size="14.00">DeploymentsResource</text>
<polygon fill="none" stroke="black" points="193,-666.5 193,-756.5 679,-756.5 679,-666.5 193,-666.5"/>
<text text-anchor="start" x="404.5" y="-743.3" font-family="Times,serif" font-style="italic" font-size="14.00">Methods</text>
<text text-anchor="start" x="196" y="-729.3" font-family="Times,serif" font-size="14.00">all(&lt;String&gt; namespace):String</text>
<text text-anchor="start" x="196" y="-715.3" font-family="Times,serif" font-size="14.00">start(&lt;String&gt; crd, &lt;String&gt; namespace, &lt;String&gt; name):String</text>
<text text-anchor="start" x="196" y="-701.3" font-family="Times,serif" font-size="14.00">get(&lt;String&gt; name, &lt;String&gt; type, &lt;String&gt; namespace):String</text>
<text text-anchor="start" x="196" y="-687.3" font-family="Times,serif" font-size="14.00">stop(&lt;String&gt; name, &lt;String&gt; type, &lt;String&gt; namespace):String</text>
<text text-anchor="start" x="196" y="-673.3" font-family="Times,serif" font-size="14.00">logs(&lt;String&gt; name, &lt;String&gt; namespace):String</text>
<polygon fill="none" stroke="black" points="192,-666 192,-779 680,-779 680,-666 192,-666"/>
</g>
<!-- IntegrationsResource -->
<g id="node4" class="node">
<title>IntegrationsResource</title>
<polygon fill="none" stroke="black" points="600,-543.5 600,-564.5 968,-564.5 968,-543.5 600,-543.5"/>
<text text-anchor="start" x="697.5" y="-551.3" font-family="Times,serif" font-weight="bold" font-size="14.00">IntegrationsResource</text>
<polygon fill="none" stroke="black" points="600,-481.5 600,-543.5 968,-543.5 968,-481.5 600,-481.5"/>
<text text-anchor="start" x="752.5" y="-530.3" font-family="Times,serif" font-style="italic" font-size="14.00">Methods</text>
<text text-anchor="start" x="603" y="-516.3" font-family="Times,serif" font-size="14.00">crd(&lt;String&gt; dsl, &lt;Integration&gt; integration):Map</text>
<text text-anchor="start" x="603" y="-502.3" font-family="Times,serif" font-size="14.00">integration(&lt;String&gt; dsl, &lt;String&gt; crd):Map</text>
<text text-anchor="start" x="603" y="-488.3" font-family="Times,serif" font-size="14.00">compatibleDSL(&lt;List[Step]&gt; steps):Map</text>
<polygon fill="none" stroke="black" points="599,-481 599,-566 969,-566 969,-481 599,-481"/>
</g>
<!-- DeploymentService -->
<g id="node5" class="node">
<title>DeploymentService</title>
<text text-anchor="middle" x="784" y="-718.8" font-family="Times,serif" font-size="14.00">DeploymentService</text>
</g>
<!-- DeploymentService&#45;&gt;IntegrationsResource -->
<g id="edge2" class="edge">
<title>DeploymentService&#45;&gt;IntegrationsResource</title>
<path fill="none" stroke="black" d="M784,-704.36C784,-677.5 784,-624.24 784,-582.61"/>
<polygon fill="black" stroke="black" points="784,-582.39 780,-576.39 784,-570.39 788,-576.39 784,-582.39"/>
<text text-anchor="middle" x="770" y="-693.16" font-family="Times,serif" font-size="14.00">0..1</text>
</g>
<!-- StepResource -->
<g id="node6" class="node">
<title>StepResource</title>
<polygon fill="none" stroke="black" points="889,-742.5 889,-763.5 1361,-763.5 1361,-742.5 889,-742.5"/>
<text text-anchor="start" x="1070.5" y="-750.3" font-family="Times,serif" font-weight="bold" font-size="14.00">StepResource</text>
<polygon fill="none" stroke="black" points="889,-680.5 889,-742.5 1361,-742.5 1361,-680.5 889,-680.5"/>
<text text-anchor="start" x="1093.5" y="-729.3" font-family="Times,serif" font-style="italic" font-size="14.00">Methods</text>
<text text-anchor="start" x="892" y="-715.3" font-family="Times,serif" font-size="14.00">allSteps(&lt;String&gt; type, &lt;String&gt; dsl, &lt;String&gt; kind):List[Step]</text>
<text text-anchor="start" x="892" y="-701.3" font-family="Times,serif" font-size="14.00">stepById(&lt;String&gt; id):Step</text>
<text text-anchor="start" x="892" y="-687.3" font-family="Times,serif" font-size="14.00">stepsByName(&lt;String&gt; name):List[Step]</text>
<polygon fill="none" stroke="black" points="888,-680 888,-765 1362,-765 1362,-680 888,-680"/>
</g>
<!-- StepCatalog -->
<g id="node7" class="node">
<title>StepCatalog</title>
<polygon fill="none" stroke="black" points="1074,-512.5 1074,-533.5 1176,-533.5 1176,-512.5 1074,-512.5"/>
<text text-anchor="start" x="1077" y="-520.3" font-family="Times,serif" font-weight="bold" font-size="14.00">StepCatalog</text>
<polygon fill="none" stroke="black" points="1073,-512 1073,-535 1177,-535 1177,-512 1073,-512"/>
</g>
<!-- StepResource&#45;&gt;StepCatalog -->
<g id="edge3" class="edge">
<title>StepResource&#45;&gt;StepCatalog</title>
<path fill="none" stroke="black" stroke-dasharray="5,2" d="M1125,-675.81C1125,-637.58 1125,-584.28 1125,-552.21"/>
<polygon fill="black" stroke="black" points="1125,-541.81 1129.5,-551.81 1125,-546.81 1125,-551.81 1125,-551.81 1125,-551.81 1125,-546.81 1120.5,-551.81 1125,-541.81 1125,-541.81"/>
</g>
<!-- AbstractCatalog -->
<g id="node11" class="node">
<title>AbstractCatalog</title>
<polygon fill="none" stroke="black" points="1139,-407.5 1139,-428.5 1417,-428.5 1417,-407.5 1139,-407.5"/>
<text text-anchor="start" x="1214.5" y="-415.3" font-family="Times,serif" font-weight="bold" font-size="14.00">AbstractCatalog</text>
<polygon fill="none" stroke="black" points="1139,-331.5 1139,-407.5 1417,-407.5 1417,-331.5 1139,-331.5"/>
<text text-anchor="start" x="1246.5" y="-394.3" font-family="Times,serif" font-style="italic" font-size="14.00">Methods</text>
<text text-anchor="start" x="1142" y="-380.3" font-family="Times,serif" font-size="14.00">waitForWarmUp():CompletableFuture</text>
<text text-anchor="start" x="1142" y="-366.3" font-family="Times,serif" font-size="14.00">loadParsers():List[ParseCatalog]</text>
<text text-anchor="start" x="1142" y="-352.3" font-family="Times,serif" font-size="14.00">warmUpCatalog():</text>
<text text-anchor="start" x="1142" y="-338.3" font-family="Times,serif" font-size="14.00">refresh():</text>
<polygon fill="none" stroke="black" points="1138,-331 1138,-430 1418,-430 1418,-331 1138,-331"/>
</g>
<!-- StepCatalog&#45;&gt;AbstractCatalog -->
<g id="edge6" class="edge">
<title>StepCatalog&#45;&gt;AbstractCatalog</title>
<path fill="none" stroke="black" d="M1143.46,-505.49C1160.89,-489.43 1188.08,-464.37 1213.47,-440.97"/>
<polygon fill="none" stroke="black" points="1215.94,-443.45 1220.92,-434.1 1211.2,-438.31 1215.94,-443.45"/>
</g>
<!-- ViewDefinitionResource -->
<g id="node8" class="node">
<title>ViewDefinitionResource</title>
<polygon fill="none" stroke="black" points="1633,-529.5 1633,-550.5 2101,-550.5 2101,-529.5 1633,-529.5"/>
<text text-anchor="start" x="1772" y="-537.3" font-family="Times,serif" font-weight="bold" font-size="14.00">ViewDefinitionResource</text>
<polygon fill="none" stroke="black" points="1633,-495.5 1633,-529.5 2101,-529.5 2101,-495.5 1633,-495.5"/>
<text text-anchor="start" x="1835.5" y="-516.3" font-family="Times,serif" font-style="italic" font-size="14.00">Methods</text>
<text text-anchor="start" x="1636" y="-502.3" font-family="Times,serif" font-size="14.00">viewsPerStepList:(&lt;Step[]&gt; DeploymentResourceYamlRequest):</text>
<polygon fill="none" stroke="black" points="1632,-495 1632,-552 2102,-552 2102,-495 1632,-495"/>
</g>
<!-- ViewDefinitionService -->
<g id="node9" class="node">
<title>ViewDefinitionService</title>
<text text-anchor="middle" x="1867" y="-718.8" font-family="Times,serif" font-size="14.00">ViewDefinitionService</text>
</g>
<!-- ViewDefinitionService&#45;&gt;ViewDefinitionResource -->
<g id="edge4" class="edge">
<title>ViewDefinitionService&#45;&gt;ViewDefinitionResource</title>
<path fill="none" stroke="black" d="M1867,-704.36C1867,-674.29 1867,-611.13 1867,-568.26"/>
<polygon fill="black" stroke="black" points="1867,-568.2 1863,-562.2 1867,-556.2 1871,-562.2 1867,-568.2"/>
<text text-anchor="middle" x="1853" y="-693.16" font-family="Times,serif" font-size="14.00">0..1</text>
</g>
<!-- CamelRoute -->
<g id="node10" class="node">
<title>CamelRoute</title>
<polygon fill="none" stroke="black" points="2043,-711.5 2043,-732.5 2146,-732.5 2146,-711.5 2043,-711.5"/>
<text text-anchor="start" x="2046" y="-719.3" font-family="Times,serif" font-weight="bold" font-size="14.00">CamelRoute</text>
<polygon fill="none" stroke="black" points="2041.5,-711 2041.5,-734 2146.5,-734 2146.5,-711 2041.5,-711"/>
</g>
<!-- MetadataCatalog -->
<g id="node12" class="node">
<title>MetadataCatalog</title>
<polygon fill="none" stroke="black" points="1352,-215.5 1352,-236.5 1700,-236.5 1700,-215.5 1352,-215.5"/>
<text text-anchor="start" x="1458" y="-223.3" font-family="Times,serif" font-weight="bold" font-size="14.00">MetadataCatalog</text>
<polygon fill="none" stroke="black" points="1352,-125.5 1352,-215.5 1700,-215.5 1700,-125.5 1352,-125.5"/>
<text text-anchor="start" x="1494.5" y="-202.3" font-family="Times,serif" font-style="italic" font-size="14.00">Methods</text>
<text text-anchor="start" x="1355" y="-188.3" font-family="Times,serif" font-size="14.00">searchStepByID(&lt;String&gt; id):Metadata</text>
<text text-anchor="start" x="1355" y="-174.3" font-family="Times,serif" font-size="14.00">searchByName(&lt;String&gt; name):List[Metadata]</text>
<text text-anchor="start" x="1355" y="-160.3" font-family="Times,serif" font-size="14.00">store(&lt;List[Step]&gt; steps):boolean</text>
<text text-anchor="start" x="1355" y="-146.3" font-family="Times,serif" font-size="14.00">getAll():List[Metadata]</text>
<text text-anchor="start" x="1355" y="-132.3" font-family="Times,serif" font-size="14.00">clear():void</text>
<polygon fill="none" stroke="black" points="1351,-125 1351,-238 1701,-238 1701,-125 1351,-125"/>
</g>
<!-- AbstractCatalog&#45;&gt;MetadataCatalog -->
<g id="edge5" class="edge">
<title>AbstractCatalog&#45;&gt;MetadataCatalog</title>
<path fill="none" stroke="black" stroke-dasharray="5,2" d="M1344.13,-326.97C1374.43,-302.9 1410.66,-274.12 1442.78,-248.61"/>
<polygon fill="black" stroke="black" points="1450.85,-242.19 1445.82,-251.94 1446.94,-245.3 1443.02,-248.41 1443.02,-248.41 1443.02,-248.41 1446.94,-245.3 1440.22,-244.89 1450.85,-242.19 1450.85,-242.19"/>
</g>
<!-- Metadata -->
<g id="node20" class="node">
<title>Metadata</title>
<text text-anchor="middle" x="1526" y="-14.3" font-family="Times,serif" font-size="14.00">Metadata</text>
</g>
<!-- MetadataCatalog&#45;&gt;Metadata -->
<g id="edge10" class="edge">
<title>MetadataCatalog&#45;&gt;Metadata</title>
<path fill="none" stroke="black" stroke-dasharray="5,2" d="M1526,-120.82C1526,-95.23 1526,-66.6 1526,-46.24"/>
<polygon fill="black" stroke="black" points="1526,-36.12 1530.5,-46.12 1526,-41.12 1526,-46.12 1526,-46.12 1526,-46.12 1526,-41.12 1521.5,-46.12 1526,-36.12 1526,-36.12"/>
</g>
<!-- StepCatalogParser -->
<g id="node13" class="node">
<title>StepCatalogParser</title>
<polygon fill="none" stroke="black" points="2138,-550.5 2138,-571.5 2523,-571.5 2523,-550.5 2138,-550.5"/>
<text text-anchor="start" x="2256.5" y="-558.3" font-family="Times,serif" font-weight="bold" font-size="14.00">StepCatalogParser</text>
<polygon fill="none" stroke="black" points="2138,-474.5 2138,-550.5 2523,-550.5 2523,-474.5 2138,-474.5"/>
<text text-anchor="start" x="2299" y="-537.3" font-family="Times,serif" font-style="italic" font-size="14.00">Methods</text>
<text text-anchor="start" x="2141" y="-523.3" font-family="Times,serif" font-size="14.00">getParser(&lt;String&gt; url, &lt;String&gt; tag):ParseCatalog</text>
<text text-anchor="start" x="2141" y="-509.3" font-family="Times,serif" font-size="14.00">getParserFromCluster():ParseCatalog</text>
<text text-anchor="start" x="2141" y="-495.3" font-family="Times,serif" font-size="14.00">getLocalFolder(&lt;Path&gt; path):ParseCatalog</text>
<text text-anchor="start" x="2141" y="-481.3" font-family="Times,serif" font-size="14.00">generatesKind(&lt;String&gt; kind):Boolean</text>
<polygon fill="none" stroke="black" points="2136.5,-474 2136.5,-573 2523.5,-573 2523.5,-474 2136.5,-474"/>
</g>
<!-- ViewDefinitionCatalog -->
<g id="node14" class="node">
<title>ViewDefinitionCatalog</title>
<polygon fill="none" stroke="black" points="1212,-512.5 1212,-533.5 1394,-533.5 1394,-512.5 1212,-512.5"/>
<text text-anchor="start" x="1215" y="-520.3" font-family="Times,serif" font-weight="bold" font-size="14.00">ViewDefinitionCatalog</text>
<polygon fill="none" stroke="black" points="1211,-512 1211,-535 1395,-535 1395,-512 1211,-512"/>
</g>
<!-- ViewDefinitionCatalog&#45;&gt;AbstractCatalog -->
<g id="edge7" class="edge">
<title>ViewDefinitionCatalog&#45;&gt;AbstractCatalog</title>
<path fill="none" stroke="black" d="M1299.98,-505.49C1297.26,-490.12 1293.07,-466.5 1289.08,-443.99"/>
<polygon fill="none" stroke="black" points="1292.52,-443.34 1287.33,-434.1 1285.63,-444.56 1292.52,-443.34"/>
</g>
<!-- KameletParseCatalog -->
<g id="node15" class="node">
<title>KameletParseCatalog</title>
<polygon fill="none" stroke="black" points="2242,-711.5 2242,-732.5 2419,-732.5 2419,-711.5 2242,-711.5"/>
<text text-anchor="start" x="2245" y="-719.3" font-family="Times,serif" font-weight="bold" font-size="14.00">KameletParseCatalog</text>
<polygon fill="none" stroke="black" points="2240.5,-711 2240.5,-734 2419.5,-734 2419.5,-711 2240.5,-711"/>
</g>
<!-- KameletParseCatalog&#45;&gt;StepCatalogParser -->
<g id="edge8" class="edge">
<title>KameletParseCatalog&#45;&gt;StepCatalogParser</title>
<path fill="none" stroke="black" d="M2330,-704.36C2330,-678.47 2330,-628.07 2330,-587.2"/>
<polygon fill="none" stroke="black" points="2333.5,-587.03 2330,-577.03 2326.5,-587.03 2333.5,-587.03"/>
</g>
<!-- ParseCatalog -->
<g id="node16" class="node">
<title>ParseCatalog</title>
<polygon fill="none" stroke="black" points="2758,-536.5 2758,-557.5 3090,-557.5 3090,-536.5 2758,-536.5"/>
<text text-anchor="start" x="2871.5" y="-544.3" font-family="Times,serif" font-weight="bold" font-size="14.00">ParseCatalog</text>
<polygon fill="none" stroke="black" points="2758,-488.5 2758,-536.5 3090,-536.5 3090,-488.5 2758,-488.5"/>
<text text-anchor="start" x="2892.5" y="-523.3" font-family="Times,serif" font-style="italic" font-size="14.00">Methods</text>
<text text-anchor="start" x="2761" y="-509.3" font-family="Times,serif" font-size="14.00">parse():CompletableFuture[List[T]]</text>
<text text-anchor="start" x="2761" y="-495.3" font-family="Times,serif" font-size="14.00">setFileVisitor(&lt;YamlProcessFile&gt; fileVisitor):</text>
<polygon fill="none" stroke="black" points="2757,-488 2757,-559 3091,-559 3091,-488 2757,-488"/>
</g>
<!-- KameletParseCatalog&#45;&gt;ParseCatalog -->
<g id="edge9" class="edge">
<title>KameletParseCatalog&#45;&gt;ParseCatalog</title>
<path fill="none" stroke="black" stroke-dasharray="5,2" d="M2341.41,-704.37C2358.74,-679.84 2394.14,-635.23 2436,-613 2488,-585.38 2623.72,-562.01 2738.86,-546.24"/>
<polygon fill="black" stroke="black" points="2748.88,-544.88 2739.57,-550.68 2743.92,-545.55 2738.97,-546.22 2738.97,-546.22 2738.97,-546.22 2743.92,-545.55 2738.36,-541.77 2748.88,-544.88 2748.88,-544.88"/>
</g>
<!-- Kamelet -->
<g id="node17" class="node">
<title>Kamelet</title>
<polygon fill="none" stroke="black" points="3699,-711.5 3699,-732.5 3772,-732.5 3772,-711.5 3699,-711.5"/>
<text text-anchor="start" x="3702" y="-719.3" font-family="Times,serif" font-weight="bold" font-size="14.00">Kamelet</text>
<polygon fill="none" stroke="black" points="3697.5,-711 3697.5,-734 3772.5,-734 3772.5,-711 3697.5,-711"/>
</g>
<!-- KameletBinding -->
<g id="node18" class="node">
<title>KameletBinding</title>
<polygon fill="none" stroke="black" points="3808,-711.5 3808,-732.5 3944,-732.5 3944,-711.5 3808,-711.5"/>
<text text-anchor="start" x="3811" y="-719.3" font-family="Times,serif" font-weight="bold" font-size="14.00">KameletBinding</text>
<polygon fill="none" stroke="black" points="3807,-711 3807,-734 3945,-734 3945,-711 3807,-711"/>
</g>
<!-- SimplifiedKamelet -->
<g id="node19" class="node">
<title>SimplifiedKamelet</title>
<polygon fill="none" stroke="black" points="3980,-711.5 3980,-732.5 4132,-732.5 4132,-711.5 3980,-711.5"/>
<text text-anchor="start" x="3983" y="-719.3" font-family="Times,serif" font-weight="bold" font-size="14.00">SimplifiedKamelet</text>
<polygon fill="none" stroke="black" points="3979,-711 3979,-734 4133,-734 4133,-711 3979,-711"/>
</g>
<!-- CatalogCollection -->
<g id="node21" class="node">
<title>CatalogCollection</title>
<polygon fill="none" stroke="black" points="1453,-369.5 1453,-390.5 1599,-390.5 1599,-369.5 1453,-369.5"/>
<text text-anchor="start" x="1456" y="-377.3" font-family="Times,serif" font-weight="bold" font-size="14.00">CatalogCollection</text>
<polygon fill="none" stroke="black" points="1452,-369 1452,-392 1600,-392 1600,-369 1452,-369"/>
</g>
<!-- CatalogCollection&#45;&gt;MetadataCatalog -->
<g id="edge11" class="edge">
<title>CatalogCollection&#45;&gt;MetadataCatalog</title>
<path fill="none" stroke="black" d="M1526,-362.36C1526,-337.99 1526,-291.9 1526,-252.48"/>
<polygon fill="none" stroke="black" points="1529.5,-252.36 1526,-242.36 1522.5,-252.36 1529.5,-252.36"/>
</g>
<!-- InMemoryCatalog -->
<g id="node22" class="node">
<title>InMemoryCatalog</title>
<polygon fill="none" stroke="black" points="1635,-369.5 1635,-390.5 1783,-390.5 1783,-369.5 1635,-369.5"/>
<text text-anchor="start" x="1638" y="-377.3" font-family="Times,serif" font-weight="bold" font-size="14.00">InMemoryCatalog</text>
<polygon fill="none" stroke="black" points="1634,-369 1634,-392 1784,-392 1784,-369 1634,-369"/>
</g>
<!-- InMemoryCatalog&#45;&gt;MetadataCatalog -->
<g id="edge12" class="edge">
<title>InMemoryCatalog&#45;&gt;MetadataCatalog</title>
<path fill="none" stroke="black" d="M1693.08,-362.36C1669.91,-337.42 1625.62,-289.74 1588.45,-249.73"/>
<polygon fill="none" stroke="black" points="1590.97,-247.3 1581.6,-242.36 1585.85,-252.07 1590.97,-247.3"/>
</g>
<!-- ReadOnlyCatalog -->
<g id="node23" class="node">
<title>ReadOnlyCatalog</title>
<polygon fill="none" stroke="black" points="1455,-512.5 1455,-533.5 1597,-533.5 1597,-512.5 1455,-512.5"/>
<text text-anchor="start" x="1458" y="-520.3" font-family="Times,serif" font-weight="bold" font-size="14.00">ReadOnlyCatalog</text>
<polygon fill="none" stroke="black" points="1454,-512 1454,-535 1598,-535 1598,-512 1454,-512"/>
</g>
<!-- ReadOnlyCatalog&#45;&gt;CatalogCollection -->
<g id="edge13" class="edge">
<title>ReadOnlyCatalog&#45;&gt;CatalogCollection</title>
<path fill="none" stroke="black" d="M1526,-505.49C1526,-481.46 1526,-437.31 1526,-408.7"/>
<polygon fill="none" stroke="black" points="1529.5,-408.57 1526,-398.57 1522.5,-408.57 1529.5,-408.57"/>
</g>
<!-- ClusterParseCatalog -->
<g id="node24" class="node">
<title>ClusterParseCatalog</title>
<polygon fill="none" stroke="black" points="2455,-711.5 2455,-732.5 2624,-732.5 2624,-711.5 2455,-711.5"/>
<text text-anchor="start" x="2458" y="-719.3" font-family="Times,serif" font-weight="bold" font-size="14.00">ClusterParseCatalog</text>
<polygon fill="none" stroke="black" points="2453.5,-711 2453.5,-734 2624.5,-734 2624.5,-711 2453.5,-711"/>
</g>
<!-- ClusterParseCatalog&#45;&gt;ParseCatalog -->
<g id="edge14" class="edge">
<title>ClusterParseCatalog&#45;&gt;ParseCatalog</title>
<path fill="none" stroke="black" d="M2550.78,-704.22C2567.92,-680.34 2602,-637.43 2641,-613 2671.6,-593.83 2706.69,-578.52 2741.5,-566.39"/>
<polygon fill="none" stroke="black" points="2742.96,-569.59 2751.3,-563.05 2740.71,-562.96 2742.96,-569.59"/>
</g>
<!-- EmptyParseCatalog -->
<g id="node25" class="node">
<title>EmptyParseCatalog</title>
<polygon fill="none" stroke="black" points="2660,-711.5 2660,-732.5 2821,-732.5 2821,-711.5 2660,-711.5"/>
<text text-anchor="start" x="2663" y="-719.3" font-family="Times,serif" font-weight="bold" font-size="14.00">EmptyParseCatalog</text>
<polygon fill="none" stroke="black" points="2658.5,-711 2658.5,-734 2821.5,-734 2821.5,-711 2658.5,-711"/>
</g>
<!-- EmptyParseCatalog&#45;&gt;ParseCatalog -->
<g id="edge15" class="edge">
<title>EmptyParseCatalog&#45;&gt;ParseCatalog</title>
<path fill="none" stroke="black" d="M2755.3,-704.46C2774.64,-682.99 2809.03,-645.02 2839,-613 2852.02,-599.09 2866.32,-584.1 2879.41,-570.48"/>
<polygon fill="none" stroke="black" points="2882.13,-572.7 2886.55,-563.07 2877.09,-567.84 2882.13,-572.7"/>
</g>
<!-- GitParseCatalog -->
<g id="node26" class="node">
<title>GitParseCatalog</title>
<polygon fill="none" stroke="black" points="3528,-711.5 3528,-732.5 3663,-732.5 3663,-711.5 3528,-711.5"/>
<text text-anchor="start" x="3531" y="-719.3" font-family="Times,serif" font-weight="bold" font-size="14.00">GitParseCatalog</text>
<polygon fill="none" stroke="black" points="3526.5,-711 3526.5,-734 3663.5,-734 3663.5,-711 3526.5,-711"/>
</g>
<!-- GitParseCatalog&#45;&gt;ParseCatalog -->
<g id="edge16" class="edge">
<title>GitParseCatalog&#45;&gt;ParseCatalog</title>
<path fill="none" stroke="black" d="M3586.66,-704.23C3573.74,-679.52 3546.43,-634.7 3509,-613 3442.66,-574.55 3254.75,-550.84 3109.61,-537.77"/>
<polygon fill="none" stroke="black" points="3109.51,-534.24 3099.24,-536.84 3108.89,-541.22 3109.51,-534.24"/>
</g>
<!-- YamlProcessFile -->
<g id="node27" class="node">
<title>YamlProcessFile</title>
<text text-anchor="middle" x="3595" y="-519.8" font-family="Times,serif" font-size="14.00">YamlProcessFile</text>
</g>
<!-- GitParseCatalog&#45;&gt;YamlProcessFile -->
<g id="edge17" class="edge">
<title>GitParseCatalog&#45;&gt;YamlProcessFile</title>
<path fill="none" stroke="black" stroke-dasharray="5,2" d="M3595,-704.36C3595,-670.16 3595,-593.19 3595,-551.9"/>
<polygon fill="black" stroke="black" points="3595,-541.74 3599.5,-551.74 3595,-546.74 3595,-551.74 3595,-551.74 3595,-551.74 3595,-546.74 3590.5,-551.74 3595,-541.74 3595,-541.74"/>
</g>
<!-- JarParseCatalog -->
<g id="node28" class="node">
<title>JarParseCatalog</title>
<polygon fill="none" stroke="black" points="2857,-711.5 2857,-732.5 2991,-732.5 2991,-711.5 2857,-711.5"/>
<text text-anchor="start" x="2860" y="-719.3" font-family="Times,serif" font-weight="bold" font-size="14.00">JarParseCatalog</text>
<polygon fill="none" stroke="black" points="2856,-711 2856,-734 2992,-734 2992,-711 2856,-711"/>
</g>
<!-- JarParseCatalog&#45;&gt;ParseCatalog -->
<g id="edge18" class="edge">
<title>JarParseCatalog&#45;&gt;ParseCatalog</title>
<path fill="none" stroke="black" d="M2924,-704.36C2924,-675.48 2924,-616.08 2924,-573.44"/>
<polygon fill="none" stroke="black" points="2927.5,-573.26 2924,-563.26 2920.5,-573.26 2927.5,-573.26"/>
</g>
<!-- LocalFolderParseCatalog -->
<g id="node29" class="node">
<title>LocalFolderParseCatalog</title>
<polygon fill="none" stroke="black" points="3027,-711.5 3027,-732.5 3229,-732.5 3229,-711.5 3027,-711.5"/>
<text text-anchor="start" x="3030" y="-719.3" font-family="Times,serif" font-weight="bold" font-size="14.00">LocalFolderParseCatalog</text>
<polygon fill="none" stroke="black" points="3026,-711 3026,-734 3230,-734 3230,-711 3026,-711"/>
</g>
<!-- LocalFolderParseCatalog&#45;&gt;ParseCatalog -->
<g id="edge19" class="edge">
<title>LocalFolderParseCatalog&#45;&gt;ParseCatalog</title>
<path fill="none" stroke="black" d="M3110.25,-704.36C3079.58,-674.74 3015.7,-613.05 2971.36,-570.23"/>
<polygon fill="none" stroke="black" points="2973.77,-567.69 2964.14,-563.26 2968.9,-572.73 2973.77,-567.69"/>
</g>
<!-- ProcessFile -->
<g id="node30" class="node">
<title>ProcessFile</title>
<polygon fill="none" stroke="black" points="4169,-711.5 4169,-732.5 4266,-732.5 4266,-711.5 4169,-711.5"/>
<text text-anchor="start" x="4172" y="-719.3" font-family="Times,serif" font-weight="bold" font-size="14.00">ProcessFile</text>
<polygon fill="none" stroke="black" points="4167.5,-711 4167.5,-734 4266.5,-734 4266.5,-711 4167.5,-711"/>
</g>
<!-- ViewDefinitionParseCatalog -->
<g id="node31" class="node">
<title>ViewDefinitionParseCatalog</title>
<polygon fill="none" stroke="black" points="3265,-711.5 3265,-732.5 3491,-732.5 3491,-711.5 3265,-711.5"/>
<text text-anchor="start" x="3268" y="-719.3" font-family="Times,serif" font-weight="bold" font-size="14.00">ViewDefinitionParseCatalog</text>
<polygon fill="none" stroke="black" points="3264,-711 3264,-734 3492,-734 3492,-711 3264,-711"/>
</g>
<!-- ViewDefinitionParseCatalog&#45;&gt;ParseCatalog -->
<g id="edge20" class="edge">
<title>ViewDefinitionParseCatalog&#45;&gt;ParseCatalog</title>
<path fill="none" stroke="black" stroke-dasharray="5,2" d="M3361.91,-704.18C3338.75,-680.23 3293.64,-637.25 3247,-613 3204.38,-590.83 3155.63,-573.76 3109.14,-560.79"/>
<polygon fill="black" stroke="black" points="3099.25,-558.09 3110.09,-556.39 3104.08,-559.41 3108.9,-560.73 3108.9,-560.73 3108.9,-560.73 3104.08,-559.41 3107.71,-565.07 3099.25,-558.09 3099.25,-558.09"/>
</g>
<!-- Parameter -->
<g id="node32" class="node">
<title>Parameter</title>
<polygon fill="none" stroke="black" points="4302,-805.5 4302,-826.5 4462,-826.5 4462,-805.5 4302,-805.5"/>
<text text-anchor="start" x="4340" y="-813.3" font-family="Times,serif" font-weight="bold" font-size="14.00">Parameter</text>
<polygon fill="none" stroke="black" points="4302,-617.5 4302,-805.5 4462,-805.5 4462,-617.5 4302,-617.5"/>
<text text-anchor="start" x="4344" y="-792.3" font-family="Times,serif" font-style="italic" font-size="14.00">Properties</text>
<text text-anchor="start" x="4305" y="-778.3" font-family="Times,serif" font-size="14.00">description:String</text>
<text text-anchor="start" x="4305" y="-764.3" font-family="Times,serif" font-size="14.00">title:String</text>
<text text-anchor="start" x="4305" y="-750.3" font-family="Times,serif" font-size="14.00">id:String</text>
<text text-anchor="start" x="4305" y="-736.3" font-family="Times,serif" font-size="14.00">value:Object</text>
<text text-anchor="start" x="4305" y="-722.3" font-family="Times,serif" font-size="14.00">default:Object</text>
<text text-anchor="start" x="4305" y="-708.3" font-family="Times,serif" font-size="14.00">type:String</text>
<text text-anchor="start" x="4305" y="-694.3" font-family="Times,serif" font-size="14.00">path:Boolean</text>
<text text-anchor="start" x="4305" y="-680.3" font-family="Times,serif" font-size="14.00">nullable:Boolean</text>
<text text-anchor="start" x="4305" y="-666.3" font-family="Times,serif" font-size="14.00">enum:Object[]</text>
<text text-anchor="start" x="4305" y="-652.3" font-family="Times,serif" font-size="14.00">examples:Object[]</text>
<text text-anchor="start" x="4305" y="-638.3" font-family="Times,serif" font-size="14.00">pathOrder:Integer</text>
<text text-anchor="start" x="4305" y="-624.3" font-family="Times,serif" font-size="14.00">pathSeparator:String</text>
<polygon fill="none" stroke="black" points="4301,-617 4301,-828 4463,-828 4463,-617 4301,-617"/>
</g>
<!-- Step -->
<g id="node33" class="node">
<title>Step</title>
<polygon fill="none" stroke="black" points="991,-264.5 991,-285.5 1197,-285.5 1197,-264.5 991,-264.5"/>
<text text-anchor="start" x="1076" y="-272.3" font-family="Times,serif" font-weight="bold" font-size="14.00">Step</text>
<polygon fill="none" stroke="black" points="991,-76.5 991,-264.5 1197,-264.5 1197,-76.5 991,-76.5"/>
<text text-anchor="start" x="1056" y="-251.3" font-family="Times,serif" font-style="italic" font-size="14.00">Properties</text>
<text text-anchor="start" x="994" y="-237.3" font-family="Times,serif" font-size="14.00">description:String</text>
<text text-anchor="start" x="994" y="-223.3" font-family="Times,serif" font-size="14.00">title:String</text>
<text text-anchor="start" x="994" y="-209.3" font-family="Times,serif" font-size="14.00">parameters:List[Parameter]</text>
<text text-anchor="start" x="994" y="-195.3" font-family="Times,serif" font-size="14.00">icon:String</text>
<text text-anchor="start" x="994" y="-181.3" font-family="Times,serif" font-size="14.00">UUID:String</text>
<text text-anchor="start" x="994" y="-167.3" font-family="Times,serif" font-size="14.00">required:String[]</text>
<text text-anchor="start" x="994" y="-153.3" font-family="Times,serif" font-size="14.00">group:String</text>
<text text-anchor="start" x="994" y="-139.3" font-family="Times,serif" font-size="14.00">kind:String</text>
<text text-anchor="start" x="994" y="-125.3" font-family="Times,serif" font-size="14.00">branches:Branch[]</text>
<text text-anchor="start" x="994" y="-111.3" font-family="Times,serif" font-size="14.00">minBranches:Integer</text>
<text text-anchor="start" x="994" y="-97.3" font-family="Times,serif" font-size="14.00">maxBranches:Integer</text>
<text text-anchor="start" x="994" y="-83.3" font-family="Times,serif" font-size="14.00">id:String</text>
<polygon fill="none" stroke="black" points="990,-76 990,-287 1198,-287 1198,-76 990,-76"/>
</g>
<!-- Step&#45;&gt;Metadata -->
<g id="edge21" class="edge">
<title>Step&#45;&gt;Metadata</title>
<path fill="none" stroke="black" d="M1206.05,-125.5C1245.89,-107.11 1291.43,-87.39 1334,-72 1380.27,-55.27 1434.42,-40.76 1473.39,-31.18"/>
<polygon fill="none" stroke="black" points="1474.57,-34.49 1483.46,-28.73 1472.92,-27.69 1474.57,-34.49"/>
</g>
<!-- ViewDefinition -->
<g id="node34" class="node">
<title>ViewDefinition</title>
<polygon fill="none" stroke="black" points="1755,-208.5 1755,-229.5 2064,-229.5 2064,-208.5 1755,-208.5"/>
<text text-anchor="start" x="1851.5" y="-216.3" font-family="Times,serif" font-weight="bold" font-size="14.00">ViewDefinition</text>
<polygon fill="none" stroke="black" points="1755,-132.5 1755,-208.5 2064,-208.5 2064,-132.5 1755,-132.5"/>
<text text-anchor="start" x="1871.5" y="-195.3" font-family="Times,serif" font-style="italic" font-size="14.00">Properties</text>
<text text-anchor="start" x="1758" y="-181.3" font-family="Times,serif" font-size="14.00">properties:Map[String, String]</text>
<text text-anchor="start" x="1758" y="-167.3" font-family="Times,serif" font-size="14.00">step:Step</text>
<text text-anchor="start" x="1758" y="-153.3" font-family="Times,serif" font-size="14.00">url:String</text>
<text text-anchor="start" x="1758" y="-139.3" font-family="Times,serif" font-size="14.00">constraints:List[ViewDefinitionConstraint]</text>
<polygon fill="none" stroke="black" points="1753.5,-132 1753.5,-231 2064.5,-231 2064.5,-132 1753.5,-132"/>
</g>
<!-- ViewDefinition&#45;&gt;Metadata -->
<g id="edge22" class="edge">
<title>ViewDefinition&#45;&gt;Metadata</title>
<path fill="none" stroke="black" d="M1826.65,-127.79C1793.77,-108.34 1754.99,-87.33 1718,-72 1672.3,-53.06 1617.73,-38.74 1578.46,-29.79"/>
<polygon fill="none" stroke="black" points="1579.1,-26.34 1568.57,-27.57 1577.57,-33.17 1579.1,-26.34"/>
</g>
<!-- ViewDefinitionConstraint -->
<g id="node35" class="node">
<title>ViewDefinitionConstraint</title>
<text text-anchor="middle" x="1909" y="-376.8" font-family="Times,serif" font-size="14.00">ViewDefinitionConstraint</text>
</g>
<!-- ViewDefinitionConstraint&#45;&gt;ViewDefinition -->
<g id="edge23" class="edge">
<title>ViewDefinitionConstraint&#45;&gt;ViewDefinition</title>
<path fill="none" stroke="black" d="M1909,-362.36C1909,-336.91 1909,-287.77 1909,-247.28"/>
<polygon fill="black" stroke="black" points="1909,-247.03 1905,-241.03 1909,-235.03 1913,-241.03 1909,-247.03"/>
<text text-anchor="middle" x="1895" y="-351.16" font-family="Times,serif" font-size="14.00">0..n</text>
</g>
<!-- StepParserService -->
<g id="node36" class="node">
<title>StepParserService</title>
<polygon fill="none" stroke="black" points="848,-407.5 848,-428.5 1103,-428.5 1103,-407.5 848,-407.5"/>
<text text-anchor="start" x="903" y="-415.3" font-family="Times,serif" font-weight="bold" font-size="14.00">StepParserService</text>
<polygon fill="none" stroke="black" points="848,-331.5 848,-407.5 1103,-407.5 1103,-331.5 848,-331.5"/>
<text text-anchor="start" x="944" y="-394.3" font-family="Times,serif" font-style="italic" font-size="14.00">Methods</text>
<text text-anchor="start" x="851" y="-380.3" font-family="Times,serif" font-size="14.00">identifier():String</text>
<text text-anchor="start" x="851" y="-366.3" font-family="Times,serif" font-size="14.00">description():String</text>
<text text-anchor="start" x="851" y="-352.3" font-family="Times,serif" font-size="14.00">parse(&lt;String&gt; yaml):ParseResult</text>
<text text-anchor="start" x="851" y="-338.3" font-family="Times,serif" font-size="14.00">appliesTo(&lt;String&gt; yaml):boolean</text>
<polygon fill="none" stroke="black" points="846.5,-331 846.5,-430 1103.5,-430 1103.5,-331 846.5,-331"/>
</g>
<!-- StepParserService&#45;&gt;Step -->
<g id="edge24" class="edge">
<title>StepParserService&#45;&gt;Step</title>
<path fill="none" stroke="black" stroke-dasharray="5,2" d="M1006.73,-326.97C1011.9,-318.41 1017.43,-309.27 1023.1,-299.88"/>
<polygon fill="black" stroke="black" points="1028.34,-291.2 1027.02,-302.09 1025.75,-295.48 1023.17,-299.76 1023.17,-299.76 1023.17,-299.76 1025.75,-295.48 1019.31,-297.44 1028.34,-291.2 1028.34,-291.2"/>
</g>
<!-- ViewDefinitionParserService -->
<g id="node37" class="node">
<title>ViewDefinitionParserService</title>
<polygon fill="none" stroke="black" points="2035,-407.5 2035,-428.5 2633,-428.5 2633,-407.5 2035,-407.5"/>
<text text-anchor="start" x="2221.5" y="-415.3" font-family="Times,serif" font-weight="bold" font-size="14.00">ViewDefinitionParserService</text>
<polygon fill="none" stroke="black" points="2035,-331.5 2035,-407.5 2633,-407.5 2633,-331.5 2035,-331.5"/>
<text text-anchor="start" x="2302.5" y="-394.3" font-family="Times,serif" font-style="italic" font-size="14.00">Methods</text>
<text text-anchor="start" x="2038" y="-380.3" font-family="Times,serif" font-size="14.00">parse(&lt;List[Step]&gt; steps):List[ViewDefinition]</text>
<text text-anchor="start" x="2038" y="-366.3" font-family="Times,serif" font-size="14.00">getViewsPerStep(&lt;List[Step]&gt; steps, &lt;ViewDefinition&gt; view):List[ViewDefinition]</text>
<text text-anchor="start" x="2038" y="-352.3" font-family="Times,serif" font-size="14.00">appliesTo(&lt;List[Step]&gt; steps, &lt;ViewDefinition&gt; viewDefinition):boolean</text>
<text text-anchor="start" x="2038" y="-338.3" font-family="Times,serif" font-size="14.00">appliesToStep(&lt;Step&gt; steps, &lt;ViewDefinition&gt; viewDefinition):boolean</text>
<polygon fill="none" stroke="black" points="2034,-331 2034,-430 2634,-430 2634,-331 2034,-331"/>
</g>
<!-- ViewDefinitionParserService&#45;&gt;ViewDefinition -->
<g id="edge25" class="edge">
<title>ViewDefinitionParserService&#45;&gt;ViewDefinition</title>
<path fill="none" stroke="black" stroke-dasharray="5,2" d="M2220.67,-326.97C2162.31,-299.92 2091.09,-266.91 2031.47,-239.27"/>
<polygon fill="black" stroke="black" points="2022.39,-235.06 2033.35,-235.18 2026.92,-237.16 2031.46,-239.26 2031.46,-239.26 2031.46,-239.26 2026.92,-237.16 2029.57,-243.35 2022.39,-235.06 2022.39,-235.06"/>
</g>
</g>
</svg>
