<?xml version="1.0" encoding="UTF-8" standalone="no"?>
<!DOCTYPE svg PUBLIC "-//W3C//DTD SVG 1.1//EN"
 "http://www.w3.org/Graphics/SVG/1.1/DTD/svg11.dtd">
<!-- Generated by graphviz version 2.43.0 (0)
 -->
<!-- Title: ClassDiagram Pages: 1 -->
<svg width="3955pt" height="827pt"
 viewBox="0.00 0.00 3955.00 827.00" xmlns="http://www.w3.org/2000/svg" xmlns:xlink="http://www.w3.org/1999/xlink">
<g id="graph0" class="graph" transform="scale(1 1) rotate(0) translate(4 823)">
<title>ClassDiagram</title>
<polygon fill="white" stroke="transparent" points="-4,4 -4,-823 3951,-823 3951,4 -4,4"/>
<!-- DeploymentResource -->
<g id="node1" class="node">
<title>DeploymentResource</title>
<polygon fill="none" stroke="black" points="176,-565.5 176,-586.5 714,-586.5 714,-565.5 176,-565.5"/>
<text text-anchor="start" x="360.5" y="-573.3" font-family="Times,serif" font-weight="bold" font-size="14.00">DeploymentResource</text>
<polygon fill="none" stroke="black" points="176,-489.5 176,-565.5 714,-565.5 714,-489.5 176,-489.5"/>
<text text-anchor="start" x="413.5" y="-552.3" font-family="Times,serif" font-style="italic" font-size="14.00">Methods</text>
<text text-anchor="start" x="179" y="-538.3" font-family="Times,serif" font-size="14.00">yaml(&lt;DeploymentResourceYamlRequest&gt; steps, &lt;String&gt; type):String[]</text>
<text text-anchor="start" x="179" y="-524.3" font-family="Times,serif" font-size="14.00">start(&lt;DeploymentResourceYamlRequest&gt; steps):String</text>
<text text-anchor="start" x="179" y="-510.3" font-family="Times,serif" font-size="14.00">integrations():String</text>
<text text-anchor="start" x="179" y="-496.3" font-family="Times,serif" font-size="14.00">stop():String</text>
<polygon fill="none" stroke="black" points="175,-489 175,-588 715,-588 715,-489 175,-489"/>
</g>
<!-- DeploymentService -->
<g id="node2" class="node">
<title>DeploymentService</title>
<polygon fill="none" stroke="black" points="265,-729.5 265,-750.5 625,-750.5 625,-729.5 265,-729.5"/>
<text text-anchor="start" x="369" y="-737.3" font-family="Times,serif" font-weight="bold" font-size="14.00">DeploymentService</text>
<polygon fill="none" stroke="black" points="265,-695.5 265,-729.5 625,-729.5 625,-695.5 265,-695.5"/>
<text text-anchor="start" x="413.5" y="-716.3" font-family="Times,serif" font-style="italic" font-size="14.00">Methods</text>
<text text-anchor="start" x="268" y="-702.3" font-family="Times,serif" font-size="14.00">yaml(&lt;List[Step]&gt; steps, &lt;String&gt; name):String</text>
<polygon fill="none" stroke="black" points="264,-695 264,-752 626,-752 626,-695 264,-695"/>
</g>
<!-- DeploymentService&#45;&gt;DeploymentResource -->
<g id="edge1" class="edge">
<title>DeploymentService&#45;&gt;DeploymentResource</title>
<path fill="none" stroke="black" d="M445,-690.62C445,-666.88 445,-633.65 445,-604.39"/>
<polygon fill="black" stroke="black" points="445,-604.13 441,-598.13 445,-592.13 449,-598.13 445,-604.13"/>
<text text-anchor="middle" x="431" y="-679.42" font-family="Times,serif" font-size="14.00">0..1</text>
</g>
<!-- StepResource -->
<g id="node3" class="node">
<title>StepResource</title>
<polygon fill="none" stroke="black" points="2003,-757.5 2003,-778.5 2568,-778.5 2568,-757.5 2003,-757.5"/>
<text text-anchor="start" x="2231" y="-765.3" font-family="Times,serif" font-weight="bold" font-size="14.00">StepResource</text>
<polygon fill="none" stroke="black" points="2003,-667.5 2003,-757.5 2568,-757.5 2568,-667.5 2003,-667.5"/>
<text text-anchor="start" x="2254" y="-744.3" font-family="Times,serif" font-style="italic" font-size="14.00">Methods</text>
<text text-anchor="start" x="2006" y="-730.3" font-family="Times,serif" font-size="14.00">stepById(&lt;String&gt; id):Step</text>
<text text-anchor="start" x="2006" y="-716.3" font-family="Times,serif" font-size="14.00">stepsByName(&lt;String&gt; name):List[Step]</text>
<text text-anchor="start" x="2006" y="-702.3" font-family="Times,serif" font-size="14.00">stepsByKind(&lt;String&gt; type):List[Step]</text>
<text text-anchor="start" x="2006" y="-688.3" font-family="Times,serif" font-size="14.00">stepsByIntegrationType(&lt;String&gt; type):List[Step]</text>
<text text-anchor="start" x="2006" y="-674.3" font-family="Times,serif" font-size="14.00">allSteps(&lt;String&gt; type, &lt;String&gt; integrationType, &lt;String&gt; kind):List[Step]</text>
<polygon fill="none" stroke="black" points="2001.5,-667 2001.5,-780 2568.5,-780 2568.5,-667 2001.5,-667"/>
</g>
<!-- StepCatalog -->
<g id="node4" class="node">
<title>StepCatalog</title>
<polygon fill="none" stroke="black" points="2234,-527.5 2234,-548.5 2336,-548.5 2336,-527.5 2234,-527.5"/>
<text text-anchor="start" x="2237" y="-535.3" font-family="Times,serif" font-weight="bold" font-size="14.00">StepCatalog</text>
<polygon fill="none" stroke="black" points="2233,-527 2233,-550 2337,-550 2337,-527 2233,-527"/>
</g>
<!-- StepResource&#45;&gt;StepCatalog -->
<g id="edge2" class="edge">
<title>StepResource&#45;&gt;StepCatalog</title>
<path fill="none" stroke="black" stroke-dasharray="5,2" d="M2285,-662.83C2285,-630.49 2285,-592.08 2285,-566.82"/>
<polygon fill="black" stroke="black" points="2285,-556.53 2289.5,-566.53 2285,-561.53 2285,-566.53 2285,-566.53 2285,-566.53 2285,-561.53 2280.5,-566.53 2285,-556.53 2285,-556.53"/>
</g>
<!-- AbstractCatalog -->
<g id="node9" class="node">
<title>AbstractCatalog</title>
<polygon fill="none" stroke="black" points="2299,-408.5 2299,-429.5 2577,-429.5 2577,-408.5 2299,-408.5"/>
<text text-anchor="start" x="2374.5" y="-416.3" font-family="Times,serif" font-weight="bold" font-size="14.00">AbstractCatalog</text>
<polygon fill="none" stroke="black" points="2299,-360.5 2299,-408.5 2577,-408.5 2577,-360.5 2299,-360.5"/>
<text text-anchor="start" x="2406.5" y="-395.3" font-family="Times,serif" font-style="italic" font-size="14.00">Methods</text>
<text text-anchor="start" x="2302" y="-381.3" font-family="Times,serif" font-size="14.00">waitForWarmUp():CompletableFuture</text>
<text text-anchor="start" x="2302" y="-367.3" font-family="Times,serif" font-size="14.00">loadParsers():List[ParseCatalog]</text>
<polygon fill="none" stroke="black" points="2298,-360 2298,-431 2578,-431 2578,-360 2298,-360"/>
</g>
<!-- StepCatalog&#45;&gt;AbstractCatalog -->
<g id="edge7" class="edge">
<title>StepCatalog&#45;&gt;AbstractCatalog</title>
<path fill="none" stroke="black" d="M2303.46,-520.49C2324.39,-501.2 2359.41,-468.93 2388.47,-442.15"/>
<polygon fill="none" stroke="black" points="2391.12,-444.46 2396.1,-435.11 2386.38,-439.31 2391.12,-444.46"/>
</g>
<!-- ViewDefinitionResource -->
<g id="node5" class="node">
<title>ViewDefinitionResource</title>
<polygon fill="none" stroke="black" points="715,-408.5 715,-429.5 1183,-429.5 1183,-408.5 715,-408.5"/>
<text text-anchor="start" x="854" y="-416.3" font-family="Times,serif" font-weight="bold" font-size="14.00">ViewDefinitionResource</text>
<polygon fill="none" stroke="black" points="715,-360.5 715,-408.5 1183,-408.5 1183,-360.5 715,-360.5"/>
<text text-anchor="start" x="917.5" y="-395.3" font-family="Times,serif" font-style="italic" font-size="14.00">Methods</text>
<text text-anchor="start" x="718" y="-381.3" font-family="Times,serif" font-size="14.00">views:(&lt;String&gt; yaml):</text>
<text text-anchor="start" x="718" y="-367.3" font-family="Times,serif" font-size="14.00">viewsPerStepList:(&lt;Step[]&gt; DeploymentResourceYamlRequest):</text>
<polygon fill="none" stroke="black" points="714,-360 714,-431 1184,-431 1184,-360 714,-360"/>
</g>
<!-- ViewDefinitionService -->
<g id="node6" class="node">
<title>ViewDefinitionService</title>
<polygon fill="none" stroke="black" points="750,-544.5 750,-565.5 1148,-565.5 1148,-544.5 750,-544.5"/>
<text text-anchor="start" x="862.5" y="-552.3" font-family="Times,serif" font-weight="bold" font-size="14.00">ViewDefinitionService</text>
<polygon fill="none" stroke="black" points="750,-510.5 750,-544.5 1148,-544.5 1148,-510.5 750,-510.5"/>
<text text-anchor="start" x="917.5" y="-531.3" font-family="Times,serif" font-style="italic" font-size="14.00">Methods</text>
<text text-anchor="start" x="753" y="-517.3" font-family="Times,serif" font-size="14.00">viewsPerStepList(&lt;Step[]&gt; steps):List[ViewDefinition]</text>
<polygon fill="none" stroke="black" points="749,-510 749,-567 1149,-567 1149,-510 749,-510"/>
</g>
<!-- ViewDefinitionService&#45;&gt;ViewDefinitionResource -->
<g id="edge3" class="edge">
<title>ViewDefinitionService&#45;&gt;ViewDefinitionResource</title>
<path fill="none" stroke="black" d="M949,-505.86C949,-488.59 949,-466.8 949,-447.23"/>
<polygon fill="black" stroke="black" points="949,-447.07 945,-441.07 949,-435.07 953,-441.07 949,-447.07"/>
<text text-anchor="middle" x="935" y="-494.66" font-family="Times,serif" font-size="14.00">0..1</text>
</g>
<!-- StepParserService -->
<g id="node7" class="node">
<title>StepParserService</title>
<polygon fill="none" stroke="black" points="426,-408.5 426,-429.5 679,-429.5 679,-408.5 426,-408.5"/>
<text text-anchor="start" x="480" y="-416.3" font-family="Times,serif" font-weight="bold" font-size="14.00">StepParserService</text>
<polygon fill="none" stroke="black" points="426,-360.5 426,-408.5 679,-408.5 679,-360.5 426,-360.5"/>
<text text-anchor="start" x="521" y="-395.3" font-family="Times,serif" font-style="italic" font-size="14.00">Methods</text>
<text text-anchor="start" x="429" y="-381.3" font-family="Times,serif" font-size="14.00">parse(&lt;String&gt; yaml):List[Step]</text>
<text text-anchor="start" x="429" y="-367.3" font-family="Times,serif" font-size="14.00">appliesTo(&lt;String&gt; yaml):boolean</text>
<polygon fill="none" stroke="black" points="424.5,-360 424.5,-431 679.5,-431 679.5,-360 424.5,-360"/>
</g>
<!-- ViewDefinitionService&#45;&gt;StepParserService -->
<g id="edge4" class="edge">
<title>ViewDefinitionService&#45;&gt;StepParserService</title>
<path fill="none" stroke="black" stroke-dasharray="5,2" d="M858.53,-505.97C810.5,-489.16 750.5,-468.08 697,-449 687.45,-445.59 677.54,-442.04 667.6,-438.47"/>
<polygon fill="black" stroke="black" points="658.07,-435.04 669.01,-434.19 662.78,-436.73 667.48,-438.43 667.48,-438.43 667.48,-438.43 662.78,-436.73 665.96,-442.66 658.07,-435.04 658.07,-435.04"/>
</g>
<!-- ViewDefinitionParserService -->
<g id="node8" class="node">
<title>ViewDefinitionParserService</title>
<polygon fill="none" stroke="black" points="1481,-415.5 1481,-436.5 2079,-436.5 2079,-415.5 1481,-415.5"/>
<text text-anchor="start" x="1667.5" y="-423.3" font-family="Times,serif" font-weight="bold" font-size="14.00">ViewDefinitionParserService</text>
<polygon fill="none" stroke="black" points="1481,-353.5 1481,-415.5 2079,-415.5 2079,-353.5 1481,-353.5"/>
<text text-anchor="start" x="1748.5" y="-402.3" font-family="Times,serif" font-style="italic" font-size="14.00">Methods</text>
<text text-anchor="start" x="1484" y="-388.3" font-family="Times,serif" font-size="14.00">parse(&lt;List[Step]&gt; steps):List[ViewDefinition]</text>
<text text-anchor="start" x="1484" y="-374.3" font-family="Times,serif" font-size="14.00">getViewsPerStep(&lt;List[Step]&gt; steps, &lt;ViewDefinition&gt; view):List[ViewDefinition]</text>
<text text-anchor="start" x="1484" y="-360.3" font-family="Times,serif" font-size="14.00">appliesTo(&lt;List[Step]&gt; steps, &lt;ViewDefinition&gt; viewDefinition):boolean</text>
<polygon fill="none" stroke="black" points="1480,-353 1480,-438 2080,-438 2080,-353 1480,-353"/>
</g>
<!-- ViewDefinitionService&#45;&gt;ViewDefinitionParserService -->
<g id="edge5" class="edge">
<title>ViewDefinitionService&#45;&gt;ViewDefinitionParserService</title>
<path fill="none" stroke="black" stroke-dasharray="5,2" d="M1134.72,-505.99C1242.67,-487.67 1380.81,-464.23 1501.56,-443.74"/>
<polygon fill="black" stroke="black" points="1511.7,-442.02 1502.59,-448.13 1506.77,-442.86 1501.84,-443.7 1501.84,-443.7 1501.84,-443.7 1506.77,-442.86 1501.09,-439.26 1511.7,-442.02 1511.7,-442.02"/>
</g>
<!-- Step -->
<g id="node26" class="node">
<title>Step</title>
<polygon fill="none" stroke="black" points="449,-279.5 449,-300.5 655,-300.5 655,-279.5 449,-279.5"/>
<text text-anchor="start" x="534" y="-287.3" font-family="Times,serif" font-weight="bold" font-size="14.00">Step</text>
<polygon fill="none" stroke="black" points="449,-133.5 449,-279.5 655,-279.5 655,-133.5 449,-133.5"/>
<text text-anchor="start" x="514" y="-266.3" font-family="Times,serif" font-style="italic" font-size="14.00">Properties</text>
<text text-anchor="start" x="452" y="-252.3" font-family="Times,serif" font-size="14.00">description:String</text>
<text text-anchor="start" x="452" y="-238.3" font-family="Times,serif" font-size="14.00">title:String</text>
<text text-anchor="start" x="452" y="-224.3" font-family="Times,serif" font-size="14.00">parameters:List[Parameter]</text>
<text text-anchor="start" x="452" y="-210.3" font-family="Times,serif" font-size="14.00">icon:String</text>
<text text-anchor="start" x="452" y="-196.3" font-family="Times,serif" font-size="14.00">UUID:String</text>
<text text-anchor="start" x="452" y="-182.3" font-family="Times,serif" font-size="14.00">required:String[]</text>
<text text-anchor="start" x="452" y="-168.3" font-family="Times,serif" font-size="14.00">group:String</text>
<text text-anchor="start" x="452" y="-154.3" font-family="Times,serif" font-size="14.00">kind:String</text>
<text text-anchor="start" x="452" y="-140.3" font-family="Times,serif" font-size="14.00">branches:Branch[]</text>
<polygon fill="none" stroke="black" points="448,-133 448,-302 656,-302 656,-133 448,-133"/>
</g>
<!-- StepParserService&#45;&gt;Step -->
<g id="edge23" class="edge">
<title>StepParserService&#45;&gt;Step</title>
<path fill="none" stroke="black" stroke-dasharray="5,2" d="M552,-355.88C552,-343.99 552,-330.32 552,-316.32"/>
<polygon fill="black" stroke="black" points="552,-306.09 556.5,-316.09 552,-311.09 552,-316.09 552,-316.09 552,-316.09 552,-311.09 547.5,-316.09 552,-306.09 552,-306.09"/>
</g>
<!-- ViewDefinition -->
<g id="node27" class="node">
<title>ViewDefinition</title>
<polygon fill="none" stroke="black" points="1402,-244.5 1402,-265.5 1711,-265.5 1711,-244.5 1402,-244.5"/>
<text text-anchor="start" x="1498.5" y="-252.3" font-family="Times,serif" font-weight="bold" font-size="14.00">ViewDefinition</text>
<polygon fill="none" stroke="black" points="1402,-168.5 1402,-244.5 1711,-244.5 1711,-168.5 1402,-168.5"/>
<text text-anchor="start" x="1518.5" y="-231.3" font-family="Times,serif" font-style="italic" font-size="14.00">Properties</text>
<text text-anchor="start" x="1405" y="-217.3" font-family="Times,serif" font-size="14.00">properties:Map[String, String]</text>
<text text-anchor="start" x="1405" y="-203.3" font-family="Times,serif" font-size="14.00">step:Step</text>
<text text-anchor="start" x="1405" y="-189.3" font-family="Times,serif" font-size="14.00">url:String</text>
<text text-anchor="start" x="1405" y="-175.3" font-family="Times,serif" font-size="14.00">constraints:List[ViewDefinitionConstraint]</text>
<polygon fill="none" stroke="black" points="1400.5,-168 1400.5,-267 1711.5,-267 1711.5,-168 1400.5,-168"/>
</g>
<!-- ViewDefinitionParserService&#45;&gt;ViewDefinition -->
<g id="edge24" class="edge">
<title>ViewDefinitionParserService&#45;&gt;ViewDefinition</title>
<path fill="none" stroke="black" stroke-dasharray="5,2" d="M1722.02,-348.95C1694.18,-327.07 1660.47,-300.59 1630.73,-277.22"/>
<polygon fill="black" stroke="black" points="1622.86,-271.03 1633.5,-273.67 1626.79,-274.12 1630.72,-277.21 1630.72,-277.21 1630.72,-277.21 1626.79,-274.12 1627.94,-280.75 1622.86,-271.03 1622.86,-271.03"/>
</g>
<!-- MetadataCatalog -->
<g id="node10" class="node">
<title>MetadataCatalog</title>
<polygon fill="none" stroke="black" points="2142,-244.5 2142,-265.5 2485,-265.5 2485,-244.5 2142,-244.5"/>
<text text-anchor="start" x="2245.5" y="-252.3" font-family="Times,serif" font-weight="bold" font-size="14.00">MetadataCatalog</text>
<polygon fill="none" stroke="black" points="2142,-168.5 2142,-244.5 2485,-244.5 2485,-168.5 2142,-168.5"/>
<text text-anchor="start" x="2282" y="-231.3" font-family="Times,serif" font-style="italic" font-size="14.00">Methods</text>
<text text-anchor="start" x="2145" y="-217.3" font-family="Times,serif" font-size="14.00">searchStepByID(&lt;String&gt; id):Metadata</text>
<text text-anchor="start" x="2145" y="-203.3" font-family="Times,serif" font-size="14.00">searchStepByName(&lt;String&gt; name):Metadata</text>
<text text-anchor="start" x="2145" y="-189.3" font-family="Times,serif" font-size="14.00">store(&lt;List[Step]&gt; steps):boolean</text>
<text text-anchor="start" x="2145" y="-175.3" font-family="Times,serif" font-size="14.00">getAll():List[Metadata]</text>
<polygon fill="none" stroke="black" points="2140.5,-168 2140.5,-267 2485.5,-267 2485.5,-168 2140.5,-168"/>
</g>
<!-- AbstractCatalog&#45;&gt;MetadataCatalog -->
<g id="edge6" class="edge">
<title>AbstractCatalog&#45;&gt;MetadataCatalog</title>
<path fill="none" stroke="black" stroke-dasharray="5,2" d="M2410.57,-355.88C2394.68,-333.51 2374.33,-304.86 2356.33,-279.51"/>
<polygon fill="black" stroke="black" points="2350.33,-271.05 2359.78,-276.6 2353.22,-275.13 2356.12,-279.21 2356.12,-279.21 2356.12,-279.21 2353.22,-275.13 2352.45,-281.81 2350.33,-271.05 2350.33,-271.05"/>
</g>
<!-- Metadata -->
<g id="node16" class="node">
<title>Metadata</title>
<polygon fill="none" stroke="black" points="1509,-66.5 1509,-87.5 1604,-87.5 1604,-66.5 1509,-66.5"/>
<text text-anchor="start" x="1518.5" y="-74.3" font-family="Times,serif" font-weight="bold" font-size="14.00">Metadata</text>
<polygon fill="none" stroke="black" points="1509,-4.5 1509,-66.5 1604,-66.5 1604,-4.5 1509,-4.5"/>
<text text-anchor="start" x="1518.5" y="-53.3" font-family="Times,serif" font-style="italic" font-size="14.00">Properties</text>
<text text-anchor="start" x="1512" y="-39.3" font-family="Times,serif" font-size="14.00">ID:String</text>
<text text-anchor="start" x="1512" y="-25.3" font-family="Times,serif" font-size="14.00">name:String</text>
<text text-anchor="start" x="1512" y="-11.3" font-family="Times,serif" font-size="14.00">type:String</text>
<polygon fill="none" stroke="black" points="1507.5,-4 1507.5,-89 1604.5,-89 1604.5,-4 1507.5,-4"/>
</g>
<!-- MetadataCatalog&#45;&gt;Metadata -->
<g id="edge10" class="edge">
<title>MetadataCatalog&#45;&gt;Metadata</title>
<path fill="none" stroke="black" stroke-dasharray="5,2" d="M2132.16,-176.13C1968.29,-139.54 1735.7,-87.62 1622.73,-62.4"/>
<polygon fill="black" stroke="black" points="1612.83,-60.19 1623.57,-57.98 1617.71,-61.28 1622.59,-62.37 1622.59,-62.37 1622.59,-62.37 1617.71,-61.28 1621.61,-66.76 1612.83,-60.19 1612.83,-60.19"/>
</g>
<!-- ViewDefinitionCatalog -->
<g id="node11" class="node">
<title>ViewDefinitionCatalog</title>
<polygon fill="none" stroke="black" points="2372,-527.5 2372,-548.5 2554,-548.5 2554,-527.5 2372,-527.5"/>
<text text-anchor="start" x="2375" y="-535.3" font-family="Times,serif" font-weight="bold" font-size="14.00">ViewDefinitionCatalog</text>
<polygon fill="none" stroke="black" points="2371,-527 2371,-550 2555,-550 2555,-527 2371,-527"/>
</g>
<!-- ViewDefinitionCatalog&#45;&gt;AbstractCatalog -->
<g id="edge8" class="edge">
<title>ViewDefinitionCatalog&#45;&gt;AbstractCatalog</title>
<path fill="none" stroke="black" d="M2459.98,-520.49C2456.69,-501.93 2451.28,-471.38 2446.64,-445.25"/>
<polygon fill="none" stroke="black" points="2450.04,-444.35 2444.85,-435.11 2443.15,-445.57 2450.04,-444.35"/>
</g>
<!-- KameletParseCatalog -->
<g id="node12" class="node">
<title>KameletParseCatalog</title>
<polygon fill="none" stroke="black" points="2604,-712.5 2604,-733.5 2781,-733.5 2781,-712.5 2604,-712.5"/>
<text text-anchor="start" x="2607" y="-720.3" font-family="Times,serif" font-weight="bold" font-size="14.00">KameletParseCatalog</text>
<polygon fill="none" stroke="black" points="2602.5,-712 2602.5,-735 2781.5,-735 2781.5,-712 2602.5,-712"/>
</g>
<!-- ParseCatalog -->
<g id="node13" class="node">
<title>ParseCatalog</title>
<polygon fill="none" stroke="black" points="2850,-551.5 2850,-572.5 3182,-572.5 3182,-551.5 2850,-551.5"/>
<text text-anchor="start" x="2963.5" y="-559.3" font-family="Times,serif" font-weight="bold" font-size="14.00">ParseCatalog</text>
<polygon fill="none" stroke="black" points="2850,-503.5 2850,-551.5 3182,-551.5 3182,-503.5 2850,-503.5"/>
<text text-anchor="start" x="2984.5" y="-538.3" font-family="Times,serif" font-style="italic" font-size="14.00">Methods</text>
<text text-anchor="start" x="2853" y="-524.3" font-family="Times,serif" font-size="14.00">parse():CompletableFuture[List[T]]</text>
<text text-anchor="start" x="2853" y="-510.3" font-family="Times,serif" font-size="14.00">setFileVisitor(&lt;YamlProcessFile&gt; fileVisitor):</text>
<polygon fill="none" stroke="black" points="2849,-503 2849,-574 3183,-574 3183,-503 2849,-503"/>
</g>
<!-- KameletParseCatalog&#45;&gt;ParseCatalog -->
<g id="edge9" class="edge">
<title>KameletParseCatalog&#45;&gt;ParseCatalog</title>
<path fill="none" stroke="black" stroke-dasharray="5,2" d="M2707.99,-705.19C2727.76,-684.6 2763.2,-650.21 2799,-628 2827.51,-610.31 2860.17,-594.83 2891.35,-581.98"/>
<polygon fill="black" stroke="black" points="2900.97,-578.07 2893.4,-586 2896.34,-579.95 2891.71,-581.83 2891.71,-581.83 2891.71,-581.83 2896.34,-579.95 2890.02,-577.66 2900.97,-578.07 2900.97,-578.07"/>
</g>
<!-- Kamelet -->
<g id="node14" class="node">
<title>Kamelet</title>
<polygon fill="none" stroke="black" points="3421,-712.5 3421,-733.5 3494,-733.5 3494,-712.5 3421,-712.5"/>
<text text-anchor="start" x="3424" y="-720.3" font-family="Times,serif" font-weight="bold" font-size="14.00">Kamelet</text>
<polygon fill="none" stroke="black" points="3419.5,-712 3419.5,-735 3494.5,-735 3494.5,-712 3419.5,-712"/>
</g>
<!-- KameletBinding -->
<g id="node15" class="node">
<title>KameletBinding</title>
<polygon fill="none" stroke="black" points="3530,-712.5 3530,-733.5 3666,-733.5 3666,-712.5 3530,-712.5"/>
<text text-anchor="start" x="3533" y="-720.3" font-family="Times,serif" font-weight="bold" font-size="14.00">KameletBinding</text>
<polygon fill="none" stroke="black" points="3529,-712 3529,-735 3667,-735 3667,-712 3529,-712"/>
</g>
<!-- CatalogCollection -->
<g id="node17" class="node">
<title>CatalogCollection</title>
<polygon fill="none" stroke="black" points="2613,-384.5 2613,-405.5 2759,-405.5 2759,-384.5 2613,-384.5"/>
<text text-anchor="start" x="2616" y="-392.3" font-family="Times,serif" font-weight="bold" font-size="14.00">CatalogCollection</text>
<polygon fill="none" stroke="black" points="2612,-384 2612,-407 2760,-407 2760,-384 2612,-384"/>
</g>
<!-- CatalogCollection&#45;&gt;MetadataCatalog -->
<g id="edge11" class="edge">
<title>CatalogCollection&#45;&gt;MetadataCatalog</title>
<path fill="none" stroke="black" d="M2658.16,-377.37C2640.37,-366.69 2616.65,-352.94 2595,-342 2548.6,-318.55 2496.76,-295.09 2450.29,-275.01"/>
<polygon fill="none" stroke="black" points="2451.65,-271.78 2441.08,-271.04 2448.88,-278.21 2451.65,-271.78"/>
</g>
<!-- InMemoryCatalog -->
<g id="node18" class="node">
<title>InMemoryCatalog</title>
<polygon fill="none" stroke="black" points="2115,-384.5 2115,-405.5 2263,-405.5 2263,-384.5 2115,-384.5"/>
<text text-anchor="start" x="2118" y="-392.3" font-family="Times,serif" font-weight="bold" font-size="14.00">InMemoryCatalog</text>
<polygon fill="none" stroke="black" points="2114,-384 2114,-407 2264,-407 2264,-384 2114,-384"/>
</g>
<!-- InMemoryCatalog&#45;&gt;MetadataCatalog -->
<g id="edge12" class="edge">
<title>InMemoryCatalog&#45;&gt;MetadataCatalog</title>
<path fill="none" stroke="black" d="M2201.12,-377.3C2217.03,-354.72 2245.8,-313.88 2270.18,-279.27"/>
<polygon fill="none" stroke="black" points="2273.06,-281.27 2275.95,-271.08 2267.33,-277.24 2273.06,-281.27"/>
</g>
<!-- ReadOnlyCatalog -->
<g id="node19" class="node">
<title>ReadOnlyCatalog</title>
<polygon fill="none" stroke="black" points="2615,-527.5 2615,-548.5 2757,-548.5 2757,-527.5 2615,-527.5"/>
<text text-anchor="start" x="2618" y="-535.3" font-family="Times,serif" font-weight="bold" font-size="14.00">ReadOnlyCatalog</text>
<polygon fill="none" stroke="black" points="2614,-527 2614,-550 2758,-550 2758,-527 2614,-527"/>
</g>
<!-- ReadOnlyCatalog&#45;&gt;CatalogCollection -->
<g id="edge13" class="edge">
<title>ReadOnlyCatalog&#45;&gt;CatalogCollection</title>
<path fill="none" stroke="black" d="M2686,-520.49C2686,-496.46 2686,-452.31 2686,-423.7"/>
<polygon fill="none" stroke="black" points="2689.5,-423.57 2686,-413.57 2682.5,-423.57 2689.5,-423.57"/>
</g>
<!-- GitParseCatalog -->
<g id="node20" class="node">
<title>GitParseCatalog</title>
<polygon fill="none" stroke="black" points="3250,-712.5 3250,-733.5 3385,-733.5 3385,-712.5 3250,-712.5"/>
<text text-anchor="start" x="3253" y="-720.3" font-family="Times,serif" font-weight="bold" font-size="14.00">GitParseCatalog</text>
<polygon fill="none" stroke="black" points="3248.5,-712 3248.5,-735 3385.5,-735 3385.5,-712 3248.5,-712"/>
</g>
<!-- GitParseCatalog&#45;&gt;ParseCatalog -->
<g id="edge14" class="edge">
<title>GitParseCatalog&#45;&gt;ParseCatalog</title>
<path fill="none" stroke="black" d="M3305.13,-705.37C3290,-684.63 3262.06,-649.78 3231,-628 3205.13,-609.86 3174.98,-594.54 3145.58,-582.01"/>
<polygon fill="none" stroke="black" points="3146.65,-578.66 3136.07,-578.04 3143.95,-585.12 3146.65,-578.66"/>
</g>
<!-- YamlProcessFile -->
<g id="node21" class="node">
<title>YamlProcessFile</title>
<polygon fill="none" stroke="black" points="3250,-527.5 3250,-548.5 3385,-548.5 3385,-527.5 3250,-527.5"/>
<text text-anchor="start" x="3253" y="-535.3" font-family="Times,serif" font-weight="bold" font-size="14.00">YamlProcessFile</text>
<polygon fill="none" stroke="black" points="3248.5,-527 3248.5,-550 3385.5,-550 3385.5,-527 3248.5,-527"/>
</g>
<!-- GitParseCatalog&#45;&gt;YamlProcessFile -->
<g id="edge15" class="edge">
<title>GitParseCatalog&#45;&gt;YamlProcessFile</title>
<path fill="none" stroke="black" stroke-dasharray="5,2" d="M3312.85,-705.28C3309.69,-673.46 3309.41,-605.19 3312.02,-566.93"/>
<polygon fill="black" stroke="black" points="3312.87,-556.54 3316.54,-566.87 3312.46,-561.52 3312.05,-566.5 3312.05,-566.5 3312.05,-566.5 3312.46,-561.52 3307.57,-566.13 3312.87,-556.54 3312.87,-556.54"/>
</g>
<!-- YamlProcessFile&#45;&gt;GitParseCatalog -->
<g id="edge17" class="edge">
<title>YamlProcessFile&#45;&gt;GitParseCatalog</title>
<path fill="none" stroke="black" stroke-dasharray="5,2" d="M3321.13,-556.54C3324.3,-588.23 3324.59,-656.48 3322,-694.86"/>
<polygon fill="black" stroke="black" points="3321.15,-705.28 3317.48,-694.95 3321.55,-700.3 3321.96,-695.32 3321.96,-695.32 3321.96,-695.32 3321.55,-700.3 3326.45,-695.68 3321.15,-705.28 3321.15,-705.28"/>
</g>
<!-- JarParseCatalog -->
<g id="node22" class="node">
<title>JarParseCatalog</title>
<polygon fill="none" stroke="black" points="2817,-712.5 2817,-733.5 2951,-733.5 2951,-712.5 2817,-712.5"/>
<text text-anchor="start" x="2820" y="-720.3" font-family="Times,serif" font-weight="bold" font-size="14.00">JarParseCatalog</text>
<polygon fill="none" stroke="black" points="2816,-712 2816,-735 2952,-735 2952,-712 2816,-712"/>
</g>
<!-- JarParseCatalog&#45;&gt;ParseCatalog -->
<g id="edge16" class="edge">
<title>JarParseCatalog&#45;&gt;ParseCatalog</title>
<path fill="none" stroke="black" d="M2896.42,-705.28C2915.81,-678.4 2953.96,-625.51 2981.97,-586.67"/>
<polygon fill="none" stroke="black" points="2985.13,-588.28 2988.14,-578.12 2979.46,-584.18 2985.13,-588.28"/>
</g>
<!-- ViewDefinitionParseCatalog -->
<g id="node23" class="node">
<title>ViewDefinitionParseCatalog</title>
<polygon fill="none" stroke="black" points="2987,-712.5 2987,-733.5 3213,-733.5 3213,-712.5 2987,-712.5"/>
<text text-anchor="start" x="2990" y="-720.3" font-family="Times,serif" font-weight="bold" font-size="14.00">ViewDefinitionParseCatalog</text>
<polygon fill="none" stroke="black" points="2986,-712 2986,-735 3214,-735 3214,-712 2986,-712"/>
</g>
<!-- ViewDefinitionParseCatalog&#45;&gt;ParseCatalog -->
<g id="edge18" class="edge">
<title>ViewDefinitionParseCatalog&#45;&gt;ParseCatalog</title>
<path fill="none" stroke="black" stroke-dasharray="5,2" d="M3092.1,-705.28C3079.86,-678.63 3055.89,-626.4 3038.1,-587.65"/>
<polygon fill="black" stroke="black" points="3033.73,-578.12 3041.99,-585.33 3035.81,-582.66 3037.9,-587.21 3037.9,-587.21 3037.9,-587.21 3035.81,-582.66 3033.81,-589.08 3033.73,-578.12 3033.73,-578.12"/>
</g>
<!-- Parameter -->
<g id="node24" class="node">
<title>Parameter</title>
<polygon fill="none" stroke="black" points="3702,-792.5 3702,-813.5 3838,-813.5 3838,-792.5 3702,-792.5"/>
<text text-anchor="start" x="3728" y="-800.3" font-family="Times,serif" font-weight="bold" font-size="14.00">Parameter</text>
<polygon fill="none" stroke="black" points="3702,-632.5 3702,-792.5 3838,-792.5 3838,-632.5 3702,-632.5"/>
<text text-anchor="start" x="3732" y="-779.3" font-family="Times,serif" font-style="italic" font-size="14.00">Properties</text>
<text text-anchor="start" x="3705" y="-765.3" font-family="Times,serif" font-size="14.00">description:String</text>
<text text-anchor="start" x="3705" y="-751.3" font-family="Times,serif" font-size="14.00">title:String</text>
<text text-anchor="start" x="3705" y="-737.3" font-family="Times,serif" font-size="14.00">id:String</text>
<text text-anchor="start" x="3705" y="-723.3" font-family="Times,serif" font-size="14.00">value:Object</text>
<text text-anchor="start" x="3705" y="-709.3" font-family="Times,serif" font-size="14.00">default:Object</text>
<text text-anchor="start" x="3705" y="-695.3" font-family="Times,serif" font-size="14.00">type:String</text>
<text text-anchor="start" x="3705" y="-681.3" font-family="Times,serif" font-size="14.00">path:Boolean</text>
<text text-anchor="start" x="3705" y="-667.3" font-family="Times,serif" font-size="14.00">nullable:Boolean</text>
<text text-anchor="start" x="3705" y="-653.3" font-family="Times,serif" font-size="14.00">enum:Object[]</text>
<text text-anchor="start" x="3705" y="-639.3" font-family="Times,serif" font-size="14.00">examples:Object[]</text>
<polygon fill="none" stroke="black" points="3701,-632 3701,-815 3839,-815 3839,-632 3701,-632"/>
</g>
<!-- Branch -->
<g id="node25" class="node">
<title>Branch</title>
<polygon fill="none" stroke="black" points="3874,-712.5 3874,-733.5 3938,-733.5 3938,-712.5 3874,-712.5"/>
<text text-anchor="start" x="3877" y="-720.3" font-family="Times,serif" font-weight="bold" font-size="14.00">Branch</text>
<polygon fill="none" stroke="black" points="3873,-712 3873,-735 3939,-735 3939,-712 3873,-712"/>
</g>
<!-- Step&#45;&gt;Metadata -->
<g id="edge19" class="edge">
<title>Step&#45;&gt;Metadata</title>
<path fill="none" stroke="black" d="M664.25,-197.61C874.23,-162.26 1320.47,-87.15 1489.36,-58.72"/>
<polygon fill="none" stroke="black" points="1490.08,-62.15 1499.36,-57.03 1488.91,-55.24 1490.08,-62.15"/>
</g>
<!-- ViewDefinition&#45;&gt;Metadata -->
<g id="edge20" class="edge">
<title>ViewDefinition&#45;&gt;Metadata</title>
<path fill="none" stroke="black" d="M1556,-163.95C1556,-144.73 1556,-122.93 1556,-103.43"/>
<polygon fill="none" stroke="black" points="1559.5,-103.16 1556,-93.16 1552.5,-103.16 1559.5,-103.16"/>
</g>
<!-- ViewDefinitionConstraint -->
<g id="node28" class="node">
<title>ViewDefinitionConstraint</title>
<polygon fill="none" stroke="black" points="1219,-415.5 1219,-436.5 1445,-436.5 1445,-415.5 1219,-415.5"/>
<text text-anchor="start" x="1231.5" y="-423.3" font-family="Times,serif" font-weight="bold" font-size="14.00">ViewDefinitionConstraint</text>
<polygon fill="none" stroke="black" points="1219,-353.5 1219,-415.5 1445,-415.5 1445,-353.5 1219,-353.5"/>
<text text-anchor="start" x="1294" y="-402.3" font-family="Times,serif" font-style="italic" font-size="14.00">Properties</text>
<text text-anchor="start" x="1222" y="-388.3" font-family="Times,serif" font-size="14.00">mandatory:boolean</text>
<text text-anchor="start" x="1222" y="-374.3" font-family="Times,serif" font-size="14.00">operation:ConstraintOperation</text>
<text text-anchor="start" x="1222" y="-360.3" font-family="Times,serif" font-size="14.00">parameter:String</text>
<polygon fill="none" stroke="black" points="1218,-353 1218,-438 1446,-438 1446,-353 1218,-353"/>
</g>
<!-- ViewDefinitionConstraint&#45;&gt;ViewDefinition -->
<g id="edge21" class="edge">
<title>ViewDefinitionConstraint&#45;&gt;ViewDefinition</title>
<path fill="none" stroke="black" d="M1389.98,-348.95C1417.23,-327.53 1450.09,-301.71 1479.37,-278.71"/>
<polygon fill="black" stroke="black" points="1479.71,-278.45 1481.95,-271.59 1489.14,-271.03 1486.9,-277.88 1479.71,-278.45"/>
<text text-anchor="middle" x="1375.98" y="-337.75" font-family="Times,serif" font-size="14.00">0..n</text>
</g>
<!-- DeploymentGeneratorService -->
<g id="node29" class="node">
<title>DeploymentGeneratorService</title>
<polygon fill="none" stroke="black" points="9,-422.5 9,-443.5 389,-443.5 389,-422.5 9,-422.5"/>
<text text-anchor="start" x="83" y="-430.3" font-family="Times,serif" font-weight="bold" font-size="14.00">DeploymentGeneratorService</text>
<polygon fill="none" stroke="black" points="9,-346.5 9,-422.5 389,-422.5 389,-346.5 9,-346.5"/>
<text text-anchor="start" x="167.5" y="-409.3" font-family="Times,serif" font-style="italic" font-size="14.00">Methods</text>
<text text-anchor="start" x="12" y="-395.3" font-family="Times,serif" font-size="14.00">identifier():String</text>
<text text-anchor="start" x="12" y="-381.3" font-family="Times,serif" font-size="14.00">parse(&lt;List[Step]&gt; steps, &lt;Map&gt; metadata):String</text>
<text text-anchor="start" x="12" y="-367.3" font-family="Times,serif" font-size="14.00">appliesTo(&lt;List[Step]&gt; steps):boolean</text>
<text text-anchor="start" x="12" y="-353.3" font-family="Times,serif" font-size="14.00">getKinds():String[]</text>
<polygon fill="none" stroke="black" points="8,-346 8,-445 390,-445 390,-346 8,-346"/>
</g>
<!-- DeploymentGeneratorService&#45;&gt;Step -->
<g id="edge22" class="edge">
<title>DeploymentGeneratorService&#45;&gt;Step</title>
<path fill="none" stroke="black" stroke-dasharray="5,2" d="M304.43,-341.93C344.18,-322.12 389.7,-299.42 430.78,-278.94"/>
<polygon fill="black" stroke="black" points="439.74,-274.47 432.8,-282.96 435.27,-276.7 430.79,-278.93 430.79,-278.93 430.79,-278.93 435.27,-276.7 428.78,-274.9 439.74,-274.47 439.74,-274.47"/>
</g>
</g>
</svg>
