<?xml version="1.0" encoding="UTF-8" standalone="no"?>
<!DOCTYPE svg PUBLIC "-//W3C//DTD SVG 1.1//EN"
 "http://www.w3.org/Graphics/SVG/1.1/DTD/svg11.dtd">
<!-- Generated by graphviz version 2.43.0 (0)
 -->
<!-- Title: ClassDiagram Pages: 1 -->
<svg width="666pt" height="443pt"
 viewBox="0.00 0.00 666.00 443.00" xmlns="http://www.w3.org/2000/svg" xmlns:xlink="http://www.w3.org/1999/xlink">
<g id="graph0" class="graph" transform="scale(1 1) rotate(0) translate(4 439)">
<title>ClassDiagram</title>
<polygon fill="white" stroke="transparent" points="-4,4 -4,-439 662,-439 662,4 -4,4"/>
<!-- Metadata -->
<g id="node1" class="node">
<title>Metadata</title>
<polygon fill="none" stroke="black" points="188,-66.5 188,-87.5 283,-87.5 283,-66.5 188,-66.5"/>
<text text-anchor="start" x="197.5" y="-74.3" font-family="Times,serif" font-weight="bold" font-size="14.00">Metadata</text>
<polygon fill="none" stroke="black" points="188,-4.5 188,-66.5 283,-66.5 283,-4.5 188,-4.5"/>
<text text-anchor="start" x="197.5" y="-53.3" font-family="Times,serif" font-style="italic" font-size="14.00">Properties</text>
<text text-anchor="start" x="191" y="-39.3" font-family="Times,serif" font-size="14.00">ID:String</text>
<text text-anchor="start" x="191" y="-25.3" font-family="Times,serif" font-size="14.00">name:String</text>
<text text-anchor="start" x="191" y="-11.3" font-family="Times,serif" font-size="14.00">type:String</text>
<polygon fill="none" stroke="black" points="186.5,-4 186.5,-89 283.5,-89 283.5,-4 186.5,-4"/>
</g>
<!-- Parameter -->
<g id="node2" class="node">
<title>Parameter</title>
<polygon fill="none" stroke="black" points="251,-387.5 251,-408.5 387,-408.5 387,-387.5 251,-387.5"/>
<text text-anchor="start" x="277" y="-395.3" font-family="Times,serif" font-weight="bold" font-size="14.00">Parameter</text>
<polygon fill="none" stroke="black" points="251,-283.5 251,-387.5 387,-387.5 387,-283.5 251,-283.5"/>
<text text-anchor="start" x="281" y="-374.3" font-family="Times,serif" font-style="italic" font-size="14.00">Properties</text>
<text text-anchor="start" x="254" y="-360.3" font-family="Times,serif" font-size="14.00">description:String</text>
<text text-anchor="start" x="254" y="-346.3" font-family="Times,serif" font-size="14.00">label:String</text>
<text text-anchor="start" x="254" y="-332.3" font-family="Times,serif" font-size="14.00">id:String</text>
<text text-anchor="start" x="254" y="-318.3" font-family="Times,serif" font-size="14.00">value:String</text>
<text text-anchor="start" x="254" y="-304.3" font-family="Times,serif" font-size="14.00">default:String</text>
<text text-anchor="start" x="254" y="-290.3" font-family="Times,serif" font-size="14.00">type:String</text>
<polygon fill="none" stroke="black" points="250,-283 250,-410 388,-410 388,-283 250,-283"/>
</g>
<!-- Step -->
<g id="node3" class="node">
<title>Step</title>
<polygon fill="none" stroke="black" points="56,-181.5 56,-202.5 169,-202.5 169,-181.5 56,-181.5"/>
<text text-anchor="start" x="94.5" y="-189.3" font-family="Times,serif" font-weight="bold" font-size="14.00">Step</text>
<polygon fill="none" stroke="black" points="56,-147.5 56,-181.5 169,-181.5 169,-147.5 56,-147.5"/>
<text text-anchor="start" x="74.5" y="-168.3" font-family="Times,serif" font-style="italic" font-size="14.00">Properties</text>
<text text-anchor="start" x="59" y="-154.3" font-family="Times,serif" font-size="14.00">subtype:String</text>
<polygon fill="none" stroke="black" points="54.5,-147 54.5,-204 169.5,-204 169.5,-147 54.5,-147"/>
</g>
<!-- Step&#45;&gt;Metadata -->
<g id="edge1" class="edge">
<title>Step&#45;&gt;Metadata</title>
<path fill="none" stroke="black" d="M142.72,-142.78C155.08,-130.02 169.68,-114.95 183.57,-100.6"/>
<polygon fill="none" stroke="black" points="186.31,-102.8 190.75,-93.18 181.28,-97.93 186.31,-102.8"/>
</g>
<!-- KameletStep -->
<g id="node4" class="node">
<title>KameletStep</title>
<polygon fill="none" stroke="black" points="9,-408.5 9,-429.5 215,-429.5 215,-408.5 9,-408.5"/>
<text text-anchor="start" x="61" y="-416.3" font-family="Times,serif" font-weight="bold" font-size="14.00">KameletStep</text>
<polygon fill="none" stroke="black" points="9,-262.5 9,-408.5 215,-408.5 215,-262.5 9,-262.5"/>
<text text-anchor="start" x="74" y="-395.3" font-family="Times,serif" font-style="italic" font-size="14.00">Properties</text>
<text text-anchor="start" x="12" y="-381.3" font-family="Times,serif" font-size="14.00">group:String</text>
<text text-anchor="start" x="12" y="-367.3" font-family="Times,serif" font-size="14.00">title:String</text>
<text text-anchor="start" x="12" y="-353.3" font-family="Times,serif" font-size="14.00">description:String</text>
<text text-anchor="start" x="12" y="-339.3" font-family="Times,serif" font-size="14.00">kameletType:String</text>
<text text-anchor="start" x="12" y="-325.3" font-family="Times,serif" font-size="14.00">apiVersion:String</text>
<text text-anchor="start" x="12" y="-311.3" font-family="Times,serif" font-size="14.00">kind:String</text>
<text text-anchor="start" x="12" y="-297.3" font-family="Times,serif" font-size="14.00">spec:String</text>
<text text-anchor="start" x="12" y="-283.3" font-family="Times,serif" font-size="14.00">parameters:List[Parameter]</text>
<text text-anchor="start" x="12" y="-269.3" font-family="Times,serif" font-size="14.00">icon:String</text>
<polygon fill="none" stroke="black" points="8,-262 8,-431 216,-431 216,-262 8,-262"/>
</g>
<!-- KameletStep&#45;&gt;Step -->
<g id="edge2" class="edge">
<title>KameletStep&#45;&gt;Step</title>
<path fill="none" stroke="black" d="M112,-257.54C112,-243.89 112,-230.36 112,-218.38"/>
<polygon fill="none" stroke="black" points="115.5,-218.29 112,-208.29 108.5,-218.29 115.5,-218.29"/>
</g>
<!-- ViewDefinition -->
<g id="node5" class="node">
<title>ViewDefinition</title>
<polygon fill="none" stroke="black" points="205,-195.5 205,-216.5 514,-216.5 514,-195.5 205,-195.5"/>
<text text-anchor="start" x="301.5" y="-203.3" font-family="Times,serif" font-weight="bold" font-size="14.00">ViewDefinition</text>
<polygon fill="none" stroke="black" points="205,-133.5 205,-195.5 514,-195.5 514,-133.5 205,-133.5"/>
<text text-anchor="start" x="321.5" y="-182.3" font-family="Times,serif" font-style="italic" font-size="14.00">Properties</text>
<text text-anchor="start" x="208" y="-168.3" font-family="Times,serif" font-size="14.00">steps:List[Step]</text>
<text text-anchor="start" x="208" y="-154.3" font-family="Times,serif" font-size="14.00">properties:Map[String, String]</text>
<text text-anchor="start" x="208" y="-140.3" font-family="Times,serif" font-size="14.00">constraints:List[ViewDefinitionConstraint]</text>
<polygon fill="none" stroke="black" points="203.5,-133 203.5,-218 514.5,-218 514.5,-133 203.5,-133"/>
</g>
<!-- ViewDefinition&#45;&gt;Metadata -->
<g id="edge3" class="edge">
<title>ViewDefinition&#45;&gt;Metadata</title>
<path fill="none" stroke="black" d="M314.23,-128.65C305.37,-119.57 295.99,-109.96 286.91,-100.66"/>
<polygon fill="none" stroke="black" points="289.19,-97.99 279.7,-93.28 284.18,-102.88 289.19,-97.99"/>
</g>
<!-- ViewDefinitionConstraint -->
<g id="node6" class="node">
<title>ViewDefinitionConstraint</title>
<polygon fill="none" stroke="black" points="423,-366.5 423,-387.5 649,-387.5 649,-366.5 423,-366.5"/>
<text text-anchor="start" x="435.5" y="-374.3" font-family="Times,serif" font-weight="bold" font-size="14.00">ViewDefinitionConstraint</text>
<polygon fill="none" stroke="black" points="423,-304.5 423,-366.5 649,-366.5 649,-304.5 423,-304.5"/>
<text text-anchor="start" x="498" y="-353.3" font-family="Times,serif" font-style="italic" font-size="14.00">Properties</text>
<text text-anchor="start" x="426" y="-339.3" font-family="Times,serif" font-size="14.00">mandatory:boolean</text>
<text text-anchor="start" x="426" y="-325.3" font-family="Times,serif" font-size="14.00">operation:ConstraintOperation</text>
<text text-anchor="start" x="426" y="-311.3" font-family="Times,serif" font-size="14.00">parameter:String</text>
<polygon fill="none" stroke="black" points="422,-304 422,-389 650,-389 650,-304 422,-304"/>
</g>
</g>
</svg>
