<?xml version="1.0" encoding="UTF-8" standalone="no"?>
<!DOCTYPE svg PUBLIC "-//W3C//DTD SVG 1.1//EN"
 "http://www.w3.org/Graphics/SVG/1.1/DTD/svg11.dtd">
<!-- Generated by graphviz version 2.43.0 (0)
 -->
<!-- Title: ClassDiagram Pages: 1 -->
<svg width="5347pt" height="840pt"
 viewBox="0.00 0.00 5346.50 840.00" xmlns="http://www.w3.org/2000/svg" xmlns:xlink="http://www.w3.org/1999/xlink">
<g id="graph0" class="graph" transform="scale(1 1) rotate(0) translate(4 836)">
<title>ClassDiagram</title>
<polygon fill="white" stroke="transparent" points="-4,4 -4,-836 5342.5,-836 5342.5,4 -4,4"/>
<!-- FlowsWrapper -->
<g id="node1" class="node">
<title>FlowsWrapper</title>
<polygon fill="none" stroke="black" points="9,-711.5 9,-732.5 127,-732.5 127,-711.5 9,-711.5"/>
<text text-anchor="start" x="12" y="-719.3" font-family="Times,serif" font-weight="bold" font-size="14.00">FlowsWrapper</text>
<polygon fill="none" stroke="black" points="8,-711 8,-734 128,-734 128,-711 8,-711"/>
</g>
<!-- CapabilitiesResource -->
<g id="node2" class="node">
<title>CapabilitiesResource</title>
<polygon fill="none" stroke="black" points="137,-529.5 137,-550.5 311,-550.5 311,-529.5 137,-529.5"/>
<text text-anchor="start" x="140" y="-537.3" font-family="Times,serif" font-weight="bold" font-size="14.00">CapabilitiesResource</text>
<polygon fill="none" stroke="black" points="137,-495.5 137,-529.5 311,-529.5 311,-495.5 137,-495.5"/>
<text text-anchor="start" x="192.5" y="-516.3" font-family="Times,serif" font-style="italic" font-size="14.00">Methods</text>
<text text-anchor="start" x="153" y="-502.3" font-family="Times,serif" font-size="14.00">getAll():Capabilities</text>
<polygon fill="none" stroke="black" points="136,-495 136,-552 312,-552 312,-495 136,-495"/>
</g>
<!-- LanguageService -->
<g id="node3" class="node">
<title>LanguageService</title>
<text text-anchor="middle" x="224" y="-718.8" font-family="Times,serif" font-size="14.00">LanguageService</text>
</g>
<!-- LanguageService&#45;&gt;CapabilitiesResource -->
<g id="edge1" class="edge">
<title>LanguageService&#45;&gt;CapabilitiesResource</title>
<path fill="none" stroke="black" d="M224,-704.36C224,-674.29 224,-611.13 224,-568.26"/>
<polygon fill="black" stroke="black" points="224,-568.2 220,-562.2 224,-556.2 228,-562.2 224,-568.2"/>
<text text-anchor="middle" x="210" y="-693.16" font-family="Times,serif" font-size="14.00">0..1</text>
</g>
<!-- DeploymentsResource -->
<g id="node4" class="node">
<title>DeploymentsResource</title>
<polygon fill="none" stroke="black" points="321,-756.5 321,-777.5 807,-777.5 807,-756.5 321,-756.5"/>
<text text-anchor="start" x="475.5" y="-764.3" font-family="Times,serif" font-weight="bold" font-size="14.00">DeploymentsResource</text>
<polygon fill="none" stroke="black" points="321,-666.5 321,-756.5 807,-756.5 807,-666.5 321,-666.5"/>
<text text-anchor="start" x="532.5" y="-743.3" font-family="Times,serif" font-style="italic" font-size="14.00">Methods</text>
<text text-anchor="start" x="324" y="-729.3" font-family="Times,serif" font-size="14.00">all(&lt;String&gt; namespace):String</text>
<text text-anchor="start" x="324" y="-715.3" font-family="Times,serif" font-size="14.00">start(&lt;String&gt; crd, &lt;String&gt; namespace, &lt;String&gt; name):String</text>
<text text-anchor="start" x="324" y="-701.3" font-family="Times,serif" font-size="14.00">get(&lt;String&gt; name, &lt;String&gt; type, &lt;String&gt; namespace):String</text>
<text text-anchor="start" x="324" y="-687.3" font-family="Times,serif" font-size="14.00">stop(&lt;String&gt; name, &lt;String&gt; type, &lt;String&gt; namespace):String</text>
<text text-anchor="start" x="324" y="-673.3" font-family="Times,serif" font-size="14.00">logs(&lt;String&gt; name, &lt;String&gt; namespace):String</text>
<polygon fill="none" stroke="black" points="320,-666 320,-779 808,-779 808,-666 320,-666"/>
</g>
<!-- IntegrationsResource -->
<g id="node5" class="node">
<title>IntegrationsResource</title>
<polygon fill="none" stroke="black" points="694,-550.5 694,-571.5 1130,-571.5 1130,-550.5 694,-550.5"/>
<text text-anchor="start" x="825.5" y="-558.3" font-family="Times,serif" font-weight="bold" font-size="14.00">IntegrationsResource</text>
<polygon fill="none" stroke="black" points="694,-474.5 694,-550.5 1130,-550.5 1130,-474.5 694,-474.5"/>
<text text-anchor="start" x="880.5" y="-537.3" font-family="Times,serif" font-style="italic" font-size="14.00">Methods</text>
<text text-anchor="start" x="697" y="-523.3" font-family="Times,serif" font-size="14.00">crd(&lt;String&gt; dsl, &lt;Integration&gt; integration):Map</text>
<text text-anchor="start" x="697" y="-509.3" font-family="Times,serif" font-size="14.00">integration(&lt;String&gt; dsl, &lt;String&gt; crd):Map</text>
<text text-anchor="start" x="697" y="-495.3" font-family="Times,serif" font-size="14.00">compatibleDSL(&lt;List[Step]&gt; steps):Map</text>
<text text-anchor="start" x="697" y="-481.3" font-family="Times,serif" font-size="14.00">CRDs(&lt;String&gt; dsl, &lt;List&lt;Integration&gt;&gt; integration):Map</text>
<polygon fill="none" stroke="black" points="693,-474 693,-573 1131,-573 1131,-474 693,-474"/>
</g>
<!-- DeploymentService -->
<g id="node6" class="node">
<title>DeploymentService</title>
<text text-anchor="middle" x="912" y="-718.8" font-family="Times,serif" font-size="14.00">DeploymentService</text>
</g>
<!-- DeploymentService&#45;&gt;IntegrationsResource -->
<g id="edge2" class="edge">
<title>DeploymentService&#45;&gt;IntegrationsResource</title>
<path fill="none" stroke="black" d="M907.99,-704.36C905.5,-678.91 904.71,-629.77 905.61,-589.28"/>
<polygon fill="black" stroke="black" points="905.62,-589.03 901.79,-582.92 905.95,-577.03 909.78,-583.14 905.62,-589.03"/>
<text text-anchor="middle" x="893.99" y="-693.16" font-family="Times,serif" font-size="14.00">0..1</text>
</g>
<!-- DeploymentService&#45;&gt;IntegrationsResource -->
<g id="edge3" class="edge">
<title>DeploymentService&#45;&gt;IntegrationsResource</title>
<path fill="none" stroke="black" d="M916.01,-704.36C918.5,-678.91 919.29,-629.77 918.39,-589.28"/>
<polygon fill="black" stroke="black" points="918.38,-589.03 914.22,-583.14 918.05,-577.03 922.21,-582.92 918.38,-589.03"/>
<text text-anchor="middle" x="930.01" y="-693.16" font-family="Times,serif" font-size="14.00">0..1</text>
</g>
<!-- StepResource -->
<g id="node7" class="node">
<title>StepResource</title>
<polygon fill="none" stroke="black" points="1017,-742.5 1017,-763.5 1489,-763.5 1489,-742.5 1017,-742.5"/>
<text text-anchor="start" x="1198.5" y="-750.3" font-family="Times,serif" font-weight="bold" font-size="14.00">StepResource</text>
<polygon fill="none" stroke="black" points="1017,-680.5 1017,-742.5 1489,-742.5 1489,-680.5 1017,-680.5"/>
<text text-anchor="start" x="1221.5" y="-729.3" font-family="Times,serif" font-style="italic" font-size="14.00">Methods</text>
<text text-anchor="start" x="1020" y="-715.3" font-family="Times,serif" font-size="14.00">allSteps(&lt;String&gt; type, &lt;String&gt; dsl, &lt;String&gt; kind):List[Step]</text>
<text text-anchor="start" x="1020" y="-701.3" font-family="Times,serif" font-size="14.00">stepById(&lt;String&gt; id):Step</text>
<text text-anchor="start" x="1020" y="-687.3" font-family="Times,serif" font-size="14.00">stepsByName(&lt;String&gt; name):List[Step]</text>
<polygon fill="none" stroke="black" points="1016,-680 1016,-765 1490,-765 1490,-680 1016,-680"/>
</g>
<!-- StepCatalog -->
<g id="node8" class="node">
<title>StepCatalog</title>
<polygon fill="none" stroke="black" points="1202,-512.5 1202,-533.5 1304,-533.5 1304,-512.5 1202,-512.5"/>
<text text-anchor="start" x="1205" y="-520.3" font-family="Times,serif" font-weight="bold" font-size="14.00">StepCatalog</text>
<polygon fill="none" stroke="black" points="1201,-512 1201,-535 1305,-535 1305,-512 1201,-512"/>
</g>
<!-- StepResource&#45;&gt;StepCatalog -->
<g id="edge4" class="edge">
<title>StepResource&#45;&gt;StepCatalog</title>
<path fill="none" stroke="black" stroke-dasharray="5,2" d="M1253,-675.81C1253,-637.58 1253,-584.28 1253,-552.21"/>
<polygon fill="black" stroke="black" points="1253,-541.81 1257.5,-551.81 1253,-546.81 1253,-551.81 1253,-551.81 1253,-551.81 1253,-546.81 1248.5,-551.81 1253,-541.81 1253,-541.81"/>
</g>
<!-- AbstractCatalog -->
<g id="node15" class="node">
<title>AbstractCatalog</title>
<polygon fill="none" stroke="black" points="1267,-407.5 1267,-428.5 1545,-428.5 1545,-407.5 1267,-407.5"/>
<text text-anchor="start" x="1342.5" y="-415.3" font-family="Times,serif" font-weight="bold" font-size="14.00">AbstractCatalog</text>
<polygon fill="none" stroke="black" points="1267,-331.5 1267,-407.5 1545,-407.5 1545,-331.5 1267,-331.5"/>
<text text-anchor="start" x="1374.5" y="-394.3" font-family="Times,serif" font-style="italic" font-size="14.00">Methods</text>
<text text-anchor="start" x="1270" y="-380.3" font-family="Times,serif" font-size="14.00">waitForWarmUp():CompletableFuture</text>
<text text-anchor="start" x="1270" y="-366.3" font-family="Times,serif" font-size="14.00">loadParsers():List[ParseCatalog]</text>
<text text-anchor="start" x="1270" y="-352.3" font-family="Times,serif" font-size="14.00">warmUpCatalog():</text>
<text text-anchor="start" x="1270" y="-338.3" font-family="Times,serif" font-size="14.00">refresh():</text>
<polygon fill="none" stroke="black" points="1266,-331 1266,-430 1546,-430 1546,-331 1266,-331"/>
</g>
<!-- StepCatalog&#45;&gt;AbstractCatalog -->
<g id="edge9" class="edge">
<title>StepCatalog&#45;&gt;AbstractCatalog</title>
<path fill="none" stroke="black" d="M1271.46,-505.49C1288.89,-489.43 1316.08,-464.37 1341.47,-440.97"/>
<polygon fill="none" stroke="black" points="1343.94,-443.45 1348.92,-434.1 1339.2,-438.31 1343.94,-443.45"/>
</g>
<!-- ViewDefinitionResource -->
<g id="node9" class="node">
<title>ViewDefinitionResource</title>
<polygon fill="none" stroke="black" points="1761,-529.5 1761,-550.5 2229,-550.5 2229,-529.5 1761,-529.5"/>
<text text-anchor="start" x="1900" y="-537.3" font-family="Times,serif" font-weight="bold" font-size="14.00">ViewDefinitionResource</text>
<polygon fill="none" stroke="black" points="1761,-495.5 1761,-529.5 2229,-529.5 2229,-495.5 1761,-495.5"/>
<text text-anchor="start" x="1963.5" y="-516.3" font-family="Times,serif" font-style="italic" font-size="14.00">Methods</text>
<text text-anchor="start" x="1764" y="-502.3" font-family="Times,serif" font-size="14.00">viewsPerStepList:(&lt;Step[]&gt; DeploymentResourceYamlRequest):</text>
<polygon fill="none" stroke="black" points="1760,-495 1760,-552 2230,-552 2230,-495 1760,-495"/>
</g>
<!-- ViewDefinitionService -->
<g id="node10" class="node">
<title>ViewDefinitionService</title>
<text text-anchor="middle" x="1995" y="-718.8" font-family="Times,serif" font-size="14.00">ViewDefinitionService</text>
</g>
<!-- ViewDefinitionService&#45;&gt;ViewDefinitionResource -->
<g id="edge5" class="edge">
<title>ViewDefinitionService&#45;&gt;ViewDefinitionResource</title>
<path fill="none" stroke="black" d="M1995,-704.36C1995,-674.29 1995,-611.13 1995,-568.26"/>
<polygon fill="black" stroke="black" points="1995,-568.2 1991,-562.2 1995,-556.2 1999,-562.2 1995,-568.2"/>
<text text-anchor="middle" x="1981" y="-693.16" font-family="Times,serif" font-size="14.00">0..1</text>
</g>
<!-- CamelRestDSLParseCatalog -->
<g id="node11" class="node">
<title>CamelRestDSLParseCatalog</title>
<polygon fill="none" stroke="black" points="2109,-711.5 2109,-732.5 2337,-732.5 2337,-711.5 2109,-711.5"/>
<text text-anchor="start" x="2112" y="-719.3" font-family="Times,serif" font-weight="bold" font-size="14.00">CamelRestDSLParseCatalog</text>
<polygon fill="none" stroke="black" points="2108,-711 2108,-734 2338,-734 2338,-711 2108,-711"/>
</g>
<!-- StepCatalogParser -->
<g id="node12" class="node">
<title>StepCatalogParser</title>
<polygon fill="none" stroke="black" points="2268,-550.5 2268,-571.5 2653,-571.5 2653,-550.5 2268,-550.5"/>
<text text-anchor="start" x="2386.5" y="-558.3" font-family="Times,serif" font-weight="bold" font-size="14.00">StepCatalogParser</text>
<polygon fill="none" stroke="black" points="2268,-474.5 2268,-550.5 2653,-550.5 2653,-474.5 2268,-474.5"/>
<text text-anchor="start" x="2429" y="-537.3" font-family="Times,serif" font-style="italic" font-size="14.00">Methods</text>
<text text-anchor="start" x="2271" y="-523.3" font-family="Times,serif" font-size="14.00">getParser(&lt;String&gt; url, &lt;String&gt; tag):ParseCatalog</text>
<text text-anchor="start" x="2271" y="-509.3" font-family="Times,serif" font-size="14.00">getParserFromCluster():ParseCatalog</text>
<text text-anchor="start" x="2271" y="-495.3" font-family="Times,serif" font-size="14.00">getLocalFolder(&lt;Path&gt; path):ParseCatalog</text>
<text text-anchor="start" x="2271" y="-481.3" font-family="Times,serif" font-size="14.00">generatesKind(&lt;String&gt; kind):Boolean</text>
<polygon fill="none" stroke="black" points="2266.5,-474 2266.5,-573 2653.5,-573 2653.5,-474 2266.5,-474"/>
</g>
<!-- CamelRestDSLParseCatalog&#45;&gt;StepCatalogParser -->
<g id="edge6" class="edge">
<title>CamelRestDSLParseCatalog&#45;&gt;StepCatalogParser</title>
<path fill="none" stroke="black" d="M2243.62,-704.36C2275.69,-677.7 2339.02,-625.06 2388.92,-583.58"/>
<polygon fill="none" stroke="black" points="2391.35,-586.11 2396.8,-577.03 2386.88,-580.73 2391.35,-586.11"/>
</g>
<!-- ParseCatalog -->
<g id="node13" class="node">
<title>ParseCatalog</title>
<polygon fill="none" stroke="black" points="2868,-536.5 2868,-557.5 3200,-557.5 3200,-536.5 2868,-536.5"/>
<text text-anchor="start" x="2981.5" y="-544.3" font-family="Times,serif" font-weight="bold" font-size="14.00">ParseCatalog</text>
<polygon fill="none" stroke="black" points="2868,-488.5 2868,-536.5 3200,-536.5 3200,-488.5 2868,-488.5"/>
<text text-anchor="start" x="3002.5" y="-523.3" font-family="Times,serif" font-style="italic" font-size="14.00">Methods</text>
<text text-anchor="start" x="2871" y="-509.3" font-family="Times,serif" font-size="14.00">parse():CompletableFuture[List[T]]</text>
<text text-anchor="start" x="2871" y="-495.3" font-family="Times,serif" font-size="14.00">setFileVisitor(&lt;YamlProcessFile&gt; fileVisitor):</text>
<polygon fill="none" stroke="black" points="2867,-488 2867,-559 3201,-559 3201,-488 2867,-488"/>
</g>
<!-- CamelRestDSLParseCatalog&#45;&gt;ParseCatalog -->
<g id="edge7" class="edge">
<title>CamelRestDSLParseCatalog&#45;&gt;ParseCatalog</title>
<path fill="none" stroke="black" stroke-dasharray="5,2" d="M2237.62,-704.41C2260.05,-679.52 2305.56,-633.95 2355,-613 2484.74,-558.01 2530.25,-595.06 2670,-577 2728.09,-569.49 2791.3,-560.62 2848.49,-552.33"/>
<polygon fill="black" stroke="black" points="2858.72,-550.85 2849.47,-556.74 2853.77,-551.57 2848.82,-552.28 2848.82,-552.28 2848.82,-552.28 2853.77,-551.57 2848.18,-547.83 2858.72,-550.85 2858.72,-550.85"/>
</g>
<!-- CamelRoute -->
<g id="node14" class="node">
<title>CamelRoute</title>
<polygon fill="none" stroke="black" points="3832,-711.5 3832,-732.5 3935,-732.5 3935,-711.5 3832,-711.5"/>
<text text-anchor="start" x="3835" y="-719.3" font-family="Times,serif" font-weight="bold" font-size="14.00">CamelRoute</text>
<polygon fill="none" stroke="black" points="3830.5,-711 3830.5,-734 3935.5,-734 3935.5,-711 3830.5,-711"/>
</g>
<!-- MetadataCatalog -->
<g id="node16" class="node">
<title>MetadataCatalog</title>
<polygon fill="none" stroke="black" points="1480,-215.5 1480,-236.5 1828,-236.5 1828,-215.5 1480,-215.5"/>
<text text-anchor="start" x="1586" y="-223.3" font-family="Times,serif" font-weight="bold" font-size="14.00">MetadataCatalog</text>
<polygon fill="none" stroke="black" points="1480,-125.5 1480,-215.5 1828,-215.5 1828,-125.5 1480,-125.5"/>
<text text-anchor="start" x="1622.5" y="-202.3" font-family="Times,serif" font-style="italic" font-size="14.00">Methods</text>
<text text-anchor="start" x="1483" y="-188.3" font-family="Times,serif" font-size="14.00">searchStepByID(&lt;String&gt; id):Metadata</text>
<text text-anchor="start" x="1483" y="-174.3" font-family="Times,serif" font-size="14.00">searchByName(&lt;String&gt; name):List[Metadata]</text>
<text text-anchor="start" x="1483" y="-160.3" font-family="Times,serif" font-size="14.00">store(&lt;List[Step]&gt; steps):boolean</text>
<text text-anchor="start" x="1483" y="-146.3" font-family="Times,serif" font-size="14.00">getAll():List[Metadata]</text>
<text text-anchor="start" x="1483" y="-132.3" font-family="Times,serif" font-size="14.00">clear():void</text>
<polygon fill="none" stroke="black" points="1479,-125 1479,-238 1829,-238 1829,-125 1479,-125"/>
</g>
<!-- AbstractCatalog&#45;&gt;MetadataCatalog -->
<g id="edge8" class="edge">
<title>AbstractCatalog&#45;&gt;MetadataCatalog</title>
<path fill="none" stroke="black" stroke-dasharray="5,2" d="M1472.13,-326.97C1502.43,-302.9 1538.66,-274.12 1570.78,-248.61"/>
<polygon fill="black" stroke="black" points="1578.85,-242.19 1573.82,-251.94 1574.94,-245.3 1571.02,-248.41 1571.02,-248.41 1571.02,-248.41 1574.94,-245.3 1568.22,-244.89 1578.85,-242.19 1578.85,-242.19"/>
</g>
<!-- Metadata -->
<g id="node22" class="node">
<title>Metadata</title>
<text text-anchor="middle" x="1654" y="-14.3" font-family="Times,serif" font-size="14.00">Metadata</text>
</g>
<!-- MetadataCatalog&#45;&gt;Metadata -->
<g id="edge13" class="edge">
<title>MetadataCatalog&#45;&gt;Metadata</title>
<path fill="none" stroke="black" stroke-dasharray="5,2" d="M1654,-120.82C1654,-95.23 1654,-66.6 1654,-46.24"/>
<polygon fill="black" stroke="black" points="1654,-36.12 1658.5,-46.12 1654,-41.12 1654,-46.12 1654,-46.12 1654,-46.12 1654,-41.12 1649.5,-46.12 1654,-36.12 1654,-36.12"/>
</g>
<!-- ViewDefinitionCatalog -->
<g id="node17" class="node">
<title>ViewDefinitionCatalog</title>
<polygon fill="none" stroke="black" points="1340,-512.5 1340,-533.5 1522,-533.5 1522,-512.5 1340,-512.5"/>
<text text-anchor="start" x="1343" y="-520.3" font-family="Times,serif" font-weight="bold" font-size="14.00">ViewDefinitionCatalog</text>
<polygon fill="none" stroke="black" points="1339,-512 1339,-535 1523,-535 1523,-512 1339,-512"/>
</g>
<!-- ViewDefinitionCatalog&#45;&gt;AbstractCatalog -->
<g id="edge10" class="edge">
<title>ViewDefinitionCatalog&#45;&gt;AbstractCatalog</title>
<path fill="none" stroke="black" d="M1427.98,-505.49C1425.26,-490.12 1421.07,-466.5 1417.08,-443.99"/>
<polygon fill="none" stroke="black" points="1420.52,-443.34 1415.33,-434.1 1413.63,-444.56 1420.52,-443.34"/>
</g>
<!-- KameletParseCatalog -->
<g id="node18" class="node">
<title>KameletParseCatalog</title>
<polygon fill="none" stroke="black" points="2374,-711.5 2374,-732.5 2551,-732.5 2551,-711.5 2374,-711.5"/>
<text text-anchor="start" x="2377" y="-719.3" font-family="Times,serif" font-weight="bold" font-size="14.00">KameletParseCatalog</text>
<polygon fill="none" stroke="black" points="2372.5,-711 2372.5,-734 2551.5,-734 2551.5,-711 2372.5,-711"/>
</g>
<!-- KameletParseCatalog&#45;&gt;StepCatalogParser -->
<g id="edge11" class="edge">
<title>KameletParseCatalog&#45;&gt;StepCatalogParser</title>
<path fill="none" stroke="black" d="M2461.83,-704.36C2461.56,-678.47 2461.05,-628.07 2460.64,-587.2"/>
<polygon fill="none" stroke="black" points="2464.13,-586.99 2460.53,-577.03 2457.14,-587.06 2464.13,-586.99"/>
</g>
<!-- KameletParseCatalog&#45;&gt;ParseCatalog -->
<g id="edge12" class="edge">
<title>KameletParseCatalog&#45;&gt;ParseCatalog</title>
<path fill="none" stroke="black" stroke-dasharray="5,2" d="M2473.58,-704.42C2491.16,-679.95 2526.99,-635.42 2569,-613 2617.25,-587.25 2741.02,-564.36 2848.74,-548.31"/>
<polygon fill="black" stroke="black" points="2858.78,-546.82 2849.54,-552.74 2853.83,-547.55 2848.88,-548.28 2848.88,-548.28 2848.88,-548.28 2853.83,-547.55 2848.23,-543.83 2858.78,-546.82 2858.78,-546.82"/>
</g>
<!-- Kamelet -->
<g id="node19" class="node">
<title>Kamelet</title>
<polygon fill="none" stroke="black" points="3971,-711.5 3971,-732.5 4044,-732.5 4044,-711.5 3971,-711.5"/>
<text text-anchor="start" x="3974" y="-719.3" font-family="Times,serif" font-weight="bold" font-size="14.00">Kamelet</text>
<polygon fill="none" stroke="black" points="3969.5,-711 3969.5,-734 4044.5,-734 4044.5,-711 3969.5,-711"/>
</g>
<!-- KameletBinding -->
<g id="node20" class="node">
<title>KameletBinding</title>
<polygon fill="none" stroke="black" points="4080,-711.5 4080,-732.5 4216,-732.5 4216,-711.5 4080,-711.5"/>
<text text-anchor="start" x="4083" y="-719.3" font-family="Times,serif" font-weight="bold" font-size="14.00">KameletBinding</text>
<polygon fill="none" stroke="black" points="4079,-711 4079,-734 4217,-734 4217,-711 4079,-711"/>
</g>
<!-- SimplifiedKamelet -->
<g id="node21" class="node">
<title>SimplifiedKamelet</title>
<polygon fill="none" stroke="black" points="4252,-711.5 4252,-732.5 4404,-732.5 4404,-711.5 4252,-711.5"/>
<text text-anchor="start" x="4255" y="-719.3" font-family="Times,serif" font-weight="bold" font-size="14.00">SimplifiedKamelet</text>
<polygon fill="none" stroke="black" points="4251,-711 4251,-734 4405,-734 4405,-711 4251,-711"/>
</g>
<!-- CatalogCollection -->
<g id="node23" class="node">
<title>CatalogCollection</title>
<polygon fill="none" stroke="black" points="1581,-369.5 1581,-390.5 1727,-390.5 1727,-369.5 1581,-369.5"/>
<text text-anchor="start" x="1584" y="-377.3" font-family="Times,serif" font-weight="bold" font-size="14.00">CatalogCollection</text>
<polygon fill="none" stroke="black" points="1580,-369 1580,-392 1728,-392 1728,-369 1580,-369"/>
</g>
<!-- CatalogCollection&#45;&gt;MetadataCatalog -->
<g id="edge14" class="edge">
<title>CatalogCollection&#45;&gt;MetadataCatalog</title>
<path fill="none" stroke="black" d="M1654,-362.36C1654,-337.99 1654,-291.9 1654,-252.48"/>
<polygon fill="none" stroke="black" points="1657.5,-252.36 1654,-242.36 1650.5,-252.36 1657.5,-252.36"/>
</g>
<!-- InMemoryCatalog -->
<g id="node24" class="node">
<title>InMemoryCatalog</title>
<polygon fill="none" stroke="black" points="1763,-369.5 1763,-390.5 1911,-390.5 1911,-369.5 1763,-369.5"/>
<text text-anchor="start" x="1766" y="-377.3" font-family="Times,serif" font-weight="bold" font-size="14.00">InMemoryCatalog</text>
<polygon fill="none" stroke="black" points="1762,-369 1762,-392 1912,-392 1912,-369 1762,-369"/>
</g>
<!-- InMemoryCatalog&#45;&gt;MetadataCatalog -->
<g id="edge15" class="edge">
<title>InMemoryCatalog&#45;&gt;MetadataCatalog</title>
<path fill="none" stroke="black" d="M1821.08,-362.36C1797.91,-337.42 1753.62,-289.74 1716.45,-249.73"/>
<polygon fill="none" stroke="black" points="1718.97,-247.3 1709.6,-242.36 1713.85,-252.07 1718.97,-247.3"/>
</g>
<!-- ReadOnlyCatalog -->
<g id="node25" class="node">
<title>ReadOnlyCatalog</title>
<polygon fill="none" stroke="black" points="1583,-512.5 1583,-533.5 1725,-533.5 1725,-512.5 1583,-512.5"/>
<text text-anchor="start" x="1586" y="-520.3" font-family="Times,serif" font-weight="bold" font-size="14.00">ReadOnlyCatalog</text>
<polygon fill="none" stroke="black" points="1582,-512 1582,-535 1726,-535 1726,-512 1582,-512"/>
</g>
<!-- ReadOnlyCatalog&#45;&gt;CatalogCollection -->
<g id="edge16" class="edge">
<title>ReadOnlyCatalog&#45;&gt;CatalogCollection</title>
<path fill="none" stroke="black" d="M1654,-505.49C1654,-481.46 1654,-437.31 1654,-408.7"/>
<polygon fill="none" stroke="black" points="1657.5,-408.57 1654,-398.57 1650.5,-408.57 1657.5,-408.57"/>
</g>
<!-- ClusterParseCatalog -->
<g id="node26" class="node">
<title>ClusterParseCatalog</title>
<polygon fill="none" stroke="black" points="2850,-711.5 2850,-732.5 3019,-732.5 3019,-711.5 2850,-711.5"/>
<text text-anchor="start" x="2853" y="-719.3" font-family="Times,serif" font-weight="bold" font-size="14.00">ClusterParseCatalog</text>
<polygon fill="none" stroke="black" points="2848.5,-711 2848.5,-734 3019.5,-734 3019.5,-711 2848.5,-711"/>
</g>
<!-- ClusterParseCatalog&#45;&gt;ParseCatalog -->
<g id="edge17" class="edge">
<title>ClusterParseCatalog&#45;&gt;ParseCatalog</title>
<path fill="none" stroke="black" d="M2942.7,-704.36C2957.49,-675.23 2988.02,-615.08 3009.7,-572.37"/>
<polygon fill="none" stroke="black" points="3012.92,-573.77 3014.32,-563.26 3006.68,-570.6 3012.92,-573.77"/>
</g>
<!-- EmptyParseCatalog -->
<g id="node27" class="node">
<title>EmptyParseCatalog</title>
<polygon fill="none" stroke="black" points="3055,-711.5 3055,-732.5 3216,-732.5 3216,-711.5 3055,-711.5"/>
<text text-anchor="start" x="3058" y="-719.3" font-family="Times,serif" font-weight="bold" font-size="14.00">EmptyParseCatalog</text>
<polygon fill="none" stroke="black" points="3053.5,-711 3053.5,-734 3216.5,-734 3216.5,-711 3053.5,-711"/>
</g>
<!-- EmptyParseCatalog&#45;&gt;ParseCatalog -->
<g id="edge18" class="edge">
<title>EmptyParseCatalog&#45;&gt;ParseCatalog</title>
<path fill="none" stroke="black" d="M3126.21,-704.36C3111.28,-675.23 3080.44,-615.08 3058.54,-572.37"/>
<polygon fill="none" stroke="black" points="3061.55,-570.57 3053.87,-563.26 3055.32,-573.76 3061.55,-570.57"/>
</g>
<!-- GitParseCatalog -->
<g id="node28" class="node">
<title>GitParseCatalog</title>
<polygon fill="none" stroke="black" points="3661,-711.5 3661,-732.5 3796,-732.5 3796,-711.5 3661,-711.5"/>
<text text-anchor="start" x="3664" y="-719.3" font-family="Times,serif" font-weight="bold" font-size="14.00">GitParseCatalog</text>
<polygon fill="none" stroke="black" points="3659.5,-711 3659.5,-734 3796.5,-734 3796.5,-711 3659.5,-711"/>
</g>
<!-- GitParseCatalog&#45;&gt;ParseCatalog -->
<g id="edge19" class="edge">
<title>GitParseCatalog&#45;&gt;ParseCatalog</title>
<path fill="none" stroke="black" d="M3719.67,-704.2C3706.78,-679.46 3679.49,-634.59 3642,-613 3571.86,-572.6 3371.21,-549 3219.43,-536.48"/>
<polygon fill="none" stroke="black" points="3219.3,-532.95 3209.05,-535.63 3218.73,-539.93 3219.3,-532.95"/>
</g>
<!-- YamlProcessFile -->
<g id="node29" class="node">
<title>YamlProcessFile</title>
<text text-anchor="middle" x="3728" y="-519.8" font-family="Times,serif" font-size="14.00">YamlProcessFile</text>
</g>
<!-- GitParseCatalog&#45;&gt;YamlProcessFile -->
<g id="edge20" class="edge">
<title>GitParseCatalog&#45;&gt;YamlProcessFile</title>
<path fill="none" stroke="black" stroke-dasharray="5,2" d="M3728,-704.36C3728,-670.16 3728,-593.19 3728,-551.9"/>
<polygon fill="black" stroke="black" points="3728,-541.74 3732.5,-551.74 3728,-546.74 3728,-551.74 3728,-551.74 3728,-551.74 3728,-546.74 3723.5,-551.74 3728,-541.74 3728,-541.74"/>
</g>
<!-- JarParseCatalog -->
<g id="node30" class="node">
<title>JarParseCatalog</title>
<polygon fill="none" stroke="black" points="3252,-711.5 3252,-732.5 3386,-732.5 3386,-711.5 3252,-711.5"/>
<text text-anchor="start" x="3255" y="-719.3" font-family="Times,serif" font-weight="bold" font-size="14.00">JarParseCatalog</text>
<polygon fill="none" stroke="black" points="3251,-711 3251,-734 3387,-734 3387,-711 3251,-711"/>
</g>
<!-- JarParseCatalog&#45;&gt;ParseCatalog -->
<g id="edge21" class="edge">
<title>JarParseCatalog&#45;&gt;ParseCatalog</title>
<path fill="none" stroke="black" d="M3309.26,-704.31C3295.26,-680.92 3267.42,-639.02 3234,-613 3210.78,-594.93 3183.29,-579.69 3156.25,-567.22"/>
<polygon fill="none" stroke="black" points="3157.66,-564.02 3147.1,-563.1 3154.78,-570.4 3157.66,-564.02"/>
</g>
<!-- LocalFolderParseCatalog -->
<g id="node31" class="node">
<title>LocalFolderParseCatalog</title>
<polygon fill="none" stroke="black" points="3422,-711.5 3422,-732.5 3624,-732.5 3624,-711.5 3422,-711.5"/>
<text text-anchor="start" x="3425" y="-719.3" font-family="Times,serif" font-weight="bold" font-size="14.00">LocalFolderParseCatalog</text>
<polygon fill="none" stroke="black" points="3421,-711 3421,-734 3625,-734 3625,-711 3421,-711"/>
</g>
<!-- LocalFolderParseCatalog&#45;&gt;ParseCatalog -->
<g id="edge22" class="edge">
<title>LocalFolderParseCatalog&#45;&gt;ParseCatalog</title>
<path fill="none" stroke="black" d="M3509.18,-704.31C3488.78,-680.14 3448.23,-636.42 3404,-613 3347.21,-582.93 3280.14,-562.93 3218.81,-549.69"/>
<polygon fill="none" stroke="black" points="3219.53,-546.27 3209.02,-547.62 3218.08,-553.11 3219.53,-546.27"/>
</g>
<!-- ProcessFile -->
<g id="node32" class="node">
<title>ProcessFile</title>
<polygon fill="none" stroke="black" points="4441,-711.5 4441,-732.5 4538,-732.5 4538,-711.5 4441,-711.5"/>
<text text-anchor="start" x="4444" y="-719.3" font-family="Times,serif" font-weight="bold" font-size="14.00">ProcessFile</text>
<polygon fill="none" stroke="black" points="4439.5,-711 4439.5,-734 4538.5,-734 4538.5,-711 4439.5,-711"/>
</g>
<!-- ViewDefinitionParseCatalog -->
<g id="node33" class="node">
<title>ViewDefinitionParseCatalog</title>
<polygon fill="none" stroke="black" points="2587,-711.5 2587,-732.5 2813,-732.5 2813,-711.5 2587,-711.5"/>
<text text-anchor="start" x="2590" y="-719.3" font-family="Times,serif" font-weight="bold" font-size="14.00">ViewDefinitionParseCatalog</text>
<polygon fill="none" stroke="black" points="2586,-711 2586,-734 2814,-734 2814,-711 2586,-711"/>
</g>
<!-- ViewDefinitionParseCatalog&#45;&gt;ParseCatalog -->
<g id="edge23" class="edge">
<title>ViewDefinitionParseCatalog&#45;&gt;ParseCatalog</title>
<path fill="none" stroke="black" stroke-dasharray="5,2" d="M2717.58,-704.34C2741.8,-681.35 2787.5,-640.31 2832,-613 2860.02,-595.8 2891.97,-580.19 2922.06,-567.02"/>
<polygon fill="black" stroke="black" points="2931.33,-563.02 2923.94,-571.11 2926.74,-565 2922.15,-566.98 2922.15,-566.98 2922.15,-566.98 2926.74,-565 2920.37,-562.85 2931.33,-563.02 2931.33,-563.02"/>
</g>
<!-- Parameter -->
<g id="node34" class="node">
<title>Parameter</title>
<polygon fill="none" stroke="black" points="4574,-805.5 4574,-826.5 4734,-826.5 4734,-805.5 4574,-805.5"/>
<text text-anchor="start" x="4612" y="-813.3" font-family="Times,serif" font-weight="bold" font-size="14.00">Parameter</text>
<polygon fill="none" stroke="black" points="4574,-617.5 4574,-805.5 4734,-805.5 4734,-617.5 4574,-617.5"/>
<text text-anchor="start" x="4616" y="-792.3" font-family="Times,serif" font-style="italic" font-size="14.00">Properties</text>
<text text-anchor="start" x="4577" y="-778.3" font-family="Times,serif" font-size="14.00">description:String</text>
<text text-anchor="start" x="4577" y="-764.3" font-family="Times,serif" font-size="14.00">title:String</text>
<text text-anchor="start" x="4577" y="-750.3" font-family="Times,serif" font-size="14.00">id:String</text>
<text text-anchor="start" x="4577" y="-736.3" font-family="Times,serif" font-size="14.00">value:Object</text>
<text text-anchor="start" x="4577" y="-722.3" font-family="Times,serif" font-size="14.00">default:Object</text>
<text text-anchor="start" x="4577" y="-708.3" font-family="Times,serif" font-size="14.00">type:String</text>
<text text-anchor="start" x="4577" y="-694.3" font-family="Times,serif" font-size="14.00">path:Boolean</text>
<text text-anchor="start" x="4577" y="-680.3" font-family="Times,serif" font-size="14.00">nullable:Boolean</text>
<text text-anchor="start" x="4577" y="-666.3" font-family="Times,serif" font-size="14.00">enum:Object[]</text>
<text text-anchor="start" x="4577" y="-652.3" font-family="Times,serif" font-size="14.00">examples:Object[]</text>
<text text-anchor="start" x="4577" y="-638.3" font-family="Times,serif" font-size="14.00">pathOrder:Integer</text>
<text text-anchor="start" x="4577" y="-624.3" font-family="Times,serif" font-size="14.00">pathSeparator:String</text>
<polygon fill="none" stroke="black" points="4573,-617 4573,-828 4735,-828 4735,-617 4573,-617"/>
</g>
<!-- Step -->
<g id="node35" class="node">
<title>Step</title>
<polygon fill="none" stroke="black" points="1088,-264.5 1088,-285.5 1294,-285.5 1294,-264.5 1088,-264.5"/>
<text text-anchor="start" x="1173" y="-272.3" font-family="Times,serif" font-weight="bold" font-size="14.00">Step</text>
<polygon fill="none" stroke="black" points="1088,-76.5 1088,-264.5 1294,-264.5 1294,-76.5 1088,-76.5"/>
<text text-anchor="start" x="1153" y="-251.3" font-family="Times,serif" font-style="italic" font-size="14.00">Properties</text>
<text text-anchor="start" x="1091" y="-237.3" font-family="Times,serif" font-size="14.00">description:String</text>
<text text-anchor="start" x="1091" y="-223.3" font-family="Times,serif" font-size="14.00">title:String</text>
<text text-anchor="start" x="1091" y="-209.3" font-family="Times,serif" font-size="14.00">parameters:List[Parameter]</text>
<text text-anchor="start" x="1091" y="-195.3" font-family="Times,serif" font-size="14.00">icon:String</text>
<text text-anchor="start" x="1091" y="-181.3" font-family="Times,serif" font-size="14.00">UUID:String</text>
<text text-anchor="start" x="1091" y="-167.3" font-family="Times,serif" font-size="14.00">required:String[]</text>
<text text-anchor="start" x="1091" y="-153.3" font-family="Times,serif" font-size="14.00">group:String</text>
<text text-anchor="start" x="1091" y="-139.3" font-family="Times,serif" font-size="14.00">kind:String</text>
<text text-anchor="start" x="1091" y="-125.3" font-family="Times,serif" font-size="14.00">branches:Branch[]</text>
<text text-anchor="start" x="1091" y="-111.3" font-family="Times,serif" font-size="14.00">minBranches:Integer</text>
<text text-anchor="start" x="1091" y="-97.3" font-family="Times,serif" font-size="14.00">maxBranches:Integer</text>
<text text-anchor="start" x="1091" y="-83.3" font-family="Times,serif" font-size="14.00">id:String</text>
<polygon fill="none" stroke="black" points="1087,-76 1087,-287 1295,-287 1295,-76 1087,-76"/>
</g>
<!-- Step&#45;&gt;Metadata -->
<g id="edge24" class="edge">
<title>Step&#45;&gt;Metadata</title>
<path fill="none" stroke="black" d="M1303.02,-132.39C1351.45,-112.44 1409.05,-89.85 1462,-72 1508.47,-56.34 1562.38,-41.76 1601.23,-31.88"/>
<polygon fill="none" stroke="black" points="1602.42,-35.18 1611.26,-29.34 1600.71,-28.4 1602.42,-35.18"/>
</g>
<!-- ViewDefinition -->
<g id="node36" class="node">
<title>ViewDefinition</title>
<polygon fill="none" stroke="black" points="1883,-208.5 1883,-229.5 2192,-229.5 2192,-208.5 1883,-208.5"/>
<text text-anchor="start" x="1979.5" y="-216.3" font-family="Times,serif" font-weight="bold" font-size="14.00">ViewDefinition</text>
<polygon fill="none" stroke="black" points="1883,-132.5 1883,-208.5 2192,-208.5 2192,-132.5 1883,-132.5"/>
<text text-anchor="start" x="1999.5" y="-195.3" font-family="Times,serif" font-style="italic" font-size="14.00">Properties</text>
<text text-anchor="start" x="1886" y="-181.3" font-family="Times,serif" font-size="14.00">properties:Map[String, String]</text>
<text text-anchor="start" x="1886" y="-167.3" font-family="Times,serif" font-size="14.00">step:Step</text>
<text text-anchor="start" x="1886" y="-153.3" font-family="Times,serif" font-size="14.00">url:String</text>
<text text-anchor="start" x="1886" y="-139.3" font-family="Times,serif" font-size="14.00">constraints:List[ViewDefinitionConstraint]</text>
<polygon fill="none" stroke="black" points="1881.5,-132 1881.5,-231 2192.5,-231 2192.5,-132 1881.5,-132"/>
</g>
<!-- ViewDefinition&#45;&gt;Metadata -->
<g id="edge25" class="edge">
<title>ViewDefinition&#45;&gt;Metadata</title>
<path fill="none" stroke="black" d="M1954.65,-127.79C1921.77,-108.34 1882.99,-87.33 1846,-72 1800.3,-53.06 1745.73,-38.74 1706.46,-29.79"/>
<polygon fill="none" stroke="black" points="1707.1,-26.34 1696.57,-27.57 1705.57,-33.17 1707.1,-26.34"/>
</g>
<!-- ViewDefinitionConstraint -->
<g id="node37" class="node">
<title>ViewDefinitionConstraint</title>
<text text-anchor="middle" x="2037" y="-376.8" font-family="Times,serif" font-size="14.00">ViewDefinitionConstraint</text>
</g>
<!-- ViewDefinitionConstraint&#45;&gt;ViewDefinition -->
<g id="edge26" class="edge">
<title>ViewDefinitionConstraint&#45;&gt;ViewDefinition</title>
<path fill="none" stroke="black" d="M2037,-362.36C2037,-336.91 2037,-287.77 2037,-247.28"/>
<polygon fill="black" stroke="black" points="2037,-247.03 2033,-241.03 2037,-235.03 2041,-241.03 2037,-247.03"/>
<text text-anchor="middle" x="2023" y="-351.16" font-family="Times,serif" font-size="14.00">0..n</text>
</g>
<!-- DSLSpecification -->
<g id="node38" class="node">
<title>DSLSpecification</title>
<polygon fill="none" stroke="black" points="4771,-770.5 4771,-791.5 5330,-791.5 5330,-770.5 4771,-770.5"/>
<text text-anchor="start" x="4984" y="-778.3" font-family="Times,serif" font-weight="bold" font-size="14.00">DSLSpecification</text>
<polygon fill="none" stroke="black" points="4771,-652.5 4771,-770.5 5330,-770.5 5330,-652.5 4771,-652.5"/>
<text text-anchor="start" x="5019" y="-757.3" font-family="Times,serif" font-style="italic" font-size="14.00">Methods</text>
<text text-anchor="start" x="4774" y="-743.3" font-family="Times,serif" font-size="14.00">identifier():String</text>
<text text-anchor="start" x="4774" y="-729.3" font-family="Times,serif" font-size="14.00">description():String</text>
<text text-anchor="start" x="4774" y="-715.3" font-family="Times,serif" font-size="14.00">isDeployable():boolean</text>
<text text-anchor="start" x="4774" y="-701.3" font-family="Times,serif" font-size="14.00">getKinds():String[]</text>
<text text-anchor="start" x="4774" y="-687.3" font-family="Times,serif" font-size="14.00">appliesTo(&lt;List[Step]&gt; steps, &lt;ParseResult&gt; flows, &lt;String&gt; yaml):boolean</text>
<text text-anchor="start" x="4774" y="-673.3" font-family="Times,serif" font-size="14.00">getDeploymentGeneratorService():DeploymentGeneratorService</text>
<text text-anchor="start" x="4774" y="-659.3" font-family="Times,serif" font-size="14.00">getStepParserService():StepParserService</text>
<polygon fill="none" stroke="black" points="4769.5,-652 4769.5,-793 5330.5,-793 5330.5,-652 4769.5,-652"/>
</g>
<!-- StepParserService -->
<g id="node39" class="node">
<title>StepParserService</title>
<polygon fill="none" stroke="black" points="851,-400.5 851,-421.5 1231,-421.5 1231,-400.5 851,-400.5"/>
<text text-anchor="start" x="968.5" y="-408.3" font-family="Times,serif" font-weight="bold" font-size="14.00">StepParserService</text>
<polygon fill="none" stroke="black" points="851,-338.5 851,-400.5 1231,-400.5 1231,-338.5 851,-338.5"/>
<text text-anchor="start" x="1009.5" y="-387.3" font-family="Times,serif" font-style="italic" font-size="14.00">Methods</text>
<text text-anchor="start" x="854" y="-373.3" font-family="Times,serif" font-size="14.00">parse(&lt;String&gt; yaml):ParseResult</text>
<text text-anchor="start" x="854" y="-359.3" font-family="Times,serif" font-size="14.00">getParsedFlows(&lt;String&gt; yaml):List&lt;ParseResult&gt;</text>
<text text-anchor="start" x="854" y="-345.3" font-family="Times,serif" font-size="14.00">appliesTo(&lt;String&gt; yaml):boolean</text>
<polygon fill="none" stroke="black" points="850,-338 850,-423 1232,-423 1232,-338 850,-338"/>
</g>
<!-- StepParserService&#45;&gt;Step -->
<g id="edge27" class="edge">
<title>StepParserService&#45;&gt;Step</title>
<path fill="none" stroke="black" stroke-dasharray="5,2" d="M1075.79,-333.81C1083.88,-323.18 1092.86,-311.39 1102.14,-299.21"/>
<polygon fill="black" stroke="black" points="1108.27,-291.16 1105.79,-301.84 1105.24,-295.13 1102.21,-299.11 1102.21,-299.11 1102.21,-299.11 1105.24,-295.13 1098.63,-296.39 1108.27,-291.16 1108.27,-291.16"/>
</g>
<!-- ViewDefinitionParserService -->
<g id="node40" class="node">
<title>ViewDefinitionParserService</title>
<polygon fill="none" stroke="black" points="2163,-407.5 2163,-428.5 2761,-428.5 2761,-407.5 2163,-407.5"/>
<text text-anchor="start" x="2349.5" y="-415.3" font-family="Times,serif" font-weight="bold" font-size="14.00">ViewDefinitionParserService</text>
<polygon fill="none" stroke="black" points="2163,-331.5 2163,-407.5 2761,-407.5 2761,-331.5 2163,-331.5"/>
<text text-anchor="start" x="2430.5" y="-394.3" font-family="Times,serif" font-style="italic" font-size="14.00">Methods</text>
<text text-anchor="start" x="2166" y="-380.3" font-family="Times,serif" font-size="14.00">parse(&lt;List[Step]&gt; steps):List[ViewDefinition]</text>
<text text-anchor="start" x="2166" y="-366.3" font-family="Times,serif" font-size="14.00">getViewsPerStep(&lt;List[Step]&gt; steps, &lt;ViewDefinition&gt; view):List[ViewDefinition]</text>
<text text-anchor="start" x="2166" y="-352.3" font-family="Times,serif" font-size="14.00">appliesTo(&lt;List[Step]&gt; steps, &lt;ViewDefinition&gt; viewDefinition):boolean</text>
<text text-anchor="start" x="2166" y="-338.3" font-family="Times,serif" font-size="14.00">appliesToStep(&lt;Step&gt; steps, &lt;ViewDefinition&gt; viewDefinition):boolean</text>
<polygon fill="none" stroke="black" points="2162,-331 2162,-430 2762,-430 2762,-331 2162,-331"/>
</g>
<!-- ViewDefinitionParserService&#45;&gt;ViewDefinition -->
<g id="edge28" class="edge">
<title>ViewDefinitionParserService&#45;&gt;ViewDefinition</title>
<path fill="none" stroke="black" stroke-dasharray="5,2" d="M2348.67,-326.97C2290.31,-299.92 2219.09,-266.91 2159.47,-239.27"/>
<polygon fill="black" stroke="black" points="2150.39,-235.06 2161.35,-235.18 2154.92,-237.16 2159.46,-239.26 2159.46,-239.26 2159.46,-239.26 2154.92,-237.16 2157.57,-243.35 2150.39,-235.06 2150.39,-235.06"/>
</g>
</g>
</svg>
