<?xml version="1.0" encoding="UTF-8" standalone="no"?>
<!DOCTYPE svg PUBLIC "-//W3C//DTD SVG 1.1//EN"
 "http://www.w3.org/Graphics/SVG/1.1/DTD/svg11.dtd">
<!-- Generated by graphviz version 2.43.0 (0)
 -->
<!-- Title: ClassDiagram Pages: 1 -->
<svg width="4447pt" height="715pt"
 viewBox="0.00 0.00 4447.00 715.00" xmlns="http://www.w3.org/2000/svg" xmlns:xlink="http://www.w3.org/1999/xlink">
<g id="graph0" class="graph" transform="scale(1 1) rotate(0) translate(4 711)">
<title>ClassDiagram</title>
<polygon fill="white" stroke="transparent" points="-4,4 -4,-711 4443,-711 4443,4 -4,4"/>
<!-- AbstractCatalog -->
<g id="node1" class="node">
<title>AbstractCatalog</title>
<polygon fill="none" stroke="black" points="1905,-359.5 1905,-380.5 2183,-380.5 2183,-359.5 1905,-359.5"/>
<text text-anchor="start" x="1980.5" y="-367.3" font-family="Times,serif" font-weight="bold" font-size="14.00">AbstractCatalog</text>
<polygon fill="none" stroke="black" points="1905,-311.5 1905,-359.5 2183,-359.5 2183,-311.5 1905,-311.5"/>
<text text-anchor="start" x="2012.5" y="-346.3" font-family="Times,serif" font-style="italic" font-size="14.00">Methods</text>
<text text-anchor="start" x="1908" y="-332.3" font-family="Times,serif" font-size="14.00">waitForWarmUp():CompletableFuture</text>
<text text-anchor="start" x="1908" y="-318.3" font-family="Times,serif" font-size="14.00">loadParsers():List[ParseCatalog]</text>
<polygon fill="none" stroke="black" points="1904,-311 1904,-382 2184,-382 2184,-311 1904,-311"/>
</g>
<!-- MetadataCatalog -->
<g id="node2" class="node">
<title>MetadataCatalog</title>
<polygon fill="none" stroke="black" points="1532,-216.5 1532,-237.5 1875,-237.5 1875,-216.5 1532,-216.5"/>
<text text-anchor="start" x="1635.5" y="-224.3" font-family="Times,serif" font-weight="bold" font-size="14.00">MetadataCatalog</text>
<polygon fill="none" stroke="black" points="1532,-140.5 1532,-216.5 1875,-216.5 1875,-140.5 1532,-140.5"/>
<text text-anchor="start" x="1672" y="-203.3" font-family="Times,serif" font-style="italic" font-size="14.00">Methods</text>
<text text-anchor="start" x="1535" y="-189.3" font-family="Times,serif" font-size="14.00">searchStepByID(&lt;String&gt; id):Metadata</text>
<text text-anchor="start" x="1535" y="-175.3" font-family="Times,serif" font-size="14.00">searchStepByName(&lt;String&gt; name):Metadata</text>
<text text-anchor="start" x="1535" y="-161.3" font-family="Times,serif" font-size="14.00">store(&lt;List[Step]&gt; steps):boolean</text>
<text text-anchor="start" x="1535" y="-147.3" font-family="Times,serif" font-size="14.00">getAll():List[Metadata]</text>
<polygon fill="none" stroke="black" points="1530.5,-140 1530.5,-239 1875.5,-239 1875.5,-140 1530.5,-140"/>
</g>
<!-- AbstractCatalog&#45;&gt;MetadataCatalog -->
<g id="edge1" class="edge">
<title>AbstractCatalog&#45;&gt;MetadataCatalog</title>
<path fill="none" stroke="black" stroke-dasharray="5,2" d="M1959.27,-306.99C1919.59,-288.95 1871.52,-267.1 1827.78,-247.22"/>
<polygon fill="black" stroke="black" points="1818.52,-243.01 1829.49,-243.05 1823.07,-245.08 1827.63,-247.15 1827.63,-247.15 1827.63,-247.15 1823.07,-245.08 1825.76,-251.25 1818.52,-243.01 1818.52,-243.01"/>
</g>
<!-- Metadata -->
<g id="node15" class="node">
<title>Metadata</title>
<polygon fill="none" stroke="black" points="1199,-66.5 1199,-87.5 1294,-87.5 1294,-66.5 1199,-66.5"/>
<text text-anchor="start" x="1208.5" y="-74.3" font-family="Times,serif" font-weight="bold" font-size="14.00">Metadata</text>
<polygon fill="none" stroke="black" points="1199,-4.5 1199,-66.5 1294,-66.5 1294,-4.5 1199,-4.5"/>
<text text-anchor="start" x="1208.5" y="-53.3" font-family="Times,serif" font-style="italic" font-size="14.00">Properties</text>
<text text-anchor="start" x="1202" y="-39.3" font-family="Times,serif" font-size="14.00">ID:String</text>
<text text-anchor="start" x="1202" y="-25.3" font-family="Times,serif" font-size="14.00">name:String</text>
<text text-anchor="start" x="1202" y="-11.3" font-family="Times,serif" font-size="14.00">type:String</text>
<polygon fill="none" stroke="black" points="1197.5,-4 1197.5,-89 1294.5,-89 1294.5,-4 1197.5,-4"/>
</g>
<!-- MetadataCatalog&#45;&gt;Metadata -->
<g id="edge12" class="edge">
<title>MetadataCatalog&#45;&gt;Metadata</title>
<path fill="none" stroke="black" stroke-dasharray="5,2" d="M1532.83,-136C1456.18,-112.35 1370.15,-85.81 1312.48,-68.01"/>
<polygon fill="black" stroke="black" points="1302.76,-65.01 1313.65,-63.66 1307.54,-66.49 1312.32,-67.96 1312.32,-67.96 1312.32,-67.96 1307.54,-66.49 1310.99,-72.26 1302.76,-65.01 1302.76,-65.01"/>
</g>
<!-- StepCatalog -->
<g id="node3" class="node">
<title>StepCatalog</title>
<polygon fill="none" stroke="black" points="1904,-499.5 1904,-520.5 2006,-520.5 2006,-499.5 1904,-499.5"/>
<text text-anchor="start" x="1907" y="-507.3" font-family="Times,serif" font-weight="bold" font-size="14.00">StepCatalog</text>
<polygon fill="none" stroke="black" points="1903,-499 1903,-522 2007,-522 2007,-499 1903,-499"/>
</g>
<!-- StepCatalog&#45;&gt;AbstractCatalog -->
<g id="edge2" class="edge">
<title>StepCatalog&#45;&gt;AbstractCatalog</title>
<path fill="none" stroke="black" d="M1964.36,-492.47C1976.92,-469.6 1999.75,-428.05 2017.75,-395.28"/>
<polygon fill="none" stroke="black" points="2020.94,-396.74 2022.69,-386.29 2014.81,-393.37 2020.94,-396.74"/>
</g>
<!-- ViewDefinitionCatalog -->
<g id="node4" class="node">
<title>ViewDefinitionCatalog</title>
<polygon fill="none" stroke="black" points="2042,-499.5 2042,-520.5 2224,-520.5 2224,-499.5 2042,-499.5"/>
<text text-anchor="start" x="2045" y="-507.3" font-family="Times,serif" font-weight="bold" font-size="14.00">ViewDefinitionCatalog</text>
<polygon fill="none" stroke="black" points="2041,-499 2041,-522 2225,-522 2225,-499 2041,-499"/>
</g>
<!-- ViewDefinitionCatalog&#45;&gt;AbstractCatalog -->
<g id="edge3" class="edge">
<title>ViewDefinitionCatalog&#45;&gt;AbstractCatalog</title>
<path fill="none" stroke="black" d="M2123.64,-492.47C2111.08,-469.6 2088.25,-428.05 2070.25,-395.28"/>
<polygon fill="none" stroke="black" points="2073.19,-393.37 2065.31,-386.29 2067.06,-396.74 2073.19,-393.37"/>
</g>
<!-- DeploymentResource -->
<g id="node5" class="node">
<title>DeploymentResource</title>
<polygon fill="none" stroke="black" points="2261,-516.5 2261,-537.5 2674,-537.5 2674,-516.5 2261,-516.5"/>
<text text-anchor="start" x="2383" y="-524.3" font-family="Times,serif" font-weight="bold" font-size="14.00">DeploymentResource</text>
<polygon fill="none" stroke="black" points="2261,-482.5 2261,-516.5 2674,-516.5 2674,-482.5 2261,-482.5"/>
<text text-anchor="start" x="2436" y="-503.3" font-family="Times,serif" font-style="italic" font-size="14.00">Methods</text>
<text text-anchor="start" x="2264" y="-489.3" font-family="Times,serif" font-size="14.00">yaml(&lt;DeploymentResourceYamlRequest&gt; steps):String</text>
<polygon fill="none" stroke="black" points="2259.5,-482 2259.5,-539 2674.5,-539 2674.5,-482 2259.5,-482"/>
</g>
<!-- DeploymentService -->
<g id="node6" class="node">
<title>DeploymentService</title>
<polygon fill="none" stroke="black" points="2287,-666.5 2287,-687.5 2647,-687.5 2647,-666.5 2287,-666.5"/>
<text text-anchor="start" x="2391" y="-674.3" font-family="Times,serif" font-weight="bold" font-size="14.00">DeploymentService</text>
<polygon fill="none" stroke="black" points="2287,-632.5 2287,-666.5 2647,-666.5 2647,-632.5 2287,-632.5"/>
<text text-anchor="start" x="2435.5" y="-653.3" font-family="Times,serif" font-style="italic" font-size="14.00">Methods</text>
<text text-anchor="start" x="2290" y="-639.3" font-family="Times,serif" font-size="14.00">yaml(&lt;List[Step]&gt; steps, &lt;String&gt; name):String</text>
<polygon fill="none" stroke="black" points="2286,-632 2286,-689 2648,-689 2648,-632 2286,-632"/>
</g>
<!-- DeploymentService&#45;&gt;DeploymentResource -->
<g id="edge4" class="edge">
<title>DeploymentService&#45;&gt;DeploymentResource</title>
<path fill="none" stroke="black" d="M2467,-627.75C2467,-606.58 2467,-578.48 2467,-555.21"/>
<polygon fill="black" stroke="black" points="2467,-555.2 2463,-549.2 2467,-543.2 2471,-549.2 2467,-555.2"/>
<text text-anchor="middle" x="2453" y="-616.55" font-family="Times,serif" font-size="14.00">0..1</text>
</g>
<!-- StepResource -->
<g id="node7" class="node">
<title>StepResource</title>
<polygon fill="none" stroke="black" points="1803,-680.5 1803,-701.5 2107,-701.5 2107,-680.5 1803,-680.5"/>
<text text-anchor="start" x="1900.5" y="-688.3" font-family="Times,serif" font-weight="bold" font-size="14.00">StepResource</text>
<polygon fill="none" stroke="black" points="1803,-618.5 1803,-680.5 2107,-680.5 2107,-618.5 1803,-618.5"/>
<text text-anchor="start" x="1923.5" y="-667.3" font-family="Times,serif" font-style="italic" font-size="14.00">Methods</text>
<text text-anchor="start" x="1806" y="-653.3" font-family="Times,serif" font-size="14.00">stepById(&lt;String&gt; id):Step</text>
<text text-anchor="start" x="1806" y="-639.3" font-family="Times,serif" font-size="14.00">stepsByName(&lt;String&gt; name):List[Step]</text>
<text text-anchor="start" x="1806" y="-625.3" font-family="Times,serif" font-size="14.00">allSteps():List[Step]</text>
<polygon fill="none" stroke="black" points="1802,-618 1802,-703 2108,-703 2108,-618 1802,-618"/>
</g>
<!-- StepResource&#45;&gt;StepCatalog -->
<g id="edge5" class="edge">
<title>StepResource&#45;&gt;StepCatalog</title>
<path fill="none" stroke="black" stroke-dasharray="5,2" d="M1955,-613.89C1955,-589.3 1955,-559.78 1955,-538.76"/>
<polygon fill="black" stroke="black" points="1955,-528.62 1959.5,-538.62 1955,-533.62 1955,-538.62 1955,-538.62 1955,-538.62 1955,-533.62 1950.5,-538.62 1955,-528.62 1955,-528.62"/>
</g>
<!-- ViewDefinitionResource -->
<g id="node8" class="node">
<title>ViewDefinitionResource</title>
<polygon fill="none" stroke="black" points="9,-352.5 9,-373.5 205,-373.5 205,-352.5 9,-352.5"/>
<text text-anchor="start" x="12" y="-360.3" font-family="Times,serif" font-weight="bold" font-size="14.00">ViewDefinitionResource</text>
<polygon fill="none" stroke="black" points="9,-318.5 9,-352.5 205,-352.5 205,-318.5 9,-318.5"/>
<text text-anchor="start" x="75.5" y="-339.3" font-family="Times,serif" font-style="italic" font-size="14.00">Methods</text>
<text text-anchor="start" x="22.5" y="-325.3" font-family="Times,serif" font-size="14.00">views:(&lt;String&gt; yaml):</text>
<polygon fill="none" stroke="black" points="8,-318 8,-375 206,-375 206,-318 8,-318"/>
</g>
<!-- ViewDefinitionService -->
<g id="node9" class="node">
<title>ViewDefinitionService</title>
<polygon fill="none" stroke="black" points="348,-516.5 348,-537.5 660,-537.5 660,-516.5 348,-516.5"/>
<text text-anchor="start" x="417.5" y="-524.3" font-family="Times,serif" font-weight="bold" font-size="14.00">ViewDefinitionService</text>
<polygon fill="none" stroke="black" points="348,-482.5 348,-516.5 660,-516.5 660,-482.5 348,-482.5"/>
<text text-anchor="start" x="472.5" y="-503.3" font-family="Times,serif" font-style="italic" font-size="14.00">Methods</text>
<text text-anchor="start" x="351" y="-489.3" font-family="Times,serif" font-size="14.00">views(&lt;String&gt; yaml):List[ViewDefinition]</text>
<polygon fill="none" stroke="black" points="347,-482 347,-539 661,-539 661,-482 347,-482"/>
</g>
<!-- ViewDefinitionService&#45;&gt;ViewDefinitionResource -->
<g id="edge6" class="edge">
<title>ViewDefinitionService&#45;&gt;ViewDefinitionResource</title>
<path fill="none" stroke="black" d="M408.54,-477.98C353.61,-459.03 283.67,-433.5 223,-407 207.56,-400.26 191.29,-392.4 175.99,-384.66"/>
<polygon fill="black" stroke="black" points="175.72,-384.52 168.55,-385.35 165.03,-379.05 172.2,-378.23 175.72,-384.52"/>
<text text-anchor="middle" x="394.54" y="-466.78" font-family="Times,serif" font-size="14.00">0..1</text>
</g>
<!-- ViewParserService -->
<g id="node11" class="node">
<title>ViewParserService</title>
<polygon fill="none" stroke="black" points="241,-359.5 241,-380.5 767,-380.5 767,-359.5 241,-359.5"/>
<text text-anchor="start" x="431" y="-367.3" font-family="Times,serif" font-weight="bold" font-size="14.00">ViewParserService</text>
<polygon fill="none" stroke="black" points="241,-311.5 241,-359.5 767,-359.5 767,-311.5 241,-311.5"/>
<text text-anchor="start" x="472.5" y="-346.3" font-family="Times,serif" font-style="italic" font-size="14.00">Methods</text>
<text text-anchor="start" x="244" y="-332.3" font-family="Times,serif" font-size="14.00">parse(&lt;String&gt; name, &lt;List[Step]&gt; steps):String</text>
<text text-anchor="start" x="244" y="-318.3" font-family="Times,serif" font-size="14.00">appliesTo(&lt;List[Step]&gt; steps, &lt;ViewDefinition&gt; viewDefinition):boolean</text>
<polygon fill="none" stroke="black" points="240,-311 240,-382 768,-382 768,-311 240,-311"/>
</g>
<!-- ViewDefinitionService&#45;&gt;ViewParserService -->
<g id="edge11" class="edge">
<title>ViewDefinitionService&#45;&gt;ViewParserService</title>
<path fill="none" stroke="black" stroke-dasharray="5,2" d="M504,-477.88C504,-454.71 504,-422.83 504,-396.39"/>
<polygon fill="black" stroke="black" points="504,-386.18 508.5,-396.18 504,-391.18 504,-396.18 504,-396.18 504,-396.18 504,-391.18 499.5,-396.18 504,-386.18 504,-386.18"/>
</g>
<!-- StepParserService -->
<g id="node13" class="node">
<title>StepParserService</title>
<polygon fill="none" stroke="black" points="1066,-359.5 1066,-380.5 1319,-380.5 1319,-359.5 1066,-359.5"/>
<text text-anchor="start" x="1120" y="-367.3" font-family="Times,serif" font-weight="bold" font-size="14.00">StepParserService</text>
<polygon fill="none" stroke="black" points="1066,-311.5 1066,-359.5 1319,-359.5 1319,-311.5 1066,-311.5"/>
<text text-anchor="start" x="1161" y="-346.3" font-family="Times,serif" font-style="italic" font-size="14.00">Methods</text>
<text text-anchor="start" x="1069" y="-332.3" font-family="Times,serif" font-size="14.00">parse(&lt;String&gt; yaml):List[Step]</text>
<text text-anchor="start" x="1069" y="-318.3" font-family="Times,serif" font-size="14.00">appliesTo(&lt;String&gt; yaml):boolean</text>
<polygon fill="none" stroke="black" points="1064.5,-311 1064.5,-382 1319.5,-382 1319.5,-311 1064.5,-311"/>
</g>
<!-- ViewDefinitionService&#45;&gt;StepParserService -->
<g id="edge10" class="edge">
<title>ViewDefinitionService&#45;&gt;StepParserService</title>
<path fill="none" stroke="black" stroke-dasharray="5,2" d="M669.12,-487.24C777.81,-470.42 922.48,-443.89 1047,-407 1063.25,-402.19 1080.17,-396.19 1096.48,-389.88"/>
<polygon fill="black" stroke="black" points="1106,-386.13 1098.35,-393.98 1101.35,-387.96 1096.7,-389.8 1096.7,-389.8 1096.7,-389.8 1101.35,-387.96 1095.05,-385.61 1106,-386.13 1106,-386.13"/>
</g>
<!-- DeploymentResourceYamlRequest -->
<g id="node10" class="node">
<title>DeploymentResourceYamlRequest</title>
<polygon fill="none" stroke="black" points="2683,-649.5 2683,-670.5 2961,-670.5 2961,-649.5 2683,-649.5"/>
<text text-anchor="start" x="2686" y="-657.3" font-family="Times,serif" font-weight="bold" font-size="14.00">DeploymentResourceYamlRequest</text>
<polygon fill="none" stroke="black" points="2682,-649 2682,-672 2962,-672 2962,-649 2682,-649"/>
</g>
<!-- ViewDefinition -->
<g id="node12" class="node">
<title>ViewDefinition</title>
<polygon fill="none" stroke="black" points="602,-209.5 602,-230.5 911,-230.5 911,-209.5 602,-209.5"/>
<text text-anchor="start" x="698.5" y="-217.3" font-family="Times,serif" font-weight="bold" font-size="14.00">ViewDefinition</text>
<polygon fill="none" stroke="black" points="602,-147.5 602,-209.5 911,-209.5 911,-147.5 602,-147.5"/>
<text text-anchor="start" x="718.5" y="-196.3" font-family="Times,serif" font-style="italic" font-size="14.00">Properties</text>
<text text-anchor="start" x="605" y="-182.3" font-family="Times,serif" font-size="14.00">steps:List[Step]</text>
<text text-anchor="start" x="605" y="-168.3" font-family="Times,serif" font-size="14.00">properties:Map[String, String]</text>
<text text-anchor="start" x="605" y="-154.3" font-family="Times,serif" font-size="14.00">constraints:List[ViewDefinitionConstraint]</text>
<polygon fill="none" stroke="black" points="600.5,-147 600.5,-232 911.5,-232 911.5,-147 600.5,-147"/>
</g>
<!-- ViewParserService&#45;&gt;ViewDefinition -->
<g id="edge7" class="edge">
<title>ViewParserService&#45;&gt;ViewDefinition</title>
<path fill="none" stroke="black" stroke-dasharray="5,2" d="M560.69,-306.99C591.89,-287.23 631.29,-262.91 666.52,-241.61"/>
<polygon fill="black" stroke="black" points="675.38,-236.26 669.15,-245.28 671.1,-238.84 666.82,-241.43 666.82,-241.43 666.82,-241.43 671.1,-238.84 664.5,-237.57 675.38,-236.26 675.38,-236.26"/>
</g>
<!-- ViewParserService&#45;&gt;ViewDefinition -->
<g id="edge8" class="edge">
<title>ViewParserService&#45;&gt;ViewDefinition</title>
<path fill="none" stroke="black" stroke-dasharray="5,2" d="M572.54,-306.99C605.57,-287.23 645.27,-262.91 679.3,-241.61"/>
<polygon fill="black" stroke="black" points="687.82,-236.26 681.74,-245.39 683.59,-238.92 679.35,-241.57 679.35,-241.57 679.35,-241.57 683.59,-238.92 676.96,-237.76 687.82,-236.26 687.82,-236.26"/>
</g>
<!-- ViewDefinition&#45;&gt;Metadata -->
<g id="edge23" class="edge">
<title>ViewDefinition&#45;&gt;Metadata</title>
<path fill="none" stroke="black" d="M914.41,-142.92C1004.22,-117.07 1111.85,-86.1 1179.59,-66.61"/>
<polygon fill="none" stroke="black" points="1180.65,-69.95 1189.29,-63.82 1178.71,-63.22 1180.65,-69.95"/>
</g>
<!-- Step -->
<g id="node14" class="node">
<title>Step</title>
<polygon fill="none" stroke="black" points="1143,-223.5 1143,-244.5 1349,-244.5 1349,-223.5 1143,-223.5"/>
<text text-anchor="start" x="1228" y="-231.3" font-family="Times,serif" font-weight="bold" font-size="14.00">Step</text>
<polygon fill="none" stroke="black" points="1143,-133.5 1143,-223.5 1349,-223.5 1349,-133.5 1143,-133.5"/>
<text text-anchor="start" x="1208" y="-210.3" font-family="Times,serif" font-style="italic" font-size="14.00">Properties</text>
<text text-anchor="start" x="1146" y="-196.3" font-family="Times,serif" font-size="14.00">subtype:String</text>
<text text-anchor="start" x="1146" y="-182.3" font-family="Times,serif" font-size="14.00">description:String</text>
<text text-anchor="start" x="1146" y="-168.3" font-family="Times,serif" font-size="14.00">title:String</text>
<text text-anchor="start" x="1146" y="-154.3" font-family="Times,serif" font-size="14.00">parameters:List[Parameter]</text>
<text text-anchor="start" x="1146" y="-140.3" font-family="Times,serif" font-size="14.00">icon:String</text>
<polygon fill="none" stroke="black" points="1142,-133 1142,-246 1350,-246 1350,-133 1142,-133"/>
</g>
<!-- StepParserService&#45;&gt;Step -->
<g id="edge9" class="edge">
<title>StepParserService&#45;&gt;Step</title>
<path fill="none" stroke="black" stroke-dasharray="5,2" d="M1205.49,-306.79C1210.47,-292.47 1216.29,-275.77 1221.94,-259.57"/>
<polygon fill="black" stroke="black" points="1225.23,-250.12 1226.19,-261.04 1223.59,-254.84 1221.94,-259.56 1221.94,-259.56 1221.94,-259.56 1223.59,-254.84 1217.69,-258.08 1225.23,-250.12 1225.23,-250.12"/>
</g>
<!-- Step&#45;&gt;Metadata -->
<g id="edge20" class="edge">
<title>Step&#45;&gt;Metadata</title>
<path fill="none" stroke="black" d="M1246,-128.7C1246,-120.27 1246,-111.63 1246,-103.28"/>
<polygon fill="none" stroke="black" points="1249.5,-103.27 1246,-93.27 1242.5,-103.27 1249.5,-103.27"/>
</g>
<!-- ParseCatalog -->
<g id="node16" class="node">
<title>ParseCatalog</title>
<polygon fill="none" stroke="black" points="3129,-352.5 3129,-373.5 3386,-373.5 3386,-352.5 3129,-352.5"/>
<text text-anchor="start" x="3205" y="-360.3" font-family="Times,serif" font-weight="bold" font-size="14.00">ParseCatalog</text>
<polygon fill="none" stroke="black" points="3129,-318.5 3129,-352.5 3386,-352.5 3386,-318.5 3129,-318.5"/>
<text text-anchor="start" x="3226" y="-339.3" font-family="Times,serif" font-style="italic" font-size="14.00">Methods</text>
<text text-anchor="start" x="3132" y="-325.3" font-family="Times,serif" font-size="14.00">parse():CompletableFuture[List[T]]</text>
<polygon fill="none" stroke="black" points="3127.5,-318 3127.5,-375 3386.5,-375 3386.5,-318 3127.5,-318"/>
</g>
<!-- CatalogCollection -->
<g id="node17" class="node">
<title>CatalogCollection</title>
<polygon fill="none" stroke="black" points="1539,-335.5 1539,-356.5 1685,-356.5 1685,-335.5 1539,-335.5"/>
<text text-anchor="start" x="1542" y="-343.3" font-family="Times,serif" font-weight="bold" font-size="14.00">CatalogCollection</text>
<polygon fill="none" stroke="black" points="1538,-335 1538,-358 1686,-358 1686,-335 1538,-335"/>
</g>
<!-- CatalogCollection&#45;&gt;MetadataCatalog -->
<g id="edge13" class="edge">
<title>CatalogCollection&#45;&gt;MetadataCatalog</title>
<path fill="none" stroke="black" d="M1622.09,-328.32C1632.9,-309.9 1650.7,-279.58 1666.86,-252.06"/>
<polygon fill="none" stroke="black" points="1669.99,-253.64 1672.03,-243.24 1663.95,-250.1 1669.99,-253.64"/>
</g>
<!-- InMemoryCatalog -->
<g id="node18" class="node">
<title>InMemoryCatalog</title>
<polygon fill="none" stroke="black" points="1721,-335.5 1721,-356.5 1869,-356.5 1869,-335.5 1721,-335.5"/>
<text text-anchor="start" x="1724" y="-343.3" font-family="Times,serif" font-weight="bold" font-size="14.00">InMemoryCatalog</text>
<polygon fill="none" stroke="black" points="1720,-335 1720,-358 1870,-358 1870,-335 1720,-335"/>
</g>
<!-- InMemoryCatalog&#45;&gt;MetadataCatalog -->
<g id="edge14" class="edge">
<title>InMemoryCatalog&#45;&gt;MetadataCatalog</title>
<path fill="none" stroke="black" d="M1784.8,-328.32C1773.87,-309.9 1755.87,-279.58 1739.54,-252.06"/>
<polygon fill="none" stroke="black" points="1742.42,-250.06 1734.31,-243.24 1736.4,-253.63 1742.42,-250.06"/>
</g>
<!-- ReadOnlyCatalog -->
<g id="node19" class="node">
<title>ReadOnlyCatalog</title>
<polygon fill="none" stroke="black" points="1541,-499.5 1541,-520.5 1683,-520.5 1683,-499.5 1541,-499.5"/>
<text text-anchor="start" x="1544" y="-507.3" font-family="Times,serif" font-weight="bold" font-size="14.00">ReadOnlyCatalog</text>
<polygon fill="none" stroke="black" points="1540,-499 1540,-522 1684,-522 1684,-499 1540,-499"/>
</g>
<!-- ReadOnlyCatalog&#45;&gt;CatalogCollection -->
<g id="edge15" class="edge">
<title>ReadOnlyCatalog&#45;&gt;CatalogCollection</title>
<path fill="none" stroke="black" d="M1612,-492.47C1612,-464.47 1612,-408.46 1612,-374.85"/>
<polygon fill="none" stroke="black" points="1615.5,-374.79 1612,-364.79 1608.5,-374.79 1615.5,-374.79"/>
</g>
<!-- GitParseCatalog -->
<g id="node20" class="node">
<title>GitParseCatalog</title>
<polygon fill="none" stroke="black" points="2856,-516.5 2856,-537.5 3658,-537.5 3658,-516.5 2856,-516.5"/>
<text text-anchor="start" x="3192.5" y="-524.3" font-family="Times,serif" font-weight="bold" font-size="14.00">GitParseCatalog</text>
<polygon fill="none" stroke="black" points="2856,-482.5 2856,-516.5 3658,-516.5 3658,-482.5 2856,-482.5"/>
<text text-anchor="start" x="3225.5" y="-503.3" font-family="Times,serif" font-style="italic" font-size="14.00">Methods</text>
<text text-anchor="start" x="2859" y="-489.3" font-family="Times,serif" font-size="14.00">getFileVisitor(&lt;List[Metadata]&gt; metadataList, &lt;List[CompletableFuture[]]&gt; futureMetadata):YamlProcessFile</text>
<polygon fill="none" stroke="black" points="2855,-482 2855,-539 3659,-539 3659,-482 2855,-482"/>
</g>
<!-- GitParseCatalog&#45;&gt;ParseCatalog -->
<g id="edge16" class="edge">
<title>GitParseCatalog&#45;&gt;ParseCatalog</title>
<path fill="none" stroke="black" d="M3257,-477.88C3257,-452.57 3257,-416.86 3257,-389.2"/>
<polygon fill="none" stroke="black" points="3260.5,-389.04 3257,-379.04 3253.5,-389.04 3260.5,-389.04"/>
</g>
<!-- YamlProcessFile -->
<g id="node21" class="node">
<title>YamlProcessFile</title>
<polygon fill="none" stroke="black" points="2998,-649.5 2998,-670.5 3133,-670.5 3133,-649.5 2998,-649.5"/>
<text text-anchor="start" x="3001" y="-657.3" font-family="Times,serif" font-weight="bold" font-size="14.00">YamlProcessFile</text>
<polygon fill="none" stroke="black" points="2996.5,-649 2996.5,-672 3133.5,-672 3133.5,-649 2996.5,-649"/>
</g>
<!-- YamlProcessFile&#45;&gt;GitParseCatalog -->
<g id="edge17" class="edge">
<title>YamlProcessFile&#45;&gt;GitParseCatalog</title>
<path fill="none" stroke="black" stroke-dasharray="5,2" d="M3087.4,-642.23C3116.77,-619.6 3169.1,-579.25 3207.89,-549.35"/>
<polygon fill="black" stroke="black" points="3215.95,-543.14 3210.78,-552.81 3211.99,-546.19 3208.03,-549.25 3208.03,-549.25 3208.03,-549.25 3211.99,-546.19 3205.29,-545.68 3215.95,-543.14 3215.95,-543.14"/>
</g>
<!-- KameletParseCatalog -->
<g id="node22" class="node">
<title>KameletParseCatalog</title>
<polygon fill="none" stroke="black" points="3169,-649.5 3169,-670.5 3346,-670.5 3346,-649.5 3169,-649.5"/>
<text text-anchor="start" x="3172" y="-657.3" font-family="Times,serif" font-weight="bold" font-size="14.00">KameletParseCatalog</text>
<polygon fill="none" stroke="black" points="3167.5,-649 3167.5,-672 3346.5,-672 3346.5,-649 3167.5,-649"/>
</g>
<!-- KameletParseCatalog&#45;&gt;GitParseCatalog -->
<g id="edge18" class="edge">
<title>KameletParseCatalog&#45;&gt;GitParseCatalog</title>
<path fill="none" stroke="black" d="M3257,-642.23C3257,-620.54 3257,-582.6 3257,-553.16"/>
<polygon fill="none" stroke="black" points="3260.5,-553.14 3257,-543.14 3253.5,-553.14 3260.5,-553.14"/>
</g>
<!-- ViewDefinitionParseCatalog -->
<g id="node23" class="node">
<title>ViewDefinitionParseCatalog</title>
<polygon fill="none" stroke="black" points="3382,-649.5 3382,-670.5 3608,-670.5 3608,-649.5 3382,-649.5"/>
<text text-anchor="start" x="3385" y="-657.3" font-family="Times,serif" font-weight="bold" font-size="14.00">ViewDefinitionParseCatalog</text>
<polygon fill="none" stroke="black" points="3381,-649 3381,-672 3609,-672 3609,-649 3381,-649"/>
</g>
<!-- ViewDefinitionParseCatalog&#45;&gt;GitParseCatalog -->
<g id="edge19" class="edge">
<title>ViewDefinitionParseCatalog&#45;&gt;GitParseCatalog</title>
<path fill="none" stroke="black" d="M3467.23,-642.23C3430.52,-619.41 3364.87,-578.58 3316.67,-548.6"/>
<polygon fill="none" stroke="black" points="3318.22,-545.45 3307.88,-543.14 3314.53,-551.39 3318.22,-545.45"/>
</g>
<!-- KameletBinding -->
<g id="node24" class="node">
<title>KameletBinding</title>
<polygon fill="none" stroke="black" points="3644,-660.5 3644,-681.5 3780,-681.5 3780,-660.5 3644,-660.5"/>
<text text-anchor="start" x="3647" y="-668.3" font-family="Times,serif" font-weight="bold" font-size="14.00">KameletBinding</text>
<polygon fill="none" stroke="black" points="3644,-639.5 3644,-660.5 3780,-660.5 3780,-639.5 3644,-639.5"/>
<text text-anchor="start" x="3657" y="-647.3" font-family="Times,serif" font-style="italic" font-size="14.00">Usage example</text>
<polygon fill="none" stroke="black" points="3643,-638.5 3643,-682.5 3781,-682.5 3781,-638.5 3643,-638.5"/>
</g>
<!-- KameletBindingSpec -->
<g id="node25" class="node">
<title>KameletBindingSpec</title>
<polygon fill="none" stroke="black" points="3816,-660.5 3816,-681.5 3988,-681.5 3988,-660.5 3816,-660.5"/>
<text text-anchor="start" x="3819" y="-668.3" font-family="Times,serif" font-weight="bold" font-size="14.00">KameletBindingSpec</text>
<polygon fill="none" stroke="black" points="3816,-639.5 3816,-660.5 3988,-660.5 3988,-639.5 3816,-639.5"/>
<text text-anchor="start" x="3847" y="-647.3" font-family="Times,serif" font-style="italic" font-size="14.00">Usage example</text>
<polygon fill="none" stroke="black" points="3815,-638.5 3815,-682.5 3989,-682.5 3989,-638.5 3815,-638.5"/>
</g>
<!-- KameletBindingStep -->
<g id="node26" class="node">
<title>KameletBindingStep</title>
<polygon fill="none" stroke="black" points="4025,-660.5 4025,-681.5 4196,-681.5 4196,-660.5 4025,-660.5"/>
<text text-anchor="start" x="4028" y="-668.3" font-family="Times,serif" font-weight="bold" font-size="14.00">KameletBindingStep</text>
<polygon fill="none" stroke="black" points="4025,-639.5 4025,-660.5 4196,-660.5 4196,-639.5 4025,-639.5"/>
<text text-anchor="start" x="4055.5" y="-647.3" font-family="Times,serif" font-style="italic" font-size="14.00">Usage example</text>
<polygon fill="none" stroke="black" points="4023.5,-638.5 4023.5,-682.5 4196.5,-682.5 4196.5,-638.5 4023.5,-638.5"/>
</g>
<!-- KameletBindingStepRef -->
<g id="node27" class="node">
<title>KameletBindingStepRef</title>
<polygon fill="none" stroke="black" points="4232,-660.5 4232,-681.5 4430,-681.5 4430,-660.5 4232,-660.5"/>
<text text-anchor="start" x="4235" y="-668.3" font-family="Times,serif" font-weight="bold" font-size="14.00">KameletBindingStepRef</text>
<polygon fill="none" stroke="black" points="4232,-639.5 4232,-660.5 4430,-660.5 4430,-639.5 4232,-639.5"/>
<text text-anchor="start" x="4276" y="-647.3" font-family="Times,serif" font-style="italic" font-size="14.00">Usage example</text>
<polygon fill="none" stroke="black" points="4231,-638.5 4231,-682.5 4431,-682.5 4431,-638.5 4231,-638.5"/>
</g>
<!-- Parameter -->
<g id="node28" class="node">
<title>Parameter</title>
<polygon fill="none" stroke="black" points="1361,-551.5 1361,-572.5 1497,-572.5 1497,-551.5 1361,-551.5"/>
<text text-anchor="start" x="1387" y="-559.3" font-family="Times,serif" font-weight="bold" font-size="14.00">Parameter</text>
<polygon fill="none" stroke="black" points="1361,-447.5 1361,-551.5 1497,-551.5 1497,-447.5 1361,-447.5"/>
<text text-anchor="start" x="1391" y="-538.3" font-family="Times,serif" font-style="italic" font-size="14.00">Properties</text>
<text text-anchor="start" x="1364" y="-524.3" font-family="Times,serif" font-size="14.00">description:String</text>
<text text-anchor="start" x="1364" y="-510.3" font-family="Times,serif" font-size="14.00">label:String</text>
<text text-anchor="start" x="1364" y="-496.3" font-family="Times,serif" font-size="14.00">id:String</text>
<text text-anchor="start" x="1364" y="-482.3" font-family="Times,serif" font-size="14.00">value:String</text>
<text text-anchor="start" x="1364" y="-468.3" font-family="Times,serif" font-size="14.00">default:String</text>
<text text-anchor="start" x="1364" y="-454.3" font-family="Times,serif" font-size="14.00">type:String</text>
<polygon fill="none" stroke="black" points="1360,-447 1360,-574 1498,-574 1498,-447 1360,-447"/>
</g>
<!-- KameletStep -->
<g id="node29" class="node">
<title>KameletStep</title>
<polygon fill="none" stroke="black" points="1355,-380.5 1355,-401.5 1503,-401.5 1503,-380.5 1355,-380.5"/>
<text text-anchor="start" x="1378" y="-388.3" font-family="Times,serif" font-weight="bold" font-size="14.00">KameletStep</text>
<polygon fill="none" stroke="black" points="1355,-290.5 1355,-380.5 1503,-380.5 1503,-290.5 1355,-290.5"/>
<text text-anchor="start" x="1391" y="-367.3" font-family="Times,serif" font-style="italic" font-size="14.00">Properties</text>
<text text-anchor="start" x="1358" y="-353.3" font-family="Times,serif" font-size="14.00">group:String</text>
<text text-anchor="start" x="1358" y="-339.3" font-family="Times,serif" font-size="14.00">kameletType:String</text>
<text text-anchor="start" x="1358" y="-325.3" font-family="Times,serif" font-size="14.00">apiVersion:String</text>
<text text-anchor="start" x="1358" y="-311.3" font-family="Times,serif" font-size="14.00">kind:String</text>
<text text-anchor="start" x="1358" y="-297.3" font-family="Times,serif" font-size="14.00">spec:String</text>
<polygon fill="none" stroke="black" points="1354,-290 1354,-403 1504,-403 1504,-290 1354,-290"/>
</g>
<!-- Parameter&#45;&gt;KameletStep -->
<g id="edge22" class="edge">
<title>Parameter&#45;&gt;KameletStep</title>
<path fill="none" stroke="black" d="M1429,-442.67C1429,-434.95 1429,-427.05 1429,-419.27"/>
<polygon fill="black" stroke="black" points="1429,-419.17 1425,-413.17 1429,-407.17 1433,-413.17 1429,-419.17"/>
<text text-anchor="middle" x="1415" y="-431.47" font-family="Times,serif" font-size="14.00">0..n</text>
</g>
<!-- KameletStep&#45;&gt;Step -->
<g id="edge21" class="edge">
<title>KameletStep&#45;&gt;Step</title>
<path fill="none" stroke="black" d="M1358.51,-285.79C1347.3,-276.3 1335.65,-266.43 1324.28,-256.8"/>
<polygon fill="none" stroke="black" points="1326.35,-253.97 1316.45,-250.17 1321.82,-259.31 1326.35,-253.97"/>
</g>
<!-- ViewDefinitionConstraint -->
<g id="node30" class="node">
<title>ViewDefinitionConstraint</title>
<polygon fill="none" stroke="black" points="803,-366.5 803,-387.5 1029,-387.5 1029,-366.5 803,-366.5"/>
<text text-anchor="start" x="815.5" y="-374.3" font-family="Times,serif" font-weight="bold" font-size="14.00">ViewDefinitionConstraint</text>
<polygon fill="none" stroke="black" points="803,-304.5 803,-366.5 1029,-366.5 1029,-304.5 803,-304.5"/>
<text text-anchor="start" x="878" y="-353.3" font-family="Times,serif" font-style="italic" font-size="14.00">Properties</text>
<text text-anchor="start" x="806" y="-339.3" font-family="Times,serif" font-size="14.00">mandatory:boolean</text>
<text text-anchor="start" x="806" y="-325.3" font-family="Times,serif" font-size="14.00">operation:ConstraintOperation</text>
<text text-anchor="start" x="806" y="-311.3" font-family="Times,serif" font-size="14.00">parameter:String</text>
<polygon fill="none" stroke="black" points="802,-304 802,-389 1030,-389 1030,-304 802,-304"/>
</g>
<!-- ViewDefinitionConstraint&#45;&gt;ViewDefinition -->
<g id="edge24" class="edge">
<title>ViewDefinitionConstraint&#45;&gt;ViewDefinition</title>
<path fill="none" stroke="black" d="M868.86,-299.83C850.96,-282.49 830.39,-262.57 811.77,-244.52"/>
<polygon fill="black" stroke="black" points="811.7,-244.46 804.61,-243.16 803.08,-236.11 810.17,-237.41 811.7,-244.46"/>
<text text-anchor="middle" x="854.86" y="-288.63" font-family="Times,serif" font-size="14.00">0..n</text>
</g>
</g>
</svg>
