<?xml version="1.0" encoding="UTF-8" standalone="no"?>
<!DOCTYPE svg PUBLIC "-//W3C//DTD SVG 1.1//EN"
 "http://www.w3.org/Graphics/SVG/1.1/DTD/svg11.dtd">
<!-- Generated by graphviz version 2.43.0 (0)
 -->
<!-- Title: ClassDiagram Pages: 1 -->
<svg width="976pt" height="244pt"
 viewBox="0.00 0.00 975.50 244.00" xmlns="http://www.w3.org/2000/svg" xmlns:xlink="http://www.w3.org/1999/xlink">
<g id="graph0" class="graph" transform="scale(1 1) rotate(0) translate(4 240)">
<title>ClassDiagram</title>
<polygon fill="white" stroke="transparent" points="-4,4 -4,-240 971.5,-240 971.5,4 -4,4"/>
<!-- Metadata -->
<g id="node1" class="node">
<title>Metadata</title>
<polygon fill="none" stroke="black" points="9.5,-188.5 9.5,-209.5 104.5,-209.5 104.5,-188.5 9.5,-188.5"/>
<text text-anchor="start" x="19" y="-196.3" font-family="Times,serif" font-weight="bold" font-size="14.00">Metadata</text>
<polygon fill="none" stroke="black" points="9.5,-126.5 9.5,-188.5 104.5,-188.5 104.5,-126.5 9.5,-126.5"/>
<text text-anchor="start" x="19" y="-175.3" font-family="Times,serif" font-style="italic" font-size="14.00">Properties</text>
<text text-anchor="start" x="12.5" y="-161.3" font-family="Times,serif" font-size="14.00">ID:String</text>
<text text-anchor="start" x="12.5" y="-147.3" font-family="Times,serif" font-size="14.00">name:String</text>
<text text-anchor="start" x="12.5" y="-133.3" font-family="Times,serif" font-size="14.00">type:String</text>
<polygon fill="none" stroke="black" points="8,-126 8,-211 105,-211 105,-126 8,-126"/>
</g>
<!-- Parameter -->
<g id="node2" class="node">
<title>Parameter</title>
<polygon fill="none" stroke="black" points="140.5,-209.5 140.5,-230.5 276.5,-230.5 276.5,-209.5 140.5,-209.5"/>
<text text-anchor="start" x="166.5" y="-217.3" font-family="Times,serif" font-weight="bold" font-size="14.00">Parameter</text>
<polygon fill="none" stroke="black" points="140.5,-105.5 140.5,-209.5 276.5,-209.5 276.5,-105.5 140.5,-105.5"/>
<text text-anchor="start" x="170.5" y="-196.3" font-family="Times,serif" font-style="italic" font-size="14.00">Properties</text>
<text text-anchor="start" x="143.5" y="-182.3" font-family="Times,serif" font-size="14.00">label:String</text>
<text text-anchor="start" x="143.5" y="-168.3" font-family="Times,serif" font-size="14.00">id:String</text>
<text text-anchor="start" x="143.5" y="-154.3" font-family="Times,serif" font-size="14.00">type:String</text>
<text text-anchor="start" x="143.5" y="-140.3" font-family="Times,serif" font-size="14.00">default:String</text>
<text text-anchor="start" x="143.5" y="-126.3" font-family="Times,serif" font-size="14.00">description:String</text>
<text text-anchor="start" x="143.5" y="-112.3" font-family="Times,serif" font-size="14.00">value:String</text>
<polygon fill="none" stroke="black" points="139.5,-105 139.5,-232 277.5,-232 277.5,-105 139.5,-105"/>
</g>
<!-- Step -->
<g id="node3" class="node">
<title>Step</title>
<polygon fill="none" stroke="black" points="310.5,-38.5 310.5,-59.5 423.5,-59.5 423.5,-38.5 310.5,-38.5"/>
<text text-anchor="start" x="349" y="-46.3" font-family="Times,serif" font-weight="bold" font-size="14.00">Step</text>
<polygon fill="none" stroke="black" points="310.5,-4.5 310.5,-38.5 423.5,-38.5 423.5,-4.5 310.5,-4.5"/>
<text text-anchor="start" x="329" y="-25.3" font-family="Times,serif" font-style="italic" font-size="14.00">Properties</text>
<text text-anchor="start" x="313.5" y="-11.3" font-family="Times,serif" font-size="14.00">subtype:String</text>
<polygon fill="none" stroke="black" points="309,-4 309,-61 424,-61 424,-4 309,-4"/>
</g>
<!-- KameletStep -->
<g id="node4" class="node">
<title>KameletStep</title>
<polygon fill="none" stroke="black" points="312.5,-157.5 312.5,-178.5 420.5,-178.5 420.5,-157.5 312.5,-157.5"/>
<text text-anchor="start" x="315.5" y="-165.3" font-family="Times,serif" font-weight="bold" font-size="14.00">KameletStep</text>
<polygon fill="none" stroke="black" points="311.5,-157 311.5,-180 421.5,-180 421.5,-157 311.5,-157"/>
</g>
<!-- KameletStep&#45;&gt;Step -->
<g id="edge1" class="edge">
<title>KameletStep&#45;&gt;Step</title>
<path fill="none" stroke="black" d="M366.5,-150.26C366.5,-131.37 366.5,-100.4 366.5,-75.1"/>
<polygon fill="none" stroke="black" points="370,-75.01 366.5,-65.01 363,-75.01 370,-75.01"/>
</g>
<!-- ViewDefinition -->
<g id="node5" class="node">
<title>ViewDefinition</title>
<polygon fill="none" stroke="black" points="456.5,-202.5 456.5,-223.5 696.5,-223.5 696.5,-202.5 456.5,-202.5"/>
<text text-anchor="start" x="518.5" y="-210.3" font-family="Times,serif" font-weight="bold" font-size="14.00">ViewDefinition</text>
<polygon fill="none" stroke="black" points="456.5,-112.5 456.5,-202.5 696.5,-202.5 696.5,-112.5 456.5,-112.5"/>
<text text-anchor="start" x="538.5" y="-189.3" font-family="Times,serif" font-style="italic" font-size="14.00">Properties</text>
<text text-anchor="start" x="459.5" y="-175.3" font-family="Times,serif" font-size="14.00">steps:List&lt;Step&gt;</text>
<text text-anchor="start" x="459.5" y="-161.3" font-family="Times,serif" font-size="14.00">name:String</text>
<text text-anchor="start" x="459.5" y="-147.3" font-family="Times,serif" font-size="14.00">type:String</text>
<text text-anchor="start" x="459.5" y="-133.3" font-family="Times,serif" font-size="14.00">id:String</text>
<text text-anchor="start" x="459.5" y="-119.3" font-family="Times,serif" font-size="14.00">properties:Map&lt;String, String&gt;</text>
<polygon fill="none" stroke="black" points="455.5,-112 455.5,-225 697.5,-225 697.5,-112 455.5,-112"/>
</g>
<!-- ViewDefinitionConstraint -->
<g id="node6" class="node">
<title>ViewDefinitionConstraint</title>
<polygon fill="none" stroke="black" points="732.5,-188.5 732.5,-209.5 958.5,-209.5 958.5,-188.5 732.5,-188.5"/>
<text text-anchor="start" x="745" y="-196.3" font-family="Times,serif" font-weight="bold" font-size="14.00">ViewDefinitionConstraint</text>
<polygon fill="none" stroke="black" points="732.5,-126.5 732.5,-188.5 958.5,-188.5 958.5,-126.5 732.5,-126.5"/>
<text text-anchor="start" x="807.5" y="-175.3" font-family="Times,serif" font-style="italic" font-size="14.00">Properties</text>
<text text-anchor="start" x="735.5" y="-161.3" font-family="Times,serif" font-size="14.00">mandatory:boolean</text>
<text text-anchor="start" x="735.5" y="-147.3" font-family="Times,serif" font-size="14.00">operation:ConstraintOperation</text>
<text text-anchor="start" x="735.5" y="-133.3" font-family="Times,serif" font-size="14.00">parameter:String</text>
<polygon fill="none" stroke="black" points="731.5,-126 731.5,-211 959.5,-211 959.5,-126 731.5,-126"/>
</g>
</g>
</svg>
