<?xml version="1.0" encoding="UTF-8" standalone="no"?>
<!DOCTYPE svg PUBLIC "-//W3C//DTD SVG 1.1//EN"
 "http://www.w3.org/Graphics/SVG/1.1/DTD/svg11.dtd">
<!-- Generated by graphviz version 2.43.0 (0)
 -->
<!-- Title: ClassDiagram Pages: 1 -->
<svg width="1978pt" height="628pt"
 viewBox="0.00 0.00 1977.50 628.00" xmlns="http://www.w3.org/2000/svg" xmlns:xlink="http://www.w3.org/1999/xlink">
<g id="graph0" class="graph" transform="scale(1 1) rotate(0) translate(4 624)">
<title>ClassDiagram</title>
<polygon fill="white" stroke="transparent" points="-4,4 -4,-624 1973.5,-624 1973.5,4 -4,4"/>
<!-- StepResource -->
<g id="node1" class="node">
<title>StepResource</title>
<polygon fill="none" stroke="black" points="9.5,-541.5 9.5,-562.5 124.5,-562.5 124.5,-541.5 9.5,-541.5"/>
<text text-anchor="start" x="12.5" y="-549.3" font-family="Times,serif" font-weight="bold" font-size="14.00">StepResource</text>
<polygon fill="none" stroke="black" points="8,-541 8,-564 125,-564 125,-541 8,-541"/>
</g>
<!-- ViewDefinitionResource -->
<g id="node2" class="node">
<title>ViewDefinitionResource</title>
<polygon fill="none" stroke="black" points="160.5,-569.5 160.5,-590.5 356.5,-590.5 356.5,-569.5 160.5,-569.5"/>
<text text-anchor="start" x="163.5" y="-577.3" font-family="Times,serif" font-weight="bold" font-size="14.00">ViewDefinitionResource</text>
<polygon fill="none" stroke="black" points="160.5,-548.5 160.5,-569.5 356.5,-569.5 356.5,-548.5 160.5,-548.5"/>
<text text-anchor="start" x="203.5" y="-556.3" font-family="Times,serif" font-style="italic" font-size="14.00">Usage example</text>
<polygon fill="none" stroke="black" points="160.5,-514.5 160.5,-548.5 356.5,-548.5 356.5,-514.5 160.5,-514.5"/>
<text text-anchor="start" x="227" y="-535.3" font-family="Times,serif" font-style="italic" font-size="14.00">Methods</text>
<text text-anchor="start" x="174" y="-521.3" font-family="Times,serif" font-size="14.00">views:(&lt;String&gt; yaml):</text>
<polygon fill="none" stroke="black" points="159.5,-513.5 159.5,-591.5 357.5,-591.5 357.5,-513.5 159.5,-513.5"/>
</g>
<!-- MetadataCatalog -->
<g id="node3" class="node">
<title>MetadataCatalog</title>
<polygon fill="none" stroke="black" points="292.5,-209.5 292.5,-230.5 635.5,-230.5 635.5,-209.5 292.5,-209.5"/>
<text text-anchor="start" x="396" y="-217.3" font-family="Times,serif" font-weight="bold" font-size="14.00">MetadataCatalog</text>
<polygon fill="none" stroke="black" points="292.5,-133.5 292.5,-209.5 635.5,-209.5 635.5,-133.5 292.5,-133.5"/>
<text text-anchor="start" x="432.5" y="-196.3" font-family="Times,serif" font-style="italic" font-size="14.00">Methods</text>
<text text-anchor="start" x="295.5" y="-182.3" font-family="Times,serif" font-size="14.00">searchStepByID(&lt;String&gt; id):Metadata</text>
<text text-anchor="start" x="295.5" y="-168.3" font-family="Times,serif" font-size="14.00">searchStepByName(&lt;String&gt; name):Metadata</text>
<text text-anchor="start" x="295.5" y="-154.3" font-family="Times,serif" font-size="14.00">store(&lt;List[Step]&gt; steps):boolean</text>
<text text-anchor="start" x="295.5" y="-140.3" font-family="Times,serif" font-size="14.00">getAll():List[Metadata]</text>
<polygon fill="none" stroke="black" points="291,-133 291,-232 636,-232 636,-133 291,-133"/>
</g>
<!-- Metadata -->
<g id="node4" class="node">
<title>Metadata</title>
<polygon fill="none" stroke="black" points="1112.5,-66.5 1112.5,-87.5 1207.5,-87.5 1207.5,-66.5 1112.5,-66.5"/>
<text text-anchor="start" x="1122" y="-74.3" font-family="Times,serif" font-weight="bold" font-size="14.00">Metadata</text>
<polygon fill="none" stroke="black" points="1112.5,-4.5 1112.5,-66.5 1207.5,-66.5 1207.5,-4.5 1112.5,-4.5"/>
<text text-anchor="start" x="1122" y="-53.3" font-family="Times,serif" font-style="italic" font-size="14.00">Properties</text>
<text text-anchor="start" x="1115.5" y="-39.3" font-family="Times,serif" font-size="14.00">ID:String</text>
<text text-anchor="start" x="1115.5" y="-25.3" font-family="Times,serif" font-size="14.00">name:String</text>
<text text-anchor="start" x="1115.5" y="-11.3" font-family="Times,serif" font-size="14.00">type:String</text>
<polygon fill="none" stroke="black" points="1111,-4 1111,-89 1208,-89 1208,-4 1111,-4"/>
</g>
<!-- MetadataCatalog&#45;&gt;Metadata -->
<g id="edge1" class="edge">
<title>MetadataCatalog&#45;&gt;Metadata</title>
<path fill="none" stroke="black" stroke-dasharray="5,2" d="M644.1,-146.73C791.24,-118.4 990.81,-79.98 1093.08,-60.29"/>
<polygon fill="black" stroke="black" points="1102.96,-58.39 1093.99,-64.69 1098.05,-59.33 1093.14,-60.28 1093.14,-60.28 1093.14,-60.28 1098.05,-59.33 1092.29,-55.86 1102.96,-58.39 1102.96,-58.39"/>
</g>
<!-- ParseCatalog -->
<g id="node5" class="node">
<title>ParseCatalog</title>
<polygon fill="none" stroke="black" points="948.5,-188.5 948.5,-209.5 1205.5,-209.5 1205.5,-188.5 948.5,-188.5"/>
<text text-anchor="start" x="1024.5" y="-196.3" font-family="Times,serif" font-weight="bold" font-size="14.00">ParseCatalog</text>
<polygon fill="none" stroke="black" points="948.5,-154.5 948.5,-188.5 1205.5,-188.5 1205.5,-154.5 948.5,-154.5"/>
<text text-anchor="start" x="1045.5" y="-175.3" font-family="Times,serif" font-style="italic" font-size="14.00">Methods</text>
<text text-anchor="start" x="951.5" y="-161.3" font-family="Times,serif" font-size="14.00">parse():CompletableFuture[List[T]]</text>
<polygon fill="none" stroke="black" points="947,-154 947,-211 1206,-211 1206,-154 947,-154"/>
</g>
<!-- ParseCatalog&#45;&gt;Metadata -->
<g id="edge2" class="edge">
<title>ParseCatalog&#45;&gt;Metadata</title>
<path fill="none" stroke="black" stroke-dasharray="5,2" d="M1096.17,-149.74C1104.99,-135.51 1115.64,-118.31 1125.68,-102.1"/>
<polygon fill="black" stroke="black" points="1131.17,-93.23 1129.73,-104.1 1128.54,-97.48 1125.91,-101.73 1125.91,-101.73 1125.91,-101.73 1128.54,-97.48 1122.08,-99.36 1131.17,-93.23 1131.17,-93.23"/>
</g>
<!-- CatalogCollection -->
<g id="node6" class="node">
<title>CatalogCollection</title>
<polygon fill="none" stroke="black" points="390.5,-349.5 390.5,-370.5 536.5,-370.5 536.5,-349.5 390.5,-349.5"/>
<text text-anchor="start" x="393.5" y="-357.3" font-family="Times,serif" font-weight="bold" font-size="14.00">CatalogCollection</text>
<polygon fill="none" stroke="black" points="389.5,-349 389.5,-372 537.5,-372 537.5,-349 389.5,-349"/>
</g>
<!-- CatalogCollection&#45;&gt;MetadataCatalog -->
<g id="edge3" class="edge">
<title>CatalogCollection&#45;&gt;MetadataCatalog</title>
<path fill="none" stroke="black" d="M463.5,-342.3C463.5,-320.2 463.5,-280.6 463.5,-246.47"/>
<polygon fill="none" stroke="black" points="467,-246.08 463.5,-236.08 460,-246.08 467,-246.08"/>
</g>
<!-- InMemoryCatalog -->
<g id="node7" class="node">
<title>InMemoryCatalog</title>
<polygon fill="none" stroke="black" points="206.5,-349.5 206.5,-370.5 354.5,-370.5 354.5,-349.5 206.5,-349.5"/>
<text text-anchor="start" x="209.5" y="-357.3" font-family="Times,serif" font-weight="bold" font-size="14.00">InMemoryCatalog</text>
<polygon fill="none" stroke="black" points="205.5,-349 205.5,-372 355.5,-372 355.5,-349 205.5,-349"/>
</g>
<!-- InMemoryCatalog&#45;&gt;MetadataCatalog -->
<g id="edge4" class="edge">
<title>InMemoryCatalog&#45;&gt;MetadataCatalog</title>
<path fill="none" stroke="black" d="M298.38,-342.3C322.06,-319.53 365.04,-278.19 401.22,-243.4"/>
<polygon fill="none" stroke="black" points="404.05,-245.53 408.83,-236.08 399.19,-240.49 404.05,-245.53"/>
</g>
<!-- ReadOnlyCatalog -->
<g id="node8" class="node">
<title>ReadOnlyCatalog</title>
<polygon fill="none" stroke="black" points="392.5,-541.5 392.5,-562.5 534.5,-562.5 534.5,-541.5 392.5,-541.5"/>
<text text-anchor="start" x="395.5" y="-549.3" font-family="Times,serif" font-weight="bold" font-size="14.00">ReadOnlyCatalog</text>
<polygon fill="none" stroke="black" points="391.5,-541 391.5,-564 535.5,-564 535.5,-541 391.5,-541"/>
</g>
<!-- ReadOnlyCatalog&#45;&gt;CatalogCollection -->
<g id="edge5" class="edge">
<title>ReadOnlyCatalog&#45;&gt;CatalogCollection</title>
<path fill="none" stroke="black" d="M463.5,-534.3C463.5,-501.17 463.5,-428.25 463.5,-388.55"/>
<polygon fill="none" stroke="black" points="467,-388.52 463.5,-378.52 460,-388.52 467,-388.52"/>
</g>
<!-- GithubParseCatalog -->
<g id="node9" class="node">
<title>GithubParseCatalog</title>
<polygon fill="none" stroke="black" points="572.5,-366.5 572.5,-387.5 1374.5,-387.5 1374.5,-366.5 572.5,-366.5"/>
<text text-anchor="start" x="893.5" y="-374.3" font-family="Times,serif" font-weight="bold" font-size="14.00">GithubParseCatalog</text>
<polygon fill="none" stroke="black" points="572.5,-332.5 572.5,-366.5 1374.5,-366.5 1374.5,-332.5 572.5,-332.5"/>
<text text-anchor="start" x="942" y="-353.3" font-family="Times,serif" font-style="italic" font-size="14.00">Methods</text>
<text text-anchor="start" x="575.5" y="-339.3" font-family="Times,serif" font-size="14.00">getFileVisitor(&lt;List[Metadata]&gt; metadataList, &lt;List[CompletableFuture[]]&gt; futureMetadata):YamlProcessFile</text>
<polygon fill="none" stroke="black" points="571.5,-332 571.5,-389 1375.5,-389 1375.5,-332 571.5,-332"/>
</g>
<!-- GithubParseCatalog&#45;&gt;ParseCatalog -->
<g id="edge6" class="edge">
<title>GithubParseCatalog&#45;&gt;ParseCatalog</title>
<path fill="none" stroke="black" d="M992.15,-327.63C1009.14,-298.6 1034.32,-255.58 1052.74,-224.1"/>
<polygon fill="none" stroke="black" points="1055.96,-225.53 1057.99,-215.14 1049.91,-222 1055.96,-225.53"/>
</g>
<!-- YamlProcessFile -->
<g id="node10" class="node">
<title>YamlProcessFile</title>
<polygon fill="none" stroke="black" points="842.5,-541.5 842.5,-562.5 977.5,-562.5 977.5,-541.5 842.5,-541.5"/>
<text text-anchor="start" x="845.5" y="-549.3" font-family="Times,serif" font-weight="bold" font-size="14.00">YamlProcessFile</text>
<polygon fill="none" stroke="black" points="841,-541 841,-564 978,-564 978,-541 841,-541"/>
</g>
<!-- YamlProcessFile&#45;&gt;GithubParseCatalog -->
<g id="edge7" class="edge">
<title>YamlProcessFile&#45;&gt;GithubParseCatalog</title>
<path fill="none" stroke="black" stroke-dasharray="5,2" d="M915.29,-534.3C925.21,-504.85 945.72,-443.97 959.55,-402.92"/>
<polygon fill="black" stroke="black" points="962.82,-393.2 963.9,-404.11 961.23,-397.94 959.63,-402.67 959.63,-402.67 959.63,-402.67 961.23,-397.94 955.37,-401.24 962.82,-393.2 962.82,-393.2"/>
</g>
<!-- KameletParseCatalog -->
<g id="node11" class="node">
<title>KameletParseCatalog</title>
<polygon fill="none" stroke="black" points="1276.5,-541.5 1276.5,-562.5 1453.5,-562.5 1453.5,-541.5 1276.5,-541.5"/>
<text text-anchor="start" x="1279.5" y="-549.3" font-family="Times,serif" font-weight="bold" font-size="14.00">KameletParseCatalog</text>
<polygon fill="none" stroke="black" points="1275,-541 1275,-564 1454,-564 1454,-541 1275,-541"/>
</g>
<!-- KameletParseCatalog&#45;&gt;GithubParseCatalog -->
<g id="edge8" class="edge">
<title>KameletParseCatalog&#45;&gt;GithubParseCatalog</title>
<path fill="none" stroke="black" d="M1339.17,-534.29C1317.87,-520.18 1286.36,-500.14 1257.5,-485 1194.36,-451.88 1120.42,-419.93 1063.82,-396.83"/>
<polygon fill="none" stroke="black" points="1065.11,-393.58 1054.53,-393.05 1062.48,-400.06 1065.11,-393.58"/>
</g>
<!-- KameletStep -->
<g id="node12" class="node">
<title>KameletStep</title>
<polygon fill="none" stroke="black" points="1754.5,-422.5 1754.5,-443.5 1960.5,-443.5 1960.5,-422.5 1754.5,-422.5"/>
<text text-anchor="start" x="1806.5" y="-430.3" font-family="Times,serif" font-weight="bold" font-size="14.00">KameletStep</text>
<polygon fill="none" stroke="black" points="1754.5,-276.5 1754.5,-422.5 1960.5,-422.5 1960.5,-276.5 1754.5,-276.5"/>
<text text-anchor="start" x="1819.5" y="-409.3" font-family="Times,serif" font-style="italic" font-size="14.00">Properties</text>
<text text-anchor="start" x="1757.5" y="-395.3" font-family="Times,serif" font-size="14.00">group:String</text>
<text text-anchor="start" x="1757.5" y="-381.3" font-family="Times,serif" font-size="14.00">title:String</text>
<text text-anchor="start" x="1757.5" y="-367.3" font-family="Times,serif" font-size="14.00">description:String</text>
<text text-anchor="start" x="1757.5" y="-353.3" font-family="Times,serif" font-size="14.00">kameletType:String</text>
<text text-anchor="start" x="1757.5" y="-339.3" font-family="Times,serif" font-size="14.00">apiVersion:String</text>
<text text-anchor="start" x="1757.5" y="-325.3" font-family="Times,serif" font-size="14.00">kind:String</text>
<text text-anchor="start" x="1757.5" y="-311.3" font-family="Times,serif" font-size="14.00">spec:String</text>
<text text-anchor="start" x="1757.5" y="-297.3" font-family="Times,serif" font-size="14.00">parameters:List[Parameter]</text>
<text text-anchor="start" x="1757.5" y="-283.3" font-family="Times,serif" font-size="14.00">icon:String</text>
<polygon fill="none" stroke="black" points="1753.5,-276 1753.5,-445 1961.5,-445 1961.5,-276 1753.5,-276"/>
</g>
<!-- KameletParseCatalog&#45;&gt;KameletStep -->
<g id="edge9" class="edge">
<title>KameletParseCatalog&#45;&gt;KameletStep</title>
<path fill="none" stroke="black" stroke-dasharray="5,2" d="M1386.03,-534.27C1406.68,-518.72 1439.39,-496.55 1471.5,-485 1580.69,-445.72 1624.41,-490.9 1735.82,-449.34"/>
<polygon fill="black" stroke="black" points="1745.38,-445.62 1737.68,-453.44 1740.72,-447.43 1736.06,-449.24 1736.06,-449.24 1736.06,-449.24 1740.72,-447.43 1734.43,-445.05 1745.38,-445.62 1745.38,-445.62"/>
</g>
<!-- Step -->
<g id="node16" class="node">
<title>Step</title>
<polygon fill="none" stroke="black" points="1698.5,-188.5 1698.5,-209.5 1811.5,-209.5 1811.5,-188.5 1698.5,-188.5"/>
<text text-anchor="start" x="1737" y="-196.3" font-family="Times,serif" font-weight="bold" font-size="14.00">Step</text>
<polygon fill="none" stroke="black" points="1698.5,-154.5 1698.5,-188.5 1811.5,-188.5 1811.5,-154.5 1698.5,-154.5"/>
<text text-anchor="start" x="1717" y="-175.3" font-family="Times,serif" font-style="italic" font-size="14.00">Properties</text>
<text text-anchor="start" x="1701.5" y="-161.3" font-family="Times,serif" font-size="14.00">subtype:String</text>
<polygon fill="none" stroke="black" points="1697,-154 1697,-211 1812,-211 1812,-154 1697,-154"/>
</g>
<!-- KameletStep&#45;&gt;Step -->
<g id="edge13" class="edge">
<title>KameletStep&#45;&gt;Step</title>
<path fill="none" stroke="black" d="M1806.15,-271.76C1796.4,-255.09 1786.63,-238.41 1778.26,-224.11"/>
<polygon fill="none" stroke="black" points="1781.05,-221.94 1772.98,-215.07 1775.01,-225.47 1781.05,-221.94"/>
</g>
<!-- ViewDefinitionParseCatalog -->
<g id="node13" class="node">
<title>ViewDefinitionParseCatalog</title>
<polygon fill="none" stroke="black" points="1013.5,-541.5 1013.5,-562.5 1239.5,-562.5 1239.5,-541.5 1013.5,-541.5"/>
<text text-anchor="start" x="1016.5" y="-549.3" font-family="Times,serif" font-weight="bold" font-size="14.00">ViewDefinitionParseCatalog</text>
<polygon fill="none" stroke="black" points="1012.5,-541 1012.5,-564 1240.5,-564 1240.5,-541 1012.5,-541"/>
</g>
<!-- ViewDefinitionParseCatalog&#45;&gt;GithubParseCatalog -->
<g id="edge10" class="edge">
<title>ViewDefinitionParseCatalog&#45;&gt;GithubParseCatalog</title>
<path fill="none" stroke="black" d="M1112.65,-534.3C1088.58,-504.42 1038.45,-442.16 1005.4,-401.11"/>
<polygon fill="none" stroke="black" points="1008.02,-398.79 999.02,-393.2 1002.57,-403.18 1008.02,-398.79"/>
</g>
<!-- ViewDefinition -->
<g id="node14" class="node">
<title>ViewDefinition</title>
<polygon fill="none" stroke="black" points="1410.5,-380.5 1410.5,-401.5 1719.5,-401.5 1719.5,-380.5 1410.5,-380.5"/>
<text text-anchor="start" x="1507" y="-388.3" font-family="Times,serif" font-weight="bold" font-size="14.00">ViewDefinition</text>
<polygon fill="none" stroke="black" points="1410.5,-318.5 1410.5,-380.5 1719.5,-380.5 1719.5,-318.5 1410.5,-318.5"/>
<text text-anchor="start" x="1527" y="-367.3" font-family="Times,serif" font-style="italic" font-size="14.00">Properties</text>
<text text-anchor="start" x="1413.5" y="-353.3" font-family="Times,serif" font-size="14.00">steps:List[Step]</text>
<text text-anchor="start" x="1413.5" y="-339.3" font-family="Times,serif" font-size="14.00">properties:Map[String, String]</text>
<text text-anchor="start" x="1413.5" y="-325.3" font-family="Times,serif" font-size="14.00">constraints:List[ViewDefinitionConstraint]</text>
<polygon fill="none" stroke="black" points="1409,-318 1409,-403 1720,-403 1720,-318 1409,-318"/>
</g>
<!-- ViewDefinitionParseCatalog&#45;&gt;ViewDefinition -->
<g id="edge11" class="edge">
<title>ViewDefinitionParseCatalog&#45;&gt;ViewDefinition</title>
<path fill="none" stroke="black" stroke-dasharray="5,2" d="M1156.11,-534.38C1182.36,-519.74 1222.06,-498.91 1258.5,-485 1316.11,-463.01 1334.93,-471.1 1392.5,-449 1419.78,-438.53 1448.44,-425.04 1474.36,-411.8"/>
<polygon fill="black" stroke="black" points="1483.41,-407.13 1476.59,-415.71 1478.97,-409.42 1474.53,-411.71 1474.53,-411.71 1474.53,-411.71 1478.97,-409.42 1472.46,-407.71 1483.41,-407.13 1483.41,-407.13"/>
</g>
<!-- ViewDefinition&#45;&gt;Metadata -->
<g id="edge15" class="edge">
<title>ViewDefinition&#45;&gt;Metadata</title>
<path fill="none" stroke="black" d="M1505.18,-313.8C1430.24,-256.07 1301.74,-157.08 1224.3,-97.42"/>
<polygon fill="none" stroke="black" points="1226.1,-94.39 1216.04,-91.06 1221.83,-99.93 1226.1,-94.39"/>
</g>
<!-- Parameter -->
<g id="node15" class="node">
<title>Parameter</title>
<polygon fill="none" stroke="black" points="1789.5,-593.5 1789.5,-614.5 1925.5,-614.5 1925.5,-593.5 1789.5,-593.5"/>
<text text-anchor="start" x="1815.5" y="-601.3" font-family="Times,serif" font-weight="bold" font-size="14.00">Parameter</text>
<polygon fill="none" stroke="black" points="1789.5,-489.5 1789.5,-593.5 1925.5,-593.5 1925.5,-489.5 1789.5,-489.5"/>
<text text-anchor="start" x="1819.5" y="-580.3" font-family="Times,serif" font-style="italic" font-size="14.00">Properties</text>
<text text-anchor="start" x="1792.5" y="-566.3" font-family="Times,serif" font-size="14.00">description:String</text>
<text text-anchor="start" x="1792.5" y="-552.3" font-family="Times,serif" font-size="14.00">label:String</text>
<text text-anchor="start" x="1792.5" y="-538.3" font-family="Times,serif" font-size="14.00">id:String</text>
<text text-anchor="start" x="1792.5" y="-524.3" font-family="Times,serif" font-size="14.00">value:String</text>
<text text-anchor="start" x="1792.5" y="-510.3" font-family="Times,serif" font-size="14.00">default:String</text>
<text text-anchor="start" x="1792.5" y="-496.3" font-family="Times,serif" font-size="14.00">type:String</text>
<polygon fill="none" stroke="black" points="1788.5,-489 1788.5,-616 1926.5,-616 1926.5,-489 1788.5,-489"/>
</g>
<!-- Parameter&#45;&gt;KameletStep -->
<g id="edge14" class="edge">
<title>Parameter&#45;&gt;KameletStep</title>
<path fill="none" stroke="black" d="M1857.5,-484.78C1857.5,-477.11 1857.5,-469.17 1857.5,-461.19"/>
<polygon fill="black" stroke="black" points="1857.5,-461.07 1853.5,-455.07 1857.5,-449.07 1861.5,-455.07 1857.5,-461.07"/>
<text text-anchor="middle" x="1843.5" y="-473.58" font-family="Times,serif" font-size="14.00">0..n</text>
</g>
<!-- Step&#45;&gt;Metadata -->
<g id="edge12" class="edge">
<title>Step&#45;&gt;Metadata</title>
<path fill="none" stroke="black" d="M1688.84,-166.71C1574.71,-141.01 1341.01,-88.38 1226.18,-62.52"/>
<polygon fill="none" stroke="black" points="1226.64,-59.03 1216.11,-60.25 1225.1,-65.86 1226.64,-59.03"/>
</g>
<!-- ViewDefinitionConstraint -->
<g id="node17" class="node">
<title>ViewDefinitionConstraint</title>
<polygon fill="none" stroke="black" points="1489.5,-572.5 1489.5,-593.5 1715.5,-593.5 1715.5,-572.5 1489.5,-572.5"/>
<text text-anchor="start" x="1502" y="-580.3" font-family="Times,serif" font-weight="bold" font-size="14.00">ViewDefinitionConstraint</text>
<polygon fill="none" stroke="black" points="1489.5,-510.5 1489.5,-572.5 1715.5,-572.5 1715.5,-510.5 1489.5,-510.5"/>
<text text-anchor="start" x="1564.5" y="-559.3" font-family="Times,serif" font-style="italic" font-size="14.00">Properties</text>
<text text-anchor="start" x="1492.5" y="-545.3" font-family="Times,serif" font-size="14.00">mandatory:boolean</text>
<text text-anchor="start" x="1492.5" y="-531.3" font-family="Times,serif" font-size="14.00">operation:ConstraintOperation</text>
<text text-anchor="start" x="1492.5" y="-517.3" font-family="Times,serif" font-size="14.00">parameter:String</text>
<polygon fill="none" stroke="black" points="1488.5,-510 1488.5,-595 1716.5,-595 1716.5,-510 1488.5,-510"/>
</g>
<!-- ViewDefinitionConstraint&#45;&gt;ViewDefinition -->
<g id="edge16" class="edge">
<title>ViewDefinitionConstraint&#45;&gt;ViewDefinition</title>
<path fill="none" stroke="black" d="M1593.4,-505.99C1588.2,-479.98 1581.62,-447.1 1576.06,-419.28"/>
<polygon fill="black" stroke="black" points="1576.01,-419.06 1570.91,-413.96 1573.66,-407.3 1578.76,-412.4 1576.01,-419.06"/>
<text text-anchor="middle" x="1579.4" y="-494.79" font-family="Times,serif" font-size="14.00">0..n</text>
</g>
</g>
</svg>
