<?xml version="1.0" encoding="UTF-8" standalone="no"?>
<!DOCTYPE svg PUBLIC "-//W3C//DTD SVG 1.1//EN"
 "http://www.w3.org/Graphics/SVG/1.1/DTD/svg11.dtd">
<!-- Generated by graphviz version 2.43.0 (0)
 -->
<!-- Title: ClassDiagram Pages: 1 -->
<svg width="4479pt" height="826pt"
 viewBox="0.00 0.00 4479.00 826.00" xmlns="http://www.w3.org/2000/svg" xmlns:xlink="http://www.w3.org/1999/xlink">
<g id="graph0" class="graph" transform="scale(1 1) rotate(0) translate(4 822)">
<title>ClassDiagram</title>
<polygon fill="white" stroke="transparent" points="-4,4 -4,-822 4475,-822 4475,4 -4,4"/>
<!-- CapabilitiesResource -->
<g id="node1" class="node">
<title>CapabilitiesResource</title>
<polygon fill="none" stroke="black" points="9,-515.5 9,-536.5 183,-536.5 183,-515.5 9,-515.5"/>
<text text-anchor="start" x="12" y="-523.3" font-family="Times,serif" font-weight="bold" font-size="14.00">CapabilitiesResource</text>
<polygon fill="none" stroke="black" points="9,-481.5 9,-515.5 183,-515.5 183,-481.5 9,-481.5"/>
<text text-anchor="start" x="64.5" y="-502.3" font-family="Times,serif" font-style="italic" font-size="14.00">Methods</text>
<text text-anchor="start" x="25" y="-488.3" font-family="Times,serif" font-size="14.00">getAll():Capabilities</text>
<polygon fill="none" stroke="black" points="8,-481 8,-538 184,-538 184,-481 8,-481"/>
</g>
<!-- LanguageService -->
<g id="node2" class="node">
<title>LanguageService</title>
<text text-anchor="middle" x="96" y="-704.8" font-family="Times,serif" font-size="14.00">LanguageService</text>
</g>
<!-- LanguageService&#45;&gt;CapabilitiesResource -->
<g id="edge1" class="edge">
<title>LanguageService&#45;&gt;CapabilitiesResource</title>
<path fill="none" stroke="black" d="M96,-690.36C96,-660.29 96,-597.13 96,-554.26"/>
<polygon fill="black" stroke="black" points="96,-554.2 92,-548.2 96,-542.2 100,-548.2 96,-554.2"/>
<text text-anchor="middle" x="82" y="-679.16" font-family="Times,serif" font-size="14.00">0..1</text>
</g>
<!-- DeploymentsResource -->
<g id="node3" class="node">
<title>DeploymentsResource</title>
<polygon fill="none" stroke="black" points="193,-742.5 193,-763.5 679,-763.5 679,-742.5 193,-742.5"/>
<text text-anchor="start" x="347.5" y="-750.3" font-family="Times,serif" font-weight="bold" font-size="14.00">DeploymentsResource</text>
<polygon fill="none" stroke="black" points="193,-652.5 193,-742.5 679,-742.5 679,-652.5 193,-652.5"/>
<text text-anchor="start" x="404.5" y="-729.3" font-family="Times,serif" font-style="italic" font-size="14.00">Methods</text>
<text text-anchor="start" x="196" y="-715.3" font-family="Times,serif" font-size="14.00">all(&lt;String&gt; namespace):String</text>
<text text-anchor="start" x="196" y="-701.3" font-family="Times,serif" font-size="14.00">start(&lt;String&gt; crd, &lt;String&gt; namespace, &lt;String&gt; name):String</text>
<text text-anchor="start" x="196" y="-687.3" font-family="Times,serif" font-size="14.00">get(&lt;String&gt; name, &lt;String&gt; type, &lt;String&gt; namespace):String</text>
<text text-anchor="start" x="196" y="-673.3" font-family="Times,serif" font-size="14.00">stop(&lt;String&gt; name, &lt;String&gt; type, &lt;String&gt; namespace):String</text>
<text text-anchor="start" x="196" y="-659.3" font-family="Times,serif" font-size="14.00">logs(&lt;String&gt; name, &lt;String&gt; namespace):String</text>
<polygon fill="none" stroke="black" points="192,-652 192,-765 680,-765 680,-652 192,-652"/>
</g>
<!-- IntegrationsResource -->
<g id="node4" class="node">
<title>IntegrationsResource</title>
<polygon fill="none" stroke="black" points="600,-529.5 600,-550.5 968,-550.5 968,-529.5 600,-529.5"/>
<text text-anchor="start" x="697.5" y="-537.3" font-family="Times,serif" font-weight="bold" font-size="14.00">IntegrationsResource</text>
<polygon fill="none" stroke="black" points="600,-467.5 600,-529.5 968,-529.5 968,-467.5 600,-467.5"/>
<text text-anchor="start" x="752.5" y="-516.3" font-family="Times,serif" font-style="italic" font-size="14.00">Methods</text>
<text text-anchor="start" x="603" y="-502.3" font-family="Times,serif" font-size="14.00">crd(&lt;String&gt; dsl, &lt;Integration&gt; integration):Map</text>
<text text-anchor="start" x="603" y="-488.3" font-family="Times,serif" font-size="14.00">integration(&lt;String&gt; dsl, &lt;String&gt; crd):Map</text>
<text text-anchor="start" x="603" y="-474.3" font-family="Times,serif" font-size="14.00">compatibleDSL(&lt;List[Step]&gt; steps):Map</text>
<polygon fill="none" stroke="black" points="599,-467 599,-552 969,-552 969,-467 599,-467"/>
</g>
<!-- DeploymentService -->
<g id="node5" class="node">
<title>DeploymentService</title>
<text text-anchor="middle" x="784" y="-704.8" font-family="Times,serif" font-size="14.00">DeploymentService</text>
</g>
<!-- DeploymentService&#45;&gt;IntegrationsResource -->
<g id="edge2" class="edge">
<title>DeploymentService&#45;&gt;IntegrationsResource</title>
<path fill="none" stroke="black" d="M784,-690.36C784,-663.5 784,-610.24 784,-568.61"/>
<polygon fill="black" stroke="black" points="784,-568.39 780,-562.39 784,-556.39 788,-562.39 784,-568.39"/>
<text text-anchor="middle" x="770" y="-679.16" font-family="Times,serif" font-size="14.00">0..1</text>
</g>
<!-- StepResource -->
<g id="node6" class="node">
<title>StepResource</title>
<polygon fill="none" stroke="black" points="889,-728.5 889,-749.5 1361,-749.5 1361,-728.5 889,-728.5"/>
<text text-anchor="start" x="1070.5" y="-736.3" font-family="Times,serif" font-weight="bold" font-size="14.00">StepResource</text>
<polygon fill="none" stroke="black" points="889,-666.5 889,-728.5 1361,-728.5 1361,-666.5 889,-666.5"/>
<text text-anchor="start" x="1093.5" y="-715.3" font-family="Times,serif" font-style="italic" font-size="14.00">Methods</text>
<text text-anchor="start" x="892" y="-701.3" font-family="Times,serif" font-size="14.00">allSteps(&lt;String&gt; type, &lt;String&gt; dsl, &lt;String&gt; kind):List[Step]</text>
<text text-anchor="start" x="892" y="-687.3" font-family="Times,serif" font-size="14.00">stepById(&lt;String&gt; id):Step</text>
<text text-anchor="start" x="892" y="-673.3" font-family="Times,serif" font-size="14.00">stepsByName(&lt;String&gt; name):List[Step]</text>
<polygon fill="none" stroke="black" points="888,-666 888,-751 1362,-751 1362,-666 888,-666"/>
</g>
<!-- StepCatalog -->
<g id="node7" class="node">
<title>StepCatalog</title>
<polygon fill="none" stroke="black" points="1074,-498.5 1074,-519.5 1176,-519.5 1176,-498.5 1074,-498.5"/>
<text text-anchor="start" x="1077" y="-506.3" font-family="Times,serif" font-weight="bold" font-size="14.00">StepCatalog</text>
<polygon fill="none" stroke="black" points="1073,-498 1073,-521 1177,-521 1177,-498 1073,-498"/>
</g>
<!-- StepResource&#45;&gt;StepCatalog -->
<g id="edge3" class="edge">
<title>StepResource&#45;&gt;StepCatalog</title>
<path fill="none" stroke="black" stroke-dasharray="5,2" d="M1125,-661.81C1125,-623.58 1125,-570.28 1125,-538.21"/>
<polygon fill="black" stroke="black" points="1125,-527.81 1129.5,-537.81 1125,-532.81 1125,-537.81 1125,-537.81 1125,-537.81 1125,-532.81 1120.5,-537.81 1125,-527.81 1125,-527.81"/>
</g>
<!-- AbstractCatalog -->
<g id="node11" class="node">
<title>AbstractCatalog</title>
<polygon fill="none" stroke="black" points="1139,-393.5 1139,-414.5 1417,-414.5 1417,-393.5 1139,-393.5"/>
<text text-anchor="start" x="1214.5" y="-401.3" font-family="Times,serif" font-weight="bold" font-size="14.00">AbstractCatalog</text>
<polygon fill="none" stroke="black" points="1139,-317.5 1139,-393.5 1417,-393.5 1417,-317.5 1139,-317.5"/>
<text text-anchor="start" x="1246.5" y="-380.3" font-family="Times,serif" font-style="italic" font-size="14.00">Methods</text>
<text text-anchor="start" x="1142" y="-366.3" font-family="Times,serif" font-size="14.00">waitForWarmUp():CompletableFuture</text>
<text text-anchor="start" x="1142" y="-352.3" font-family="Times,serif" font-size="14.00">loadParsers():List[ParseCatalog]</text>
<text text-anchor="start" x="1142" y="-338.3" font-family="Times,serif" font-size="14.00">warmUpCatalog():</text>
<text text-anchor="start" x="1142" y="-324.3" font-family="Times,serif" font-size="14.00">refresh():</text>
<polygon fill="none" stroke="black" points="1138,-317 1138,-416 1418,-416 1418,-317 1138,-317"/>
</g>
<!-- StepCatalog&#45;&gt;AbstractCatalog -->
<g id="edge6" class="edge">
<title>StepCatalog&#45;&gt;AbstractCatalog</title>
<path fill="none" stroke="black" d="M1143.46,-491.49C1160.89,-475.43 1188.08,-450.37 1213.47,-426.97"/>
<polygon fill="none" stroke="black" points="1215.94,-429.45 1220.92,-420.1 1211.2,-424.31 1215.94,-429.45"/>
</g>
<!-- ViewDefinitionResource -->
<g id="node8" class="node">
<title>ViewDefinitionResource</title>
<polygon fill="none" stroke="black" points="1633,-515.5 1633,-536.5 2101,-536.5 2101,-515.5 1633,-515.5"/>
<text text-anchor="start" x="1772" y="-523.3" font-family="Times,serif" font-weight="bold" font-size="14.00">ViewDefinitionResource</text>
<polygon fill="none" stroke="black" points="1633,-481.5 1633,-515.5 2101,-515.5 2101,-481.5 1633,-481.5"/>
<text text-anchor="start" x="1835.5" y="-502.3" font-family="Times,serif" font-style="italic" font-size="14.00">Methods</text>
<text text-anchor="start" x="1636" y="-488.3" font-family="Times,serif" font-size="14.00">viewsPerStepList:(&lt;Step[]&gt; DeploymentResourceYamlRequest):</text>
<polygon fill="none" stroke="black" points="1632,-481 1632,-538 2102,-538 2102,-481 1632,-481"/>
</g>
<!-- ViewDefinitionService -->
<g id="node9" class="node">
<title>ViewDefinitionService</title>
<text text-anchor="middle" x="1867" y="-704.8" font-family="Times,serif" font-size="14.00">ViewDefinitionService</text>
</g>
<!-- ViewDefinitionService&#45;&gt;ViewDefinitionResource -->
<g id="edge4" class="edge">
<title>ViewDefinitionService&#45;&gt;ViewDefinitionResource</title>
<path fill="none" stroke="black" d="M1867,-690.36C1867,-660.29 1867,-597.13 1867,-554.26"/>
<polygon fill="black" stroke="black" points="1867,-554.2 1863,-548.2 1867,-542.2 1871,-548.2 1867,-554.2"/>
<text text-anchor="middle" x="1853" y="-679.16" font-family="Times,serif" font-size="14.00">0..1</text>
</g>
<!-- CamelRoute -->
<g id="node10" class="node">
<title>CamelRoute</title>
<polygon fill="none" stroke="black" points="2043,-697.5 2043,-718.5 2146,-718.5 2146,-697.5 2043,-697.5"/>
<text text-anchor="start" x="2046" y="-705.3" font-family="Times,serif" font-weight="bold" font-size="14.00">CamelRoute</text>
<polygon fill="none" stroke="black" points="2041.5,-697 2041.5,-720 2146.5,-720 2146.5,-697 2041.5,-697"/>
</g>
<!-- MetadataCatalog -->
<g id="node12" class="node">
<title>MetadataCatalog</title>
<polygon fill="none" stroke="black" points="1352,-208.5 1352,-229.5 1700,-229.5 1700,-208.5 1352,-208.5"/>
<text text-anchor="start" x="1458" y="-216.3" font-family="Times,serif" font-weight="bold" font-size="14.00">MetadataCatalog</text>
<polygon fill="none" stroke="black" points="1352,-118.5 1352,-208.5 1700,-208.5 1700,-118.5 1352,-118.5"/>
<text text-anchor="start" x="1494.5" y="-195.3" font-family="Times,serif" font-style="italic" font-size="14.00">Methods</text>
<text text-anchor="start" x="1355" y="-181.3" font-family="Times,serif" font-size="14.00">searchStepByID(&lt;String&gt; id):Metadata</text>
<text text-anchor="start" x="1355" y="-167.3" font-family="Times,serif" font-size="14.00">searchByName(&lt;String&gt; name):List[Metadata]</text>
<text text-anchor="start" x="1355" y="-153.3" font-family="Times,serif" font-size="14.00">store(&lt;List[Step]&gt; steps):boolean</text>
<text text-anchor="start" x="1355" y="-139.3" font-family="Times,serif" font-size="14.00">getAll():List[Metadata]</text>
<text text-anchor="start" x="1355" y="-125.3" font-family="Times,serif" font-size="14.00">clear():void</text>
<polygon fill="none" stroke="black" points="1351,-118 1351,-231 1701,-231 1701,-118 1351,-118"/>
</g>
<!-- AbstractCatalog&#45;&gt;MetadataCatalog -->
<g id="edge5" class="edge">
<title>AbstractCatalog&#45;&gt;MetadataCatalog</title>
<path fill="none" stroke="black" stroke-dasharray="5,2" d="M1346.75,-312.83C1375.57,-290.75 1409.39,-264.84 1439.85,-241.5"/>
<polygon fill="black" stroke="black" points="1447.92,-235.32 1442.72,-244.97 1443.96,-238.36 1439.99,-241.4 1439.99,-241.4 1439.99,-241.4 1443.96,-238.36 1437.25,-237.83 1447.92,-235.32 1447.92,-235.32"/>
</g>
<!-- Metadata -->
<g id="node20" class="node">
<title>Metadata</title>
<text text-anchor="middle" x="1526" y="-14.3" font-family="Times,serif" font-size="14.00">Metadata</text>
</g>
<!-- MetadataCatalog&#45;&gt;Metadata -->
<g id="edge10" class="edge">
<title>MetadataCatalog&#45;&gt;Metadata</title>
<path fill="none" stroke="black" stroke-dasharray="5,2" d="M1526,-113.77C1526,-90.48 1526,-64.96 1526,-46.27"/>
<polygon fill="black" stroke="black" points="1526,-36.13 1530.5,-46.13 1526,-41.13 1526,-46.13 1526,-46.13 1526,-46.13 1526,-41.13 1521.5,-46.13 1526,-36.13 1526,-36.13"/>
</g>
<!-- StepCatalogParser -->
<g id="node13" class="node">
<title>StepCatalogParser</title>
<polygon fill="none" stroke="black" points="2138,-536.5 2138,-557.5 2523,-557.5 2523,-536.5 2138,-536.5"/>
<text text-anchor="start" x="2256.5" y="-544.3" font-family="Times,serif" font-weight="bold" font-size="14.00">StepCatalogParser</text>
<polygon fill="none" stroke="black" points="2138,-460.5 2138,-536.5 2523,-536.5 2523,-460.5 2138,-460.5"/>
<text text-anchor="start" x="2299" y="-523.3" font-family="Times,serif" font-style="italic" font-size="14.00">Methods</text>
<text text-anchor="start" x="2141" y="-509.3" font-family="Times,serif" font-size="14.00">getParser(&lt;String&gt; url, &lt;String&gt; tag):ParseCatalog</text>
<text text-anchor="start" x="2141" y="-495.3" font-family="Times,serif" font-size="14.00">getParserFromCluster():ParseCatalog</text>
<text text-anchor="start" x="2141" y="-481.3" font-family="Times,serif" font-size="14.00">getLocalFolder(&lt;Path&gt; path):ParseCatalog</text>
<text text-anchor="start" x="2141" y="-467.3" font-family="Times,serif" font-size="14.00">generatesKind(&lt;String&gt; kind):Boolean</text>
<polygon fill="none" stroke="black" points="2136.5,-460 2136.5,-559 2523.5,-559 2523.5,-460 2136.5,-460"/>
</g>
<!-- ViewDefinitionCatalog -->
<g id="node14" class="node">
<title>ViewDefinitionCatalog</title>
<polygon fill="none" stroke="black" points="1212,-498.5 1212,-519.5 1394,-519.5 1394,-498.5 1212,-498.5"/>
<text text-anchor="start" x="1215" y="-506.3" font-family="Times,serif" font-weight="bold" font-size="14.00">ViewDefinitionCatalog</text>
<polygon fill="none" stroke="black" points="1211,-498 1211,-521 1395,-521 1395,-498 1211,-498"/>
</g>
<!-- ViewDefinitionCatalog&#45;&gt;AbstractCatalog -->
<g id="edge7" class="edge">
<title>ViewDefinitionCatalog&#45;&gt;AbstractCatalog</title>
<path fill="none" stroke="black" d="M1299.98,-491.49C1297.26,-476.12 1293.07,-452.5 1289.08,-429.99"/>
<polygon fill="none" stroke="black" points="1292.52,-429.34 1287.33,-420.1 1285.63,-430.56 1292.52,-429.34"/>
</g>
<!-- KameletParseCatalog -->
<g id="node15" class="node">
<title>KameletParseCatalog</title>
<polygon fill="none" stroke="black" points="2242,-697.5 2242,-718.5 2419,-718.5 2419,-697.5 2242,-697.5"/>
<text text-anchor="start" x="2245" y="-705.3" font-family="Times,serif" font-weight="bold" font-size="14.00">KameletParseCatalog</text>
<polygon fill="none" stroke="black" points="2240.5,-697 2240.5,-720 2419.5,-720 2419.5,-697 2240.5,-697"/>
</g>
<!-- KameletParseCatalog&#45;&gt;StepCatalogParser -->
<g id="edge8" class="edge">
<title>KameletParseCatalog&#45;&gt;StepCatalogParser</title>
<path fill="none" stroke="black" d="M2330,-690.36C2330,-664.47 2330,-614.07 2330,-573.2"/>
<polygon fill="none" stroke="black" points="2333.5,-573.03 2330,-563.03 2326.5,-573.03 2333.5,-573.03"/>
</g>
<!-- ParseCatalog -->
<g id="node16" class="node">
<title>ParseCatalog</title>
<polygon fill="none" stroke="black" points="2758,-522.5 2758,-543.5 3090,-543.5 3090,-522.5 2758,-522.5"/>
<text text-anchor="start" x="2871.5" y="-530.3" font-family="Times,serif" font-weight="bold" font-size="14.00">ParseCatalog</text>
<polygon fill="none" stroke="black" points="2758,-474.5 2758,-522.5 3090,-522.5 3090,-474.5 2758,-474.5"/>
<text text-anchor="start" x="2892.5" y="-509.3" font-family="Times,serif" font-style="italic" font-size="14.00">Methods</text>
<text text-anchor="start" x="2761" y="-495.3" font-family="Times,serif" font-size="14.00">parse():CompletableFuture[List[T]]</text>
<text text-anchor="start" x="2761" y="-481.3" font-family="Times,serif" font-size="14.00">setFileVisitor(&lt;YamlProcessFile&gt; fileVisitor):</text>
<polygon fill="none" stroke="black" points="2757,-474 2757,-545 3091,-545 3091,-474 2757,-474"/>
</g>
<!-- KameletParseCatalog&#45;&gt;ParseCatalog -->
<g id="edge9" class="edge">
<title>KameletParseCatalog&#45;&gt;ParseCatalog</title>
<path fill="none" stroke="black" stroke-dasharray="5,2" d="M2341.41,-690.37C2358.74,-665.84 2394.14,-621.23 2436,-599 2488,-571.38 2623.72,-548.01 2738.86,-532.24"/>
<polygon fill="black" stroke="black" points="2748.88,-530.88 2739.57,-536.68 2743.92,-531.55 2738.97,-532.22 2738.97,-532.22 2738.97,-532.22 2743.92,-531.55 2738.36,-527.77 2748.88,-530.88 2748.88,-530.88"/>
</g>
<!-- Kamelet -->
<g id="node17" class="node">
<title>Kamelet</title>
<polygon fill="none" stroke="black" points="3699,-697.5 3699,-718.5 3772,-718.5 3772,-697.5 3699,-697.5"/>
<text text-anchor="start" x="3702" y="-705.3" font-family="Times,serif" font-weight="bold" font-size="14.00">Kamelet</text>
<polygon fill="none" stroke="black" points="3697.5,-697 3697.5,-720 3772.5,-720 3772.5,-697 3697.5,-697"/>
</g>
<!-- KameletBinding -->
<g id="node18" class="node">
<title>KameletBinding</title>
<polygon fill="none" stroke="black" points="3808,-697.5 3808,-718.5 3944,-718.5 3944,-697.5 3808,-697.5"/>
<text text-anchor="start" x="3811" y="-705.3" font-family="Times,serif" font-weight="bold" font-size="14.00">KameletBinding</text>
<polygon fill="none" stroke="black" points="3807,-697 3807,-720 3945,-720 3945,-697 3807,-697"/>
</g>
<!-- SimplifiedKamelet -->
<g id="node19" class="node">
<title>SimplifiedKamelet</title>
<polygon fill="none" stroke="black" points="3980,-697.5 3980,-718.5 4132,-718.5 4132,-697.5 3980,-697.5"/>
<text text-anchor="start" x="3983" y="-705.3" font-family="Times,serif" font-weight="bold" font-size="14.00">SimplifiedKamelet</text>
<polygon fill="none" stroke="black" points="3979,-697 3979,-720 4133,-720 4133,-697 3979,-697"/>
</g>
<!-- CatalogCollection -->
<g id="node21" class="node">
<title>CatalogCollection</title>
<polygon fill="none" stroke="black" points="1453,-355.5 1453,-376.5 1599,-376.5 1599,-355.5 1453,-355.5"/>
<text text-anchor="start" x="1456" y="-363.3" font-family="Times,serif" font-weight="bold" font-size="14.00">CatalogCollection</text>
<polygon fill="none" stroke="black" points="1452,-355 1452,-378 1600,-378 1600,-355 1452,-355"/>
</g>
<!-- CatalogCollection&#45;&gt;MetadataCatalog -->
<g id="edge11" class="edge">
<title>CatalogCollection&#45;&gt;MetadataCatalog</title>
<path fill="none" stroke="black" d="M1526,-348.3C1526,-325.17 1526,-282.66 1526,-245.59"/>
<polygon fill="none" stroke="black" points="1529.5,-245.3 1526,-235.3 1522.5,-245.3 1529.5,-245.3"/>
</g>
<!-- InMemoryCatalog -->
<g id="node22" class="node">
<title>InMemoryCatalog</title>
<polygon fill="none" stroke="black" points="1635,-355.5 1635,-376.5 1783,-376.5 1783,-355.5 1635,-355.5"/>
<text text-anchor="start" x="1638" y="-363.3" font-family="Times,serif" font-weight="bold" font-size="14.00">InMemoryCatalog</text>
<polygon fill="none" stroke="black" points="1634,-355 1634,-378 1784,-378 1784,-355 1634,-355"/>
</g>
<!-- InMemoryCatalog&#45;&gt;MetadataCatalog -->
<g id="edge12" class="edge">
<title>InMemoryCatalog&#45;&gt;MetadataCatalog</title>
<path fill="none" stroke="black" d="M1692.44,-348.3C1669.59,-324.58 1627.1,-280.47 1590.77,-242.75"/>
<polygon fill="none" stroke="black" points="1593.06,-240.08 1583.6,-235.3 1588.02,-244.93 1593.06,-240.08"/>
</g>
<!-- ReadOnlyCatalog -->
<g id="node23" class="node">
<title>ReadOnlyCatalog</title>
<polygon fill="none" stroke="black" points="1455,-498.5 1455,-519.5 1597,-519.5 1597,-498.5 1455,-498.5"/>
<text text-anchor="start" x="1458" y="-506.3" font-family="Times,serif" font-weight="bold" font-size="14.00">ReadOnlyCatalog</text>
<polygon fill="none" stroke="black" points="1454,-498 1454,-521 1598,-521 1598,-498 1454,-498"/>
</g>
<!-- ReadOnlyCatalog&#45;&gt;CatalogCollection -->
<g id="edge13" class="edge">
<title>ReadOnlyCatalog&#45;&gt;CatalogCollection</title>
<path fill="none" stroke="black" d="M1526,-491.49C1526,-467.46 1526,-423.31 1526,-394.7"/>
<polygon fill="none" stroke="black" points="1529.5,-394.57 1526,-384.57 1522.5,-394.57 1529.5,-394.57"/>
</g>
<!-- ClusterParseCatalog -->
<g id="node24" class="node">
<title>ClusterParseCatalog</title>
<polygon fill="none" stroke="black" points="2455,-697.5 2455,-718.5 2624,-718.5 2624,-697.5 2455,-697.5"/>
<text text-anchor="start" x="2458" y="-705.3" font-family="Times,serif" font-weight="bold" font-size="14.00">ClusterParseCatalog</text>
<polygon fill="none" stroke="black" points="2453.5,-697 2453.5,-720 2624.5,-720 2624.5,-697 2453.5,-697"/>
</g>
<!-- ClusterParseCatalog&#45;&gt;ParseCatalog -->
<g id="edge14" class="edge">
<title>ClusterParseCatalog&#45;&gt;ParseCatalog</title>
<path fill="none" stroke="black" d="M2550.78,-690.22C2567.92,-666.34 2602,-623.43 2641,-599 2671.6,-579.83 2706.69,-564.52 2741.5,-552.39"/>
<polygon fill="none" stroke="black" points="2742.96,-555.59 2751.3,-549.05 2740.71,-548.96 2742.96,-555.59"/>
</g>
<!-- EmptyParseCatalog -->
<g id="node25" class="node">
<title>EmptyParseCatalog</title>
<polygon fill="none" stroke="black" points="2660,-697.5 2660,-718.5 2821,-718.5 2821,-697.5 2660,-697.5"/>
<text text-anchor="start" x="2663" y="-705.3" font-family="Times,serif" font-weight="bold" font-size="14.00">EmptyParseCatalog</text>
<polygon fill="none" stroke="black" points="2658.5,-697 2658.5,-720 2821.5,-720 2821.5,-697 2658.5,-697"/>
</g>
<!-- EmptyParseCatalog&#45;&gt;ParseCatalog -->
<g id="edge15" class="edge">
<title>EmptyParseCatalog&#45;&gt;ParseCatalog</title>
<path fill="none" stroke="black" d="M2755.3,-690.46C2774.64,-668.99 2809.03,-631.02 2839,-599 2852.02,-585.09 2866.32,-570.1 2879.41,-556.48"/>
<polygon fill="none" stroke="black" points="2882.13,-558.7 2886.55,-549.07 2877.09,-553.84 2882.13,-558.7"/>
</g>
<!-- GitParseCatalog -->
<g id="node26" class="node">
<title>GitParseCatalog</title>
<polygon fill="none" stroke="black" points="3528,-697.5 3528,-718.5 3663,-718.5 3663,-697.5 3528,-697.5"/>
<text text-anchor="start" x="3531" y="-705.3" font-family="Times,serif" font-weight="bold" font-size="14.00">GitParseCatalog</text>
<polygon fill="none" stroke="black" points="3526.5,-697 3526.5,-720 3663.5,-720 3663.5,-697 3526.5,-697"/>
</g>
<!-- GitParseCatalog&#45;&gt;ParseCatalog -->
<g id="edge16" class="edge">
<title>GitParseCatalog&#45;&gt;ParseCatalog</title>
<path fill="none" stroke="black" d="M3586.66,-690.23C3573.74,-665.52 3546.43,-620.7 3509,-599 3442.66,-560.55 3254.75,-536.84 3109.61,-523.77"/>
<polygon fill="none" stroke="black" points="3109.51,-520.24 3099.24,-522.84 3108.89,-527.22 3109.51,-520.24"/>
</g>
<!-- YamlProcessFile -->
<g id="node27" class="node">
<title>YamlProcessFile</title>
<text text-anchor="middle" x="3595" y="-505.8" font-family="Times,serif" font-size="14.00">YamlProcessFile</text>
</g>
<!-- GitParseCatalog&#45;&gt;YamlProcessFile -->
<g id="edge17" class="edge">
<title>GitParseCatalog&#45;&gt;YamlProcessFile</title>
<path fill="none" stroke="black" stroke-dasharray="5,2" d="M3595,-690.36C3595,-656.16 3595,-579.19 3595,-537.9"/>
<polygon fill="black" stroke="black" points="3595,-527.74 3599.5,-537.74 3595,-532.74 3595,-537.74 3595,-537.74 3595,-537.74 3595,-532.74 3590.5,-537.74 3595,-527.74 3595,-527.74"/>
</g>
<!-- JarParseCatalog -->
<g id="node28" class="node">
<title>JarParseCatalog</title>
<polygon fill="none" stroke="black" points="2857,-697.5 2857,-718.5 2991,-718.5 2991,-697.5 2857,-697.5"/>
<text text-anchor="start" x="2860" y="-705.3" font-family="Times,serif" font-weight="bold" font-size="14.00">JarParseCatalog</text>
<polygon fill="none" stroke="black" points="2856,-697 2856,-720 2992,-720 2992,-697 2856,-697"/>
</g>
<!-- JarParseCatalog&#45;&gt;ParseCatalog -->
<g id="edge18" class="edge">
<title>JarParseCatalog&#45;&gt;ParseCatalog</title>
<path fill="none" stroke="black" d="M2924,-690.36C2924,-661.48 2924,-602.08 2924,-559.44"/>
<polygon fill="none" stroke="black" points="2927.5,-559.26 2924,-549.26 2920.5,-559.26 2927.5,-559.26"/>
</g>
<!-- LocalFolderParseCatalog -->
<g id="node29" class="node">
<title>LocalFolderParseCatalog</title>
<polygon fill="none" stroke="black" points="3027,-697.5 3027,-718.5 3229,-718.5 3229,-697.5 3027,-697.5"/>
<text text-anchor="start" x="3030" y="-705.3" font-family="Times,serif" font-weight="bold" font-size="14.00">LocalFolderParseCatalog</text>
<polygon fill="none" stroke="black" points="3026,-697 3026,-720 3230,-720 3230,-697 3026,-697"/>
</g>
<!-- LocalFolderParseCatalog&#45;&gt;ParseCatalog -->
<g id="edge19" class="edge">
<title>LocalFolderParseCatalog&#45;&gt;ParseCatalog</title>
<path fill="none" stroke="black" d="M3110.25,-690.36C3079.58,-660.74 3015.7,-599.05 2971.36,-556.23"/>
<polygon fill="none" stroke="black" points="2973.77,-553.69 2964.14,-549.26 2968.9,-558.73 2973.77,-553.69"/>
</g>
<!-- ProcessFile -->
<g id="node30" class="node">
<title>ProcessFile</title>
<polygon fill="none" stroke="black" points="4169,-697.5 4169,-718.5 4266,-718.5 4266,-697.5 4169,-697.5"/>
<text text-anchor="start" x="4172" y="-705.3" font-family="Times,serif" font-weight="bold" font-size="14.00">ProcessFile</text>
<polygon fill="none" stroke="black" points="4167.5,-697 4167.5,-720 4266.5,-720 4266.5,-697 4167.5,-697"/>
</g>
<!-- ViewDefinitionParseCatalog -->
<g id="node31" class="node">
<title>ViewDefinitionParseCatalog</title>
<polygon fill="none" stroke="black" points="3265,-697.5 3265,-718.5 3491,-718.5 3491,-697.5 3265,-697.5"/>
<text text-anchor="start" x="3268" y="-705.3" font-family="Times,serif" font-weight="bold" font-size="14.00">ViewDefinitionParseCatalog</text>
<polygon fill="none" stroke="black" points="3264,-697 3264,-720 3492,-720 3492,-697 3264,-697"/>
</g>
<!-- ViewDefinitionParseCatalog&#45;&gt;ParseCatalog -->
<g id="edge20" class="edge">
<title>ViewDefinitionParseCatalog&#45;&gt;ParseCatalog</title>
<path fill="none" stroke="black" stroke-dasharray="5,2" d="M3361.91,-690.18C3338.75,-666.23 3293.64,-623.25 3247,-599 3204.38,-576.83 3155.63,-559.76 3109.14,-546.79"/>
<polygon fill="black" stroke="black" points="3099.25,-544.09 3110.09,-542.39 3104.08,-545.41 3108.9,-546.73 3108.9,-546.73 3108.9,-546.73 3104.08,-545.41 3107.71,-551.07 3099.25,-544.09 3099.25,-544.09"/>
</g>
<!-- Parameter -->
<g id="node32" class="node">
<title>Parameter</title>
<polygon fill="none" stroke="black" points="4302,-791.5 4302,-812.5 4462,-812.5 4462,-791.5 4302,-791.5"/>
<text text-anchor="start" x="4340" y="-799.3" font-family="Times,serif" font-weight="bold" font-size="14.00">Parameter</text>
<polygon fill="none" stroke="black" points="4302,-603.5 4302,-791.5 4462,-791.5 4462,-603.5 4302,-603.5"/>
<text text-anchor="start" x="4344" y="-778.3" font-family="Times,serif" font-style="italic" font-size="14.00">Properties</text>
<text text-anchor="start" x="4305" y="-764.3" font-family="Times,serif" font-size="14.00">description:String</text>
<text text-anchor="start" x="4305" y="-750.3" font-family="Times,serif" font-size="14.00">title:String</text>
<text text-anchor="start" x="4305" y="-736.3" font-family="Times,serif" font-size="14.00">id:String</text>
<text text-anchor="start" x="4305" y="-722.3" font-family="Times,serif" font-size="14.00">value:Object</text>
<text text-anchor="start" x="4305" y="-708.3" font-family="Times,serif" font-size="14.00">default:Object</text>
<text text-anchor="start" x="4305" y="-694.3" font-family="Times,serif" font-size="14.00">type:String</text>
<text text-anchor="start" x="4305" y="-680.3" font-family="Times,serif" font-size="14.00">path:Boolean</text>
<text text-anchor="start" x="4305" y="-666.3" font-family="Times,serif" font-size="14.00">nullable:Boolean</text>
<text text-anchor="start" x="4305" y="-652.3" font-family="Times,serif" font-size="14.00">enum:Object[]</text>
<text text-anchor="start" x="4305" y="-638.3" font-family="Times,serif" font-size="14.00">examples:Object[]</text>
<text text-anchor="start" x="4305" y="-624.3" font-family="Times,serif" font-size="14.00">pathOrder:Integer</text>
<text text-anchor="start" x="4305" y="-610.3" font-family="Times,serif" font-size="14.00">pathSeparator:String</text>
<polygon fill="none" stroke="black" points="4301,-603 4301,-814 4463,-814 4463,-603 4301,-603"/>
</g>
<!-- Step -->
<g id="node33" class="node">
<title>Step</title>
<polygon fill="none" stroke="black" points="991,-250.5 991,-271.5 1197,-271.5 1197,-250.5 991,-250.5"/>
<text text-anchor="start" x="1076" y="-258.3" font-family="Times,serif" font-weight="bold" font-size="14.00">Step</text>
<polygon fill="none" stroke="black" points="991,-76.5 991,-250.5 1197,-250.5 1197,-76.5 991,-76.5"/>
<text text-anchor="start" x="1056" y="-237.3" font-family="Times,serif" font-style="italic" font-size="14.00">Properties</text>
<text text-anchor="start" x="994" y="-223.3" font-family="Times,serif" font-size="14.00">description:String</text>
<text text-anchor="start" x="994" y="-209.3" font-family="Times,serif" font-size="14.00">title:String</text>
<text text-anchor="start" x="994" y="-195.3" font-family="Times,serif" font-size="14.00">parameters:List[Parameter]</text>
<text text-anchor="start" x="994" y="-181.3" font-family="Times,serif" font-size="14.00">icon:String</text>
<text text-anchor="start" x="994" y="-167.3" font-family="Times,serif" font-size="14.00">UUID:String</text>
<text text-anchor="start" x="994" y="-153.3" font-family="Times,serif" font-size="14.00">required:String[]</text>
<text text-anchor="start" x="994" y="-139.3" font-family="Times,serif" font-size="14.00">group:String</text>
<text text-anchor="start" x="994" y="-125.3" font-family="Times,serif" font-size="14.00">kind:String</text>
<text text-anchor="start" x="994" y="-111.3" font-family="Times,serif" font-size="14.00">branches:Branch[]</text>
<text text-anchor="start" x="994" y="-97.3" font-family="Times,serif" font-size="14.00">minBranches:Integer</text>
<text text-anchor="start" x="994" y="-83.3" font-family="Times,serif" font-size="14.00">maxBranches:Integer</text>
<polygon fill="none" stroke="black" points="990,-76 990,-273 1198,-273 1198,-76 990,-76"/>
</g>
<!-- Step&#45;&gt;Metadata -->
<g id="edge21" class="edge">
<title>Step&#45;&gt;Metadata</title>
<path fill="none" stroke="black" d="M1206.05,-122.53C1245.99,-105.32 1291.59,-86.75 1334,-72 1380.32,-55.89 1434.25,-41.36 1473.14,-31.61"/>
<polygon fill="none" stroke="black" points="1474.32,-34.92 1483.18,-29.11 1472.63,-28.13 1474.32,-34.92"/>
</g>
<!-- ViewDefinition -->
<g id="node34" class="node">
<title>ViewDefinition</title>
<polygon fill="none" stroke="black" points="1755,-201.5 1755,-222.5 2064,-222.5 2064,-201.5 1755,-201.5"/>
<text text-anchor="start" x="1851.5" y="-209.3" font-family="Times,serif" font-weight="bold" font-size="14.00">ViewDefinition</text>
<polygon fill="none" stroke="black" points="1755,-125.5 1755,-201.5 2064,-201.5 2064,-125.5 1755,-125.5"/>
<text text-anchor="start" x="1871.5" y="-188.3" font-family="Times,serif" font-style="italic" font-size="14.00">Properties</text>
<text text-anchor="start" x="1758" y="-174.3" font-family="Times,serif" font-size="14.00">properties:Map[String, String]</text>
<text text-anchor="start" x="1758" y="-160.3" font-family="Times,serif" font-size="14.00">step:Step</text>
<text text-anchor="start" x="1758" y="-146.3" font-family="Times,serif" font-size="14.00">url:String</text>
<text text-anchor="start" x="1758" y="-132.3" font-family="Times,serif" font-size="14.00">constraints:List[ViewDefinitionConstraint]</text>
<polygon fill="none" stroke="black" points="1753.5,-125 1753.5,-224 2064.5,-224 2064.5,-125 1753.5,-125"/>
</g>
<!-- ViewDefinition&#45;&gt;Metadata -->
<g id="edge22" class="edge">
<title>ViewDefinition&#45;&gt;Metadata</title>
<path fill="none" stroke="black" d="M1819.61,-120.79C1788.19,-103.68 1752.19,-85.61 1718,-72 1672.19,-53.76 1617.85,-39.4 1578.69,-30.25"/>
<polygon fill="none" stroke="black" points="1579.35,-26.81 1568.82,-27.98 1577.78,-33.63 1579.35,-26.81"/>
</g>
<!-- ViewDefinitionConstraint -->
<g id="node35" class="node">
<title>ViewDefinitionConstraint</title>
<text text-anchor="middle" x="1909" y="-362.8" font-family="Times,serif" font-size="14.00">ViewDefinitionConstraint</text>
</g>
<!-- ViewDefinitionConstraint&#45;&gt;ViewDefinition -->
<g id="edge23" class="edge">
<title>ViewDefinitionConstraint&#45;&gt;ViewDefinition</title>
<path fill="none" stroke="black" d="M1909,-348.3C1909,-324.07 1909,-278.56 1909,-240.32"/>
<polygon fill="black" stroke="black" points="1909,-240.2 1905,-234.2 1909,-228.2 1913,-234.2 1909,-240.2"/>
<text text-anchor="middle" x="1895" y="-337.1" font-family="Times,serif" font-size="14.00">0..n</text>
</g>
<!-- StepParserService -->
<g id="node36" class="node">
<title>StepParserService</title>
<polygon fill="none" stroke="black" points="848,-393.5 848,-414.5 1103,-414.5 1103,-393.5 848,-393.5"/>
<text text-anchor="start" x="903" y="-401.3" font-family="Times,serif" font-weight="bold" font-size="14.00">StepParserService</text>
<polygon fill="none" stroke="black" points="848,-317.5 848,-393.5 1103,-393.5 1103,-317.5 848,-317.5"/>
<text text-anchor="start" x="944" y="-380.3" font-family="Times,serif" font-style="italic" font-size="14.00">Methods</text>
<text text-anchor="start" x="851" y="-366.3" font-family="Times,serif" font-size="14.00">identifier():String</text>
<text text-anchor="start" x="851" y="-352.3" font-family="Times,serif" font-size="14.00">description():String</text>
<text text-anchor="start" x="851" y="-338.3" font-family="Times,serif" font-size="14.00">parse(&lt;String&gt; yaml):ParseResult</text>
<text text-anchor="start" x="851" y="-324.3" font-family="Times,serif" font-size="14.00">appliesTo(&lt;String&gt; yaml):boolean</text>
<polygon fill="none" stroke="black" points="846.5,-317 846.5,-416 1103.5,-416 1103.5,-317 846.5,-317"/>
</g>
<!-- StepParserService&#45;&gt;Step -->
<g id="edge24" class="edge">
<title>StepParserService&#45;&gt;Step</title>
<path fill="none" stroke="black" stroke-dasharray="5,2" d="M1007.99,-312.83C1013.36,-304.25 1019.1,-295.1 1024.96,-285.74"/>
<polygon fill="black" stroke="black" points="1030.37,-277.1 1028.87,-287.96 1027.71,-281.34 1025.06,-285.57 1025.06,-285.57 1025.06,-285.57 1027.71,-281.34 1021.25,-283.18 1030.37,-277.1 1030.37,-277.1"/>
</g>
<!-- ViewDefinitionParserService -->
<g id="node37" class="node">
<title>ViewDefinitionParserService</title>
<polygon fill="none" stroke="black" points="2035,-393.5 2035,-414.5 2633,-414.5 2633,-393.5 2035,-393.5"/>
<text text-anchor="start" x="2221.5" y="-401.3" font-family="Times,serif" font-weight="bold" font-size="14.00">ViewDefinitionParserService</text>
<polygon fill="none" stroke="black" points="2035,-317.5 2035,-393.5 2633,-393.5 2633,-317.5 2035,-317.5"/>
<text text-anchor="start" x="2302.5" y="-380.3" font-family="Times,serif" font-style="italic" font-size="14.00">Methods</text>
<text text-anchor="start" x="2038" y="-366.3" font-family="Times,serif" font-size="14.00">parse(&lt;List[Step]&gt; steps):List[ViewDefinition]</text>
<text text-anchor="start" x="2038" y="-352.3" font-family="Times,serif" font-size="14.00">getViewsPerStep(&lt;List[Step]&gt; steps, &lt;ViewDefinition&gt; view):List[ViewDefinition]</text>
<text text-anchor="start" x="2038" y="-338.3" font-family="Times,serif" font-size="14.00">appliesTo(&lt;List[Step]&gt; steps, &lt;ViewDefinition&gt; viewDefinition):boolean</text>
<text text-anchor="start" x="2038" y="-324.3" font-family="Times,serif" font-size="14.00">appliesToStep(&lt;Step&gt; steps, &lt;ViewDefinition&gt; viewDefinition):boolean</text>
<polygon fill="none" stroke="black" points="2034,-317 2034,-416 2634,-416 2634,-317 2034,-317"/>
</g>
<!-- ViewDefinitionParserService&#45;&gt;ViewDefinition -->
<g id="edge25" class="edge">
<title>ViewDefinitionParserService&#45;&gt;ViewDefinition</title>
<path fill="none" stroke="black" stroke-dasharray="5,2" d="M2216.46,-312.95C2160.37,-287.88 2093.18,-257.84 2035.93,-232.24"/>
<polygon fill="black" stroke="black" points="2026.46,-228.01 2037.43,-227.99 2031.03,-230.05 2035.59,-232.09 2035.59,-232.09 2035.59,-232.09 2031.03,-230.05 2033.76,-236.2 2026.46,-228.01 2026.46,-228.01"/>
</g>
</g>
</svg>
