<?xml version="1.0" encoding="UTF-8" standalone="no"?>
<!DOCTYPE svg PUBLIC "-//W3C//DTD SVG 1.1//EN"
 "http://www.w3.org/Graphics/SVG/1.1/DTD/svg11.dtd">
<!-- Generated by graphviz version 2.43.0 (0)
 -->
<!-- Title: ClassDiagram Pages: 1 -->
<svg width="3555pt" height="628pt"
 viewBox="0.00 0.00 3555.09 628.00" xmlns="http://www.w3.org/2000/svg" xmlns:xlink="http://www.w3.org/1999/xlink">
<g id="graph0" class="graph" transform="scale(1 1) rotate(0) translate(4 624)">
<title>ClassDiagram</title>
<polygon fill="white" stroke="transparent" points="-4,4 -4,-624 3551.09,-624 3551.09,4 -4,4"/>
<!-- AbstractCatalog -->
<g id="node1" class="node">
<title>AbstractCatalog</title>
<polygon fill="none" stroke="black" points="49,-373.5 49,-394.5 327,-394.5 327,-373.5 49,-373.5"/>
<text text-anchor="start" x="124.5" y="-381.3" font-family="Times,serif" font-weight="bold" font-size="14.00">AbstractCatalog</text>
<polygon fill="none" stroke="black" points="49,-325.5 49,-373.5 327,-373.5 327,-325.5 49,-325.5"/>
<text text-anchor="start" x="156.5" y="-360.3" font-family="Times,serif" font-style="italic" font-size="14.00">Methods</text>
<text text-anchor="start" x="52" y="-346.3" font-family="Times,serif" font-size="14.00">waitForWarmUp():CompletableFuture</text>
<text text-anchor="start" x="52" y="-332.3" font-family="Times,serif" font-size="14.00">loadParsers():List[ParseCatalog]</text>
<polygon fill="none" stroke="black" points="48,-325 48,-396 328,-396 328,-325 48,-325"/>
</g>
<!-- MetadataCatalog -->
<g id="node2" class="node">
<title>MetadataCatalog</title>
<polygon fill="none" stroke="black" points="308,-209.5 308,-230.5 651,-230.5 651,-209.5 308,-209.5"/>
<text text-anchor="start" x="411.5" y="-217.3" font-family="Times,serif" font-weight="bold" font-size="14.00">MetadataCatalog</text>
<polygon fill="none" stroke="black" points="308,-133.5 308,-209.5 651,-209.5 651,-133.5 308,-133.5"/>
<text text-anchor="start" x="448" y="-196.3" font-family="Times,serif" font-style="italic" font-size="14.00">Methods</text>
<text text-anchor="start" x="311" y="-182.3" font-family="Times,serif" font-size="14.00">searchStepByID(&lt;String&gt; id):Metadata</text>
<text text-anchor="start" x="311" y="-168.3" font-family="Times,serif" font-size="14.00">searchStepByName(&lt;String&gt; name):Metadata</text>
<text text-anchor="start" x="311" y="-154.3" font-family="Times,serif" font-size="14.00">store(&lt;List[Step]&gt; steps):boolean</text>
<text text-anchor="start" x="311" y="-140.3" font-family="Times,serif" font-size="14.00">getAll():List[Metadata]</text>
<polygon fill="none" stroke="black" points="306.5,-133 306.5,-232 651.5,-232 651.5,-133 306.5,-133"/>
</g>
<!-- AbstractCatalog&#45;&gt;MetadataCatalog -->
<g id="edge1" class="edge">
<title>AbstractCatalog&#45;&gt;MetadataCatalog</title>
<path fill="none" stroke="black" stroke-dasharray="5,2" d="M251.86,-320.88C290.37,-297.59 340.15,-267.48 383.29,-241.39"/>
<polygon fill="black" stroke="black" points="392.11,-236.05 385.88,-245.08 387.83,-238.64 383.55,-241.23 383.55,-241.23 383.55,-241.23 387.83,-238.64 381.22,-237.38 392.11,-236.05 392.11,-236.05"/>
</g>
<!-- Metadata -->
<g id="node13" class="node">
<title>Metadata</title>
<polygon fill="none" stroke="black" points="1489,-66.5 1489,-87.5 1584,-87.5 1584,-66.5 1489,-66.5"/>
<text text-anchor="start" x="1498.5" y="-74.3" font-family="Times,serif" font-weight="bold" font-size="14.00">Metadata</text>
<polygon fill="none" stroke="black" points="1489,-4.5 1489,-66.5 1584,-66.5 1584,-4.5 1489,-4.5"/>
<text text-anchor="start" x="1498.5" y="-53.3" font-family="Times,serif" font-style="italic" font-size="14.00">Properties</text>
<text text-anchor="start" x="1492" y="-39.3" font-family="Times,serif" font-size="14.00">ID:String</text>
<text text-anchor="start" x="1492" y="-25.3" font-family="Times,serif" font-size="14.00">name:String</text>
<text text-anchor="start" x="1492" y="-11.3" font-family="Times,serif" font-size="14.00">type:String</text>
<polygon fill="none" stroke="black" points="1487.5,-4 1487.5,-89 1584.5,-89 1584.5,-4 1487.5,-4"/>
</g>
<!-- MetadataCatalog&#45;&gt;Metadata -->
<g id="edge13" class="edge">
<title>MetadataCatalog&#45;&gt;Metadata</title>
<path fill="none" stroke="black" stroke-dasharray="5,2" d="M659.69,-138.33C676.98,-134.89 694.29,-131.71 711,-129 990.81,-83.7 1328.38,-59.86 1469.22,-51.28"/>
<polygon fill="black" stroke="black" points="1479.42,-50.66 1469.71,-55.76 1474.43,-50.96 1469.44,-51.26 1469.44,-51.26 1469.44,-51.26 1474.43,-50.96 1469.17,-46.77 1479.42,-50.66 1479.42,-50.66"/>
</g>
<!-- StepCatalog -->
<g id="node3" class="node">
<title>StepCatalog</title>
<polygon fill="none" stroke="black" points="830,-541.5 830,-562.5 932,-562.5 932,-541.5 830,-541.5"/>
<text text-anchor="start" x="833" y="-549.3" font-family="Times,serif" font-weight="bold" font-size="14.00">StepCatalog</text>
<polygon fill="none" stroke="black" points="829,-541 829,-564 933,-564 933,-541 829,-541"/>
</g>
<!-- StepCatalog&#45;&gt;AbstractCatalog -->
<g id="edge2" class="edge">
<title>StepCatalog&#45;&gt;AbstractCatalog</title>
<path fill="none" stroke="black" d="M845.34,-534.43C811.17,-518.87 757.74,-496.61 709,-485 550.85,-447.34 500.14,-497.59 345,-449 312.89,-438.94 279.98,-421.83 252.63,-405.4"/>
<polygon fill="none" stroke="black" points="254.31,-402.33 243.96,-400.1 250.66,-408.3 254.31,-402.33"/>
</g>
<!-- Step -->
<g id="node4" class="node">
<title>Step</title>
<polygon fill="none" stroke="black" points="1267,-188.5 1267,-209.5 1380,-209.5 1380,-188.5 1267,-188.5"/>
<text text-anchor="start" x="1305.5" y="-196.3" font-family="Times,serif" font-weight="bold" font-size="14.00">Step</text>
<polygon fill="none" stroke="black" points="1267,-154.5 1267,-188.5 1380,-188.5 1380,-154.5 1267,-154.5"/>
<text text-anchor="start" x="1285.5" y="-175.3" font-family="Times,serif" font-style="italic" font-size="14.00">Properties</text>
<text text-anchor="start" x="1270" y="-161.3" font-family="Times,serif" font-size="14.00">subtype:String</text>
<polygon fill="none" stroke="black" points="1265.5,-154 1265.5,-211 1380.5,-211 1380.5,-154 1265.5,-154"/>
</g>
<!-- StepCatalog&#45;&gt;Step -->
<g id="edge3" class="edge">
<title>StepCatalog&#45;&gt;Step</title>
<path fill="none" stroke="black" stroke-dasharray="5,2" d="M929.97,-534.45C968.73,-518.41 1021.16,-490.58 1051,-449 1097.97,-383.56 1037.35,-332.97 1090,-272 1129.57,-226.18 1195.49,-204.01 1247.14,-193.32"/>
<polygon fill="black" stroke="black" points="1257.26,-191.33 1248.32,-197.68 1252.36,-192.3 1247.45,-193.26 1247.45,-193.26 1247.45,-193.26 1252.36,-192.3 1246.58,-188.84 1257.26,-191.33 1257.26,-191.33"/>
</g>
<!-- StepService -->
<g id="node8" class="node">
<title>StepService</title>
<polygon fill="none" stroke="black" points="729,-380.5 729,-401.5 1033,-401.5 1033,-380.5 729,-380.5"/>
<text text-anchor="start" x="834.5" y="-388.3" font-family="Times,serif" font-weight="bold" font-size="14.00">StepService</text>
<polygon fill="none" stroke="black" points="729,-318.5 729,-380.5 1033,-380.5 1033,-318.5 729,-318.5"/>
<text text-anchor="start" x="849.5" y="-367.3" font-family="Times,serif" font-style="italic" font-size="14.00">Methods</text>
<text text-anchor="start" x="732" y="-353.3" font-family="Times,serif" font-size="14.00">stepById(&lt;String&gt; id):Step</text>
<text text-anchor="start" x="732" y="-339.3" font-family="Times,serif" font-size="14.00">stepsByName(&lt;String&gt; name):List[Step]</text>
<text text-anchor="start" x="732" y="-325.3" font-family="Times,serif" font-size="14.00">allSteps():List[Step]</text>
<polygon fill="none" stroke="black" points="728,-318 728,-403 1034,-403 1034,-318 728,-318"/>
</g>
<!-- StepCatalog&#45;&gt;StepService -->
<g id="edge10" class="edge">
<title>StepCatalog&#45;&gt;StepService</title>
<path fill="none" stroke="black" d="M881,-534.3C881,-508.61 881,-459.01 881,-419.51"/>
<polygon fill="black" stroke="black" points="881,-419.35 877,-413.35 881,-407.35 885,-413.35 881,-419.35"/>
<text text-anchor="middle" x="867" y="-523.1" font-family="Times,serif" font-size="14.00">0..1</text>
</g>
<!-- Step&#45;&gt;Metadata -->
<g id="edge24" class="edge">
<title>Step&#45;&gt;Metadata</title>
<path fill="none" stroke="black" d="M1373.21,-149.91C1402.33,-131.6 1439.32,-108.32 1470.68,-88.59"/>
<polygon fill="none" stroke="black" points="1472.77,-91.41 1479.37,-83.13 1469.04,-85.49 1472.77,-91.41"/>
</g>
<!-- ViewDefinitionCatalog -->
<g id="node5" class="node">
<title>ViewDefinitionCatalog</title>
<polygon fill="none" stroke="black" points="9,-541.5 9,-562.5 191,-562.5 191,-541.5 9,-541.5"/>
<text text-anchor="start" x="12" y="-549.3" font-family="Times,serif" font-weight="bold" font-size="14.00">ViewDefinitionCatalog</text>
<polygon fill="none" stroke="black" points="8,-541 8,-564 192,-564 192,-541 8,-541"/>
</g>
<!-- ViewDefinitionCatalog&#45;&gt;AbstractCatalog -->
<g id="edge4" class="edge">
<title>ViewDefinitionCatalog&#45;&gt;AbstractCatalog</title>
<path fill="none" stroke="black" d="M107.96,-534.3C120.92,-506.34 147,-450.03 165.87,-409.27"/>
<polygon fill="none" stroke="black" points="169.12,-410.6 170.14,-400.05 162.76,-407.66 169.12,-410.6"/>
</g>
<!-- ViewDefinition -->
<g id="node6" class="node">
<title>ViewDefinition</title>
<polygon fill="none" stroke="black" points="1506,-202.5 1506,-223.5 1815,-223.5 1815,-202.5 1506,-202.5"/>
<text text-anchor="start" x="1602.5" y="-210.3" font-family="Times,serif" font-weight="bold" font-size="14.00">ViewDefinition</text>
<polygon fill="none" stroke="black" points="1506,-140.5 1506,-202.5 1815,-202.5 1815,-140.5 1506,-140.5"/>
<text text-anchor="start" x="1622.5" y="-189.3" font-family="Times,serif" font-style="italic" font-size="14.00">Properties</text>
<text text-anchor="start" x="1509" y="-175.3" font-family="Times,serif" font-size="14.00">steps:List[Step]</text>
<text text-anchor="start" x="1509" y="-161.3" font-family="Times,serif" font-size="14.00">properties:Map[String, String]</text>
<text text-anchor="start" x="1509" y="-147.3" font-family="Times,serif" font-size="14.00">constraints:List[ViewDefinitionConstraint]</text>
<polygon fill="none" stroke="black" points="1504.5,-140 1504.5,-225 1815.5,-225 1815.5,-140 1504.5,-140"/>
</g>
<!-- ViewDefinitionCatalog&#45;&gt;ViewDefinition -->
<g id="edge5" class="edge">
<title>ViewDefinitionCatalog&#45;&gt;ViewDefinition</title>
<path fill="none" stroke="black" stroke-dasharray="5,2" d="M83.65,-534.34C66.7,-515.25 41.27,-482.65 31,-449 8.03,-373.76 -23.89,-328.35 31,-272 84.01,-217.58 1322.51,-244.49 1398,-236 1426.79,-232.76 1457.12,-227.98 1486.52,-222.6"/>
<polygon fill="black" stroke="black" points="1496.46,-220.75 1487.45,-227 1491.54,-221.67 1486.63,-222.58 1486.63,-222.58 1486.63,-222.58 1491.54,-221.67 1485.81,-218.16 1496.46,-220.75 1496.46,-220.75"/>
</g>
<!-- ViewDefinition&#45;&gt;Metadata -->
<g id="edge27" class="edge">
<title>ViewDefinition&#45;&gt;Metadata</title>
<path fill="none" stroke="black" d="M1617.67,-135.76C1607.2,-124.44 1595.89,-112.22 1585.12,-100.58"/>
<polygon fill="none" stroke="black" points="1587.5,-98 1578.14,-93.03 1582.36,-102.75 1587.5,-98"/>
</g>
<!-- StepResource -->
<g id="node7" class="node">
<title>StepResource</title>
<polygon fill="none" stroke="black" points="729,-202.5 729,-223.5 1033,-223.5 1033,-202.5 729,-202.5"/>
<text text-anchor="start" x="826.5" y="-210.3" font-family="Times,serif" font-weight="bold" font-size="14.00">StepResource</text>
<polygon fill="none" stroke="black" points="729,-140.5 729,-202.5 1033,-202.5 1033,-140.5 729,-140.5"/>
<text text-anchor="start" x="849.5" y="-189.3" font-family="Times,serif" font-style="italic" font-size="14.00">Methods</text>
<text text-anchor="start" x="732" y="-175.3" font-family="Times,serif" font-size="14.00">stepById(&lt;String&gt; id):Step</text>
<text text-anchor="start" x="732" y="-161.3" font-family="Times,serif" font-size="14.00">stepsByName(&lt;String&gt; name):List[Step]</text>
<text text-anchor="start" x="732" y="-147.3" font-family="Times,serif" font-size="14.00">allSteps():List[Step]</text>
<polygon fill="none" stroke="black" points="728,-140 728,-225 1034,-225 1034,-140 728,-140"/>
</g>
<!-- StepService&#45;&gt;StepResource -->
<g id="edge6" class="edge">
<title>StepService&#45;&gt;StepResource</title>
<path fill="none" stroke="black" d="M881,-313.72C881,-291.62 881,-264.86 881,-241.36"/>
<polygon fill="black" stroke="black" points="881,-241.05 877,-235.05 881,-229.05 885,-235.05 881,-241.05"/>
<text text-anchor="middle" x="867" y="-302.52" font-family="Times,serif" font-size="14.00">0..1</text>
</g>
<!-- ViewDefinitionResource -->
<g id="node9" class="node">
<title>ViewDefinitionResource</title>
<polygon fill="none" stroke="black" points="1959,-366.5 1959,-387.5 2155,-387.5 2155,-366.5 1959,-366.5"/>
<text text-anchor="start" x="1962" y="-374.3" font-family="Times,serif" font-weight="bold" font-size="14.00">ViewDefinitionResource</text>
<polygon fill="none" stroke="black" points="1959,-332.5 1959,-366.5 2155,-366.5 2155,-332.5 1959,-332.5"/>
<text text-anchor="start" x="2025.5" y="-353.3" font-family="Times,serif" font-style="italic" font-size="14.00">Methods</text>
<text text-anchor="start" x="1972.5" y="-339.3" font-family="Times,serif" font-size="14.00">views:(&lt;String&gt; yaml):</text>
<polygon fill="none" stroke="black" points="1958,-332 1958,-389 2156,-389 2156,-332 1958,-332"/>
</g>
<!-- ViewDefinitionService -->
<g id="node10" class="node">
<title>ViewDefinitionService</title>
<polygon fill="none" stroke="black" points="1504,-558.5 1504,-579.5 1816,-579.5 1816,-558.5 1504,-558.5"/>
<text text-anchor="start" x="1573.5" y="-566.3" font-family="Times,serif" font-weight="bold" font-size="14.00">ViewDefinitionService</text>
<polygon fill="none" stroke="black" points="1504,-524.5 1504,-558.5 1816,-558.5 1816,-524.5 1504,-524.5"/>
<text text-anchor="start" x="1628.5" y="-545.3" font-family="Times,serif" font-style="italic" font-size="14.00">Methods</text>
<text text-anchor="start" x="1507" y="-531.3" font-family="Times,serif" font-size="14.00">views(&lt;String&gt; yaml):List[ViewDefinition]</text>
<polygon fill="none" stroke="black" points="1503,-524 1503,-581 1817,-581 1817,-524 1503,-524"/>
</g>
<!-- ViewDefinitionService&#45;&gt;ViewDefinitionResource -->
<g id="edge7" class="edge">
<title>ViewDefinitionService&#45;&gt;ViewDefinitionResource</title>
<path fill="none" stroke="black" d="M1769.33,-519.99C1822.72,-502.54 1886.94,-478.39 1941,-449 1965.78,-435.53 1991.03,-417.14 2011.63,-400.69"/>
<polygon fill="black" stroke="black" points="2011.73,-400.61 2013.86,-393.73 2021.04,-393.05 2018.9,-399.94 2011.73,-400.61"/>
<text text-anchor="middle" x="1755.33" y="-508.79" font-family="Times,serif" font-size="14.00">0..1</text>
</g>
<!-- StepParserService -->
<g id="node11" class="node">
<title>StepParserService</title>
<polygon fill="none" stroke="black" points="1108,-373.5 1108,-394.5 1361,-394.5 1361,-373.5 1108,-373.5"/>
<text text-anchor="start" x="1162" y="-381.3" font-family="Times,serif" font-weight="bold" font-size="14.00">StepParserService</text>
<polygon fill="none" stroke="black" points="1108,-325.5 1108,-373.5 1361,-373.5 1361,-325.5 1108,-325.5"/>
<text text-anchor="start" x="1203" y="-360.3" font-family="Times,serif" font-style="italic" font-size="14.00">Methods</text>
<text text-anchor="start" x="1111" y="-346.3" font-family="Times,serif" font-size="14.00">parse(&lt;String&gt; yaml):List[Step]</text>
<text text-anchor="start" x="1111" y="-332.3" font-family="Times,serif" font-size="14.00">appliesTo(&lt;String&gt; yaml):boolean</text>
<polygon fill="none" stroke="black" points="1106.5,-325 1106.5,-396 1361.5,-396 1361.5,-325 1106.5,-325"/>
</g>
<!-- ViewDefinitionService&#45;&gt;StepParserService -->
<g id="edge11" class="edge">
<title>ViewDefinitionService&#45;&gt;StepParserService</title>
<path fill="none" stroke="black" stroke-dasharray="5,2" d="M1558.91,-519.91C1504.55,-501.61 1436.97,-476.74 1379,-449 1352.66,-436.4 1324.94,-420.4 1300.87,-405.55"/>
<polygon fill="black" stroke="black" points="1292.18,-400.14 1303.04,-401.6 1296.42,-402.78 1300.67,-405.42 1300.67,-405.42 1300.67,-405.42 1296.42,-402.78 1298.29,-409.24 1292.18,-400.14 1292.18,-400.14"/>
</g>
<!-- ViewParserService -->
<g id="node12" class="node">
<title>ViewParserService</title>
<polygon fill="none" stroke="black" points="1397,-373.5 1397,-394.5 1923,-394.5 1923,-373.5 1397,-373.5"/>
<text text-anchor="start" x="1587" y="-381.3" font-family="Times,serif" font-weight="bold" font-size="14.00">ViewParserService</text>
<polygon fill="none" stroke="black" points="1397,-325.5 1397,-373.5 1923,-373.5 1923,-325.5 1397,-325.5"/>
<text text-anchor="start" x="1628.5" y="-360.3" font-family="Times,serif" font-style="italic" font-size="14.00">Methods</text>
<text text-anchor="start" x="1400" y="-346.3" font-family="Times,serif" font-size="14.00">parse(&lt;List[Step]&gt; steps):List[ViewDefinition]</text>
<text text-anchor="start" x="1400" y="-332.3" font-family="Times,serif" font-size="14.00">appliesTo(&lt;List[Step]&gt; steps, &lt;ViewDefinition&gt; viewDefinition):boolean</text>
<polygon fill="none" stroke="black" points="1396,-325 1396,-396 1924,-396 1924,-325 1396,-325"/>
</g>
<!-- ViewDefinitionService&#45;&gt;ViewParserService -->
<g id="edge12" class="edge">
<title>ViewDefinitionService&#45;&gt;ViewParserService</title>
<path fill="none" stroke="black" stroke-dasharray="5,2" d="M1660,-519.7C1660,-489.92 1660,-444.99 1660,-410.61"/>
<polygon fill="black" stroke="black" points="1660,-400.31 1664.5,-410.31 1660,-405.31 1660,-410.31 1660,-410.31 1660,-410.31 1660,-405.31 1655.5,-410.31 1660,-400.31 1660,-400.31"/>
</g>
<!-- StepParserService&#45;&gt;Step -->
<g id="edge8" class="edge">
<title>StepParserService&#45;&gt;Step</title>
<path fill="none" stroke="black" stroke-dasharray="5,2" d="M1253.53,-320.88C1267.98,-292.3 1287.63,-253.45 1302.34,-224.35"/>
<polygon fill="black" stroke="black" points="1306.93,-215.27 1306.44,-226.23 1304.68,-219.73 1302.42,-224.2 1302.42,-224.2 1302.42,-224.2 1304.68,-219.73 1298.4,-222.17 1306.93,-215.27 1306.93,-215.27"/>
</g>
<!-- ViewParserService&#45;&gt;ViewDefinition -->
<g id="edge9" class="edge">
<title>ViewParserService&#45;&gt;ViewDefinition</title>
<path fill="none" stroke="black" stroke-dasharray="5,2" d="M1660,-320.88C1660,-297.02 1660,-266.02 1660,-239.5"/>
<polygon fill="black" stroke="black" points="1660,-229.2 1664.5,-239.2 1660,-234.2 1660,-239.2 1660,-239.2 1660,-239.2 1660,-234.2 1655.5,-239.2 1660,-229.2 1660,-229.2"/>
</g>
<!-- ParseCatalog -->
<g id="node14" class="node">
<title>ParseCatalog</title>
<polygon fill="none" stroke="black" points="2409,-188.5 2409,-209.5 2666,-209.5 2666,-188.5 2409,-188.5"/>
<text text-anchor="start" x="2485" y="-196.3" font-family="Times,serif" font-weight="bold" font-size="14.00">ParseCatalog</text>
<polygon fill="none" stroke="black" points="2409,-154.5 2409,-188.5 2666,-188.5 2666,-154.5 2409,-154.5"/>
<text text-anchor="start" x="2506" y="-175.3" font-family="Times,serif" font-style="italic" font-size="14.00">Methods</text>
<text text-anchor="start" x="2412" y="-161.3" font-family="Times,serif" font-size="14.00">parse():CompletableFuture[List[T]]</text>
<polygon fill="none" stroke="black" points="2407.5,-154 2407.5,-211 2666.5,-211 2666.5,-154 2407.5,-154"/>
</g>
<!-- ParseCatalog&#45;&gt;Metadata -->
<g id="edge14" class="edge">
<title>ParseCatalog&#45;&gt;Metadata</title>
<path fill="none" stroke="black" stroke-dasharray="5,2" d="M2399.39,-163.08C2181.51,-133.91 1765.23,-78.19 1603.03,-56.47"/>
<polygon fill="black" stroke="black" points="1592.72,-55.09 1603.23,-51.96 1597.68,-55.76 1602.63,-56.42 1602.63,-56.42 1602.63,-56.42 1597.68,-55.76 1602.04,-60.88 1592.72,-55.09 1592.72,-55.09"/>
</g>
<!-- CatalogCollection -->
<g id="node15" class="node">
<title>CatalogCollection</title>
<polygon fill="none" stroke="black" points="547,-349.5 547,-370.5 693,-370.5 693,-349.5 547,-349.5"/>
<text text-anchor="start" x="550" y="-357.3" font-family="Times,serif" font-weight="bold" font-size="14.00">CatalogCollection</text>
<polygon fill="none" stroke="black" points="546,-349 546,-372 694,-372 694,-349 546,-349"/>
</g>
<!-- CatalogCollection&#45;&gt;MetadataCatalog -->
<g id="edge15" class="edge">
<title>CatalogCollection&#45;&gt;MetadataCatalog</title>
<path fill="none" stroke="black" d="M606.22,-342.3C588.13,-319.72 555.41,-278.88 527.69,-244.27"/>
<polygon fill="none" stroke="black" points="530.11,-241.7 521.12,-236.08 524.64,-246.07 530.11,-241.7"/>
</g>
<!-- InMemoryCatalog -->
<g id="node16" class="node">
<title>InMemoryCatalog</title>
<polygon fill="none" stroke="black" points="363,-349.5 363,-370.5 511,-370.5 511,-349.5 363,-349.5"/>
<text text-anchor="start" x="366" y="-357.3" font-family="Times,serif" font-weight="bold" font-size="14.00">InMemoryCatalog</text>
<polygon fill="none" stroke="black" points="362,-349 362,-372 512,-372 512,-349 362,-349"/>
</g>
<!-- InMemoryCatalog&#45;&gt;MetadataCatalog -->
<g id="edge16" class="edge">
<title>InMemoryCatalog&#45;&gt;MetadataCatalog</title>
<path fill="none" stroke="black" d="M441.1,-342.3C446.4,-320.1 455.91,-280.25 464.08,-246.03"/>
<polygon fill="none" stroke="black" points="467.54,-246.62 466.45,-236.08 460.73,-244.99 467.54,-246.62"/>
</g>
<!-- ReadOnlyCatalog -->
<g id="node17" class="node">
<title>ReadOnlyCatalog</title>
<polygon fill="none" stroke="black" points="549,-541.5 549,-562.5 691,-562.5 691,-541.5 549,-541.5"/>
<text text-anchor="start" x="552" y="-549.3" font-family="Times,serif" font-weight="bold" font-size="14.00">ReadOnlyCatalog</text>
<polygon fill="none" stroke="black" points="548,-541 548,-564 692,-564 692,-541 548,-541"/>
</g>
<!-- ReadOnlyCatalog&#45;&gt;CatalogCollection -->
<g id="edge17" class="edge">
<title>ReadOnlyCatalog&#45;&gt;CatalogCollection</title>
<path fill="none" stroke="black" d="M620,-534.3C620,-501.17 620,-428.25 620,-388.55"/>
<polygon fill="none" stroke="black" points="623.5,-388.52 620,-378.52 616.5,-388.52 623.5,-388.52"/>
</g>
<!-- GithubParseCatalog -->
<g id="node18" class="node">
<title>GithubParseCatalog</title>
<polygon fill="none" stroke="black" points="2695,-366.5 2695,-387.5 3497,-387.5 3497,-366.5 2695,-366.5"/>
<text text-anchor="start" x="3016" y="-374.3" font-family="Times,serif" font-weight="bold" font-size="14.00">GithubParseCatalog</text>
<polygon fill="none" stroke="black" points="2695,-332.5 2695,-366.5 3497,-366.5 3497,-332.5 2695,-332.5"/>
<text text-anchor="start" x="3064.5" y="-353.3" font-family="Times,serif" font-style="italic" font-size="14.00">Methods</text>
<text text-anchor="start" x="2698" y="-339.3" font-family="Times,serif" font-size="14.00">getFileVisitor(&lt;List[Metadata]&gt; metadataList, &lt;List[CompletableFuture[]]&gt; futureMetadata):YamlProcessFile</text>
<polygon fill="none" stroke="black" points="2694,-332 2694,-389 3498,-389 3498,-332 2694,-332"/>
</g>
<!-- GithubParseCatalog&#45;&gt;ParseCatalog -->
<g id="edge18" class="edge">
<title>GithubParseCatalog&#45;&gt;ParseCatalog</title>
<path fill="none" stroke="black" d="M2995.74,-327.93C2897.58,-297.03 2748.41,-250.06 2647.02,-218.14"/>
<polygon fill="none" stroke="black" points="2647.96,-214.76 2637.37,-215.1 2645.85,-221.44 2647.96,-214.76"/>
</g>
<!-- YamlProcessFile -->
<g id="node19" class="node">
<title>YamlProcessFile</title>
<polygon fill="none" stroke="black" points="3029,-541.5 3029,-562.5 3164,-562.5 3164,-541.5 3029,-541.5"/>
<text text-anchor="start" x="3032" y="-549.3" font-family="Times,serif" font-weight="bold" font-size="14.00">YamlProcessFile</text>
<polygon fill="none" stroke="black" points="3027.5,-541 3027.5,-564 3164.5,-564 3164.5,-541 3027.5,-541"/>
</g>
<!-- YamlProcessFile&#45;&gt;GithubParseCatalog -->
<g id="edge19" class="edge">
<title>YamlProcessFile&#45;&gt;GithubParseCatalog</title>
<path fill="none" stroke="black" stroke-dasharray="5,2" d="M3096,-534.3C3096,-504.98 3096,-444.48 3096,-403.44"/>
<polygon fill="black" stroke="black" points="3096,-393.2 3100.5,-403.2 3096,-398.2 3096,-403.2 3096,-403.2 3096,-403.2 3096,-398.2 3091.5,-403.2 3096,-393.2 3096,-393.2"/>
</g>
<!-- KameletParseCatalog -->
<g id="node20" class="node">
<title>KameletParseCatalog</title>
<polygon fill="none" stroke="black" points="2608,-541.5 2608,-562.5 2785,-562.5 2785,-541.5 2608,-541.5"/>
<text text-anchor="start" x="2611" y="-549.3" font-family="Times,serif" font-weight="bold" font-size="14.00">KameletParseCatalog</text>
<polygon fill="none" stroke="black" points="2606.5,-541 2606.5,-564 2785.5,-564 2785.5,-541 2606.5,-541"/>
</g>
<!-- KameletParseCatalog&#45;&gt;GithubParseCatalog -->
<g id="edge20" class="edge">
<title>KameletParseCatalog&#45;&gt;GithubParseCatalog</title>
<path fill="none" stroke="black" d="M2731.85,-534.47C2796.51,-503.76 2933.96,-438.47 3020.27,-397.47"/>
<polygon fill="none" stroke="black" points="3021.96,-400.54 3029.49,-393.09 3018.96,-394.22 3021.96,-400.54"/>
</g>
<!-- KameletStep -->
<g id="node21" class="node">
<title>KameletStep</title>
<polygon fill="none" stroke="black" points="2191,-422.5 2191,-443.5 2397,-443.5 2397,-422.5 2191,-422.5"/>
<text text-anchor="start" x="2243" y="-430.3" font-family="Times,serif" font-weight="bold" font-size="14.00">KameletStep</text>
<polygon fill="none" stroke="black" points="2191,-276.5 2191,-422.5 2397,-422.5 2397,-276.5 2191,-276.5"/>
<text text-anchor="start" x="2256" y="-409.3" font-family="Times,serif" font-style="italic" font-size="14.00">Properties</text>
<text text-anchor="start" x="2194" y="-395.3" font-family="Times,serif" font-size="14.00">group:String</text>
<text text-anchor="start" x="2194" y="-381.3" font-family="Times,serif" font-size="14.00">title:String</text>
<text text-anchor="start" x="2194" y="-367.3" font-family="Times,serif" font-size="14.00">description:String</text>
<text text-anchor="start" x="2194" y="-353.3" font-family="Times,serif" font-size="14.00">kameletType:String</text>
<text text-anchor="start" x="2194" y="-339.3" font-family="Times,serif" font-size="14.00">apiVersion:String</text>
<text text-anchor="start" x="2194" y="-325.3" font-family="Times,serif" font-size="14.00">kind:String</text>
<text text-anchor="start" x="2194" y="-311.3" font-family="Times,serif" font-size="14.00">spec:String</text>
<text text-anchor="start" x="2194" y="-297.3" font-family="Times,serif" font-size="14.00">parameters:List[Parameter]</text>
<text text-anchor="start" x="2194" y="-283.3" font-family="Times,serif" font-size="14.00">icon:String</text>
<polygon fill="none" stroke="black" points="2190,-276 2190,-445 2398,-445 2398,-276 2190,-276"/>
</g>
<!-- KameletParseCatalog&#45;&gt;KameletStep -->
<g id="edge21" class="edge">
<title>KameletParseCatalog&#45;&gt;KameletStep</title>
<path fill="none" stroke="black" stroke-dasharray="5,2" d="M2634.46,-534.43C2576.1,-517.02 2486.9,-487.16 2415,-449 2414.91,-448.95 2414.81,-448.9 2414.72,-448.85"/>
<polygon fill="black" stroke="black" points="2406.05,-444.08 2416.98,-444.96 2410.43,-446.49 2414.81,-448.9 2414.81,-448.9 2414.81,-448.9 2410.43,-446.49 2412.64,-452.84 2406.05,-444.08 2406.05,-444.08"/>
</g>
<!-- KameletStep&#45;&gt;Step -->
<g id="edge25" class="edge">
<title>KameletStep&#45;&gt;Step</title>
<path fill="none" stroke="black" d="M2181.77,-275.38C2178.86,-274.17 2175.93,-273.04 2173,-272 2029.26,-221.27 1637.96,-263.33 1488,-236 1458.11,-230.55 1426.09,-221.22 1398.3,-211.92"/>
<polygon fill="none" stroke="black" points="1399.25,-208.55 1388.65,-208.64 1396.99,-215.18 1399.25,-208.55"/>
</g>
<!-- ViewDefinitionParseCatalog -->
<g id="node22" class="node">
<title>ViewDefinitionParseCatalog</title>
<polygon fill="none" stroke="black" points="3310,-541.5 3310,-562.5 3536,-562.5 3536,-541.5 3310,-541.5"/>
<text text-anchor="start" x="3313" y="-549.3" font-family="Times,serif" font-weight="bold" font-size="14.00">ViewDefinitionParseCatalog</text>
<polygon fill="none" stroke="black" points="3309,-541 3309,-564 3537,-564 3537,-541 3309,-541"/>
</g>
<!-- ViewDefinitionParseCatalog&#45;&gt;ViewDefinition -->
<g id="edge23" class="edge">
<title>ViewDefinitionParseCatalog&#45;&gt;ViewDefinition</title>
<path fill="none" stroke="black" stroke-dasharray="5,2" d="M3445.92,-534.48C3468.39,-516.22 3501.23,-484.95 3515,-449 3543.13,-375.54 3569.73,-328.51 3515,-272 3471.54,-227.12 2453.39,-239.24 2391,-236 2200.18,-226.1 1981.68,-209.75 1833.65,-197.92"/>
<polygon fill="black" stroke="black" points="1823.56,-197.11 1833.88,-193.42 1828.54,-197.51 1833.52,-197.91 1833.52,-197.91 1833.52,-197.91 1828.54,-197.51 1833.17,-202.4 1823.56,-197.11 1823.56,-197.11"/>
</g>
<!-- ViewDefinitionParseCatalog&#45;&gt;GithubParseCatalog -->
<g id="edge22" class="edge">
<title>ViewDefinitionParseCatalog&#45;&gt;GithubParseCatalog</title>
<path fill="none" stroke="black" d="M3393.69,-534.47C3341.15,-503.94 3229.83,-439.26 3159.2,-398.22"/>
<polygon fill="none" stroke="black" points="3160.77,-395.09 3150.37,-393.09 3157.26,-401.14 3160.77,-395.09"/>
</g>
<!-- Parameter -->
<g id="node23" class="node">
<title>Parameter</title>
<polygon fill="none" stroke="black" points="2226,-593.5 2226,-614.5 2362,-614.5 2362,-593.5 2226,-593.5"/>
<text text-anchor="start" x="2252" y="-601.3" font-family="Times,serif" font-weight="bold" font-size="14.00">Parameter</text>
<polygon fill="none" stroke="black" points="2226,-489.5 2226,-593.5 2362,-593.5 2362,-489.5 2226,-489.5"/>
<text text-anchor="start" x="2256" y="-580.3" font-family="Times,serif" font-style="italic" font-size="14.00">Properties</text>
<text text-anchor="start" x="2229" y="-566.3" font-family="Times,serif" font-size="14.00">description:String</text>
<text text-anchor="start" x="2229" y="-552.3" font-family="Times,serif" font-size="14.00">label:String</text>
<text text-anchor="start" x="2229" y="-538.3" font-family="Times,serif" font-size="14.00">id:String</text>
<text text-anchor="start" x="2229" y="-524.3" font-family="Times,serif" font-size="14.00">value:String</text>
<text text-anchor="start" x="2229" y="-510.3" font-family="Times,serif" font-size="14.00">default:String</text>
<text text-anchor="start" x="2229" y="-496.3" font-family="Times,serif" font-size="14.00">type:String</text>
<polygon fill="none" stroke="black" points="2225,-489 2225,-616 2363,-616 2363,-489 2225,-489"/>
</g>
<!-- Parameter&#45;&gt;KameletStep -->
<g id="edge26" class="edge">
<title>Parameter&#45;&gt;KameletStep</title>
<path fill="none" stroke="black" d="M2294,-484.78C2294,-477.11 2294,-469.17 2294,-461.19"/>
<polygon fill="black" stroke="black" points="2294,-461.07 2290,-455.07 2294,-449.07 2298,-455.07 2294,-461.07"/>
<text text-anchor="middle" x="2280" y="-473.58" font-family="Times,serif" font-size="14.00">0..n</text>
</g>
<!-- ViewDefinitionConstraint -->
<g id="node24" class="node">
<title>ViewDefinitionConstraint</title>
<polygon fill="none" stroke="black" points="2433,-380.5 2433,-401.5 2659,-401.5 2659,-380.5 2433,-380.5"/>
<text text-anchor="start" x="2445.5" y="-388.3" font-family="Times,serif" font-weight="bold" font-size="14.00">ViewDefinitionConstraint</text>
<polygon fill="none" stroke="black" points="2433,-318.5 2433,-380.5 2659,-380.5 2659,-318.5 2433,-318.5"/>
<text text-anchor="start" x="2508" y="-367.3" font-family="Times,serif" font-style="italic" font-size="14.00">Properties</text>
<text text-anchor="start" x="2436" y="-353.3" font-family="Times,serif" font-size="14.00">mandatory:boolean</text>
<text text-anchor="start" x="2436" y="-339.3" font-family="Times,serif" font-size="14.00">operation:ConstraintOperation</text>
<text text-anchor="start" x="2436" y="-325.3" font-family="Times,serif" font-size="14.00">parameter:String</text>
<polygon fill="none" stroke="black" points="2432,-318 2432,-403 2660,-403 2660,-318 2432,-318"/>
</g>
<!-- ViewDefinitionConstraint&#45;&gt;ViewDefinition -->
<g id="edge28" class="edge">
<title>ViewDefinitionConstraint&#45;&gt;ViewDefinition</title>
<path fill="none" stroke="black" d="M2490.52,-313.98C2468.32,-298.11 2441.69,-281.83 2415,-272 2312.09,-234.11 2024.63,-208.12 1835.58,-194.55"/>
<polygon fill="black" stroke="black" points="1835.53,-194.54 1829.26,-198.1 1823.56,-193.69 1829.83,-190.13 1835.53,-194.54"/>
<text text-anchor="middle" x="2476.52" y="-302.78" font-family="Times,serif" font-size="14.00">0..n</text>
</g>
</g>
</svg>
