<?xml version="1.0" encoding="UTF-8" standalone="no"?>
<!DOCTYPE svg PUBLIC "-//W3C//DTD SVG 1.1//EN"
 "http://www.w3.org/Graphics/SVG/1.1/DTD/svg11.dtd">
<!-- Generated by graphviz version 2.43.0 (0)
 -->
<!-- Title: ClassDiagram Pages: 1 -->
<svg width="4642pt" height="784pt"
 viewBox="0.00 0.00 4642.00 784.00" xmlns="http://www.w3.org/2000/svg" xmlns:xlink="http://www.w3.org/1999/xlink">
<g id="graph0" class="graph" transform="scale(1 1) rotate(0) translate(4 780)">
<title>ClassDiagram</title>
<polygon fill="white" stroke="transparent" points="-4,4 -4,-780 4638,-780 4638,4 -4,4"/>
<!-- CapabilitiesResource -->
<g id="node1" class="node">
<title>CapabilitiesResource</title>
<polygon fill="none" stroke="black" points="9,-508.5 9,-529.5 183,-529.5 183,-508.5 9,-508.5"/>
<text text-anchor="start" x="12" y="-516.3" font-family="Times,serif" font-weight="bold" font-size="14.00">CapabilitiesResource</text>
<polygon fill="none" stroke="black" points="9,-474.5 9,-508.5 183,-508.5 183,-474.5 9,-474.5"/>
<text text-anchor="start" x="64.5" y="-495.3" font-family="Times,serif" font-style="italic" font-size="14.00">Methods</text>
<text text-anchor="start" x="25" y="-481.3" font-family="Times,serif" font-size="14.00">getAll():Capabilities</text>
<polygon fill="none" stroke="black" points="8,-474 8,-531 184,-531 184,-474 8,-474"/>
</g>
<!-- LanguageService -->
<g id="node2" class="node">
<title>LanguageService</title>
<text text-anchor="middle" x="96" y="-676.8" font-family="Times,serif" font-size="14.00">LanguageService</text>
</g>
<!-- LanguageService&#45;&gt;CapabilitiesResource -->
<g id="edge1" class="edge">
<title>LanguageService&#45;&gt;CapabilitiesResource</title>
<path fill="none" stroke="black" d="M96,-662.3C96,-635.88 96,-584.46 96,-547.28"/>
<polygon fill="black" stroke="black" points="96,-547.27 92,-541.27 96,-535.27 100,-541.27 96,-547.27"/>
<text text-anchor="middle" x="82" y="-651.1" font-family="Times,serif" font-size="14.00">0..1</text>
</g>
<!-- DeploymentsResource -->
<g id="node3" class="node">
<title>DeploymentsResource</title>
<polygon fill="none" stroke="black" points="194,-714.5 194,-735.5 675,-735.5 675,-714.5 194,-714.5"/>
<text text-anchor="start" x="346" y="-722.3" font-family="Times,serif" font-weight="bold" font-size="14.00">DeploymentsResource</text>
<polygon fill="none" stroke="black" points="194,-624.5 194,-714.5 675,-714.5 675,-624.5 194,-624.5"/>
<text text-anchor="start" x="403" y="-701.3" font-family="Times,serif" font-style="italic" font-size="14.00">Methods</text>
<text text-anchor="start" x="197" y="-687.3" font-family="Times,serif" font-size="14.00">all(&lt;String&gt; namespace):String</text>
<text text-anchor="start" x="197" y="-673.3" font-family="Times,serif" font-size="14.00">start(&lt;String&gt; crd, &lt;String&gt; namespace, &lt;String&gt; name):String</text>
<text text-anchor="start" x="197" y="-659.3" font-family="Times,serif" font-size="14.00">get(&lt;String&gt; name, &lt;String&gt; namespace):String</text>
<text text-anchor="start" x="197" y="-645.3" font-family="Times,serif" font-size="14.00">stop(&lt;String&gt; name, &lt;String&gt; namespace):String</text>
<text text-anchor="start" x="197" y="-631.3" font-family="Times,serif" font-size="14.00">logs(&lt;String&gt; name, &lt;String&gt; namespace):String</text>
<polygon fill="none" stroke="black" points="192.5,-624 192.5,-737 675.5,-737 675.5,-624 192.5,-624"/>
</g>
<!-- IntegrationsResource -->
<g id="node4" class="node">
<title>IntegrationsResource</title>
<polygon fill="none" stroke="black" points="596,-522.5 596,-543.5 964,-543.5 964,-522.5 596,-522.5"/>
<text text-anchor="start" x="693.5" y="-530.3" font-family="Times,serif" font-weight="bold" font-size="14.00">IntegrationsResource</text>
<polygon fill="none" stroke="black" points="596,-460.5 596,-522.5 964,-522.5 964,-460.5 596,-460.5"/>
<text text-anchor="start" x="748.5" y="-509.3" font-family="Times,serif" font-style="italic" font-size="14.00">Methods</text>
<text text-anchor="start" x="599" y="-495.3" font-family="Times,serif" font-size="14.00">crd(&lt;String&gt; dsl, &lt;Integration&gt; integration):Map</text>
<text text-anchor="start" x="599" y="-481.3" font-family="Times,serif" font-size="14.00">integration(&lt;String&gt; dsl, &lt;String&gt; crd):Map</text>
<text text-anchor="start" x="599" y="-467.3" font-family="Times,serif" font-size="14.00">compatibleDSL(&lt;List[Step]&gt; steps):Map</text>
<polygon fill="none" stroke="black" points="595,-460 595,-545 965,-545 965,-460 595,-460"/>
</g>
<!-- DeploymentService -->
<g id="node5" class="node">
<title>DeploymentService</title>
<text text-anchor="middle" x="780" y="-676.8" font-family="Times,serif" font-size="14.00">DeploymentService</text>
</g>
<!-- DeploymentService&#45;&gt;IntegrationsResource -->
<g id="edge2" class="edge">
<title>DeploymentService&#45;&gt;IntegrationsResource</title>
<path fill="none" stroke="black" d="M780,-662.3C780,-639.09 780,-596.59 780,-561.39"/>
<polygon fill="black" stroke="black" points="780,-561.29 776,-555.29 780,-549.29 784,-555.29 780,-561.29"/>
<text text-anchor="middle" x="766" y="-651.1" font-family="Times,serif" font-size="14.00">0..1</text>
</g>
<!-- StepResource -->
<g id="node6" class="node">
<title>StepResource</title>
<polygon fill="none" stroke="black" points="885,-700.5 885,-721.5 1357,-721.5 1357,-700.5 885,-700.5"/>
<text text-anchor="start" x="1066.5" y="-708.3" font-family="Times,serif" font-weight="bold" font-size="14.00">StepResource</text>
<polygon fill="none" stroke="black" points="885,-638.5 885,-700.5 1357,-700.5 1357,-638.5 885,-638.5"/>
<text text-anchor="start" x="1089.5" y="-687.3" font-family="Times,serif" font-style="italic" font-size="14.00">Methods</text>
<text text-anchor="start" x="888" y="-673.3" font-family="Times,serif" font-size="14.00">allSteps(&lt;String&gt; type, &lt;String&gt; dsl, &lt;String&gt; kind):List[Step]</text>
<text text-anchor="start" x="888" y="-659.3" font-family="Times,serif" font-size="14.00">stepById(&lt;String&gt; id):Step</text>
<text text-anchor="start" x="888" y="-645.3" font-family="Times,serif" font-size="14.00">stepsByName(&lt;String&gt; name):List[Step]</text>
<polygon fill="none" stroke="black" points="884,-638 884,-723 1358,-723 1358,-638 884,-638"/>
</g>
<!-- StepCatalog -->
<g id="node7" class="node">
<title>StepCatalog</title>
<polygon fill="none" stroke="black" points="1070,-491.5 1070,-512.5 1172,-512.5 1172,-491.5 1070,-491.5"/>
<text text-anchor="start" x="1073" y="-499.3" font-family="Times,serif" font-weight="bold" font-size="14.00">StepCatalog</text>
<polygon fill="none" stroke="black" points="1069,-491 1069,-514 1173,-514 1173,-491 1069,-491"/>
</g>
<!-- StepResource&#45;&gt;StepCatalog -->
<g id="edge3" class="edge">
<title>StepResource&#45;&gt;StepCatalog</title>
<path fill="none" stroke="black" stroke-dasharray="5,2" d="M1121,-633.72C1121,-600.99 1121,-558.05 1121,-530.61"/>
<polygon fill="black" stroke="black" points="1121,-520.56 1125.5,-530.56 1121,-525.56 1121,-530.56 1121,-530.56 1121,-530.56 1121,-525.56 1116.5,-530.56 1121,-520.56 1121,-520.56"/>
</g>
<!-- AbstractCatalog -->
<g id="node11" class="node">
<title>AbstractCatalog</title>
<polygon fill="none" stroke="black" points="1135,-393.5 1135,-414.5 1413,-414.5 1413,-393.5 1135,-393.5"/>
<text text-anchor="start" x="1210.5" y="-401.3" font-family="Times,serif" font-weight="bold" font-size="14.00">AbstractCatalog</text>
<polygon fill="none" stroke="black" points="1135,-317.5 1135,-393.5 1413,-393.5 1413,-317.5 1135,-317.5"/>
<text text-anchor="start" x="1242.5" y="-380.3" font-family="Times,serif" font-style="italic" font-size="14.00">Methods</text>
<text text-anchor="start" x="1138" y="-366.3" font-family="Times,serif" font-size="14.00">waitForWarmUp():CompletableFuture</text>
<text text-anchor="start" x="1138" y="-352.3" font-family="Times,serif" font-size="14.00">loadParsers():List[ParseCatalog]</text>
<text text-anchor="start" x="1138" y="-338.3" font-family="Times,serif" font-size="14.00">warmUpCatalog():</text>
<text text-anchor="start" x="1138" y="-324.3" font-family="Times,serif" font-size="14.00">refresh():</text>
<polygon fill="none" stroke="black" points="1134,-317 1134,-416 1414,-416 1414,-317 1134,-317"/>
</g>
<!-- StepCatalog&#45;&gt;AbstractCatalog -->
<g id="edge6" class="edge">
<title>StepCatalog&#45;&gt;AbstractCatalog</title>
<path fill="none" stroke="black" d="M1140.69,-484.26C1157.37,-469.65 1182.3,-447.82 1206.1,-426.97"/>
<polygon fill="none" stroke="black" points="1208.56,-429.46 1213.78,-420.24 1203.95,-424.2 1208.56,-429.46"/>
</g>
<!-- ViewDefinitionResource -->
<g id="node8" class="node">
<title>ViewDefinitionResource</title>
<polygon fill="none" stroke="black" points="1947,-508.5 1947,-529.5 2415,-529.5 2415,-508.5 1947,-508.5"/>
<text text-anchor="start" x="2086" y="-516.3" font-family="Times,serif" font-weight="bold" font-size="14.00">ViewDefinitionResource</text>
<polygon fill="none" stroke="black" points="1947,-474.5 1947,-508.5 2415,-508.5 2415,-474.5 1947,-474.5"/>
<text text-anchor="start" x="2149.5" y="-495.3" font-family="Times,serif" font-style="italic" font-size="14.00">Methods</text>
<text text-anchor="start" x="1950" y="-481.3" font-family="Times,serif" font-size="14.00">viewsPerStepList:(&lt;Step[]&gt; DeploymentResourceYamlRequest):</text>
<polygon fill="none" stroke="black" points="1946,-474 1946,-531 2416,-531 2416,-474 1946,-474"/>
</g>
<!-- ViewDefinitionService -->
<g id="node9" class="node">
<title>ViewDefinitionService</title>
<text text-anchor="middle" x="2181" y="-676.8" font-family="Times,serif" font-size="14.00">ViewDefinitionService</text>
</g>
<!-- ViewDefinitionService&#45;&gt;ViewDefinitionResource -->
<g id="edge4" class="edge">
<title>ViewDefinitionService&#45;&gt;ViewDefinitionResource</title>
<path fill="none" stroke="black" d="M2181,-662.3C2181,-635.88 2181,-584.46 2181,-547.28"/>
<polygon fill="black" stroke="black" points="2181,-547.27 2177,-541.27 2181,-535.27 2185,-541.27 2181,-547.27"/>
<text text-anchor="middle" x="2167" y="-651.1" font-family="Times,serif" font-size="14.00">0..1</text>
</g>
<!-- CamelRoute -->
<g id="node10" class="node">
<title>CamelRoute</title>
<polygon fill="none" stroke="black" points="3275,-669.5 3275,-690.5 3378,-690.5 3378,-669.5 3275,-669.5"/>
<text text-anchor="start" x="3278" y="-677.3" font-family="Times,serif" font-weight="bold" font-size="14.00">CamelRoute</text>
<polygon fill="none" stroke="black" points="3273.5,-669 3273.5,-692 3378.5,-692 3378.5,-669 3273.5,-669"/>
</g>
<!-- MetadataCatalog -->
<g id="node12" class="node">
<title>MetadataCatalog</title>
<polygon fill="none" stroke="black" points="1348,-208.5 1348,-229.5 1696,-229.5 1696,-208.5 1348,-208.5"/>
<text text-anchor="start" x="1454" y="-216.3" font-family="Times,serif" font-weight="bold" font-size="14.00">MetadataCatalog</text>
<polygon fill="none" stroke="black" points="1348,-118.5 1348,-208.5 1696,-208.5 1696,-118.5 1348,-118.5"/>
<text text-anchor="start" x="1490.5" y="-195.3" font-family="Times,serif" font-style="italic" font-size="14.00">Methods</text>
<text text-anchor="start" x="1351" y="-181.3" font-family="Times,serif" font-size="14.00">searchStepByID(&lt;String&gt; id):Metadata</text>
<text text-anchor="start" x="1351" y="-167.3" font-family="Times,serif" font-size="14.00">searchByName(&lt;String&gt; name):List[Metadata]</text>
<text text-anchor="start" x="1351" y="-153.3" font-family="Times,serif" font-size="14.00">store(&lt;List[Step]&gt; steps):boolean</text>
<text text-anchor="start" x="1351" y="-139.3" font-family="Times,serif" font-size="14.00">getAll():List[Metadata]</text>
<text text-anchor="start" x="1351" y="-125.3" font-family="Times,serif" font-size="14.00">clear():void</text>
<polygon fill="none" stroke="black" points="1347,-118 1347,-231 1697,-231 1697,-118 1347,-118"/>
</g>
<!-- AbstractCatalog&#45;&gt;MetadataCatalog -->
<g id="edge5" class="edge">
<title>AbstractCatalog&#45;&gt;MetadataCatalog</title>
<path fill="none" stroke="black" stroke-dasharray="5,2" d="M1342.75,-312.83C1371.57,-290.75 1405.39,-264.84 1435.85,-241.5"/>
<polygon fill="black" stroke="black" points="1443.92,-235.32 1438.72,-244.97 1439.96,-238.36 1435.99,-241.4 1435.99,-241.4 1435.99,-241.4 1439.96,-238.36 1433.25,-237.83 1443.92,-235.32 1443.92,-235.32"/>
</g>
<!-- Metadata -->
<g id="node19" class="node">
<title>Metadata</title>
<text text-anchor="middle" x="1522" y="-14.3" font-family="Times,serif" font-size="14.00">Metadata</text>
</g>
<!-- MetadataCatalog&#45;&gt;Metadata -->
<g id="edge10" class="edge">
<title>MetadataCatalog&#45;&gt;Metadata</title>
<path fill="none" stroke="black" stroke-dasharray="5,2" d="M1522,-113.77C1522,-90.48 1522,-64.96 1522,-46.27"/>
<polygon fill="black" stroke="black" points="1522,-36.13 1526.5,-46.13 1522,-41.13 1522,-46.13 1522,-46.13 1522,-46.13 1522,-41.13 1517.5,-46.13 1522,-36.13 1522,-36.13"/>
</g>
<!-- StepCatalogParser -->
<g id="node13" class="node">
<title>StepCatalogParser</title>
<polygon fill="none" stroke="black" points="2666,-386.5 2666,-407.5 3051,-407.5 3051,-386.5 2666,-386.5"/>
<text text-anchor="start" x="2784.5" y="-394.3" font-family="Times,serif" font-weight="bold" font-size="14.00">StepCatalogParser</text>
<polygon fill="none" stroke="black" points="2666,-324.5 2666,-386.5 3051,-386.5 3051,-324.5 2666,-324.5"/>
<text text-anchor="start" x="2827" y="-373.3" font-family="Times,serif" font-style="italic" font-size="14.00">Methods</text>
<text text-anchor="start" x="2669" y="-359.3" font-family="Times,serif" font-size="14.00">getParser(&lt;String&gt; url, &lt;String&gt; tag):ParseCatalog</text>
<text text-anchor="start" x="2669" y="-345.3" font-family="Times,serif" font-size="14.00">getParserFromCluster():ParseCatalog</text>
<text text-anchor="start" x="2669" y="-331.3" font-family="Times,serif" font-size="14.00">getLocalFolder(&lt;Path&gt; path):ParseCatalog</text>
<polygon fill="none" stroke="black" points="2664.5,-324 2664.5,-409 3051.5,-409 3051.5,-324 2664.5,-324"/>
</g>
<!-- ViewDefinitionCatalog -->
<g id="node14" class="node">
<title>ViewDefinitionCatalog</title>
<polygon fill="none" stroke="black" points="1208,-491.5 1208,-512.5 1390,-512.5 1390,-491.5 1208,-491.5"/>
<text text-anchor="start" x="1211" y="-499.3" font-family="Times,serif" font-weight="bold" font-size="14.00">ViewDefinitionCatalog</text>
<polygon fill="none" stroke="black" points="1207,-491 1207,-514 1391,-514 1391,-491 1207,-491"/>
</g>
<!-- ViewDefinitionCatalog&#45;&gt;AbstractCatalog -->
<g id="edge7" class="edge">
<title>ViewDefinitionCatalog&#45;&gt;AbstractCatalog</title>
<path fill="none" stroke="black" d="M1295.78,-484.26C1293.2,-470.41 1289.4,-450.06 1285.7,-430.22"/>
<polygon fill="none" stroke="black" points="1289.11,-429.43 1283.84,-420.24 1282.23,-430.72 1289.11,-429.43"/>
</g>
<!-- KameletParseCatalog -->
<g id="node15" class="node">
<title>KameletParseCatalog</title>
<polygon fill="none" stroke="black" points="2770,-491.5 2770,-512.5 2947,-512.5 2947,-491.5 2770,-491.5"/>
<text text-anchor="start" x="2773" y="-499.3" font-family="Times,serif" font-weight="bold" font-size="14.00">KameletParseCatalog</text>
<polygon fill="none" stroke="black" points="2768.5,-491 2768.5,-514 2947.5,-514 2947.5,-491 2768.5,-491"/>
</g>
<!-- KameletParseCatalog&#45;&gt;StepCatalogParser -->
<g id="edge8" class="edge">
<title>KameletParseCatalog&#45;&gt;StepCatalogParser</title>
<path fill="none" stroke="black" d="M2858,-484.26C2858,-468.82 2858,-445.3 2858,-423.41"/>
<polygon fill="none" stroke="black" points="2861.5,-423.18 2858,-413.18 2854.5,-423.18 2861.5,-423.18"/>
</g>
<!-- ParseCatalog -->
<g id="node16" class="node">
<title>ParseCatalog</title>
<polygon fill="none" stroke="black" points="3286,-379.5 3286,-400.5 3618,-400.5 3618,-379.5 3286,-379.5"/>
<text text-anchor="start" x="3399.5" y="-387.3" font-family="Times,serif" font-weight="bold" font-size="14.00">ParseCatalog</text>
<polygon fill="none" stroke="black" points="3286,-331.5 3286,-379.5 3618,-379.5 3618,-331.5 3286,-331.5"/>
<text text-anchor="start" x="3420.5" y="-366.3" font-family="Times,serif" font-style="italic" font-size="14.00">Methods</text>
<text text-anchor="start" x="3289" y="-352.3" font-family="Times,serif" font-size="14.00">parse():CompletableFuture[List[T]]</text>
<text text-anchor="start" x="3289" y="-338.3" font-family="Times,serif" font-size="14.00">setFileVisitor(&lt;YamlProcessFile&gt; fileVisitor):</text>
<polygon fill="none" stroke="black" points="3285,-331 3285,-402 3619,-402 3619,-331 3285,-331"/>
</g>
<!-- KameletParseCatalog&#45;&gt;ParseCatalog -->
<g id="edge9" class="edge">
<title>KameletParseCatalog&#45;&gt;ParseCatalog</title>
<path fill="none" stroke="black" stroke-dasharray="5,2" d="M2892.59,-484.29C2912.95,-474.76 2939.45,-463.39 2964,-456 3062.24,-426.42 3174.76,-405.21 3266.97,-390.97"/>
<polygon fill="black" stroke="black" points="3276.97,-389.45 3267.76,-395.41 3272.03,-390.2 3267.08,-390.96 3267.08,-390.96 3267.08,-390.96 3272.03,-390.2 3266.41,-386.51 3276.97,-389.45 3276.97,-389.45"/>
</g>
<!-- Kamelet -->
<g id="node17" class="node">
<title>Kamelet</title>
<polygon fill="none" stroke="black" points="4208,-669.5 4208,-690.5 4281,-690.5 4281,-669.5 4208,-669.5"/>
<text text-anchor="start" x="4211" y="-677.3" font-family="Times,serif" font-weight="bold" font-size="14.00">Kamelet</text>
<polygon fill="none" stroke="black" points="4206.5,-669 4206.5,-692 4281.5,-692 4281.5,-669 4206.5,-669"/>
</g>
<!-- KameletBinding -->
<g id="node18" class="node">
<title>KameletBinding</title>
<polygon fill="none" stroke="black" points="4317,-669.5 4317,-690.5 4453,-690.5 4453,-669.5 4317,-669.5"/>
<text text-anchor="start" x="4320" y="-677.3" font-family="Times,serif" font-weight="bold" font-size="14.00">KameletBinding</text>
<polygon fill="none" stroke="black" points="4316,-669 4316,-692 4454,-692 4454,-669 4316,-669"/>
</g>
<!-- CatalogCollection -->
<g id="node20" class="node">
<title>CatalogCollection</title>
<polygon fill="none" stroke="black" points="1449,-355.5 1449,-376.5 1595,-376.5 1595,-355.5 1449,-355.5"/>
<text text-anchor="start" x="1452" y="-363.3" font-family="Times,serif" font-weight="bold" font-size="14.00">CatalogCollection</text>
<polygon fill="none" stroke="black" points="1448,-355 1448,-378 1596,-378 1596,-355 1448,-355"/>
</g>
<!-- CatalogCollection&#45;&gt;MetadataCatalog -->
<g id="edge11" class="edge">
<title>CatalogCollection&#45;&gt;MetadataCatalog</title>
<path fill="none" stroke="black" d="M1522,-348.3C1522,-325.17 1522,-282.66 1522,-245.59"/>
<polygon fill="none" stroke="black" points="1525.5,-245.3 1522,-235.3 1518.5,-245.3 1525.5,-245.3"/>
</g>
<!-- InMemoryCatalog -->
<g id="node21" class="node">
<title>InMemoryCatalog</title>
<polygon fill="none" stroke="black" points="1631,-355.5 1631,-376.5 1779,-376.5 1779,-355.5 1631,-355.5"/>
<text text-anchor="start" x="1634" y="-363.3" font-family="Times,serif" font-weight="bold" font-size="14.00">InMemoryCatalog</text>
<polygon fill="none" stroke="black" points="1630,-355 1630,-378 1780,-378 1780,-355 1630,-355"/>
</g>
<!-- InMemoryCatalog&#45;&gt;MetadataCatalog -->
<g id="edge12" class="edge">
<title>InMemoryCatalog&#45;&gt;MetadataCatalog</title>
<path fill="none" stroke="black" d="M1688.44,-348.3C1665.59,-324.58 1623.1,-280.47 1586.77,-242.75"/>
<polygon fill="none" stroke="black" points="1589.06,-240.08 1579.6,-235.3 1584.02,-244.93 1589.06,-240.08"/>
</g>
<!-- ReadOnlyCatalog -->
<g id="node22" class="node">
<title>ReadOnlyCatalog</title>
<polygon fill="none" stroke="black" points="1451,-491.5 1451,-512.5 1593,-512.5 1593,-491.5 1451,-491.5"/>
<text text-anchor="start" x="1454" y="-499.3" font-family="Times,serif" font-weight="bold" font-size="14.00">ReadOnlyCatalog</text>
<polygon fill="none" stroke="black" points="1450,-491 1450,-514 1594,-514 1594,-491 1450,-491"/>
</g>
<!-- ReadOnlyCatalog&#45;&gt;CatalogCollection -->
<g id="edge13" class="edge">
<title>ReadOnlyCatalog&#45;&gt;CatalogCollection</title>
<path fill="none" stroke="black" d="M1522,-484.26C1522,-461.64 1522,-421.7 1522,-394.92"/>
<polygon fill="none" stroke="black" points="1525.5,-394.68 1522,-384.68 1518.5,-394.68 1525.5,-394.68"/>
</g>
<!-- ClusterParseCatalog -->
<g id="node23" class="node">
<title>ClusterParseCatalog</title>
<polygon fill="none" stroke="black" points="2983,-491.5 2983,-512.5 3152,-512.5 3152,-491.5 2983,-491.5"/>
<text text-anchor="start" x="2986" y="-499.3" font-family="Times,serif" font-weight="bold" font-size="14.00">ClusterParseCatalog</text>
<polygon fill="none" stroke="black" points="2981.5,-491 2981.5,-514 3152.5,-514 3152.5,-491 2981.5,-491"/>
</g>
<!-- ClusterParseCatalog&#45;&gt;ParseCatalog -->
<g id="edge14" class="edge">
<title>ClusterParseCatalog&#45;&gt;ParseCatalog</title>
<path fill="none" stroke="black" d="M3102.45,-484.46C3121.87,-475.44 3146.51,-464.5 3169,-456 3213.53,-439.17 3262.81,-422.96 3307.6,-409.1"/>
<polygon fill="none" stroke="black" points="3308.86,-412.38 3317.38,-406.09 3306.8,-405.69 3308.86,-412.38"/>
</g>
<!-- EmptyParseCatalog -->
<g id="node24" class="node">
<title>EmptyParseCatalog</title>
<polygon fill="none" stroke="black" points="3188,-491.5 3188,-512.5 3349,-512.5 3349,-491.5 3188,-491.5"/>
<text text-anchor="start" x="3191" y="-499.3" font-family="Times,serif" font-weight="bold" font-size="14.00">EmptyParseCatalog</text>
<polygon fill="none" stroke="black" points="3186.5,-491 3186.5,-514 3349.5,-514 3349.5,-491 3186.5,-491"/>
</g>
<!-- EmptyParseCatalog&#45;&gt;ParseCatalog -->
<g id="edge15" class="edge">
<title>EmptyParseCatalog&#45;&gt;ParseCatalog</title>
<path fill="none" stroke="black" d="M3291.68,-484.26C3316.55,-466.14 3356.69,-436.91 3390.59,-412.23"/>
<polygon fill="none" stroke="black" points="3393.03,-414.77 3399.06,-406.06 3388.91,-409.12 3393.03,-414.77"/>
</g>
<!-- GitParseCatalog -->
<g id="node25" class="node">
<title>GitParseCatalog</title>
<polygon fill="none" stroke="black" points="4056,-491.5 4056,-512.5 4191,-512.5 4191,-491.5 4056,-491.5"/>
<text text-anchor="start" x="4059" y="-499.3" font-family="Times,serif" font-weight="bold" font-size="14.00">GitParseCatalog</text>
<polygon fill="none" stroke="black" points="4054.5,-491 4054.5,-514 4191.5,-514 4191.5,-491 4054.5,-491"/>
</g>
<!-- GitParseCatalog&#45;&gt;ParseCatalog -->
<g id="edge16" class="edge">
<title>GitParseCatalog&#45;&gt;ParseCatalog</title>
<path fill="none" stroke="black" d="M4096.16,-484.28C4079.71,-474.5 4057.86,-462.87 4037,-456 3907.13,-413.2 3754.14,-390.98 3637.2,-379.51"/>
<polygon fill="none" stroke="black" points="3637.35,-376.01 3627.06,-378.53 3636.68,-382.98 3637.35,-376.01"/>
</g>
<!-- YamlProcessFile -->
<g id="node26" class="node">
<title>YamlProcessFile</title>
<text text-anchor="middle" x="4123" y="-362.8" font-family="Times,serif" font-size="14.00">YamlProcessFile</text>
</g>
<!-- GitParseCatalog&#45;&gt;YamlProcessFile -->
<g id="edge17" class="edge">
<title>GitParseCatalog&#45;&gt;YamlProcessFile</title>
<path fill="none" stroke="black" stroke-dasharray="5,2" d="M4123,-484.26C4123,-461.64 4123,-421.7 4123,-394.92"/>
<polygon fill="black" stroke="black" points="4123,-384.68 4127.5,-394.68 4123,-389.68 4123,-394.68 4123,-394.68 4123,-394.68 4123,-389.68 4118.5,-394.68 4123,-384.68 4123,-384.68"/>
</g>
<!-- JarParseCatalog -->
<g id="node27" class="node">
<title>JarParseCatalog</title>
<polygon fill="none" stroke="black" points="3385,-491.5 3385,-512.5 3519,-512.5 3519,-491.5 3385,-491.5"/>
<text text-anchor="start" x="3388" y="-499.3" font-family="Times,serif" font-weight="bold" font-size="14.00">JarParseCatalog</text>
<polygon fill="none" stroke="black" points="3384,-491 3384,-514 3520,-514 3520,-491 3384,-491"/>
</g>
<!-- JarParseCatalog&#45;&gt;ParseCatalog -->
<g id="edge18" class="edge">
<title>JarParseCatalog&#45;&gt;ParseCatalog</title>
<path fill="none" stroke="black" d="M3452,-484.26C3452,-467.14 3452,-440.09 3452,-416.34"/>
<polygon fill="none" stroke="black" points="3455.5,-416.06 3452,-406.06 3448.5,-416.06 3455.5,-416.06"/>
</g>
<!-- LocalFolderParseCatalog -->
<g id="node28" class="node">
<title>LocalFolderParseCatalog</title>
<polygon fill="none" stroke="black" points="3555,-491.5 3555,-512.5 3757,-512.5 3757,-491.5 3555,-491.5"/>
<text text-anchor="start" x="3558" y="-499.3" font-family="Times,serif" font-weight="bold" font-size="14.00">LocalFolderParseCatalog</text>
<polygon fill="none" stroke="black" points="3554,-491 3554,-514 3758,-514 3758,-491 3554,-491"/>
</g>
<!-- LocalFolderParseCatalog&#45;&gt;ParseCatalog -->
<g id="edge19" class="edge">
<title>LocalFolderParseCatalog&#45;&gt;ParseCatalog</title>
<path fill="none" stroke="black" d="M3629.75,-484.26C3601.94,-465.99 3556.91,-436.41 3519.14,-411.6"/>
<polygon fill="none" stroke="black" points="3520.98,-408.62 3510.7,-406.06 3517.14,-414.47 3520.98,-408.62"/>
</g>
<!-- ProcessFile -->
<g id="node29" class="node">
<title>ProcessFile</title>
<polygon fill="none" stroke="black" points="4075,-669.5 4075,-690.5 4172,-690.5 4172,-669.5 4075,-669.5"/>
<text text-anchor="start" x="4078" y="-677.3" font-family="Times,serif" font-weight="bold" font-size="14.00">ProcessFile</text>
<polygon fill="none" stroke="black" points="4073.5,-669 4073.5,-692 4172.5,-692 4172.5,-669 4073.5,-669"/>
</g>
<!-- ProcessFile&#45;&gt;GitParseCatalog -->
<g id="edge20" class="edge">
<title>ProcessFile&#45;&gt;GitParseCatalog</title>
<path fill="none" stroke="black" stroke-dasharray="5,2" d="M4123,-662.3C4123,-631.73 4123,-567.69 4123,-530.96"/>
<polygon fill="black" stroke="black" points="4123,-520.51 4127.5,-530.51 4123,-525.51 4123,-530.51 4123,-530.51 4123,-530.51 4123,-525.51 4118.5,-530.51 4123,-520.51 4123,-520.51"/>
</g>
<!-- ViewDefinitionParseCatalog -->
<g id="node30" class="node">
<title>ViewDefinitionParseCatalog</title>
<polygon fill="none" stroke="black" points="3793,-491.5 3793,-512.5 4019,-512.5 4019,-491.5 3793,-491.5"/>
<text text-anchor="start" x="3796" y="-499.3" font-family="Times,serif" font-weight="bold" font-size="14.00">ViewDefinitionParseCatalog</text>
<polygon fill="none" stroke="black" points="3792,-491 3792,-514 4020,-514 4020,-491 3792,-491"/>
</g>
<!-- ViewDefinitionParseCatalog&#45;&gt;ParseCatalog -->
<g id="edge21" class="edge">
<title>ViewDefinitionParseCatalog&#45;&gt;ParseCatalog</title>
<path fill="none" stroke="black" stroke-dasharray="5,2" d="M3859.26,-484.42C3834.37,-475.53 3803.17,-464.74 3775,-456 3721.81,-439.5 3663.2,-422.95 3610.68,-408.71"/>
<polygon fill="black" stroke="black" points="3600.94,-406.08 3611.77,-404.34 3605.77,-407.38 3610.6,-408.69 3610.6,-408.69 3610.6,-408.69 3605.77,-407.38 3609.42,-413.03 3600.94,-406.08 3600.94,-406.08"/>
</g>
<!-- Parameter -->
<g id="node31" class="node">
<title>Parameter</title>
<polygon fill="none" stroke="black" points="4489,-749.5 4489,-770.5 4625,-770.5 4625,-749.5 4489,-749.5"/>
<text text-anchor="start" x="4515" y="-757.3" font-family="Times,serif" font-weight="bold" font-size="14.00">Parameter</text>
<polygon fill="none" stroke="black" points="4489,-589.5 4489,-749.5 4625,-749.5 4625,-589.5 4489,-589.5"/>
<text text-anchor="start" x="4519" y="-736.3" font-family="Times,serif" font-style="italic" font-size="14.00">Properties</text>
<text text-anchor="start" x="4492" y="-722.3" font-family="Times,serif" font-size="14.00">description:String</text>
<text text-anchor="start" x="4492" y="-708.3" font-family="Times,serif" font-size="14.00">title:String</text>
<text text-anchor="start" x="4492" y="-694.3" font-family="Times,serif" font-size="14.00">id:String</text>
<text text-anchor="start" x="4492" y="-680.3" font-family="Times,serif" font-size="14.00">value:Object</text>
<text text-anchor="start" x="4492" y="-666.3" font-family="Times,serif" font-size="14.00">default:Object</text>
<text text-anchor="start" x="4492" y="-652.3" font-family="Times,serif" font-size="14.00">type:String</text>
<text text-anchor="start" x="4492" y="-638.3" font-family="Times,serif" font-size="14.00">path:Boolean</text>
<text text-anchor="start" x="4492" y="-624.3" font-family="Times,serif" font-size="14.00">nullable:Boolean</text>
<text text-anchor="start" x="4492" y="-610.3" font-family="Times,serif" font-size="14.00">enum:Object[]</text>
<text text-anchor="start" x="4492" y="-596.3" font-family="Times,serif" font-size="14.00">examples:Object[]</text>
<polygon fill="none" stroke="black" points="4488,-589 4488,-772 4626,-772 4626,-589 4488,-589"/>
</g>
<!-- Step -->
<g id="node32" class="node">
<title>Step</title>
<polygon fill="none" stroke="black" points="987,-250.5 987,-271.5 1193,-271.5 1193,-250.5 987,-250.5"/>
<text text-anchor="start" x="1072" y="-258.3" font-family="Times,serif" font-weight="bold" font-size="14.00">Step</text>
<polygon fill="none" stroke="black" points="987,-76.5 987,-250.5 1193,-250.5 1193,-76.5 987,-76.5"/>
<text text-anchor="start" x="1052" y="-237.3" font-family="Times,serif" font-style="italic" font-size="14.00">Properties</text>
<text text-anchor="start" x="990" y="-223.3" font-family="Times,serif" font-size="14.00">description:String</text>
<text text-anchor="start" x="990" y="-209.3" font-family="Times,serif" font-size="14.00">title:String</text>
<text text-anchor="start" x="990" y="-195.3" font-family="Times,serif" font-size="14.00">parameters:List[Parameter]</text>
<text text-anchor="start" x="990" y="-181.3" font-family="Times,serif" font-size="14.00">icon:String</text>
<text text-anchor="start" x="990" y="-167.3" font-family="Times,serif" font-size="14.00">UUID:String</text>
<text text-anchor="start" x="990" y="-153.3" font-family="Times,serif" font-size="14.00">required:String[]</text>
<text text-anchor="start" x="990" y="-139.3" font-family="Times,serif" font-size="14.00">group:String</text>
<text text-anchor="start" x="990" y="-125.3" font-family="Times,serif" font-size="14.00">kind:String</text>
<text text-anchor="start" x="990" y="-111.3" font-family="Times,serif" font-size="14.00">branches:Branch[]</text>
<text text-anchor="start" x="990" y="-97.3" font-family="Times,serif" font-size="14.00">minBranches:Integer</text>
<text text-anchor="start" x="990" y="-83.3" font-family="Times,serif" font-size="14.00">maxBranches:Integer</text>
<polygon fill="none" stroke="black" points="986,-76 986,-273 1194,-273 1194,-76 986,-76"/>
</g>
<!-- Step&#45;&gt;Metadata -->
<g id="edge22" class="edge">
<title>Step&#45;&gt;Metadata</title>
<path fill="none" stroke="black" d="M1202.05,-122.53C1241.99,-105.32 1287.59,-86.75 1330,-72 1376.32,-55.89 1430.25,-41.36 1469.14,-31.61"/>
<polygon fill="none" stroke="black" points="1470.32,-34.92 1479.18,-29.11 1468.63,-28.13 1470.32,-34.92"/>
</g>
<!-- ViewDefinition -->
<g id="node33" class="node">
<title>ViewDefinition</title>
<polygon fill="none" stroke="black" points="1751,-201.5 1751,-222.5 2060,-222.5 2060,-201.5 1751,-201.5"/>
<text text-anchor="start" x="1847.5" y="-209.3" font-family="Times,serif" font-weight="bold" font-size="14.00">ViewDefinition</text>
<polygon fill="none" stroke="black" points="1751,-125.5 1751,-201.5 2060,-201.5 2060,-125.5 1751,-125.5"/>
<text text-anchor="start" x="1867.5" y="-188.3" font-family="Times,serif" font-style="italic" font-size="14.00">Properties</text>
<text text-anchor="start" x="1754" y="-174.3" font-family="Times,serif" font-size="14.00">properties:Map[String, String]</text>
<text text-anchor="start" x="1754" y="-160.3" font-family="Times,serif" font-size="14.00">step:Step</text>
<text text-anchor="start" x="1754" y="-146.3" font-family="Times,serif" font-size="14.00">url:String</text>
<text text-anchor="start" x="1754" y="-132.3" font-family="Times,serif" font-size="14.00">constraints:List[ViewDefinitionConstraint]</text>
<polygon fill="none" stroke="black" points="1749.5,-125 1749.5,-224 2060.5,-224 2060.5,-125 1749.5,-125"/>
</g>
<!-- ViewDefinition&#45;&gt;Metadata -->
<g id="edge23" class="edge">
<title>ViewDefinition&#45;&gt;Metadata</title>
<path fill="none" stroke="black" d="M1815.61,-120.79C1784.19,-103.68 1748.19,-85.61 1714,-72 1668.19,-53.76 1613.85,-39.4 1574.69,-30.25"/>
<polygon fill="none" stroke="black" points="1575.35,-26.81 1564.82,-27.98 1573.78,-33.63 1575.35,-26.81"/>
</g>
<!-- ViewDefinitionConstraint -->
<g id="node34" class="node">
<title>ViewDefinitionConstraint</title>
<text text-anchor="middle" x="1905" y="-362.8" font-family="Times,serif" font-size="14.00">ViewDefinitionConstraint</text>
</g>
<!-- ViewDefinitionConstraint&#45;&gt;ViewDefinition -->
<g id="edge24" class="edge">
<title>ViewDefinitionConstraint&#45;&gt;ViewDefinition</title>
<path fill="none" stroke="black" d="M1905,-348.3C1905,-324.07 1905,-278.56 1905,-240.32"/>
<polygon fill="black" stroke="black" points="1905,-240.2 1901,-234.2 1905,-228.2 1909,-234.2 1905,-240.2"/>
<text text-anchor="middle" x="1891" y="-337.1" font-family="Times,serif" font-size="14.00">0..n</text>
</g>
<!-- StepParserService -->
<g id="node35" class="node">
<title>StepParserService</title>
<polygon fill="none" stroke="black" points="844,-393.5 844,-414.5 1099,-414.5 1099,-393.5 844,-393.5"/>
<text text-anchor="start" x="899" y="-401.3" font-family="Times,serif" font-weight="bold" font-size="14.00">StepParserService</text>
<polygon fill="none" stroke="black" points="844,-317.5 844,-393.5 1099,-393.5 1099,-317.5 844,-317.5"/>
<text text-anchor="start" x="940" y="-380.3" font-family="Times,serif" font-style="italic" font-size="14.00">Methods</text>
<text text-anchor="start" x="847" y="-366.3" font-family="Times,serif" font-size="14.00">identifier():String</text>
<text text-anchor="start" x="847" y="-352.3" font-family="Times,serif" font-size="14.00">description():String</text>
<text text-anchor="start" x="847" y="-338.3" font-family="Times,serif" font-size="14.00">parse(&lt;String&gt; yaml):ParseResult</text>
<text text-anchor="start" x="847" y="-324.3" font-family="Times,serif" font-size="14.00">appliesTo(&lt;String&gt; yaml):boolean</text>
<polygon fill="none" stroke="black" points="842.5,-317 842.5,-416 1099.5,-416 1099.5,-317 842.5,-317"/>
</g>
<!-- StepParserService&#45;&gt;Step -->
<g id="edge25" class="edge">
<title>StepParserService&#45;&gt;Step</title>
<path fill="none" stroke="black" stroke-dasharray="5,2" d="M1003.99,-312.83C1009.36,-304.25 1015.1,-295.1 1020.96,-285.74"/>
<polygon fill="black" stroke="black" points="1026.37,-277.1 1024.87,-287.96 1023.71,-281.34 1021.06,-285.57 1021.06,-285.57 1021.06,-285.57 1023.71,-281.34 1017.25,-283.18 1026.37,-277.1 1026.37,-277.1"/>
</g>
<!-- ViewDefinitionParserService -->
<g id="node36" class="node">
<title>ViewDefinitionParserService</title>
<polygon fill="none" stroke="black" points="2031,-386.5 2031,-407.5 2629,-407.5 2629,-386.5 2031,-386.5"/>
<text text-anchor="start" x="2217.5" y="-394.3" font-family="Times,serif" font-weight="bold" font-size="14.00">ViewDefinitionParserService</text>
<polygon fill="none" stroke="black" points="2031,-324.5 2031,-386.5 2629,-386.5 2629,-324.5 2031,-324.5"/>
<text text-anchor="start" x="2298.5" y="-373.3" font-family="Times,serif" font-style="italic" font-size="14.00">Methods</text>
<text text-anchor="start" x="2034" y="-359.3" font-family="Times,serif" font-size="14.00">parse(&lt;List[Step]&gt; steps):List[ViewDefinition]</text>
<text text-anchor="start" x="2034" y="-345.3" font-family="Times,serif" font-size="14.00">getViewsPerStep(&lt;List[Step]&gt; steps, &lt;ViewDefinition&gt; view):List[ViewDefinition]</text>
<text text-anchor="start" x="2034" y="-331.3" font-family="Times,serif" font-size="14.00">appliesTo(&lt;List[Step]&gt; steps, &lt;ViewDefinition&gt; viewDefinition):boolean</text>
<polygon fill="none" stroke="black" points="2030,-324 2030,-409 2630,-409 2630,-324 2030,-324"/>
</g>
<!-- ViewDefinitionParserService&#45;&gt;ViewDefinition -->
<g id="edge26" class="edge">
<title>ViewDefinitionParserService&#45;&gt;ViewDefinition</title>
<path fill="none" stroke="black" stroke-dasharray="5,2" d="M2228.2,-319.99C2169.22,-293.62 2094.45,-260.19 2031.68,-232.13"/>
<polygon fill="black" stroke="black" points="2022.51,-228.04 2033.48,-228.01 2027.08,-230.08 2031.64,-232.12 2031.64,-232.12 2031.64,-232.12 2027.08,-230.08 2029.81,-236.22 2022.51,-228.04 2022.51,-228.04"/>
</g>
</g>
</svg>
