<?xml version="1.0" encoding="UTF-8" standalone="no"?>
<!DOCTYPE svg PUBLIC "-//W3C//DTD SVG 1.1//EN"
 "http://www.w3.org/Graphics/SVG/1.1/DTD/svg11.dtd">
<!-- Generated by graphviz version 2.43.0 (0)
 -->
<!-- Title: ClassDiagram Pages: 1 -->
<svg width="4808pt" height="729pt"
 viewBox="0.00 0.00 4808.00 729.00" xmlns="http://www.w3.org/2000/svg" xmlns:xlink="http://www.w3.org/1999/xlink">
<g id="graph0" class="graph" transform="scale(1 1) rotate(0) translate(4 725)">
<title>ClassDiagram</title>
<polygon fill="white" stroke="transparent" points="-4,4 -4,-725 4804,-725 4804,4 -4,4"/>
<!-- AbstractCatalog -->
<g id="node1" class="node">
<title>AbstractCatalog</title>
<polygon fill="none" stroke="black" points="2378,-373.5 2378,-394.5 2656,-394.5 2656,-373.5 2378,-373.5"/>
<text text-anchor="start" x="2453.5" y="-381.3" font-family="Times,serif" font-weight="bold" font-size="14.00">AbstractCatalog</text>
<polygon fill="none" stroke="black" points="2378,-325.5 2378,-373.5 2656,-373.5 2656,-325.5 2378,-325.5"/>
<text text-anchor="start" x="2485.5" y="-360.3" font-family="Times,serif" font-style="italic" font-size="14.00">Methods</text>
<text text-anchor="start" x="2381" y="-346.3" font-family="Times,serif" font-size="14.00">waitForWarmUp():CompletableFuture</text>
<text text-anchor="start" x="2381" y="-332.3" font-family="Times,serif" font-size="14.00">loadParsers():List[ParseCatalog]</text>
<polygon fill="none" stroke="black" points="2377,-325 2377,-396 2657,-396 2657,-325 2377,-325"/>
</g>
<!-- MetadataCatalog -->
<g id="node2" class="node">
<title>MetadataCatalog</title>
<polygon fill="none" stroke="black" points="2005,-223.5 2005,-244.5 2348,-244.5 2348,-223.5 2005,-223.5"/>
<text text-anchor="start" x="2108.5" y="-231.3" font-family="Times,serif" font-weight="bold" font-size="14.00">MetadataCatalog</text>
<polygon fill="none" stroke="black" points="2005,-147.5 2005,-223.5 2348,-223.5 2348,-147.5 2005,-147.5"/>
<text text-anchor="start" x="2145" y="-210.3" font-family="Times,serif" font-style="italic" font-size="14.00">Methods</text>
<text text-anchor="start" x="2008" y="-196.3" font-family="Times,serif" font-size="14.00">searchStepByID(&lt;String&gt; id):Metadata</text>
<text text-anchor="start" x="2008" y="-182.3" font-family="Times,serif" font-size="14.00">searchStepByName(&lt;String&gt; name):Metadata</text>
<text text-anchor="start" x="2008" y="-168.3" font-family="Times,serif" font-size="14.00">store(&lt;List[Step]&gt; steps):boolean</text>
<text text-anchor="start" x="2008" y="-154.3" font-family="Times,serif" font-size="14.00">getAll():List[Metadata]</text>
<polygon fill="none" stroke="black" points="2003.5,-147 2003.5,-246 2348.5,-246 2348.5,-147 2003.5,-147"/>
</g>
<!-- AbstractCatalog&#45;&gt;MetadataCatalog -->
<g id="edge1" class="edge">
<title>AbstractCatalog&#45;&gt;MetadataCatalog</title>
<path fill="none" stroke="black" stroke-dasharray="5,2" d="M2435.76,-320.9C2393.92,-301.03 2342.11,-276.42 2295.79,-254.41"/>
<polygon fill="black" stroke="black" points="2286.61,-250.05 2297.57,-250.27 2291.12,-252.19 2295.64,-254.34 2295.64,-254.34 2295.64,-254.34 2291.12,-252.19 2293.71,-258.4 2286.61,-250.05 2286.61,-250.05"/>
</g>
<!-- Metadata -->
<g id="node15" class="node">
<title>Metadata</title>
<polygon fill="none" stroke="black" points="1406,-66.5 1406,-87.5 1501,-87.5 1501,-66.5 1406,-66.5"/>
<text text-anchor="start" x="1415.5" y="-74.3" font-family="Times,serif" font-weight="bold" font-size="14.00">Metadata</text>
<polygon fill="none" stroke="black" points="1406,-4.5 1406,-66.5 1501,-66.5 1501,-4.5 1406,-4.5"/>
<text text-anchor="start" x="1415.5" y="-53.3" font-family="Times,serif" font-style="italic" font-size="14.00">Properties</text>
<text text-anchor="start" x="1409" y="-39.3" font-family="Times,serif" font-size="14.00">ID:String</text>
<text text-anchor="start" x="1409" y="-25.3" font-family="Times,serif" font-size="14.00">name:String</text>
<text text-anchor="start" x="1409" y="-11.3" font-family="Times,serif" font-size="14.00">type:String</text>
<polygon fill="none" stroke="black" points="1404.5,-4 1404.5,-89 1501.5,-89 1501.5,-4 1404.5,-4"/>
</g>
<!-- MetadataCatalog&#45;&gt;Metadata -->
<g id="edge12" class="edge">
<title>MetadataCatalog&#45;&gt;Metadata</title>
<path fill="none" stroke="black" stroke-dasharray="5,2" d="M1995.42,-158.54C1840.84,-126.89 1626.8,-83.08 1519.68,-61.15"/>
<polygon fill="black" stroke="black" points="1509.65,-59.1 1520.35,-56.69 1514.55,-60.1 1519.45,-61.1 1519.45,-61.1 1519.45,-61.1 1514.55,-60.1 1518.55,-65.51 1509.65,-59.1 1509.65,-59.1"/>
</g>
<!-- StepCatalog -->
<g id="node3" class="node">
<title>StepCatalog</title>
<polygon fill="none" stroke="black" points="2555,-513.5 2555,-534.5 2657,-534.5 2657,-513.5 2555,-513.5"/>
<text text-anchor="start" x="2558" y="-521.3" font-family="Times,serif" font-weight="bold" font-size="14.00">StepCatalog</text>
<polygon fill="none" stroke="black" points="2554,-513 2554,-536 2658,-536 2658,-513 2554,-513"/>
</g>
<!-- StepCatalog&#45;&gt;AbstractCatalog -->
<g id="edge2" class="edge">
<title>StepCatalog&#45;&gt;AbstractCatalog</title>
<path fill="none" stroke="black" d="M2596.64,-506.47C2584.08,-483.6 2561.25,-442.05 2543.25,-409.28"/>
<polygon fill="none" stroke="black" points="2546.19,-407.37 2538.31,-400.29 2540.06,-410.74 2546.19,-407.37"/>
</g>
<!-- ViewDefinitionCatalog -->
<g id="node4" class="node">
<title>ViewDefinitionCatalog</title>
<polygon fill="none" stroke="black" points="2337,-513.5 2337,-534.5 2519,-534.5 2519,-513.5 2337,-513.5"/>
<text text-anchor="start" x="2340" y="-521.3" font-family="Times,serif" font-weight="bold" font-size="14.00">ViewDefinitionCatalog</text>
<polygon fill="none" stroke="black" points="2336,-513 2336,-536 2520,-536 2520,-513 2336,-513"/>
</g>
<!-- ViewDefinitionCatalog&#45;&gt;AbstractCatalog -->
<g id="edge3" class="edge">
<title>ViewDefinitionCatalog&#45;&gt;AbstractCatalog</title>
<path fill="none" stroke="black" d="M2437.36,-506.47C2449.92,-483.6 2472.75,-442.05 2490.75,-409.28"/>
<polygon fill="none" stroke="black" points="2493.94,-410.74 2495.69,-400.29 2487.81,-407.37 2493.94,-410.74"/>
</g>
<!-- DeploymentResource -->
<g id="node5" class="node">
<title>DeploymentResource</title>
<polygon fill="none" stroke="black" points="2768,-530.5 2768,-551.5 3181,-551.5 3181,-530.5 2768,-530.5"/>
<text text-anchor="start" x="2890" y="-538.3" font-family="Times,serif" font-weight="bold" font-size="14.00">DeploymentResource</text>
<polygon fill="none" stroke="black" points="2768,-496.5 2768,-530.5 3181,-530.5 3181,-496.5 2768,-496.5"/>
<text text-anchor="start" x="2943" y="-517.3" font-family="Times,serif" font-style="italic" font-size="14.00">Methods</text>
<text text-anchor="start" x="2771" y="-503.3" font-family="Times,serif" font-size="14.00">yaml(&lt;DeploymentResourceYamlRequest&gt; steps):String</text>
<polygon fill="none" stroke="black" points="2766.5,-496 2766.5,-553 3181.5,-553 3181.5,-496 2766.5,-496"/>
</g>
<!-- DeploymentService -->
<g id="node6" class="node">
<title>DeploymentService</title>
<polygon fill="none" stroke="black" points="2794,-680.5 2794,-701.5 3154,-701.5 3154,-680.5 2794,-680.5"/>
<text text-anchor="start" x="2898" y="-688.3" font-family="Times,serif" font-weight="bold" font-size="14.00">DeploymentService</text>
<polygon fill="none" stroke="black" points="2794,-646.5 2794,-680.5 3154,-680.5 3154,-646.5 2794,-646.5"/>
<text text-anchor="start" x="2942.5" y="-667.3" font-family="Times,serif" font-style="italic" font-size="14.00">Methods</text>
<text text-anchor="start" x="2797" y="-653.3" font-family="Times,serif" font-size="14.00">yaml(&lt;List[Step]&gt; steps, &lt;String&gt; name):String</text>
<polygon fill="none" stroke="black" points="2793,-646 2793,-703 3155,-703 3155,-646 2793,-646"/>
</g>
<!-- DeploymentService&#45;&gt;DeploymentResource -->
<g id="edge4" class="edge">
<title>DeploymentService&#45;&gt;DeploymentResource</title>
<path fill="none" stroke="black" d="M2974,-641.75C2974,-620.58 2974,-592.48 2974,-569.21"/>
<polygon fill="black" stroke="black" points="2974,-569.2 2970,-563.2 2974,-557.2 2978,-563.2 2974,-569.2"/>
<text text-anchor="middle" x="2960" y="-630.55" font-family="Times,serif" font-size="14.00">0..1</text>
</g>
<!-- StepResource -->
<g id="node7" class="node">
<title>StepResource</title>
<polygon fill="none" stroke="black" points="2454,-694.5 2454,-715.5 2758,-715.5 2758,-694.5 2454,-694.5"/>
<text text-anchor="start" x="2551.5" y="-702.3" font-family="Times,serif" font-weight="bold" font-size="14.00">StepResource</text>
<polygon fill="none" stroke="black" points="2454,-632.5 2454,-694.5 2758,-694.5 2758,-632.5 2454,-632.5"/>
<text text-anchor="start" x="2574.5" y="-681.3" font-family="Times,serif" font-style="italic" font-size="14.00">Methods</text>
<text text-anchor="start" x="2457" y="-667.3" font-family="Times,serif" font-size="14.00">stepById(&lt;String&gt; id):Step</text>
<text text-anchor="start" x="2457" y="-653.3" font-family="Times,serif" font-size="14.00">stepsByName(&lt;String&gt; name):List[Step]</text>
<text text-anchor="start" x="2457" y="-639.3" font-family="Times,serif" font-size="14.00">allSteps():List[Step]</text>
<polygon fill="none" stroke="black" points="2453,-632 2453,-717 2759,-717 2759,-632 2453,-632"/>
</g>
<!-- StepResource&#45;&gt;StepCatalog -->
<g id="edge5" class="edge">
<title>StepResource&#45;&gt;StepCatalog</title>
<path fill="none" stroke="black" stroke-dasharray="5,2" d="M2606,-627.89C2606,-603.3 2606,-573.78 2606,-552.76"/>
<polygon fill="black" stroke="black" points="2606,-542.62 2610.5,-552.62 2606,-547.62 2606,-552.62 2606,-552.62 2606,-552.62 2606,-547.62 2601.5,-552.62 2606,-542.62 2606,-542.62"/>
</g>
<!-- ViewDefinitionResource -->
<g id="node8" class="node">
<title>ViewDefinitionResource</title>
<polygon fill="none" stroke="black" points="193,-366.5 193,-387.5 389,-387.5 389,-366.5 193,-366.5"/>
<text text-anchor="start" x="196" y="-374.3" font-family="Times,serif" font-weight="bold" font-size="14.00">ViewDefinitionResource</text>
<polygon fill="none" stroke="black" points="193,-332.5 193,-366.5 389,-366.5 389,-332.5 193,-332.5"/>
<text text-anchor="start" x="259.5" y="-353.3" font-family="Times,serif" font-style="italic" font-size="14.00">Methods</text>
<text text-anchor="start" x="206.5" y="-339.3" font-family="Times,serif" font-size="14.00">views:(&lt;String&gt; yaml):</text>
<polygon fill="none" stroke="black" points="192,-332 192,-389 390,-389 390,-332 192,-332"/>
</g>
<!-- ViewDefinitionService -->
<g id="node9" class="node">
<title>ViewDefinitionService</title>
<polygon fill="none" stroke="black" points="396,-530.5 396,-551.5 708,-551.5 708,-530.5 396,-530.5"/>
<text text-anchor="start" x="465.5" y="-538.3" font-family="Times,serif" font-weight="bold" font-size="14.00">ViewDefinitionService</text>
<polygon fill="none" stroke="black" points="396,-496.5 396,-530.5 708,-530.5 708,-496.5 396,-496.5"/>
<text text-anchor="start" x="520.5" y="-517.3" font-family="Times,serif" font-style="italic" font-size="14.00">Methods</text>
<text text-anchor="start" x="399" y="-503.3" font-family="Times,serif" font-size="14.00">views(&lt;String&gt; yaml):List[ViewDefinition]</text>
<polygon fill="none" stroke="black" points="395,-496 395,-553 709,-553 709,-496 395,-496"/>
</g>
<!-- ViewDefinitionService&#45;&gt;ViewDefinitionResource -->
<g id="edge6" class="edge">
<title>ViewDefinitionService&#45;&gt;ViewDefinitionResource</title>
<path fill="none" stroke="black" d="M501.06,-491.88C458.39,-465.4 397.38,-427.53 352.09,-399.42"/>
<polygon fill="black" stroke="black" points="352.01,-399.37 344.8,-399.6 341.81,-393.04 349.02,-392.81 352.01,-399.37"/>
<text text-anchor="middle" x="487.06" y="-480.68" font-family="Times,serif" font-size="14.00">0..1</text>
</g>
<!-- StepParserService -->
<g id="node12" class="node">
<title>StepParserService</title>
<polygon fill="none" stroke="black" points="426,-373.5 426,-394.5 679,-394.5 679,-373.5 426,-373.5"/>
<text text-anchor="start" x="480" y="-381.3" font-family="Times,serif" font-weight="bold" font-size="14.00">StepParserService</text>
<polygon fill="none" stroke="black" points="426,-325.5 426,-373.5 679,-373.5 679,-325.5 426,-325.5"/>
<text text-anchor="start" x="521" y="-360.3" font-family="Times,serif" font-style="italic" font-size="14.00">Methods</text>
<text text-anchor="start" x="429" y="-346.3" font-family="Times,serif" font-size="14.00">parse(&lt;String&gt; yaml):List[Step]</text>
<text text-anchor="start" x="429" y="-332.3" font-family="Times,serif" font-size="14.00">appliesTo(&lt;String&gt; yaml):boolean</text>
<polygon fill="none" stroke="black" points="424.5,-325 424.5,-396 679.5,-396 679.5,-325 424.5,-325"/>
</g>
<!-- ViewDefinitionService&#45;&gt;StepParserService -->
<g id="edge9" class="edge">
<title>ViewDefinitionService&#45;&gt;StepParserService</title>
<path fill="none" stroke="black" stroke-dasharray="5,2" d="M552,-491.88C552,-468.71 552,-436.83 552,-410.39"/>
<polygon fill="black" stroke="black" points="552,-400.18 556.5,-410.18 552,-405.18 552,-410.18 552,-410.18 552,-410.18 552,-405.18 547.5,-410.18 552,-400.18 552,-400.18"/>
</g>
<!-- ViewDefinitionParserService -->
<g id="node13" class="node">
<title>ViewDefinitionParserService</title>
<polygon fill="none" stroke="black" points="1378,-380.5 1378,-401.5 1976,-401.5 1976,-380.5 1378,-380.5"/>
<text text-anchor="start" x="1564.5" y="-388.3" font-family="Times,serif" font-weight="bold" font-size="14.00">ViewDefinitionParserService</text>
<polygon fill="none" stroke="black" points="1378,-318.5 1378,-380.5 1976,-380.5 1976,-318.5 1378,-318.5"/>
<text text-anchor="start" x="1645.5" y="-367.3" font-family="Times,serif" font-style="italic" font-size="14.00">Methods</text>
<text text-anchor="start" x="1381" y="-353.3" font-family="Times,serif" font-size="14.00">parse(&lt;List[Step]&gt; steps):List[ViewDefinition]</text>
<text text-anchor="start" x="1381" y="-339.3" font-family="Times,serif" font-size="14.00">getViewsPerStep(&lt;List[Step]&gt; steps, &lt;ViewDefinition&gt; view):List[ViewDefinition]</text>
<text text-anchor="start" x="1381" y="-325.3" font-family="Times,serif" font-size="14.00">appliesTo(&lt;List[Step]&gt; steps, &lt;ViewDefinition&gt; viewDefinition):boolean</text>
<polygon fill="none" stroke="black" points="1377,-318 1377,-403 1977,-403 1977,-318 1377,-318"/>
</g>
<!-- ViewDefinitionService&#45;&gt;ViewDefinitionParserService -->
<g id="edge10" class="edge">
<title>ViewDefinitionService&#45;&gt;ViewDefinitionParserService</title>
<path fill="none" stroke="black" stroke-dasharray="5,2" d="M717.21,-505.45C880.81,-486.89 1138.25,-455.85 1360,-421 1383.7,-417.28 1408.35,-413.13 1432.96,-408.81"/>
<polygon fill="black" stroke="black" points="1443.13,-407.02 1434.07,-413.19 1438.21,-407.89 1433.28,-408.76 1433.28,-408.76 1433.28,-408.76 1438.21,-407.89 1432.5,-404.32 1443.13,-407.02 1443.13,-407.02"/>
</g>
<!-- DeploymentGeneratorService -->
<g id="node10" class="node">
<title>DeploymentGeneratorService</title>
<polygon fill="none" stroke="black" points="715,-373.5 715,-394.5 1080,-394.5 1080,-373.5 715,-373.5"/>
<text text-anchor="start" x="781.5" y="-381.3" font-family="Times,serif" font-weight="bold" font-size="14.00">DeploymentGeneratorService</text>
<polygon fill="none" stroke="black" points="715,-325.5 715,-373.5 1080,-373.5 1080,-325.5 715,-325.5"/>
<text text-anchor="start" x="866" y="-360.3" font-family="Times,serif" font-style="italic" font-size="14.00">Methods</text>
<text text-anchor="start" x="718" y="-346.3" font-family="Times,serif" font-size="14.00">parse(&lt;String&gt; name, &lt;List[Step]&gt; steps):String</text>
<text text-anchor="start" x="718" y="-332.3" font-family="Times,serif" font-size="14.00">appliesTo(&lt;List[Step]&gt; steps):boolean</text>
<polygon fill="none" stroke="black" points="713.5,-325 713.5,-396 1080.5,-396 1080.5,-325 713.5,-325"/>
</g>
<!-- Step -->
<g id="node11" class="node">
<title>Step</title>
<polygon fill="none" stroke="black" points="622,-237.5 622,-258.5 828,-258.5 828,-237.5 622,-237.5"/>
<text text-anchor="start" x="707" y="-245.3" font-family="Times,serif" font-weight="bold" font-size="14.00">Step</text>
<polygon fill="none" stroke="black" points="622,-133.5 622,-237.5 828,-237.5 828,-133.5 622,-133.5"/>
<text text-anchor="start" x="687" y="-224.3" font-family="Times,serif" font-style="italic" font-size="14.00">Properties</text>
<text text-anchor="start" x="625" y="-210.3" font-family="Times,serif" font-size="14.00">subtype:String</text>
<text text-anchor="start" x="625" y="-196.3" font-family="Times,serif" font-size="14.00">description:String</text>
<text text-anchor="start" x="625" y="-182.3" font-family="Times,serif" font-size="14.00">title:String</text>
<text text-anchor="start" x="625" y="-168.3" font-family="Times,serif" font-size="14.00">parameters:List[Parameter]</text>
<text text-anchor="start" x="625" y="-154.3" font-family="Times,serif" font-size="14.00">icon:String</text>
<text text-anchor="start" x="625" y="-140.3" font-family="Times,serif" font-size="14.00">UUID:String</text>
<polygon fill="none" stroke="black" points="621,-133 621,-260 829,-260 829,-133 621,-133"/>
</g>
<!-- DeploymentGeneratorService&#45;&gt;Step -->
<g id="edge7" class="edge">
<title>DeploymentGeneratorService&#45;&gt;Step</title>
<path fill="none" stroke="black" stroke-dasharray="5,2" d="M855.8,-320.7C840.06,-305.87 821.54,-288.43 803.47,-271.41"/>
<polygon fill="black" stroke="black" points="795.76,-264.15 806.13,-267.73 799.4,-267.58 803.04,-271.01 803.04,-271.01 803.04,-271.01 799.4,-267.58 799.96,-274.28 795.76,-264.15 795.76,-264.15"/>
</g>
<!-- Step&#45;&gt;Metadata -->
<g id="edge20" class="edge">
<title>Step&#45;&gt;Metadata</title>
<path fill="none" stroke="black" d="M837.15,-172.7C990.74,-141.48 1261.65,-86.4 1386.54,-61.01"/>
<polygon fill="none" stroke="black" points="1387.25,-64.44 1396.36,-59.02 1385.86,-57.58 1387.25,-64.44"/>
</g>
<!-- StepParserService&#45;&gt;Step -->
<g id="edge8" class="edge">
<title>StepParserService&#45;&gt;Step</title>
<path fill="none" stroke="black" stroke-dasharray="5,2" d="M593.44,-320.7C609.27,-305.87 627.89,-288.43 646.07,-271.41"/>
<polygon fill="black" stroke="black" points="653.82,-264.15 649.6,-274.27 650.17,-267.57 646.52,-270.99 646.52,-270.99 646.52,-270.99 650.17,-267.57 643.45,-267.7 653.82,-264.15 653.82,-264.15"/>
</g>
<!-- ViewDefinition -->
<g id="node14" class="node">
<title>ViewDefinition</title>
<polygon fill="none" stroke="black" points="1299,-223.5 1299,-244.5 1608,-244.5 1608,-223.5 1299,-223.5"/>
<text text-anchor="start" x="1395.5" y="-231.3" font-family="Times,serif" font-weight="bold" font-size="14.00">ViewDefinition</text>
<polygon fill="none" stroke="black" points="1299,-147.5 1299,-223.5 1608,-223.5 1608,-147.5 1299,-147.5"/>
<text text-anchor="start" x="1415.5" y="-210.3" font-family="Times,serif" font-style="italic" font-size="14.00">Properties</text>
<text text-anchor="start" x="1302" y="-196.3" font-family="Times,serif" font-size="14.00">properties:Map[String, String]</text>
<text text-anchor="start" x="1302" y="-182.3" font-family="Times,serif" font-size="14.00">step:Step</text>
<text text-anchor="start" x="1302" y="-168.3" font-family="Times,serif" font-size="14.00">url:String</text>
<text text-anchor="start" x="1302" y="-154.3" font-family="Times,serif" font-size="14.00">constraints:List[ViewDefinitionConstraint]</text>
<polygon fill="none" stroke="black" points="1297.5,-147 1297.5,-246 1608.5,-246 1608.5,-147 1297.5,-147"/>
</g>
<!-- ViewDefinitionParserService&#45;&gt;ViewDefinition -->
<g id="edge11" class="edge">
<title>ViewDefinitionParserService&#45;&gt;ViewDefinition</title>
<path fill="none" stroke="black" stroke-dasharray="5,2" d="M1614.01,-313.94C1589.25,-296.04 1560.52,-275.26 1534.24,-256.25"/>
<polygon fill="black" stroke="black" points="1525.8,-250.15 1536.54,-252.36 1529.85,-253.08 1533.9,-256.01 1533.9,-256.01 1533.9,-256.01 1529.85,-253.08 1531.26,-259.66 1525.8,-250.15 1525.8,-250.15"/>
</g>
<!-- ViewDefinition&#45;&gt;Metadata -->
<g id="edge23" class="edge">
<title>ViewDefinition&#45;&gt;Metadata</title>
<path fill="none" stroke="black" d="M1453,-142.9C1453,-130.05 1453,-116.26 1453,-103.27"/>
<polygon fill="none" stroke="black" points="1456.5,-103.06 1453,-93.06 1449.5,-103.06 1456.5,-103.06"/>
</g>
<!-- ParseCatalog -->
<g id="node16" class="node">
<title>ParseCatalog</title>
<polygon fill="none" stroke="black" points="3490,-366.5 3490,-387.5 3747,-387.5 3747,-366.5 3490,-366.5"/>
<text text-anchor="start" x="3566" y="-374.3" font-family="Times,serif" font-weight="bold" font-size="14.00">ParseCatalog</text>
<polygon fill="none" stroke="black" points="3490,-332.5 3490,-366.5 3747,-366.5 3747,-332.5 3490,-332.5"/>
<text text-anchor="start" x="3587" y="-353.3" font-family="Times,serif" font-style="italic" font-size="14.00">Methods</text>
<text text-anchor="start" x="3493" y="-339.3" font-family="Times,serif" font-size="14.00">parse():CompletableFuture[List[T]]</text>
<polygon fill="none" stroke="black" points="3488.5,-332 3488.5,-389 3747.5,-389 3747.5,-332 3488.5,-332"/>
</g>
<!-- CatalogCollection -->
<g id="node17" class="node">
<title>CatalogCollection</title>
<polygon fill="none" stroke="black" points="2012,-349.5 2012,-370.5 2158,-370.5 2158,-349.5 2012,-349.5"/>
<text text-anchor="start" x="2015" y="-357.3" font-family="Times,serif" font-weight="bold" font-size="14.00">CatalogCollection</text>
<polygon fill="none" stroke="black" points="2011,-349 2011,-372 2159,-372 2159,-349 2011,-349"/>
</g>
<!-- CatalogCollection&#45;&gt;MetadataCatalog -->
<g id="edge13" class="edge">
<title>CatalogCollection&#45;&gt;MetadataCatalog</title>
<path fill="none" stroke="black" d="M2094.57,-342.47C2105.7,-322.65 2124.71,-288.82 2141.56,-258.81"/>
<polygon fill="none" stroke="black" points="2144.63,-260.49 2146.48,-250.06 2138.53,-257.06 2144.63,-260.49"/>
</g>
<!-- InMemoryCatalog -->
<g id="node18" class="node">
<title>InMemoryCatalog</title>
<polygon fill="none" stroke="black" points="2194,-349.5 2194,-370.5 2342,-370.5 2342,-349.5 2194,-349.5"/>
<text text-anchor="start" x="2197" y="-357.3" font-family="Times,serif" font-weight="bold" font-size="14.00">InMemoryCatalog</text>
<polygon fill="none" stroke="black" points="2193,-349 2193,-372 2343,-372 2343,-349 2193,-349"/>
</g>
<!-- InMemoryCatalog&#45;&gt;MetadataCatalog -->
<g id="edge14" class="edge">
<title>InMemoryCatalog&#45;&gt;MetadataCatalog</title>
<path fill="none" stroke="black" d="M2258.33,-342.47C2247.08,-322.65 2227.86,-288.82 2210.82,-258.81"/>
<polygon fill="none" stroke="black" points="2213.83,-257.03 2205.85,-250.06 2207.74,-260.48 2213.83,-257.03"/>
</g>
<!-- ReadOnlyCatalog -->
<g id="node19" class="node">
<title>ReadOnlyCatalog</title>
<polygon fill="none" stroke="black" points="2014,-513.5 2014,-534.5 2156,-534.5 2156,-513.5 2014,-513.5"/>
<text text-anchor="start" x="2017" y="-521.3" font-family="Times,serif" font-weight="bold" font-size="14.00">ReadOnlyCatalog</text>
<polygon fill="none" stroke="black" points="2013,-513 2013,-536 2157,-536 2157,-513 2013,-513"/>
</g>
<!-- ReadOnlyCatalog&#45;&gt;CatalogCollection -->
<g id="edge15" class="edge">
<title>ReadOnlyCatalog&#45;&gt;CatalogCollection</title>
<path fill="none" stroke="black" d="M2085,-506.47C2085,-478.47 2085,-422.46 2085,-388.85"/>
<polygon fill="none" stroke="black" points="2088.5,-388.79 2085,-378.79 2081.5,-388.79 2088.5,-388.79"/>
</g>
<!-- GitParseCatalog -->
<g id="node20" class="node">
<title>GitParseCatalog</title>
<polygon fill="none" stroke="black" points="3217,-530.5 3217,-551.5 4019,-551.5 4019,-530.5 3217,-530.5"/>
<text text-anchor="start" x="3553.5" y="-538.3" font-family="Times,serif" font-weight="bold" font-size="14.00">GitParseCatalog</text>
<polygon fill="none" stroke="black" points="3217,-496.5 3217,-530.5 4019,-530.5 4019,-496.5 3217,-496.5"/>
<text text-anchor="start" x="3586.5" y="-517.3" font-family="Times,serif" font-style="italic" font-size="14.00">Methods</text>
<text text-anchor="start" x="3220" y="-503.3" font-family="Times,serif" font-size="14.00">getFileVisitor(&lt;List[Metadata]&gt; metadataList, &lt;List[CompletableFuture[]]&gt; futureMetadata):YamlProcessFile</text>
<polygon fill="none" stroke="black" points="3216,-496 3216,-553 4020,-553 4020,-496 3216,-496"/>
</g>
<!-- GitParseCatalog&#45;&gt;ParseCatalog -->
<g id="edge16" class="edge">
<title>GitParseCatalog&#45;&gt;ParseCatalog</title>
<path fill="none" stroke="black" d="M3618,-491.88C3618,-466.57 3618,-430.86 3618,-403.2"/>
<polygon fill="none" stroke="black" points="3621.5,-403.04 3618,-393.04 3614.5,-403.04 3621.5,-403.04"/>
</g>
<!-- YamlProcessFile -->
<g id="node21" class="node">
<title>YamlProcessFile</title>
<polygon fill="none" stroke="black" points="3359,-663.5 3359,-684.5 3494,-684.5 3494,-663.5 3359,-663.5"/>
<text text-anchor="start" x="3362" y="-671.3" font-family="Times,serif" font-weight="bold" font-size="14.00">YamlProcessFile</text>
<polygon fill="none" stroke="black" points="3357.5,-663 3357.5,-686 3494.5,-686 3494.5,-663 3357.5,-663"/>
</g>
<!-- YamlProcessFile&#45;&gt;GitParseCatalog -->
<g id="edge17" class="edge">
<title>YamlProcessFile&#45;&gt;GitParseCatalog</title>
<path fill="none" stroke="black" stroke-dasharray="5,2" d="M3448.4,-656.23C3477.77,-633.6 3530.1,-593.25 3568.89,-563.35"/>
<polygon fill="black" stroke="black" points="3576.95,-557.14 3571.78,-566.81 3572.99,-560.19 3569.03,-563.25 3569.03,-563.25 3569.03,-563.25 3572.99,-560.19 3566.29,-559.68 3576.95,-557.14 3576.95,-557.14"/>
</g>
<!-- KameletParseCatalog -->
<g id="node22" class="node">
<title>KameletParseCatalog</title>
<polygon fill="none" stroke="black" points="3530,-663.5 3530,-684.5 3707,-684.5 3707,-663.5 3530,-663.5"/>
<text text-anchor="start" x="3533" y="-671.3" font-family="Times,serif" font-weight="bold" font-size="14.00">KameletParseCatalog</text>
<polygon fill="none" stroke="black" points="3528.5,-663 3528.5,-686 3707.5,-686 3707.5,-663 3528.5,-663"/>
</g>
<!-- KameletParseCatalog&#45;&gt;GitParseCatalog -->
<g id="edge18" class="edge">
<title>KameletParseCatalog&#45;&gt;GitParseCatalog</title>
<path fill="none" stroke="black" d="M3618,-656.23C3618,-634.54 3618,-596.6 3618,-567.16"/>
<polygon fill="none" stroke="black" points="3621.5,-567.14 3618,-557.14 3614.5,-567.14 3621.5,-567.14"/>
</g>
<!-- ViewDefinitionParseCatalog -->
<g id="node23" class="node">
<title>ViewDefinitionParseCatalog</title>
<polygon fill="none" stroke="black" points="3743,-663.5 3743,-684.5 3969,-684.5 3969,-663.5 3743,-663.5"/>
<text text-anchor="start" x="3746" y="-671.3" font-family="Times,serif" font-weight="bold" font-size="14.00">ViewDefinitionParseCatalog</text>
<polygon fill="none" stroke="black" points="3742,-663 3742,-686 3970,-686 3970,-663 3742,-663"/>
</g>
<!-- ViewDefinitionParseCatalog&#45;&gt;GitParseCatalog -->
<g id="edge19" class="edge">
<title>ViewDefinitionParseCatalog&#45;&gt;GitParseCatalog</title>
<path fill="none" stroke="black" d="M3828.23,-656.23C3791.52,-633.41 3725.87,-592.58 3677.67,-562.6"/>
<polygon fill="none" stroke="black" points="3679.22,-559.45 3668.88,-557.14 3675.53,-565.39 3679.22,-559.45"/>
</g>
<!-- KameletBinding -->
<g id="node24" class="node">
<title>KameletBinding</title>
<polygon fill="none" stroke="black" points="4005,-674.5 4005,-695.5 4141,-695.5 4141,-674.5 4005,-674.5"/>
<text text-anchor="start" x="4008" y="-682.3" font-family="Times,serif" font-weight="bold" font-size="14.00">KameletBinding</text>
<polygon fill="none" stroke="black" points="4005,-653.5 4005,-674.5 4141,-674.5 4141,-653.5 4005,-653.5"/>
<text text-anchor="start" x="4018" y="-661.3" font-family="Times,serif" font-style="italic" font-size="14.00">Usage example</text>
<polygon fill="none" stroke="black" points="4004,-652.5 4004,-696.5 4142,-696.5 4142,-652.5 4004,-652.5"/>
</g>
<!-- KameletBindingSpec -->
<g id="node25" class="node">
<title>KameletBindingSpec</title>
<polygon fill="none" stroke="black" points="4177,-674.5 4177,-695.5 4349,-695.5 4349,-674.5 4177,-674.5"/>
<text text-anchor="start" x="4180" y="-682.3" font-family="Times,serif" font-weight="bold" font-size="14.00">KameletBindingSpec</text>
<polygon fill="none" stroke="black" points="4177,-653.5 4177,-674.5 4349,-674.5 4349,-653.5 4177,-653.5"/>
<text text-anchor="start" x="4208" y="-661.3" font-family="Times,serif" font-style="italic" font-size="14.00">Usage example</text>
<polygon fill="none" stroke="black" points="4176,-652.5 4176,-696.5 4350,-696.5 4350,-652.5 4176,-652.5"/>
</g>
<!-- KameletBindingStep -->
<g id="node26" class="node">
<title>KameletBindingStep</title>
<polygon fill="none" stroke="black" points="4386,-674.5 4386,-695.5 4557,-695.5 4557,-674.5 4386,-674.5"/>
<text text-anchor="start" x="4389" y="-682.3" font-family="Times,serif" font-weight="bold" font-size="14.00">KameletBindingStep</text>
<polygon fill="none" stroke="black" points="4386,-653.5 4386,-674.5 4557,-674.5 4557,-653.5 4386,-653.5"/>
<text text-anchor="start" x="4416.5" y="-661.3" font-family="Times,serif" font-style="italic" font-size="14.00">Usage example</text>
<polygon fill="none" stroke="black" points="4384.5,-652.5 4384.5,-696.5 4557.5,-696.5 4557.5,-652.5 4384.5,-652.5"/>
</g>
<!-- KameletBindingStepRef -->
<g id="node27" class="node">
<title>KameletBindingStepRef</title>
<polygon fill="none" stroke="black" points="4593,-674.5 4593,-695.5 4791,-695.5 4791,-674.5 4593,-674.5"/>
<text text-anchor="start" x="4596" y="-682.3" font-family="Times,serif" font-weight="bold" font-size="14.00">KameletBindingStepRef</text>
<polygon fill="none" stroke="black" points="4593,-653.5 4593,-674.5 4791,-674.5 4791,-653.5 4593,-653.5"/>
<text text-anchor="start" x="4637" y="-661.3" font-family="Times,serif" font-style="italic" font-size="14.00">Usage example</text>
<polygon fill="none" stroke="black" points="4592,-652.5 4592,-696.5 4792,-696.5 4792,-652.5 4592,-652.5"/>
</g>
<!-- Parameter -->
<g id="node28" class="node">
<title>Parameter</title>
<polygon fill="none" stroke="black" points="15,-565.5 15,-586.5 151,-586.5 151,-565.5 15,-565.5"/>
<text text-anchor="start" x="41" y="-573.3" font-family="Times,serif" font-weight="bold" font-size="14.00">Parameter</text>
<polygon fill="none" stroke="black" points="15,-461.5 15,-565.5 151,-565.5 151,-461.5 15,-461.5"/>
<text text-anchor="start" x="45" y="-552.3" font-family="Times,serif" font-style="italic" font-size="14.00">Properties</text>
<text text-anchor="start" x="18" y="-538.3" font-family="Times,serif" font-size="14.00">description:String</text>
<text text-anchor="start" x="18" y="-524.3" font-family="Times,serif" font-size="14.00">label:String</text>
<text text-anchor="start" x="18" y="-510.3" font-family="Times,serif" font-size="14.00">id:String</text>
<text text-anchor="start" x="18" y="-496.3" font-family="Times,serif" font-size="14.00">value:String</text>
<text text-anchor="start" x="18" y="-482.3" font-family="Times,serif" font-size="14.00">default:String</text>
<text text-anchor="start" x="18" y="-468.3" font-family="Times,serif" font-size="14.00">type:String</text>
<polygon fill="none" stroke="black" points="14,-461 14,-588 152,-588 152,-461 14,-461"/>
</g>
<!-- KameletStep -->
<g id="node29" class="node">
<title>KameletStep</title>
<polygon fill="none" stroke="black" points="9,-394.5 9,-415.5 157,-415.5 157,-394.5 9,-394.5"/>
<text text-anchor="start" x="32" y="-402.3" font-family="Times,serif" font-weight="bold" font-size="14.00">KameletStep</text>
<polygon fill="none" stroke="black" points="9,-304.5 9,-394.5 157,-394.5 157,-304.5 9,-304.5"/>
<text text-anchor="start" x="45" y="-381.3" font-family="Times,serif" font-style="italic" font-size="14.00">Properties</text>
<text text-anchor="start" x="12" y="-367.3" font-family="Times,serif" font-size="14.00">group:String</text>
<text text-anchor="start" x="12" y="-353.3" font-family="Times,serif" font-size="14.00">kameletType:String</text>
<text text-anchor="start" x="12" y="-339.3" font-family="Times,serif" font-size="14.00">apiVersion:String</text>
<text text-anchor="start" x="12" y="-325.3" font-family="Times,serif" font-size="14.00">kind:String</text>
<text text-anchor="start" x="12" y="-311.3" font-family="Times,serif" font-size="14.00">spec:String</text>
<polygon fill="none" stroke="black" points="8,-304 8,-417 158,-417 158,-304 8,-304"/>
</g>
<!-- Parameter&#45;&gt;KameletStep -->
<g id="edge22" class="edge">
<title>Parameter&#45;&gt;KameletStep</title>
<path fill="none" stroke="black" d="M83,-456.67C83,-448.95 83,-441.05 83,-433.27"/>
<polygon fill="black" stroke="black" points="83,-433.17 79,-427.17 83,-421.17 87,-427.17 83,-433.17"/>
<text text-anchor="middle" x="69" y="-445.47" font-family="Times,serif" font-size="14.00">0..n</text>
</g>
<!-- KameletStep&#45;&gt;Step -->
<g id="edge21" class="edge">
<title>KameletStep&#45;&gt;Step</title>
<path fill="none" stroke="black" d="M166.25,-303.76C169.16,-302.42 172.08,-301.16 175,-300 315.58,-243.99 488.76,-218.19 602.79,-206.57"/>
<polygon fill="none" stroke="black" points="603.34,-210.03 612.95,-205.56 602.65,-203.07 603.34,-210.03"/>
</g>
<!-- ViewDefinitionConstraint -->
<g id="node30" class="node">
<title>ViewDefinitionConstraint</title>
<polygon fill="none" stroke="black" points="1116,-380.5 1116,-401.5 1342,-401.5 1342,-380.5 1116,-380.5"/>
<text text-anchor="start" x="1128.5" y="-388.3" font-family="Times,serif" font-weight="bold" font-size="14.00">ViewDefinitionConstraint</text>
<polygon fill="none" stroke="black" points="1116,-318.5 1116,-380.5 1342,-380.5 1342,-318.5 1116,-318.5"/>
<text text-anchor="start" x="1191" y="-367.3" font-family="Times,serif" font-style="italic" font-size="14.00">Properties</text>
<text text-anchor="start" x="1119" y="-353.3" font-family="Times,serif" font-size="14.00">mandatory:boolean</text>
<text text-anchor="start" x="1119" y="-339.3" font-family="Times,serif" font-size="14.00">operation:ConstraintOperation</text>
<text text-anchor="start" x="1119" y="-325.3" font-family="Times,serif" font-size="14.00">parameter:String</text>
<polygon fill="none" stroke="black" points="1115,-318 1115,-403 1343,-403 1343,-318 1115,-318"/>
</g>
<!-- ViewDefinitionConstraint&#45;&gt;ViewDefinition -->
<g id="edge24" class="edge">
<title>ViewDefinitionConstraint&#45;&gt;ViewDefinition</title>
<path fill="none" stroke="black" d="M1291.99,-313.94C1316.32,-296.35 1344.49,-275.98 1370.39,-257.24"/>
<polygon fill="black" stroke="black" points="1370.48,-257.18 1373,-250.42 1380.2,-250.15 1377.68,-256.91 1370.48,-257.18"/>
<text text-anchor="middle" x="1277.99" y="-302.74" font-family="Times,serif" font-size="14.00">0..n</text>
</g>
</g>
</svg>
