<?xml version="1.0" encoding="UTF-8" standalone="no"?>
<!DOCTYPE svg PUBLIC "-//W3C//DTD SVG 1.1//EN"
 "http://www.w3.org/Graphics/SVG/1.1/DTD/svg11.dtd">
<!-- Generated by graphviz version 2.43.0 (0)
 -->
<!-- Title: ClassDiagram Pages: 1 -->
<svg width="3798pt" height="729pt"
 viewBox="0.00 0.00 3797.50 729.00" xmlns="http://www.w3.org/2000/svg" xmlns:xlink="http://www.w3.org/1999/xlink">
<g id="graph0" class="graph" transform="scale(1 1) rotate(0) translate(4 725)">
<title>ClassDiagram</title>
<polygon fill="white" stroke="transparent" points="-4,4 -4,-725 3793.5,-725 3793.5,4 -4,4"/>
<!-- DeploymentResource -->
<g id="node1" class="node">
<title>DeploymentResource</title>
<polygon fill="none" stroke="black" points="9.5,-551.5 9.5,-572.5 422.5,-572.5 422.5,-551.5 9.5,-551.5"/>
<text text-anchor="start" x="131.5" y="-559.3" font-family="Times,serif" font-weight="bold" font-size="14.00">DeploymentResource</text>
<polygon fill="none" stroke="black" points="9.5,-475.5 9.5,-551.5 422.5,-551.5 422.5,-475.5 9.5,-475.5"/>
<text text-anchor="start" x="184.5" y="-538.3" font-family="Times,serif" font-style="italic" font-size="14.00">Methods</text>
<text text-anchor="start" x="12.5" y="-524.3" font-family="Times,serif" font-size="14.00">yaml(&lt;DeploymentResourceYamlRequest&gt; steps):String</text>
<text text-anchor="start" x="12.5" y="-510.3" font-family="Times,serif" font-size="14.00">start(&lt;DeploymentResourceYamlRequest&gt; steps):String</text>
<text text-anchor="start" x="12.5" y="-496.3" font-family="Times,serif" font-size="14.00">integrations():String</text>
<text text-anchor="start" x="12.5" y="-482.3" font-family="Times,serif" font-size="14.00">stop():String</text>
<polygon fill="none" stroke="black" points="8,-475 8,-574 423,-574 423,-475 8,-475"/>
</g>
<!-- DeploymentService -->
<g id="node2" class="node">
<title>DeploymentService</title>
<polygon fill="none" stroke="black" points="35.5,-680.5 35.5,-701.5 395.5,-701.5 395.5,-680.5 35.5,-680.5"/>
<text text-anchor="start" x="139.5" y="-688.3" font-family="Times,serif" font-weight="bold" font-size="14.00">DeploymentService</text>
<polygon fill="none" stroke="black" points="35.5,-646.5 35.5,-680.5 395.5,-680.5 395.5,-646.5 35.5,-646.5"/>
<text text-anchor="start" x="184" y="-667.3" font-family="Times,serif" font-style="italic" font-size="14.00">Methods</text>
<text text-anchor="start" x="38.5" y="-653.3" font-family="Times,serif" font-size="14.00">yaml(&lt;List[Step]&gt; steps, &lt;String&gt; name):String</text>
<polygon fill="none" stroke="black" points="34.5,-646 34.5,-703 396.5,-703 396.5,-646 34.5,-646"/>
</g>
<!-- DeploymentService&#45;&gt;DeploymentResource -->
<g id="edge1" class="edge">
<title>DeploymentService&#45;&gt;DeploymentResource</title>
<path fill="none" stroke="black" d="M215.5,-641.75C215.5,-626.71 215.5,-608.16 215.5,-590.33"/>
<polygon fill="black" stroke="black" points="215.5,-590.16 211.5,-584.16 215.5,-578.16 219.5,-584.16 215.5,-590.16"/>
<text text-anchor="middle" x="201.5" y="-630.55" font-family="Times,serif" font-size="14.00">0..1</text>
</g>
<!-- StepResource -->
<g id="node3" class="node">
<title>StepResource</title>
<polygon fill="none" stroke="black" points="2486.5,-694.5 2486.5,-715.5 2790.5,-715.5 2790.5,-694.5 2486.5,-694.5"/>
<text text-anchor="start" x="2584" y="-702.3" font-family="Times,serif" font-weight="bold" font-size="14.00">StepResource</text>
<polygon fill="none" stroke="black" points="2486.5,-632.5 2486.5,-694.5 2790.5,-694.5 2790.5,-632.5 2486.5,-632.5"/>
<text text-anchor="start" x="2607" y="-681.3" font-family="Times,serif" font-style="italic" font-size="14.00">Methods</text>
<text text-anchor="start" x="2489.5" y="-667.3" font-family="Times,serif" font-size="14.00">stepById(&lt;String&gt; id):Step</text>
<text text-anchor="start" x="2489.5" y="-653.3" font-family="Times,serif" font-size="14.00">stepsByName(&lt;String&gt; name):List[Step]</text>
<text text-anchor="start" x="2489.5" y="-639.3" font-family="Times,serif" font-size="14.00">allSteps():List[Step]</text>
<polygon fill="none" stroke="black" points="2485.5,-632 2485.5,-717 2791.5,-717 2791.5,-632 2485.5,-632"/>
</g>
<!-- StepCatalog -->
<g id="node4" class="node">
<title>StepCatalog</title>
<polygon fill="none" stroke="black" points="2587.5,-513.5 2587.5,-534.5 2689.5,-534.5 2689.5,-513.5 2587.5,-513.5"/>
<text text-anchor="start" x="2590.5" y="-521.3" font-family="Times,serif" font-weight="bold" font-size="14.00">StepCatalog</text>
<polygon fill="none" stroke="black" points="2586.5,-513 2586.5,-536 2690.5,-536 2690.5,-513 2586.5,-513"/>
</g>
<!-- StepResource&#45;&gt;StepCatalog -->
<g id="edge2" class="edge">
<title>StepResource&#45;&gt;StepCatalog</title>
<path fill="none" stroke="black" stroke-dasharray="5,2" d="M2638.5,-627.89C2638.5,-603.3 2638.5,-573.78 2638.5,-552.76"/>
<polygon fill="black" stroke="black" points="2638.5,-542.62 2643,-552.62 2638.5,-547.62 2638.5,-552.62 2638.5,-552.62 2638.5,-552.62 2638.5,-547.62 2634,-552.62 2638.5,-542.62 2638.5,-542.62"/>
</g>
<!-- AbstractCatalog -->
<g id="node9" class="node">
<title>AbstractCatalog</title>
<polygon fill="none" stroke="black" points="2454.5,-373.5 2454.5,-394.5 2732.5,-394.5 2732.5,-373.5 2454.5,-373.5"/>
<text text-anchor="start" x="2530" y="-381.3" font-family="Times,serif" font-weight="bold" font-size="14.00">AbstractCatalog</text>
<polygon fill="none" stroke="black" points="2454.5,-325.5 2454.5,-373.5 2732.5,-373.5 2732.5,-325.5 2454.5,-325.5"/>
<text text-anchor="start" x="2562" y="-360.3" font-family="Times,serif" font-style="italic" font-size="14.00">Methods</text>
<text text-anchor="start" x="2457.5" y="-346.3" font-family="Times,serif" font-size="14.00">waitForWarmUp():CompletableFuture</text>
<text text-anchor="start" x="2457.5" y="-332.3" font-family="Times,serif" font-size="14.00">loadParsers():List[ParseCatalog]</text>
<polygon fill="none" stroke="black" points="2453.5,-325 2453.5,-396 2733.5,-396 2733.5,-325 2453.5,-325"/>
</g>
<!-- StepCatalog&#45;&gt;AbstractCatalog -->
<g id="edge7" class="edge">
<title>StepCatalog&#45;&gt;AbstractCatalog</title>
<path fill="none" stroke="black" d="M2633.77,-506.47C2627.47,-483.79 2616.07,-442.76 2607,-410.12"/>
<polygon fill="none" stroke="black" points="2610.32,-408.99 2604.27,-400.29 2603.58,-410.86 2610.32,-408.99"/>
</g>
<!-- ViewDefinitionResource -->
<g id="node5" class="node">
<title>ViewDefinitionResource</title>
<polygon fill="none" stroke="black" points="636.5,-366.5 636.5,-387.5 832.5,-387.5 832.5,-366.5 636.5,-366.5"/>
<text text-anchor="start" x="639.5" y="-374.3" font-family="Times,serif" font-weight="bold" font-size="14.00">ViewDefinitionResource</text>
<polygon fill="none" stroke="black" points="636.5,-332.5 636.5,-366.5 832.5,-366.5 832.5,-332.5 636.5,-332.5"/>
<text text-anchor="start" x="703" y="-353.3" font-family="Times,serif" font-style="italic" font-size="14.00">Methods</text>
<text text-anchor="start" x="650" y="-339.3" font-family="Times,serif" font-size="14.00">views:(&lt;String&gt; yaml):</text>
<polygon fill="none" stroke="black" points="635.5,-332 635.5,-389 833.5,-389 833.5,-332 635.5,-332"/>
</g>
<!-- ViewDefinitionService -->
<g id="node6" class="node">
<title>ViewDefinitionService</title>
<polygon fill="none" stroke="black" points="1239.5,-530.5 1239.5,-551.5 1551.5,-551.5 1551.5,-530.5 1239.5,-530.5"/>
<text text-anchor="start" x="1309" y="-538.3" font-family="Times,serif" font-weight="bold" font-size="14.00">ViewDefinitionService</text>
<polygon fill="none" stroke="black" points="1239.5,-496.5 1239.5,-530.5 1551.5,-530.5 1551.5,-496.5 1239.5,-496.5"/>
<text text-anchor="start" x="1364" y="-517.3" font-family="Times,serif" font-style="italic" font-size="14.00">Methods</text>
<text text-anchor="start" x="1242.5" y="-503.3" font-family="Times,serif" font-size="14.00">views(&lt;String&gt; yaml):List[ViewDefinition]</text>
<polygon fill="none" stroke="black" points="1238.5,-496 1238.5,-553 1552.5,-553 1552.5,-496 1238.5,-496"/>
</g>
<!-- ViewDefinitionService&#45;&gt;ViewDefinitionResource -->
<g id="edge3" class="edge">
<title>ViewDefinitionService&#45;&gt;ViewDefinitionResource</title>
<path fill="none" stroke="black" d="M1230.42,-505.27C1120.41,-490.05 973.75,-463.77 849.5,-421 832.4,-415.11 814.7,-407.05 798.45,-398.77"/>
<polygon fill="black" stroke="black" points="798.1,-398.58 790.92,-399.34 787.46,-393.01 794.63,-392.25 798.1,-398.58"/>
<text text-anchor="middle" x="1216.42" y="-509.07" font-family="Times,serif" font-size="14.00">0..1</text>
</g>
<!-- StepParserService -->
<g id="node7" class="node">
<title>StepParserService</title>
<polygon fill="none" stroke="black" points="1269.5,-373.5 1269.5,-394.5 1522.5,-394.5 1522.5,-373.5 1269.5,-373.5"/>
<text text-anchor="start" x="1323.5" y="-381.3" font-family="Times,serif" font-weight="bold" font-size="14.00">StepParserService</text>
<polygon fill="none" stroke="black" points="1269.5,-325.5 1269.5,-373.5 1522.5,-373.5 1522.5,-325.5 1269.5,-325.5"/>
<text text-anchor="start" x="1364.5" y="-360.3" font-family="Times,serif" font-style="italic" font-size="14.00">Methods</text>
<text text-anchor="start" x="1272.5" y="-346.3" font-family="Times,serif" font-size="14.00">parse(&lt;String&gt; yaml):List[Step]</text>
<text text-anchor="start" x="1272.5" y="-332.3" font-family="Times,serif" font-size="14.00">appliesTo(&lt;String&gt; yaml):boolean</text>
<polygon fill="none" stroke="black" points="1268,-325 1268,-396 1523,-396 1523,-325 1268,-325"/>
</g>
<!-- ViewDefinitionService&#45;&gt;StepParserService -->
<g id="edge4" class="edge">
<title>ViewDefinitionService&#45;&gt;StepParserService</title>
<path fill="none" stroke="black" stroke-dasharray="5,2" d="M1395.5,-491.88C1395.5,-468.71 1395.5,-436.83 1395.5,-410.39"/>
<polygon fill="black" stroke="black" points="1395.5,-400.18 1400,-410.18 1395.5,-405.18 1395.5,-410.18 1395.5,-410.18 1395.5,-410.18 1395.5,-405.18 1391,-410.18 1395.5,-400.18 1395.5,-400.18"/>
</g>
<!-- ViewDefinitionParserService -->
<g id="node8" class="node">
<title>ViewDefinitionParserService</title>
<polygon fill="none" stroke="black" points="1558.5,-380.5 1558.5,-401.5 2156.5,-401.5 2156.5,-380.5 1558.5,-380.5"/>
<text text-anchor="start" x="1745" y="-388.3" font-family="Times,serif" font-weight="bold" font-size="14.00">ViewDefinitionParserService</text>
<polygon fill="none" stroke="black" points="1558.5,-318.5 1558.5,-380.5 2156.5,-380.5 2156.5,-318.5 1558.5,-318.5"/>
<text text-anchor="start" x="1826" y="-367.3" font-family="Times,serif" font-style="italic" font-size="14.00">Methods</text>
<text text-anchor="start" x="1561.5" y="-353.3" font-family="Times,serif" font-size="14.00">parse(&lt;List[Step]&gt; steps):List[ViewDefinition]</text>
<text text-anchor="start" x="1561.5" y="-339.3" font-family="Times,serif" font-size="14.00">getViewsPerStep(&lt;List[Step]&gt; steps, &lt;ViewDefinition&gt; view):List[ViewDefinition]</text>
<text text-anchor="start" x="1561.5" y="-325.3" font-family="Times,serif" font-size="14.00">appliesTo(&lt;List[Step]&gt; steps, &lt;ViewDefinition&gt; viewDefinition):boolean</text>
<polygon fill="none" stroke="black" points="1557.5,-318 1557.5,-403 2157.5,-403 2157.5,-318 1557.5,-318"/>
</g>
<!-- ViewDefinitionService&#45;&gt;ViewDefinitionParserService -->
<g id="edge5" class="edge">
<title>ViewDefinitionService&#45;&gt;ViewDefinitionParserService</title>
<path fill="none" stroke="black" stroke-dasharray="5,2" d="M1485.4,-491.98C1551.48,-468.81 1642.53,-436.88 1718.03,-410.41"/>
<polygon fill="black" stroke="black" points="1727.62,-407.04 1719.68,-414.6 1722.91,-408.7 1718.19,-410.35 1718.19,-410.35 1718.19,-410.35 1722.91,-408.7 1716.7,-406.1 1727.62,-407.04 1727.62,-407.04"/>
</g>
<!-- Step -->
<g id="node24" class="node">
<title>Step</title>
<polygon fill="none" stroke="black" points="1120.5,-237.5 1120.5,-258.5 1326.5,-258.5 1326.5,-237.5 1120.5,-237.5"/>
<text text-anchor="start" x="1205.5" y="-245.3" font-family="Times,serif" font-weight="bold" font-size="14.00">Step</text>
<polygon fill="none" stroke="black" points="1120.5,-133.5 1120.5,-237.5 1326.5,-237.5 1326.5,-133.5 1120.5,-133.5"/>
<text text-anchor="start" x="1185.5" y="-224.3" font-family="Times,serif" font-style="italic" font-size="14.00">Properties</text>
<text text-anchor="start" x="1123.5" y="-210.3" font-family="Times,serif" font-size="14.00">subtype:String</text>
<text text-anchor="start" x="1123.5" y="-196.3" font-family="Times,serif" font-size="14.00">description:String</text>
<text text-anchor="start" x="1123.5" y="-182.3" font-family="Times,serif" font-size="14.00">title:String</text>
<text text-anchor="start" x="1123.5" y="-168.3" font-family="Times,serif" font-size="14.00">parameters:List[Parameter]</text>
<text text-anchor="start" x="1123.5" y="-154.3" font-family="Times,serif" font-size="14.00">icon:String</text>
<text text-anchor="start" x="1123.5" y="-140.3" font-family="Times,serif" font-size="14.00">UUID:String</text>
<polygon fill="none" stroke="black" points="1119.5,-133 1119.5,-260 1327.5,-260 1327.5,-133 1119.5,-133"/>
</g>
<!-- StepParserService&#45;&gt;Step -->
<g id="edge25" class="edge">
<title>StepParserService&#45;&gt;Step</title>
<path fill="none" stroke="black" stroke-dasharray="5,2" d="M1354.3,-320.7C1338.56,-305.87 1320.04,-288.43 1301.97,-271.41"/>
<polygon fill="black" stroke="black" points="1294.26,-264.15 1304.63,-267.73 1297.9,-267.58 1301.54,-271.01 1301.54,-271.01 1301.54,-271.01 1297.9,-267.58 1298.46,-274.28 1294.26,-264.15 1294.26,-264.15"/>
</g>
<!-- ViewDefinition -->
<g id="node26" class="node">
<title>ViewDefinition</title>
<polygon fill="none" stroke="black" points="1927.5,-223.5 1927.5,-244.5 2236.5,-244.5 2236.5,-223.5 1927.5,-223.5"/>
<text text-anchor="start" x="2024" y="-231.3" font-family="Times,serif" font-weight="bold" font-size="14.00">ViewDefinition</text>
<polygon fill="none" stroke="black" points="1927.5,-147.5 1927.5,-223.5 2236.5,-223.5 2236.5,-147.5 1927.5,-147.5"/>
<text text-anchor="start" x="2044" y="-210.3" font-family="Times,serif" font-style="italic" font-size="14.00">Properties</text>
<text text-anchor="start" x="1930.5" y="-196.3" font-family="Times,serif" font-size="14.00">properties:Map[String, String]</text>
<text text-anchor="start" x="1930.5" y="-182.3" font-family="Times,serif" font-size="14.00">step:Step</text>
<text text-anchor="start" x="1930.5" y="-168.3" font-family="Times,serif" font-size="14.00">url:String</text>
<text text-anchor="start" x="1930.5" y="-154.3" font-family="Times,serif" font-size="14.00">constraints:List[ViewDefinitionConstraint]</text>
<polygon fill="none" stroke="black" points="1926,-147 1926,-246 2237,-246 2237,-147 1926,-147"/>
</g>
<!-- ViewDefinitionParserService&#45;&gt;ViewDefinition -->
<g id="edge26" class="edge">
<title>ViewDefinitionParserService&#45;&gt;ViewDefinition</title>
<path fill="none" stroke="black" stroke-dasharray="5,2" d="M1920.49,-313.94C1945.25,-296.04 1973.98,-275.26 2000.26,-256.25"/>
<polygon fill="black" stroke="black" points="2008.7,-250.15 2003.24,-259.66 2004.65,-253.08 2000.6,-256.01 2000.6,-256.01 2000.6,-256.01 2004.65,-253.08 1997.96,-252.36 2008.7,-250.15 2008.7,-250.15"/>
</g>
<!-- MetadataCatalog -->
<g id="node10" class="node">
<title>MetadataCatalog</title>
<polygon fill="none" stroke="black" points="2546.5,-223.5 2546.5,-244.5 2889.5,-244.5 2889.5,-223.5 2546.5,-223.5"/>
<text text-anchor="start" x="2650" y="-231.3" font-family="Times,serif" font-weight="bold" font-size="14.00">MetadataCatalog</text>
<polygon fill="none" stroke="black" points="2546.5,-147.5 2546.5,-223.5 2889.5,-223.5 2889.5,-147.5 2546.5,-147.5"/>
<text text-anchor="start" x="2686.5" y="-210.3" font-family="Times,serif" font-style="italic" font-size="14.00">Methods</text>
<text text-anchor="start" x="2549.5" y="-196.3" font-family="Times,serif" font-size="14.00">searchStepByID(&lt;String&gt; id):Metadata</text>
<text text-anchor="start" x="2549.5" y="-182.3" font-family="Times,serif" font-size="14.00">searchStepByName(&lt;String&gt; name):Metadata</text>
<text text-anchor="start" x="2549.5" y="-168.3" font-family="Times,serif" font-size="14.00">store(&lt;List[Step]&gt; steps):boolean</text>
<text text-anchor="start" x="2549.5" y="-154.3" font-family="Times,serif" font-size="14.00">getAll():List[Metadata]</text>
<polygon fill="none" stroke="black" points="2545,-147 2545,-246 2890,-246 2890,-147 2545,-147"/>
</g>
<!-- AbstractCatalog&#45;&gt;MetadataCatalog -->
<g id="edge6" class="edge">
<title>AbstractCatalog&#45;&gt;MetadataCatalog</title>
<path fill="none" stroke="black" stroke-dasharray="5,2" d="M2623.2,-320.7C2637.5,-302.02 2654.97,-279.19 2670.97,-258.28"/>
<polygon fill="black" stroke="black" points="2677.26,-250.07 2674.75,-260.75 2674.22,-254.04 2671.18,-258.01 2671.18,-258.01 2671.18,-258.01 2674.22,-254.04 2667.61,-255.28 2677.26,-250.07 2677.26,-250.07"/>
</g>
<!-- Metadata -->
<g id="node12" class="node">
<title>Metadata</title>
<polygon fill="none" stroke="black" points="2034.5,-66.5 2034.5,-87.5 2129.5,-87.5 2129.5,-66.5 2034.5,-66.5"/>
<text text-anchor="start" x="2044" y="-74.3" font-family="Times,serif" font-weight="bold" font-size="14.00">Metadata</text>
<polygon fill="none" stroke="black" points="2034.5,-4.5 2034.5,-66.5 2129.5,-66.5 2129.5,-4.5 2034.5,-4.5"/>
<text text-anchor="start" x="2044" y="-53.3" font-family="Times,serif" font-style="italic" font-size="14.00">Properties</text>
<text text-anchor="start" x="2037.5" y="-39.3" font-family="Times,serif" font-size="14.00">ID:String</text>
<text text-anchor="start" x="2037.5" y="-25.3" font-family="Times,serif" font-size="14.00">name:String</text>
<text text-anchor="start" x="2037.5" y="-11.3" font-family="Times,serif" font-size="14.00">type:String</text>
<polygon fill="none" stroke="black" points="2033,-4 2033,-89 2130,-89 2130,-4 2033,-4"/>
</g>
<!-- MetadataCatalog&#45;&gt;Metadata -->
<g id="edge9" class="edge">
<title>MetadataCatalog&#45;&gt;Metadata</title>
<path fill="none" stroke="black" stroke-dasharray="5,2" d="M2536.95,-153.49C2407.22,-123.3 2239.69,-84.31 2148.28,-63.04"/>
<polygon fill="black" stroke="black" points="2138.33,-60.72 2149.09,-58.61 2143.2,-61.86 2148.07,-62.99 2148.07,-62.99 2148.07,-62.99 2143.2,-61.86 2147.05,-67.37 2138.33,-60.72 2138.33,-60.72"/>
</g>
<!-- ViewDefinitionCatalog -->
<g id="node11" class="node">
<title>ViewDefinitionCatalog</title>
<polygon fill="none" stroke="black" points="2369.5,-513.5 2369.5,-534.5 2551.5,-534.5 2551.5,-513.5 2369.5,-513.5"/>
<text text-anchor="start" x="2372.5" y="-521.3" font-family="Times,serif" font-weight="bold" font-size="14.00">ViewDefinitionCatalog</text>
<polygon fill="none" stroke="black" points="2368.5,-513 2368.5,-536 2552.5,-536 2552.5,-513 2368.5,-513"/>
</g>
<!-- ViewDefinitionCatalog&#45;&gt;AbstractCatalog -->
<g id="edge8" class="edge">
<title>ViewDefinitionCatalog&#45;&gt;AbstractCatalog</title>
<path fill="none" stroke="black" d="M2474.48,-506.47C2493.5,-483.31 2528.25,-440.98 2555.31,-408.02"/>
<polygon fill="none" stroke="black" points="2558.02,-410.24 2561.66,-400.29 2552.61,-405.8 2558.02,-410.24"/>
</g>
<!-- ParseCatalog -->
<g id="node13" class="node">
<title>ParseCatalog</title>
<polygon fill="none" stroke="black" points="3049.5,-537.5 3049.5,-558.5 3381.5,-558.5 3381.5,-537.5 3049.5,-537.5"/>
<text text-anchor="start" x="3163" y="-545.3" font-family="Times,serif" font-weight="bold" font-size="14.00">ParseCatalog</text>
<polygon fill="none" stroke="black" points="3049.5,-489.5 3049.5,-537.5 3381.5,-537.5 3381.5,-489.5 3049.5,-489.5"/>
<text text-anchor="start" x="3184" y="-524.3" font-family="Times,serif" font-style="italic" font-size="14.00">Methods</text>
<text text-anchor="start" x="3052.5" y="-510.3" font-family="Times,serif" font-size="14.00">parse():CompletableFuture[List[T]]</text>
<text text-anchor="start" x="3052.5" y="-496.3" font-family="Times,serif" font-size="14.00">setFileVisitor(&lt;YamlProcessFile&gt; fileVisitor):</text>
<polygon fill="none" stroke="black" points="3048.5,-489 3048.5,-560 3382.5,-560 3382.5,-489 3048.5,-489"/>
</g>
<!-- CatalogCollection -->
<g id="node14" class="node">
<title>CatalogCollection</title>
<polygon fill="none" stroke="black" points="2768.5,-349.5 2768.5,-370.5 2914.5,-370.5 2914.5,-349.5 2768.5,-349.5"/>
<text text-anchor="start" x="2771.5" y="-357.3" font-family="Times,serif" font-weight="bold" font-size="14.00">CatalogCollection</text>
<polygon fill="none" stroke="black" points="2767.5,-349 2767.5,-372 2915.5,-372 2915.5,-349 2767.5,-349"/>
</g>
<!-- CatalogCollection&#45;&gt;MetadataCatalog -->
<g id="edge10" class="edge">
<title>CatalogCollection&#45;&gt;MetadataCatalog</title>
<path fill="none" stroke="black" d="M2828.46,-342.47C2813.17,-322.48 2786.95,-288.23 2763.84,-258.04"/>
<polygon fill="none" stroke="black" points="2766.59,-255.87 2757.73,-250.06 2761.03,-260.13 2766.59,-255.87"/>
</g>
<!-- InMemoryCatalog -->
<g id="node15" class="node">
<title>InMemoryCatalog</title>
<polygon fill="none" stroke="black" points="2950.5,-349.5 2950.5,-370.5 3098.5,-370.5 3098.5,-349.5 2950.5,-349.5"/>
<text text-anchor="start" x="2953.5" y="-357.3" font-family="Times,serif" font-weight="bold" font-size="14.00">InMemoryCatalog</text>
<polygon fill="none" stroke="black" points="2949.5,-349 2949.5,-372 3099.5,-372 3099.5,-349 2949.5,-349"/>
</g>
<!-- InMemoryCatalog&#45;&gt;MetadataCatalog -->
<g id="edge11" class="edge">
<title>InMemoryCatalog&#45;&gt;MetadataCatalog</title>
<path fill="none" stroke="black" d="M3000.04,-342.45C2981.81,-330.04 2956.08,-313.17 2932.5,-300 2904.36,-284.28 2873.43,-268.63 2844.02,-254.47"/>
<polygon fill="none" stroke="black" points="2845.47,-251.29 2834.94,-250.12 2842.45,-257.6 2845.47,-251.29"/>
</g>
<!-- ReadOnlyCatalog -->
<g id="node16" class="node">
<title>ReadOnlyCatalog</title>
<polygon fill="none" stroke="black" points="2770.5,-513.5 2770.5,-534.5 2912.5,-534.5 2912.5,-513.5 2770.5,-513.5"/>
<text text-anchor="start" x="2773.5" y="-521.3" font-family="Times,serif" font-weight="bold" font-size="14.00">ReadOnlyCatalog</text>
<polygon fill="none" stroke="black" points="2769.5,-513 2769.5,-536 2913.5,-536 2913.5,-513 2769.5,-513"/>
</g>
<!-- ReadOnlyCatalog&#45;&gt;CatalogCollection -->
<g id="edge12" class="edge">
<title>ReadOnlyCatalog&#45;&gt;CatalogCollection</title>
<path fill="none" stroke="black" d="M2841.5,-506.47C2841.5,-478.47 2841.5,-422.46 2841.5,-388.85"/>
<polygon fill="none" stroke="black" points="2845,-388.79 2841.5,-378.79 2838,-388.79 2845,-388.79"/>
</g>
<!-- GitParseCatalog -->
<g id="node17" class="node">
<title>GitParseCatalog</title>
<polygon fill="none" stroke="black" points="3473.5,-663.5 3473.5,-684.5 3608.5,-684.5 3608.5,-663.5 3473.5,-663.5"/>
<text text-anchor="start" x="3476.5" y="-671.3" font-family="Times,serif" font-weight="bold" font-size="14.00">GitParseCatalog</text>
<polygon fill="none" stroke="black" points="3472,-663 3472,-686 3609,-686 3609,-663 3472,-663"/>
</g>
<!-- GitParseCatalog&#45;&gt;ParseCatalog -->
<g id="edge13" class="edge">
<title>GitParseCatalog&#45;&gt;ParseCatalog</title>
<path fill="none" stroke="black" d="M3509.76,-656.46C3493.5,-647.64 3473.09,-636.89 3454.5,-628 3410.86,-607.14 3361.88,-585.78 3319.68,-568"/>
<polygon fill="none" stroke="black" points="3320.8,-564.68 3310.22,-564.03 3318.09,-571.13 3320.8,-564.68"/>
</g>
<!-- YamlProcessFile -->
<g id="node18" class="node">
<title>YamlProcessFile</title>
<polygon fill="none" stroke="black" points="3473.5,-513.5 3473.5,-534.5 3608.5,-534.5 3608.5,-513.5 3473.5,-513.5"/>
<text text-anchor="start" x="3476.5" y="-521.3" font-family="Times,serif" font-weight="bold" font-size="14.00">YamlProcessFile</text>
<polygon fill="none" stroke="black" points="3472,-513 3472,-536 3609,-536 3609,-513 3472,-513"/>
</g>
<!-- GitParseCatalog&#45;&gt;YamlProcessFile -->
<g id="edge14" class="edge">
<title>GitParseCatalog&#45;&gt;YamlProcessFile</title>
<path fill="none" stroke="black" stroke-dasharray="5,2" d="M3535.98,-656.23C3533.33,-630.83 3533.04,-583.15 3535.12,-552.93"/>
<polygon fill="black" stroke="black" points="3535.99,-542.66 3539.63,-553 3535.56,-547.64 3535.14,-552.62 3535.14,-552.62 3535.14,-552.62 3535.56,-547.64 3530.66,-552.24 3535.99,-542.66 3535.99,-542.66"/>
</g>
<!-- YamlProcessFile&#45;&gt;GitParseCatalog -->
<g id="edge16" class="edge">
<title>YamlProcessFile&#45;&gt;GitParseCatalog</title>
<path fill="none" stroke="black" stroke-dasharray="5,2" d="M3545.01,-542.66C3547.67,-567.99 3547.96,-615.67 3545.89,-645.94"/>
<polygon fill="black" stroke="black" points="3545.02,-656.23 3541.38,-645.89 3545.44,-651.25 3545.87,-646.27 3545.87,-646.27 3545.87,-646.27 3545.44,-651.25 3550.35,-646.65 3545.02,-656.23 3545.02,-656.23"/>
</g>
<!-- JarParseCatalog -->
<g id="node19" class="node">
<title>JarParseCatalog</title>
<polygon fill="none" stroke="black" points="2826.5,-663.5 2826.5,-684.5 2960.5,-684.5 2960.5,-663.5 2826.5,-663.5"/>
<text text-anchor="start" x="2829.5" y="-671.3" font-family="Times,serif" font-weight="bold" font-size="14.00">JarParseCatalog</text>
<polygon fill="none" stroke="black" points="2825.5,-663 2825.5,-686 2961.5,-686 2961.5,-663 2825.5,-663"/>
</g>
<!-- JarParseCatalog&#45;&gt;ParseCatalog -->
<g id="edge15" class="edge">
<title>JarParseCatalog&#45;&gt;ParseCatalog</title>
<path fill="none" stroke="black" d="M2924.26,-656.49C2940.53,-647.68 2960.93,-636.93 2979.5,-628 3022.73,-607.21 3071.21,-585.83 3112.94,-568.01"/>
<polygon fill="none" stroke="black" points="3114.46,-571.17 3122.29,-564.03 3111.72,-564.73 3114.46,-571.17"/>
</g>
<!-- KameletParseCatalog -->
<g id="node20" class="node">
<title>KameletParseCatalog</title>
<polygon fill="none" stroke="black" points="2997.5,-663.5 2997.5,-684.5 3174.5,-684.5 3174.5,-663.5 2997.5,-663.5"/>
<text text-anchor="start" x="3000.5" y="-671.3" font-family="Times,serif" font-weight="bold" font-size="14.00">KameletParseCatalog</text>
<polygon fill="none" stroke="black" points="2996,-663 2996,-686 3175,-686 3175,-663 2996,-663"/>
</g>
<!-- KameletParseCatalog&#45;&gt;ParseCatalog -->
<g id="edge17" class="edge">
<title>KameletParseCatalog&#45;&gt;ParseCatalog</title>
<path fill="none" stroke="black" stroke-dasharray="5,2" d="M3100.67,-656.23C3118.74,-635.65 3149.67,-600.45 3174.88,-571.75"/>
<polygon fill="black" stroke="black" points="3181.48,-564.23 3178.26,-574.71 3178.18,-567.98 3174.88,-571.74 3174.88,-571.74 3174.88,-571.74 3178.18,-567.98 3171.5,-568.77 3181.48,-564.23 3181.48,-564.23"/>
</g>
<!-- ViewDefinitionParseCatalog -->
<g id="node21" class="node">
<title>ViewDefinitionParseCatalog</title>
<polygon fill="none" stroke="black" points="3210.5,-663.5 3210.5,-684.5 3436.5,-684.5 3436.5,-663.5 3210.5,-663.5"/>
<text text-anchor="start" x="3213.5" y="-671.3" font-family="Times,serif" font-weight="bold" font-size="14.00">ViewDefinitionParseCatalog</text>
<polygon fill="none" stroke="black" points="3209.5,-663 3209.5,-686 3437.5,-686 3437.5,-663 3209.5,-663"/>
</g>
<!-- ViewDefinitionParseCatalog&#45;&gt;ParseCatalog -->
<g id="edge18" class="edge">
<title>ViewDefinitionParseCatalog&#45;&gt;ParseCatalog</title>
<path fill="none" stroke="black" stroke-dasharray="5,2" d="M3310.9,-656.23C3296.01,-635.83 3270.63,-601.04 3249.78,-572.48"/>
<polygon fill="black" stroke="black" points="3243.76,-564.23 3253.29,-569.65 3246.71,-568.27 3249.65,-572.3 3249.65,-572.3 3249.65,-572.3 3246.71,-568.27 3246.02,-574.96 3243.76,-564.23 3243.76,-564.23"/>
</g>
<!-- KameletBinding -->
<g id="node22" class="node">
<title>KameletBinding</title>
<polygon fill="none" stroke="black" points="3644.5,-663.5 3644.5,-684.5 3780.5,-684.5 3780.5,-663.5 3644.5,-663.5"/>
<text text-anchor="start" x="3647.5" y="-671.3" font-family="Times,serif" font-weight="bold" font-size="14.00">KameletBinding</text>
<polygon fill="none" stroke="black" points="3643.5,-663 3643.5,-686 3781.5,-686 3781.5,-663 3643.5,-663"/>
</g>
<!-- Parameter -->
<g id="node23" class="node">
<title>Parameter</title>
<polygon fill="none" stroke="black" points="458.5,-565.5 458.5,-586.5 594.5,-586.5 594.5,-565.5 458.5,-565.5"/>
<text text-anchor="start" x="484.5" y="-573.3" font-family="Times,serif" font-weight="bold" font-size="14.00">Parameter</text>
<polygon fill="none" stroke="black" points="458.5,-461.5 458.5,-565.5 594.5,-565.5 594.5,-461.5 458.5,-461.5"/>
<text text-anchor="start" x="488.5" y="-552.3" font-family="Times,serif" font-style="italic" font-size="14.00">Properties</text>
<text text-anchor="start" x="461.5" y="-538.3" font-family="Times,serif" font-size="14.00">description:String</text>
<text text-anchor="start" x="461.5" y="-524.3" font-family="Times,serif" font-size="14.00">label:String</text>
<text text-anchor="start" x="461.5" y="-510.3" font-family="Times,serif" font-size="14.00">id:String</text>
<text text-anchor="start" x="461.5" y="-496.3" font-family="Times,serif" font-size="14.00">value:String</text>
<text text-anchor="start" x="461.5" y="-482.3" font-family="Times,serif" font-size="14.00">default:String</text>
<text text-anchor="start" x="461.5" y="-468.3" font-family="Times,serif" font-size="14.00">type:String</text>
<polygon fill="none" stroke="black" points="457.5,-461 457.5,-588 595.5,-588 595.5,-461 457.5,-461"/>
</g>
<!-- KameletStep -->
<g id="node25" class="node">
<title>KameletStep</title>
<polygon fill="none" stroke="black" points="452.5,-394.5 452.5,-415.5 600.5,-415.5 600.5,-394.5 452.5,-394.5"/>
<text text-anchor="start" x="475.5" y="-402.3" font-family="Times,serif" font-weight="bold" font-size="14.00">KameletStep</text>
<polygon fill="none" stroke="black" points="452.5,-304.5 452.5,-394.5 600.5,-394.5 600.5,-304.5 452.5,-304.5"/>
<text text-anchor="start" x="488.5" y="-381.3" font-family="Times,serif" font-style="italic" font-size="14.00">Properties</text>
<text text-anchor="start" x="455.5" y="-367.3" font-family="Times,serif" font-size="14.00">group:String</text>
<text text-anchor="start" x="455.5" y="-353.3" font-family="Times,serif" font-size="14.00">kameletType:String</text>
<text text-anchor="start" x="455.5" y="-339.3" font-family="Times,serif" font-size="14.00">apiVersion:String</text>
<text text-anchor="start" x="455.5" y="-325.3" font-family="Times,serif" font-size="14.00">kind:String</text>
<text text-anchor="start" x="455.5" y="-311.3" font-family="Times,serif" font-size="14.00">spec:String</text>
<polygon fill="none" stroke="black" points="451.5,-304 451.5,-417 601.5,-417 601.5,-304 451.5,-304"/>
</g>
<!-- Parameter&#45;&gt;KameletStep -->
<g id="edge21" class="edge">
<title>Parameter&#45;&gt;KameletStep</title>
<path fill="none" stroke="black" d="M526.5,-456.67C526.5,-448.95 526.5,-441.05 526.5,-433.27"/>
<polygon fill="black" stroke="black" points="526.5,-433.17 522.5,-427.17 526.5,-421.17 530.5,-427.17 526.5,-433.17"/>
<text text-anchor="middle" x="512.5" y="-445.47" font-family="Times,serif" font-size="14.00">0..n</text>
</g>
<!-- Step&#45;&gt;Metadata -->
<g id="edge19" class="edge">
<title>Step&#45;&gt;Metadata</title>
<path fill="none" stroke="black" d="M1335.67,-176.15C1516.77,-144.91 1868.05,-84.32 2014.68,-59.03"/>
<polygon fill="none" stroke="black" points="2015.62,-62.42 2024.88,-57.27 2014.43,-55.52 2015.62,-62.42"/>
</g>
<!-- KameletStep&#45;&gt;Step -->
<g id="edge20" class="edge">
<title>KameletStep&#45;&gt;Step</title>
<path fill="none" stroke="black" d="M609.72,-303.7C612.64,-302.38 615.57,-301.14 618.5,-300 778.36,-237.82 976.47,-213.31 1101.46,-203.68"/>
<polygon fill="none" stroke="black" points="1101.75,-207.17 1111.46,-202.93 1101.22,-200.19 1101.75,-207.17"/>
</g>
<!-- ViewDefinition&#45;&gt;Metadata -->
<g id="edge22" class="edge">
<title>ViewDefinition&#45;&gt;Metadata</title>
<path fill="none" stroke="black" d="M2081.5,-142.9C2081.5,-130.05 2081.5,-116.26 2081.5,-103.27"/>
<polygon fill="none" stroke="black" points="2085,-103.06 2081.5,-93.06 2078,-103.06 2085,-103.06"/>
</g>
<!-- ViewDefinitionConstraint -->
<g id="node27" class="node">
<title>ViewDefinitionConstraint</title>
<polygon fill="none" stroke="black" points="2192.5,-380.5 2192.5,-401.5 2418.5,-401.5 2418.5,-380.5 2192.5,-380.5"/>
<text text-anchor="start" x="2205" y="-388.3" font-family="Times,serif" font-weight="bold" font-size="14.00">ViewDefinitionConstraint</text>
<polygon fill="none" stroke="black" points="2192.5,-318.5 2192.5,-380.5 2418.5,-380.5 2418.5,-318.5 2192.5,-318.5"/>
<text text-anchor="start" x="2267.5" y="-367.3" font-family="Times,serif" font-style="italic" font-size="14.00">Properties</text>
<text text-anchor="start" x="2195.5" y="-353.3" font-family="Times,serif" font-size="14.00">mandatory:boolean</text>
<text text-anchor="start" x="2195.5" y="-339.3" font-family="Times,serif" font-size="14.00">operation:ConstraintOperation</text>
<text text-anchor="start" x="2195.5" y="-325.3" font-family="Times,serif" font-size="14.00">parameter:String</text>
<polygon fill="none" stroke="black" points="2191.5,-318 2191.5,-403 2419.5,-403 2419.5,-318 2191.5,-318"/>
</g>
<!-- ViewDefinitionConstraint&#45;&gt;ViewDefinition -->
<g id="edge23" class="edge">
<title>ViewDefinitionConstraint&#45;&gt;ViewDefinition</title>
<path fill="none" stroke="black" d="M2242.51,-313.94C2218.18,-296.35 2190.01,-275.98 2164.11,-257.24"/>
<polygon fill="black" stroke="black" points="2164.02,-257.18 2156.82,-256.91 2154.3,-250.15 2161.5,-250.42 2164.02,-257.18"/>
<text text-anchor="middle" x="2228.51" y="-302.74" font-family="Times,serif" font-size="14.00">0..n</text>
</g>
<!-- DeploymentGeneratorService -->
<g id="node28" class="node">
<title>DeploymentGeneratorService</title>
<polygon fill="none" stroke="black" points="868.5,-373.5 868.5,-394.5 1233.5,-394.5 1233.5,-373.5 868.5,-373.5"/>
<text text-anchor="start" x="935" y="-381.3" font-family="Times,serif" font-weight="bold" font-size="14.00">DeploymentGeneratorService</text>
<polygon fill="none" stroke="black" points="868.5,-325.5 868.5,-373.5 1233.5,-373.5 1233.5,-325.5 868.5,-325.5"/>
<text text-anchor="start" x="1019.5" y="-360.3" font-family="Times,serif" font-style="italic" font-size="14.00">Methods</text>
<text text-anchor="start" x="871.5" y="-346.3" font-family="Times,serif" font-size="14.00">parse(&lt;String&gt; name, &lt;List[Step]&gt; steps):String</text>
<text text-anchor="start" x="871.5" y="-332.3" font-family="Times,serif" font-size="14.00">appliesTo(&lt;List[Step]&gt; steps):boolean</text>
<polygon fill="none" stroke="black" points="867,-325 867,-396 1234,-396 1234,-325 867,-325"/>
</g>
<!-- DeploymentGeneratorService&#45;&gt;Step -->
<g id="edge24" class="edge">
<title>DeploymentGeneratorService&#45;&gt;Step</title>
<path fill="none" stroke="black" stroke-dasharray="5,2" d="M1091.94,-320.7C1107.77,-305.87 1126.39,-288.43 1144.57,-271.41"/>
<polygon fill="black" stroke="black" points="1152.32,-264.15 1148.1,-274.27 1148.67,-267.57 1145.02,-270.99 1145.02,-270.99 1145.02,-270.99 1148.67,-267.57 1141.95,-267.7 1152.32,-264.15 1152.32,-264.15"/>
</g>
</g>
</svg>
