<?xml version="1.0" encoding="UTF-8" standalone="no"?>
<!DOCTYPE svg PUBLIC "-//W3C//DTD SVG 1.1//EN"
 "http://www.w3.org/Graphics/SVG/1.1/DTD/svg11.dtd">
<!-- Generated by graphviz version 2.43.0 (0)
 -->
<!-- Title: ClassDiagram Pages: 1 -->
<svg width="3970pt" height="813pt"
 viewBox="0.00 0.00 3970.00 813.00" xmlns="http://www.w3.org/2000/svg" xmlns:xlink="http://www.w3.org/1999/xlink">
<g id="graph0" class="graph" transform="scale(1 1) rotate(0) translate(4 809)">
<title>ClassDiagram</title>
<polygon fill="white" stroke="transparent" points="-4,4 -4,-809 3966,-809 3966,4 -4,4"/>
<!-- DeploymentResource -->
<g id="node1" class="node">
<title>DeploymentResource</title>
<polygon fill="none" stroke="black" points="298,-551.5 298,-572.5 836,-572.5 836,-551.5 298,-551.5"/>
<text text-anchor="start" x="482.5" y="-559.3" font-family="Times,serif" font-weight="bold" font-size="14.00">DeploymentResource</text>
<polygon fill="none" stroke="black" points="298,-475.5 298,-551.5 836,-551.5 836,-475.5 298,-475.5"/>
<text text-anchor="start" x="535.5" y="-538.3" font-family="Times,serif" font-style="italic" font-size="14.00">Methods</text>
<text text-anchor="start" x="301" y="-524.3" font-family="Times,serif" font-size="14.00">yaml(&lt;DeploymentResourceYamlRequest&gt; steps, &lt;String&gt; type):String[]</text>
<text text-anchor="start" x="301" y="-510.3" font-family="Times,serif" font-size="14.00">start(&lt;DeploymentResourceYamlRequest&gt; steps):String</text>
<text text-anchor="start" x="301" y="-496.3" font-family="Times,serif" font-size="14.00">integrations():String</text>
<text text-anchor="start" x="301" y="-482.3" font-family="Times,serif" font-size="14.00">stop():String</text>
<polygon fill="none" stroke="black" points="297,-475 297,-574 837,-574 837,-475 297,-475"/>
</g>
<!-- DeploymentService -->
<g id="node2" class="node">
<title>DeploymentService</title>
<polygon fill="none" stroke="black" points="387,-715.5 387,-736.5 747,-736.5 747,-715.5 387,-715.5"/>
<text text-anchor="start" x="491" y="-723.3" font-family="Times,serif" font-weight="bold" font-size="14.00">DeploymentService</text>
<polygon fill="none" stroke="black" points="387,-681.5 387,-715.5 747,-715.5 747,-681.5 387,-681.5"/>
<text text-anchor="start" x="535.5" y="-702.3" font-family="Times,serif" font-style="italic" font-size="14.00">Methods</text>
<text text-anchor="start" x="390" y="-688.3" font-family="Times,serif" font-size="14.00">yaml(&lt;List[Step]&gt; steps, &lt;String&gt; name):String</text>
<polygon fill="none" stroke="black" points="386,-681 386,-738 748,-738 748,-681 386,-681"/>
</g>
<!-- DeploymentService&#45;&gt;DeploymentResource -->
<g id="edge1" class="edge">
<title>DeploymentService&#45;&gt;DeploymentResource</title>
<path fill="none" stroke="black" d="M567,-676.62C567,-652.88 567,-619.65 567,-590.39"/>
<polygon fill="black" stroke="black" points="567,-590.13 563,-584.13 567,-578.13 571,-584.13 567,-590.13"/>
<text text-anchor="middle" x="553" y="-665.42" font-family="Times,serif" font-size="14.00">0..1</text>
</g>
<!-- StepResource -->
<g id="node3" class="node">
<title>StepResource</title>
<polygon fill="none" stroke="black" points="2223,-743.5 2223,-764.5 2592,-764.5 2592,-743.5 2223,-743.5"/>
<text text-anchor="start" x="2353" y="-751.3" font-family="Times,serif" font-weight="bold" font-size="14.00">StepResource</text>
<polygon fill="none" stroke="black" points="2223,-653.5 2223,-743.5 2592,-743.5 2592,-653.5 2223,-653.5"/>
<text text-anchor="start" x="2376" y="-730.3" font-family="Times,serif" font-style="italic" font-size="14.00">Methods</text>
<text text-anchor="start" x="2226" y="-716.3" font-family="Times,serif" font-size="14.00">stepById(&lt;String&gt; id):Step</text>
<text text-anchor="start" x="2226" y="-702.3" font-family="Times,serif" font-size="14.00">stepsByName(&lt;String&gt; name):List[Step]</text>
<text text-anchor="start" x="2226" y="-688.3" font-family="Times,serif" font-size="14.00">stepsByKind(&lt;String&gt; type):List[Step]</text>
<text text-anchor="start" x="2226" y="-674.3" font-family="Times,serif" font-size="14.00">stepsByIntegrationType(&lt;String&gt; type):List[Step]</text>
<text text-anchor="start" x="2226" y="-660.3" font-family="Times,serif" font-size="14.00">allSteps():List[Step]</text>
<polygon fill="none" stroke="black" points="2221.5,-653 2221.5,-766 2592.5,-766 2592.5,-653 2221.5,-653"/>
</g>
<!-- StepCatalog -->
<g id="node4" class="node">
<title>StepCatalog</title>
<polygon fill="none" stroke="black" points="2356,-513.5 2356,-534.5 2458,-534.5 2458,-513.5 2356,-513.5"/>
<text text-anchor="start" x="2359" y="-521.3" font-family="Times,serif" font-weight="bold" font-size="14.00">StepCatalog</text>
<polygon fill="none" stroke="black" points="2355,-513 2355,-536 2459,-536 2459,-513 2355,-513"/>
</g>
<!-- StepResource&#45;&gt;StepCatalog -->
<g id="edge2" class="edge">
<title>StepResource&#45;&gt;StepCatalog</title>
<path fill="none" stroke="black" stroke-dasharray="5,2" d="M2407,-648.83C2407,-616.49 2407,-578.08 2407,-552.82"/>
<polygon fill="black" stroke="black" points="2407,-542.53 2411.5,-552.53 2407,-547.53 2407,-552.53 2407,-552.53 2407,-552.53 2407,-547.53 2402.5,-552.53 2407,-542.53 2407,-542.53"/>
</g>
<!-- AbstractCatalog -->
<g id="node9" class="node">
<title>AbstractCatalog</title>
<polygon fill="none" stroke="black" points="2421,-394.5 2421,-415.5 2699,-415.5 2699,-394.5 2421,-394.5"/>
<text text-anchor="start" x="2496.5" y="-402.3" font-family="Times,serif" font-weight="bold" font-size="14.00">AbstractCatalog</text>
<polygon fill="none" stroke="black" points="2421,-346.5 2421,-394.5 2699,-394.5 2699,-346.5 2421,-346.5"/>
<text text-anchor="start" x="2528.5" y="-381.3" font-family="Times,serif" font-style="italic" font-size="14.00">Methods</text>
<text text-anchor="start" x="2424" y="-367.3" font-family="Times,serif" font-size="14.00">waitForWarmUp():CompletableFuture</text>
<text text-anchor="start" x="2424" y="-353.3" font-family="Times,serif" font-size="14.00">loadParsers():List[ParseCatalog]</text>
<polygon fill="none" stroke="black" points="2420,-346 2420,-417 2700,-417 2700,-346 2420,-346"/>
</g>
<!-- StepCatalog&#45;&gt;AbstractCatalog -->
<g id="edge7" class="edge">
<title>StepCatalog&#45;&gt;AbstractCatalog</title>
<path fill="none" stroke="black" d="M2425.46,-506.49C2446.39,-487.2 2481.41,-454.93 2510.47,-428.15"/>
<polygon fill="none" stroke="black" points="2513.12,-430.46 2518.1,-421.11 2508.38,-425.31 2513.12,-430.46"/>
</g>
<!-- ViewDefinitionResource -->
<g id="node5" class="node">
<title>ViewDefinitionResource</title>
<polygon fill="none" stroke="black" points="837,-394.5 837,-415.5 1305,-415.5 1305,-394.5 837,-394.5"/>
<text text-anchor="start" x="976" y="-402.3" font-family="Times,serif" font-weight="bold" font-size="14.00">ViewDefinitionResource</text>
<polygon fill="none" stroke="black" points="837,-346.5 837,-394.5 1305,-394.5 1305,-346.5 837,-346.5"/>
<text text-anchor="start" x="1039.5" y="-381.3" font-family="Times,serif" font-style="italic" font-size="14.00">Methods</text>
<text text-anchor="start" x="840" y="-367.3" font-family="Times,serif" font-size="14.00">views:(&lt;String&gt; yaml):</text>
<text text-anchor="start" x="840" y="-353.3" font-family="Times,serif" font-size="14.00">viewsPerStepList:(&lt;Step[]&gt; DeploymentResourceYamlRequest):</text>
<polygon fill="none" stroke="black" points="836,-346 836,-417 1306,-417 1306,-346 836,-346"/>
</g>
<!-- ViewDefinitionService -->
<g id="node6" class="node">
<title>ViewDefinitionService</title>
<polygon fill="none" stroke="black" points="872,-537.5 872,-558.5 1270,-558.5 1270,-537.5 872,-537.5"/>
<text text-anchor="start" x="984.5" y="-545.3" font-family="Times,serif" font-weight="bold" font-size="14.00">ViewDefinitionService</text>
<polygon fill="none" stroke="black" points="872,-489.5 872,-537.5 1270,-537.5 1270,-489.5 872,-489.5"/>
<text text-anchor="start" x="1039.5" y="-524.3" font-family="Times,serif" font-style="italic" font-size="14.00">Methods</text>
<text text-anchor="start" x="875" y="-510.3" font-family="Times,serif" font-size="14.00">views(&lt;String&gt; yaml):List[ViewDefinition]</text>
<text text-anchor="start" x="875" y="-496.3" font-family="Times,serif" font-size="14.00">viewsPerStepList(&lt;Step[]&gt; steps):List[ViewDefinition]</text>
<polygon fill="none" stroke="black" points="871,-489 871,-560 1271,-560 1271,-489 871,-489"/>
</g>
<!-- ViewDefinitionService&#45;&gt;ViewDefinitionResource -->
<g id="edge3" class="edge">
<title>ViewDefinitionService&#45;&gt;ViewDefinitionResource</title>
<path fill="none" stroke="black" d="M1071,-484.97C1071,-469.09 1071,-450.47 1071,-433.49"/>
<polygon fill="black" stroke="black" points="1071,-433.47 1067,-427.47 1071,-421.47 1075,-427.47 1071,-433.47"/>
<text text-anchor="middle" x="1057" y="-473.77" font-family="Times,serif" font-size="14.00">0..1</text>
</g>
<!-- StepParserService -->
<g id="node7" class="node">
<title>StepParserService</title>
<polygon fill="none" stroke="black" points="548,-394.5 548,-415.5 801,-415.5 801,-394.5 548,-394.5"/>
<text text-anchor="start" x="602" y="-402.3" font-family="Times,serif" font-weight="bold" font-size="14.00">StepParserService</text>
<polygon fill="none" stroke="black" points="548,-346.5 548,-394.5 801,-394.5 801,-346.5 548,-346.5"/>
<text text-anchor="start" x="643" y="-381.3" font-family="Times,serif" font-style="italic" font-size="14.00">Methods</text>
<text text-anchor="start" x="551" y="-367.3" font-family="Times,serif" font-size="14.00">parse(&lt;String&gt; yaml):List[Step]</text>
<text text-anchor="start" x="551" y="-353.3" font-family="Times,serif" font-size="14.00">appliesTo(&lt;String&gt; yaml):boolean</text>
<polygon fill="none" stroke="black" points="546.5,-346 546.5,-417 801.5,-417 801.5,-346 546.5,-346"/>
</g>
<!-- ViewDefinitionService&#45;&gt;StepParserService -->
<g id="edge4" class="edge">
<title>ViewDefinitionService&#45;&gt;StepParserService</title>
<path fill="none" stroke="black" stroke-dasharray="5,2" d="M960.52,-484.96C916.46,-469.52 865.3,-451.51 819,-435 809.45,-431.59 799.54,-428.04 789.6,-424.47"/>
<polygon fill="black" stroke="black" points="780.07,-421.04 791.01,-420.19 784.78,-422.73 789.48,-424.43 789.48,-424.43 789.48,-424.43 784.78,-422.73 787.96,-428.66 780.07,-421.04 780.07,-421.04"/>
</g>
<!-- ViewDefinitionParserService -->
<g id="node8" class="node">
<title>ViewDefinitionParserService</title>
<polygon fill="none" stroke="black" points="1603,-401.5 1603,-422.5 2201,-422.5 2201,-401.5 1603,-401.5"/>
<text text-anchor="start" x="1789.5" y="-409.3" font-family="Times,serif" font-weight="bold" font-size="14.00">ViewDefinitionParserService</text>
<polygon fill="none" stroke="black" points="1603,-339.5 1603,-401.5 2201,-401.5 2201,-339.5 1603,-339.5"/>
<text text-anchor="start" x="1870.5" y="-388.3" font-family="Times,serif" font-style="italic" font-size="14.00">Methods</text>
<text text-anchor="start" x="1606" y="-374.3" font-family="Times,serif" font-size="14.00">parse(&lt;List[Step]&gt; steps):List[ViewDefinition]</text>
<text text-anchor="start" x="1606" y="-360.3" font-family="Times,serif" font-size="14.00">getViewsPerStep(&lt;List[Step]&gt; steps, &lt;ViewDefinition&gt; view):List[ViewDefinition]</text>
<text text-anchor="start" x="1606" y="-346.3" font-family="Times,serif" font-size="14.00">appliesTo(&lt;List[Step]&gt; steps, &lt;ViewDefinition&gt; viewDefinition):boolean</text>
<polygon fill="none" stroke="black" points="1602,-339 1602,-424 2202,-424 2202,-339 1602,-339"/>
</g>
<!-- ViewDefinitionService&#45;&gt;ViewDefinitionParserService -->
<g id="edge5" class="edge">
<title>ViewDefinitionService&#45;&gt;ViewDefinitionParserService</title>
<path fill="none" stroke="black" stroke-dasharray="5,2" d="M1279.09,-488.19C1383.27,-470.52 1510.86,-448.87 1623.37,-429.78"/>
<polygon fill="black" stroke="black" points="1633.51,-428.06 1624.41,-434.16 1628.58,-428.89 1623.65,-429.73 1623.65,-429.73 1623.65,-429.73 1628.58,-428.89 1622.9,-425.29 1633.51,-428.06 1633.51,-428.06"/>
</g>
<!-- Step -->
<g id="node25" class="node">
<title>Step</title>
<polygon fill="none" stroke="black" points="571,-265.5 571,-286.5 777,-286.5 777,-265.5 571,-265.5"/>
<text text-anchor="start" x="656" y="-273.3" font-family="Times,serif" font-weight="bold" font-size="14.00">Step</text>
<polygon fill="none" stroke="black" points="571,-133.5 571,-265.5 777,-265.5 777,-133.5 571,-133.5"/>
<text text-anchor="start" x="636" y="-252.3" font-family="Times,serif" font-style="italic" font-size="14.00">Properties</text>
<text text-anchor="start" x="574" y="-238.3" font-family="Times,serif" font-size="14.00">description:String</text>
<text text-anchor="start" x="574" y="-224.3" font-family="Times,serif" font-size="14.00">title:String</text>
<text text-anchor="start" x="574" y="-210.3" font-family="Times,serif" font-size="14.00">parameters:List[Parameter]</text>
<text text-anchor="start" x="574" y="-196.3" font-family="Times,serif" font-size="14.00">icon:String</text>
<text text-anchor="start" x="574" y="-182.3" font-family="Times,serif" font-size="14.00">UUID:String</text>
<text text-anchor="start" x="574" y="-168.3" font-family="Times,serif" font-size="14.00">required:String[]</text>
<text text-anchor="start" x="574" y="-154.3" font-family="Times,serif" font-size="14.00">group:String</text>
<text text-anchor="start" x="574" y="-140.3" font-family="Times,serif" font-size="14.00">kind:String</text>
<polygon fill="none" stroke="black" points="570,-133 570,-288 778,-288 778,-133 570,-133"/>
</g>
<!-- StepParserService&#45;&gt;Step -->
<g id="edge23" class="edge">
<title>StepParserService&#45;&gt;Step</title>
<path fill="none" stroke="black" stroke-dasharray="5,2" d="M674,-341.73C674,-329.81 674,-316.15 674,-302.27"/>
<polygon fill="black" stroke="black" points="674,-292.14 678.5,-302.14 674,-297.14 674,-302.14 674,-302.14 674,-302.14 674,-297.14 669.5,-302.14 674,-292.14 674,-292.14"/>
</g>
<!-- ViewDefinition -->
<g id="node26" class="node">
<title>ViewDefinition</title>
<polygon fill="none" stroke="black" points="1524,-237.5 1524,-258.5 1833,-258.5 1833,-237.5 1524,-237.5"/>
<text text-anchor="start" x="1620.5" y="-245.3" font-family="Times,serif" font-weight="bold" font-size="14.00">ViewDefinition</text>
<polygon fill="none" stroke="black" points="1524,-161.5 1524,-237.5 1833,-237.5 1833,-161.5 1524,-161.5"/>
<text text-anchor="start" x="1640.5" y="-224.3" font-family="Times,serif" font-style="italic" font-size="14.00">Properties</text>
<text text-anchor="start" x="1527" y="-210.3" font-family="Times,serif" font-size="14.00">properties:Map[String, String]</text>
<text text-anchor="start" x="1527" y="-196.3" font-family="Times,serif" font-size="14.00">step:Step</text>
<text text-anchor="start" x="1527" y="-182.3" font-family="Times,serif" font-size="14.00">url:String</text>
<text text-anchor="start" x="1527" y="-168.3" font-family="Times,serif" font-size="14.00">constraints:List[ViewDefinitionConstraint]</text>
<polygon fill="none" stroke="black" points="1522.5,-161 1522.5,-260 1833.5,-260 1833.5,-161 1522.5,-161"/>
</g>
<!-- ViewDefinitionParserService&#45;&gt;ViewDefinition -->
<g id="edge24" class="edge">
<title>ViewDefinitionParserService&#45;&gt;ViewDefinition</title>
<path fill="none" stroke="black" stroke-dasharray="5,2" d="M1841.68,-334.99C1815.38,-315.15 1784.21,-291.63 1756.16,-270.47"/>
<polygon fill="black" stroke="black" points="1747.96,-264.28 1758.65,-266.71 1751.95,-267.29 1755.94,-270.3 1755.94,-270.3 1755.94,-270.3 1751.95,-267.29 1753.23,-273.89 1747.96,-264.28 1747.96,-264.28"/>
</g>
<!-- MetadataCatalog -->
<g id="node10" class="node">
<title>MetadataCatalog</title>
<polygon fill="none" stroke="black" points="2264,-237.5 2264,-258.5 2607,-258.5 2607,-237.5 2264,-237.5"/>
<text text-anchor="start" x="2367.5" y="-245.3" font-family="Times,serif" font-weight="bold" font-size="14.00">MetadataCatalog</text>
<polygon fill="none" stroke="black" points="2264,-161.5 2264,-237.5 2607,-237.5 2607,-161.5 2264,-161.5"/>
<text text-anchor="start" x="2404" y="-224.3" font-family="Times,serif" font-style="italic" font-size="14.00">Methods</text>
<text text-anchor="start" x="2267" y="-210.3" font-family="Times,serif" font-size="14.00">searchStepByID(&lt;String&gt; id):Metadata</text>
<text text-anchor="start" x="2267" y="-196.3" font-family="Times,serif" font-size="14.00">searchStepByName(&lt;String&gt; name):Metadata</text>
<text text-anchor="start" x="2267" y="-182.3" font-family="Times,serif" font-size="14.00">store(&lt;List[Step]&gt; steps):boolean</text>
<text text-anchor="start" x="2267" y="-168.3" font-family="Times,serif" font-size="14.00">getAll():List[Metadata]</text>
<polygon fill="none" stroke="black" points="2262.5,-161 2262.5,-260 2607.5,-260 2607.5,-161 2262.5,-161"/>
</g>
<!-- AbstractCatalog&#45;&gt;MetadataCatalog -->
<g id="edge6" class="edge">
<title>AbstractCatalog&#45;&gt;MetadataCatalog</title>
<path fill="none" stroke="black" stroke-dasharray="5,2" d="M2531.32,-341.73C2516.11,-321.16 2497.06,-295.41 2479.93,-272.25"/>
<polygon fill="black" stroke="black" points="2473.96,-264.18 2483.53,-269.54 2476.94,-268.2 2479.91,-272.22 2479.91,-272.22 2479.91,-272.22 2476.94,-268.2 2476.29,-274.9 2473.96,-264.18 2473.96,-264.18"/>
</g>
<!-- Metadata -->
<g id="node16" class="node">
<title>Metadata</title>
<polygon fill="none" stroke="black" points="1631,-66.5 1631,-87.5 1726,-87.5 1726,-66.5 1631,-66.5"/>
<text text-anchor="start" x="1640.5" y="-74.3" font-family="Times,serif" font-weight="bold" font-size="14.00">Metadata</text>
<polygon fill="none" stroke="black" points="1631,-4.5 1631,-66.5 1726,-66.5 1726,-4.5 1631,-4.5"/>
<text text-anchor="start" x="1640.5" y="-53.3" font-family="Times,serif" font-style="italic" font-size="14.00">Properties</text>
<text text-anchor="start" x="1634" y="-39.3" font-family="Times,serif" font-size="14.00">ID:String</text>
<text text-anchor="start" x="1634" y="-25.3" font-family="Times,serif" font-size="14.00">name:String</text>
<text text-anchor="start" x="1634" y="-11.3" font-family="Times,serif" font-size="14.00">type:String</text>
<polygon fill="none" stroke="black" points="1629.5,-4 1629.5,-89 1726.5,-89 1726.5,-4 1629.5,-4"/>
</g>
<!-- MetadataCatalog&#45;&gt;Metadata -->
<g id="edge10" class="edge">
<title>MetadataCatalog&#45;&gt;Metadata</title>
<path fill="none" stroke="black" stroke-dasharray="5,2" d="M2254.16,-170.8C2090.29,-135.73 1857.7,-85.96 1744.73,-61.78"/>
<polygon fill="black" stroke="black" points="1734.83,-59.66 1745.55,-57.35 1739.72,-60.71 1744.61,-61.76 1744.61,-61.76 1744.61,-61.76 1739.72,-60.71 1743.67,-66.16 1734.83,-59.66 1734.83,-59.66"/>
</g>
<!-- ViewDefinitionCatalog -->
<g id="node11" class="node">
<title>ViewDefinitionCatalog</title>
<polygon fill="none" stroke="black" points="2494,-513.5 2494,-534.5 2676,-534.5 2676,-513.5 2494,-513.5"/>
<text text-anchor="start" x="2497" y="-521.3" font-family="Times,serif" font-weight="bold" font-size="14.00">ViewDefinitionCatalog</text>
<polygon fill="none" stroke="black" points="2493,-513 2493,-536 2677,-536 2677,-513 2493,-513"/>
</g>
<!-- ViewDefinitionCatalog&#45;&gt;AbstractCatalog -->
<g id="edge8" class="edge">
<title>ViewDefinitionCatalog&#45;&gt;AbstractCatalog</title>
<path fill="none" stroke="black" d="M2581.98,-506.49C2578.69,-487.93 2573.28,-457.38 2568.64,-431.25"/>
<polygon fill="none" stroke="black" points="2572.04,-430.35 2566.85,-421.11 2565.15,-431.57 2572.04,-430.35"/>
</g>
<!-- KameletParseCatalog -->
<g id="node12" class="node">
<title>KameletParseCatalog</title>
<polygon fill="none" stroke="black" points="2719,-698.5 2719,-719.5 2896,-719.5 2896,-698.5 2719,-698.5"/>
<text text-anchor="start" x="2722" y="-706.3" font-family="Times,serif" font-weight="bold" font-size="14.00">KameletParseCatalog</text>
<polygon fill="none" stroke="black" points="2717.5,-698 2717.5,-721 2896.5,-721 2896.5,-698 2717.5,-698"/>
</g>
<!-- ParseCatalog -->
<g id="node13" class="node">
<title>ParseCatalog</title>
<polygon fill="none" stroke="black" points="2915,-537.5 2915,-558.5 3247,-558.5 3247,-537.5 2915,-537.5"/>
<text text-anchor="start" x="3028.5" y="-545.3" font-family="Times,serif" font-weight="bold" font-size="14.00">ParseCatalog</text>
<polygon fill="none" stroke="black" points="2915,-489.5 2915,-537.5 3247,-537.5 3247,-489.5 2915,-489.5"/>
<text text-anchor="start" x="3049.5" y="-524.3" font-family="Times,serif" font-style="italic" font-size="14.00">Methods</text>
<text text-anchor="start" x="2918" y="-510.3" font-family="Times,serif" font-size="14.00">parse():CompletableFuture[List[T]]</text>
<text text-anchor="start" x="2918" y="-496.3" font-family="Times,serif" font-size="14.00">setFileVisitor(&lt;YamlProcessFile&gt; fileVisitor):</text>
<polygon fill="none" stroke="black" points="2914,-489 2914,-560 3248,-560 3248,-489 2914,-489"/>
</g>
<!-- KameletParseCatalog&#45;&gt;ParseCatalog -->
<g id="edge9" class="edge">
<title>KameletParseCatalog&#45;&gt;ParseCatalog</title>
<path fill="none" stroke="black" stroke-dasharray="5,2" d="M2823.74,-691.43C2843.96,-671.38 2879.56,-637.84 2914,-614 2937.65,-597.63 2964.69,-582.09 2990.02,-568.74"/>
<polygon fill="black" stroke="black" points="2998.9,-564.11 2992.11,-572.72 2994.47,-566.42 2990.03,-568.73 2990.03,-568.73 2990.03,-568.73 2994.47,-566.42 2987.95,-564.74 2998.9,-564.11 2998.9,-564.11"/>
</g>
<!-- Kamelet -->
<g id="node14" class="node">
<title>Kamelet</title>
<polygon fill="none" stroke="black" points="3536,-698.5 3536,-719.5 3609,-719.5 3609,-698.5 3536,-698.5"/>
<text text-anchor="start" x="3539" y="-706.3" font-family="Times,serif" font-weight="bold" font-size="14.00">Kamelet</text>
<polygon fill="none" stroke="black" points="3534.5,-698 3534.5,-721 3609.5,-721 3609.5,-698 3534.5,-698"/>
</g>
<!-- KameletBinding -->
<g id="node15" class="node">
<title>KameletBinding</title>
<polygon fill="none" stroke="black" points="3645,-698.5 3645,-719.5 3781,-719.5 3781,-698.5 3645,-698.5"/>
<text text-anchor="start" x="3648" y="-706.3" font-family="Times,serif" font-weight="bold" font-size="14.00">KameletBinding</text>
<polygon fill="none" stroke="black" points="3644,-698 3644,-721 3782,-721 3782,-698 3644,-698"/>
</g>
<!-- CatalogCollection -->
<g id="node17" class="node">
<title>CatalogCollection</title>
<polygon fill="none" stroke="black" points="2735,-370.5 2735,-391.5 2881,-391.5 2881,-370.5 2735,-370.5"/>
<text text-anchor="start" x="2738" y="-378.3" font-family="Times,serif" font-weight="bold" font-size="14.00">CatalogCollection</text>
<polygon fill="none" stroke="black" points="2734,-370 2734,-393 2882,-393 2882,-370 2734,-370"/>
</g>
<!-- CatalogCollection&#45;&gt;MetadataCatalog -->
<g id="edge11" class="edge">
<title>CatalogCollection&#45;&gt;MetadataCatalog</title>
<path fill="none" stroke="black" d="M2780.64,-363.45C2762.83,-352.67 2738.93,-338.8 2717,-328 2673.85,-306.76 2625.84,-285.93 2581.84,-267.89"/>
<polygon fill="none" stroke="black" points="2583.1,-264.62 2572.51,-264.09 2580.45,-271.1 2583.1,-264.62"/>
</g>
<!-- InMemoryCatalog -->
<g id="node18" class="node">
<title>InMemoryCatalog</title>
<polygon fill="none" stroke="black" points="2237,-370.5 2237,-391.5 2385,-391.5 2385,-370.5 2237,-370.5"/>
<text text-anchor="start" x="2240" y="-378.3" font-family="Times,serif" font-weight="bold" font-size="14.00">InMemoryCatalog</text>
<polygon fill="none" stroke="black" points="2236,-370 2236,-393 2386,-393 2386,-370 2236,-370"/>
</g>
<!-- InMemoryCatalog&#45;&gt;MetadataCatalog -->
<g id="edge12" class="edge">
<title>InMemoryCatalog&#45;&gt;MetadataCatalog</title>
<path fill="none" stroke="black" d="M2323.57,-363.37C2339.18,-342.09 2366.65,-304.65 2390.41,-272.27"/>
<polygon fill="none" stroke="black" points="2393.27,-274.29 2396.36,-264.16 2387.62,-270.15 2393.27,-274.29"/>
</g>
<!-- ReadOnlyCatalog -->
<g id="node19" class="node">
<title>ReadOnlyCatalog</title>
<polygon fill="none" stroke="black" points="2737,-513.5 2737,-534.5 2879,-534.5 2879,-513.5 2737,-513.5"/>
<text text-anchor="start" x="2740" y="-521.3" font-family="Times,serif" font-weight="bold" font-size="14.00">ReadOnlyCatalog</text>
<polygon fill="none" stroke="black" points="2736,-513 2736,-536 2880,-536 2880,-513 2736,-513"/>
</g>
<!-- ReadOnlyCatalog&#45;&gt;CatalogCollection -->
<g id="edge13" class="edge">
<title>ReadOnlyCatalog&#45;&gt;CatalogCollection</title>
<path fill="none" stroke="black" d="M2808,-506.49C2808,-482.46 2808,-438.31 2808,-409.7"/>
<polygon fill="none" stroke="black" points="2811.5,-409.57 2808,-399.57 2804.5,-409.57 2811.5,-409.57"/>
</g>
<!-- GitParseCatalog -->
<g id="node20" class="node">
<title>GitParseCatalog</title>
<polygon fill="none" stroke="black" points="3365,-698.5 3365,-719.5 3500,-719.5 3500,-698.5 3365,-698.5"/>
<text text-anchor="start" x="3368" y="-706.3" font-family="Times,serif" font-weight="bold" font-size="14.00">GitParseCatalog</text>
<polygon fill="none" stroke="black" points="3363.5,-698 3363.5,-721 3500.5,-721 3500.5,-698 3363.5,-698"/>
</g>
<!-- GitParseCatalog&#45;&gt;ParseCatalog -->
<g id="edge14" class="edge">
<title>GitParseCatalog&#45;&gt;ParseCatalog</title>
<path fill="none" stroke="black" d="M3420.62,-691.38C3405.8,-670.33 3377.97,-634.83 3346,-614 3316.87,-595.02 3283.28,-579.74 3250.01,-567.56"/>
<polygon fill="none" stroke="black" points="3250.76,-564.11 3240.17,-564.04 3248.41,-570.7 3250.76,-564.11"/>
</g>
<!-- YamlProcessFile -->
<g id="node21" class="node">
<title>YamlProcessFile</title>
<polygon fill="none" stroke="black" points="3365,-513.5 3365,-534.5 3500,-534.5 3500,-513.5 3365,-513.5"/>
<text text-anchor="start" x="3368" y="-521.3" font-family="Times,serif" font-weight="bold" font-size="14.00">YamlProcessFile</text>
<polygon fill="none" stroke="black" points="3363.5,-513 3363.5,-536 3500.5,-536 3500.5,-513 3363.5,-513"/>
</g>
<!-- GitParseCatalog&#45;&gt;YamlProcessFile -->
<g id="edge15" class="edge">
<title>GitParseCatalog&#45;&gt;YamlProcessFile</title>
<path fill="none" stroke="black" stroke-dasharray="5,2" d="M3427.85,-691.28C3424.69,-659.46 3424.41,-591.19 3427.02,-552.93"/>
<polygon fill="black" stroke="black" points="3427.87,-542.54 3431.54,-552.87 3427.46,-547.52 3427.05,-552.5 3427.05,-552.5 3427.05,-552.5 3427.46,-547.52 3422.57,-552.13 3427.87,-542.54 3427.87,-542.54"/>
</g>
<!-- YamlProcessFile&#45;&gt;GitParseCatalog -->
<g id="edge17" class="edge">
<title>YamlProcessFile&#45;&gt;GitParseCatalog</title>
<path fill="none" stroke="black" stroke-dasharray="5,2" d="M3436.13,-542.54C3439.3,-574.23 3439.59,-642.48 3437,-680.86"/>
<polygon fill="black" stroke="black" points="3436.15,-691.28 3432.48,-680.95 3436.55,-686.3 3436.96,-681.32 3436.96,-681.32 3436.96,-681.32 3436.55,-686.3 3441.45,-681.68 3436.15,-691.28 3436.15,-691.28"/>
</g>
<!-- JarParseCatalog -->
<g id="node22" class="node">
<title>JarParseCatalog</title>
<polygon fill="none" stroke="black" points="2932,-698.5 2932,-719.5 3066,-719.5 3066,-698.5 2932,-698.5"/>
<text text-anchor="start" x="2935" y="-706.3" font-family="Times,serif" font-weight="bold" font-size="14.00">JarParseCatalog</text>
<polygon fill="none" stroke="black" points="2931,-698 2931,-721 3067,-721 3067,-698 2931,-698"/>
</g>
<!-- JarParseCatalog&#45;&gt;ParseCatalog -->
<g id="edge16" class="edge">
<title>JarParseCatalog&#45;&gt;ParseCatalog</title>
<path fill="none" stroke="black" d="M3006.71,-691.28C3018.66,-664.63 3042.06,-612.4 3059.42,-573.65"/>
<polygon fill="none" stroke="black" points="3062.8,-574.68 3063.7,-564.12 3056.41,-571.81 3062.8,-574.68"/>
</g>
<!-- ViewDefinitionParseCatalog -->
<g id="node23" class="node">
<title>ViewDefinitionParseCatalog</title>
<polygon fill="none" stroke="black" points="3102,-698.5 3102,-719.5 3328,-719.5 3328,-698.5 3102,-698.5"/>
<text text-anchor="start" x="3105" y="-706.3" font-family="Times,serif" font-weight="bold" font-size="14.00">ViewDefinitionParseCatalog</text>
<polygon fill="none" stroke="black" points="3101,-698 3101,-721 3329,-721 3329,-698 3101,-698"/>
</g>
<!-- ViewDefinitionParseCatalog&#45;&gt;ParseCatalog -->
<g id="edge18" class="edge">
<title>ViewDefinitionParseCatalog&#45;&gt;ParseCatalog</title>
<path fill="none" stroke="black" stroke-dasharray="5,2" d="M3202.39,-691.28C3182.71,-664.4 3143.98,-611.51 3115.54,-572.67"/>
<polygon fill="black" stroke="black" points="3109.28,-564.12 3118.82,-569.53 3112.23,-568.15 3115.19,-572.19 3115.19,-572.19 3115.19,-572.19 3112.23,-568.15 3111.56,-574.85 3109.28,-564.12 3109.28,-564.12"/>
</g>
<!-- Parameter -->
<g id="node24" class="node">
<title>Parameter</title>
<polygon fill="none" stroke="black" points="3817,-778.5 3817,-799.5 3953,-799.5 3953,-778.5 3817,-778.5"/>
<text text-anchor="start" x="3843" y="-786.3" font-family="Times,serif" font-weight="bold" font-size="14.00">Parameter</text>
<polygon fill="none" stroke="black" points="3817,-618.5 3817,-778.5 3953,-778.5 3953,-618.5 3817,-618.5"/>
<text text-anchor="start" x="3847" y="-765.3" font-family="Times,serif" font-style="italic" font-size="14.00">Properties</text>
<text text-anchor="start" x="3820" y="-751.3" font-family="Times,serif" font-size="14.00">description:String</text>
<text text-anchor="start" x="3820" y="-737.3" font-family="Times,serif" font-size="14.00">title:String</text>
<text text-anchor="start" x="3820" y="-723.3" font-family="Times,serif" font-size="14.00">id:String</text>
<text text-anchor="start" x="3820" y="-709.3" font-family="Times,serif" font-size="14.00">value:Object</text>
<text text-anchor="start" x="3820" y="-695.3" font-family="Times,serif" font-size="14.00">default:Object</text>
<text text-anchor="start" x="3820" y="-681.3" font-family="Times,serif" font-size="14.00">type:String</text>
<text text-anchor="start" x="3820" y="-667.3" font-family="Times,serif" font-size="14.00">path:Boolean</text>
<text text-anchor="start" x="3820" y="-653.3" font-family="Times,serif" font-size="14.00">nullable:Boolean</text>
<text text-anchor="start" x="3820" y="-639.3" font-family="Times,serif" font-size="14.00">enum:Object[]</text>
<text text-anchor="start" x="3820" y="-625.3" font-family="Times,serif" font-size="14.00">examples:Object[]</text>
<polygon fill="none" stroke="black" points="3816,-618 3816,-801 3954,-801 3954,-618 3816,-618"/>
</g>
<!-- Step&#45;&gt;Metadata -->
<g id="edge19" class="edge">
<title>Step&#45;&gt;Metadata</title>
<path fill="none" stroke="black" d="M786.25,-191.39C996.23,-157.51 1442.47,-85.5 1611.36,-58.25"/>
<polygon fill="none" stroke="black" points="1612.04,-61.69 1621.36,-56.64 1610.93,-54.78 1612.04,-61.69"/>
</g>
<!-- ViewDefinition&#45;&gt;Metadata -->
<g id="edge20" class="edge">
<title>ViewDefinition&#45;&gt;Metadata</title>
<path fill="none" stroke="black" d="M1678,-156.9C1678,-139.68 1678,-120.5 1678,-103.06"/>
<polygon fill="none" stroke="black" points="1681.5,-103.03 1678,-93.03 1674.5,-103.03 1681.5,-103.03"/>
</g>
<!-- ViewDefinitionConstraint -->
<g id="node27" class="node">
<title>ViewDefinitionConstraint</title>
<polygon fill="none" stroke="black" points="1341,-401.5 1341,-422.5 1567,-422.5 1567,-401.5 1341,-401.5"/>
<text text-anchor="start" x="1353.5" y="-409.3" font-family="Times,serif" font-weight="bold" font-size="14.00">ViewDefinitionConstraint</text>
<polygon fill="none" stroke="black" points="1341,-339.5 1341,-401.5 1567,-401.5 1567,-339.5 1341,-339.5"/>
<text text-anchor="start" x="1416" y="-388.3" font-family="Times,serif" font-style="italic" font-size="14.00">Properties</text>
<text text-anchor="start" x="1344" y="-374.3" font-family="Times,serif" font-size="14.00">mandatory:boolean</text>
<text text-anchor="start" x="1344" y="-360.3" font-family="Times,serif" font-size="14.00">operation:ConstraintOperation</text>
<text text-anchor="start" x="1344" y="-346.3" font-family="Times,serif" font-size="14.00">parameter:String</text>
<polygon fill="none" stroke="black" points="1340,-339 1340,-424 1568,-424 1568,-339 1340,-339"/>
</g>
<!-- ViewDefinitionConstraint&#45;&gt;ViewDefinition -->
<g id="edge21" class="edge">
<title>ViewDefinitionConstraint&#45;&gt;ViewDefinition</title>
<path fill="none" stroke="black" d="M1514.32,-334.99C1540.17,-315.49 1570.72,-292.44 1598.39,-271.56"/>
<polygon fill="black" stroke="black" points="1598.47,-271.51 1600.85,-264.7 1608.04,-264.28 1605.66,-271.09 1598.47,-271.51"/>
<text text-anchor="middle" x="1500.32" y="-323.79" font-family="Times,serif" font-size="14.00">0..n</text>
</g>
<!-- DeploymentGeneratorService -->
<g id="node28" class="node">
<title>DeploymentGeneratorService</title>
<polygon fill="none" stroke="black" points="9,-408.5 9,-429.5 511,-429.5 511,-408.5 9,-408.5"/>
<text text-anchor="start" x="144" y="-416.3" font-family="Times,serif" font-weight="bold" font-size="14.00">DeploymentGeneratorService</text>
<polygon fill="none" stroke="black" points="9,-332.5 9,-408.5 511,-408.5 511,-332.5 9,-332.5"/>
<text text-anchor="start" x="228.5" y="-395.3" font-family="Times,serif" font-style="italic" font-size="14.00">Methods</text>
<text text-anchor="start" x="12" y="-381.3" font-family="Times,serif" font-size="14.00">identifier():String</text>
<text text-anchor="start" x="12" y="-367.3" font-family="Times,serif" font-size="14.00">parse(&lt;String&gt; name, &lt;List[Step]&gt; steps, &lt;Map&gt; metadata):String</text>
<text text-anchor="start" x="12" y="-353.3" font-family="Times,serif" font-size="14.00">appliesTo(&lt;List[Step]&gt; steps):boolean</text>
<text text-anchor="start" x="12" y="-339.3" font-family="Times,serif" font-size="14.00">getKinds():String[]</text>
<polygon fill="none" stroke="black" points="8,-332 8,-431 512,-431 512,-332 8,-332"/>
</g>
<!-- DeploymentGeneratorService&#45;&gt;Step -->
<g id="edge22" class="edge">
<title>DeploymentGeneratorService&#45;&gt;Step</title>
<path fill="none" stroke="black" stroke-dasharray="5,2" d="M388.72,-327.95C440.9,-306.65 500.86,-282.18 552.3,-261.18"/>
<polygon fill="black" stroke="black" points="561.8,-257.3 554.24,-265.25 557.17,-259.19 552.54,-261.08 552.54,-261.08 552.54,-261.08 557.17,-259.19 550.84,-256.91 561.8,-257.3 561.8,-257.3"/>
</g>
</g>
</svg>
