<?xml version="1.0" encoding="UTF-8" standalone="no"?>
<!DOCTYPE svg PUBLIC "-//W3C//DTD SVG 1.1//EN"
 "http://www.w3.org/Graphics/SVG/1.1/DTD/svg11.dtd">
<!-- Generated by graphviz version 2.43.0 (0)
 -->
<!-- Title: ClassDiagram Pages: 1 -->
<svg width="3452pt" height="729pt"
 viewBox="0.00 0.00 3451.50 729.00" xmlns="http://www.w3.org/2000/svg" xmlns:xlink="http://www.w3.org/1999/xlink">
<g id="graph0" class="graph" transform="scale(1 1) rotate(0) translate(4 725)">
<title>ClassDiagram</title>
<polygon fill="white" stroke="transparent" points="-4,4 -4,-725 3447.5,-725 3447.5,4 -4,4"/>
<!-- DeploymentResource -->
<g id="node1" class="node">
<title>DeploymentResource</title>
<polygon fill="none" stroke="black" points="192.5,-523.5 192.5,-544.5 605.5,-544.5 605.5,-523.5 192.5,-523.5"/>
<text text-anchor="start" x="314.5" y="-531.3" font-family="Times,serif" font-weight="bold" font-size="14.00">DeploymentResource</text>
<polygon fill="none" stroke="black" points="192.5,-447.5 192.5,-523.5 605.5,-523.5 605.5,-447.5 192.5,-447.5"/>
<text text-anchor="start" x="367.5" y="-510.3" font-family="Times,serif" font-style="italic" font-size="14.00">Methods</text>
<text text-anchor="start" x="195.5" y="-496.3" font-family="Times,serif" font-size="14.00">yaml(&lt;DeploymentResourceYamlRequest&gt; steps):String</text>
<text text-anchor="start" x="195.5" y="-482.3" font-family="Times,serif" font-size="14.00">start(&lt;DeploymentResourceYamlRequest&gt; steps):String</text>
<text text-anchor="start" x="195.5" y="-468.3" font-family="Times,serif" font-size="14.00">integrations():String</text>
<text text-anchor="start" x="195.5" y="-454.3" font-family="Times,serif" font-size="14.00">stop():String</text>
<polygon fill="none" stroke="black" points="191,-447 191,-546 606,-546 606,-447 191,-447"/>
</g>
<!-- DeploymentService -->
<g id="node2" class="node">
<title>DeploymentService</title>
<polygon fill="none" stroke="black" points="218.5,-659.5 218.5,-680.5 578.5,-680.5 578.5,-659.5 218.5,-659.5"/>
<text text-anchor="start" x="322.5" y="-667.3" font-family="Times,serif" font-weight="bold" font-size="14.00">DeploymentService</text>
<polygon fill="none" stroke="black" points="218.5,-625.5 218.5,-659.5 578.5,-659.5 578.5,-625.5 218.5,-625.5"/>
<text text-anchor="start" x="367" y="-646.3" font-family="Times,serif" font-style="italic" font-size="14.00">Methods</text>
<text text-anchor="start" x="221.5" y="-632.3" font-family="Times,serif" font-size="14.00">yaml(&lt;List[Step]&gt; steps, &lt;String&gt; name):String</text>
<polygon fill="none" stroke="black" points="217.5,-625 217.5,-682 579.5,-682 579.5,-625 217.5,-625"/>
</g>
<!-- DeploymentService&#45;&gt;DeploymentResource -->
<g id="edge1" class="edge">
<title>DeploymentService&#45;&gt;DeploymentResource</title>
<path fill="none" stroke="black" d="M398.5,-620.76C398.5,-603.88 398.5,-582.5 398.5,-562.3"/>
<polygon fill="black" stroke="black" points="398.5,-562.25 394.5,-556.25 398.5,-550.25 402.5,-556.25 398.5,-562.25"/>
<text text-anchor="middle" x="384.5" y="-609.56" font-family="Times,serif" font-size="14.00">0..1</text>
</g>
<!-- StepResource -->
<g id="node3" class="node">
<title>StepResource</title>
<polygon fill="none" stroke="black" points="1845.5,-673.5 1845.5,-694.5 2149.5,-694.5 2149.5,-673.5 1845.5,-673.5"/>
<text text-anchor="start" x="1943" y="-681.3" font-family="Times,serif" font-weight="bold" font-size="14.00">StepResource</text>
<polygon fill="none" stroke="black" points="1845.5,-611.5 1845.5,-673.5 2149.5,-673.5 2149.5,-611.5 1845.5,-611.5"/>
<text text-anchor="start" x="1966" y="-660.3" font-family="Times,serif" font-style="italic" font-size="14.00">Methods</text>
<text text-anchor="start" x="1848.5" y="-646.3" font-family="Times,serif" font-size="14.00">stepById(&lt;String&gt; id):Step</text>
<text text-anchor="start" x="1848.5" y="-632.3" font-family="Times,serif" font-size="14.00">stepsByName(&lt;String&gt; name):List[Step]</text>
<text text-anchor="start" x="1848.5" y="-618.3" font-family="Times,serif" font-size="14.00">allSteps():List[Step]</text>
<polygon fill="none" stroke="black" points="1844.5,-611 1844.5,-696 2150.5,-696 2150.5,-611 1844.5,-611"/>
</g>
<!-- StepCatalog -->
<g id="node4" class="node">
<title>StepCatalog</title>
<polygon fill="none" stroke="black" points="1946.5,-485.5 1946.5,-506.5 2048.5,-506.5 2048.5,-485.5 1946.5,-485.5"/>
<text text-anchor="start" x="1949.5" y="-493.3" font-family="Times,serif" font-weight="bold" font-size="14.00">StepCatalog</text>
<polygon fill="none" stroke="black" points="1945.5,-485 1945.5,-508 2049.5,-508 2049.5,-485 1945.5,-485"/>
</g>
<!-- StepResource&#45;&gt;StepCatalog -->
<g id="edge2" class="edge">
<title>StepResource&#45;&gt;StepCatalog</title>
<path fill="none" stroke="black" stroke-dasharray="5,2" d="M1997.5,-606.83C1997.5,-580.28 1997.5,-547.69 1997.5,-525.04"/>
<polygon fill="black" stroke="black" points="1997.5,-514.78 2002,-524.78 1997.5,-519.78 1997.5,-524.78 1997.5,-524.78 1997.5,-524.78 1997.5,-519.78 1993,-524.78 1997.5,-514.78 1997.5,-514.78"/>
</g>
<!-- AbstractCatalog -->
<g id="node9" class="node">
<title>AbstractCatalog</title>
<polygon fill="none" stroke="black" points="2011.5,-373.5 2011.5,-394.5 2289.5,-394.5 2289.5,-373.5 2011.5,-373.5"/>
<text text-anchor="start" x="2087" y="-381.3" font-family="Times,serif" font-weight="bold" font-size="14.00">AbstractCatalog</text>
<polygon fill="none" stroke="black" points="2011.5,-325.5 2011.5,-373.5 2289.5,-373.5 2289.5,-325.5 2011.5,-325.5"/>
<text text-anchor="start" x="2119" y="-360.3" font-family="Times,serif" font-style="italic" font-size="14.00">Methods</text>
<text text-anchor="start" x="2014.5" y="-346.3" font-family="Times,serif" font-size="14.00">waitForWarmUp():CompletableFuture</text>
<text text-anchor="start" x="2014.5" y="-332.3" font-family="Times,serif" font-size="14.00">loadParsers():List[ParseCatalog]</text>
<polygon fill="none" stroke="black" points="2010.5,-325 2010.5,-396 2290.5,-396 2290.5,-325 2010.5,-325"/>
</g>
<!-- StepCatalog&#45;&gt;AbstractCatalog -->
<g id="edge7" class="edge">
<title>StepCatalog&#45;&gt;AbstractCatalog</title>
<path fill="none" stroke="black" d="M2017.19,-478.26C2037.7,-460.29 2070.69,-431.4 2098.72,-406.85"/>
<polygon fill="none" stroke="black" points="2101.26,-409.28 2106.48,-400.06 2096.65,-404.01 2101.26,-409.28"/>
</g>
<!-- ViewDefinitionResource -->
<g id="node5" class="node">
<title>ViewDefinitionResource</title>
<polygon fill="none" stroke="black" points="699.5,-366.5 699.5,-387.5 895.5,-387.5 895.5,-366.5 699.5,-366.5"/>
<text text-anchor="start" x="702.5" y="-374.3" font-family="Times,serif" font-weight="bold" font-size="14.00">ViewDefinitionResource</text>
<polygon fill="none" stroke="black" points="699.5,-332.5 699.5,-366.5 895.5,-366.5 895.5,-332.5 699.5,-332.5"/>
<text text-anchor="start" x="766" y="-353.3" font-family="Times,serif" font-style="italic" font-size="14.00">Methods</text>
<text text-anchor="start" x="713" y="-339.3" font-family="Times,serif" font-size="14.00">views:(&lt;String&gt; yaml):</text>
<polygon fill="none" stroke="black" points="698.5,-332 698.5,-389 896.5,-389 896.5,-332 698.5,-332"/>
</g>
<!-- ViewDefinitionService -->
<g id="node6" class="node">
<title>ViewDefinitionService</title>
<polygon fill="none" stroke="black" points="641.5,-502.5 641.5,-523.5 953.5,-523.5 953.5,-502.5 641.5,-502.5"/>
<text text-anchor="start" x="711" y="-510.3" font-family="Times,serif" font-weight="bold" font-size="14.00">ViewDefinitionService</text>
<polygon fill="none" stroke="black" points="641.5,-468.5 641.5,-502.5 953.5,-502.5 953.5,-468.5 641.5,-468.5"/>
<text text-anchor="start" x="766" y="-489.3" font-family="Times,serif" font-style="italic" font-size="14.00">Methods</text>
<text text-anchor="start" x="644.5" y="-475.3" font-family="Times,serif" font-size="14.00">views(&lt;String&gt; yaml):List[ViewDefinition]</text>
<polygon fill="none" stroke="black" points="640.5,-468 640.5,-525 954.5,-525 954.5,-468 640.5,-468"/>
</g>
<!-- ViewDefinitionService&#45;&gt;ViewDefinitionResource -->
<g id="edge3" class="edge">
<title>ViewDefinitionService&#45;&gt;ViewDefinitionResource</title>
<path fill="none" stroke="black" d="M797.5,-463.74C797.5,-446.22 797.5,-424.2 797.5,-405.09"/>
<polygon fill="black" stroke="black" points="797.5,-405.03 793.5,-399.03 797.5,-393.03 801.5,-399.03 797.5,-405.03"/>
<text text-anchor="middle" x="783.5" y="-452.54" font-family="Times,serif" font-size="14.00">0..1</text>
</g>
<!-- StepParserService -->
<g id="node7" class="node">
<title>StepParserService</title>
<polygon fill="none" stroke="black" points="410.5,-373.5 410.5,-394.5 663.5,-394.5 663.5,-373.5 410.5,-373.5"/>
<text text-anchor="start" x="464.5" y="-381.3" font-family="Times,serif" font-weight="bold" font-size="14.00">StepParserService</text>
<polygon fill="none" stroke="black" points="410.5,-325.5 410.5,-373.5 663.5,-373.5 663.5,-325.5 410.5,-325.5"/>
<text text-anchor="start" x="505.5" y="-360.3" font-family="Times,serif" font-style="italic" font-size="14.00">Methods</text>
<text text-anchor="start" x="413.5" y="-346.3" font-family="Times,serif" font-size="14.00">parse(&lt;String&gt; yaml):List[Step]</text>
<text text-anchor="start" x="413.5" y="-332.3" font-family="Times,serif" font-size="14.00">appliesTo(&lt;String&gt; yaml):boolean</text>
<polygon fill="none" stroke="black" points="409,-325 409,-396 664,-396 664,-325 409,-325"/>
</g>
<!-- ViewDefinitionService&#45;&gt;StepParserService -->
<g id="edge4" class="edge">
<title>ViewDefinitionService&#45;&gt;StepParserService</title>
<path fill="none" stroke="black" stroke-dasharray="5,2" d="M735.98,-463.91C701.51,-446.22 658.05,-423.9 620.49,-404.62"/>
<polygon fill="black" stroke="black" points="611.58,-400.05 622.53,-400.61 616.03,-402.33 620.48,-404.61 620.48,-404.61 620.48,-404.61 616.03,-402.33 618.42,-408.62 611.58,-400.05 611.58,-400.05"/>
</g>
<!-- ViewDefinitionParserService -->
<g id="node8" class="node">
<title>ViewDefinitionParserService</title>
<polygon fill="none" stroke="black" points="1193.5,-380.5 1193.5,-401.5 1791.5,-401.5 1791.5,-380.5 1193.5,-380.5"/>
<text text-anchor="start" x="1380" y="-388.3" font-family="Times,serif" font-weight="bold" font-size="14.00">ViewDefinitionParserService</text>
<polygon fill="none" stroke="black" points="1193.5,-318.5 1193.5,-380.5 1791.5,-380.5 1791.5,-318.5 1193.5,-318.5"/>
<text text-anchor="start" x="1461" y="-367.3" font-family="Times,serif" font-style="italic" font-size="14.00">Methods</text>
<text text-anchor="start" x="1196.5" y="-353.3" font-family="Times,serif" font-size="14.00">parse(&lt;List[Step]&gt; steps):List[ViewDefinition]</text>
<text text-anchor="start" x="1196.5" y="-339.3" font-family="Times,serif" font-size="14.00">getViewsPerStep(&lt;List[Step]&gt; steps, &lt;ViewDefinition&gt; view):List[ViewDefinition]</text>
<text text-anchor="start" x="1196.5" y="-325.3" font-family="Times,serif" font-size="14.00">appliesTo(&lt;List[Step]&gt; steps, &lt;ViewDefinition&gt; viewDefinition):boolean</text>
<polygon fill="none" stroke="black" points="1192.5,-318 1192.5,-403 1792.5,-403 1792.5,-318 1192.5,-318"/>
</g>
<!-- ViewDefinitionService&#45;&gt;ViewDefinitionParserService -->
<g id="edge5" class="edge">
<title>ViewDefinitionService&#45;&gt;ViewDefinitionParserService</title>
<path fill="none" stroke="black" stroke-dasharray="5,2" d="M960.89,-464C1045.95,-447.6 1151.72,-427.21 1246.45,-408.94"/>
<polygon fill="black" stroke="black" points="1256.47,-407.01 1247.5,-413.32 1251.56,-407.95 1246.65,-408.9 1246.65,-408.9 1246.65,-408.9 1251.56,-407.95 1245.8,-404.48 1256.47,-407.01 1256.47,-407.01"/>
</g>
<!-- Step -->
<g id="node24" class="node">
<title>Step</title>
<polygon fill="none" stroke="black" points="433.5,-251.5 433.5,-272.5 639.5,-272.5 639.5,-251.5 433.5,-251.5"/>
<text text-anchor="start" x="518.5" y="-259.3" font-family="Times,serif" font-weight="bold" font-size="14.00">Step</text>
<polygon fill="none" stroke="black" points="433.5,-133.5 433.5,-251.5 639.5,-251.5 639.5,-133.5 433.5,-133.5"/>
<text text-anchor="start" x="498.5" y="-238.3" font-family="Times,serif" font-style="italic" font-size="14.00">Properties</text>
<text text-anchor="start" x="436.5" y="-224.3" font-family="Times,serif" font-size="14.00">description:String</text>
<text text-anchor="start" x="436.5" y="-210.3" font-family="Times,serif" font-size="14.00">title:String</text>
<text text-anchor="start" x="436.5" y="-196.3" font-family="Times,serif" font-size="14.00">parameters:List[Parameter]</text>
<text text-anchor="start" x="436.5" y="-182.3" font-family="Times,serif" font-size="14.00">icon:String</text>
<text text-anchor="start" x="436.5" y="-168.3" font-family="Times,serif" font-size="14.00">UUID:String</text>
<text text-anchor="start" x="436.5" y="-154.3" font-family="Times,serif" font-size="14.00">group:String</text>
<text text-anchor="start" x="436.5" y="-140.3" font-family="Times,serif" font-size="14.00">kind:String</text>
<polygon fill="none" stroke="black" points="432.5,-133 432.5,-274 640.5,-274 640.5,-133 432.5,-133"/>
</g>
<!-- StepParserService&#45;&gt;Step -->
<g id="edge23" class="edge">
<title>StepParserService&#45;&gt;Step</title>
<path fill="none" stroke="black" stroke-dasharray="5,2" d="M536.5,-320.79C536.5,-310.73 536.5,-299.5 536.5,-288.09"/>
<polygon fill="black" stroke="black" points="536.5,-278.05 541,-288.05 536.5,-283.05 536.5,-288.05 536.5,-288.05 536.5,-288.05 536.5,-283.05 532,-288.05 536.5,-278.05 536.5,-278.05"/>
</g>
<!-- ViewDefinition -->
<g id="node25" class="node">
<title>ViewDefinition</title>
<polygon fill="none" stroke="black" points="1114.5,-230.5 1114.5,-251.5 1423.5,-251.5 1423.5,-230.5 1114.5,-230.5"/>
<text text-anchor="start" x="1211" y="-238.3" font-family="Times,serif" font-weight="bold" font-size="14.00">ViewDefinition</text>
<polygon fill="none" stroke="black" points="1114.5,-154.5 1114.5,-230.5 1423.5,-230.5 1423.5,-154.5 1114.5,-154.5"/>
<text text-anchor="start" x="1231" y="-217.3" font-family="Times,serif" font-style="italic" font-size="14.00">Properties</text>
<text text-anchor="start" x="1117.5" y="-203.3" font-family="Times,serif" font-size="14.00">properties:Map[String, String]</text>
<text text-anchor="start" x="1117.5" y="-189.3" font-family="Times,serif" font-size="14.00">step:Step</text>
<text text-anchor="start" x="1117.5" y="-175.3" font-family="Times,serif" font-size="14.00">url:String</text>
<text text-anchor="start" x="1117.5" y="-161.3" font-family="Times,serif" font-size="14.00">constraints:List[ViewDefinitionConstraint]</text>
<polygon fill="none" stroke="black" points="1113,-154 1113,-253 1424,-253 1424,-154 1113,-154"/>
</g>
<!-- ViewDefinitionParserService&#45;&gt;ViewDefinition -->
<g id="edge24" class="edge">
<title>ViewDefinitionParserService&#45;&gt;ViewDefinition</title>
<path fill="none" stroke="black" stroke-dasharray="5,2" d="M1426.5,-313.83C1403.53,-297.94 1377.43,-279.88 1353.16,-263.08"/>
<polygon fill="black" stroke="black" points="1344.66,-257.2 1355.44,-259.19 1348.77,-260.04 1352.88,-262.89 1352.88,-262.89 1352.88,-262.89 1348.77,-260.04 1350.32,-266.59 1344.66,-257.2 1344.66,-257.2"/>
</g>
<!-- MetadataCatalog -->
<g id="node10" class="node">
<title>MetadataCatalog</title>
<polygon fill="none" stroke="black" points="1854.5,-230.5 1854.5,-251.5 2197.5,-251.5 2197.5,-230.5 1854.5,-230.5"/>
<text text-anchor="start" x="1958" y="-238.3" font-family="Times,serif" font-weight="bold" font-size="14.00">MetadataCatalog</text>
<polygon fill="none" stroke="black" points="1854.5,-154.5 1854.5,-230.5 2197.5,-230.5 2197.5,-154.5 1854.5,-154.5"/>
<text text-anchor="start" x="1994.5" y="-217.3" font-family="Times,serif" font-style="italic" font-size="14.00">Methods</text>
<text text-anchor="start" x="1857.5" y="-203.3" font-family="Times,serif" font-size="14.00">searchStepByID(&lt;String&gt; id):Metadata</text>
<text text-anchor="start" x="1857.5" y="-189.3" font-family="Times,serif" font-size="14.00">searchStepByName(&lt;String&gt; name):Metadata</text>
<text text-anchor="start" x="1857.5" y="-175.3" font-family="Times,serif" font-size="14.00">store(&lt;List[Step]&gt; steps):boolean</text>
<text text-anchor="start" x="1857.5" y="-161.3" font-family="Times,serif" font-size="14.00">getAll():List[Metadata]</text>
<polygon fill="none" stroke="black" points="1853,-154 1853,-253 2198,-253 2198,-154 1853,-154"/>
</g>
<!-- AbstractCatalog&#45;&gt;MetadataCatalog -->
<g id="edge6" class="edge">
<title>AbstractCatalog&#45;&gt;MetadataCatalog</title>
<path fill="none" stroke="black" stroke-dasharray="5,2" d="M2119.28,-320.79C2105.68,-303.92 2089.41,-283.75 2074.27,-264.98"/>
<polygon fill="black" stroke="black" points="2067.86,-257.03 2077.64,-261.99 2071,-260.92 2074.14,-264.81 2074.14,-264.81 2074.14,-264.81 2071,-260.92 2070.64,-267.64 2067.86,-257.03 2067.86,-257.03"/>
</g>
<!-- Metadata -->
<g id="node15" class="node">
<title>Metadata</title>
<polygon fill="none" stroke="black" points="1221.5,-66.5 1221.5,-87.5 1316.5,-87.5 1316.5,-66.5 1221.5,-66.5"/>
<text text-anchor="start" x="1231" y="-74.3" font-family="Times,serif" font-weight="bold" font-size="14.00">Metadata</text>
<polygon fill="none" stroke="black" points="1221.5,-4.5 1221.5,-66.5 1316.5,-66.5 1316.5,-4.5 1221.5,-4.5"/>
<text text-anchor="start" x="1231" y="-53.3" font-family="Times,serif" font-style="italic" font-size="14.00">Properties</text>
<text text-anchor="start" x="1224.5" y="-39.3" font-family="Times,serif" font-size="14.00">ID:String</text>
<text text-anchor="start" x="1224.5" y="-25.3" font-family="Times,serif" font-size="14.00">name:String</text>
<text text-anchor="start" x="1224.5" y="-11.3" font-family="Times,serif" font-size="14.00">type:String</text>
<polygon fill="none" stroke="black" points="1220,-4 1220,-89 1317,-89 1317,-4 1220,-4"/>
</g>
<!-- MetadataCatalog&#45;&gt;Metadata -->
<g id="edge10" class="edge">
<title>MetadataCatalog&#45;&gt;Metadata</title>
<path fill="none" stroke="black" stroke-dasharray="5,2" d="M1844.66,-165.47C1680.79,-131.92 1448.2,-84.29 1335.23,-61.16"/>
<polygon fill="black" stroke="black" points="1325.33,-59.14 1336.03,-56.73 1330.23,-60.14 1335.13,-61.14 1335.13,-61.14 1335.13,-61.14 1330.23,-60.14 1334.23,-65.55 1325.33,-59.14 1325.33,-59.14"/>
</g>
<!-- ViewDefinitionCatalog -->
<g id="node11" class="node">
<title>ViewDefinitionCatalog</title>
<polygon fill="none" stroke="black" points="2084.5,-485.5 2084.5,-506.5 2266.5,-506.5 2266.5,-485.5 2084.5,-485.5"/>
<text text-anchor="start" x="2087.5" y="-493.3" font-family="Times,serif" font-weight="bold" font-size="14.00">ViewDefinitionCatalog</text>
<polygon fill="none" stroke="black" points="2083.5,-485 2083.5,-508 2267.5,-508 2267.5,-485 2083.5,-485"/>
</g>
<!-- ViewDefinitionCatalog&#45;&gt;AbstractCatalog -->
<g id="edge8" class="edge">
<title>ViewDefinitionCatalog&#45;&gt;AbstractCatalog</title>
<path fill="none" stroke="black" d="M2172.28,-478.26C2169.07,-461.06 2164,-433.85 2159.55,-410.02"/>
<polygon fill="none" stroke="black" points="2162.97,-409.25 2157.69,-400.06 2156.09,-410.53 2162.97,-409.25"/>
</g>
<!-- KameletParseCatalog -->
<g id="node12" class="node">
<title>KameletParseCatalog</title>
<polygon fill="none" stroke="black" points="2309.5,-642.5 2309.5,-663.5 2486.5,-663.5 2486.5,-642.5 2309.5,-642.5"/>
<text text-anchor="start" x="2312.5" y="-650.3" font-family="Times,serif" font-weight="bold" font-size="14.00">KameletParseCatalog</text>
<polygon fill="none" stroke="black" points="2308,-642 2308,-665 2487,-665 2487,-642 2308,-642"/>
</g>
<!-- ParseCatalog -->
<g id="node13" class="node">
<title>ParseCatalog</title>
<polygon fill="none" stroke="black" points="2505.5,-509.5 2505.5,-530.5 2837.5,-530.5 2837.5,-509.5 2505.5,-509.5"/>
<text text-anchor="start" x="2619" y="-517.3" font-family="Times,serif" font-weight="bold" font-size="14.00">ParseCatalog</text>
<polygon fill="none" stroke="black" points="2505.5,-461.5 2505.5,-509.5 2837.5,-509.5 2837.5,-461.5 2505.5,-461.5"/>
<text text-anchor="start" x="2640" y="-496.3" font-family="Times,serif" font-style="italic" font-size="14.00">Methods</text>
<text text-anchor="start" x="2508.5" y="-482.3" font-family="Times,serif" font-size="14.00">parse():CompletableFuture[List[T]]</text>
<text text-anchor="start" x="2508.5" y="-468.3" font-family="Times,serif" font-size="14.00">setFileVisitor(&lt;YamlProcessFile&gt; fileVisitor):</text>
<polygon fill="none" stroke="black" points="2504.5,-461 2504.5,-532 2838.5,-532 2838.5,-461 2504.5,-461"/>
</g>
<!-- KameletParseCatalog&#45;&gt;ParseCatalog -->
<g id="edge9" class="edge">
<title>KameletParseCatalog&#45;&gt;ParseCatalog</title>
<path fill="none" stroke="black" stroke-dasharray="5,2" d="M2424.02,-635.31C2445.48,-621.57 2476.63,-602.02 2504.5,-586 2531.08,-570.72 2560.51,-554.81 2587.16,-540.75"/>
<polygon fill="black" stroke="black" points="2596.08,-536.06 2589.32,-544.7 2591.66,-538.39 2587.23,-540.72 2587.23,-540.72 2587.23,-540.72 2591.66,-538.39 2585.14,-536.73 2596.08,-536.06 2596.08,-536.06"/>
</g>
<!-- KameletBinding -->
<g id="node14" class="node">
<title>KameletBinding</title>
<polygon fill="none" stroke="black" points="3126.5,-642.5 3126.5,-663.5 3262.5,-663.5 3262.5,-642.5 3126.5,-642.5"/>
<text text-anchor="start" x="3129.5" y="-650.3" font-family="Times,serif" font-weight="bold" font-size="14.00">KameletBinding</text>
<polygon fill="none" stroke="black" points="3125.5,-642 3125.5,-665 3263.5,-665 3263.5,-642 3125.5,-642"/>
</g>
<!-- CatalogCollection -->
<g id="node16" class="node">
<title>CatalogCollection</title>
<polygon fill="none" stroke="black" points="2325.5,-349.5 2325.5,-370.5 2471.5,-370.5 2471.5,-349.5 2325.5,-349.5"/>
<text text-anchor="start" x="2328.5" y="-357.3" font-family="Times,serif" font-weight="bold" font-size="14.00">CatalogCollection</text>
<polygon fill="none" stroke="black" points="2324.5,-349 2324.5,-372 2472.5,-372 2472.5,-349 2324.5,-349"/>
</g>
<!-- CatalogCollection&#45;&gt;MetadataCatalog -->
<g id="edge11" class="edge">
<title>CatalogCollection&#45;&gt;MetadataCatalog</title>
<path fill="none" stroke="black" d="M2366,-342.33C2348.79,-333.47 2327.2,-322.73 2307.5,-314 2265.98,-295.61 2220.34,-277.15 2178.1,-260.77"/>
<polygon fill="none" stroke="black" points="2179.17,-257.43 2168.58,-257.09 2176.64,-263.96 2179.17,-257.43"/>
</g>
<!-- InMemoryCatalog -->
<g id="node17" class="node">
<title>InMemoryCatalog</title>
<polygon fill="none" stroke="black" points="1827.5,-349.5 1827.5,-370.5 1975.5,-370.5 1975.5,-349.5 1827.5,-349.5"/>
<text text-anchor="start" x="1830.5" y="-357.3" font-family="Times,serif" font-weight="bold" font-size="14.00">InMemoryCatalog</text>
<polygon fill="none" stroke="black" points="1826.5,-349 1826.5,-372 1976.5,-372 1976.5,-349 1826.5,-349"/>
</g>
<!-- InMemoryCatalog&#45;&gt;MetadataCatalog -->
<g id="edge12" class="edge">
<title>InMemoryCatalog&#45;&gt;MetadataCatalog</title>
<path fill="none" stroke="black" d="M1915.24,-342.32C1930.11,-323.74 1954.66,-293.05 1976.82,-265.35"/>
<polygon fill="none" stroke="black" points="1979.79,-267.24 1983.3,-257.24 1974.32,-262.87 1979.79,-267.24"/>
</g>
<!-- ReadOnlyCatalog -->
<g id="node18" class="node">
<title>ReadOnlyCatalog</title>
<polygon fill="none" stroke="black" points="2327.5,-485.5 2327.5,-506.5 2469.5,-506.5 2469.5,-485.5 2327.5,-485.5"/>
<text text-anchor="start" x="2330.5" y="-493.3" font-family="Times,serif" font-weight="bold" font-size="14.00">ReadOnlyCatalog</text>
<polygon fill="none" stroke="black" points="2326.5,-485 2326.5,-508 2470.5,-508 2470.5,-485 2326.5,-485"/>
</g>
<!-- ReadOnlyCatalog&#45;&gt;CatalogCollection -->
<g id="edge13" class="edge">
<title>ReadOnlyCatalog&#45;&gt;CatalogCollection</title>
<path fill="none" stroke="black" d="M2398.5,-478.26C2398.5,-455.64 2398.5,-415.7 2398.5,-388.92"/>
<polygon fill="none" stroke="black" points="2402,-388.68 2398.5,-378.68 2395,-388.68 2402,-388.68"/>
</g>
<!-- GitParseCatalog -->
<g id="node19" class="node">
<title>GitParseCatalog</title>
<polygon fill="none" stroke="black" points="2955.5,-642.5 2955.5,-663.5 3090.5,-663.5 3090.5,-642.5 2955.5,-642.5"/>
<text text-anchor="start" x="2958.5" y="-650.3" font-family="Times,serif" font-weight="bold" font-size="14.00">GitParseCatalog</text>
<polygon fill="none" stroke="black" points="2954,-642 2954,-665 3091,-665 3091,-642 2954,-642"/>
</g>
<!-- GitParseCatalog&#45;&gt;ParseCatalog -->
<g id="edge14" class="edge">
<title>GitParseCatalog&#45;&gt;ParseCatalog</title>
<path fill="none" stroke="black" d="M3004.31,-635.47C2987.72,-620.69 2961.98,-599.6 2936.5,-586 2902.13,-567.66 2863.24,-552.11 2826.05,-539.41"/>
<polygon fill="none" stroke="black" points="2826.72,-535.95 2816.12,-536.08 2824.49,-542.58 2826.72,-535.95"/>
</g>
<!-- YamlProcessFile -->
<g id="node20" class="node">
<title>YamlProcessFile</title>
<polygon fill="none" stroke="black" points="2955.5,-485.5 2955.5,-506.5 3090.5,-506.5 3090.5,-485.5 2955.5,-485.5"/>
<text text-anchor="start" x="2958.5" y="-493.3" font-family="Times,serif" font-weight="bold" font-size="14.00">YamlProcessFile</text>
<polygon fill="none" stroke="black" points="2954,-485 2954,-508 3091,-508 3091,-485 2954,-485"/>
</g>
<!-- GitParseCatalog&#45;&gt;YamlProcessFile -->
<g id="edge15" class="edge">
<title>GitParseCatalog&#45;&gt;YamlProcessFile</title>
<path fill="none" stroke="black" stroke-dasharray="5,2" d="M3018.07,-635.32C3015.29,-608.55 3015.01,-556.66 3017.22,-524.75"/>
<polygon fill="black" stroke="black" points="3018.06,-514.76 3021.7,-525.1 3017.64,-519.74 3017.22,-524.72 3017.22,-524.72 3017.22,-524.72 3017.64,-519.74 3012.73,-524.34 3018.06,-514.76 3018.06,-514.76"/>
</g>
<!-- YamlProcessFile&#45;&gt;GitParseCatalog -->
<g id="edge17" class="edge">
<title>YamlProcessFile&#45;&gt;GitParseCatalog</title>
<path fill="none" stroke="black" stroke-dasharray="5,2" d="M3026.94,-514.76C3029.71,-541.57 3029.99,-593.47 3027.78,-625.34"/>
<polygon fill="black" stroke="black" points="3026.93,-635.32 3023.29,-624.98 3027.35,-630.34 3027.78,-625.36 3027.78,-625.36 3027.78,-625.36 3027.35,-630.34 3032.26,-625.74 3026.93,-635.32 3026.93,-635.32"/>
</g>
<!-- JarParseCatalog -->
<g id="node21" class="node">
<title>JarParseCatalog</title>
<polygon fill="none" stroke="black" points="2522.5,-642.5 2522.5,-663.5 2656.5,-663.5 2656.5,-642.5 2522.5,-642.5"/>
<text text-anchor="start" x="2525.5" y="-650.3" font-family="Times,serif" font-weight="bold" font-size="14.00">JarParseCatalog</text>
<polygon fill="none" stroke="black" points="2521.5,-642 2521.5,-665 2657.5,-665 2657.5,-642 2521.5,-642"/>
</g>
<!-- JarParseCatalog&#45;&gt;ParseCatalog -->
<g id="edge16" class="edge">
<title>JarParseCatalog&#45;&gt;ParseCatalog</title>
<path fill="none" stroke="black" d="M2598.59,-635.32C2610.05,-613.65 2630.22,-575.53 2646.44,-544.86"/>
<polygon fill="none" stroke="black" points="2649.54,-546.5 2651.12,-536.02 2643.35,-543.23 2649.54,-546.5"/>
</g>
<!-- ViewDefinitionParseCatalog -->
<g id="node22" class="node">
<title>ViewDefinitionParseCatalog</title>
<polygon fill="none" stroke="black" points="2692.5,-642.5 2692.5,-663.5 2918.5,-663.5 2918.5,-642.5 2692.5,-642.5"/>
<text text-anchor="start" x="2695.5" y="-650.3" font-family="Times,serif" font-weight="bold" font-size="14.00">ViewDefinitionParseCatalog</text>
<polygon fill="none" stroke="black" points="2691.5,-642 2691.5,-665 2919.5,-665 2919.5,-642 2691.5,-642"/>
</g>
<!-- ViewDefinitionParseCatalog&#45;&gt;ParseCatalog -->
<g id="edge18" class="edge">
<title>ViewDefinitionParseCatalog&#45;&gt;ParseCatalog</title>
<path fill="none" stroke="black" stroke-dasharray="5,2" d="M2790.65,-635.32C2771.68,-613.38 2738.11,-574.55 2711.43,-543.68"/>
<polygon fill="black" stroke="black" points="2704.8,-536.02 2714.75,-540.65 2708.07,-539.81 2711.34,-543.59 2711.34,-543.59 2711.34,-543.59 2708.07,-539.81 2707.94,-546.53 2704.8,-536.02 2704.8,-536.02"/>
</g>
<!-- Parameter -->
<g id="node23" class="node">
<title>Parameter</title>
<polygon fill="none" stroke="black" points="3298.5,-694.5 3298.5,-715.5 3434.5,-715.5 3434.5,-694.5 3298.5,-694.5"/>
<text text-anchor="start" x="3324.5" y="-702.3" font-family="Times,serif" font-weight="bold" font-size="14.00">Parameter</text>
<polygon fill="none" stroke="black" points="3298.5,-590.5 3298.5,-694.5 3434.5,-694.5 3434.5,-590.5 3298.5,-590.5"/>
<text text-anchor="start" x="3328.5" y="-681.3" font-family="Times,serif" font-style="italic" font-size="14.00">Properties</text>
<text text-anchor="start" x="3301.5" y="-667.3" font-family="Times,serif" font-size="14.00">description:String</text>
<text text-anchor="start" x="3301.5" y="-653.3" font-family="Times,serif" font-size="14.00">label:String</text>
<text text-anchor="start" x="3301.5" y="-639.3" font-family="Times,serif" font-size="14.00">id:String</text>
<text text-anchor="start" x="3301.5" y="-625.3" font-family="Times,serif" font-size="14.00">value:String</text>
<text text-anchor="start" x="3301.5" y="-611.3" font-family="Times,serif" font-size="14.00">default:String</text>
<text text-anchor="start" x="3301.5" y="-597.3" font-family="Times,serif" font-size="14.00">type:String</text>
<polygon fill="none" stroke="black" points="3297.5,-590 3297.5,-717 3435.5,-717 3435.5,-590 3297.5,-590"/>
</g>
<!-- Step&#45;&gt;Metadata -->
<g id="edge19" class="edge">
<title>Step&#45;&gt;Metadata</title>
<path fill="none" stroke="black" d="M648.87,-178.71C803.39,-145.99 1076.57,-88.14 1202.07,-61.57"/>
<polygon fill="none" stroke="black" points="1202.88,-64.97 1211.93,-59.48 1201.43,-58.13 1202.88,-64.97"/>
</g>
<!-- ViewDefinition&#45;&gt;Metadata -->
<g id="edge20" class="edge">
<title>ViewDefinition&#45;&gt;Metadata</title>
<path fill="none" stroke="black" d="M1268.5,-149.59C1268.5,-134.7 1268.5,-118.45 1268.5,-103.39"/>
<polygon fill="none" stroke="black" points="1272,-103.19 1268.5,-93.19 1265,-103.19 1272,-103.19"/>
</g>
<!-- ViewDefinitionConstraint -->
<g id="node26" class="node">
<title>ViewDefinitionConstraint</title>
<polygon fill="none" stroke="black" points="931.5,-380.5 931.5,-401.5 1157.5,-401.5 1157.5,-380.5 931.5,-380.5"/>
<text text-anchor="start" x="944" y="-388.3" font-family="Times,serif" font-weight="bold" font-size="14.00">ViewDefinitionConstraint</text>
<polygon fill="none" stroke="black" points="931.5,-318.5 931.5,-380.5 1157.5,-380.5 1157.5,-318.5 931.5,-318.5"/>
<text text-anchor="start" x="1006.5" y="-367.3" font-family="Times,serif" font-style="italic" font-size="14.00">Properties</text>
<text text-anchor="start" x="934.5" y="-353.3" font-family="Times,serif" font-size="14.00">mandatory:boolean</text>
<text text-anchor="start" x="934.5" y="-339.3" font-family="Times,serif" font-size="14.00">operation:ConstraintOperation</text>
<text text-anchor="start" x="934.5" y="-325.3" font-family="Times,serif" font-size="14.00">parameter:String</text>
<polygon fill="none" stroke="black" points="930.5,-318 930.5,-403 1158.5,-403 1158.5,-318 930.5,-318"/>
</g>
<!-- ViewDefinitionConstraint&#45;&gt;ViewDefinition -->
<g id="edge21" class="edge">
<title>ViewDefinitionConstraint&#45;&gt;ViewDefinition</title>
<path fill="none" stroke="black" d="M1110.5,-313.83C1132.97,-298.28 1158.43,-280.67 1182.25,-264.18"/>
<polygon fill="black" stroke="black" points="1182.47,-264.03 1185.13,-257.32 1192.34,-257.2 1189.68,-263.9 1182.47,-264.03"/>
<text text-anchor="middle" x="1096.5" y="-302.63" font-family="Times,serif" font-size="14.00">0..n</text>
</g>
<!-- DeploymentGeneratorService -->
<g id="node27" class="node">
<title>DeploymentGeneratorService</title>
<polygon fill="none" stroke="black" points="9.5,-373.5 9.5,-394.5 374.5,-394.5 374.5,-373.5 9.5,-373.5"/>
<text text-anchor="start" x="76" y="-381.3" font-family="Times,serif" font-weight="bold" font-size="14.00">DeploymentGeneratorService</text>
<polygon fill="none" stroke="black" points="9.5,-325.5 9.5,-373.5 374.5,-373.5 374.5,-325.5 9.5,-325.5"/>
<text text-anchor="start" x="160.5" y="-360.3" font-family="Times,serif" font-style="italic" font-size="14.00">Methods</text>
<text text-anchor="start" x="12.5" y="-346.3" font-family="Times,serif" font-size="14.00">parse(&lt;String&gt; name, &lt;List[Step]&gt; steps):String</text>
<text text-anchor="start" x="12.5" y="-332.3" font-family="Times,serif" font-size="14.00">appliesTo(&lt;List[Step]&gt; steps):boolean</text>
<polygon fill="none" stroke="black" points="8,-325 8,-396 375,-396 375,-325 8,-325"/>
</g>
<!-- DeploymentGeneratorService&#45;&gt;Step -->
<g id="edge22" class="edge">
<title>DeploymentGeneratorService&#45;&gt;Step</title>
<path fill="none" stroke="black" stroke-dasharray="5,2" d="M277.22,-320.99C318.86,-302.28 369.61,-279.48 415.14,-259.02"/>
<polygon fill="black" stroke="black" points="424.47,-254.83 417.19,-263.03 419.91,-256.88 415.35,-258.93 415.35,-258.93 415.35,-258.93 419.91,-256.88 413.5,-254.83 424.47,-254.83 424.47,-254.83"/>
</g>
</g>
</svg>
