<?xml version="1.0" encoding="UTF-8" standalone="no"?>
<!DOCTYPE svg PUBLIC "-//W3C//DTD SVG 1.1//EN"
 "http://www.w3.org/Graphics/SVG/1.1/DTD/svg11.dtd">
<!-- Generated by graphviz version 2.43.0 (0)
 -->
<!-- Title: ClassDiagram Pages: 1 -->
<svg width="4646pt" height="784pt"
 viewBox="0.00 0.00 4646.00 784.00" xmlns="http://www.w3.org/2000/svg" xmlns:xlink="http://www.w3.org/1999/xlink">
<g id="graph0" class="graph" transform="scale(1 1) rotate(0) translate(4 780)">
<title>ClassDiagram</title>
<polygon fill="white" stroke="transparent" points="-4,4 -4,-780 4642,-780 4642,4 -4,4"/>
<!-- CapabilitiesResource -->
<g id="node1" class="node">
<title>CapabilitiesResource</title>
<polygon fill="none" stroke="black" points="9,-508.5 9,-529.5 183,-529.5 183,-508.5 9,-508.5"/>
<text text-anchor="start" x="12" y="-516.3" font-family="Times,serif" font-weight="bold" font-size="14.00">CapabilitiesResource</text>
<polygon fill="none" stroke="black" points="9,-474.5 9,-508.5 183,-508.5 183,-474.5 9,-474.5"/>
<text text-anchor="start" x="64.5" y="-495.3" font-family="Times,serif" font-style="italic" font-size="14.00">Methods</text>
<text text-anchor="start" x="25" y="-481.3" font-family="Times,serif" font-size="14.00">getAll():Capabilities</text>
<polygon fill="none" stroke="black" points="8,-474 8,-531 184,-531 184,-474 8,-474"/>
</g>
<!-- LanguageService -->
<g id="node2" class="node">
<title>LanguageService</title>
<text text-anchor="middle" x="96" y="-676.8" font-family="Times,serif" font-size="14.00">LanguageService</text>
</g>
<!-- LanguageService&#45;&gt;CapabilitiesResource -->
<g id="edge1" class="edge">
<title>LanguageService&#45;&gt;CapabilitiesResource</title>
<path fill="none" stroke="black" d="M96,-662.3C96,-635.88 96,-584.46 96,-547.28"/>
<polygon fill="black" stroke="black" points="96,-547.27 92,-541.27 96,-535.27 100,-541.27 96,-547.27"/>
<text text-anchor="middle" x="82" y="-651.1" font-family="Times,serif" font-size="14.00">0..1</text>
</g>
<!-- DeploymentsResource -->
<g id="node3" class="node">
<title>DeploymentsResource</title>
<polygon fill="none" stroke="black" points="193,-714.5 193,-735.5 679,-735.5 679,-714.5 193,-714.5"/>
<text text-anchor="start" x="347.5" y="-722.3" font-family="Times,serif" font-weight="bold" font-size="14.00">DeploymentsResource</text>
<polygon fill="none" stroke="black" points="193,-624.5 193,-714.5 679,-714.5 679,-624.5 193,-624.5"/>
<text text-anchor="start" x="404.5" y="-701.3" font-family="Times,serif" font-style="italic" font-size="14.00">Methods</text>
<text text-anchor="start" x="196" y="-687.3" font-family="Times,serif" font-size="14.00">all(&lt;String&gt; namespace):String</text>
<text text-anchor="start" x="196" y="-673.3" font-family="Times,serif" font-size="14.00">start(&lt;String&gt; crd, &lt;String&gt; namespace, &lt;String&gt; name):String</text>
<text text-anchor="start" x="196" y="-659.3" font-family="Times,serif" font-size="14.00">get(&lt;String&gt; name, &lt;String&gt; type, &lt;String&gt; namespace):String</text>
<text text-anchor="start" x="196" y="-645.3" font-family="Times,serif" font-size="14.00">stop(&lt;String&gt; name, &lt;String&gt; type, &lt;String&gt; namespace):String</text>
<text text-anchor="start" x="196" y="-631.3" font-family="Times,serif" font-size="14.00">logs(&lt;String&gt; name, &lt;String&gt; namespace):String</text>
<polygon fill="none" stroke="black" points="192,-624 192,-737 680,-737 680,-624 192,-624"/>
</g>
<!-- IntegrationsResource -->
<g id="node4" class="node">
<title>IntegrationsResource</title>
<polygon fill="none" stroke="black" points="600,-522.5 600,-543.5 968,-543.5 968,-522.5 600,-522.5"/>
<text text-anchor="start" x="697.5" y="-530.3" font-family="Times,serif" font-weight="bold" font-size="14.00">IntegrationsResource</text>
<polygon fill="none" stroke="black" points="600,-460.5 600,-522.5 968,-522.5 968,-460.5 600,-460.5"/>
<text text-anchor="start" x="752.5" y="-509.3" font-family="Times,serif" font-style="italic" font-size="14.00">Methods</text>
<text text-anchor="start" x="603" y="-495.3" font-family="Times,serif" font-size="14.00">crd(&lt;String&gt; dsl, &lt;Integration&gt; integration):Map</text>
<text text-anchor="start" x="603" y="-481.3" font-family="Times,serif" font-size="14.00">integration(&lt;String&gt; dsl, &lt;String&gt; crd):Map</text>
<text text-anchor="start" x="603" y="-467.3" font-family="Times,serif" font-size="14.00">compatibleDSL(&lt;List[Step]&gt; steps):Map</text>
<polygon fill="none" stroke="black" points="599,-460 599,-545 969,-545 969,-460 599,-460"/>
</g>
<!-- DeploymentService -->
<g id="node5" class="node">
<title>DeploymentService</title>
<text text-anchor="middle" x="784" y="-676.8" font-family="Times,serif" font-size="14.00">DeploymentService</text>
</g>
<!-- DeploymentService&#45;&gt;IntegrationsResource -->
<g id="edge2" class="edge">
<title>DeploymentService&#45;&gt;IntegrationsResource</title>
<path fill="none" stroke="black" d="M784,-662.3C784,-639.09 784,-596.59 784,-561.39"/>
<polygon fill="black" stroke="black" points="784,-561.29 780,-555.29 784,-549.29 788,-555.29 784,-561.29"/>
<text text-anchor="middle" x="770" y="-651.1" font-family="Times,serif" font-size="14.00">0..1</text>
</g>
<!-- StepResource -->
<g id="node6" class="node">
<title>StepResource</title>
<polygon fill="none" stroke="black" points="889,-700.5 889,-721.5 1361,-721.5 1361,-700.5 889,-700.5"/>
<text text-anchor="start" x="1070.5" y="-708.3" font-family="Times,serif" font-weight="bold" font-size="14.00">StepResource</text>
<polygon fill="none" stroke="black" points="889,-638.5 889,-700.5 1361,-700.5 1361,-638.5 889,-638.5"/>
<text text-anchor="start" x="1093.5" y="-687.3" font-family="Times,serif" font-style="italic" font-size="14.00">Methods</text>
<text text-anchor="start" x="892" y="-673.3" font-family="Times,serif" font-size="14.00">allSteps(&lt;String&gt; type, &lt;String&gt; dsl, &lt;String&gt; kind):List[Step]</text>
<text text-anchor="start" x="892" y="-659.3" font-family="Times,serif" font-size="14.00">stepById(&lt;String&gt; id):Step</text>
<text text-anchor="start" x="892" y="-645.3" font-family="Times,serif" font-size="14.00">stepsByName(&lt;String&gt; name):List[Step]</text>
<polygon fill="none" stroke="black" points="888,-638 888,-723 1362,-723 1362,-638 888,-638"/>
</g>
<!-- StepCatalog -->
<g id="node7" class="node">
<title>StepCatalog</title>
<polygon fill="none" stroke="black" points="1074,-491.5 1074,-512.5 1176,-512.5 1176,-491.5 1074,-491.5"/>
<text text-anchor="start" x="1077" y="-499.3" font-family="Times,serif" font-weight="bold" font-size="14.00">StepCatalog</text>
<polygon fill="none" stroke="black" points="1073,-491 1073,-514 1177,-514 1177,-491 1073,-491"/>
</g>
<!-- StepResource&#45;&gt;StepCatalog -->
<g id="edge3" class="edge">
<title>StepResource&#45;&gt;StepCatalog</title>
<path fill="none" stroke="black" stroke-dasharray="5,2" d="M1125,-633.72C1125,-600.99 1125,-558.05 1125,-530.61"/>
<polygon fill="black" stroke="black" points="1125,-520.56 1129.5,-530.56 1125,-525.56 1125,-530.56 1125,-530.56 1125,-530.56 1125,-525.56 1120.5,-530.56 1125,-520.56 1125,-520.56"/>
</g>
<!-- AbstractCatalog -->
<g id="node11" class="node">
<title>AbstractCatalog</title>
<polygon fill="none" stroke="black" points="1139,-393.5 1139,-414.5 1417,-414.5 1417,-393.5 1139,-393.5"/>
<text text-anchor="start" x="1214.5" y="-401.3" font-family="Times,serif" font-weight="bold" font-size="14.00">AbstractCatalog</text>
<polygon fill="none" stroke="black" points="1139,-317.5 1139,-393.5 1417,-393.5 1417,-317.5 1139,-317.5"/>
<text text-anchor="start" x="1246.5" y="-380.3" font-family="Times,serif" font-style="italic" font-size="14.00">Methods</text>
<text text-anchor="start" x="1142" y="-366.3" font-family="Times,serif" font-size="14.00">waitForWarmUp():CompletableFuture</text>
<text text-anchor="start" x="1142" y="-352.3" font-family="Times,serif" font-size="14.00">loadParsers():List[ParseCatalog]</text>
<text text-anchor="start" x="1142" y="-338.3" font-family="Times,serif" font-size="14.00">warmUpCatalog():</text>
<text text-anchor="start" x="1142" y="-324.3" font-family="Times,serif" font-size="14.00">refresh():</text>
<polygon fill="none" stroke="black" points="1138,-317 1138,-416 1418,-416 1418,-317 1138,-317"/>
</g>
<!-- StepCatalog&#45;&gt;AbstractCatalog -->
<g id="edge6" class="edge">
<title>StepCatalog&#45;&gt;AbstractCatalog</title>
<path fill="none" stroke="black" d="M1144.69,-484.26C1161.37,-469.65 1186.3,-447.82 1210.1,-426.97"/>
<polygon fill="none" stroke="black" points="1212.56,-429.46 1217.78,-420.24 1207.95,-424.2 1212.56,-429.46"/>
</g>
<!-- ViewDefinitionResource -->
<g id="node8" class="node">
<title>ViewDefinitionResource</title>
<polygon fill="none" stroke="black" points="1951,-508.5 1951,-529.5 2419,-529.5 2419,-508.5 1951,-508.5"/>
<text text-anchor="start" x="2090" y="-516.3" font-family="Times,serif" font-weight="bold" font-size="14.00">ViewDefinitionResource</text>
<polygon fill="none" stroke="black" points="1951,-474.5 1951,-508.5 2419,-508.5 2419,-474.5 1951,-474.5"/>
<text text-anchor="start" x="2153.5" y="-495.3" font-family="Times,serif" font-style="italic" font-size="14.00">Methods</text>
<text text-anchor="start" x="1954" y="-481.3" font-family="Times,serif" font-size="14.00">viewsPerStepList:(&lt;Step[]&gt; DeploymentResourceYamlRequest):</text>
<polygon fill="none" stroke="black" points="1950,-474 1950,-531 2420,-531 2420,-474 1950,-474"/>
</g>
<!-- ViewDefinitionService -->
<g id="node9" class="node">
<title>ViewDefinitionService</title>
<text text-anchor="middle" x="2185" y="-676.8" font-family="Times,serif" font-size="14.00">ViewDefinitionService</text>
</g>
<!-- ViewDefinitionService&#45;&gt;ViewDefinitionResource -->
<g id="edge4" class="edge">
<title>ViewDefinitionService&#45;&gt;ViewDefinitionResource</title>
<path fill="none" stroke="black" d="M2185,-662.3C2185,-635.88 2185,-584.46 2185,-547.28"/>
<polygon fill="black" stroke="black" points="2185,-547.27 2181,-541.27 2185,-535.27 2189,-541.27 2185,-547.27"/>
<text text-anchor="middle" x="2171" y="-651.1" font-family="Times,serif" font-size="14.00">0..1</text>
</g>
<!-- CamelRoute -->
<g id="node10" class="node">
<title>CamelRoute</title>
<polygon fill="none" stroke="black" points="3279,-669.5 3279,-690.5 3382,-690.5 3382,-669.5 3279,-669.5"/>
<text text-anchor="start" x="3282" y="-677.3" font-family="Times,serif" font-weight="bold" font-size="14.00">CamelRoute</text>
<polygon fill="none" stroke="black" points="3277.5,-669 3277.5,-692 3382.5,-692 3382.5,-669 3277.5,-669"/>
</g>
<!-- MetadataCatalog -->
<g id="node12" class="node">
<title>MetadataCatalog</title>
<polygon fill="none" stroke="black" points="1352,-208.5 1352,-229.5 1700,-229.5 1700,-208.5 1352,-208.5"/>
<text text-anchor="start" x="1458" y="-216.3" font-family="Times,serif" font-weight="bold" font-size="14.00">MetadataCatalog</text>
<polygon fill="none" stroke="black" points="1352,-118.5 1352,-208.5 1700,-208.5 1700,-118.5 1352,-118.5"/>
<text text-anchor="start" x="1494.5" y="-195.3" font-family="Times,serif" font-style="italic" font-size="14.00">Methods</text>
<text text-anchor="start" x="1355" y="-181.3" font-family="Times,serif" font-size="14.00">searchStepByID(&lt;String&gt; id):Metadata</text>
<text text-anchor="start" x="1355" y="-167.3" font-family="Times,serif" font-size="14.00">searchByName(&lt;String&gt; name):List[Metadata]</text>
<text text-anchor="start" x="1355" y="-153.3" font-family="Times,serif" font-size="14.00">store(&lt;List[Step]&gt; steps):boolean</text>
<text text-anchor="start" x="1355" y="-139.3" font-family="Times,serif" font-size="14.00">getAll():List[Metadata]</text>
<text text-anchor="start" x="1355" y="-125.3" font-family="Times,serif" font-size="14.00">clear():void</text>
<polygon fill="none" stroke="black" points="1351,-118 1351,-231 1701,-231 1701,-118 1351,-118"/>
</g>
<!-- AbstractCatalog&#45;&gt;MetadataCatalog -->
<g id="edge5" class="edge">
<title>AbstractCatalog&#45;&gt;MetadataCatalog</title>
<path fill="none" stroke="black" stroke-dasharray="5,2" d="M1346.75,-312.83C1375.57,-290.75 1409.39,-264.84 1439.85,-241.5"/>
<polygon fill="black" stroke="black" points="1447.92,-235.32 1442.72,-244.97 1443.96,-238.36 1439.99,-241.4 1439.99,-241.4 1439.99,-241.4 1443.96,-238.36 1437.25,-237.83 1447.92,-235.32 1447.92,-235.32"/>
</g>
<!-- Metadata -->
<g id="node19" class="node">
<title>Metadata</title>
<text text-anchor="middle" x="1526" y="-14.3" font-family="Times,serif" font-size="14.00">Metadata</text>
</g>
<!-- MetadataCatalog&#45;&gt;Metadata -->
<g id="edge10" class="edge">
<title>MetadataCatalog&#45;&gt;Metadata</title>
<path fill="none" stroke="black" stroke-dasharray="5,2" d="M1526,-113.77C1526,-90.48 1526,-64.96 1526,-46.27"/>
<polygon fill="black" stroke="black" points="1526,-36.13 1530.5,-46.13 1526,-41.13 1526,-46.13 1526,-46.13 1526,-46.13 1526,-41.13 1521.5,-46.13 1526,-36.13 1526,-36.13"/>
</g>
<!-- StepCatalogParser -->
<g id="node13" class="node">
<title>StepCatalogParser</title>
<polygon fill="none" stroke="black" points="2670,-386.5 2670,-407.5 3055,-407.5 3055,-386.5 2670,-386.5"/>
<text text-anchor="start" x="2788.5" y="-394.3" font-family="Times,serif" font-weight="bold" font-size="14.00">StepCatalogParser</text>
<polygon fill="none" stroke="black" points="2670,-324.5 2670,-386.5 3055,-386.5 3055,-324.5 2670,-324.5"/>
<text text-anchor="start" x="2831" y="-373.3" font-family="Times,serif" font-style="italic" font-size="14.00">Methods</text>
<text text-anchor="start" x="2673" y="-359.3" font-family="Times,serif" font-size="14.00">getParser(&lt;String&gt; url, &lt;String&gt; tag):ParseCatalog</text>
<text text-anchor="start" x="2673" y="-345.3" font-family="Times,serif" font-size="14.00">getParserFromCluster():ParseCatalog</text>
<text text-anchor="start" x="2673" y="-331.3" font-family="Times,serif" font-size="14.00">getLocalFolder(&lt;Path&gt; path):ParseCatalog</text>
<polygon fill="none" stroke="black" points="2668.5,-324 2668.5,-409 3055.5,-409 3055.5,-324 2668.5,-324"/>
</g>
<!-- ViewDefinitionCatalog -->
<g id="node14" class="node">
<title>ViewDefinitionCatalog</title>
<polygon fill="none" stroke="black" points="1212,-491.5 1212,-512.5 1394,-512.5 1394,-491.5 1212,-491.5"/>
<text text-anchor="start" x="1215" y="-499.3" font-family="Times,serif" font-weight="bold" font-size="14.00">ViewDefinitionCatalog</text>
<polygon fill="none" stroke="black" points="1211,-491 1211,-514 1395,-514 1395,-491 1211,-491"/>
</g>
<!-- ViewDefinitionCatalog&#45;&gt;AbstractCatalog -->
<g id="edge7" class="edge">
<title>ViewDefinitionCatalog&#45;&gt;AbstractCatalog</title>
<path fill="none" stroke="black" d="M1299.78,-484.26C1297.2,-470.41 1293.4,-450.06 1289.7,-430.22"/>
<polygon fill="none" stroke="black" points="1293.11,-429.43 1287.84,-420.24 1286.23,-430.72 1293.11,-429.43"/>
</g>
<!-- KameletParseCatalog -->
<g id="node15" class="node">
<title>KameletParseCatalog</title>
<polygon fill="none" stroke="black" points="2774,-491.5 2774,-512.5 2951,-512.5 2951,-491.5 2774,-491.5"/>
<text text-anchor="start" x="2777" y="-499.3" font-family="Times,serif" font-weight="bold" font-size="14.00">KameletParseCatalog</text>
<polygon fill="none" stroke="black" points="2772.5,-491 2772.5,-514 2951.5,-514 2951.5,-491 2772.5,-491"/>
</g>
<!-- KameletParseCatalog&#45;&gt;StepCatalogParser -->
<g id="edge8" class="edge">
<title>KameletParseCatalog&#45;&gt;StepCatalogParser</title>
<path fill="none" stroke="black" d="M2862,-484.26C2862,-468.82 2862,-445.3 2862,-423.41"/>
<polygon fill="none" stroke="black" points="2865.5,-423.18 2862,-413.18 2858.5,-423.18 2865.5,-423.18"/>
</g>
<!-- ParseCatalog -->
<g id="node16" class="node">
<title>ParseCatalog</title>
<polygon fill="none" stroke="black" points="3290,-379.5 3290,-400.5 3622,-400.5 3622,-379.5 3290,-379.5"/>
<text text-anchor="start" x="3403.5" y="-387.3" font-family="Times,serif" font-weight="bold" font-size="14.00">ParseCatalog</text>
<polygon fill="none" stroke="black" points="3290,-331.5 3290,-379.5 3622,-379.5 3622,-331.5 3290,-331.5"/>
<text text-anchor="start" x="3424.5" y="-366.3" font-family="Times,serif" font-style="italic" font-size="14.00">Methods</text>
<text text-anchor="start" x="3293" y="-352.3" font-family="Times,serif" font-size="14.00">parse():CompletableFuture[List[T]]</text>
<text text-anchor="start" x="3293" y="-338.3" font-family="Times,serif" font-size="14.00">setFileVisitor(&lt;YamlProcessFile&gt; fileVisitor):</text>
<polygon fill="none" stroke="black" points="3289,-331 3289,-402 3623,-402 3623,-331 3289,-331"/>
</g>
<!-- KameletParseCatalog&#45;&gt;ParseCatalog -->
<g id="edge9" class="edge">
<title>KameletParseCatalog&#45;&gt;ParseCatalog</title>
<path fill="none" stroke="black" stroke-dasharray="5,2" d="M2896.59,-484.29C2916.95,-474.76 2943.45,-463.39 2968,-456 3066.24,-426.42 3178.76,-405.21 3270.97,-390.97"/>
<polygon fill="black" stroke="black" points="3280.97,-389.45 3271.76,-395.41 3276.03,-390.2 3271.08,-390.96 3271.08,-390.96 3271.08,-390.96 3276.03,-390.2 3270.41,-386.51 3280.97,-389.45 3280.97,-389.45"/>
</g>
<!-- Kamelet -->
<g id="node17" class="node">
<title>Kamelet</title>
<polygon fill="none" stroke="black" points="4212,-669.5 4212,-690.5 4285,-690.5 4285,-669.5 4212,-669.5"/>
<text text-anchor="start" x="4215" y="-677.3" font-family="Times,serif" font-weight="bold" font-size="14.00">Kamelet</text>
<polygon fill="none" stroke="black" points="4210.5,-669 4210.5,-692 4285.5,-692 4285.5,-669 4210.5,-669"/>
</g>
<!-- KameletBinding -->
<g id="node18" class="node">
<title>KameletBinding</title>
<polygon fill="none" stroke="black" points="4321,-669.5 4321,-690.5 4457,-690.5 4457,-669.5 4321,-669.5"/>
<text text-anchor="start" x="4324" y="-677.3" font-family="Times,serif" font-weight="bold" font-size="14.00">KameletBinding</text>
<polygon fill="none" stroke="black" points="4320,-669 4320,-692 4458,-692 4458,-669 4320,-669"/>
</g>
<!-- CatalogCollection -->
<g id="node20" class="node">
<title>CatalogCollection</title>
<polygon fill="none" stroke="black" points="1453,-355.5 1453,-376.5 1599,-376.5 1599,-355.5 1453,-355.5"/>
<text text-anchor="start" x="1456" y="-363.3" font-family="Times,serif" font-weight="bold" font-size="14.00">CatalogCollection</text>
<polygon fill="none" stroke="black" points="1452,-355 1452,-378 1600,-378 1600,-355 1452,-355"/>
</g>
<!-- CatalogCollection&#45;&gt;MetadataCatalog -->
<g id="edge11" class="edge">
<title>CatalogCollection&#45;&gt;MetadataCatalog</title>
<path fill="none" stroke="black" d="M1526,-348.3C1526,-325.17 1526,-282.66 1526,-245.59"/>
<polygon fill="none" stroke="black" points="1529.5,-245.3 1526,-235.3 1522.5,-245.3 1529.5,-245.3"/>
</g>
<!-- InMemoryCatalog -->
<g id="node21" class="node">
<title>InMemoryCatalog</title>
<polygon fill="none" stroke="black" points="1635,-355.5 1635,-376.5 1783,-376.5 1783,-355.5 1635,-355.5"/>
<text text-anchor="start" x="1638" y="-363.3" font-family="Times,serif" font-weight="bold" font-size="14.00">InMemoryCatalog</text>
<polygon fill="none" stroke="black" points="1634,-355 1634,-378 1784,-378 1784,-355 1634,-355"/>
</g>
<!-- InMemoryCatalog&#45;&gt;MetadataCatalog -->
<g id="edge12" class="edge">
<title>InMemoryCatalog&#45;&gt;MetadataCatalog</title>
<path fill="none" stroke="black" d="M1692.44,-348.3C1669.59,-324.58 1627.1,-280.47 1590.77,-242.75"/>
<polygon fill="none" stroke="black" points="1593.06,-240.08 1583.6,-235.3 1588.02,-244.93 1593.06,-240.08"/>
</g>
<!-- ReadOnlyCatalog -->
<g id="node22" class="node">
<title>ReadOnlyCatalog</title>
<polygon fill="none" stroke="black" points="1455,-491.5 1455,-512.5 1597,-512.5 1597,-491.5 1455,-491.5"/>
<text text-anchor="start" x="1458" y="-499.3" font-family="Times,serif" font-weight="bold" font-size="14.00">ReadOnlyCatalog</text>
<polygon fill="none" stroke="black" points="1454,-491 1454,-514 1598,-514 1598,-491 1454,-491"/>
</g>
<!-- ReadOnlyCatalog&#45;&gt;CatalogCollection -->
<g id="edge13" class="edge">
<title>ReadOnlyCatalog&#45;&gt;CatalogCollection</title>
<path fill="none" stroke="black" d="M1526,-484.26C1526,-461.64 1526,-421.7 1526,-394.92"/>
<polygon fill="none" stroke="black" points="1529.5,-394.68 1526,-384.68 1522.5,-394.68 1529.5,-394.68"/>
</g>
<!-- ClusterParseCatalog -->
<g id="node23" class="node">
<title>ClusterParseCatalog</title>
<polygon fill="none" stroke="black" points="2987,-491.5 2987,-512.5 3156,-512.5 3156,-491.5 2987,-491.5"/>
<text text-anchor="start" x="2990" y="-499.3" font-family="Times,serif" font-weight="bold" font-size="14.00">ClusterParseCatalog</text>
<polygon fill="none" stroke="black" points="2985.5,-491 2985.5,-514 3156.5,-514 3156.5,-491 2985.5,-491"/>
</g>
<!-- ClusterParseCatalog&#45;&gt;ParseCatalog -->
<g id="edge14" class="edge">
<title>ClusterParseCatalog&#45;&gt;ParseCatalog</title>
<path fill="none" stroke="black" d="M3106.45,-484.46C3125.87,-475.44 3150.51,-464.5 3173,-456 3217.53,-439.17 3266.81,-422.96 3311.6,-409.1"/>
<polygon fill="none" stroke="black" points="3312.86,-412.38 3321.38,-406.09 3310.8,-405.69 3312.86,-412.38"/>
</g>
<!-- EmptyParseCatalog -->
<g id="node24" class="node">
<title>EmptyParseCatalog</title>
<polygon fill="none" stroke="black" points="3192,-491.5 3192,-512.5 3353,-512.5 3353,-491.5 3192,-491.5"/>
<text text-anchor="start" x="3195" y="-499.3" font-family="Times,serif" font-weight="bold" font-size="14.00">EmptyParseCatalog</text>
<polygon fill="none" stroke="black" points="3190.5,-491 3190.5,-514 3353.5,-514 3353.5,-491 3190.5,-491"/>
</g>
<!-- EmptyParseCatalog&#45;&gt;ParseCatalog -->
<g id="edge15" class="edge">
<title>EmptyParseCatalog&#45;&gt;ParseCatalog</title>
<path fill="none" stroke="black" d="M3295.68,-484.26C3320.55,-466.14 3360.69,-436.91 3394.59,-412.23"/>
<polygon fill="none" stroke="black" points="3397.03,-414.77 3403.06,-406.06 3392.91,-409.12 3397.03,-414.77"/>
</g>
<!-- GitParseCatalog -->
<g id="node25" class="node">
<title>GitParseCatalog</title>
<polygon fill="none" stroke="black" points="4060,-491.5 4060,-512.5 4195,-512.5 4195,-491.5 4060,-491.5"/>
<text text-anchor="start" x="4063" y="-499.3" font-family="Times,serif" font-weight="bold" font-size="14.00">GitParseCatalog</text>
<polygon fill="none" stroke="black" points="4058.5,-491 4058.5,-514 4195.5,-514 4195.5,-491 4058.5,-491"/>
</g>
<!-- GitParseCatalog&#45;&gt;ParseCatalog -->
<g id="edge16" class="edge">
<title>GitParseCatalog&#45;&gt;ParseCatalog</title>
<path fill="none" stroke="black" d="M4100.16,-484.28C4083.71,-474.5 4061.86,-462.87 4041,-456 3911.13,-413.2 3758.14,-390.98 3641.2,-379.51"/>
<polygon fill="none" stroke="black" points="3641.35,-376.01 3631.06,-378.53 3640.68,-382.98 3641.35,-376.01"/>
</g>
<!-- YamlProcessFile -->
<g id="node26" class="node">
<title>YamlProcessFile</title>
<text text-anchor="middle" x="4127" y="-362.8" font-family="Times,serif" font-size="14.00">YamlProcessFile</text>
</g>
<!-- GitParseCatalog&#45;&gt;YamlProcessFile -->
<g id="edge17" class="edge">
<title>GitParseCatalog&#45;&gt;YamlProcessFile</title>
<path fill="none" stroke="black" stroke-dasharray="5,2" d="M4127,-484.26C4127,-461.64 4127,-421.7 4127,-394.92"/>
<polygon fill="black" stroke="black" points="4127,-384.68 4131.5,-394.68 4127,-389.68 4127,-394.68 4127,-394.68 4127,-394.68 4127,-389.68 4122.5,-394.68 4127,-384.68 4127,-384.68"/>
</g>
<!-- JarParseCatalog -->
<g id="node27" class="node">
<title>JarParseCatalog</title>
<polygon fill="none" stroke="black" points="3389,-491.5 3389,-512.5 3523,-512.5 3523,-491.5 3389,-491.5"/>
<text text-anchor="start" x="3392" y="-499.3" font-family="Times,serif" font-weight="bold" font-size="14.00">JarParseCatalog</text>
<polygon fill="none" stroke="black" points="3388,-491 3388,-514 3524,-514 3524,-491 3388,-491"/>
</g>
<!-- JarParseCatalog&#45;&gt;ParseCatalog -->
<g id="edge18" class="edge">
<title>JarParseCatalog&#45;&gt;ParseCatalog</title>
<path fill="none" stroke="black" d="M3456,-484.26C3456,-467.14 3456,-440.09 3456,-416.34"/>
<polygon fill="none" stroke="black" points="3459.5,-416.06 3456,-406.06 3452.5,-416.06 3459.5,-416.06"/>
</g>
<!-- LocalFolderParseCatalog -->
<g id="node28" class="node">
<title>LocalFolderParseCatalog</title>
<polygon fill="none" stroke="black" points="3559,-491.5 3559,-512.5 3761,-512.5 3761,-491.5 3559,-491.5"/>
<text text-anchor="start" x="3562" y="-499.3" font-family="Times,serif" font-weight="bold" font-size="14.00">LocalFolderParseCatalog</text>
<polygon fill="none" stroke="black" points="3558,-491 3558,-514 3762,-514 3762,-491 3558,-491"/>
</g>
<!-- LocalFolderParseCatalog&#45;&gt;ParseCatalog -->
<g id="edge19" class="edge">
<title>LocalFolderParseCatalog&#45;&gt;ParseCatalog</title>
<path fill="none" stroke="black" d="M3633.75,-484.26C3605.94,-465.99 3560.91,-436.41 3523.14,-411.6"/>
<polygon fill="none" stroke="black" points="3524.98,-408.62 3514.7,-406.06 3521.14,-414.47 3524.98,-408.62"/>
</g>
<!-- ProcessFile -->
<g id="node29" class="node">
<title>ProcessFile</title>
<polygon fill="none" stroke="black" points="4079,-669.5 4079,-690.5 4176,-690.5 4176,-669.5 4079,-669.5"/>
<text text-anchor="start" x="4082" y="-677.3" font-family="Times,serif" font-weight="bold" font-size="14.00">ProcessFile</text>
<polygon fill="none" stroke="black" points="4077.5,-669 4077.5,-692 4176.5,-692 4176.5,-669 4077.5,-669"/>
</g>
<!-- ProcessFile&#45;&gt;GitParseCatalog -->
<g id="edge20" class="edge">
<title>ProcessFile&#45;&gt;GitParseCatalog</title>
<path fill="none" stroke="black" stroke-dasharray="5,2" d="M4127,-662.3C4127,-631.73 4127,-567.69 4127,-530.96"/>
<polygon fill="black" stroke="black" points="4127,-520.51 4131.5,-530.51 4127,-525.51 4127,-530.51 4127,-530.51 4127,-530.51 4127,-525.51 4122.5,-530.51 4127,-520.51 4127,-520.51"/>
</g>
<!-- ViewDefinitionParseCatalog -->
<g id="node30" class="node">
<title>ViewDefinitionParseCatalog</title>
<polygon fill="none" stroke="black" points="3797,-491.5 3797,-512.5 4023,-512.5 4023,-491.5 3797,-491.5"/>
<text text-anchor="start" x="3800" y="-499.3" font-family="Times,serif" font-weight="bold" font-size="14.00">ViewDefinitionParseCatalog</text>
<polygon fill="none" stroke="black" points="3796,-491 3796,-514 4024,-514 4024,-491 3796,-491"/>
</g>
<!-- ViewDefinitionParseCatalog&#45;&gt;ParseCatalog -->
<g id="edge21" class="edge">
<title>ViewDefinitionParseCatalog&#45;&gt;ParseCatalog</title>
<path fill="none" stroke="black" stroke-dasharray="5,2" d="M3863.26,-484.42C3838.37,-475.53 3807.17,-464.74 3779,-456 3725.81,-439.5 3667.2,-422.95 3614.68,-408.71"/>
<polygon fill="black" stroke="black" points="3604.94,-406.08 3615.77,-404.34 3609.77,-407.38 3614.6,-408.69 3614.6,-408.69 3614.6,-408.69 3609.77,-407.38 3613.42,-413.03 3604.94,-406.08 3604.94,-406.08"/>
</g>
<!-- Parameter -->
<g id="node31" class="node">
<title>Parameter</title>
<polygon fill="none" stroke="black" points="4493,-749.5 4493,-770.5 4629,-770.5 4629,-749.5 4493,-749.5"/>
<text text-anchor="start" x="4519" y="-757.3" font-family="Times,serif" font-weight="bold" font-size="14.00">Parameter</text>
<polygon fill="none" stroke="black" points="4493,-589.5 4493,-749.5 4629,-749.5 4629,-589.5 4493,-589.5"/>
<text text-anchor="start" x="4523" y="-736.3" font-family="Times,serif" font-style="italic" font-size="14.00">Properties</text>
<text text-anchor="start" x="4496" y="-722.3" font-family="Times,serif" font-size="14.00">description:String</text>
<text text-anchor="start" x="4496" y="-708.3" font-family="Times,serif" font-size="14.00">title:String</text>
<text text-anchor="start" x="4496" y="-694.3" font-family="Times,serif" font-size="14.00">id:String</text>
<text text-anchor="start" x="4496" y="-680.3" font-family="Times,serif" font-size="14.00">value:Object</text>
<text text-anchor="start" x="4496" y="-666.3" font-family="Times,serif" font-size="14.00">default:Object</text>
<text text-anchor="start" x="4496" y="-652.3" font-family="Times,serif" font-size="14.00">type:String</text>
<text text-anchor="start" x="4496" y="-638.3" font-family="Times,serif" font-size="14.00">path:Boolean</text>
<text text-anchor="start" x="4496" y="-624.3" font-family="Times,serif" font-size="14.00">nullable:Boolean</text>
<text text-anchor="start" x="4496" y="-610.3" font-family="Times,serif" font-size="14.00">enum:Object[]</text>
<text text-anchor="start" x="4496" y="-596.3" font-family="Times,serif" font-size="14.00">examples:Object[]</text>
<polygon fill="none" stroke="black" points="4492,-589 4492,-772 4630,-772 4630,-589 4492,-589"/>
</g>
<!-- Step -->
<g id="node32" class="node">
<title>Step</title>
<polygon fill="none" stroke="black" points="991,-250.5 991,-271.5 1197,-271.5 1197,-250.5 991,-250.5"/>
<text text-anchor="start" x="1076" y="-258.3" font-family="Times,serif" font-weight="bold" font-size="14.00">Step</text>
<polygon fill="none" stroke="black" points="991,-76.5 991,-250.5 1197,-250.5 1197,-76.5 991,-76.5"/>
<text text-anchor="start" x="1056" y="-237.3" font-family="Times,serif" font-style="italic" font-size="14.00">Properties</text>
<text text-anchor="start" x="994" y="-223.3" font-family="Times,serif" font-size="14.00">description:String</text>
<text text-anchor="start" x="994" y="-209.3" font-family="Times,serif" font-size="14.00">title:String</text>
<text text-anchor="start" x="994" y="-195.3" font-family="Times,serif" font-size="14.00">parameters:List[Parameter]</text>
<text text-anchor="start" x="994" y="-181.3" font-family="Times,serif" font-size="14.00">icon:String</text>
<text text-anchor="start" x="994" y="-167.3" font-family="Times,serif" font-size="14.00">UUID:String</text>
<text text-anchor="start" x="994" y="-153.3" font-family="Times,serif" font-size="14.00">required:String[]</text>
<text text-anchor="start" x="994" y="-139.3" font-family="Times,serif" font-size="14.00">group:String</text>
<text text-anchor="start" x="994" y="-125.3" font-family="Times,serif" font-size="14.00">kind:String</text>
<text text-anchor="start" x="994" y="-111.3" font-family="Times,serif" font-size="14.00">branches:Branch[]</text>
<text text-anchor="start" x="994" y="-97.3" font-family="Times,serif" font-size="14.00">minBranches:Integer</text>
<text text-anchor="start" x="994" y="-83.3" font-family="Times,serif" font-size="14.00">maxBranches:Integer</text>
<polygon fill="none" stroke="black" points="990,-76 990,-273 1198,-273 1198,-76 990,-76"/>
</g>
<!-- Step&#45;&gt;Metadata -->
<g id="edge22" class="edge">
<title>Step&#45;&gt;Metadata</title>
<path fill="none" stroke="black" d="M1206.05,-122.53C1245.99,-105.32 1291.59,-86.75 1334,-72 1380.32,-55.89 1434.25,-41.36 1473.14,-31.61"/>
<polygon fill="none" stroke="black" points="1474.32,-34.92 1483.18,-29.11 1472.63,-28.13 1474.32,-34.92"/>
</g>
<!-- ViewDefinition -->
<g id="node33" class="node">
<title>ViewDefinition</title>
<polygon fill="none" stroke="black" points="1755,-201.5 1755,-222.5 2064,-222.5 2064,-201.5 1755,-201.5"/>
<text text-anchor="start" x="1851.5" y="-209.3" font-family="Times,serif" font-weight="bold" font-size="14.00">ViewDefinition</text>
<polygon fill="none" stroke="black" points="1755,-125.5 1755,-201.5 2064,-201.5 2064,-125.5 1755,-125.5"/>
<text text-anchor="start" x="1871.5" y="-188.3" font-family="Times,serif" font-style="italic" font-size="14.00">Properties</text>
<text text-anchor="start" x="1758" y="-174.3" font-family="Times,serif" font-size="14.00">properties:Map[String, String]</text>
<text text-anchor="start" x="1758" y="-160.3" font-family="Times,serif" font-size="14.00">step:Step</text>
<text text-anchor="start" x="1758" y="-146.3" font-family="Times,serif" font-size="14.00">url:String</text>
<text text-anchor="start" x="1758" y="-132.3" font-family="Times,serif" font-size="14.00">constraints:List[ViewDefinitionConstraint]</text>
<polygon fill="none" stroke="black" points="1753.5,-125 1753.5,-224 2064.5,-224 2064.5,-125 1753.5,-125"/>
</g>
<!-- ViewDefinition&#45;&gt;Metadata -->
<g id="edge23" class="edge">
<title>ViewDefinition&#45;&gt;Metadata</title>
<path fill="none" stroke="black" d="M1819.61,-120.79C1788.19,-103.68 1752.19,-85.61 1718,-72 1672.19,-53.76 1617.85,-39.4 1578.69,-30.25"/>
<polygon fill="none" stroke="black" points="1579.35,-26.81 1568.82,-27.98 1577.78,-33.63 1579.35,-26.81"/>
</g>
<!-- ViewDefinitionConstraint -->
<g id="node34" class="node">
<title>ViewDefinitionConstraint</title>
<text text-anchor="middle" x="1909" y="-362.8" font-family="Times,serif" font-size="14.00">ViewDefinitionConstraint</text>
</g>
<!-- ViewDefinitionConstraint&#45;&gt;ViewDefinition -->
<g id="edge24" class="edge">
<title>ViewDefinitionConstraint&#45;&gt;ViewDefinition</title>
<path fill="none" stroke="black" d="M1909,-348.3C1909,-324.07 1909,-278.56 1909,-240.32"/>
<polygon fill="black" stroke="black" points="1909,-240.2 1905,-234.2 1909,-228.2 1913,-234.2 1909,-240.2"/>
<text text-anchor="middle" x="1895" y="-337.1" font-family="Times,serif" font-size="14.00">0..n</text>
</g>
<!-- StepParserService -->
<g id="node35" class="node">
<title>StepParserService</title>
<polygon fill="none" stroke="black" points="848,-393.5 848,-414.5 1103,-414.5 1103,-393.5 848,-393.5"/>
<text text-anchor="start" x="903" y="-401.3" font-family="Times,serif" font-weight="bold" font-size="14.00">StepParserService</text>
<polygon fill="none" stroke="black" points="848,-317.5 848,-393.5 1103,-393.5 1103,-317.5 848,-317.5"/>
<text text-anchor="start" x="944" y="-380.3" font-family="Times,serif" font-style="italic" font-size="14.00">Methods</text>
<text text-anchor="start" x="851" y="-366.3" font-family="Times,serif" font-size="14.00">identifier():String</text>
<text text-anchor="start" x="851" y="-352.3" font-family="Times,serif" font-size="14.00">description():String</text>
<text text-anchor="start" x="851" y="-338.3" font-family="Times,serif" font-size="14.00">parse(&lt;String&gt; yaml):ParseResult</text>
<text text-anchor="start" x="851" y="-324.3" font-family="Times,serif" font-size="14.00">appliesTo(&lt;String&gt; yaml):boolean</text>
<polygon fill="none" stroke="black" points="846.5,-317 846.5,-416 1103.5,-416 1103.5,-317 846.5,-317"/>
</g>
<!-- StepParserService&#45;&gt;Step -->
<g id="edge25" class="edge">
<title>StepParserService&#45;&gt;Step</title>
<path fill="none" stroke="black" stroke-dasharray="5,2" d="M1007.99,-312.83C1013.36,-304.25 1019.1,-295.1 1024.96,-285.74"/>
<polygon fill="black" stroke="black" points="1030.37,-277.1 1028.87,-287.96 1027.71,-281.34 1025.06,-285.57 1025.06,-285.57 1025.06,-285.57 1027.71,-281.34 1021.25,-283.18 1030.37,-277.1 1030.37,-277.1"/>
</g>
<!-- ViewDefinitionParserService -->
<g id="node36" class="node">
<title>ViewDefinitionParserService</title>
<polygon fill="none" stroke="black" points="2035,-386.5 2035,-407.5 2633,-407.5 2633,-386.5 2035,-386.5"/>
<text text-anchor="start" x="2221.5" y="-394.3" font-family="Times,serif" font-weight="bold" font-size="14.00">ViewDefinitionParserService</text>
<polygon fill="none" stroke="black" points="2035,-324.5 2035,-386.5 2633,-386.5 2633,-324.5 2035,-324.5"/>
<text text-anchor="start" x="2302.5" y="-373.3" font-family="Times,serif" font-style="italic" font-size="14.00">Methods</text>
<text text-anchor="start" x="2038" y="-359.3" font-family="Times,serif" font-size="14.00">parse(&lt;List[Step]&gt; steps):List[ViewDefinition]</text>
<text text-anchor="start" x="2038" y="-345.3" font-family="Times,serif" font-size="14.00">getViewsPerStep(&lt;List[Step]&gt; steps, &lt;ViewDefinition&gt; view):List[ViewDefinition]</text>
<text text-anchor="start" x="2038" y="-331.3" font-family="Times,serif" font-size="14.00">appliesTo(&lt;List[Step]&gt; steps, &lt;ViewDefinition&gt; viewDefinition):boolean</text>
<polygon fill="none" stroke="black" points="2034,-324 2034,-409 2634,-409 2634,-324 2034,-324"/>
</g>
<!-- ViewDefinitionParserService&#45;&gt;ViewDefinition -->
<g id="edge26" class="edge">
<title>ViewDefinitionParserService&#45;&gt;ViewDefinition</title>
<path fill="none" stroke="black" stroke-dasharray="5,2" d="M2232.2,-319.99C2173.22,-293.62 2098.45,-260.19 2035.68,-232.13"/>
<polygon fill="black" stroke="black" points="2026.51,-228.04 2037.48,-228.01 2031.08,-230.08 2035.64,-232.12 2035.64,-232.12 2035.64,-232.12 2031.08,-230.08 2033.81,-236.22 2026.51,-228.04 2026.51,-228.04"/>
</g>
</g>
</svg>
