<?xml version="1.0" encoding="UTF-8" standalone="no"?>
<!DOCTYPE svg PUBLIC "-//W3C//DTD SVG 1.1//EN"
 "http://www.w3.org/Graphics/SVG/1.1/DTD/svg11.dtd">
<!-- Generated by graphviz version 2.43.0 (0)
 -->
<!-- Title: ClassDiagram Pages: 1 -->
<svg width="4607pt" height="854pt"
 viewBox="0.00 0.00 4607.00 854.00" xmlns="http://www.w3.org/2000/svg" xmlns:xlink="http://www.w3.org/1999/xlink">
<g id="graph0" class="graph" transform="scale(1 1) rotate(0) translate(4 850)">
<title>ClassDiagram</title>
<polygon fill="white" stroke="transparent" points="-4,4 -4,-850 4603,-850 4603,4 -4,4"/>
<!-- FlowsWrapper -->
<g id="node1" class="node">
<title>FlowsWrapper</title>
<polygon fill="none" stroke="black" points="9,-725.5 9,-746.5 127,-746.5 127,-725.5 9,-725.5"/>
<text text-anchor="start" x="12" y="-733.3" font-family="Times,serif" font-weight="bold" font-size="14.00">FlowsWrapper</text>
<polygon fill="none" stroke="black" points="8,-725 8,-748 128,-748 128,-725 8,-725"/>
</g>
<!-- CapabilitiesResource -->
<g id="node2" class="node">
<title>CapabilitiesResource</title>
<polygon fill="none" stroke="black" points="137,-543.5 137,-564.5 311,-564.5 311,-543.5 137,-543.5"/>
<text text-anchor="start" x="140" y="-551.3" font-family="Times,serif" font-weight="bold" font-size="14.00">CapabilitiesResource</text>
<polygon fill="none" stroke="black" points="137,-509.5 137,-543.5 311,-543.5 311,-509.5 137,-509.5"/>
<text text-anchor="start" x="192.5" y="-530.3" font-family="Times,serif" font-style="italic" font-size="14.00">Methods</text>
<text text-anchor="start" x="153" y="-516.3" font-family="Times,serif" font-size="14.00">getAll():Capabilities</text>
<polygon fill="none" stroke="black" points="136,-509 136,-566 312,-566 312,-509 136,-509"/>
</g>
<!-- LanguageService -->
<g id="node3" class="node">
<title>LanguageService</title>
<text text-anchor="middle" x="224" y="-732.8" font-family="Times,serif" font-size="14.00">LanguageService</text>
</g>
<!-- LanguageService&#45;&gt;CapabilitiesResource -->
<g id="edge1" class="edge">
<title>LanguageService&#45;&gt;CapabilitiesResource</title>
<path fill="none" stroke="black" d="M224,-718.36C224,-688.29 224,-625.13 224,-582.26"/>
<polygon fill="black" stroke="black" points="224,-582.2 220,-576.2 224,-570.2 228,-576.2 224,-582.2"/>
<text text-anchor="middle" x="210" y="-707.16" font-family="Times,serif" font-size="14.00">0..1</text>
</g>
<!-- DeploymentsResource -->
<g id="node4" class="node">
<title>DeploymentsResource</title>
<polygon fill="none" stroke="black" points="321,-770.5 321,-791.5 807,-791.5 807,-770.5 321,-770.5"/>
<text text-anchor="start" x="475.5" y="-778.3" font-family="Times,serif" font-weight="bold" font-size="14.00">DeploymentsResource</text>
<polygon fill="none" stroke="black" points="321,-680.5 321,-770.5 807,-770.5 807,-680.5 321,-680.5"/>
<text text-anchor="start" x="532.5" y="-757.3" font-family="Times,serif" font-style="italic" font-size="14.00">Methods</text>
<text text-anchor="start" x="324" y="-743.3" font-family="Times,serif" font-size="14.00">all(&lt;String&gt; namespace):String</text>
<text text-anchor="start" x="324" y="-729.3" font-family="Times,serif" font-size="14.00">start(&lt;String&gt; crd, &lt;String&gt; namespace, &lt;String&gt; name):String</text>
<text text-anchor="start" x="324" y="-715.3" font-family="Times,serif" font-size="14.00">get(&lt;String&gt; name, &lt;String&gt; type, &lt;String&gt; namespace):String</text>
<text text-anchor="start" x="324" y="-701.3" font-family="Times,serif" font-size="14.00">stop(&lt;String&gt; name, &lt;String&gt; type, &lt;String&gt; namespace):String</text>
<text text-anchor="start" x="324" y="-687.3" font-family="Times,serif" font-size="14.00">logs(&lt;String&gt; name, &lt;String&gt; namespace):String</text>
<polygon fill="none" stroke="black" points="320,-680 320,-793 808,-793 808,-680 320,-680"/>
</g>
<!-- IntegrationsResource -->
<g id="node5" class="node">
<title>IntegrationsResource</title>
<polygon fill="none" stroke="black" points="694,-564.5 694,-585.5 1130,-585.5 1130,-564.5 694,-564.5"/>
<text text-anchor="start" x="825.5" y="-572.3" font-family="Times,serif" font-weight="bold" font-size="14.00">IntegrationsResource</text>
<polygon fill="none" stroke="black" points="694,-488.5 694,-564.5 1130,-564.5 1130,-488.5 694,-488.5"/>
<text text-anchor="start" x="880.5" y="-551.3" font-family="Times,serif" font-style="italic" font-size="14.00">Methods</text>
<text text-anchor="start" x="697" y="-537.3" font-family="Times,serif" font-size="14.00">crd(&lt;String&gt; dsl, &lt;Integration&gt; integration):Map</text>
<text text-anchor="start" x="697" y="-523.3" font-family="Times,serif" font-size="14.00">integration(&lt;String&gt; dsl, &lt;String&gt; crd):Map</text>
<text text-anchor="start" x="697" y="-509.3" font-family="Times,serif" font-size="14.00">compatibleDSL(&lt;List[Step]&gt; steps):Map</text>
<text text-anchor="start" x="697" y="-495.3" font-family="Times,serif" font-size="14.00">CRDs(&lt;String&gt; dsl, &lt;List&lt;Integration&gt;&gt; integration):Map</text>
<polygon fill="none" stroke="black" points="693,-488 693,-587 1131,-587 1131,-488 693,-488"/>
</g>
<!-- DeploymentService -->
<g id="node6" class="node">
<title>DeploymentService</title>
<text text-anchor="middle" x="912" y="-732.8" font-family="Times,serif" font-size="14.00">DeploymentService</text>
</g>
<!-- DeploymentService&#45;&gt;IntegrationsResource -->
<g id="edge2" class="edge">
<title>DeploymentService&#45;&gt;IntegrationsResource</title>
<path fill="none" stroke="black" d="M907.99,-718.36C905.5,-692.91 904.71,-643.77 905.61,-603.28"/>
<polygon fill="black" stroke="black" points="905.62,-603.03 901.79,-596.92 905.95,-591.03 909.78,-597.14 905.62,-603.03"/>
<text text-anchor="middle" x="893.99" y="-707.16" font-family="Times,serif" font-size="14.00">0..1</text>
</g>
<!-- DeploymentService&#45;&gt;IntegrationsResource -->
<g id="edge3" class="edge">
<title>DeploymentService&#45;&gt;IntegrationsResource</title>
<path fill="none" stroke="black" d="M916.01,-718.36C918.5,-692.91 919.29,-643.77 918.39,-603.28"/>
<polygon fill="black" stroke="black" points="918.38,-603.03 914.22,-597.14 918.05,-591.03 922.21,-596.92 918.38,-603.03"/>
<text text-anchor="middle" x="930.01" y="-707.16" font-family="Times,serif" font-size="14.00">0..1</text>
</g>
<!-- StepResource -->
<g id="node7" class="node">
<title>StepResource</title>
<polygon fill="none" stroke="black" points="1017,-756.5 1017,-777.5 1489,-777.5 1489,-756.5 1017,-756.5"/>
<text text-anchor="start" x="1198.5" y="-764.3" font-family="Times,serif" font-weight="bold" font-size="14.00">StepResource</text>
<polygon fill="none" stroke="black" points="1017,-694.5 1017,-756.5 1489,-756.5 1489,-694.5 1017,-694.5"/>
<text text-anchor="start" x="1221.5" y="-743.3" font-family="Times,serif" font-style="italic" font-size="14.00">Methods</text>
<text text-anchor="start" x="1020" y="-729.3" font-family="Times,serif" font-size="14.00">allSteps(&lt;String&gt; type, &lt;String&gt; dsl, &lt;String&gt; kind):List[Step]</text>
<text text-anchor="start" x="1020" y="-715.3" font-family="Times,serif" font-size="14.00">stepById(&lt;String&gt; id):Step</text>
<text text-anchor="start" x="1020" y="-701.3" font-family="Times,serif" font-size="14.00">stepsByName(&lt;String&gt; name):List[Step]</text>
<polygon fill="none" stroke="black" points="1016,-694 1016,-779 1490,-779 1490,-694 1016,-694"/>
</g>
<!-- StepCatalog -->
<g id="node8" class="node">
<title>StepCatalog</title>
<polygon fill="none" stroke="black" points="1202,-526.5 1202,-547.5 1304,-547.5 1304,-526.5 1202,-526.5"/>
<text text-anchor="start" x="1205" y="-534.3" font-family="Times,serif" font-weight="bold" font-size="14.00">StepCatalog</text>
<polygon fill="none" stroke="black" points="1201,-526 1201,-549 1305,-549 1305,-526 1201,-526"/>
</g>
<!-- StepResource&#45;&gt;StepCatalog -->
<g id="edge4" class="edge">
<title>StepResource&#45;&gt;StepCatalog</title>
<path fill="none" stroke="black" stroke-dasharray="5,2" d="M1253,-689.81C1253,-651.58 1253,-598.28 1253,-566.21"/>
<polygon fill="black" stroke="black" points="1253,-555.81 1257.5,-565.81 1253,-560.81 1253,-565.81 1253,-565.81 1253,-565.81 1253,-560.81 1248.5,-565.81 1253,-555.81 1253,-555.81"/>
</g>
<!-- AbstractCatalog -->
<g id="node12" class="node">
<title>AbstractCatalog</title>
<polygon fill="none" stroke="black" points="1267,-414.5 1267,-435.5 1545,-435.5 1545,-414.5 1267,-414.5"/>
<text text-anchor="start" x="1342.5" y="-422.3" font-family="Times,serif" font-weight="bold" font-size="14.00">AbstractCatalog</text>
<polygon fill="none" stroke="black" points="1267,-338.5 1267,-414.5 1545,-414.5 1545,-338.5 1267,-338.5"/>
<text text-anchor="start" x="1374.5" y="-401.3" font-family="Times,serif" font-style="italic" font-size="14.00">Methods</text>
<text text-anchor="start" x="1270" y="-387.3" font-family="Times,serif" font-size="14.00">waitForWarmUp():CompletableFuture</text>
<text text-anchor="start" x="1270" y="-373.3" font-family="Times,serif" font-size="14.00">loadParsers():List[ParseCatalog]</text>
<text text-anchor="start" x="1270" y="-359.3" font-family="Times,serif" font-size="14.00">warmUpCatalog():</text>
<text text-anchor="start" x="1270" y="-345.3" font-family="Times,serif" font-size="14.00">refresh():</text>
<polygon fill="none" stroke="black" points="1266,-338 1266,-437 1546,-437 1546,-338 1266,-338"/>
</g>
<!-- StepCatalog&#45;&gt;AbstractCatalog -->
<g id="edge7" class="edge">
<title>StepCatalog&#45;&gt;AbstractCatalog</title>
<path fill="none" stroke="black" d="M1270.85,-519.23C1288.86,-501.81 1317.72,-473.9 1344.15,-448.33"/>
<polygon fill="none" stroke="black" points="1346.78,-450.66 1351.53,-441.19 1341.91,-445.63 1346.78,-450.66"/>
</g>
<!-- ViewDefinitionResource -->
<g id="node9" class="node">
<title>ViewDefinitionResource</title>
<polygon fill="none" stroke="black" points="1761,-543.5 1761,-564.5 2229,-564.5 2229,-543.5 1761,-543.5"/>
<text text-anchor="start" x="1900" y="-551.3" font-family="Times,serif" font-weight="bold" font-size="14.00">ViewDefinitionResource</text>
<polygon fill="none" stroke="black" points="1761,-509.5 1761,-543.5 2229,-543.5 2229,-509.5 1761,-509.5"/>
<text text-anchor="start" x="1963.5" y="-530.3" font-family="Times,serif" font-style="italic" font-size="14.00">Methods</text>
<text text-anchor="start" x="1764" y="-516.3" font-family="Times,serif" font-size="14.00">viewsPerStepList:(&lt;Step[]&gt; DeploymentResourceYamlRequest):</text>
<polygon fill="none" stroke="black" points="1760,-509 1760,-566 2230,-566 2230,-509 1760,-509"/>
</g>
<!-- ViewDefinitionService -->
<g id="node10" class="node">
<title>ViewDefinitionService</title>
<text text-anchor="middle" x="1995" y="-732.8" font-family="Times,serif" font-size="14.00">ViewDefinitionService</text>
</g>
<!-- ViewDefinitionService&#45;&gt;ViewDefinitionResource -->
<g id="edge5" class="edge">
<title>ViewDefinitionService&#45;&gt;ViewDefinitionResource</title>
<path fill="none" stroke="black" d="M1995,-718.36C1995,-688.29 1995,-625.13 1995,-582.26"/>
<polygon fill="black" stroke="black" points="1995,-582.2 1991,-576.2 1995,-570.2 1999,-576.2 1995,-582.2"/>
<text text-anchor="middle" x="1981" y="-707.16" font-family="Times,serif" font-size="14.00">0..1</text>
</g>
<!-- CamelRoute -->
<g id="node11" class="node">
<title>CamelRoute</title>
<polygon fill="none" stroke="black" points="2171,-725.5 2171,-746.5 2274,-746.5 2274,-725.5 2171,-725.5"/>
<text text-anchor="start" x="2174" y="-733.3" font-family="Times,serif" font-weight="bold" font-size="14.00">CamelRoute</text>
<polygon fill="none" stroke="black" points="2169.5,-725 2169.5,-748 2274.5,-748 2274.5,-725 2169.5,-725"/>
</g>
<!-- MetadataCatalog -->
<g id="node13" class="node">
<title>MetadataCatalog</title>
<polygon fill="none" stroke="black" points="1480,-215.5 1480,-236.5 1828,-236.5 1828,-215.5 1480,-215.5"/>
<text text-anchor="start" x="1586" y="-223.3" font-family="Times,serif" font-weight="bold" font-size="14.00">MetadataCatalog</text>
<polygon fill="none" stroke="black" points="1480,-125.5 1480,-215.5 1828,-215.5 1828,-125.5 1480,-125.5"/>
<text text-anchor="start" x="1622.5" y="-202.3" font-family="Times,serif" font-style="italic" font-size="14.00">Methods</text>
<text text-anchor="start" x="1483" y="-188.3" font-family="Times,serif" font-size="14.00">searchStepByID(&lt;String&gt; id):Metadata</text>
<text text-anchor="start" x="1483" y="-174.3" font-family="Times,serif" font-size="14.00">searchByName(&lt;String&gt; name):List[Metadata]</text>
<text text-anchor="start" x="1483" y="-160.3" font-family="Times,serif" font-size="14.00">store(&lt;List[Step]&gt; steps):boolean</text>
<text text-anchor="start" x="1483" y="-146.3" font-family="Times,serif" font-size="14.00">getAll():List[Metadata]</text>
<text text-anchor="start" x="1483" y="-132.3" font-family="Times,serif" font-size="14.00">clear():void</text>
<polygon fill="none" stroke="black" points="1479,-125 1479,-238 1829,-238 1829,-125 1479,-125"/>
</g>
<!-- AbstractCatalog&#45;&gt;MetadataCatalog -->
<g id="edge6" class="edge">
<title>AbstractCatalog&#45;&gt;MetadataCatalog</title>
<path fill="none" stroke="black" stroke-dasharray="5,2" d="M1469.87,-333.96C1501.49,-307.95 1539.99,-276.28 1573.6,-248.63"/>
<polygon fill="black" stroke="black" points="1581.59,-242.07 1576.72,-251.89 1577.72,-245.24 1573.86,-248.42 1573.86,-248.42 1573.86,-248.42 1577.72,-245.24 1571,-244.94 1581.59,-242.07 1581.59,-242.07"/>
</g>
<!-- Metadata -->
<g id="node21" class="node">
<title>Metadata</title>
<text text-anchor="middle" x="1654" y="-14.3" font-family="Times,serif" font-size="14.00">Metadata</text>
</g>
<!-- MetadataCatalog&#45;&gt;Metadata -->
<g id="edge11" class="edge">
<title>MetadataCatalog&#45;&gt;Metadata</title>
<path fill="none" stroke="black" stroke-dasharray="5,2" d="M1654,-120.82C1654,-95.23 1654,-66.6 1654,-46.24"/>
<polygon fill="black" stroke="black" points="1654,-36.12 1658.5,-46.12 1654,-41.12 1654,-46.12 1654,-46.12 1654,-46.12 1654,-41.12 1649.5,-46.12 1654,-36.12 1654,-36.12"/>
</g>
<!-- StepCatalogParser -->
<g id="node14" class="node">
<title>StepCatalogParser</title>
<polygon fill="none" stroke="black" points="2266,-564.5 2266,-585.5 2651,-585.5 2651,-564.5 2266,-564.5"/>
<text text-anchor="start" x="2384.5" y="-572.3" font-family="Times,serif" font-weight="bold" font-size="14.00">StepCatalogParser</text>
<polygon fill="none" stroke="black" points="2266,-488.5 2266,-564.5 2651,-564.5 2651,-488.5 2266,-488.5"/>
<text text-anchor="start" x="2427" y="-551.3" font-family="Times,serif" font-style="italic" font-size="14.00">Methods</text>
<text text-anchor="start" x="2269" y="-537.3" font-family="Times,serif" font-size="14.00">getParser(&lt;String&gt; url, &lt;String&gt; tag):ParseCatalog</text>
<text text-anchor="start" x="2269" y="-523.3" font-family="Times,serif" font-size="14.00">getParserFromCluster():ParseCatalog</text>
<text text-anchor="start" x="2269" y="-509.3" font-family="Times,serif" font-size="14.00">getLocalFolder(&lt;Path&gt; path):ParseCatalog</text>
<text text-anchor="start" x="2269" y="-495.3" font-family="Times,serif" font-size="14.00">generatesKind(&lt;String&gt; kind):Boolean</text>
<polygon fill="none" stroke="black" points="2264.5,-488 2264.5,-587 2651.5,-587 2651.5,-488 2264.5,-488"/>
</g>
<!-- ViewDefinitionCatalog -->
<g id="node15" class="node">
<title>ViewDefinitionCatalog</title>
<polygon fill="none" stroke="black" points="1340,-526.5 1340,-547.5 1522,-547.5 1522,-526.5 1340,-526.5"/>
<text text-anchor="start" x="1343" y="-534.3" font-family="Times,serif" font-weight="bold" font-size="14.00">ViewDefinitionCatalog</text>
<polygon fill="none" stroke="black" points="1339,-526 1339,-549 1523,-549 1523,-526 1339,-526"/>
</g>
<!-- ViewDefinitionCatalog&#45;&gt;AbstractCatalog -->
<g id="edge8" class="edge">
<title>ViewDefinitionCatalog&#45;&gt;AbstractCatalog</title>
<path fill="none" stroke="black" d="M1428.08,-519.23C1425.25,-502.48 1420.78,-476.03 1416.61,-451.29"/>
<polygon fill="none" stroke="black" points="1420.02,-450.47 1414.9,-441.19 1413.11,-451.63 1420.02,-450.47"/>
</g>
<!-- KameletParseCatalog -->
<g id="node16" class="node">
<title>KameletParseCatalog</title>
<polygon fill="none" stroke="black" points="2370,-725.5 2370,-746.5 2547,-746.5 2547,-725.5 2370,-725.5"/>
<text text-anchor="start" x="2373" y="-733.3" font-family="Times,serif" font-weight="bold" font-size="14.00">KameletParseCatalog</text>
<polygon fill="none" stroke="black" points="2368.5,-725 2368.5,-748 2547.5,-748 2547.5,-725 2368.5,-725"/>
</g>
<!-- KameletParseCatalog&#45;&gt;StepCatalogParser -->
<g id="edge9" class="edge">
<title>KameletParseCatalog&#45;&gt;StepCatalogParser</title>
<path fill="none" stroke="black" d="M2458,-718.36C2458,-692.47 2458,-642.07 2458,-601.2"/>
<polygon fill="none" stroke="black" points="2461.5,-601.03 2458,-591.03 2454.5,-601.03 2461.5,-601.03"/>
</g>
<!-- ParseCatalog -->
<g id="node17" class="node">
<title>ParseCatalog</title>
<polygon fill="none" stroke="black" points="2886,-550.5 2886,-571.5 3218,-571.5 3218,-550.5 2886,-550.5"/>
<text text-anchor="start" x="2999.5" y="-558.3" font-family="Times,serif" font-weight="bold" font-size="14.00">ParseCatalog</text>
<polygon fill="none" stroke="black" points="2886,-502.5 2886,-550.5 3218,-550.5 3218,-502.5 2886,-502.5"/>
<text text-anchor="start" x="3020.5" y="-537.3" font-family="Times,serif" font-style="italic" font-size="14.00">Methods</text>
<text text-anchor="start" x="2889" y="-523.3" font-family="Times,serif" font-size="14.00">parse():CompletableFuture[List[T]]</text>
<text text-anchor="start" x="2889" y="-509.3" font-family="Times,serif" font-size="14.00">setFileVisitor(&lt;YamlProcessFile&gt; fileVisitor):</text>
<polygon fill="none" stroke="black" points="2885,-502 2885,-573 3219,-573 3219,-502 2885,-502"/>
</g>
<!-- KameletParseCatalog&#45;&gt;ParseCatalog -->
<g id="edge10" class="edge">
<title>KameletParseCatalog&#45;&gt;ParseCatalog</title>
<path fill="none" stroke="black" stroke-dasharray="5,2" d="M2469.41,-718.37C2486.74,-693.84 2522.14,-649.23 2564,-627 2616,-599.38 2751.72,-576.01 2866.86,-560.24"/>
<polygon fill="black" stroke="black" points="2876.88,-558.88 2867.57,-564.68 2871.92,-559.55 2866.97,-560.22 2866.97,-560.22 2866.97,-560.22 2871.92,-559.55 2866.36,-555.77 2876.88,-558.88 2876.88,-558.88"/>
</g>
<!-- Kamelet -->
<g id="node18" class="node">
<title>Kamelet</title>
<polygon fill="none" stroke="black" points="3827,-725.5 3827,-746.5 3900,-746.5 3900,-725.5 3827,-725.5"/>
<text text-anchor="start" x="3830" y="-733.3" font-family="Times,serif" font-weight="bold" font-size="14.00">Kamelet</text>
<polygon fill="none" stroke="black" points="3825.5,-725 3825.5,-748 3900.5,-748 3900.5,-725 3825.5,-725"/>
</g>
<!-- KameletBinding -->
<g id="node19" class="node">
<title>KameletBinding</title>
<polygon fill="none" stroke="black" points="3936,-725.5 3936,-746.5 4072,-746.5 4072,-725.5 3936,-725.5"/>
<text text-anchor="start" x="3939" y="-733.3" font-family="Times,serif" font-weight="bold" font-size="14.00">KameletBinding</text>
<polygon fill="none" stroke="black" points="3935,-725 3935,-748 4073,-748 4073,-725 3935,-725"/>
</g>
<!-- SimplifiedKamelet -->
<g id="node20" class="node">
<title>SimplifiedKamelet</title>
<polygon fill="none" stroke="black" points="4108,-725.5 4108,-746.5 4260,-746.5 4260,-725.5 4108,-725.5"/>
<text text-anchor="start" x="4111" y="-733.3" font-family="Times,serif" font-weight="bold" font-size="14.00">SimplifiedKamelet</text>
<polygon fill="none" stroke="black" points="4107,-725 4107,-748 4261,-748 4261,-725 4107,-725"/>
</g>
<!-- CatalogCollection -->
<g id="node22" class="node">
<title>CatalogCollection</title>
<polygon fill="none" stroke="black" points="1581,-376.5 1581,-397.5 1727,-397.5 1727,-376.5 1581,-376.5"/>
<text text-anchor="start" x="1584" y="-384.3" font-family="Times,serif" font-weight="bold" font-size="14.00">CatalogCollection</text>
<polygon fill="none" stroke="black" points="1580,-376 1580,-399 1728,-399 1728,-376 1580,-376"/>
</g>
<!-- CatalogCollection&#45;&gt;MetadataCatalog -->
<g id="edge12" class="edge">
<title>CatalogCollection&#45;&gt;MetadataCatalog</title>
<path fill="none" stroke="black" d="M1654,-369.46C1654,-343.89 1654,-294.15 1654,-252.4"/>
<polygon fill="none" stroke="black" points="1657.5,-252.25 1654,-242.25 1650.5,-252.25 1657.5,-252.25"/>
</g>
<!-- InMemoryCatalog -->
<g id="node23" class="node">
<title>InMemoryCatalog</title>
<polygon fill="none" stroke="black" points="1763,-376.5 1763,-397.5 1911,-397.5 1911,-376.5 1763,-376.5"/>
<text text-anchor="start" x="1766" y="-384.3" font-family="Times,serif" font-weight="bold" font-size="14.00">InMemoryCatalog</text>
<polygon fill="none" stroke="black" points="1762,-376 1762,-399 1912,-399 1912,-376 1762,-376"/>
</g>
<!-- InMemoryCatalog&#45;&gt;MetadataCatalog -->
<g id="edge13" class="edge">
<title>InMemoryCatalog&#45;&gt;MetadataCatalog</title>
<path fill="none" stroke="black" d="M1821.71,-369.46C1798.29,-343.35 1752.26,-292.04 1714.34,-249.76"/>
<polygon fill="none" stroke="black" points="1716.89,-247.36 1707.6,-242.25 1711.68,-252.04 1716.89,-247.36"/>
</g>
<!-- ReadOnlyCatalog -->
<g id="node24" class="node">
<title>ReadOnlyCatalog</title>
<polygon fill="none" stroke="black" points="1583,-526.5 1583,-547.5 1725,-547.5 1725,-526.5 1583,-526.5"/>
<text text-anchor="start" x="1586" y="-534.3" font-family="Times,serif" font-weight="bold" font-size="14.00">ReadOnlyCatalog</text>
<polygon fill="none" stroke="black" points="1582,-526 1582,-549 1726,-549 1726,-526 1582,-526"/>
</g>
<!-- ReadOnlyCatalog&#45;&gt;CatalogCollection -->
<g id="edge14" class="edge">
<title>ReadOnlyCatalog&#45;&gt;CatalogCollection</title>
<path fill="none" stroke="black" d="M1654,-519.23C1654,-493.83 1654,-446.15 1654,-415.93"/>
<polygon fill="none" stroke="black" points="1657.5,-415.66 1654,-405.66 1650.5,-415.66 1657.5,-415.66"/>
</g>
<!-- ClusterParseCatalog -->
<g id="node25" class="node">
<title>ClusterParseCatalog</title>
<polygon fill="none" stroke="black" points="2583,-725.5 2583,-746.5 2752,-746.5 2752,-725.5 2583,-725.5"/>
<text text-anchor="start" x="2586" y="-733.3" font-family="Times,serif" font-weight="bold" font-size="14.00">ClusterParseCatalog</text>
<polygon fill="none" stroke="black" points="2581.5,-725 2581.5,-748 2752.5,-748 2752.5,-725 2581.5,-725"/>
</g>
<!-- ClusterParseCatalog&#45;&gt;ParseCatalog -->
<g id="edge15" class="edge">
<title>ClusterParseCatalog&#45;&gt;ParseCatalog</title>
<path fill="none" stroke="black" d="M2678.78,-718.22C2695.92,-694.34 2730,-651.43 2769,-627 2799.6,-607.83 2834.69,-592.52 2869.5,-580.39"/>
<polygon fill="none" stroke="black" points="2870.96,-583.59 2879.3,-577.05 2868.71,-576.96 2870.96,-583.59"/>
</g>
<!-- EmptyParseCatalog -->
<g id="node26" class="node">
<title>EmptyParseCatalog</title>
<polygon fill="none" stroke="black" points="2788,-725.5 2788,-746.5 2949,-746.5 2949,-725.5 2788,-725.5"/>
<text text-anchor="start" x="2791" y="-733.3" font-family="Times,serif" font-weight="bold" font-size="14.00">EmptyParseCatalog</text>
<polygon fill="none" stroke="black" points="2786.5,-725 2786.5,-748 2949.5,-748 2949.5,-725 2786.5,-725"/>
</g>
<!-- EmptyParseCatalog&#45;&gt;ParseCatalog -->
<g id="edge16" class="edge">
<title>EmptyParseCatalog&#45;&gt;ParseCatalog</title>
<path fill="none" stroke="black" d="M2883.3,-718.46C2902.64,-696.99 2937.03,-659.02 2967,-627 2980.02,-613.09 2994.32,-598.1 3007.41,-584.48"/>
<polygon fill="none" stroke="black" points="3010.13,-586.7 3014.55,-577.07 3005.09,-581.84 3010.13,-586.7"/>
</g>
<!-- GitParseCatalog -->
<g id="node27" class="node">
<title>GitParseCatalog</title>
<polygon fill="none" stroke="black" points="3656,-725.5 3656,-746.5 3791,-746.5 3791,-725.5 3656,-725.5"/>
<text text-anchor="start" x="3659" y="-733.3" font-family="Times,serif" font-weight="bold" font-size="14.00">GitParseCatalog</text>
<polygon fill="none" stroke="black" points="3654.5,-725 3654.5,-748 3791.5,-748 3791.5,-725 3654.5,-725"/>
</g>
<!-- GitParseCatalog&#45;&gt;ParseCatalog -->
<g id="edge17" class="edge">
<title>GitParseCatalog&#45;&gt;ParseCatalog</title>
<path fill="none" stroke="black" d="M3714.66,-718.23C3701.74,-693.52 3674.43,-648.7 3637,-627 3570.66,-588.55 3382.75,-564.84 3237.61,-551.77"/>
<polygon fill="none" stroke="black" points="3237.51,-548.24 3227.24,-550.84 3236.89,-555.22 3237.51,-548.24"/>
</g>
<!-- YamlProcessFile -->
<g id="node28" class="node">
<title>YamlProcessFile</title>
<text text-anchor="middle" x="3723" y="-533.8" font-family="Times,serif" font-size="14.00">YamlProcessFile</text>
</g>
<!-- GitParseCatalog&#45;&gt;YamlProcessFile -->
<g id="edge18" class="edge">
<title>GitParseCatalog&#45;&gt;YamlProcessFile</title>
<path fill="none" stroke="black" stroke-dasharray="5,2" d="M3723,-718.36C3723,-684.16 3723,-607.19 3723,-565.9"/>
<polygon fill="black" stroke="black" points="3723,-555.74 3727.5,-565.74 3723,-560.74 3723,-565.74 3723,-565.74 3723,-565.74 3723,-560.74 3718.5,-565.74 3723,-555.74 3723,-555.74"/>
</g>
<!-- JarParseCatalog -->
<g id="node29" class="node">
<title>JarParseCatalog</title>
<polygon fill="none" stroke="black" points="2985,-725.5 2985,-746.5 3119,-746.5 3119,-725.5 2985,-725.5"/>
<text text-anchor="start" x="2988" y="-733.3" font-family="Times,serif" font-weight="bold" font-size="14.00">JarParseCatalog</text>
<polygon fill="none" stroke="black" points="2984,-725 2984,-748 3120,-748 3120,-725 2984,-725"/>
</g>
<!-- JarParseCatalog&#45;&gt;ParseCatalog -->
<g id="edge19" class="edge">
<title>JarParseCatalog&#45;&gt;ParseCatalog</title>
<path fill="none" stroke="black" d="M3052,-718.36C3052,-689.48 3052,-630.08 3052,-587.44"/>
<polygon fill="none" stroke="black" points="3055.5,-587.26 3052,-577.26 3048.5,-587.26 3055.5,-587.26"/>
</g>
<!-- LocalFolderParseCatalog -->
<g id="node30" class="node">
<title>LocalFolderParseCatalog</title>
<polygon fill="none" stroke="black" points="3155,-725.5 3155,-746.5 3357,-746.5 3357,-725.5 3155,-725.5"/>
<text text-anchor="start" x="3158" y="-733.3" font-family="Times,serif" font-weight="bold" font-size="14.00">LocalFolderParseCatalog</text>
<polygon fill="none" stroke="black" points="3154,-725 3154,-748 3358,-748 3358,-725 3154,-725"/>
</g>
<!-- LocalFolderParseCatalog&#45;&gt;ParseCatalog -->
<g id="edge20" class="edge">
<title>LocalFolderParseCatalog&#45;&gt;ParseCatalog</title>
<path fill="none" stroke="black" d="M3238.25,-718.36C3207.58,-688.74 3143.7,-627.05 3099.36,-584.23"/>
<polygon fill="none" stroke="black" points="3101.77,-581.69 3092.14,-577.26 3096.9,-586.73 3101.77,-581.69"/>
</g>
<!-- ProcessFile -->
<g id="node31" class="node">
<title>ProcessFile</title>
<polygon fill="none" stroke="black" points="4297,-725.5 4297,-746.5 4394,-746.5 4394,-725.5 4297,-725.5"/>
<text text-anchor="start" x="4300" y="-733.3" font-family="Times,serif" font-weight="bold" font-size="14.00">ProcessFile</text>
<polygon fill="none" stroke="black" points="4295.5,-725 4295.5,-748 4394.5,-748 4394.5,-725 4295.5,-725"/>
</g>
<!-- ViewDefinitionParseCatalog -->
<g id="node32" class="node">
<title>ViewDefinitionParseCatalog</title>
<polygon fill="none" stroke="black" points="3393,-725.5 3393,-746.5 3619,-746.5 3619,-725.5 3393,-725.5"/>
<text text-anchor="start" x="3396" y="-733.3" font-family="Times,serif" font-weight="bold" font-size="14.00">ViewDefinitionParseCatalog</text>
<polygon fill="none" stroke="black" points="3392,-725 3392,-748 3620,-748 3620,-725 3392,-725"/>
</g>
<!-- ViewDefinitionParseCatalog&#45;&gt;ParseCatalog -->
<g id="edge21" class="edge">
<title>ViewDefinitionParseCatalog&#45;&gt;ParseCatalog</title>
<path fill="none" stroke="black" stroke-dasharray="5,2" d="M3489.91,-718.18C3466.75,-694.23 3421.64,-651.25 3375,-627 3332.38,-604.83 3283.63,-587.76 3237.14,-574.79"/>
<polygon fill="black" stroke="black" points="3227.25,-572.09 3238.09,-570.39 3232.08,-573.41 3236.9,-574.73 3236.9,-574.73 3236.9,-574.73 3232.08,-573.41 3235.71,-579.07 3227.25,-572.09 3227.25,-572.09"/>
</g>
<!-- Parameter -->
<g id="node33" class="node">
<title>Parameter</title>
<polygon fill="none" stroke="black" points="4430,-819.5 4430,-840.5 4590,-840.5 4590,-819.5 4430,-819.5"/>
<text text-anchor="start" x="4468" y="-827.3" font-family="Times,serif" font-weight="bold" font-size="14.00">Parameter</text>
<polygon fill="none" stroke="black" points="4430,-631.5 4430,-819.5 4590,-819.5 4590,-631.5 4430,-631.5"/>
<text text-anchor="start" x="4472" y="-806.3" font-family="Times,serif" font-style="italic" font-size="14.00">Properties</text>
<text text-anchor="start" x="4433" y="-792.3" font-family="Times,serif" font-size="14.00">description:String</text>
<text text-anchor="start" x="4433" y="-778.3" font-family="Times,serif" font-size="14.00">title:String</text>
<text text-anchor="start" x="4433" y="-764.3" font-family="Times,serif" font-size="14.00">id:String</text>
<text text-anchor="start" x="4433" y="-750.3" font-family="Times,serif" font-size="14.00">value:Object</text>
<text text-anchor="start" x="4433" y="-736.3" font-family="Times,serif" font-size="14.00">default:Object</text>
<text text-anchor="start" x="4433" y="-722.3" font-family="Times,serif" font-size="14.00">type:String</text>
<text text-anchor="start" x="4433" y="-708.3" font-family="Times,serif" font-size="14.00">path:Boolean</text>
<text text-anchor="start" x="4433" y="-694.3" font-family="Times,serif" font-size="14.00">nullable:Boolean</text>
<text text-anchor="start" x="4433" y="-680.3" font-family="Times,serif" font-size="14.00">enum:Object[]</text>
<text text-anchor="start" x="4433" y="-666.3" font-family="Times,serif" font-size="14.00">examples:Object[]</text>
<text text-anchor="start" x="4433" y="-652.3" font-family="Times,serif" font-size="14.00">pathOrder:Integer</text>
<text text-anchor="start" x="4433" y="-638.3" font-family="Times,serif" font-size="14.00">pathSeparator:String</text>
<polygon fill="none" stroke="black" points="4429,-631 4429,-842 4591,-842 4591,-631 4429,-631"/>
</g>
<!-- Step -->
<g id="node34" class="node">
<title>Step</title>
<polygon fill="none" stroke="black" points="1088,-264.5 1088,-285.5 1294,-285.5 1294,-264.5 1088,-264.5"/>
<text text-anchor="start" x="1173" y="-272.3" font-family="Times,serif" font-weight="bold" font-size="14.00">Step</text>
<polygon fill="none" stroke="black" points="1088,-76.5 1088,-264.5 1294,-264.5 1294,-76.5 1088,-76.5"/>
<text text-anchor="start" x="1153" y="-251.3" font-family="Times,serif" font-style="italic" font-size="14.00">Properties</text>
<text text-anchor="start" x="1091" y="-237.3" font-family="Times,serif" font-size="14.00">description:String</text>
<text text-anchor="start" x="1091" y="-223.3" font-family="Times,serif" font-size="14.00">title:String</text>
<text text-anchor="start" x="1091" y="-209.3" font-family="Times,serif" font-size="14.00">parameters:List[Parameter]</text>
<text text-anchor="start" x="1091" y="-195.3" font-family="Times,serif" font-size="14.00">icon:String</text>
<text text-anchor="start" x="1091" y="-181.3" font-family="Times,serif" font-size="14.00">UUID:String</text>
<text text-anchor="start" x="1091" y="-167.3" font-family="Times,serif" font-size="14.00">required:String[]</text>
<text text-anchor="start" x="1091" y="-153.3" font-family="Times,serif" font-size="14.00">group:String</text>
<text text-anchor="start" x="1091" y="-139.3" font-family="Times,serif" font-size="14.00">kind:String</text>
<text text-anchor="start" x="1091" y="-125.3" font-family="Times,serif" font-size="14.00">branches:Branch[]</text>
<text text-anchor="start" x="1091" y="-111.3" font-family="Times,serif" font-size="14.00">minBranches:Integer</text>
<text text-anchor="start" x="1091" y="-97.3" font-family="Times,serif" font-size="14.00">maxBranches:Integer</text>
<text text-anchor="start" x="1091" y="-83.3" font-family="Times,serif" font-size="14.00">id:String</text>
<polygon fill="none" stroke="black" points="1087,-76 1087,-287 1295,-287 1295,-76 1087,-76"/>
</g>
<!-- Step&#45;&gt;Metadata -->
<g id="edge22" class="edge">
<title>Step&#45;&gt;Metadata</title>
<path fill="none" stroke="black" d="M1303.02,-132.39C1351.45,-112.44 1409.05,-89.85 1462,-72 1508.47,-56.34 1562.38,-41.76 1601.23,-31.88"/>
<polygon fill="none" stroke="black" points="1602.42,-35.18 1611.26,-29.34 1600.71,-28.4 1602.42,-35.18"/>
</g>
<!-- ViewDefinition -->
<g id="node35" class="node">
<title>ViewDefinition</title>
<polygon fill="none" stroke="black" points="1883,-208.5 1883,-229.5 2192,-229.5 2192,-208.5 1883,-208.5"/>
<text text-anchor="start" x="1979.5" y="-216.3" font-family="Times,serif" font-weight="bold" font-size="14.00">ViewDefinition</text>
<polygon fill="none" stroke="black" points="1883,-132.5 1883,-208.5 2192,-208.5 2192,-132.5 1883,-132.5"/>
<text text-anchor="start" x="1999.5" y="-195.3" font-family="Times,serif" font-style="italic" font-size="14.00">Properties</text>
<text text-anchor="start" x="1886" y="-181.3" font-family="Times,serif" font-size="14.00">properties:Map[String, String]</text>
<text text-anchor="start" x="1886" y="-167.3" font-family="Times,serif" font-size="14.00">step:Step</text>
<text text-anchor="start" x="1886" y="-153.3" font-family="Times,serif" font-size="14.00">url:String</text>
<text text-anchor="start" x="1886" y="-139.3" font-family="Times,serif" font-size="14.00">constraints:List[ViewDefinitionConstraint]</text>
<polygon fill="none" stroke="black" points="1881.5,-132 1881.5,-231 2192.5,-231 2192.5,-132 1881.5,-132"/>
</g>
<!-- ViewDefinition&#45;&gt;Metadata -->
<g id="edge23" class="edge">
<title>ViewDefinition&#45;&gt;Metadata</title>
<path fill="none" stroke="black" d="M1954.65,-127.79C1921.77,-108.34 1882.99,-87.33 1846,-72 1800.3,-53.06 1745.73,-38.74 1706.46,-29.79"/>
<polygon fill="none" stroke="black" points="1707.1,-26.34 1696.57,-27.57 1705.57,-33.17 1707.1,-26.34"/>
</g>
<!-- ViewDefinitionConstraint -->
<g id="node36" class="node">
<title>ViewDefinitionConstraint</title>
<text text-anchor="middle" x="2037" y="-383.8" font-family="Times,serif" font-size="14.00">ViewDefinitionConstraint</text>
</g>
<!-- ViewDefinitionConstraint&#45;&gt;ViewDefinition -->
<g id="edge24" class="edge">
<title>ViewDefinitionConstraint&#45;&gt;ViewDefinition</title>
<path fill="none" stroke="black" d="M2037,-369.46C2037,-342.82 2037,-289.93 2037,-247.19"/>
<polygon fill="black" stroke="black" points="2037,-247.15 2033,-241.15 2037,-235.15 2041,-241.15 2037,-247.15"/>
<text text-anchor="middle" x="2023" y="-358.26" font-family="Times,serif" font-size="14.00">0..n</text>
</g>
<!-- StepParserService -->
<g id="node37" class="node">
<title>StepParserService</title>
<polygon fill="none" stroke="black" points="851,-421.5 851,-442.5 1231,-442.5 1231,-421.5 851,-421.5"/>
<text text-anchor="start" x="968.5" y="-429.3" font-family="Times,serif" font-weight="bold" font-size="14.00">StepParserService</text>
<polygon fill="none" stroke="black" points="851,-331.5 851,-421.5 1231,-421.5 1231,-331.5 851,-331.5"/>
<text text-anchor="start" x="1009.5" y="-408.3" font-family="Times,serif" font-style="italic" font-size="14.00">Methods</text>
<text text-anchor="start" x="854" y="-394.3" font-family="Times,serif" font-size="14.00">identifier():String</text>
<text text-anchor="start" x="854" y="-380.3" font-family="Times,serif" font-size="14.00">description():String</text>
<text text-anchor="start" x="854" y="-366.3" font-family="Times,serif" font-size="14.00">parse(&lt;String&gt; yaml):ParseResult</text>
<text text-anchor="start" x="854" y="-352.3" font-family="Times,serif" font-size="14.00">getParsedFlows(&lt;String&gt; yaml):List&lt;ParseResult&gt;</text>
<text text-anchor="start" x="854" y="-338.3" font-family="Times,serif" font-size="14.00">appliesTo(&lt;String&gt; yaml):boolean</text>
<polygon fill="none" stroke="black" points="850,-331 850,-444 1232,-444 1232,-331 850,-331"/>
</g>
<!-- StepParserService&#45;&gt;Step -->
<g id="edge25" class="edge">
<title>StepParserService&#45;&gt;Step</title>
<path fill="none" stroke="black" stroke-dasharray="5,2" d="M1084.79,-326.95C1091.21,-318.21 1098,-308.98 1104.92,-299.56"/>
<polygon fill="black" stroke="black" points="1111.03,-291.26 1108.73,-301.98 1108.07,-295.28 1105.11,-299.31 1105.11,-299.31 1105.11,-299.31 1108.07,-295.28 1101.48,-296.65 1111.03,-291.26 1111.03,-291.26"/>
</g>
<!-- ViewDefinitionParserService -->
<g id="node38" class="node">
<title>ViewDefinitionParserService</title>
<polygon fill="none" stroke="black" points="2163,-414.5 2163,-435.5 2761,-435.5 2761,-414.5 2163,-414.5"/>
<text text-anchor="start" x="2349.5" y="-422.3" font-family="Times,serif" font-weight="bold" font-size="14.00">ViewDefinitionParserService</text>
<polygon fill="none" stroke="black" points="2163,-338.5 2163,-414.5 2761,-414.5 2761,-338.5 2163,-338.5"/>
<text text-anchor="start" x="2430.5" y="-401.3" font-family="Times,serif" font-style="italic" font-size="14.00">Methods</text>
<text text-anchor="start" x="2166" y="-387.3" font-family="Times,serif" font-size="14.00">parse(&lt;List[Step]&gt; steps):List[ViewDefinition]</text>
<text text-anchor="start" x="2166" y="-373.3" font-family="Times,serif" font-size="14.00">getViewsPerStep(&lt;List[Step]&gt; steps, &lt;ViewDefinition&gt; view):List[ViewDefinition]</text>
<text text-anchor="start" x="2166" y="-359.3" font-family="Times,serif" font-size="14.00">appliesTo(&lt;List[Step]&gt; steps, &lt;ViewDefinition&gt; viewDefinition):boolean</text>
<text text-anchor="start" x="2166" y="-345.3" font-family="Times,serif" font-size="14.00">appliesToStep(&lt;Step&gt; steps, &lt;ViewDefinition&gt; viewDefinition):boolean</text>
<polygon fill="none" stroke="black" points="2162,-338 2162,-437 2762,-437 2762,-338 2162,-338"/>
</g>
<!-- ViewDefinitionParserService&#45;&gt;ViewDefinition -->
<g id="edge26" class="edge">
<title>ViewDefinitionParserService&#45;&gt;ViewDefinition</title>
<path fill="none" stroke="black" stroke-dasharray="5,2" d="M2352.55,-333.96C2292.31,-305.05 2217.5,-269.14 2155.83,-239.54"/>
<polygon fill="black" stroke="black" points="2146.45,-235.03 2157.41,-235.3 2150.95,-237.2 2155.46,-239.36 2155.46,-239.36 2155.46,-239.36 2150.95,-237.2 2153.51,-243.42 2146.45,-235.03 2146.45,-235.03"/>
</g>
</g>
</svg>
