<?xml version="1.0" encoding="UTF-8" standalone="no"?>
<!DOCTYPE svg PUBLIC "-//W3C//DTD SVG 1.1//EN"
 "http://www.w3.org/Graphics/SVG/1.1/DTD/svg11.dtd">
<!-- Generated by graphviz version 2.43.0 (0)
 -->
<!-- Title: ClassDiagram Pages: 1 -->
<svg width="5293pt" height="827pt"
 viewBox="0.00 0.00 5293.00 827.00" xmlns="http://www.w3.org/2000/svg" xmlns:xlink="http://www.w3.org/1999/xlink">
<g id="graph0" class="graph" transform="scale(1 1) rotate(0) translate(4 823)">
<title>ClassDiagram</title>
<polygon fill="white" stroke="transparent" points="-4,4 -4,-823 5289,-823 5289,4 -4,4"/>
<!-- LanguageResource 🐱relationship compositionOf LanguageService, 0..1 -->
<g id="node1" class="node">
<title>LanguageResource 🐱relationship compositionOf LanguageService, 0..1</title>
<polygon fill="none" stroke="black" points="9,-729.5 9,-750.5 579,-750.5 579,-729.5 9,-729.5"/>
<text text-anchor="start" x="12" y="-737.3" font-family="Times,serif" font-weight="bold" font-size="14.00">LanguageResource 🐱relationship compositionOf LanguageService, 0..1</text>
<polygon fill="none" stroke="black" points="9,-695.5 9,-729.5 579,-729.5 579,-695.5 9,-695.5"/>
<text text-anchor="start" x="262.5" y="-716.3" font-family="Times,serif" font-style="italic" font-size="14.00">Methods</text>
<text text-anchor="start" x="249.5" y="-702.3" font-family="Times,serif" font-size="14.00">getAll():Map</text>
<polygon fill="none" stroke="black" points="8,-695 8,-752 580,-752 580,-695 8,-695"/>
</g>
<!-- DeploymentResource -->
<g id="node2" class="node">
<title>DeploymentResource</title>
<polygon fill="none" stroke="black" points="616,-750.5 616,-771.5 791,-771.5 791,-750.5 616,-750.5"/>
<text text-anchor="start" x="619" y="-758.3" font-family="Times,serif" font-weight="bold" font-size="14.00">DeploymentResource</text>
<polygon fill="none" stroke="black" points="616,-674.5 616,-750.5 791,-750.5 791,-674.5 616,-674.5"/>
<text text-anchor="start" x="672" y="-737.3" font-family="Times,serif" font-style="italic" font-size="14.00">Methods</text>
<text text-anchor="start" x="656" y="-723.3" font-family="Times,serif" font-size="14.00">all():String</text>
<text text-anchor="start" x="656" y="-709.3" font-family="Times,serif" font-size="14.00">start():String</text>
<text text-anchor="start" x="656" y="-695.3" font-family="Times,serif" font-size="14.00">get():String</text>
<text text-anchor="start" x="656" y="-681.3" font-family="Times,serif" font-size="14.00">stop():String</text>
<polygon fill="none" stroke="black" points="614.5,-674 614.5,-773 791.5,-773 791.5,-674 614.5,-674"/>
</g>
<!-- IntegrationsResource -->
<g id="node3" class="node">
<title>IntegrationsResource</title>
<polygon fill="none" stroke="black" points="722,-558.5 722,-579.5 1071,-579.5 1071,-558.5 722,-558.5"/>
<text text-anchor="start" x="810" y="-566.3" font-family="Times,serif" font-weight="bold" font-size="14.00">IntegrationsResource</text>
<polygon fill="none" stroke="black" points="722,-524.5 722,-558.5 1071,-558.5 1071,-524.5 722,-524.5"/>
<text text-anchor="start" x="865" y="-545.3" font-family="Times,serif" font-style="italic" font-size="14.00">Methods</text>
<text text-anchor="start" x="725" y="-531.3" font-family="Times,serif" font-size="14.00">crd(&lt;String&gt; dsl):Map&lt;String, Map&lt;String&gt;&gt;</text>
<polygon fill="none" stroke="black" points="720.5,-524 720.5,-581 1071.5,-581 1071.5,-524 720.5,-524"/>
</g>
<!-- DeploymentService -->
<g id="node4" class="node">
<title>DeploymentService</title>
<text text-anchor="middle" x="896" y="-719.8" font-family="Times,serif" font-size="14.00">DeploymentService</text>
</g>
<!-- DeploymentService&#45;&gt;IntegrationsResource -->
<g id="edge1" class="edge">
<title>DeploymentService&#45;&gt;IntegrationsResource</title>
<path fill="none" stroke="black" d="M896,-705.37C896,-680.25 896,-632.62 896,-597.37"/>
<polygon fill="black" stroke="black" points="896,-597 892,-591 896,-585 900,-591 896,-597"/>
<text text-anchor="middle" x="882" y="-694.17" font-family="Times,serif" font-size="14.00">0..1</text>
</g>
<!-- StepResource -->
<g id="node5" class="node">
<title>StepResource</title>
<polygon fill="none" stroke="black" points="2406,-743.5 2406,-764.5 2878,-764.5 2878,-743.5 2406,-743.5"/>
<text text-anchor="start" x="2587.5" y="-751.3" font-family="Times,serif" font-weight="bold" font-size="14.00">StepResource</text>
<polygon fill="none" stroke="black" points="2406,-681.5 2406,-743.5 2878,-743.5 2878,-681.5 2406,-681.5"/>
<text text-anchor="start" x="2610.5" y="-730.3" font-family="Times,serif" font-style="italic" font-size="14.00">Methods</text>
<text text-anchor="start" x="2409" y="-716.3" font-family="Times,serif" font-size="14.00">allSteps(&lt;String&gt; type, &lt;String&gt; dsl, &lt;String&gt; kind):List[Step]</text>
<text text-anchor="start" x="2409" y="-702.3" font-family="Times,serif" font-size="14.00">stepById(&lt;String&gt; id):Step</text>
<text text-anchor="start" x="2409" y="-688.3" font-family="Times,serif" font-size="14.00">stepsByName(&lt;String&gt; name):List[Step]</text>
<polygon fill="none" stroke="black" points="2405,-681 2405,-766 2879,-766 2879,-681 2405,-681"/>
</g>
<!-- StepCatalog -->
<g id="node6" class="node">
<title>StepCatalog</title>
<polygon fill="none" stroke="black" points="2591,-541.5 2591,-562.5 2693,-562.5 2693,-541.5 2591,-541.5"/>
<text text-anchor="start" x="2594" y="-549.3" font-family="Times,serif" font-weight="bold" font-size="14.00">StepCatalog</text>
<polygon fill="none" stroke="black" points="2590,-541 2590,-564 2694,-564 2694,-541 2590,-541"/>
</g>
<!-- StepResource&#45;&gt;StepCatalog -->
<g id="edge2" class="edge">
<title>StepResource&#45;&gt;StepCatalog</title>
<path fill="none" stroke="black" stroke-dasharray="5,2" d="M2642,-676.77C2642,-646.14 2642,-606.85 2642,-580.96"/>
<polygon fill="black" stroke="black" points="2642,-570.75 2646.5,-580.75 2642,-575.75 2642,-580.75 2642,-580.75 2642,-580.75 2642,-575.75 2637.5,-580.75 2642,-570.75 2642,-570.75"/>
</g>
<!-- AbstractCatalog -->
<g id="node15" class="node">
<title>AbstractCatalog</title>
<polygon fill="none" stroke="black" points="2656,-422.5 2656,-443.5 2934,-443.5 2934,-422.5 2656,-422.5"/>
<text text-anchor="start" x="2731.5" y="-430.3" font-family="Times,serif" font-weight="bold" font-size="14.00">AbstractCatalog</text>
<polygon fill="none" stroke="black" points="2656,-374.5 2656,-422.5 2934,-422.5 2934,-374.5 2656,-374.5"/>
<text text-anchor="start" x="2763.5" y="-409.3" font-family="Times,serif" font-style="italic" font-size="14.00">Methods</text>
<text text-anchor="start" x="2659" y="-395.3" font-family="Times,serif" font-size="14.00">waitForWarmUp():CompletableFuture</text>
<text text-anchor="start" x="2659" y="-381.3" font-family="Times,serif" font-size="14.00">loadParsers():List[ParseCatalog]</text>
<polygon fill="none" stroke="black" points="2655,-374 2655,-445 2935,-445 2935,-374 2655,-374"/>
</g>
<!-- StepCatalog&#45;&gt;AbstractCatalog -->
<g id="edge7" class="edge">
<title>StepCatalog&#45;&gt;AbstractCatalog</title>
<path fill="none" stroke="black" d="M2660.46,-534.49C2681.39,-515.2 2716.41,-482.93 2745.47,-456.15"/>
<polygon fill="none" stroke="black" points="2748.12,-458.46 2753.1,-449.11 2743.38,-453.31 2748.12,-458.46"/>
</g>
<!-- ViewDefinitionResource -->
<g id="node7" class="node">
<title>ViewDefinitionResource</title>
<polygon fill="none" stroke="black" points="1072,-422.5 1072,-443.5 1540,-443.5 1540,-422.5 1072,-422.5"/>
<text text-anchor="start" x="1211" y="-430.3" font-family="Times,serif" font-weight="bold" font-size="14.00">ViewDefinitionResource</text>
<polygon fill="none" stroke="black" points="1072,-374.5 1072,-422.5 1540,-422.5 1540,-374.5 1072,-374.5"/>
<text text-anchor="start" x="1274.5" y="-409.3" font-family="Times,serif" font-style="italic" font-size="14.00">Methods</text>
<text text-anchor="start" x="1075" y="-395.3" font-family="Times,serif" font-size="14.00">views:(&lt;String&gt; yaml):</text>
<text text-anchor="start" x="1075" y="-381.3" font-family="Times,serif" font-size="14.00">viewsPerStepList:(&lt;Step[]&gt; DeploymentResourceYamlRequest):</text>
<polygon fill="none" stroke="black" points="1071,-374 1071,-445 1541,-445 1541,-374 1071,-374"/>
</g>
<!-- ViewDefinitionService -->
<g id="node8" class="node">
<title>ViewDefinitionService</title>
<polygon fill="none" stroke="black" points="1107,-558.5 1107,-579.5 1505,-579.5 1505,-558.5 1107,-558.5"/>
<text text-anchor="start" x="1219.5" y="-566.3" font-family="Times,serif" font-weight="bold" font-size="14.00">ViewDefinitionService</text>
<polygon fill="none" stroke="black" points="1107,-524.5 1107,-558.5 1505,-558.5 1505,-524.5 1107,-524.5"/>
<text text-anchor="start" x="1274.5" y="-545.3" font-family="Times,serif" font-style="italic" font-size="14.00">Methods</text>
<text text-anchor="start" x="1110" y="-531.3" font-family="Times,serif" font-size="14.00">viewsPerStepList(&lt;Step[]&gt; steps):List[ViewDefinition]</text>
<polygon fill="none" stroke="black" points="1106,-524 1106,-581 1506,-581 1506,-524 1106,-524"/>
</g>
<!-- ViewDefinitionService&#45;&gt;ViewDefinitionResource -->
<g id="edge3" class="edge">
<title>ViewDefinitionService&#45;&gt;ViewDefinitionResource</title>
<path fill="none" stroke="black" d="M1306,-519.86C1306,-502.59 1306,-480.8 1306,-461.23"/>
<polygon fill="black" stroke="black" points="1306,-461.07 1302,-455.07 1306,-449.07 1310,-455.07 1306,-461.07"/>
<text text-anchor="middle" x="1292" y="-508.66" font-family="Times,serif" font-size="14.00">0..1</text>
</g>
<!-- StepParserService -->
<g id="node13" class="node">
<title>StepParserService</title>
<polygon fill="none" stroke="black" points="781,-436.5 781,-457.5 1036,-457.5 1036,-436.5 781,-436.5"/>
<text text-anchor="start" x="836" y="-444.3" font-family="Times,serif" font-weight="bold" font-size="14.00">StepParserService</text>
<polygon fill="none" stroke="black" points="781,-360.5 781,-436.5 1036,-436.5 1036,-360.5 781,-360.5"/>
<text text-anchor="start" x="877" y="-423.3" font-family="Times,serif" font-style="italic" font-size="14.00">Methods</text>
<text text-anchor="start" x="784" y="-409.3" font-family="Times,serif" font-size="14.00">identifier():String</text>
<text text-anchor="start" x="784" y="-395.3" font-family="Times,serif" font-size="14.00">description():String</text>
<text text-anchor="start" x="784" y="-381.3" font-family="Times,serif" font-size="14.00">parse(&lt;String&gt; yaml):ParseResult</text>
<text text-anchor="start" x="784" y="-367.3" font-family="Times,serif" font-size="14.00">appliesTo(&lt;String&gt; yaml):boolean</text>
<polygon fill="none" stroke="black" points="779.5,-360 779.5,-459 1036.5,-459 1036.5,-360 779.5,-360"/>
</g>
<!-- ViewDefinitionService&#45;&gt;StepParserService -->
<g id="edge4" class="edge">
<title>ViewDefinitionService&#45;&gt;StepParserService</title>
<path fill="none" stroke="black" stroke-dasharray="5,2" d="M1186.61,-519.91C1144.3,-507.75 1096.63,-492.92 1054,-477 1045.66,-473.89 1037.14,-470.52 1028.59,-467"/>
<polygon fill="black" stroke="black" points="1019.32,-463.13 1030.29,-462.83 1023.94,-465.06 1028.55,-466.98 1028.55,-466.98 1028.55,-466.98 1023.94,-465.06 1026.82,-471.13 1019.32,-463.13 1019.32,-463.13"/>
</g>
<!-- ViewDefinitionParserService -->
<g id="node14" class="node">
<title>ViewDefinitionParserService</title>
<polygon fill="none" stroke="black" points="1838,-429.5 1838,-450.5 2436,-450.5 2436,-429.5 1838,-429.5"/>
<text text-anchor="start" x="2024.5" y="-437.3" font-family="Times,serif" font-weight="bold" font-size="14.00">ViewDefinitionParserService</text>
<polygon fill="none" stroke="black" points="1838,-367.5 1838,-429.5 2436,-429.5 2436,-367.5 1838,-367.5"/>
<text text-anchor="start" x="2105.5" y="-416.3" font-family="Times,serif" font-style="italic" font-size="14.00">Methods</text>
<text text-anchor="start" x="1841" y="-402.3" font-family="Times,serif" font-size="14.00">parse(&lt;List[Step]&gt; steps):List[ViewDefinition]</text>
<text text-anchor="start" x="1841" y="-388.3" font-family="Times,serif" font-size="14.00">getViewsPerStep(&lt;List[Step]&gt; steps, &lt;ViewDefinition&gt; view):List[ViewDefinition]</text>
<text text-anchor="start" x="1841" y="-374.3" font-family="Times,serif" font-size="14.00">appliesTo(&lt;List[Step]&gt; steps, &lt;ViewDefinition&gt; viewDefinition):boolean</text>
<polygon fill="none" stroke="black" points="1837,-367 1837,-452 2437,-452 2437,-367 1837,-367"/>
</g>
<!-- ViewDefinitionService&#45;&gt;ViewDefinitionParserService -->
<g id="edge5" class="edge">
<title>ViewDefinitionService&#45;&gt;ViewDefinitionParserService</title>
<path fill="none" stroke="black" stroke-dasharray="5,2" d="M1514.05,-524.37C1607.77,-511.37 1719.67,-494.78 1820,-477 1852.25,-471.29 1886.24,-464.73 1919.5,-458.01"/>
<polygon fill="black" stroke="black" points="1929.33,-456.01 1920.43,-462.41 1924.43,-457.01 1919.53,-458 1919.53,-458 1919.53,-458 1924.43,-457.01 1918.64,-453.59 1929.33,-456.01 1929.33,-456.01"/>
</g>
<!-- Capabilities -->
<g id="node9" class="node">
<title>Capabilities</title>
<polygon fill="none" stroke="black" points="2914,-712.5 2914,-733.5 3014,-733.5 3014,-712.5 2914,-712.5"/>
<text text-anchor="start" x="2917" y="-720.3" font-family="Times,serif" font-weight="bold" font-size="14.00">Capabilities</text>
<polygon fill="none" stroke="black" points="2913,-712 2913,-735 3015,-735 3015,-712 2913,-712"/>
</g>
<!-- Integration -->
<g id="node10" class="node">
<title>Integration</title>
<polygon fill="none" stroke="black" points="3051,-712.5 3051,-733.5 3148,-733.5 3148,-712.5 3051,-712.5"/>
<text text-anchor="start" x="3054" y="-720.3" font-family="Times,serif" font-weight="bold" font-size="14.00">Integration</text>
<polygon fill="none" stroke="black" points="3049.5,-712 3049.5,-735 3148.5,-735 3148.5,-712 3049.5,-712"/>
</g>
<!-- DeploymentService This endpoint will return a list of views based on -->
<g id="node11" class="node">
<title>DeploymentService This endpoint will return a list of views based on</title>
<polygon fill="none" stroke="black" points="3184,-729.5 3184,-750.5 3729,-750.5 3729,-729.5 3184,-729.5"/>
<text text-anchor="start" x="3187" y="-737.3" font-family="Times,serif" font-weight="bold" font-size="14.00">DeploymentService This endpoint will return a list of views based on</text>
<polygon fill="none" stroke="black" points="3184,-695.5 3184,-729.5 3729,-729.5 3729,-695.5 3184,-695.5"/>
<text text-anchor="start" x="3425" y="-716.3" font-family="Times,serif" font-style="italic" font-size="14.00">Methods</text>
<text text-anchor="start" x="3279.5" y="-702.3" font-family="Times,serif" font-size="14.00">yaml(&lt;List[Step]&gt; steps, &lt;String&gt; name):String</text>
<polygon fill="none" stroke="black" points="3182.5,-695 3182.5,-752 3729.5,-752 3729.5,-695 3182.5,-695"/>
</g>
<!-- LanguageService -->
<g id="node12" class="node">
<title>LanguageService</title>
<polygon fill="none" stroke="black" points="3765,-729.5 3765,-750.5 3906,-750.5 3906,-729.5 3765,-729.5"/>
<text text-anchor="start" x="3768" y="-737.3" font-family="Times,serif" font-weight="bold" font-size="14.00">LanguageService</text>
<polygon fill="none" stroke="black" points="3765,-695.5 3765,-729.5 3906,-729.5 3906,-695.5 3765,-695.5"/>
<text text-anchor="start" x="3804" y="-716.3" font-family="Times,serif" font-style="italic" font-size="14.00">Methods</text>
<text text-anchor="start" x="3791" y="-702.3" font-family="Times,serif" font-size="14.00">getAll():Map</text>
<polygon fill="none" stroke="black" points="3763.5,-695 3763.5,-752 3906.5,-752 3906.5,-695 3763.5,-695"/>
</g>
<!-- Step -->
<g id="node32" class="node">
<title>Step</title>
<polygon fill="none" stroke="black" points="805,-279.5 805,-300.5 1011,-300.5 1011,-279.5 805,-279.5"/>
<text text-anchor="start" x="890" y="-287.3" font-family="Times,serif" font-weight="bold" font-size="14.00">Step</text>
<polygon fill="none" stroke="black" points="805,-133.5 805,-279.5 1011,-279.5 1011,-133.5 805,-133.5"/>
<text text-anchor="start" x="870" y="-266.3" font-family="Times,serif" font-style="italic" font-size="14.00">Properties</text>
<text text-anchor="start" x="808" y="-252.3" font-family="Times,serif" font-size="14.00">description:String</text>
<text text-anchor="start" x="808" y="-238.3" font-family="Times,serif" font-size="14.00">title:String</text>
<text text-anchor="start" x="808" y="-224.3" font-family="Times,serif" font-size="14.00">parameters:List[Parameter]</text>
<text text-anchor="start" x="808" y="-210.3" font-family="Times,serif" font-size="14.00">icon:String</text>
<text text-anchor="start" x="808" y="-196.3" font-family="Times,serif" font-size="14.00">UUID:String</text>
<text text-anchor="start" x="808" y="-182.3" font-family="Times,serif" font-size="14.00">required:String[]</text>
<text text-anchor="start" x="808" y="-168.3" font-family="Times,serif" font-size="14.00">group:String</text>
<text text-anchor="start" x="808" y="-154.3" font-family="Times,serif" font-size="14.00">kind:String</text>
<text text-anchor="start" x="808" y="-140.3" font-family="Times,serif" font-size="14.00">branches:Branch[]</text>
<polygon fill="none" stroke="black" points="804,-133 804,-302 1012,-302 1012,-133 804,-133"/>
</g>
<!-- StepParserService&#45;&gt;Step -->
<g id="edge23" class="edge">
<title>StepParserService&#45;&gt;Step</title>
<path fill="none" stroke="black" stroke-dasharray="5,2" d="M908,-355.83C908,-343.57 908,-330.14 908,-316.62"/>
<polygon fill="black" stroke="black" points="908,-306.29 912.5,-316.29 908,-311.29 908,-316.29 908,-316.29 908,-316.29 908,-311.29 903.5,-316.29 908,-306.29 908,-306.29"/>
</g>
<!-- ViewDefinition -->
<g id="node33" class="node">
<title>ViewDefinition</title>
<polygon fill="none" stroke="black" points="1759,-244.5 1759,-265.5 2068,-265.5 2068,-244.5 1759,-244.5"/>
<text text-anchor="start" x="1855.5" y="-252.3" font-family="Times,serif" font-weight="bold" font-size="14.00">ViewDefinition</text>
<polygon fill="none" stroke="black" points="1759,-168.5 1759,-244.5 2068,-244.5 2068,-168.5 1759,-168.5"/>
<text text-anchor="start" x="1875.5" y="-231.3" font-family="Times,serif" font-style="italic" font-size="14.00">Properties</text>
<text text-anchor="start" x="1762" y="-217.3" font-family="Times,serif" font-size="14.00">properties:Map[String, String]</text>
<text text-anchor="start" x="1762" y="-203.3" font-family="Times,serif" font-size="14.00">step:Step</text>
<text text-anchor="start" x="1762" y="-189.3" font-family="Times,serif" font-size="14.00">url:String</text>
<text text-anchor="start" x="1762" y="-175.3" font-family="Times,serif" font-size="14.00">constraints:List[ViewDefinitionConstraint]</text>
<polygon fill="none" stroke="black" points="1757.5,-168 1757.5,-267 2068.5,-267 2068.5,-168 1757.5,-168"/>
</g>
<!-- ViewDefinitionParserService&#45;&gt;ViewDefinition -->
<g id="edge24" class="edge">
<title>ViewDefinitionParserService&#45;&gt;ViewDefinition</title>
<path fill="none" stroke="black" stroke-dasharray="5,2" d="M2083.35,-362.99C2053.15,-337.38 2015.1,-305.11 1982.63,-277.56"/>
<polygon fill="black" stroke="black" points="1974.94,-271.04 1985.47,-274.07 1978.75,-274.27 1982.56,-277.5 1982.56,-277.5 1982.56,-277.5 1978.75,-274.27 1979.65,-280.94 1974.94,-271.04 1974.94,-271.04"/>
</g>
<!-- MetadataCatalog -->
<g id="node16" class="node">
<title>MetadataCatalog</title>
<polygon fill="none" stroke="black" points="2499,-244.5 2499,-265.5 2842,-265.5 2842,-244.5 2499,-244.5"/>
<text text-anchor="start" x="2602.5" y="-252.3" font-family="Times,serif" font-weight="bold" font-size="14.00">MetadataCatalog</text>
<polygon fill="none" stroke="black" points="2499,-168.5 2499,-244.5 2842,-244.5 2842,-168.5 2499,-168.5"/>
<text text-anchor="start" x="2639" y="-231.3" font-family="Times,serif" font-style="italic" font-size="14.00">Methods</text>
<text text-anchor="start" x="2502" y="-217.3" font-family="Times,serif" font-size="14.00">searchStepByID(&lt;String&gt; id):Metadata</text>
<text text-anchor="start" x="2502" y="-203.3" font-family="Times,serif" font-size="14.00">searchStepByName(&lt;String&gt; name):Metadata</text>
<text text-anchor="start" x="2502" y="-189.3" font-family="Times,serif" font-size="14.00">store(&lt;List[Step]&gt; steps):boolean</text>
<text text-anchor="start" x="2502" y="-175.3" font-family="Times,serif" font-size="14.00">getAll():List[Metadata]</text>
<polygon fill="none" stroke="black" points="2497.5,-168 2497.5,-267 2842.5,-267 2842.5,-168 2497.5,-168"/>
</g>
<!-- AbstractCatalog&#45;&gt;MetadataCatalog -->
<g id="edge6" class="edge">
<title>AbstractCatalog&#45;&gt;MetadataCatalog</title>
<path fill="none" stroke="black" stroke-dasharray="5,2" d="M2769.4,-369.59C2752.37,-343.7 2729.64,-309.15 2710.22,-279.63"/>
<polygon fill="black" stroke="black" points="2704.57,-271.05 2713.82,-276.93 2707.32,-275.22 2710.07,-279.4 2710.07,-279.4 2710.07,-279.4 2707.32,-275.22 2706.31,-281.87 2704.57,-271.05 2704.57,-271.05"/>
</g>
<!-- Metadata -->
<g id="node22" class="node">
<title>Metadata</title>
<polygon fill="none" stroke="black" points="1866,-66.5 1866,-87.5 1961,-87.5 1961,-66.5 1866,-66.5"/>
<text text-anchor="start" x="1875.5" y="-74.3" font-family="Times,serif" font-weight="bold" font-size="14.00">Metadata</text>
<polygon fill="none" stroke="black" points="1866,-4.5 1866,-66.5 1961,-66.5 1961,-4.5 1866,-4.5"/>
<text text-anchor="start" x="1875.5" y="-53.3" font-family="Times,serif" font-style="italic" font-size="14.00">Properties</text>
<text text-anchor="start" x="1869" y="-39.3" font-family="Times,serif" font-size="14.00">ID:String</text>
<text text-anchor="start" x="1869" y="-25.3" font-family="Times,serif" font-size="14.00">name:String</text>
<text text-anchor="start" x="1869" y="-11.3" font-family="Times,serif" font-size="14.00">type:String</text>
<polygon fill="none" stroke="black" points="1864.5,-4 1864.5,-89 1961.5,-89 1961.5,-4 1864.5,-4"/>
</g>
<!-- MetadataCatalog&#45;&gt;Metadata -->
<g id="edge10" class="edge">
<title>MetadataCatalog&#45;&gt;Metadata</title>
<path fill="none" stroke="black" stroke-dasharray="5,2" d="M2489.16,-176.13C2325.29,-139.54 2092.7,-87.62 1979.73,-62.4"/>
<polygon fill="black" stroke="black" points="1969.83,-60.19 1980.57,-57.98 1974.71,-61.28 1979.59,-62.37 1979.59,-62.37 1979.59,-62.37 1974.71,-61.28 1978.61,-66.76 1969.83,-60.19 1969.83,-60.19"/>
</g>
<!-- ViewDefinitionCatalog -->
<g id="node17" class="node">
<title>ViewDefinitionCatalog</title>
<polygon fill="none" stroke="black" points="2729,-541.5 2729,-562.5 2911,-562.5 2911,-541.5 2729,-541.5"/>
<text text-anchor="start" x="2732" y="-549.3" font-family="Times,serif" font-weight="bold" font-size="14.00">ViewDefinitionCatalog</text>
<polygon fill="none" stroke="black" points="2728,-541 2728,-564 2912,-564 2912,-541 2728,-541"/>
</g>
<!-- ViewDefinitionCatalog&#45;&gt;AbstractCatalog -->
<g id="edge8" class="edge">
<title>ViewDefinitionCatalog&#45;&gt;AbstractCatalog</title>
<path fill="none" stroke="black" d="M2816.98,-534.49C2813.69,-515.93 2808.28,-485.38 2803.64,-459.25"/>
<polygon fill="none" stroke="black" points="2807.04,-458.35 2801.85,-449.11 2800.15,-459.57 2807.04,-458.35"/>
</g>
<!-- KameletParseCatalog -->
<g id="node18" class="node">
<title>KameletParseCatalog</title>
<polygon fill="none" stroke="black" points="3942,-712.5 3942,-733.5 4119,-733.5 4119,-712.5 3942,-712.5"/>
<text text-anchor="start" x="3945" y="-720.3" font-family="Times,serif" font-weight="bold" font-size="14.00">KameletParseCatalog</text>
<polygon fill="none" stroke="black" points="3940.5,-712 3940.5,-735 4119.5,-735 4119.5,-712 3940.5,-712"/>
</g>
<!-- ParseCatalog -->
<g id="node19" class="node">
<title>ParseCatalog</title>
<polygon fill="none" stroke="black" points="4138,-565.5 4138,-586.5 4470,-586.5 4470,-565.5 4138,-565.5"/>
<text text-anchor="start" x="4251.5" y="-573.3" font-family="Times,serif" font-weight="bold" font-size="14.00">ParseCatalog</text>
<polygon fill="none" stroke="black" points="4138,-517.5 4138,-565.5 4470,-565.5 4470,-517.5 4138,-517.5"/>
<text text-anchor="start" x="4272.5" y="-552.3" font-family="Times,serif" font-style="italic" font-size="14.00">Methods</text>
<text text-anchor="start" x="4141" y="-538.3" font-family="Times,serif" font-size="14.00">parse():CompletableFuture[List[T]]</text>
<text text-anchor="start" x="4141" y="-524.3" font-family="Times,serif" font-size="14.00">setFileVisitor(&lt;YamlProcessFile&gt; fileVisitor):</text>
<polygon fill="none" stroke="black" points="4137,-517 4137,-588 4471,-588 4471,-517 4137,-517"/>
</g>
<!-- KameletParseCatalog&#45;&gt;ParseCatalog -->
<g id="edge9" class="edge">
<title>KameletParseCatalog&#45;&gt;ParseCatalog</title>
<path fill="none" stroke="black" stroke-dasharray="5,2" d="M4046.12,-705.39C4066.01,-684.98 4101.56,-650.79 4137,-628 4155.06,-616.38 4175.24,-605.71 4195.15,-596.28"/>
<polygon fill="black" stroke="black" points="4204.27,-592.04 4197.1,-600.34 4199.74,-594.15 4195.2,-596.26 4195.2,-596.26 4195.2,-596.26 4199.74,-594.15 4193.31,-592.17 4204.27,-592.04 4204.27,-592.04"/>
</g>
<!-- Kamelet -->
<g id="node20" class="node">
<title>Kamelet</title>
<polygon fill="none" stroke="black" points="4759,-712.5 4759,-733.5 4832,-733.5 4832,-712.5 4759,-712.5"/>
<text text-anchor="start" x="4762" y="-720.3" font-family="Times,serif" font-weight="bold" font-size="14.00">Kamelet</text>
<polygon fill="none" stroke="black" points="4757.5,-712 4757.5,-735 4832.5,-735 4832.5,-712 4757.5,-712"/>
</g>
<!-- KameletBinding -->
<g id="node21" class="node">
<title>KameletBinding</title>
<polygon fill="none" stroke="black" points="4868,-712.5 4868,-733.5 5004,-733.5 5004,-712.5 4868,-712.5"/>
<text text-anchor="start" x="4871" y="-720.3" font-family="Times,serif" font-weight="bold" font-size="14.00">KameletBinding</text>
<polygon fill="none" stroke="black" points="4867,-712 4867,-735 5005,-735 5005,-712 4867,-712"/>
</g>
<!-- CatalogCollection -->
<g id="node23" class="node">
<title>CatalogCollection</title>
<polygon fill="none" stroke="black" points="2970,-398.5 2970,-419.5 3116,-419.5 3116,-398.5 2970,-398.5"/>
<text text-anchor="start" x="2973" y="-406.3" font-family="Times,serif" font-weight="bold" font-size="14.00">CatalogCollection</text>
<polygon fill="none" stroke="black" points="2969,-398 2969,-421 3117,-421 3117,-398 2969,-398"/>
</g>
<!-- CatalogCollection&#45;&gt;MetadataCatalog -->
<g id="edge11" class="edge">
<title>CatalogCollection&#45;&gt;MetadataCatalog</title>
<path fill="none" stroke="black" d="M3022.2,-391.26C3004.31,-376.95 2977.44,-356.63 2952,-342 2909.09,-317.32 2860.31,-294.33 2815.54,-275.04"/>
<polygon fill="none" stroke="black" points="2816.91,-271.83 2806.34,-271.11 2814.16,-278.26 2816.91,-271.83"/>
</g>
<!-- InMemoryCatalog -->
<g id="node24" class="node">
<title>InMemoryCatalog</title>
<polygon fill="none" stroke="black" points="2472,-398.5 2472,-419.5 2620,-419.5 2620,-398.5 2472,-398.5"/>
<text text-anchor="start" x="2475" y="-406.3" font-family="Times,serif" font-weight="bold" font-size="14.00">InMemoryCatalog</text>
<polygon fill="none" stroke="black" points="2471,-398 2471,-421 2621,-421 2621,-398 2471,-398"/>
</g>
<!-- InMemoryCatalog&#45;&gt;MetadataCatalog -->
<g id="edge12" class="edge">
<title>InMemoryCatalog&#45;&gt;MetadataCatalog</title>
<path fill="none" stroke="black" d="M2557.22,-391.3C2573.52,-366.34 2604.56,-318.78 2629.95,-279.87"/>
<polygon fill="none" stroke="black" points="2633.07,-281.49 2635.61,-271.2 2627.21,-277.66 2633.07,-281.49"/>
</g>
<!-- ReadOnlyCatalog -->
<g id="node25" class="node">
<title>ReadOnlyCatalog</title>
<polygon fill="none" stroke="black" points="2972,-541.5 2972,-562.5 3114,-562.5 3114,-541.5 2972,-541.5"/>
<text text-anchor="start" x="2975" y="-549.3" font-family="Times,serif" font-weight="bold" font-size="14.00">ReadOnlyCatalog</text>
<polygon fill="none" stroke="black" points="2971,-541 2971,-564 3115,-564 3115,-541 2971,-541"/>
</g>
<!-- ReadOnlyCatalog&#45;&gt;CatalogCollection -->
<g id="edge13" class="edge">
<title>ReadOnlyCatalog&#45;&gt;CatalogCollection</title>
<path fill="none" stroke="black" d="M3043,-534.49C3043,-510.46 3043,-466.31 3043,-437.7"/>
<polygon fill="none" stroke="black" points="3046.5,-437.57 3043,-427.57 3039.5,-437.57 3046.5,-437.57"/>
</g>
<!-- GitParseCatalog -->
<g id="node26" class="node">
<title>GitParseCatalog</title>
<polygon fill="none" stroke="black" points="4588,-712.5 4588,-733.5 4723,-733.5 4723,-712.5 4588,-712.5"/>
<text text-anchor="start" x="4591" y="-720.3" font-family="Times,serif" font-weight="bold" font-size="14.00">GitParseCatalog</text>
<polygon fill="none" stroke="black" points="4586.5,-712 4586.5,-735 4723.5,-735 4723.5,-712 4586.5,-712"/>
</g>
<!-- GitParseCatalog&#45;&gt;ParseCatalog -->
<g id="edge14" class="edge">
<title>GitParseCatalog&#45;&gt;ParseCatalog</title>
<path fill="none" stroke="black" d="M4644.04,-705.5C4629.45,-684.23 4601.65,-648.17 4569,-628 4544.43,-612.83 4516.7,-600.67 4488.67,-590.94"/>
<polygon fill="none" stroke="black" points="4489.75,-587.61 4479.15,-587.74 4487.51,-594.25 4489.75,-587.61"/>
</g>
<!-- YamlProcessFile -->
<g id="node27" class="node">
<title>YamlProcessFile</title>
<polygon fill="none" stroke="black" points="4588,-541.5 4588,-562.5 4723,-562.5 4723,-541.5 4588,-541.5"/>
<text text-anchor="start" x="4591" y="-549.3" font-family="Times,serif" font-weight="bold" font-size="14.00">YamlProcessFile</text>
<polygon fill="none" stroke="black" points="4586.5,-541 4586.5,-564 4723.5,-564 4723.5,-541 4586.5,-541"/>
</g>
<!-- GitParseCatalog&#45;&gt;YamlProcessFile -->
<g id="edge15" class="edge">
<title>GitParseCatalog&#45;&gt;YamlProcessFile</title>
<path fill="none" stroke="black" stroke-dasharray="5,2" d="M4650.72,-705.37C4647.74,-676.01 4647.45,-615.88 4649.88,-580.73"/>
<polygon fill="black" stroke="black" points="4650.72,-570.68 4654.37,-581.02 4650.3,-575.66 4649.89,-580.65 4649.89,-580.65 4649.89,-580.65 4650.3,-575.66 4645.4,-580.27 4650.72,-570.68 4650.72,-570.68"/>
</g>
<!-- YamlProcessFile&#45;&gt;GitParseCatalog -->
<g id="edge17" class="edge">
<title>YamlProcessFile&#45;&gt;GitParseCatalog</title>
<path fill="none" stroke="black" stroke-dasharray="5,2" d="M4659.28,-570.68C4662.27,-600.07 4662.54,-660.2 4660.12,-695.33"/>
<polygon fill="black" stroke="black" points="4659.28,-705.37 4655.63,-695.02 4659.69,-700.38 4660.11,-695.4 4660.11,-695.4 4660.11,-695.4 4659.69,-700.38 4664.59,-695.78 4659.28,-705.37 4659.28,-705.37"/>
</g>
<!-- JarParseCatalog -->
<g id="node28" class="node">
<title>JarParseCatalog</title>
<polygon fill="none" stroke="black" points="4155,-712.5 4155,-733.5 4289,-733.5 4289,-712.5 4155,-712.5"/>
<text text-anchor="start" x="4158" y="-720.3" font-family="Times,serif" font-weight="bold" font-size="14.00">JarParseCatalog</text>
<polygon fill="none" stroke="black" points="4154,-712 4154,-735 4290,-735 4290,-712 4154,-712"/>
</g>
<!-- JarParseCatalog&#45;&gt;ParseCatalog -->
<g id="edge16" class="edge">
<title>JarParseCatalog&#45;&gt;ParseCatalog</title>
<path fill="none" stroke="black" d="M4230.31,-705.37C4242.05,-681.18 4263.93,-636.09 4280.81,-601.3"/>
<polygon fill="none" stroke="black" points="4283.98,-602.77 4285.2,-592.25 4277.69,-599.72 4283.98,-602.77"/>
</g>
<!-- ViewDefinitionParseCatalog -->
<g id="node29" class="node">
<title>ViewDefinitionParseCatalog</title>
<polygon fill="none" stroke="black" points="4325,-712.5 4325,-733.5 4551,-733.5 4551,-712.5 4325,-712.5"/>
<text text-anchor="start" x="4328" y="-720.3" font-family="Times,serif" font-weight="bold" font-size="14.00">ViewDefinitionParseCatalog</text>
<polygon fill="none" stroke="black" points="4324,-712 4324,-735 4552,-735 4552,-712 4324,-712"/>
</g>
<!-- ViewDefinitionParseCatalog&#45;&gt;ParseCatalog -->
<g id="edge18" class="edge">
<title>ViewDefinitionParseCatalog&#45;&gt;ParseCatalog</title>
<path fill="none" stroke="black" stroke-dasharray="5,2" d="M4424.41,-705.37C4405.07,-680.97 4368.88,-635.32 4341.2,-600.42"/>
<polygon fill="black" stroke="black" points="4334.72,-592.25 4344.46,-597.29 4337.83,-596.17 4340.94,-600.08 4340.94,-600.08 4340.94,-600.08 4337.83,-596.17 4337.41,-602.88 4334.72,-592.25 4334.72,-592.25"/>
</g>
<!-- Parameter -->
<g id="node30" class="node">
<title>Parameter</title>
<polygon fill="none" stroke="black" points="5040,-792.5 5040,-813.5 5176,-813.5 5176,-792.5 5040,-792.5"/>
<text text-anchor="start" x="5066" y="-800.3" font-family="Times,serif" font-weight="bold" font-size="14.00">Parameter</text>
<polygon fill="none" stroke="black" points="5040,-632.5 5040,-792.5 5176,-792.5 5176,-632.5 5040,-632.5"/>
<text text-anchor="start" x="5070" y="-779.3" font-family="Times,serif" font-style="italic" font-size="14.00">Properties</text>
<text text-anchor="start" x="5043" y="-765.3" font-family="Times,serif" font-size="14.00">description:String</text>
<text text-anchor="start" x="5043" y="-751.3" font-family="Times,serif" font-size="14.00">title:String</text>
<text text-anchor="start" x="5043" y="-737.3" font-family="Times,serif" font-size="14.00">id:String</text>
<text text-anchor="start" x="5043" y="-723.3" font-family="Times,serif" font-size="14.00">value:Object</text>
<text text-anchor="start" x="5043" y="-709.3" font-family="Times,serif" font-size="14.00">default:Object</text>
<text text-anchor="start" x="5043" y="-695.3" font-family="Times,serif" font-size="14.00">type:String</text>
<text text-anchor="start" x="5043" y="-681.3" font-family="Times,serif" font-size="14.00">path:Boolean</text>
<text text-anchor="start" x="5043" y="-667.3" font-family="Times,serif" font-size="14.00">nullable:Boolean</text>
<text text-anchor="start" x="5043" y="-653.3" font-family="Times,serif" font-size="14.00">enum:Object[]</text>
<text text-anchor="start" x="5043" y="-639.3" font-family="Times,serif" font-size="14.00">examples:Object[]</text>
<polygon fill="none" stroke="black" points="5039,-632 5039,-815 5177,-815 5177,-632 5039,-632"/>
</g>
<!-- Branch -->
<g id="node31" class="node">
<title>Branch</title>
<polygon fill="none" stroke="black" points="5212,-712.5 5212,-733.5 5276,-733.5 5276,-712.5 5212,-712.5"/>
<text text-anchor="start" x="5215" y="-720.3" font-family="Times,serif" font-weight="bold" font-size="14.00">Branch</text>
<polygon fill="none" stroke="black" points="5211,-712 5211,-735 5277,-735 5277,-712 5211,-712"/>
</g>
<!-- Step&#45;&gt;Metadata -->
<g id="edge19" class="edge">
<title>Step&#45;&gt;Metadata</title>
<path fill="none" stroke="black" d="M1020.36,-197.61C1230.55,-162.26 1677.24,-87.15 1846.29,-58.72"/>
<polygon fill="none" stroke="black" points="1847.02,-62.14 1856.3,-57.03 1845.86,-55.24 1847.02,-62.14"/>
</g>
<!-- ViewDefinition&#45;&gt;Metadata -->
<g id="edge20" class="edge">
<title>ViewDefinition&#45;&gt;Metadata</title>
<path fill="none" stroke="black" d="M1913,-163.95C1913,-144.73 1913,-122.93 1913,-103.43"/>
<polygon fill="none" stroke="black" points="1916.5,-103.16 1913,-93.16 1909.5,-103.16 1916.5,-103.16"/>
</g>
<!-- ViewDefinitionConstraint -->
<g id="node34" class="node">
<title>ViewDefinitionConstraint</title>
<polygon fill="none" stroke="black" points="1576,-429.5 1576,-450.5 1802,-450.5 1802,-429.5 1576,-429.5"/>
<text text-anchor="start" x="1588.5" y="-437.3" font-family="Times,serif" font-weight="bold" font-size="14.00">ViewDefinitionConstraint</text>
<polygon fill="none" stroke="black" points="1576,-367.5 1576,-429.5 1802,-429.5 1802,-367.5 1576,-367.5"/>
<text text-anchor="start" x="1651" y="-416.3" font-family="Times,serif" font-style="italic" font-size="14.00">Properties</text>
<text text-anchor="start" x="1579" y="-402.3" font-family="Times,serif" font-size="14.00">mandatory:boolean</text>
<text text-anchor="start" x="1579" y="-388.3" font-family="Times,serif" font-size="14.00">operation:ConstraintOperation</text>
<text text-anchor="start" x="1579" y="-374.3" font-family="Times,serif" font-size="14.00">parameter:String</text>
<polygon fill="none" stroke="black" points="1575,-367 1575,-452 1803,-452 1803,-367 1575,-367"/>
</g>
<!-- ViewDefinitionConstraint&#45;&gt;ViewDefinition -->
<g id="edge21" class="edge">
<title>ViewDefinitionConstraint&#45;&gt;ViewDefinition</title>
<path fill="none" stroke="black" d="M1742.65,-362.99C1772.34,-337.81 1809.61,-306.19 1841.72,-278.96"/>
<polygon fill="black" stroke="black" points="1841.91,-278.8 1843.9,-271.87 1851.06,-271.04 1849.08,-277.97 1841.91,-278.8"/>
<text text-anchor="middle" x="1728.65" y="-351.79" font-family="Times,serif" font-size="14.00">0..n</text>
</g>
<!-- DeploymentGeneratorService -->
<g id="node35" class="node">
<title>DeploymentGeneratorService</title>
<polygon fill="none" stroke="black" points="364,-450.5 364,-471.5 744,-471.5 744,-450.5 364,-450.5"/>
<text text-anchor="start" x="438" y="-458.3" font-family="Times,serif" font-weight="bold" font-size="14.00">DeploymentGeneratorService</text>
<polygon fill="none" stroke="black" points="364,-346.5 364,-450.5 744,-450.5 744,-346.5 364,-346.5"/>
<text text-anchor="start" x="522.5" y="-437.3" font-family="Times,serif" font-style="italic" font-size="14.00">Methods</text>
<text text-anchor="start" x="367" y="-423.3" font-family="Times,serif" font-size="14.00">identifier():String</text>
<text text-anchor="start" x="367" y="-409.3" font-family="Times,serif" font-size="14.00">description():String</text>
<text text-anchor="start" x="367" y="-395.3" font-family="Times,serif" font-size="14.00">parse(&lt;List[Step]&gt; steps, &lt;Map&gt; metadata):String</text>
<text text-anchor="start" x="367" y="-381.3" font-family="Times,serif" font-size="14.00">appliesTo(&lt;List[Step]&gt; steps):boolean</text>
<text text-anchor="start" x="367" y="-367.3" font-family="Times,serif" font-size="14.00">supportedCustomResources():List&lt;Class&gt;</text>
<text text-anchor="start" x="367" y="-353.3" font-family="Times,serif" font-size="14.00">getKinds():String[]</text>
<polygon fill="none" stroke="black" points="363,-346 363,-473 745,-473 745,-346 363,-346"/>
</g>
<!-- DeploymentGeneratorService&#45;&gt;Step -->
<g id="edge22" class="edge">
<title>DeploymentGeneratorService&#45;&gt;Step</title>
<path fill="none" stroke="black" stroke-dasharray="5,2" d="M678.31,-341.78C713.57,-322.85 751.9,-302.28 786.97,-283.46"/>
<polygon fill="black" stroke="black" points="795.81,-278.72 789.13,-287.41 791.4,-281.08 787,-283.44 787,-283.44 787,-283.44 791.4,-281.08 784.87,-279.48 795.81,-278.72 795.81,-278.72"/>
</g>
</g>
</svg>
