<?xml version="1.0" encoding="UTF-8" standalone="no"?>
<!DOCTYPE svg PUBLIC "-//W3C//DTD SVG 1.1//EN"
 "http://www.w3.org/Graphics/SVG/1.1/DTD/svg11.dtd">
<!-- Generated by graphviz version 2.43.0 (0)
 -->
<!-- Title: ClassDiagram Pages: 1 -->
<svg width="5144pt" height="869pt"
 viewBox="0.00 0.00 5143.50 869.00" xmlns="http://www.w3.org/2000/svg" xmlns:xlink="http://www.w3.org/1999/xlink">
<g id="graph0" class="graph" transform="scale(1 1) rotate(0) translate(4 865)">
<title>ClassDiagram</title>
<polygon fill="white" stroke="transparent" points="-4,4 -4,-865 5139.5,-865 5139.5,4 -4,4"/>
<!-- DeploymentResource -->
<g id="node1" class="node">
<title>DeploymentResource</title>
<polygon fill="none" stroke="black" points="9.5,-607.5 9.5,-628.5 536.5,-628.5 536.5,-607.5 9.5,-607.5"/>
<text text-anchor="start" x="188.5" y="-615.3" font-family="Times,serif" font-weight="bold" font-size="14.00">DeploymentResource</text>
<polygon fill="none" stroke="black" points="9.5,-503.5 9.5,-607.5 536.5,-607.5 536.5,-503.5 9.5,-503.5"/>
<text text-anchor="start" x="241.5" y="-594.3" font-family="Times,serif" font-style="italic" font-size="14.00">Methods</text>
<text text-anchor="start" x="12.5" y="-580.3" font-family="Times,serif" font-size="14.00">yaml(&lt;DeploymentResourceYamlRequest&gt; steps, &lt;String&gt; dsl):String[]</text>
<text text-anchor="start" x="12.5" y="-566.3" font-family="Times,serif" font-size="14.00">start(&lt;DeploymentResourceYamlRequest&gt; steps):String</text>
<text text-anchor="start" x="12.5" y="-552.3" font-family="Times,serif" font-size="14.00">integrations():String</text>
<text text-anchor="start" x="12.5" y="-538.3" font-family="Times,serif" font-size="14.00">stop():String</text>
<text text-anchor="start" x="12.5" y="-524.3" font-family="Times,serif" font-size="14.00">all():String</text>
<text text-anchor="start" x="12.5" y="-510.3" font-family="Times,serif" font-size="14.00">get():String</text>
<polygon fill="none" stroke="black" points="8,-503 8,-630 537,-630 537,-503 8,-503"/>
</g>
<!-- DeploymentService -->
<g id="node2" class="node">
<title>DeploymentService</title>
<text text-anchor="middle" x="272.5" y="-761.8" font-family="Times,serif" font-size="14.00">DeploymentService</text>
</g>
<!-- DeploymentService&#45;&gt;DeploymentResource -->
<g id="edge1" class="edge">
<title>DeploymentService&#45;&gt;DeploymentResource</title>
<path fill="none" stroke="black" d="M268.49,-747.36C266.28,-724.82 265.41,-683.7 265.87,-646.47"/>
<polygon fill="black" stroke="black" points="265.88,-646.02 261.98,-639.95 266.08,-634.02 269.98,-640.09 265.88,-646.02"/>
<text text-anchor="middle" x="254.49" y="-736.16" font-family="Times,serif" font-size="14.00">0..1</text>
</g>
<!-- DeploymentService&#45;&gt;DeploymentResource -->
<g id="edge2" class="edge">
<title>DeploymentService&#45;&gt;DeploymentResource</title>
<path fill="none" stroke="black" d="M276.51,-747.36C278.72,-724.82 279.59,-683.7 279.13,-646.47"/>
<polygon fill="black" stroke="black" points="279.12,-646.02 275.02,-640.09 278.92,-634.02 283.02,-639.95 279.12,-646.02"/>
<text text-anchor="middle" x="290.51" y="-736.16" font-family="Times,serif" font-size="14.00">0..1</text>
</g>
<!-- IntegrationsResource -->
<g id="node8" class="node">
<title>IntegrationsResource</title>
<polygon fill="none" stroke="black" points="572.5,-572.5 572.5,-593.5 921.5,-593.5 921.5,-572.5 572.5,-572.5"/>
<text text-anchor="start" x="660.5" y="-580.3" font-family="Times,serif" font-weight="bold" font-size="14.00">IntegrationsResource</text>
<polygon fill="none" stroke="black" points="572.5,-538.5 572.5,-572.5 921.5,-572.5 921.5,-538.5 572.5,-538.5"/>
<text text-anchor="start" x="715.5" y="-559.3" font-family="Times,serif" font-style="italic" font-size="14.00">Methods</text>
<text text-anchor="start" x="575.5" y="-545.3" font-family="Times,serif" font-size="14.00">crd(&lt;String&gt; dsl):Map&lt;String, Map&lt;String&gt;&gt;</text>
<polygon fill="none" stroke="black" points="571,-538 571,-595 922,-595 922,-538 571,-538"/>
</g>
<!-- DeploymentService&#45;&gt;IntegrationsResource -->
<g id="edge7" class="edge">
<title>DeploymentService&#45;&gt;IntegrationsResource</title>
<path fill="none" stroke="black" d="M313.74,-747.36C390.48,-715.47 556.74,-646.37 659.38,-603.71"/>
<polygon fill="black" stroke="black" points="659.57,-603.63 663.57,-597.63 670.65,-599.02 666.64,-605.02 659.57,-603.63"/>
<text text-anchor="middle" x="327.74" y="-736.16" font-family="Times,serif" font-size="14.00">0..1</text>
</g>
<!-- LanguageResource 🐱relationship compositionOf LanguageService, 0..1 -->
<g id="node3" class="node">
<title>LanguageResource 🐱relationship compositionOf LanguageService, 0..1</title>
<polygon fill="none" stroke="black" points="1026.5,-771.5 1026.5,-792.5 1596.5,-792.5 1596.5,-771.5 1026.5,-771.5"/>
<text text-anchor="start" x="1029.5" y="-779.3" font-family="Times,serif" font-weight="bold" font-size="14.00">LanguageResource 🐱relationship compositionOf LanguageService, 0..1</text>
<polygon fill="none" stroke="black" points="1026.5,-737.5 1026.5,-771.5 1596.5,-771.5 1596.5,-737.5 1026.5,-737.5"/>
<text text-anchor="start" x="1280" y="-758.3" font-family="Times,serif" font-style="italic" font-size="14.00">Methods</text>
<text text-anchor="start" x="1267" y="-744.3" font-family="Times,serif" font-size="14.00">getAll():Map</text>
<polygon fill="none" stroke="black" points="1025.5,-737 1025.5,-794 1597.5,-794 1597.5,-737 1025.5,-737"/>
</g>
<!-- StepResource -->
<g id="node4" class="node">
<title>StepResource</title>
<polygon fill="none" stroke="black" points="2256.5,-799.5 2256.5,-820.5 2728.5,-820.5 2728.5,-799.5 2256.5,-799.5"/>
<text text-anchor="start" x="2438" y="-807.3" font-family="Times,serif" font-weight="bold" font-size="14.00">StepResource</text>
<polygon fill="none" stroke="black" points="2256.5,-709.5 2256.5,-799.5 2728.5,-799.5 2728.5,-709.5 2256.5,-709.5"/>
<text text-anchor="start" x="2461" y="-786.3" font-family="Times,serif" font-style="italic" font-size="14.00">Methods</text>
<text text-anchor="start" x="2259.5" y="-772.3" font-family="Times,serif" font-size="14.00">stepById(&lt;String&gt; id):Step</text>
<text text-anchor="start" x="2259.5" y="-758.3" font-family="Times,serif" font-size="14.00">stepsByName(&lt;String&gt; name):List[Step]</text>
<text text-anchor="start" x="2259.5" y="-744.3" font-family="Times,serif" font-size="14.00">stepsByKind(&lt;String&gt; type):List[Step]</text>
<text text-anchor="start" x="2259.5" y="-730.3" font-family="Times,serif" font-size="14.00">stepsByIntegrationType(&lt;String&gt; type):List[Step]</text>
<text text-anchor="start" x="2259.5" y="-716.3" font-family="Times,serif" font-size="14.00">allSteps(&lt;String&gt; type, &lt;String&gt; dsl, &lt;String&gt; kind):List[Step]</text>
<polygon fill="none" stroke="black" points="2255.5,-709 2255.5,-822 2729.5,-822 2729.5,-709 2255.5,-709"/>
</g>
<!-- StepCatalog -->
<g id="node5" class="node">
<title>StepCatalog</title>
<polygon fill="none" stroke="black" points="2441.5,-555.5 2441.5,-576.5 2543.5,-576.5 2543.5,-555.5 2441.5,-555.5"/>
<text text-anchor="start" x="2444.5" y="-563.3" font-family="Times,serif" font-weight="bold" font-size="14.00">StepCatalog</text>
<polygon fill="none" stroke="black" points="2440.5,-555 2440.5,-578 2544.5,-578 2544.5,-555 2440.5,-555"/>
</g>
<!-- StepResource&#45;&gt;StepCatalog -->
<g id="edge3" class="edge">
<title>StepResource&#45;&gt;StepCatalog</title>
<path fill="none" stroke="black" stroke-dasharray="5,2" d="M2486.24,-704.86C2485.27,-668.27 2485.74,-623.16 2487.66,-594.85"/>
<polygon fill="black" stroke="black" points="2488.5,-584.53 2492.17,-594.86 2488.09,-589.51 2487.69,-594.49 2487.69,-594.49 2487.69,-594.49 2488.09,-589.51 2483.2,-594.13 2488.5,-584.53 2488.5,-584.53"/>
</g>
<!-- StepResource&#45;&gt;StepCatalog -->
<g id="edge4" class="edge">
<title>StepResource&#45;&gt;StepCatalog</title>
<path fill="none" stroke="black" stroke-dasharray="5,2" d="M2498.76,-704.86C2499.73,-668.27 2499.26,-623.16 2497.34,-594.85"/>
<polygon fill="black" stroke="black" points="2496.5,-584.53 2501.8,-594.13 2496.91,-589.51 2497.31,-594.49 2497.31,-594.49 2497.31,-594.49 2496.91,-589.51 2492.83,-594.86 2496.5,-584.53 2496.5,-584.53"/>
</g>
<!-- AbstractCatalog -->
<g id="node15" class="node">
<title>AbstractCatalog</title>
<polygon fill="none" stroke="black" points="2506.5,-415.5 2506.5,-436.5 2784.5,-436.5 2784.5,-415.5 2506.5,-415.5"/>
<text text-anchor="start" x="2582" y="-423.3" font-family="Times,serif" font-weight="bold" font-size="14.00">AbstractCatalog</text>
<polygon fill="none" stroke="black" points="2506.5,-367.5 2506.5,-415.5 2784.5,-415.5 2784.5,-367.5 2506.5,-367.5"/>
<text text-anchor="start" x="2614" y="-402.3" font-family="Times,serif" font-style="italic" font-size="14.00">Methods</text>
<text text-anchor="start" x="2509.5" y="-388.3" font-family="Times,serif" font-size="14.00">waitForWarmUp():CompletableFuture</text>
<text text-anchor="start" x="2509.5" y="-374.3" font-family="Times,serif" font-size="14.00">loadParsers():List[ParseCatalog]</text>
<polygon fill="none" stroke="black" points="2505.5,-367 2505.5,-438 2785.5,-438 2785.5,-367 2505.5,-367"/>
</g>
<!-- StepCatalog&#45;&gt;AbstractCatalog -->
<g id="edge11" class="edge">
<title>StepCatalog&#45;&gt;AbstractCatalog</title>
<path fill="none" stroke="black" d="M2508.58,-548.47C2530.55,-525.21 2570.77,-482.62 2601.96,-449.6"/>
<polygon fill="none" stroke="black" points="2604.55,-451.96 2608.87,-442.29 2599.46,-447.15 2604.55,-451.96"/>
</g>
<!-- ViewDefinitionResource -->
<g id="node6" class="node">
<title>ViewDefinitionResource</title>
<polygon fill="none" stroke="black" points="922.5,-415.5 922.5,-436.5 1390.5,-436.5 1390.5,-415.5 922.5,-415.5"/>
<text text-anchor="start" x="1061.5" y="-423.3" font-family="Times,serif" font-weight="bold" font-size="14.00">ViewDefinitionResource</text>
<polygon fill="none" stroke="black" points="922.5,-367.5 922.5,-415.5 1390.5,-415.5 1390.5,-367.5 922.5,-367.5"/>
<text text-anchor="start" x="1125" y="-402.3" font-family="Times,serif" font-style="italic" font-size="14.00">Methods</text>
<text text-anchor="start" x="925.5" y="-388.3" font-family="Times,serif" font-size="14.00">views:(&lt;String&gt; yaml):</text>
<text text-anchor="start" x="925.5" y="-374.3" font-family="Times,serif" font-size="14.00">viewsPerStepList:(&lt;Step[]&gt; DeploymentResourceYamlRequest):</text>
<polygon fill="none" stroke="black" points="921.5,-367 921.5,-438 1391.5,-438 1391.5,-367 921.5,-367"/>
</g>
<!-- ViewDefinitionService -->
<g id="node7" class="node">
<title>ViewDefinitionService</title>
<polygon fill="none" stroke="black" points="957.5,-572.5 957.5,-593.5 1355.5,-593.5 1355.5,-572.5 957.5,-572.5"/>
<text text-anchor="start" x="1070" y="-580.3" font-family="Times,serif" font-weight="bold" font-size="14.00">ViewDefinitionService</text>
<polygon fill="none" stroke="black" points="957.5,-538.5 957.5,-572.5 1355.5,-572.5 1355.5,-538.5 957.5,-538.5"/>
<text text-anchor="start" x="1125" y="-559.3" font-family="Times,serif" font-style="italic" font-size="14.00">Methods</text>
<text text-anchor="start" x="960.5" y="-545.3" font-family="Times,serif" font-size="14.00">viewsPerStepList(&lt;Step[]&gt; steps):List[ViewDefinition]</text>
<polygon fill="none" stroke="black" points="956.5,-538 956.5,-595 1356.5,-595 1356.5,-538 956.5,-538"/>
</g>
<!-- ViewDefinitionService&#45;&gt;ViewDefinitionResource -->
<g id="edge5" class="edge">
<title>ViewDefinitionService&#45;&gt;ViewDefinitionResource</title>
<path fill="none" stroke="black" d="M1151.02,-533.88C1149.68,-511.33 1149.4,-480.52 1150.18,-454.51"/>
<polygon fill="black" stroke="black" points="1150.19,-454.18 1146.42,-448.03 1150.65,-442.18 1154.42,-448.33 1150.19,-454.18"/>
<text text-anchor="middle" x="1137.02" y="-522.68" font-family="Times,serif" font-size="14.00">0..1</text>
</g>
<!-- ViewDefinitionService&#45;&gt;ViewDefinitionResource -->
<g id="edge6" class="edge">
<title>ViewDefinitionService&#45;&gt;ViewDefinitionResource</title>
<path fill="none" stroke="black" d="M1161.98,-533.88C1163.32,-511.33 1163.6,-480.52 1162.82,-454.51"/>
<polygon fill="black" stroke="black" points="1162.81,-454.18 1158.58,-448.33 1162.35,-442.18 1166.58,-448.03 1162.81,-454.18"/>
<text text-anchor="middle" x="1175.98" y="-522.68" font-family="Times,serif" font-size="14.00">0..1</text>
</g>
<!-- StepParserService -->
<g id="node13" class="node">
<title>StepParserService</title>
<polygon fill="none" stroke="black" points="633.5,-429.5 633.5,-450.5 886.5,-450.5 886.5,-429.5 633.5,-429.5"/>
<text text-anchor="start" x="687.5" y="-437.3" font-family="Times,serif" font-weight="bold" font-size="14.00">StepParserService</text>
<polygon fill="none" stroke="black" points="633.5,-353.5 633.5,-429.5 886.5,-429.5 886.5,-353.5 633.5,-353.5"/>
<text text-anchor="start" x="728.5" y="-416.3" font-family="Times,serif" font-style="italic" font-size="14.00">Methods</text>
<text text-anchor="start" x="636.5" y="-402.3" font-family="Times,serif" font-size="14.00">identifier():String</text>
<text text-anchor="start" x="636.5" y="-388.3" font-family="Times,serif" font-size="14.00">description():String</text>
<text text-anchor="start" x="636.5" y="-374.3" font-family="Times,serif" font-size="14.00">parse(&lt;String&gt; yaml):List[Step]</text>
<text text-anchor="start" x="636.5" y="-360.3" font-family="Times,serif" font-size="14.00">appliesTo(&lt;String&gt; yaml):boolean</text>
<polygon fill="none" stroke="black" points="632,-353 632,-452 887,-452 887,-353 632,-353"/>
</g>
<!-- ViewDefinitionService&#45;&gt;StepParserService -->
<g id="edge8" class="edge">
<title>ViewDefinitionService&#45;&gt;StepParserService</title>
<path fill="none" stroke="black" stroke-dasharray="5,2" d="M1078.71,-533.93C1028.89,-513.7 962.87,-486.85 904.5,-463 901.99,-461.97 899.45,-460.94 896.9,-459.89"/>
<polygon fill="black" stroke="black" points="887.58,-456.08 898.54,-455.7 892.21,-457.98 896.84,-459.87 896.84,-459.87 896.84,-459.87 892.21,-457.98 895.13,-464.03 887.58,-456.08 887.58,-456.08"/>
</g>
<!-- ViewDefinitionParserService -->
<g id="node14" class="node">
<title>ViewDefinitionParserService</title>
<polygon fill="none" stroke="black" points="1688.5,-422.5 1688.5,-443.5 2286.5,-443.5 2286.5,-422.5 1688.5,-422.5"/>
<text text-anchor="start" x="1875" y="-430.3" font-family="Times,serif" font-weight="bold" font-size="14.00">ViewDefinitionParserService</text>
<polygon fill="none" stroke="black" points="1688.5,-360.5 1688.5,-422.5 2286.5,-422.5 2286.5,-360.5 1688.5,-360.5"/>
<text text-anchor="start" x="1956" y="-409.3" font-family="Times,serif" font-style="italic" font-size="14.00">Methods</text>
<text text-anchor="start" x="1691.5" y="-395.3" font-family="Times,serif" font-size="14.00">parse(&lt;List[Step]&gt; steps):List[ViewDefinition]</text>
<text text-anchor="start" x="1691.5" y="-381.3" font-family="Times,serif" font-size="14.00">getViewsPerStep(&lt;List[Step]&gt; steps, &lt;ViewDefinition&gt; view):List[ViewDefinition]</text>
<text text-anchor="start" x="1691.5" y="-367.3" font-family="Times,serif" font-size="14.00">appliesTo(&lt;List[Step]&gt; steps, &lt;ViewDefinition&gt; viewDefinition):boolean</text>
<polygon fill="none" stroke="black" points="1687.5,-360 1687.5,-445 2287.5,-445 2287.5,-360 1687.5,-360"/>
</g>
<!-- ViewDefinitionService&#45;&gt;ViewDefinitionParserService -->
<g id="edge9" class="edge">
<title>ViewDefinitionService&#45;&gt;ViewDefinitionParserService</title>
<path fill="none" stroke="black" stroke-dasharray="5,2" d="M1318.2,-533.98C1439.24,-510.38 1606.86,-477.7 1744.07,-450.96"/>
<polygon fill="black" stroke="black" points="1753.89,-449.04 1744.94,-455.37 1748.98,-450 1744.08,-450.95 1744.08,-450.95 1744.08,-450.95 1748.98,-450 1743.22,-446.54 1753.89,-449.04 1753.89,-449.04"/>
</g>
<!-- Capabilities -->
<g id="node9" class="node">
<title>Capabilities</title>
<polygon fill="none" stroke="black" points="2764.5,-754.5 2764.5,-775.5 2864.5,-775.5 2864.5,-754.5 2764.5,-754.5"/>
<text text-anchor="start" x="2767.5" y="-762.3" font-family="Times,serif" font-weight="bold" font-size="14.00">Capabilities</text>
<polygon fill="none" stroke="black" points="2763.5,-754 2763.5,-777 2865.5,-777 2865.5,-754 2763.5,-754"/>
</g>
<!-- Integration -->
<g id="node10" class="node">
<title>Integration</title>
<polygon fill="none" stroke="black" points="2901.5,-754.5 2901.5,-775.5 2998.5,-775.5 2998.5,-754.5 2901.5,-754.5"/>
<text text-anchor="start" x="2904.5" y="-762.3" font-family="Times,serif" font-weight="bold" font-size="14.00">Integration</text>
<polygon fill="none" stroke="black" points="2900,-754 2900,-777 2999,-777 2999,-754 2900,-754"/>
</g>
<!-- DeploymentService This endpoint will return a list of views based on -->
<g id="node11" class="node">
<title>DeploymentService This endpoint will return a list of views based on</title>
<polygon fill="none" stroke="black" points="3034.5,-771.5 3034.5,-792.5 3579.5,-792.5 3579.5,-771.5 3034.5,-771.5"/>
<text text-anchor="start" x="3037.5" y="-779.3" font-family="Times,serif" font-weight="bold" font-size="14.00">DeploymentService This endpoint will return a list of views based on</text>
<polygon fill="none" stroke="black" points="3034.5,-737.5 3034.5,-771.5 3579.5,-771.5 3579.5,-737.5 3034.5,-737.5"/>
<text text-anchor="start" x="3275.5" y="-758.3" font-family="Times,serif" font-style="italic" font-size="14.00">Methods</text>
<text text-anchor="start" x="3130" y="-744.3" font-family="Times,serif" font-size="14.00">yaml(&lt;List[Step]&gt; steps, &lt;String&gt; name):String</text>
<polygon fill="none" stroke="black" points="3033,-737 3033,-794 3580,-794 3580,-737 3033,-737"/>
</g>
<!-- LanguageService -->
<g id="node12" class="node">
<title>LanguageService</title>
<polygon fill="none" stroke="black" points="3615.5,-771.5 3615.5,-792.5 3756.5,-792.5 3756.5,-771.5 3615.5,-771.5"/>
<text text-anchor="start" x="3618.5" y="-779.3" font-family="Times,serif" font-weight="bold" font-size="14.00">LanguageService</text>
<polygon fill="none" stroke="black" points="3615.5,-737.5 3615.5,-771.5 3756.5,-771.5 3756.5,-737.5 3615.5,-737.5"/>
<text text-anchor="start" x="3654.5" y="-758.3" font-family="Times,serif" font-style="italic" font-size="14.00">Methods</text>
<text text-anchor="start" x="3641.5" y="-744.3" font-family="Times,serif" font-size="14.00">getAll():Map</text>
<polygon fill="none" stroke="black" points="3614,-737 3614,-794 3757,-794 3757,-737 3614,-737"/>
</g>
<!-- Step -->
<g id="node32" class="node">
<title>Step</title>
<polygon fill="none" stroke="black" points="656.5,-279.5 656.5,-300.5 862.5,-300.5 862.5,-279.5 656.5,-279.5"/>
<text text-anchor="start" x="741.5" y="-287.3" font-family="Times,serif" font-weight="bold" font-size="14.00">Step</text>
<polygon fill="none" stroke="black" points="656.5,-133.5 656.5,-279.5 862.5,-279.5 862.5,-133.5 656.5,-133.5"/>
<text text-anchor="start" x="721.5" y="-266.3" font-family="Times,serif" font-style="italic" font-size="14.00">Properties</text>
<text text-anchor="start" x="659.5" y="-252.3" font-family="Times,serif" font-size="14.00">description:String</text>
<text text-anchor="start" x="659.5" y="-238.3" font-family="Times,serif" font-size="14.00">title:String</text>
<text text-anchor="start" x="659.5" y="-224.3" font-family="Times,serif" font-size="14.00">parameters:List[Parameter]</text>
<text text-anchor="start" x="659.5" y="-210.3" font-family="Times,serif" font-size="14.00">icon:String</text>
<text text-anchor="start" x="659.5" y="-196.3" font-family="Times,serif" font-size="14.00">UUID:String</text>
<text text-anchor="start" x="659.5" y="-182.3" font-family="Times,serif" font-size="14.00">required:String[]</text>
<text text-anchor="start" x="659.5" y="-168.3" font-family="Times,serif" font-size="14.00">group:String</text>
<text text-anchor="start" x="659.5" y="-154.3" font-family="Times,serif" font-size="14.00">kind:String</text>
<text text-anchor="start" x="659.5" y="-140.3" font-family="Times,serif" font-size="14.00">branches:Branch[]</text>
<polygon fill="none" stroke="black" points="655.5,-133 655.5,-302 863.5,-302 863.5,-133 655.5,-133"/>
</g>
<!-- StepParserService&#45;&gt;Step -->
<g id="edge27" class="edge">
<title>StepParserService&#45;&gt;Step</title>
<path fill="none" stroke="black" stroke-dasharray="5,2" d="M759.5,-348.57C759.5,-338.39 759.5,-327.42 759.5,-316.33"/>
<polygon fill="black" stroke="black" points="759.5,-306.14 764,-316.13 759.5,-311.14 759.5,-316.14 759.5,-316.14 759.5,-316.14 759.5,-311.14 755,-316.14 759.5,-306.14 759.5,-306.14"/>
</g>
<!-- ViewDefinition -->
<g id="node33" class="node">
<title>ViewDefinition</title>
<polygon fill="none" stroke="black" points="1609.5,-244.5 1609.5,-265.5 1918.5,-265.5 1918.5,-244.5 1609.5,-244.5"/>
<text text-anchor="start" x="1706" y="-252.3" font-family="Times,serif" font-weight="bold" font-size="14.00">ViewDefinition</text>
<polygon fill="none" stroke="black" points="1609.5,-168.5 1609.5,-244.5 1918.5,-244.5 1918.5,-168.5 1609.5,-168.5"/>
<text text-anchor="start" x="1726" y="-231.3" font-family="Times,serif" font-style="italic" font-size="14.00">Properties</text>
<text text-anchor="start" x="1612.5" y="-217.3" font-family="Times,serif" font-size="14.00">properties:Map[String, String]</text>
<text text-anchor="start" x="1612.5" y="-203.3" font-family="Times,serif" font-size="14.00">step:Step</text>
<text text-anchor="start" x="1612.5" y="-189.3" font-family="Times,serif" font-size="14.00">url:String</text>
<text text-anchor="start" x="1612.5" y="-175.3" font-family="Times,serif" font-size="14.00">constraints:List[ViewDefinitionConstraint]</text>
<polygon fill="none" stroke="black" points="1608,-168 1608,-267 1919,-267 1919,-168 1608,-168"/>
</g>
<!-- ViewDefinitionParserService&#45;&gt;ViewDefinition -->
<g id="edge28" class="edge">
<title>ViewDefinitionParserService&#45;&gt;ViewDefinition</title>
<path fill="none" stroke="black" stroke-dasharray="5,2" d="M1931.55,-355.79C1902.52,-332.08 1866.73,-302.83 1835.64,-277.44"/>
<polygon fill="black" stroke="black" points="1827.85,-271.07 1838.44,-273.91 1831.72,-274.23 1835.59,-277.39 1835.59,-277.39 1835.59,-277.39 1831.72,-274.23 1832.74,-280.88 1827.85,-271.07 1827.85,-271.07"/>
</g>
<!-- MetadataCatalog -->
<g id="node16" class="node">
<title>MetadataCatalog</title>
<polygon fill="none" stroke="black" points="2349.5,-244.5 2349.5,-265.5 2692.5,-265.5 2692.5,-244.5 2349.5,-244.5"/>
<text text-anchor="start" x="2453" y="-252.3" font-family="Times,serif" font-weight="bold" font-size="14.00">MetadataCatalog</text>
<polygon fill="none" stroke="black" points="2349.5,-168.5 2349.5,-244.5 2692.5,-244.5 2692.5,-168.5 2349.5,-168.5"/>
<text text-anchor="start" x="2489.5" y="-231.3" font-family="Times,serif" font-style="italic" font-size="14.00">Methods</text>
<text text-anchor="start" x="2352.5" y="-217.3" font-family="Times,serif" font-size="14.00">searchStepByID(&lt;String&gt; id):Metadata</text>
<text text-anchor="start" x="2352.5" y="-203.3" font-family="Times,serif" font-size="14.00">searchStepByName(&lt;String&gt; name):Metadata</text>
<text text-anchor="start" x="2352.5" y="-189.3" font-family="Times,serif" font-size="14.00">store(&lt;List[Step]&gt; steps):boolean</text>
<text text-anchor="start" x="2352.5" y="-175.3" font-family="Times,serif" font-size="14.00">getAll():List[Metadata]</text>
<polygon fill="none" stroke="black" points="2348,-168 2348,-267 2693,-267 2693,-168 2348,-168"/>
</g>
<!-- AbstractCatalog&#45;&gt;MetadataCatalog -->
<g id="edge10" class="edge">
<title>AbstractCatalog&#45;&gt;MetadataCatalog</title>
<path fill="none" stroke="black" stroke-dasharray="5,2" d="M2618.99,-362.69C2602.49,-338.54 2580.92,-306.96 2562.18,-279.51"/>
<polygon fill="black" stroke="black" points="2556.46,-271.14 2565.81,-276.86 2559.28,-275.27 2562.1,-279.4 2562.1,-279.4 2562.1,-279.4 2559.28,-275.27 2558.38,-281.94 2556.46,-271.14 2556.46,-271.14"/>
</g>
<!-- Metadata -->
<g id="node22" class="node">
<title>Metadata</title>
<polygon fill="none" stroke="black" points="1716.5,-66.5 1716.5,-87.5 1811.5,-87.5 1811.5,-66.5 1716.5,-66.5"/>
<text text-anchor="start" x="1726" y="-74.3" font-family="Times,serif" font-weight="bold" font-size="14.00">Metadata</text>
<polygon fill="none" stroke="black" points="1716.5,-4.5 1716.5,-66.5 1811.5,-66.5 1811.5,-4.5 1716.5,-4.5"/>
<text text-anchor="start" x="1726" y="-53.3" font-family="Times,serif" font-style="italic" font-size="14.00">Properties</text>
<text text-anchor="start" x="1719.5" y="-39.3" font-family="Times,serif" font-size="14.00">ID:String</text>
<text text-anchor="start" x="1719.5" y="-25.3" font-family="Times,serif" font-size="14.00">name:String</text>
<text text-anchor="start" x="1719.5" y="-11.3" font-family="Times,serif" font-size="14.00">type:String</text>
<polygon fill="none" stroke="black" points="1715,-4 1715,-89 1812,-89 1812,-4 1715,-4"/>
</g>
<!-- MetadataCatalog&#45;&gt;Metadata -->
<g id="edge14" class="edge">
<title>MetadataCatalog&#45;&gt;Metadata</title>
<path fill="none" stroke="black" stroke-dasharray="5,2" d="M2339.66,-176.13C2175.79,-139.54 1943.2,-87.62 1830.23,-62.4"/>
<polygon fill="black" stroke="black" points="1820.33,-60.19 1831.07,-57.98 1825.21,-61.28 1830.09,-62.37 1830.09,-62.37 1830.09,-62.37 1825.21,-61.28 1829.11,-66.76 1820.33,-60.19 1820.33,-60.19"/>
</g>
<!-- ViewDefinitionCatalog -->
<g id="node17" class="node">
<title>ViewDefinitionCatalog</title>
<polygon fill="none" stroke="black" points="2579.5,-555.5 2579.5,-576.5 2761.5,-576.5 2761.5,-555.5 2579.5,-555.5"/>
<text text-anchor="start" x="2582.5" y="-563.3" font-family="Times,serif" font-weight="bold" font-size="14.00">ViewDefinitionCatalog</text>
<polygon fill="none" stroke="black" points="2578.5,-555 2578.5,-578 2762.5,-578 2762.5,-555 2578.5,-555"/>
</g>
<!-- ViewDefinitionCatalog&#45;&gt;AbstractCatalog -->
<g id="edge12" class="edge">
<title>ViewDefinitionCatalog&#45;&gt;AbstractCatalog</title>
<path fill="none" stroke="black" d="M2667.87,-548.47C2664.39,-525.89 2658.09,-485.11 2653.07,-452.54"/>
<polygon fill="none" stroke="black" points="2656.47,-451.64 2651.49,-442.29 2649.55,-452.7 2656.47,-451.64"/>
</g>
<!-- KameletParseCatalog -->
<g id="node18" class="node">
<title>KameletParseCatalog</title>
<polygon fill="none" stroke="black" points="3792.5,-754.5 3792.5,-775.5 3969.5,-775.5 3969.5,-754.5 3792.5,-754.5"/>
<text text-anchor="start" x="3795.5" y="-762.3" font-family="Times,serif" font-weight="bold" font-size="14.00">KameletParseCatalog</text>
<polygon fill="none" stroke="black" points="3791,-754 3791,-777 3970,-777 3970,-754 3791,-754"/>
</g>
<!-- ParseCatalog -->
<g id="node19" class="node">
<title>ParseCatalog</title>
<polygon fill="none" stroke="black" points="3988.5,-579.5 3988.5,-600.5 4320.5,-600.5 4320.5,-579.5 3988.5,-579.5"/>
<text text-anchor="start" x="4102" y="-587.3" font-family="Times,serif" font-weight="bold" font-size="14.00">ParseCatalog</text>
<polygon fill="none" stroke="black" points="3988.5,-531.5 3988.5,-579.5 4320.5,-579.5 4320.5,-531.5 3988.5,-531.5"/>
<text text-anchor="start" x="4123" y="-566.3" font-family="Times,serif" font-style="italic" font-size="14.00">Methods</text>
<text text-anchor="start" x="3991.5" y="-552.3" font-family="Times,serif" font-size="14.00">parse():CompletableFuture[List[T]]</text>
<text text-anchor="start" x="3991.5" y="-538.3" font-family="Times,serif" font-size="14.00">setFileVisitor(&lt;YamlProcessFile&gt; fileVisitor):</text>
<polygon fill="none" stroke="black" points="3987.5,-531 3987.5,-602 4321.5,-602 4321.5,-531 3987.5,-531"/>
</g>
<!-- KameletParseCatalog&#45;&gt;ParseCatalog -->
<g id="edge13" class="edge">
<title>KameletParseCatalog&#45;&gt;ParseCatalog</title>
<path fill="none" stroke="black" stroke-dasharray="5,2" d="M3897.87,-747.46C3918.41,-727.72 3954.03,-694.76 3987.5,-670 4015.63,-649.19 4048.11,-628.55 4076.91,-611.31"/>
<polygon fill="black" stroke="black" points="4085.73,-606.07 4079.43,-615.05 4081.43,-608.63 4077.13,-611.19 4077.13,-611.19 4077.13,-611.19 4081.43,-608.63 4074.83,-607.32 4085.73,-606.07 4085.73,-606.07"/>
</g>
<!-- Kamelet -->
<g id="node20" class="node">
<title>Kamelet</title>
<polygon fill="none" stroke="black" points="4609.5,-754.5 4609.5,-775.5 4682.5,-775.5 4682.5,-754.5 4609.5,-754.5"/>
<text text-anchor="start" x="4612.5" y="-762.3" font-family="Times,serif" font-weight="bold" font-size="14.00">Kamelet</text>
<polygon fill="none" stroke="black" points="4608,-754 4608,-777 4683,-777 4683,-754 4608,-754"/>
</g>
<!-- KameletBinding -->
<g id="node21" class="node">
<title>KameletBinding</title>
<polygon fill="none" stroke="black" points="4718.5,-754.5 4718.5,-775.5 4854.5,-775.5 4854.5,-754.5 4718.5,-754.5"/>
<text text-anchor="start" x="4721.5" y="-762.3" font-family="Times,serif" font-weight="bold" font-size="14.00">KameletBinding</text>
<polygon fill="none" stroke="black" points="4717.5,-754 4717.5,-777 4855.5,-777 4855.5,-754 4717.5,-754"/>
</g>
<!-- CatalogCollection -->
<g id="node23" class="node">
<title>CatalogCollection</title>
<polygon fill="none" stroke="black" points="2820.5,-391.5 2820.5,-412.5 2966.5,-412.5 2966.5,-391.5 2820.5,-391.5"/>
<text text-anchor="start" x="2823.5" y="-399.3" font-family="Times,serif" font-weight="bold" font-size="14.00">CatalogCollection</text>
<polygon fill="none" stroke="black" points="2819.5,-391 2819.5,-414 2967.5,-414 2967.5,-391 2819.5,-391"/>
</g>
<!-- CatalogCollection&#45;&gt;MetadataCatalog -->
<g id="edge15" class="edge">
<title>CatalogCollection&#45;&gt;MetadataCatalog</title>
<path fill="none" stroke="black" d="M2869.84,-384.46C2851.85,-371.9 2826.24,-354.84 2802.5,-342 2757.97,-317.91 2707.79,-294.74 2662.23,-275.1"/>
<polygon fill="none" stroke="black" points="2663.45,-271.82 2652.88,-271.1 2660.69,-278.25 2663.45,-271.82"/>
</g>
<!-- InMemoryCatalog -->
<g id="node24" class="node">
<title>InMemoryCatalog</title>
<polygon fill="none" stroke="black" points="2322.5,-391.5 2322.5,-412.5 2470.5,-412.5 2470.5,-391.5 2322.5,-391.5"/>
<text text-anchor="start" x="2325.5" y="-399.3" font-family="Times,serif" font-weight="bold" font-size="14.00">InMemoryCatalog</text>
<polygon fill="none" stroke="black" points="2321.5,-391 2321.5,-414 2471.5,-414 2471.5,-391 2321.5,-391"/>
</g>
<!-- InMemoryCatalog&#45;&gt;MetadataCatalog -->
<g id="edge16" class="edge">
<title>InMemoryCatalog&#45;&gt;MetadataCatalog</title>
<path fill="none" stroke="black" d="M2408.17,-384.28C2424.24,-360.56 2454.04,-316.59 2478.9,-279.89"/>
<polygon fill="none" stroke="black" points="2482.07,-281.46 2484.78,-271.22 2476.27,-277.53 2482.07,-281.46"/>
</g>
<!-- ReadOnlyCatalog -->
<g id="node25" class="node">
<title>ReadOnlyCatalog</title>
<polygon fill="none" stroke="black" points="2822.5,-555.5 2822.5,-576.5 2964.5,-576.5 2964.5,-555.5 2822.5,-555.5"/>
<text text-anchor="start" x="2825.5" y="-563.3" font-family="Times,serif" font-weight="bold" font-size="14.00">ReadOnlyCatalog</text>
<polygon fill="none" stroke="black" points="2821.5,-555 2821.5,-578 2965.5,-578 2965.5,-555 2821.5,-555"/>
</g>
<!-- ReadOnlyCatalog&#45;&gt;CatalogCollection -->
<g id="edge17" class="edge">
<title>ReadOnlyCatalog&#45;&gt;CatalogCollection</title>
<path fill="none" stroke="black" d="M2893.5,-548.47C2893.5,-520.47 2893.5,-464.46 2893.5,-430.85"/>
<polygon fill="none" stroke="black" points="2897,-430.79 2893.5,-420.79 2890,-430.79 2897,-430.79"/>
</g>
<!-- GitParseCatalog -->
<g id="node26" class="node">
<title>GitParseCatalog</title>
<polygon fill="none" stroke="black" points="4438.5,-754.5 4438.5,-775.5 4573.5,-775.5 4573.5,-754.5 4438.5,-754.5"/>
<text text-anchor="start" x="4441.5" y="-762.3" font-family="Times,serif" font-weight="bold" font-size="14.00">GitParseCatalog</text>
<polygon fill="none" stroke="black" points="4437,-754 4437,-777 4574,-777 4574,-754 4437,-754"/>
</g>
<!-- GitParseCatalog&#45;&gt;ParseCatalog -->
<g id="edge18" class="edge">
<title>GitParseCatalog&#45;&gt;ParseCatalog</title>
<path fill="none" stroke="black" d="M4493.7,-747.26C4478.65,-726.4 4450.79,-691.44 4419.5,-670 4383.16,-645.1 4339.94,-625.1 4299.04,-609.61"/>
<polygon fill="none" stroke="black" points="4300.13,-606.28 4289.53,-606.07 4297.69,-612.84 4300.13,-606.28"/>
</g>
<!-- YamlProcessFile -->
<g id="node27" class="node">
<title>YamlProcessFile</title>
<polygon fill="none" stroke="black" points="4438.5,-555.5 4438.5,-576.5 4573.5,-576.5 4573.5,-555.5 4438.5,-555.5"/>
<text text-anchor="start" x="4441.5" y="-563.3" font-family="Times,serif" font-weight="bold" font-size="14.00">YamlProcessFile</text>
<polygon fill="none" stroke="black" points="4437,-555 4437,-578 4574,-578 4574,-555 4437,-555"/>
</g>
<!-- GitParseCatalog&#45;&gt;YamlProcessFile -->
<g id="edge19" class="edge">
<title>GitParseCatalog&#45;&gt;YamlProcessFile</title>
<path fill="none" stroke="black" stroke-dasharray="5,2" d="M4501.49,-747.36C4498.14,-713.16 4497.86,-636.19 4500.65,-594.9"/>
<polygon fill="black" stroke="black" points="4501.48,-584.74 4505.16,-595.07 4501.07,-589.72 4500.67,-594.71 4500.67,-594.71 4500.67,-594.71 4501.07,-589.72 4496.18,-594.34 4501.48,-584.74 4501.48,-584.74"/>
</g>
<!-- YamlProcessFile&#45;&gt;GitParseCatalog -->
<g id="edge21" class="edge">
<title>YamlProcessFile&#45;&gt;GitParseCatalog</title>
<path fill="none" stroke="black" stroke-dasharray="5,2" d="M4509.52,-584.74C4512.86,-619.02 4513.13,-696.01 4510.34,-737.22"/>
<polygon fill="black" stroke="black" points="4509.51,-747.36 4505.84,-737.03 4509.92,-742.38 4510.32,-737.4 4510.32,-737.4 4510.32,-737.4 4509.92,-742.38 4514.81,-737.76 4509.51,-747.36 4509.51,-747.36"/>
</g>
<!-- JarParseCatalog -->
<g id="node28" class="node">
<title>JarParseCatalog</title>
<polygon fill="none" stroke="black" points="4005.5,-754.5 4005.5,-775.5 4139.5,-775.5 4139.5,-754.5 4005.5,-754.5"/>
<text text-anchor="start" x="4008.5" y="-762.3" font-family="Times,serif" font-weight="bold" font-size="14.00">JarParseCatalog</text>
<polygon fill="none" stroke="black" points="4004.5,-754 4004.5,-777 4140.5,-777 4140.5,-754 4004.5,-754"/>
</g>
<!-- JarParseCatalog&#45;&gt;ParseCatalog -->
<g id="edge20" class="edge">
<title>JarParseCatalog&#45;&gt;ParseCatalog</title>
<path fill="none" stroke="black" d="M4079.63,-747.36C4091.73,-718.29 4116.69,-658.33 4134.46,-615.63"/>
<polygon fill="none" stroke="black" points="4137.75,-616.84 4138.36,-606.26 4131.29,-614.15 4137.75,-616.84"/>
</g>
<!-- ViewDefinitionParseCatalog -->
<g id="node29" class="node">
<title>ViewDefinitionParseCatalog</title>
<polygon fill="none" stroke="black" points="4175.5,-754.5 4175.5,-775.5 4401.5,-775.5 4401.5,-754.5 4175.5,-754.5"/>
<text text-anchor="start" x="4178.5" y="-762.3" font-family="Times,serif" font-weight="bold" font-size="14.00">ViewDefinitionParseCatalog</text>
<polygon fill="none" stroke="black" points="4174.5,-754 4174.5,-777 4402.5,-777 4402.5,-754 4174.5,-754"/>
</g>
<!-- ViewDefinitionParseCatalog&#45;&gt;ParseCatalog -->
<g id="edge22" class="edge">
<title>ViewDefinitionParseCatalog&#45;&gt;ParseCatalog</title>
<path fill="none" stroke="black" stroke-dasharray="5,2" d="M4276.84,-747.36C4256.9,-718.05 4215.6,-657.32 4186.51,-614.56"/>
<polygon fill="black" stroke="black" points="4180.87,-606.26 4190.21,-612 4183.68,-610.4 4186.49,-614.53 4186.49,-614.53 4186.49,-614.53 4183.68,-610.4 4182.77,-617.06 4180.87,-606.26 4180.87,-606.26"/>
</g>
<!-- Parameter -->
<g id="node30" class="node">
<title>Parameter</title>
<polygon fill="none" stroke="black" points="4890.5,-834.5 4890.5,-855.5 5026.5,-855.5 5026.5,-834.5 4890.5,-834.5"/>
<text text-anchor="start" x="4916.5" y="-842.3" font-family="Times,serif" font-weight="bold" font-size="14.00">Parameter</text>
<polygon fill="none" stroke="black" points="4890.5,-674.5 4890.5,-834.5 5026.5,-834.5 5026.5,-674.5 4890.5,-674.5"/>
<text text-anchor="start" x="4920.5" y="-821.3" font-family="Times,serif" font-style="italic" font-size="14.00">Properties</text>
<text text-anchor="start" x="4893.5" y="-807.3" font-family="Times,serif" font-size="14.00">description:String</text>
<text text-anchor="start" x="4893.5" y="-793.3" font-family="Times,serif" font-size="14.00">title:String</text>
<text text-anchor="start" x="4893.5" y="-779.3" font-family="Times,serif" font-size="14.00">id:String</text>
<text text-anchor="start" x="4893.5" y="-765.3" font-family="Times,serif" font-size="14.00">value:Object</text>
<text text-anchor="start" x="4893.5" y="-751.3" font-family="Times,serif" font-size="14.00">default:Object</text>
<text text-anchor="start" x="4893.5" y="-737.3" font-family="Times,serif" font-size="14.00">type:String</text>
<text text-anchor="start" x="4893.5" y="-723.3" font-family="Times,serif" font-size="14.00">path:Boolean</text>
<text text-anchor="start" x="4893.5" y="-709.3" font-family="Times,serif" font-size="14.00">nullable:Boolean</text>
<text text-anchor="start" x="4893.5" y="-695.3" font-family="Times,serif" font-size="14.00">enum:Object[]</text>
<text text-anchor="start" x="4893.5" y="-681.3" font-family="Times,serif" font-size="14.00">examples:Object[]</text>
<polygon fill="none" stroke="black" points="4889.5,-674 4889.5,-857 5027.5,-857 5027.5,-674 4889.5,-674"/>
</g>
<!-- Branch -->
<g id="node31" class="node">
<title>Branch</title>
<polygon fill="none" stroke="black" points="5062.5,-754.5 5062.5,-775.5 5126.5,-775.5 5126.5,-754.5 5062.5,-754.5"/>
<text text-anchor="start" x="5065.5" y="-762.3" font-family="Times,serif" font-weight="bold" font-size="14.00">Branch</text>
<polygon fill="none" stroke="black" points="5061.5,-754 5061.5,-777 5127.5,-777 5127.5,-754 5061.5,-754"/>
</g>
<!-- Step&#45;&gt;Metadata -->
<g id="edge23" class="edge">
<title>Step&#45;&gt;Metadata</title>
<path fill="none" stroke="black" d="M871.75,-197.61C1081.73,-162.26 1527.97,-87.15 1696.86,-58.72"/>
<polygon fill="none" stroke="black" points="1697.58,-62.15 1706.86,-57.03 1696.41,-55.24 1697.58,-62.15"/>
</g>
<!-- ViewDefinition&#45;&gt;Metadata -->
<g id="edge24" class="edge">
<title>ViewDefinition&#45;&gt;Metadata</title>
<path fill="none" stroke="black" d="M1763.5,-163.95C1763.5,-144.73 1763.5,-122.93 1763.5,-103.43"/>
<polygon fill="none" stroke="black" points="1767,-103.16 1763.5,-93.16 1760,-103.16 1767,-103.16"/>
</g>
<!-- ViewDefinitionConstraint -->
<g id="node34" class="node">
<title>ViewDefinitionConstraint</title>
<polygon fill="none" stroke="black" points="1426.5,-422.5 1426.5,-443.5 1652.5,-443.5 1652.5,-422.5 1426.5,-422.5"/>
<text text-anchor="start" x="1439" y="-430.3" font-family="Times,serif" font-weight="bold" font-size="14.00">ViewDefinitionConstraint</text>
<polygon fill="none" stroke="black" points="1426.5,-360.5 1426.5,-422.5 1652.5,-422.5 1652.5,-360.5 1426.5,-360.5"/>
<text text-anchor="start" x="1501.5" y="-409.3" font-family="Times,serif" font-style="italic" font-size="14.00">Properties</text>
<text text-anchor="start" x="1429.5" y="-395.3" font-family="Times,serif" font-size="14.00">mandatory:boolean</text>
<text text-anchor="start" x="1429.5" y="-381.3" font-family="Times,serif" font-size="14.00">operation:ConstraintOperation</text>
<text text-anchor="start" x="1429.5" y="-367.3" font-family="Times,serif" font-size="14.00">parameter:String</text>
<polygon fill="none" stroke="black" points="1425.5,-360 1425.5,-445 1653.5,-445 1653.5,-360 1425.5,-360"/>
</g>
<!-- ViewDefinitionConstraint&#45;&gt;ViewDefinition -->
<g id="edge25" class="edge">
<title>ViewDefinitionConstraint&#45;&gt;ViewDefinition</title>
<path fill="none" stroke="black" d="M1595.45,-355.79C1623.98,-332.48 1659.06,-303.82 1689.78,-278.73"/>
<polygon fill="black" stroke="black" points="1689.86,-278.66 1691.98,-271.77 1699.15,-271.07 1697.04,-277.96 1689.86,-278.66"/>
<text text-anchor="middle" x="1581.45" y="-344.59" font-family="Times,serif" font-size="14.00">0..n</text>
</g>
<!-- DeploymentGeneratorService -->
<g id="node35" class="node">
<title>DeploymentGeneratorService</title>
<polygon fill="none" stroke="black" points="216.5,-436.5 216.5,-457.5 596.5,-457.5 596.5,-436.5 216.5,-436.5"/>
<text text-anchor="start" x="290.5" y="-444.3" font-family="Times,serif" font-weight="bold" font-size="14.00">DeploymentGeneratorService</text>
<polygon fill="none" stroke="black" points="216.5,-346.5 216.5,-436.5 596.5,-436.5 596.5,-346.5 216.5,-346.5"/>
<text text-anchor="start" x="375" y="-423.3" font-family="Times,serif" font-style="italic" font-size="14.00">Methods</text>
<text text-anchor="start" x="219.5" y="-409.3" font-family="Times,serif" font-size="14.00">identifier():String</text>
<text text-anchor="start" x="219.5" y="-395.3" font-family="Times,serif" font-size="14.00">description():String</text>
<text text-anchor="start" x="219.5" y="-381.3" font-family="Times,serif" font-size="14.00">parse(&lt;List[Step]&gt; steps, &lt;Map&gt; metadata):String</text>
<text text-anchor="start" x="219.5" y="-367.3" font-family="Times,serif" font-size="14.00">appliesTo(&lt;List[Step]&gt; steps):boolean</text>
<text text-anchor="start" x="219.5" y="-353.3" font-family="Times,serif" font-size="14.00">getKinds():String[]</text>
<polygon fill="none" stroke="black" points="215.5,-346 215.5,-459 597.5,-459 597.5,-346 215.5,-346"/>
</g>
<!-- DeploymentGeneratorService&#45;&gt;Step -->
<g id="edge26" class="edge">
<title>DeploymentGeneratorService&#45;&gt;Step</title>
<path fill="none" stroke="black" stroke-dasharray="5,2" d="M521.6,-341.83C558.94,-322.47 600.48,-300.94 638.26,-281.35"/>
<polygon fill="black" stroke="black" points="647.27,-276.68 640.46,-285.28 642.83,-278.98 638.39,-281.29 638.39,-281.29 638.39,-281.29 642.83,-278.98 636.32,-277.29 647.27,-276.68 647.27,-276.68"/>
</g>
</g>
</svg>
