<?xml version="1.0" encoding="UTF-8" standalone="no"?>
<!DOCTYPE svg PUBLIC "-//W3C//DTD SVG 1.1//EN"
 "http://www.w3.org/Graphics/SVG/1.1/DTD/svg11.dtd">
<!-- Generated by graphviz version 2.43.0 (0)
 -->
<!-- Title: ClassDiagram Pages: 1 -->
<svg width="5857pt" height="841pt"
 viewBox="0.00 0.00 5857.00 841.00" xmlns="http://www.w3.org/2000/svg" xmlns:xlink="http://www.w3.org/1999/xlink">
<g id="graph0" class="graph" transform="scale(1 1) rotate(0) translate(4 837)">
<title>ClassDiagram</title>
<polygon fill="white" stroke="transparent" points="-4,4 -4,-837 5853,-837 5853,4 -4,4"/>
<!-- LanguageResource 🐱relationship compositionOf LanguageService, 0..1 -->
<g id="node1" class="node">
<title>LanguageResource 🐱relationship compositionOf LanguageService, 0..1</title>
<polygon fill="none" stroke="black" points="9,-743.5 9,-764.5 579,-764.5 579,-743.5 9,-743.5"/>
<text text-anchor="start" x="12" y="-751.3" font-family="Times,serif" font-weight="bold" font-size="14.00">LanguageResource 🐱relationship compositionOf LanguageService, 0..1</text>
<polygon fill="none" stroke="black" points="9,-709.5 9,-743.5 579,-743.5 579,-709.5 9,-709.5"/>
<text text-anchor="start" x="262.5" y="-730.3" font-family="Times,serif" font-style="italic" font-size="14.00">Methods</text>
<text text-anchor="start" x="249.5" y="-716.3" font-family="Times,serif" font-size="14.00">getAll():Map</text>
<polygon fill="none" stroke="black" points="8,-709 8,-766 580,-766 580,-709 8,-709"/>
</g>
<!-- DeploymentResource -->
<g id="node2" class="node">
<title>DeploymentResource</title>
<polygon fill="none" stroke="black" points="616,-764.5 616,-785.5 791,-785.5 791,-764.5 616,-764.5"/>
<text text-anchor="start" x="619" y="-772.3" font-family="Times,serif" font-weight="bold" font-size="14.00">DeploymentResource</text>
<polygon fill="none" stroke="black" points="616,-688.5 616,-764.5 791,-764.5 791,-688.5 616,-688.5"/>
<text text-anchor="start" x="672" y="-751.3" font-family="Times,serif" font-style="italic" font-size="14.00">Methods</text>
<text text-anchor="start" x="656" y="-737.3" font-family="Times,serif" font-size="14.00">all():String</text>
<text text-anchor="start" x="656" y="-723.3" font-family="Times,serif" font-size="14.00">start():String</text>
<text text-anchor="start" x="656" y="-709.3" font-family="Times,serif" font-size="14.00">get():String</text>
<text text-anchor="start" x="656" y="-695.3" font-family="Times,serif" font-size="14.00">stop():String</text>
<polygon fill="none" stroke="black" points="614.5,-688 614.5,-787 791.5,-787 791.5,-688 614.5,-688"/>
</g>
<!-- IntegrationsResource -->
<g id="node3" class="node">
<title>IntegrationsResource</title>
<polygon fill="none" stroke="black" points="722,-572.5 722,-593.5 1071,-593.5 1071,-572.5 722,-572.5"/>
<text text-anchor="start" x="810" y="-580.3" font-family="Times,serif" font-weight="bold" font-size="14.00">IntegrationsResource</text>
<polygon fill="none" stroke="black" points="722,-538.5 722,-572.5 1071,-572.5 1071,-538.5 722,-538.5"/>
<text text-anchor="start" x="865" y="-559.3" font-family="Times,serif" font-style="italic" font-size="14.00">Methods</text>
<text text-anchor="start" x="725" y="-545.3" font-family="Times,serif" font-size="14.00">crd(&lt;String&gt; dsl):Map&lt;String, Map&lt;String&gt;&gt;</text>
<polygon fill="none" stroke="black" points="720.5,-538 720.5,-595 1071.5,-595 1071.5,-538 720.5,-538"/>
</g>
<!-- DeploymentService -->
<g id="node4" class="node">
<title>DeploymentService</title>
<text text-anchor="middle" x="896" y="-733.8" font-family="Times,serif" font-size="14.00">DeploymentService</text>
</g>
<!-- DeploymentService&#45;&gt;IntegrationsResource -->
<g id="edge1" class="edge">
<title>DeploymentService&#45;&gt;IntegrationsResource</title>
<path fill="none" stroke="black" d="M896,-719.37C896,-694.25 896,-646.62 896,-611.37"/>
<polygon fill="black" stroke="black" points="896,-611 892,-605 896,-599 900,-605 896,-611"/>
<text text-anchor="middle" x="882" y="-708.17" font-family="Times,serif" font-size="14.00">0..1</text>
</g>
<!-- StepResource -->
<g id="node5" class="node">
<title>StepResource</title>
<polygon fill="none" stroke="black" points="2406,-757.5 2406,-778.5 2878,-778.5 2878,-757.5 2406,-757.5"/>
<text text-anchor="start" x="2587.5" y="-765.3" font-family="Times,serif" font-weight="bold" font-size="14.00">StepResource</text>
<polygon fill="none" stroke="black" points="2406,-695.5 2406,-757.5 2878,-757.5 2878,-695.5 2406,-695.5"/>
<text text-anchor="start" x="2610.5" y="-744.3" font-family="Times,serif" font-style="italic" font-size="14.00">Methods</text>
<text text-anchor="start" x="2409" y="-730.3" font-family="Times,serif" font-size="14.00">allSteps(&lt;String&gt; type, &lt;String&gt; dsl, &lt;String&gt; kind):List[Step]</text>
<text text-anchor="start" x="2409" y="-716.3" font-family="Times,serif" font-size="14.00">stepById(&lt;String&gt; id):Step</text>
<text text-anchor="start" x="2409" y="-702.3" font-family="Times,serif" font-size="14.00">stepsByName(&lt;String&gt; name):List[Step]</text>
<polygon fill="none" stroke="black" points="2405,-695 2405,-780 2879,-780 2879,-695 2405,-695"/>
</g>
<!-- StepCatalog -->
<g id="node6" class="node">
<title>StepCatalog</title>
<polygon fill="none" stroke="black" points="2591,-555.5 2591,-576.5 2693,-576.5 2693,-555.5 2591,-555.5"/>
<text text-anchor="start" x="2594" y="-563.3" font-family="Times,serif" font-weight="bold" font-size="14.00">StepCatalog</text>
<polygon fill="none" stroke="black" points="2590,-555 2590,-578 2694,-578 2694,-555 2590,-555"/>
</g>
<!-- StepResource&#45;&gt;StepCatalog -->
<g id="edge2" class="edge">
<title>StepResource&#45;&gt;StepCatalog</title>
<path fill="none" stroke="black" stroke-dasharray="5,2" d="M2642,-690.77C2642,-660.14 2642,-620.85 2642,-594.96"/>
<polygon fill="black" stroke="black" points="2642,-584.75 2646.5,-594.75 2642,-589.75 2642,-594.75 2642,-594.75 2642,-594.75 2642,-589.75 2637.5,-594.75 2642,-584.75 2642,-584.75"/>
</g>
<!-- AbstractCatalog -->
<g id="node15" class="node">
<title>AbstractCatalog</title>
<polygon fill="none" stroke="black" points="2656,-429.5 2656,-450.5 2934,-450.5 2934,-429.5 2656,-429.5"/>
<text text-anchor="start" x="2731.5" y="-437.3" font-family="Times,serif" font-weight="bold" font-size="14.00">AbstractCatalog</text>
<polygon fill="none" stroke="black" points="2656,-381.5 2656,-429.5 2934,-429.5 2934,-381.5 2656,-381.5"/>
<text text-anchor="start" x="2763.5" y="-416.3" font-family="Times,serif" font-style="italic" font-size="14.00">Methods</text>
<text text-anchor="start" x="2659" y="-402.3" font-family="Times,serif" font-size="14.00">waitForWarmUp():CompletableFuture</text>
<text text-anchor="start" x="2659" y="-388.3" font-family="Times,serif" font-size="14.00">loadParsers():List[ParseCatalog]</text>
<polygon fill="none" stroke="black" points="2655,-381 2655,-452 2935,-452 2935,-381 2655,-381"/>
</g>
<!-- StepCatalog&#45;&gt;AbstractCatalog -->
<g id="edge7" class="edge">
<title>StepCatalog&#45;&gt;AbstractCatalog</title>
<path fill="none" stroke="black" d="M2659.85,-548.23C2681.22,-527.57 2717.83,-492.15 2747.57,-463.38"/>
<polygon fill="none" stroke="black" points="2750.21,-465.69 2754.97,-456.23 2745.34,-460.66 2750.21,-465.69"/>
</g>
<!-- ViewDefinitionResource -->
<g id="node7" class="node">
<title>ViewDefinitionResource</title>
<polygon fill="none" stroke="black" points="1072,-422.5 1072,-443.5 1540,-443.5 1540,-422.5 1072,-422.5"/>
<text text-anchor="start" x="1211" y="-430.3" font-family="Times,serif" font-weight="bold" font-size="14.00">ViewDefinitionResource</text>
<polygon fill="none" stroke="black" points="1072,-388.5 1072,-422.5 1540,-422.5 1540,-388.5 1072,-388.5"/>
<text text-anchor="start" x="1274.5" y="-409.3" font-family="Times,serif" font-style="italic" font-size="14.00">Methods</text>
<text text-anchor="start" x="1075" y="-395.3" font-family="Times,serif" font-size="14.00">viewsPerStepList:(&lt;Step[]&gt; DeploymentResourceYamlRequest):</text>
<polygon fill="none" stroke="black" points="1071,-388 1071,-445 1541,-445 1541,-388 1071,-388"/>
</g>
<!-- ViewDefinitionService -->
<g id="node8" class="node">
<title>ViewDefinitionService</title>
<polygon fill="none" stroke="black" points="1107,-572.5 1107,-593.5 1505,-593.5 1505,-572.5 1107,-572.5"/>
<text text-anchor="start" x="1219.5" y="-580.3" font-family="Times,serif" font-weight="bold" font-size="14.00">ViewDefinitionService</text>
<polygon fill="none" stroke="black" points="1107,-538.5 1107,-572.5 1505,-572.5 1505,-538.5 1107,-538.5"/>
<text text-anchor="start" x="1274.5" y="-559.3" font-family="Times,serif" font-style="italic" font-size="14.00">Methods</text>
<text text-anchor="start" x="1110" y="-545.3" font-family="Times,serif" font-size="14.00">viewsPerStepList(&lt;Step[]&gt; steps):List[ViewDefinition]</text>
<polygon fill="none" stroke="black" points="1106,-538 1106,-595 1506,-595 1506,-538 1106,-538"/>
</g>
<!-- ViewDefinitionService&#45;&gt;ViewDefinitionResource -->
<g id="edge3" class="edge">
<title>ViewDefinitionService&#45;&gt;ViewDefinitionResource</title>
<path fill="none" stroke="black" d="M1306,-533.75C1306,-512.58 1306,-484.48 1306,-461.21"/>
<polygon fill="black" stroke="black" points="1306,-461.2 1302,-455.2 1306,-449.2 1310,-455.2 1306,-461.2"/>
<text text-anchor="middle" x="1292" y="-522.55" font-family="Times,serif" font-size="14.00">0..1</text>
</g>
<!-- StepParserService -->
<g id="node13" class="node">
<title>StepParserService</title>
<polygon fill="none" stroke="black" points="781,-443.5 781,-464.5 1036,-464.5 1036,-443.5 781,-443.5"/>
<text text-anchor="start" x="836" y="-451.3" font-family="Times,serif" font-weight="bold" font-size="14.00">StepParserService</text>
<polygon fill="none" stroke="black" points="781,-367.5 781,-443.5 1036,-443.5 1036,-367.5 781,-367.5"/>
<text text-anchor="start" x="877" y="-430.3" font-family="Times,serif" font-style="italic" font-size="14.00">Methods</text>
<text text-anchor="start" x="784" y="-416.3" font-family="Times,serif" font-size="14.00">identifier():String</text>
<text text-anchor="start" x="784" y="-402.3" font-family="Times,serif" font-size="14.00">description():String</text>
<text text-anchor="start" x="784" y="-388.3" font-family="Times,serif" font-size="14.00">parse(&lt;String&gt; yaml):ParseResult</text>
<text text-anchor="start" x="784" y="-374.3" font-family="Times,serif" font-size="14.00">appliesTo(&lt;String&gt; yaml):boolean</text>
<polygon fill="none" stroke="black" points="779.5,-367 779.5,-466 1036.5,-466 1036.5,-367 779.5,-367"/>
</g>
<!-- ViewDefinitionService&#45;&gt;StepParserService -->
<g id="edge4" class="edge">
<title>ViewDefinitionService&#45;&gt;StepParserService</title>
<path fill="none" stroke="black" stroke-dasharray="5,2" d="M1183.06,-533.92C1141.53,-522 1095.25,-507.33 1054,-491 1041.47,-486.04 1028.57,-480.39 1015.86,-474.48"/>
<polygon fill="black" stroke="black" points="1006.65,-470.14 1017.62,-470.34 1011.18,-472.27 1015.7,-474.41 1015.7,-474.41 1015.7,-474.41 1011.18,-472.27 1013.78,-478.48 1006.65,-470.14 1006.65,-470.14"/>
</g>
<!-- ViewDefinitionParserService -->
<g id="node14" class="node">
<title>ViewDefinitionParserService</title>
<polygon fill="none" stroke="black" points="1838,-436.5 1838,-457.5 2436,-457.5 2436,-436.5 1838,-436.5"/>
<text text-anchor="start" x="2024.5" y="-444.3" font-family="Times,serif" font-weight="bold" font-size="14.00">ViewDefinitionParserService</text>
<polygon fill="none" stroke="black" points="1838,-374.5 1838,-436.5 2436,-436.5 2436,-374.5 1838,-374.5"/>
<text text-anchor="start" x="2105.5" y="-423.3" font-family="Times,serif" font-style="italic" font-size="14.00">Methods</text>
<text text-anchor="start" x="1841" y="-409.3" font-family="Times,serif" font-size="14.00">parse(&lt;List[Step]&gt; steps):List[ViewDefinition]</text>
<text text-anchor="start" x="1841" y="-395.3" font-family="Times,serif" font-size="14.00">getViewsPerStep(&lt;List[Step]&gt; steps, &lt;ViewDefinition&gt; view):List[ViewDefinition]</text>
<text text-anchor="start" x="1841" y="-381.3" font-family="Times,serif" font-size="14.00">appliesTo(&lt;List[Step]&gt; steps, &lt;ViewDefinition&gt; viewDefinition):boolean</text>
<polygon fill="none" stroke="black" points="1837,-374 1837,-459 2437,-459 2437,-374 1837,-374"/>
</g>
<!-- ViewDefinitionService&#45;&gt;ViewDefinitionParserService -->
<g id="edge5" class="edge">
<title>ViewDefinitionService&#45;&gt;ViewDefinitionParserService</title>
<path fill="none" stroke="black" stroke-dasharray="5,2" d="M1514.23,-539.36C1607.98,-526.55 1719.86,-509.83 1820,-491 1859.75,-483.52 1902.06,-474.48 1942.39,-465.33"/>
<polygon fill="black" stroke="black" points="1952.33,-463.07 1943.58,-469.68 1947.45,-464.18 1942.58,-465.29 1942.58,-465.29 1942.58,-465.29 1947.45,-464.18 1941.58,-460.9 1952.33,-463.07 1952.33,-463.07"/>
</g>
<!-- Capabilities -->
<g id="node9" class="node">
<title>Capabilities</title>
<polygon fill="none" stroke="black" points="2914,-726.5 2914,-747.5 3014,-747.5 3014,-726.5 2914,-726.5"/>
<text text-anchor="start" x="2917" y="-734.3" font-family="Times,serif" font-weight="bold" font-size="14.00">Capabilities</text>
<polygon fill="none" stroke="black" points="2913,-726 2913,-749 3015,-749 3015,-726 2913,-726"/>
</g>
<!-- Integration -->
<g id="node10" class="node">
<title>Integration</title>
<polygon fill="none" stroke="black" points="3051,-726.5 3051,-747.5 3148,-747.5 3148,-726.5 3051,-726.5"/>
<text text-anchor="start" x="3054" y="-734.3" font-family="Times,serif" font-weight="bold" font-size="14.00">Integration</text>
<polygon fill="none" stroke="black" points="3049.5,-726 3049.5,-749 3148.5,-749 3148.5,-726 3049.5,-726"/>
</g>
<!-- DeploymentService This endpoint will return a list of views based on -->
<g id="node11" class="node">
<title>DeploymentService This endpoint will return a list of views based on</title>
<polygon fill="none" stroke="black" points="3184,-743.5 3184,-764.5 3729,-764.5 3729,-743.5 3184,-743.5"/>
<text text-anchor="start" x="3187" y="-751.3" font-family="Times,serif" font-weight="bold" font-size="14.00">DeploymentService This endpoint will return a list of views based on</text>
<polygon fill="none" stroke="black" points="3184,-709.5 3184,-743.5 3729,-743.5 3729,-709.5 3184,-709.5"/>
<text text-anchor="start" x="3425" y="-730.3" font-family="Times,serif" font-style="italic" font-size="14.00">Methods</text>
<text text-anchor="start" x="3279.5" y="-716.3" font-family="Times,serif" font-size="14.00">yaml(&lt;List[Step]&gt; steps, &lt;String&gt; name):String</text>
<polygon fill="none" stroke="black" points="3182.5,-709 3182.5,-766 3729.5,-766 3729.5,-709 3182.5,-709"/>
</g>
<!-- LanguageService -->
<g id="node12" class="node">
<title>LanguageService</title>
<polygon fill="none" stroke="black" points="3765,-743.5 3765,-764.5 3906,-764.5 3906,-743.5 3765,-743.5"/>
<text text-anchor="start" x="3768" y="-751.3" font-family="Times,serif" font-weight="bold" font-size="14.00">LanguageService</text>
<polygon fill="none" stroke="black" points="3765,-709.5 3765,-743.5 3906,-743.5 3906,-709.5 3765,-709.5"/>
<text text-anchor="start" x="3804" y="-730.3" font-family="Times,serif" font-style="italic" font-size="14.00">Methods</text>
<text text-anchor="start" x="3791" y="-716.3" font-family="Times,serif" font-size="14.00">getAll():Map</text>
<polygon fill="none" stroke="black" points="3763.5,-709 3763.5,-766 3906.5,-766 3906.5,-709 3763.5,-709"/>
</g>
<!-- Step -->
<g id="node35" class="node">
<title>Step</title>
<polygon fill="none" stroke="black" points="805,-279.5 805,-300.5 1011,-300.5 1011,-279.5 805,-279.5"/>
<text text-anchor="start" x="890" y="-287.3" font-family="Times,serif" font-weight="bold" font-size="14.00">Step</text>
<polygon fill="none" stroke="black" points="805,-133.5 805,-279.5 1011,-279.5 1011,-133.5 805,-133.5"/>
<text text-anchor="start" x="870" y="-266.3" font-family="Times,serif" font-style="italic" font-size="14.00">Properties</text>
<text text-anchor="start" x="808" y="-252.3" font-family="Times,serif" font-size="14.00">description:String</text>
<text text-anchor="start" x="808" y="-238.3" font-family="Times,serif" font-size="14.00">title:String</text>
<text text-anchor="start" x="808" y="-224.3" font-family="Times,serif" font-size="14.00">parameters:List[Parameter]</text>
<text text-anchor="start" x="808" y="-210.3" font-family="Times,serif" font-size="14.00">icon:String</text>
<text text-anchor="start" x="808" y="-196.3" font-family="Times,serif" font-size="14.00">UUID:String</text>
<text text-anchor="start" x="808" y="-182.3" font-family="Times,serif" font-size="14.00">required:String[]</text>
<text text-anchor="start" x="808" y="-168.3" font-family="Times,serif" font-size="14.00">group:String</text>
<text text-anchor="start" x="808" y="-154.3" font-family="Times,serif" font-size="14.00">kind:String</text>
<text text-anchor="start" x="808" y="-140.3" font-family="Times,serif" font-size="14.00">branches:Branch[]</text>
<polygon fill="none" stroke="black" points="804,-133 804,-302 1012,-302 1012,-133 804,-133"/>
</g>
<!-- StepParserService&#45;&gt;Step -->
<g id="edge25" class="edge">
<title>StepParserService&#45;&gt;Step</title>
<path fill="none" stroke="black" stroke-dasharray="5,2" d="M908,-362.97C908,-348.52 908,-332.38 908,-316.27"/>
<polygon fill="black" stroke="black" points="908,-306.25 912.5,-316.25 908,-311.25 908,-316.25 908,-316.25 908,-316.25 908,-311.25 903.5,-316.25 908,-306.25 908,-306.25"/>
</g>
<!-- ViewDefinition -->
<g id="node36" class="node">
<title>ViewDefinition</title>
<polygon fill="none" stroke="black" points="1759,-244.5 1759,-265.5 2068,-265.5 2068,-244.5 1759,-244.5"/>
<text text-anchor="start" x="1855.5" y="-252.3" font-family="Times,serif" font-weight="bold" font-size="14.00">ViewDefinition</text>
<polygon fill="none" stroke="black" points="1759,-168.5 1759,-244.5 2068,-244.5 2068,-168.5 1759,-168.5"/>
<text text-anchor="start" x="1875.5" y="-231.3" font-family="Times,serif" font-style="italic" font-size="14.00">Properties</text>
<text text-anchor="start" x="1762" y="-217.3" font-family="Times,serif" font-size="14.00">properties:Map[String, String]</text>
<text text-anchor="start" x="1762" y="-203.3" font-family="Times,serif" font-size="14.00">step:Step</text>
<text text-anchor="start" x="1762" y="-189.3" font-family="Times,serif" font-size="14.00">url:String</text>
<text text-anchor="start" x="1762" y="-175.3" font-family="Times,serif" font-size="14.00">constraints:List[ViewDefinitionConstraint]</text>
<polygon fill="none" stroke="black" points="1757.5,-168 1757.5,-267 2068.5,-267 2068.5,-168 1757.5,-168"/>
</g>
<!-- ViewDefinitionParserService&#45;&gt;ViewDefinition -->
<g id="edge26" class="edge">
<title>ViewDefinitionParserService&#45;&gt;ViewDefinition</title>
<path fill="none" stroke="black" stroke-dasharray="5,2" d="M2085.05,-369.81C2054.06,-342.56 2014.36,-307.64 1980.91,-278.22"/>
<polygon fill="black" stroke="black" points="1972.99,-271.26 1983.47,-274.48 1976.75,-274.56 1980.5,-277.86 1980.5,-277.86 1980.5,-277.86 1976.75,-274.56 1977.53,-281.24 1972.99,-271.26 1972.99,-271.26"/>
</g>
<!-- MetadataCatalog -->
<g id="node16" class="node">
<title>MetadataCatalog</title>
<polygon fill="none" stroke="black" points="2499,-251.5 2499,-272.5 2842,-272.5 2842,-251.5 2499,-251.5"/>
<text text-anchor="start" x="2602.5" y="-259.3" font-family="Times,serif" font-weight="bold" font-size="14.00">MetadataCatalog</text>
<polygon fill="none" stroke="black" points="2499,-161.5 2499,-251.5 2842,-251.5 2842,-161.5 2499,-161.5"/>
<text text-anchor="start" x="2639" y="-238.3" font-family="Times,serif" font-style="italic" font-size="14.00">Methods</text>
<text text-anchor="start" x="2502" y="-224.3" font-family="Times,serif" font-size="14.00">searchStepByID(&lt;String&gt; id):Metadata</text>
<text text-anchor="start" x="2502" y="-210.3" font-family="Times,serif" font-size="14.00">searchStepByName(&lt;String&gt; name):Metadata</text>
<text text-anchor="start" x="2502" y="-196.3" font-family="Times,serif" font-size="14.00">store(&lt;List[Step]&gt; steps):boolean</text>
<text text-anchor="start" x="2502" y="-182.3" font-family="Times,serif" font-size="14.00">getAll():List[Metadata]</text>
<text text-anchor="start" x="2502" y="-168.3" font-family="Times,serif" font-size="14.00">clear():void</text>
<polygon fill="none" stroke="black" points="2497.5,-161 2497.5,-274 2842.5,-274 2842.5,-161 2497.5,-161"/>
</g>
<!-- AbstractCatalog&#45;&gt;MetadataCatalog -->
<g id="edge6" class="edge">
<title>AbstractCatalog&#45;&gt;MetadataCatalog</title>
<path fill="none" stroke="black" stroke-dasharray="5,2" d="M2770.3,-376.58C2754.11,-351.06 2732.5,-317.01 2713.49,-287.04"/>
<polygon fill="black" stroke="black" points="2707.94,-278.3 2717.1,-284.33 2710.62,-282.52 2713.3,-286.74 2713.3,-286.74 2713.3,-286.74 2710.62,-282.52 2709.5,-289.15 2707.94,-278.3 2707.94,-278.3"/>
</g>
<!-- Metadata -->
<g id="node23" class="node">
<title>Metadata</title>
<polygon fill="none" stroke="black" points="1866,-66.5 1866,-87.5 1961,-87.5 1961,-66.5 1866,-66.5"/>
<text text-anchor="start" x="1875.5" y="-74.3" font-family="Times,serif" font-weight="bold" font-size="14.00">Metadata</text>
<polygon fill="none" stroke="black" points="1866,-4.5 1866,-66.5 1961,-66.5 1961,-4.5 1866,-4.5"/>
<text text-anchor="start" x="1875.5" y="-53.3" font-family="Times,serif" font-style="italic" font-size="14.00">Properties</text>
<text text-anchor="start" x="1869" y="-39.3" font-family="Times,serif" font-size="14.00">ID:String</text>
<text text-anchor="start" x="1869" y="-25.3" font-family="Times,serif" font-size="14.00">name:String</text>
<text text-anchor="start" x="1869" y="-11.3" font-family="Times,serif" font-size="14.00">type:String</text>
<polygon fill="none" stroke="black" points="1864.5,-4 1864.5,-89 1961.5,-89 1961.5,-4 1864.5,-4"/>
</g>
<!-- MetadataCatalog&#45;&gt;Metadata -->
<g id="edge10" class="edge">
<title>MetadataCatalog&#45;&gt;Metadata</title>
<path fill="none" stroke="black" stroke-dasharray="5,2" d="M2489.16,-176.13C2325.29,-139.54 2092.7,-87.62 1979.73,-62.4"/>
<polygon fill="black" stroke="black" points="1969.83,-60.19 1980.57,-57.98 1974.71,-61.28 1979.59,-62.37 1979.59,-62.37 1979.59,-62.37 1974.71,-61.28 1978.61,-66.76 1969.83,-60.19 1969.83,-60.19"/>
</g>
<!-- ViewDefinitionCatalog -->
<g id="node17" class="node">
<title>ViewDefinitionCatalog</title>
<polygon fill="none" stroke="black" points="2729,-555.5 2729,-576.5 2911,-576.5 2911,-555.5 2729,-555.5"/>
<text text-anchor="start" x="2732" y="-563.3" font-family="Times,serif" font-weight="bold" font-size="14.00">ViewDefinitionCatalog</text>
<polygon fill="none" stroke="black" points="2728,-555 2728,-578 2912,-578 2912,-555 2728,-555"/>
</g>
<!-- ViewDefinitionCatalog&#45;&gt;AbstractCatalog -->
<g id="edge8" class="edge">
<title>ViewDefinitionCatalog&#45;&gt;AbstractCatalog</title>
<path fill="none" stroke="black" d="M2817.08,-548.23C2813.71,-528.27 2808.01,-494.53 2803.25,-466.33"/>
<polygon fill="none" stroke="black" points="2806.66,-465.5 2801.54,-456.23 2799.76,-466.67 2806.66,-465.5"/>
</g>
<!-- KameletParseCatalog -->
<g id="node18" class="node">
<title>KameletParseCatalog</title>
<polygon fill="none" stroke="black" points="3942,-726.5 3942,-747.5 4119,-747.5 4119,-726.5 3942,-726.5"/>
<text text-anchor="start" x="3945" y="-734.3" font-family="Times,serif" font-weight="bold" font-size="14.00">KameletParseCatalog</text>
<polygon fill="none" stroke="black" points="3940.5,-726 3940.5,-749 4119.5,-749 4119.5,-726 3940.5,-726"/>
</g>
<!-- ParseCatalog -->
<g id="node19" class="node">
<title>ParseCatalog</title>
<polygon fill="none" stroke="black" points="4363,-579.5 4363,-600.5 4695,-600.5 4695,-579.5 4363,-579.5"/>
<text text-anchor="start" x="4476.5" y="-587.3" font-family="Times,serif" font-weight="bold" font-size="14.00">ParseCatalog</text>
<polygon fill="none" stroke="black" points="4363,-531.5 4363,-579.5 4695,-579.5 4695,-531.5 4363,-531.5"/>
<text text-anchor="start" x="4497.5" y="-566.3" font-family="Times,serif" font-style="italic" font-size="14.00">Methods</text>
<text text-anchor="start" x="4366" y="-552.3" font-family="Times,serif" font-size="14.00">parse():CompletableFuture[List[T]]</text>
<text text-anchor="start" x="4366" y="-538.3" font-family="Times,serif" font-size="14.00">setFileVisitor(&lt;YamlProcessFile&gt; fileVisitor):</text>
<polygon fill="none" stroke="black" points="4362,-531 4362,-602 4696,-602 4696,-531 4362,-531"/>
</g>
<!-- KameletParseCatalog&#45;&gt;ParseCatalog -->
<g id="edge9" class="edge">
<title>KameletParseCatalog&#45;&gt;ParseCatalog</title>
<path fill="none" stroke="black" stroke-dasharray="5,2" d="M4043.81,-719.46C4062.38,-697.8 4097.52,-660.96 4136,-642 4199.98,-610.48 4275.87,-592.26 4343.82,-581.75"/>
<polygon fill="black" stroke="black" points="4353.79,-580.25 4344.57,-586.18 4348.85,-580.99 4343.9,-581.73 4343.9,-581.73 4343.9,-581.73 4348.85,-580.99 4343.23,-577.28 4353.79,-580.25 4353.79,-580.25"/>
</g>
<!-- Condition -->
<g id="node20" class="node">
<title>Condition</title>
<polygon fill="none" stroke="black" points="5202,-726.5 5202,-747.5 5286,-747.5 5286,-726.5 5202,-726.5"/>
<text text-anchor="start" x="5205" y="-734.3" font-family="Times,serif" font-weight="bold" font-size="14.00">Condition</text>
<polygon fill="none" stroke="black" points="5201,-726 5201,-749 5287,-749 5287,-726 5201,-726"/>
</g>
<!-- Kamelet -->
<g id="node21" class="node">
<title>Kamelet</title>
<polygon fill="none" stroke="black" points="5323,-726.5 5323,-747.5 5396,-747.5 5396,-726.5 5323,-726.5"/>
<text text-anchor="start" x="5326" y="-734.3" font-family="Times,serif" font-weight="bold" font-size="14.00">Kamelet</text>
<polygon fill="none" stroke="black" points="5321.5,-726 5321.5,-749 5396.5,-749 5396.5,-726 5321.5,-726"/>
</g>
<!-- KameletBinding -->
<g id="node22" class="node">
<title>KameletBinding</title>
<polygon fill="none" stroke="black" points="5432,-726.5 5432,-747.5 5568,-747.5 5568,-726.5 5432,-726.5"/>
<text text-anchor="start" x="5435" y="-734.3" font-family="Times,serif" font-weight="bold" font-size="14.00">KameletBinding</text>
<polygon fill="none" stroke="black" points="5431,-726 5431,-749 5569,-749 5569,-726 5431,-726"/>
</g>
<!-- CatalogCollection -->
<g id="node24" class="node">
<title>CatalogCollection</title>
<polygon fill="none" stroke="black" points="2970,-405.5 2970,-426.5 3116,-426.5 3116,-405.5 2970,-405.5"/>
<text text-anchor="start" x="2973" y="-413.3" font-family="Times,serif" font-weight="bold" font-size="14.00">CatalogCollection</text>
<polygon fill="none" stroke="black" points="2969,-405 2969,-428 3117,-428 3117,-405 2969,-405"/>
</g>
<!-- CatalogCollection&#45;&gt;MetadataCatalog -->
<g id="edge11" class="edge">
<title>CatalogCollection&#45;&gt;MetadataCatalog</title>
<path fill="none" stroke="black" d="M3024.92,-398.45C3007.3,-382.45 2979.25,-358.56 2952,-342 2915.74,-319.96 2874.85,-299.72 2835.69,-282.27"/>
<polygon fill="none" stroke="black" points="2836.87,-278.97 2826.31,-278.13 2834.05,-285.37 2836.87,-278.97"/>
</g>
<!-- InMemoryCatalog -->
<g id="node25" class="node">
<title>InMemoryCatalog</title>
<polygon fill="none" stroke="black" points="2472,-405.5 2472,-426.5 2620,-426.5 2620,-405.5 2472,-405.5"/>
<text text-anchor="start" x="2475" y="-413.3" font-family="Times,serif" font-weight="bold" font-size="14.00">InMemoryCatalog</text>
<polygon fill="none" stroke="black" points="2471,-405 2471,-428 2621,-428 2621,-405 2471,-405"/>
</g>
<!-- InMemoryCatalog&#45;&gt;MetadataCatalog -->
<g id="edge12" class="edge">
<title>InMemoryCatalog&#45;&gt;MetadataCatalog</title>
<path fill="none" stroke="black" d="M2556.79,-398.36C2572.29,-373.73 2601.76,-326.92 2626.74,-287.23"/>
<polygon fill="none" stroke="black" points="2629.96,-288.69 2632.32,-278.36 2624.03,-284.96 2629.96,-288.69"/>
</g>
<!-- ReadOnlyCatalog -->
<g id="node26" class="node">
<title>ReadOnlyCatalog</title>
<polygon fill="none" stroke="black" points="2972,-555.5 2972,-576.5 3114,-576.5 3114,-555.5 2972,-555.5"/>
<text text-anchor="start" x="2975" y="-563.3" font-family="Times,serif" font-weight="bold" font-size="14.00">ReadOnlyCatalog</text>
<polygon fill="none" stroke="black" points="2971,-555 2971,-578 3115,-578 3115,-555 2971,-555"/>
</g>
<!-- ReadOnlyCatalog&#45;&gt;CatalogCollection -->
<g id="edge13" class="edge">
<title>ReadOnlyCatalog&#45;&gt;CatalogCollection</title>
<path fill="none" stroke="black" d="M3043,-548.23C3043,-522.83 3043,-475.15 3043,-444.93"/>
<polygon fill="none" stroke="black" points="3046.5,-444.66 3043,-434.66 3039.5,-444.66 3046.5,-444.66"/>
</g>
<!-- ClusterParseCatalog -->
<g id="node27" class="node">
<title>ClusterParseCatalog</title>
<polygon fill="none" stroke="black" points="4155,-726.5 4155,-747.5 4324,-747.5 4324,-726.5 4155,-726.5"/>
<text text-anchor="start" x="4158" y="-734.3" font-family="Times,serif" font-weight="bold" font-size="14.00">ClusterParseCatalog</text>
<polygon fill="none" stroke="black" points="4153.5,-726 4153.5,-749 4324.5,-749 4324.5,-726 4153.5,-726"/>
</g>
<!-- ClusterParseCatalog&#45;&gt;ParseCatalog -->
<g id="edge14" class="edge">
<title>ClusterParseCatalog&#45;&gt;ParseCatalog</title>
<path fill="none" stroke="black" d="M4253.9,-719.46C4272.71,-698.82 4306.86,-664.07 4342,-642 4361.08,-630.02 4382.4,-619.35 4403.64,-610.09"/>
<polygon fill="none" stroke="black" points="4405.23,-613.21 4413.05,-606.07 4402.48,-606.78 4405.23,-613.21"/>
</g>
<!-- GitParseCatalog -->
<g id="node28" class="node">
<title>GitParseCatalog</title>
<polygon fill="none" stroke="black" points="5031,-726.5 5031,-747.5 5166,-747.5 5166,-726.5 5031,-726.5"/>
<text text-anchor="start" x="5034" y="-734.3" font-family="Times,serif" font-weight="bold" font-size="14.00">GitParseCatalog</text>
<polygon fill="none" stroke="black" points="5029.5,-726 5029.5,-749 5166.5,-749 5166.5,-726 5029.5,-726"/>
</g>
<!-- GitParseCatalog&#45;&gt;ParseCatalog -->
<g id="edge15" class="edge">
<title>GitParseCatalog&#45;&gt;ParseCatalog</title>
<path fill="none" stroke="black" d="M5087.65,-719.24C5073.52,-697.35 5046.01,-660.26 5012,-642 4961.16,-614.7 4827.99,-595.38 4714.33,-583.27"/>
<polygon fill="none" stroke="black" points="4714.41,-579.76 4704.1,-582.19 4713.68,-586.72 4714.41,-579.76"/>
</g>
<!-- YamlProcessFile -->
<g id="node29" class="node">
<title>YamlProcessFile</title>
<polygon fill="none" stroke="black" points="5031,-555.5 5031,-576.5 5166,-576.5 5166,-555.5 5031,-555.5"/>
<text text-anchor="start" x="5034" y="-563.3" font-family="Times,serif" font-weight="bold" font-size="14.00">YamlProcessFile</text>
<polygon fill="none" stroke="black" points="5029.5,-555 5029.5,-578 5166.5,-578 5166.5,-555 5029.5,-555"/>
</g>
<!-- GitParseCatalog&#45;&gt;YamlProcessFile -->
<g id="edge16" class="edge">
<title>GitParseCatalog&#45;&gt;YamlProcessFile</title>
<path fill="none" stroke="black" stroke-dasharray="5,2" d="M5093.72,-719.37C5090.74,-690.01 5090.45,-629.88 5092.88,-594.73"/>
<polygon fill="black" stroke="black" points="5093.72,-584.68 5097.37,-595.02 5093.3,-589.66 5092.89,-594.65 5092.89,-594.65 5092.89,-594.65 5093.3,-589.66 5088.4,-594.27 5093.72,-584.68 5093.72,-584.68"/>
</g>
<!-- YamlProcessFile&#45;&gt;GitParseCatalog -->
<g id="edge19" class="edge">
<title>YamlProcessFile&#45;&gt;GitParseCatalog</title>
<path fill="none" stroke="black" stroke-dasharray="5,2" d="M5102.28,-584.68C5105.27,-614.07 5105.54,-674.2 5103.12,-709.33"/>
<polygon fill="black" stroke="black" points="5102.28,-719.37 5098.63,-709.02 5102.69,-714.38 5103.11,-709.4 5103.11,-709.4 5103.11,-709.4 5102.69,-714.38 5107.59,-709.78 5102.28,-719.37 5102.28,-719.37"/>
</g>
<!-- JarParseCatalog -->
<g id="node30" class="node">
<title>JarParseCatalog</title>
<polygon fill="none" stroke="black" points="4360,-726.5 4360,-747.5 4494,-747.5 4494,-726.5 4360,-726.5"/>
<text text-anchor="start" x="4363" y="-734.3" font-family="Times,serif" font-weight="bold" font-size="14.00">JarParseCatalog</text>
<polygon fill="none" stroke="black" points="4359,-726 4359,-749 4495,-749 4495,-726 4359,-726"/>
</g>
<!-- JarParseCatalog&#45;&gt;ParseCatalog -->
<g id="edge17" class="edge">
<title>JarParseCatalog&#45;&gt;ParseCatalog</title>
<path fill="none" stroke="black" d="M4437.34,-719.37C4452,-695.07 4479.38,-649.71 4500.42,-614.86"/>
<polygon fill="none" stroke="black" points="4503.44,-616.62 4505.61,-606.25 4497.45,-613 4503.44,-616.62"/>
</g>
<!-- LocalFolderParseCatalog -->
<g id="node31" class="node">
<title>LocalFolderParseCatalog</title>
<polygon fill="none" stroke="black" points="4530,-726.5 4530,-747.5 4732,-747.5 4732,-726.5 4530,-726.5"/>
<text text-anchor="start" x="4533" y="-734.3" font-family="Times,serif" font-weight="bold" font-size="14.00">LocalFolderParseCatalog</text>
<polygon fill="none" stroke="black" points="4529,-726 4529,-749 4733,-749 4733,-726 4529,-726"/>
</g>
<!-- LocalFolderParseCatalog&#45;&gt;ParseCatalog -->
<g id="edge18" class="edge">
<title>LocalFolderParseCatalog&#45;&gt;ParseCatalog</title>
<path fill="none" stroke="black" d="M4620.66,-719.37C4606,-695.07 4578.62,-649.71 4557.58,-614.86"/>
<polygon fill="none" stroke="black" points="4560.55,-613 4552.39,-606.25 4554.56,-616.62 4560.55,-613"/>
</g>
<!-- ViewDefinitionParseCatalog -->
<g id="node32" class="node">
<title>ViewDefinitionParseCatalog</title>
<polygon fill="none" stroke="black" points="4768,-726.5 4768,-747.5 4994,-747.5 4994,-726.5 4768,-726.5"/>
<text text-anchor="start" x="4771" y="-734.3" font-family="Times,serif" font-weight="bold" font-size="14.00">ViewDefinitionParseCatalog</text>
<polygon fill="none" stroke="black" points="4767,-726 4767,-749 4995,-749 4995,-726 4767,-726"/>
</g>
<!-- ViewDefinitionParseCatalog&#45;&gt;ParseCatalog -->
<g id="edge20" class="edge">
<title>ViewDefinitionParseCatalog&#45;&gt;ParseCatalog</title>
<path fill="none" stroke="black" stroke-dasharray="5,2" d="M4861.37,-719.42C4836.77,-698.73 4792.64,-663.93 4750,-642 4726.19,-629.75 4699.93,-618.86 4674.08,-609.45"/>
<polygon fill="black" stroke="black" points="4664.58,-606.04 4675.52,-605.18 4669.29,-607.73 4674,-609.41 4674,-609.41 4674,-609.41 4669.29,-607.73 4672.48,-613.65 4664.58,-606.04 4664.58,-606.04"/>
</g>
<!-- Parameter -->
<g id="node33" class="node">
<title>Parameter</title>
<polygon fill="none" stroke="black" points="5604,-806.5 5604,-827.5 5740,-827.5 5740,-806.5 5604,-806.5"/>
<text text-anchor="start" x="5630" y="-814.3" font-family="Times,serif" font-weight="bold" font-size="14.00">Parameter</text>
<polygon fill="none" stroke="black" points="5604,-646.5 5604,-806.5 5740,-806.5 5740,-646.5 5604,-646.5"/>
<text text-anchor="start" x="5634" y="-793.3" font-family="Times,serif" font-style="italic" font-size="14.00">Properties</text>
<text text-anchor="start" x="5607" y="-779.3" font-family="Times,serif" font-size="14.00">description:String</text>
<text text-anchor="start" x="5607" y="-765.3" font-family="Times,serif" font-size="14.00">title:String</text>
<text text-anchor="start" x="5607" y="-751.3" font-family="Times,serif" font-size="14.00">id:String</text>
<text text-anchor="start" x="5607" y="-737.3" font-family="Times,serif" font-size="14.00">value:Object</text>
<text text-anchor="start" x="5607" y="-723.3" font-family="Times,serif" font-size="14.00">default:Object</text>
<text text-anchor="start" x="5607" y="-709.3" font-family="Times,serif" font-size="14.00">type:String</text>
<text text-anchor="start" x="5607" y="-695.3" font-family="Times,serif" font-size="14.00">path:Boolean</text>
<text text-anchor="start" x="5607" y="-681.3" font-family="Times,serif" font-size="14.00">nullable:Boolean</text>
<text text-anchor="start" x="5607" y="-667.3" font-family="Times,serif" font-size="14.00">enum:Object[]</text>
<text text-anchor="start" x="5607" y="-653.3" font-family="Times,serif" font-size="14.00">examples:Object[]</text>
<polygon fill="none" stroke="black" points="5603,-646 5603,-829 5741,-829 5741,-646 5603,-646"/>
</g>
<!-- Branch -->
<g id="node34" class="node">
<title>Branch</title>
<polygon fill="none" stroke="black" points="5776,-726.5 5776,-747.5 5840,-747.5 5840,-726.5 5776,-726.5"/>
<text text-anchor="start" x="5779" y="-734.3" font-family="Times,serif" font-weight="bold" font-size="14.00">Branch</text>
<polygon fill="none" stroke="black" points="5775,-726 5775,-749 5841,-749 5841,-726 5775,-726"/>
</g>
<!-- Step&#45;&gt;Metadata -->
<g id="edge21" class="edge">
<title>Step&#45;&gt;Metadata</title>
<path fill="none" stroke="black" d="M1020.36,-197.61C1230.55,-162.26 1677.24,-87.15 1846.29,-58.72"/>
<polygon fill="none" stroke="black" points="1847.02,-62.14 1856.3,-57.03 1845.86,-55.24 1847.02,-62.14"/>
</g>
<!-- ViewDefinition&#45;&gt;Metadata -->
<g id="edge22" class="edge">
<title>ViewDefinition&#45;&gt;Metadata</title>
<path fill="none" stroke="black" d="M1913,-163.95C1913,-144.73 1913,-122.93 1913,-103.43"/>
<polygon fill="none" stroke="black" points="1916.5,-103.16 1913,-93.16 1909.5,-103.16 1916.5,-103.16"/>
</g>
<!-- ViewDefinitionConstraint -->
<g id="node37" class="node">
<title>ViewDefinitionConstraint</title>
<polygon fill="none" stroke="black" points="1576,-436.5 1576,-457.5 1802,-457.5 1802,-436.5 1576,-436.5"/>
<text text-anchor="start" x="1588.5" y="-444.3" font-family="Times,serif" font-weight="bold" font-size="14.00">ViewDefinitionConstraint</text>
<polygon fill="none" stroke="black" points="1576,-374.5 1576,-436.5 1802,-436.5 1802,-374.5 1576,-374.5"/>
<text text-anchor="start" x="1651" y="-423.3" font-family="Times,serif" font-style="italic" font-size="14.00">Properties</text>
<text text-anchor="start" x="1579" y="-409.3" font-family="Times,serif" font-size="14.00">mandatory:boolean</text>
<text text-anchor="start" x="1579" y="-395.3" font-family="Times,serif" font-size="14.00">operation:ConstraintOperation</text>
<text text-anchor="start" x="1579" y="-381.3" font-family="Times,serif" font-size="14.00">parameter:String</text>
<polygon fill="none" stroke="black" points="1575,-374 1575,-459 1803,-459 1803,-374 1575,-374"/>
</g>
<!-- ViewDefinitionConstraint&#45;&gt;ViewDefinition -->
<g id="edge23" class="edge">
<title>ViewDefinitionConstraint&#45;&gt;ViewDefinition</title>
<path fill="none" stroke="black" d="M1740.95,-369.81C1771.55,-342.9 1810.64,-308.53 1843.82,-279.34"/>
<polygon fill="black" stroke="black" points="1844,-279.18 1845.86,-272.22 1853.01,-271.26 1851.15,-278.23 1844,-279.18"/>
<text text-anchor="middle" x="1726.95" y="-358.61" font-family="Times,serif" font-size="14.00">0..n</text>
</g>
<!-- DeploymentGeneratorService -->
<g id="node38" class="node">
<title>DeploymentGeneratorService</title>
<polygon fill="none" stroke="black" points="132,-464.5 132,-485.5 745,-485.5 745,-464.5 132,-464.5"/>
<text text-anchor="start" x="322.5" y="-472.3" font-family="Times,serif" font-weight="bold" font-size="14.00">DeploymentGeneratorService</text>
<polygon fill="none" stroke="black" points="132,-346.5 132,-464.5 745,-464.5 745,-346.5 132,-346.5"/>
<text text-anchor="start" x="407" y="-451.3" font-family="Times,serif" font-style="italic" font-size="14.00">Methods</text>
<text text-anchor="start" x="135" y="-437.3" font-family="Times,serif" font-size="14.00">identifier():String</text>
<text text-anchor="start" x="135" y="-423.3" font-family="Times,serif" font-size="14.00">description():String</text>
<text text-anchor="start" x="135" y="-409.3" font-family="Times,serif" font-size="14.00">parse(&lt;List[Step]&gt; steps, &lt;List[Parameter]&gt; parameters, &lt;Map&gt; metadata):String</text>
<text text-anchor="start" x="135" y="-395.3" font-family="Times,serif" font-size="14.00">appliesTo(&lt;List[Step]&gt; steps):boolean</text>
<text text-anchor="start" x="135" y="-381.3" font-family="Times,serif" font-size="14.00">getStatus():CustomResource</text>
<text text-anchor="start" x="135" y="-367.3" font-family="Times,serif" font-size="14.00">supportedCustomResources():List&lt;Class&gt;</text>
<text text-anchor="start" x="135" y="-353.3" font-family="Times,serif" font-size="14.00">getKinds():String[]</text>
<polygon fill="none" stroke="black" points="130.5,-346 130.5,-487 745.5,-487 745.5,-346 130.5,-346"/>
</g>
<!-- DeploymentGeneratorService&#45;&gt;Step -->
<g id="edge24" class="edge">
<title>DeploymentGeneratorService&#45;&gt;Step</title>
<path fill="none" stroke="black" stroke-dasharray="5,2" d="M613.68,-341.86C671.24,-317.74 733.87,-291.49 786.51,-269.42"/>
<polygon fill="black" stroke="black" points="795.88,-265.5 788.4,-273.51 791.27,-267.43 786.66,-269.36 786.66,-269.36 786.66,-269.36 791.27,-267.43 784.92,-265.21 795.88,-265.5 795.88,-265.5"/>
</g>
</g>
</svg>
