<?xml version="1.0" encoding="UTF-8" standalone="no"?>
<!DOCTYPE svg PUBLIC "-//W3C//DTD SVG 1.1//EN"
 "http://www.w3.org/Graphics/SVG/1.1/DTD/svg11.dtd">
<!-- Generated by graphviz version 2.43.0 (0)
 -->
<!-- Title: ClassDiagram Pages: 1 -->
<svg width="839pt" height="216pt"
 viewBox="0.00 0.00 839.00 216.00" xmlns="http://www.w3.org/2000/svg" xmlns:xlink="http://www.w3.org/1999/xlink">
<g id="graph0" class="graph" transform="scale(1 1) rotate(0) translate(4 212)">
<title>ClassDiagram</title>
<polygon fill="white" stroke="transparent" points="-4,4 -4,-212 835,-212 835,4 -4,4"/>
<!-- Parameter -->
<g id="node1" class="node">
<title>Parameter</title>
<polygon fill="none" stroke="black" points="206,-80.5 206,-101.5 342,-101.5 342,-80.5 206,-80.5"/>
<text text-anchor="start" x="232" y="-88.3" font-family="Times,serif" font-weight="bold" font-size="14.00">Parameter</text>
<polygon fill="none" stroke="black" points="206,-4.5 206,-80.5 342,-80.5 342,-4.5 206,-4.5"/>
<text text-anchor="start" x="236" y="-67.3" font-family="Times,serif" font-style="italic" font-size="14.00">Properties</text>
<text text-anchor="start" x="209" y="-53.3" font-family="Times,serif" font-size="14.00">label:String</text>
<text text-anchor="start" x="209" y="-39.3" font-family="Times,serif" font-size="14.00">type:String</text>
<text text-anchor="start" x="209" y="-25.3" font-family="Times,serif" font-size="14.00">default:String</text>
<text text-anchor="start" x="209" y="-11.3" font-family="Times,serif" font-size="14.00">description:String</text>
<polygon fill="none" stroke="black" points="205,-4 205,-103 343,-103 343,-4 205,-4"/>
</g>
<!-- Step -->
<g id="node2" class="node">
<title>Step</title>
<polygon fill="none" stroke="black" points="542,-73.5 542,-94.5 655,-94.5 655,-73.5 542,-73.5"/>
<text text-anchor="start" x="580.5" y="-81.3" font-family="Times,serif" font-weight="bold" font-size="14.00">Step</text>
<polygon fill="none" stroke="black" points="542,-11.5 542,-73.5 655,-73.5 655,-11.5 542,-11.5"/>
<text text-anchor="start" x="560.5" y="-60.3" font-family="Times,serif" font-style="italic" font-size="14.00">Properties</text>
<text text-anchor="start" x="545" y="-46.3" font-family="Times,serif" font-size="14.00">ID:String</text>
<text text-anchor="start" x="545" y="-32.3" font-family="Times,serif" font-size="14.00">type:String</text>
<text text-anchor="start" x="545" y="-18.3" font-family="Times,serif" font-size="14.00">subtype:String</text>
<polygon fill="none" stroke="black" points="540.5,-11 540.5,-96 655.5,-96 655.5,-11 540.5,-11"/>
</g>
<!-- View -->
<g id="node3" class="node">
<title>View</title>
<polygon fill="none" stroke="black" points="708,-66.5 708,-87.5 803,-87.5 803,-66.5 708,-66.5"/>
<text text-anchor="start" x="737" y="-74.3" font-family="Times,serif" font-weight="bold" font-size="14.00">View</text>
<polygon fill="none" stroke="black" points="708,-18.5 708,-66.5 803,-66.5 803,-18.5 708,-18.5"/>
<text text-anchor="start" x="717.5" y="-53.3" font-family="Times,serif" font-style="italic" font-size="14.00">Properties</text>
<text text-anchor="start" x="711" y="-39.3" font-family="Times,serif" font-size="14.00">type:String</text>
<text text-anchor="start" x="711" y="-25.3" font-family="Times,serif" font-size="14.00">name:String</text>
<polygon fill="none" stroke="black" points="706.5,-18 706.5,-89 803.5,-89 803.5,-18 706.5,-18"/>
</g>
<!-- BooleanParameter -->
<g id="node4" class="node">
<title>BooleanParameter</title>
<polygon fill="none" stroke="black" points="9,-164.5 9,-185.5 163,-185.5 163,-164.5 9,-164.5"/>
<text text-anchor="start" x="12" y="-172.3" font-family="Times,serif" font-weight="bold" font-size="14.00">BooleanParameter</text>
<polygon fill="none" stroke="black" points="8,-164 8,-187 164,-187 164,-164 8,-164"/>
</g>
<!-- BooleanParameter&#45;&gt;Parameter -->
<g id="edge1" class="edge">
<title>BooleanParameter&#45;&gt;Parameter</title>
<path fill="none" stroke="black" d="M112.94,-157.31C132.72,-144.68 160.79,-126.76 187.96,-109.42"/>
<polygon fill="none" stroke="black" points="190.19,-112.15 196.74,-103.82 186.42,-106.25 190.19,-112.15"/>
</g>
<!-- IntegerParameter -->
<g id="node5" class="node">
<title>IntegerParameter</title>
<polygon fill="none" stroke="black" points="200,-164.5 200,-185.5 349,-185.5 349,-164.5 200,-164.5"/>
<text text-anchor="start" x="203" y="-172.3" font-family="Times,serif" font-weight="bold" font-size="14.00">IntegerParameter</text>
<polygon fill="none" stroke="black" points="198.5,-164 198.5,-187 349.5,-187 349.5,-164 198.5,-164"/>
</g>
<!-- IntegerParameter&#45;&gt;Parameter -->
<g id="edge2" class="edge">
<title>IntegerParameter&#45;&gt;Parameter</title>
<path fill="none" stroke="black" d="M274,-157.31C274,-146.62 274,-132.15 274,-117.44"/>
<polygon fill="none" stroke="black" points="277.5,-117.26 274,-107.26 270.5,-117.26 277.5,-117.26"/>
</g>
<!-- TextParameter -->
<g id="node6" class="node">
<title>TextParameter</title>
<polygon fill="none" stroke="black" points="385,-164.5 385,-185.5 508,-185.5 508,-164.5 385,-164.5"/>
<text text-anchor="start" x="388" y="-172.3" font-family="Times,serif" font-weight="bold" font-size="14.00">TextParameter</text>
<polygon fill="none" stroke="black" points="383.5,-164 383.5,-187 508.5,-187 508.5,-164 383.5,-164"/>
</g>
<!-- TextParameter&#45;&gt;Parameter -->
<g id="edge3" class="edge">
<title>TextParameter&#45;&gt;Parameter</title>
<path fill="none" stroke="black" d="M421.36,-157.31C404.56,-145.59 381.25,-129.33 358.13,-113.19"/>
<polygon fill="none" stroke="black" points="359.83,-110.11 349.63,-107.26 355.83,-115.86 359.83,-110.11"/>
</g>
<!-- KameletStep -->
<g id="node7" class="node">
<title>KameletStep</title>
<polygon fill="none" stroke="black" points="544,-164.5 544,-185.5 652,-185.5 652,-164.5 544,-164.5"/>
<text text-anchor="start" x="547" y="-172.3" font-family="Times,serif" font-weight="bold" font-size="14.00">KameletStep</text>
<polygon fill="none" stroke="black" points="543,-164 543,-187 653,-187 653,-164 543,-164"/>
</g>
<!-- KameletStep&#45;&gt;Step -->
<g id="edge4" class="edge">
<title>KameletStep&#45;&gt;Step</title>
<path fill="none" stroke="black" d="M598,-157.31C598,-144.96 598,-127.58 598,-110.61"/>
<polygon fill="none" stroke="black" points="601.5,-110.14 598,-100.14 594.5,-110.14 601.5,-110.14"/>
</g>
<!-- IntegrationView -->
<g id="node8" class="node">
<title>IntegrationView</title>
<polygon fill="none" stroke="black" points="688,-181.5 688,-202.5 822,-202.5 822,-181.5 688,-181.5"/>
<text text-anchor="start" x="691" y="-189.3" font-family="Times,serif" font-weight="bold" font-size="14.00">IntegrationView</text>
<polygon fill="none" stroke="black" points="688,-147.5 688,-181.5 822,-181.5 822,-147.5 688,-147.5"/>
<text text-anchor="start" x="717" y="-168.3" font-family="Times,serif" font-style="italic" font-size="14.00">Properties</text>
<text text-anchor="start" x="691.5" y="-154.3" font-family="Times,serif" font-size="14.00">steps:List&lt;Step&gt;</text>
<polygon fill="none" stroke="black" points="687,-147 687,-204 823,-204 823,-147 687,-147"/>
</g>
<!-- IntegrationView&#45;&gt;View -->
<g id="edge5" class="edge">
<title>IntegrationView&#45;&gt;View</title>
<path fill="none" stroke="black" d="M755,-142.97C755,-130.8 755,-116.59 755,-103.16"/>
<polygon fill="none" stroke="black" points="758.5,-103.1 755,-93.1 751.5,-103.1 758.5,-103.1"/>
</g>
</g>
</svg>
