<?xml version="1.0" encoding="UTF-8" standalone="no"?>
<!DOCTYPE svg PUBLIC "-//W3C//DTD SVG 1.1//EN"
 "http://www.w3.org/Graphics/SVG/1.1/DTD/svg11.dtd">
<!-- Generated by graphviz version 2.43.0 (0)
 -->
<!-- Title: ClassDiagram Pages: 1 -->
<svg width="534pt" height="614pt"
 viewBox="0.00 0.00 533.50 614.00" xmlns="http://www.w3.org/2000/svg" xmlns:xlink="http://www.w3.org/1999/xlink">
<g id="graph0" class="graph" transform="scale(1 1) rotate(0) translate(4 610)">
<title>ClassDiagram</title>
<polygon fill="white" stroke="transparent" points="-4,4 -4,-610 529.5,-610 529.5,4 -4,4"/>
<!-- Metadata -->
<g id="node1" class="node">
<title>Metadata</title>
<polygon fill="none" stroke="black" points="190,-66.5 190,-87.5 285,-87.5 285,-66.5 190,-66.5"/>
<text text-anchor="start" x="199.5" y="-74.3" font-family="Times,serif" font-weight="bold" font-size="14.00">Metadata</text>
<polygon fill="none" stroke="black" points="190,-4.5 190,-66.5 285,-66.5 285,-4.5 190,-4.5"/>
<text text-anchor="start" x="199.5" y="-53.3" font-family="Times,serif" font-style="italic" font-size="14.00">Properties</text>
<text text-anchor="start" x="193" y="-39.3" font-family="Times,serif" font-size="14.00">ID:String</text>
<text text-anchor="start" x="193" y="-25.3" font-family="Times,serif" font-size="14.00">name:String</text>
<text text-anchor="start" x="193" y="-11.3" font-family="Times,serif" font-size="14.00">type:String</text>
<polygon fill="none" stroke="black" points="188.5,-4 188.5,-89 285.5,-89 285.5,-4 188.5,-4"/>
</g>
<!-- Parameter -->
<g id="node2" class="node">
<title>Parameter</title>
<polygon fill="none" stroke="black" points="44,-579.5 44,-600.5 180,-600.5 180,-579.5 44,-579.5"/>
<text text-anchor="start" x="70" y="-587.3" font-family="Times,serif" font-weight="bold" font-size="14.00">Parameter</text>
<polygon fill="none" stroke="black" points="44,-475.5 44,-579.5 180,-579.5 180,-475.5 44,-475.5"/>
<text text-anchor="start" x="74" y="-566.3" font-family="Times,serif" font-style="italic" font-size="14.00">Properties</text>
<text text-anchor="start" x="47" y="-552.3" font-family="Times,serif" font-size="14.00">description:String</text>
<text text-anchor="start" x="47" y="-538.3" font-family="Times,serif" font-size="14.00">label:String</text>
<text text-anchor="start" x="47" y="-524.3" font-family="Times,serif" font-size="14.00">id:String</text>
<text text-anchor="start" x="47" y="-510.3" font-family="Times,serif" font-size="14.00">value:String</text>
<text text-anchor="start" x="47" y="-496.3" font-family="Times,serif" font-size="14.00">default:String</text>
<text text-anchor="start" x="47" y="-482.3" font-family="Times,serif" font-size="14.00">type:String</text>
<polygon fill="none" stroke="black" points="43,-475 43,-602 181,-602 181,-475 43,-475"/>
</g>
<!-- KameletStep -->
<g id="node4" class="node">
<title>KameletStep</title>
<polygon fill="none" stroke="black" points="9,-408.5 9,-429.5 215,-429.5 215,-408.5 9,-408.5"/>
<text text-anchor="start" x="61" y="-416.3" font-family="Times,serif" font-weight="bold" font-size="14.00">KameletStep</text>
<polygon fill="none" stroke="black" points="9,-262.5 9,-408.5 215,-408.5 215,-262.5 9,-262.5"/>
<text text-anchor="start" x="74" y="-395.3" font-family="Times,serif" font-style="italic" font-size="14.00">Properties</text>
<text text-anchor="start" x="12" y="-381.3" font-family="Times,serif" font-size="14.00">group:String</text>
<text text-anchor="start" x="12" y="-367.3" font-family="Times,serif" font-size="14.00">title:String</text>
<text text-anchor="start" x="12" y="-353.3" font-family="Times,serif" font-size="14.00">description:String</text>
<text text-anchor="start" x="12" y="-339.3" font-family="Times,serif" font-size="14.00">kameletType:String</text>
<text text-anchor="start" x="12" y="-325.3" font-family="Times,serif" font-size="14.00">apiVersion:String</text>
<text text-anchor="start" x="12" y="-311.3" font-family="Times,serif" font-size="14.00">kind:String</text>
<text text-anchor="start" x="12" y="-297.3" font-family="Times,serif" font-size="14.00">spec:String</text>
<text text-anchor="start" x="12" y="-283.3" font-family="Times,serif" font-size="14.00">parameters:List[Parameter]</text>
<text text-anchor="start" x="12" y="-269.3" font-family="Times,serif" font-size="14.00">icon:String</text>
<polygon fill="none" stroke="black" points="8,-262 8,-431 216,-431 216,-262 8,-262"/>
</g>
<!-- Parameter&#45;&gt;KameletStep -->
<g id="edge3" class="edge">
<title>Parameter&#45;&gt;KameletStep</title>
<path fill="none" stroke="black" d="M112,-470.78C112,-463.11 112,-455.17 112,-447.19"/>
<polygon fill="black" stroke="black" points="112,-447.07 108,-441.07 112,-435.07 116,-441.07 112,-447.07"/>
<text text-anchor="middle" x="98" y="-459.58" font-family="Times,serif" font-size="14.00">0..n</text>
</g>
<!-- Step -->
<g id="node3" class="node">
<title>Step</title>
<polygon fill="none" stroke="black" points="58,-181.5 58,-202.5 171,-202.5 171,-181.5 58,-181.5"/>
<text text-anchor="start" x="96.5" y="-189.3" font-family="Times,serif" font-weight="bold" font-size="14.00">Step</text>
<polygon fill="none" stroke="black" points="58,-147.5 58,-181.5 171,-181.5 171,-147.5 58,-147.5"/>
<text text-anchor="start" x="76.5" y="-168.3" font-family="Times,serif" font-style="italic" font-size="14.00">Properties</text>
<text text-anchor="start" x="61" y="-154.3" font-family="Times,serif" font-size="14.00">subtype:String</text>
<polygon fill="none" stroke="black" points="56.5,-147 56.5,-204 171.5,-204 171.5,-147 56.5,-147"/>
</g>
<!-- Step&#45;&gt;Metadata -->
<g id="edge1" class="edge">
<title>Step&#45;&gt;Metadata</title>
<path fill="none" stroke="black" d="M144.72,-142.78C157.08,-130.02 171.68,-114.95 185.57,-100.6"/>
<polygon fill="none" stroke="black" points="188.31,-102.8 192.75,-93.18 183.28,-97.93 188.31,-102.8"/>
</g>
<!-- KameletStep&#45;&gt;Step -->
<g id="edge2" class="edge">
<title>KameletStep&#45;&gt;Step</title>
<path fill="none" stroke="black" d="M113.04,-257.54C113.2,-243.89 113.36,-230.36 113.5,-218.38"/>
<polygon fill="none" stroke="black" points="117.01,-218.33 113.62,-208.29 110.01,-218.25 117.01,-218.33"/>
</g>
<!-- ViewDefinition -->
<g id="node5" class="node">
<title>ViewDefinition</title>
<polygon fill="none" stroke="black" points="208,-195.5 208,-216.5 517,-216.5 517,-195.5 208,-195.5"/>
<text text-anchor="start" x="304.5" y="-203.3" font-family="Times,serif" font-weight="bold" font-size="14.00">ViewDefinition</text>
<polygon fill="none" stroke="black" points="208,-133.5 208,-195.5 517,-195.5 517,-133.5 208,-133.5"/>
<text text-anchor="start" x="324.5" y="-182.3" font-family="Times,serif" font-style="italic" font-size="14.00">Properties</text>
<text text-anchor="start" x="211" y="-168.3" font-family="Times,serif" font-size="14.00">steps:List[Step]</text>
<text text-anchor="start" x="211" y="-154.3" font-family="Times,serif" font-size="14.00">properties:Map[String, String]</text>
<text text-anchor="start" x="211" y="-140.3" font-family="Times,serif" font-size="14.00">constraints:List[ViewDefinitionConstraint]</text>
<polygon fill="none" stroke="black" points="206.5,-133 206.5,-218 517.5,-218 517.5,-133 206.5,-133"/>
</g>
<!-- ViewDefinition&#45;&gt;Metadata -->
<g id="edge4" class="edge">
<title>ViewDefinition&#45;&gt;Metadata</title>
<path fill="none" stroke="black" d="M316.87,-128.65C307.93,-119.57 298.48,-109.96 289.32,-100.66"/>
<polygon fill="none" stroke="black" points="291.57,-97.95 282.06,-93.28 286.58,-102.86 291.57,-97.95"/>
</g>
<!-- ViewDefinitionConstraint -->
<g id="node6" class="node">
<title>ViewDefinitionConstraint</title>
<polygon fill="none" stroke="black" points="251,-366.5 251,-387.5 477,-387.5 477,-366.5 251,-366.5"/>
<text text-anchor="start" x="263.5" y="-374.3" font-family="Times,serif" font-weight="bold" font-size="14.00">ViewDefinitionConstraint</text>
<polygon fill="none" stroke="black" points="251,-304.5 251,-366.5 477,-366.5 477,-304.5 251,-304.5"/>
<text text-anchor="start" x="326" y="-353.3" font-family="Times,serif" font-style="italic" font-size="14.00">Properties</text>
<text text-anchor="start" x="254" y="-339.3" font-family="Times,serif" font-size="14.00">mandatory:boolean</text>
<text text-anchor="start" x="254" y="-325.3" font-family="Times,serif" font-size="14.00">operation:ConstraintOperation</text>
<text text-anchor="start" x="254" y="-311.3" font-family="Times,serif" font-size="14.00">parameter:String</text>
<polygon fill="none" stroke="black" points="250,-304 250,-389 478,-389 478,-304 250,-304"/>
</g>
<!-- ViewDefinitionConstraint&#45;&gt;ViewDefinition -->
<g id="edge5" class="edge">
<title>ViewDefinitionConstraint&#45;&gt;ViewDefinition</title>
<path fill="none" stroke="black" d="M363.46,-299.77C363.22,-279.66 362.94,-255.82 362.69,-234.49"/>
<polygon fill="black" stroke="black" points="362.68,-234.27 358.61,-228.32 362.54,-222.27 366.61,-228.22 362.68,-234.27"/>
<text text-anchor="middle" x="349.46" y="-288.57" font-family="Times,serif" font-size="14.00">0..n</text>
</g>
</g>
</svg>
