<?xml version="1.0" encoding="UTF-8" standalone="no"?>
<!DOCTYPE svg PUBLIC "-//W3C//DTD SVG 1.1//EN"
 "http://www.w3.org/Graphics/SVG/1.1/DTD/svg11.dtd">
<!-- Generated by graphviz version 2.43.0 (0)
 -->
<!-- Title: ClassDiagram Pages: 1 -->
<svg width="6167pt" height="869pt"
 viewBox="0.00 0.00 6167.00 869.00" xmlns="http://www.w3.org/2000/svg" xmlns:xlink="http://www.w3.org/1999/xlink">
<g id="graph0" class="graph" transform="scale(1 1) rotate(0) translate(4 865)">
<title>ClassDiagram</title>
<polygon fill="white" stroke="transparent" points="-4,4 -4,-865 6163,-865 6163,4 -4,4"/>
<!-- LanguageResource 🐱relationship compositionOf LanguageService, 0..1 -->
<g id="node1" class="node">
<title>LanguageResource 🐱relationship compositionOf LanguageService, 0..1</title>
<polygon fill="none" stroke="black" points="9,-771.5 9,-792.5 579,-792.5 579,-771.5 9,-771.5"/>
<text text-anchor="start" x="12" y="-779.3" font-family="Times,serif" font-weight="bold" font-size="14.00">LanguageResource 🐱relationship compositionOf LanguageService, 0..1</text>
<polygon fill="none" stroke="black" points="9,-737.5 9,-771.5 579,-771.5 579,-737.5 9,-737.5"/>
<text text-anchor="start" x="262.5" y="-758.3" font-family="Times,serif" font-style="italic" font-size="14.00">Methods</text>
<text text-anchor="start" x="249.5" y="-744.3" font-family="Times,serif" font-size="14.00">getAll():Map</text>
<polygon fill="none" stroke="black" points="8,-737 8,-794 580,-794 580,-737 8,-737"/>
</g>
<!-- DeploymentResource -->
<g id="node2" class="node">
<title>DeploymentResource</title>
<polygon fill="none" stroke="black" points="616,-792.5 616,-813.5 791,-813.5 791,-792.5 616,-792.5"/>
<text text-anchor="start" x="619" y="-800.3" font-family="Times,serif" font-weight="bold" font-size="14.00">DeploymentResource</text>
<polygon fill="none" stroke="black" points="616,-716.5 616,-792.5 791,-792.5 791,-716.5 616,-716.5"/>
<text text-anchor="start" x="672" y="-779.3" font-family="Times,serif" font-style="italic" font-size="14.00">Methods</text>
<text text-anchor="start" x="656" y="-765.3" font-family="Times,serif" font-size="14.00">all():String</text>
<text text-anchor="start" x="656" y="-751.3" font-family="Times,serif" font-size="14.00">start():String</text>
<text text-anchor="start" x="656" y="-737.3" font-family="Times,serif" font-size="14.00">get():String</text>
<text text-anchor="start" x="656" y="-723.3" font-family="Times,serif" font-size="14.00">stop():String</text>
<polygon fill="none" stroke="black" points="614.5,-716 614.5,-815 791.5,-815 791.5,-716 614.5,-716"/>
</g>
<!-- IntegrationsResource -->
<g id="node3" class="node">
<title>IntegrationsResource</title>
<polygon fill="none" stroke="black" points="722,-600.5 722,-621.5 1071,-621.5 1071,-600.5 722,-600.5"/>
<text text-anchor="start" x="810" y="-608.3" font-family="Times,serif" font-weight="bold" font-size="14.00">IntegrationsResource</text>
<polygon fill="none" stroke="black" points="722,-566.5 722,-600.5 1071,-600.5 1071,-566.5 722,-566.5"/>
<text text-anchor="start" x="865" y="-587.3" font-family="Times,serif" font-style="italic" font-size="14.00">Methods</text>
<text text-anchor="start" x="725" y="-573.3" font-family="Times,serif" font-size="14.00">crd(&lt;String&gt; dsl):Map&lt;String, Map&lt;String&gt;&gt;</text>
<polygon fill="none" stroke="black" points="720.5,-566 720.5,-623 1071.5,-623 1071.5,-566 720.5,-566"/>
</g>
<!-- DeploymentService -->
<g id="node4" class="node">
<title>DeploymentService</title>
<text text-anchor="middle" x="896" y="-761.8" font-family="Times,serif" font-size="14.00">DeploymentService</text>
</g>
<!-- DeploymentService&#45;&gt;IntegrationsResource -->
<g id="edge1" class="edge">
<title>DeploymentService&#45;&gt;IntegrationsResource</title>
<path fill="none" stroke="black" d="M896,-747.37C896,-722.25 896,-674.62 896,-639.37"/>
<polygon fill="black" stroke="black" points="896,-639 892,-633 896,-627 900,-633 896,-639"/>
<text text-anchor="middle" x="882" y="-736.17" font-family="Times,serif" font-size="14.00">0..1</text>
</g>
<!-- StepResource -->
<g id="node5" class="node">
<title>StepResource</title>
<polygon fill="none" stroke="black" points="2406,-785.5 2406,-806.5 2878,-806.5 2878,-785.5 2406,-785.5"/>
<text text-anchor="start" x="2587.5" y="-793.3" font-family="Times,serif" font-weight="bold" font-size="14.00">StepResource</text>
<polygon fill="none" stroke="black" points="2406,-723.5 2406,-785.5 2878,-785.5 2878,-723.5 2406,-723.5"/>
<text text-anchor="start" x="2610.5" y="-772.3" font-family="Times,serif" font-style="italic" font-size="14.00">Methods</text>
<text text-anchor="start" x="2409" y="-758.3" font-family="Times,serif" font-size="14.00">allSteps(&lt;String&gt; type, &lt;String&gt; dsl, &lt;String&gt; kind):List[Step]</text>
<text text-anchor="start" x="2409" y="-744.3" font-family="Times,serif" font-size="14.00">stepById(&lt;String&gt; id):Step</text>
<text text-anchor="start" x="2409" y="-730.3" font-family="Times,serif" font-size="14.00">stepsByName(&lt;String&gt; name):List[Step]</text>
<polygon fill="none" stroke="black" points="2405,-723 2405,-808 2879,-808 2879,-723 2405,-723"/>
</g>
<!-- StepCatalog -->
<g id="node6" class="node">
<title>StepCatalog</title>
<polygon fill="none" stroke="black" points="2591,-583.5 2591,-604.5 2693,-604.5 2693,-583.5 2591,-583.5"/>
<text text-anchor="start" x="2594" y="-591.3" font-family="Times,serif" font-weight="bold" font-size="14.00">StepCatalog</text>
<polygon fill="none" stroke="black" points="2590,-583 2590,-606 2694,-606 2694,-583 2590,-583"/>
</g>
<!-- StepResource&#45;&gt;StepCatalog -->
<g id="edge2" class="edge">
<title>StepResource&#45;&gt;StepCatalog</title>
<path fill="none" stroke="black" stroke-dasharray="5,2" d="M2642,-718.77C2642,-688.14 2642,-648.85 2642,-622.96"/>
<polygon fill="black" stroke="black" points="2642,-612.75 2646.5,-622.75 2642,-617.75 2642,-622.75 2642,-622.75 2642,-622.75 2642,-617.75 2637.5,-622.75 2642,-612.75 2642,-612.75"/>
</g>
<!-- AbstractCatalog -->
<g id="node17" class="node">
<title>AbstractCatalog</title>
<polygon fill="none" stroke="black" points="2656,-457.5 2656,-478.5 2934,-478.5 2934,-457.5 2656,-457.5"/>
<text text-anchor="start" x="2731.5" y="-465.3" font-family="Times,serif" font-weight="bold" font-size="14.00">AbstractCatalog</text>
<polygon fill="none" stroke="black" points="2656,-409.5 2656,-457.5 2934,-457.5 2934,-409.5 2656,-409.5"/>
<text text-anchor="start" x="2763.5" y="-444.3" font-family="Times,serif" font-style="italic" font-size="14.00">Methods</text>
<text text-anchor="start" x="2659" y="-430.3" font-family="Times,serif" font-size="14.00">waitForWarmUp():CompletableFuture</text>
<text text-anchor="start" x="2659" y="-416.3" font-family="Times,serif" font-size="14.00">loadParsers():List[ParseCatalog]</text>
<polygon fill="none" stroke="black" points="2655,-409 2655,-480 2935,-480 2935,-409 2655,-409"/>
</g>
<!-- StepCatalog&#45;&gt;AbstractCatalog -->
<g id="edge7" class="edge">
<title>StepCatalog&#45;&gt;AbstractCatalog</title>
<path fill="none" stroke="black" d="M2659.85,-576.23C2681.22,-555.57 2717.83,-520.15 2747.57,-491.38"/>
<polygon fill="none" stroke="black" points="2750.21,-493.69 2754.97,-484.23 2745.34,-488.66 2750.21,-493.69"/>
</g>
<!-- ViewDefinitionResource -->
<g id="node7" class="node">
<title>ViewDefinitionResource</title>
<polygon fill="none" stroke="black" points="1072,-450.5 1072,-471.5 1540,-471.5 1540,-450.5 1072,-450.5"/>
<text text-anchor="start" x="1211" y="-458.3" font-family="Times,serif" font-weight="bold" font-size="14.00">ViewDefinitionResource</text>
<polygon fill="none" stroke="black" points="1072,-416.5 1072,-450.5 1540,-450.5 1540,-416.5 1072,-416.5"/>
<text text-anchor="start" x="1274.5" y="-437.3" font-family="Times,serif" font-style="italic" font-size="14.00">Methods</text>
<text text-anchor="start" x="1075" y="-423.3" font-family="Times,serif" font-size="14.00">viewsPerStepList:(&lt;Step[]&gt; DeploymentResourceYamlRequest):</text>
<polygon fill="none" stroke="black" points="1071,-416 1071,-473 1541,-473 1541,-416 1071,-416"/>
</g>
<!-- ViewDefinitionService -->
<g id="node8" class="node">
<title>ViewDefinitionService</title>
<polygon fill="none" stroke="black" points="1107,-600.5 1107,-621.5 1505,-621.5 1505,-600.5 1107,-600.5"/>
<text text-anchor="start" x="1219.5" y="-608.3" font-family="Times,serif" font-weight="bold" font-size="14.00">ViewDefinitionService</text>
<polygon fill="none" stroke="black" points="1107,-566.5 1107,-600.5 1505,-600.5 1505,-566.5 1107,-566.5"/>
<text text-anchor="start" x="1274.5" y="-587.3" font-family="Times,serif" font-style="italic" font-size="14.00">Methods</text>
<text text-anchor="start" x="1110" y="-573.3" font-family="Times,serif" font-size="14.00">viewsPerStepList(&lt;Step[]&gt; steps):List[ViewDefinition]</text>
<polygon fill="none" stroke="black" points="1106,-566 1106,-623 1506,-623 1506,-566 1106,-566"/>
</g>
<!-- ViewDefinitionService&#45;&gt;ViewDefinitionResource -->
<g id="edge3" class="edge">
<title>ViewDefinitionService&#45;&gt;ViewDefinitionResource</title>
<path fill="none" stroke="black" d="M1306,-561.75C1306,-540.58 1306,-512.48 1306,-489.21"/>
<polygon fill="black" stroke="black" points="1306,-489.2 1302,-483.2 1306,-477.2 1310,-483.2 1306,-489.2"/>
<text text-anchor="middle" x="1292" y="-550.55" font-family="Times,serif" font-size="14.00">0..1</text>
</g>
<!-- StepParserService -->
<g id="node13" class="node">
<title>StepParserService</title>
<polygon fill="none" stroke="black" points="781,-471.5 781,-492.5 1036,-492.5 1036,-471.5 781,-471.5"/>
<text text-anchor="start" x="836" y="-479.3" font-family="Times,serif" font-weight="bold" font-size="14.00">StepParserService</text>
<polygon fill="none" stroke="black" points="781,-395.5 781,-471.5 1036,-471.5 1036,-395.5 781,-395.5"/>
<text text-anchor="start" x="877" y="-458.3" font-family="Times,serif" font-style="italic" font-size="14.00">Methods</text>
<text text-anchor="start" x="784" y="-444.3" font-family="Times,serif" font-size="14.00">identifier():String</text>
<text text-anchor="start" x="784" y="-430.3" font-family="Times,serif" font-size="14.00">description():String</text>
<text text-anchor="start" x="784" y="-416.3" font-family="Times,serif" font-size="14.00">parse(&lt;String&gt; yaml):ParseResult</text>
<text text-anchor="start" x="784" y="-402.3" font-family="Times,serif" font-size="14.00">appliesTo(&lt;String&gt; yaml):boolean</text>
<polygon fill="none" stroke="black" points="779.5,-395 779.5,-494 1036.5,-494 1036.5,-395 779.5,-395"/>
</g>
<!-- ViewDefinitionService&#45;&gt;StepParserService -->
<g id="edge4" class="edge">
<title>ViewDefinitionService&#45;&gt;StepParserService</title>
<path fill="none" stroke="black" stroke-dasharray="5,2" d="M1183.06,-561.92C1141.53,-550 1095.25,-535.33 1054,-519 1041.47,-514.04 1028.57,-508.39 1015.86,-502.48"/>
<polygon fill="black" stroke="black" points="1006.65,-498.14 1017.62,-498.34 1011.18,-500.27 1015.7,-502.41 1015.7,-502.41 1015.7,-502.41 1011.18,-500.27 1013.78,-506.48 1006.65,-498.14 1006.65,-498.14"/>
</g>
<!-- ViewDefinitionParserService -->
<g id="node14" class="node">
<title>ViewDefinitionParserService</title>
<polygon fill="none" stroke="black" points="1838,-464.5 1838,-485.5 2436,-485.5 2436,-464.5 1838,-464.5"/>
<text text-anchor="start" x="2024.5" y="-472.3" font-family="Times,serif" font-weight="bold" font-size="14.00">ViewDefinitionParserService</text>
<polygon fill="none" stroke="black" points="1838,-402.5 1838,-464.5 2436,-464.5 2436,-402.5 1838,-402.5"/>
<text text-anchor="start" x="2105.5" y="-451.3" font-family="Times,serif" font-style="italic" font-size="14.00">Methods</text>
<text text-anchor="start" x="1841" y="-437.3" font-family="Times,serif" font-size="14.00">parse(&lt;List[Step]&gt; steps):List[ViewDefinition]</text>
<text text-anchor="start" x="1841" y="-423.3" font-family="Times,serif" font-size="14.00">getViewsPerStep(&lt;List[Step]&gt; steps, &lt;ViewDefinition&gt; view):List[ViewDefinition]</text>
<text text-anchor="start" x="1841" y="-409.3" font-family="Times,serif" font-size="14.00">appliesTo(&lt;List[Step]&gt; steps, &lt;ViewDefinition&gt; viewDefinition):boolean</text>
<polygon fill="none" stroke="black" points="1837,-402 1837,-487 2437,-487 2437,-402 1837,-402"/>
</g>
<!-- ViewDefinitionService&#45;&gt;ViewDefinitionParserService -->
<g id="edge5" class="edge">
<title>ViewDefinitionService&#45;&gt;ViewDefinitionParserService</title>
<path fill="none" stroke="black" stroke-dasharray="5,2" d="M1514.23,-567.36C1607.98,-554.55 1719.86,-537.83 1820,-519 1859.75,-511.52 1902.06,-502.48 1942.39,-493.33"/>
<polygon fill="black" stroke="black" points="1952.33,-491.07 1943.58,-497.68 1947.45,-492.18 1942.58,-493.29 1942.58,-493.29 1942.58,-493.29 1947.45,-492.18 1941.58,-488.9 1952.33,-491.07 1952.33,-491.07"/>
</g>
<!-- Capabilities -->
<g id="node9" class="node">
<title>Capabilities</title>
<polygon fill="none" stroke="black" points="2914,-754.5 2914,-775.5 3014,-775.5 3014,-754.5 2914,-754.5"/>
<text text-anchor="start" x="2917" y="-762.3" font-family="Times,serif" font-weight="bold" font-size="14.00">Capabilities</text>
<polygon fill="none" stroke="black" points="2913,-754 2913,-777 3015,-777 3015,-754 2913,-754"/>
</g>
<!-- Integration -->
<g id="node10" class="node">
<title>Integration</title>
<polygon fill="none" stroke="black" points="3051,-754.5 3051,-775.5 3148,-775.5 3148,-754.5 3051,-754.5"/>
<text text-anchor="start" x="3054" y="-762.3" font-family="Times,serif" font-weight="bold" font-size="14.00">Integration</text>
<polygon fill="none" stroke="black" points="3049.5,-754 3049.5,-777 3148.5,-777 3148.5,-754 3049.5,-754"/>
</g>
<!-- DeploymentService This endpoint will return a list of views based on -->
<g id="node11" class="node">
<title>DeploymentService This endpoint will return a list of views based on</title>
<polygon fill="none" stroke="black" points="3184,-771.5 3184,-792.5 3729,-792.5 3729,-771.5 3184,-771.5"/>
<text text-anchor="start" x="3187" y="-779.3" font-family="Times,serif" font-weight="bold" font-size="14.00">DeploymentService This endpoint will return a list of views based on</text>
<polygon fill="none" stroke="black" points="3184,-737.5 3184,-771.5 3729,-771.5 3729,-737.5 3184,-737.5"/>
<text text-anchor="start" x="3425" y="-758.3" font-family="Times,serif" font-style="italic" font-size="14.00">Methods</text>
<text text-anchor="start" x="3279.5" y="-744.3" font-family="Times,serif" font-size="14.00">yaml(&lt;List[Step]&gt; steps, &lt;String&gt; name):String</text>
<polygon fill="none" stroke="black" points="3182.5,-737 3182.5,-794 3729.5,-794 3729.5,-737 3182.5,-737"/>
</g>
<!-- LanguageService -->
<g id="node12" class="node">
<title>LanguageService</title>
<polygon fill="none" stroke="black" points="3765,-771.5 3765,-792.5 3906,-792.5 3906,-771.5 3765,-771.5"/>
<text text-anchor="start" x="3768" y="-779.3" font-family="Times,serif" font-weight="bold" font-size="14.00">LanguageService</text>
<polygon fill="none" stroke="black" points="3765,-737.5 3765,-771.5 3906,-771.5 3906,-737.5 3765,-737.5"/>
<text text-anchor="start" x="3804" y="-758.3" font-family="Times,serif" font-style="italic" font-size="14.00">Methods</text>
<text text-anchor="start" x="3791" y="-744.3" font-family="Times,serif" font-size="14.00">getAll():Map</text>
<polygon fill="none" stroke="black" points="3763.5,-737 3763.5,-794 3906.5,-794 3906.5,-737 3763.5,-737"/>
</g>
<!-- Step -->
<g id="node37" class="node">
<title>Step</title>
<polygon fill="none" stroke="black" points="805,-307.5 805,-328.5 1011,-328.5 1011,-307.5 805,-307.5"/>
<text text-anchor="start" x="890" y="-315.3" font-family="Times,serif" font-weight="bold" font-size="14.00">Step</text>
<polygon fill="none" stroke="black" points="805,-133.5 805,-307.5 1011,-307.5 1011,-133.5 805,-133.5"/>
<text text-anchor="start" x="870" y="-294.3" font-family="Times,serif" font-style="italic" font-size="14.00">Properties</text>
<text text-anchor="start" x="808" y="-280.3" font-family="Times,serif" font-size="14.00">description:String</text>
<text text-anchor="start" x="808" y="-266.3" font-family="Times,serif" font-size="14.00">title:String</text>
<text text-anchor="start" x="808" y="-252.3" font-family="Times,serif" font-size="14.00">parameters:List[Parameter]</text>
<text text-anchor="start" x="808" y="-238.3" font-family="Times,serif" font-size="14.00">icon:String</text>
<text text-anchor="start" x="808" y="-224.3" font-family="Times,serif" font-size="14.00">UUID:String</text>
<text text-anchor="start" x="808" y="-210.3" font-family="Times,serif" font-size="14.00">required:String[]</text>
<text text-anchor="start" x="808" y="-196.3" font-family="Times,serif" font-size="14.00">group:String</text>
<text text-anchor="start" x="808" y="-182.3" font-family="Times,serif" font-size="14.00">kind:String</text>
<text text-anchor="start" x="808" y="-168.3" font-family="Times,serif" font-size="14.00">branches:Branch[]</text>
<text text-anchor="start" x="808" y="-154.3" font-family="Times,serif" font-size="14.00">minBranches:Integer</text>
<text text-anchor="start" x="808" y="-140.3" font-family="Times,serif" font-size="14.00">maxBranches:Integer</text>
<polygon fill="none" stroke="black" points="804,-133 804,-330 1012,-330 1012,-133 804,-133"/>
</g>
<!-- StepParserService&#45;&gt;Step -->
<g id="edge25" class="edge">
<title>StepParserService&#45;&gt;Step</title>
<path fill="none" stroke="black" stroke-dasharray="5,2" d="M908,-390.8C908,-376.55 908,-360.56 908,-344.38"/>
<polygon fill="black" stroke="black" points="908,-334.29 912.5,-344.29 908,-339.29 908,-344.29 908,-344.29 908,-344.29 908,-339.29 903.5,-344.29 908,-334.29 908,-334.29"/>
</g>
<!-- ViewDefinition -->
<g id="node38" class="node">
<title>ViewDefinition</title>
<polygon fill="none" stroke="black" points="1759,-258.5 1759,-279.5 2068,-279.5 2068,-258.5 1759,-258.5"/>
<text text-anchor="start" x="1855.5" y="-266.3" font-family="Times,serif" font-weight="bold" font-size="14.00">ViewDefinition</text>
<polygon fill="none" stroke="black" points="1759,-182.5 1759,-258.5 2068,-258.5 2068,-182.5 1759,-182.5"/>
<text text-anchor="start" x="1875.5" y="-245.3" font-family="Times,serif" font-style="italic" font-size="14.00">Properties</text>
<text text-anchor="start" x="1762" y="-231.3" font-family="Times,serif" font-size="14.00">properties:Map[String, String]</text>
<text text-anchor="start" x="1762" y="-217.3" font-family="Times,serif" font-size="14.00">step:Step</text>
<text text-anchor="start" x="1762" y="-203.3" font-family="Times,serif" font-size="14.00">url:String</text>
<text text-anchor="start" x="1762" y="-189.3" font-family="Times,serif" font-size="14.00">constraints:List[ViewDefinitionConstraint]</text>
<polygon fill="none" stroke="black" points="1757.5,-182 1757.5,-281 2068.5,-281 2068.5,-182 1757.5,-182"/>
</g>
<!-- ViewDefinitionParserService&#45;&gt;ViewDefinition -->
<g id="edge26" class="edge">
<title>ViewDefinitionParserService&#45;&gt;ViewDefinition</title>
<path fill="none" stroke="black" stroke-dasharray="5,2" d="M2088.67,-397.98C2055.77,-366.99 2011.9,-325.66 1976.22,-292.05"/>
<polygon fill="black" stroke="black" points="1968.74,-285.01 1979.11,-288.59 1972.38,-288.44 1976.02,-291.86 1976.02,-291.86 1976.02,-291.86 1972.38,-288.44 1972.94,-295.14 1968.74,-285.01 1968.74,-285.01"/>
</g>
<!-- CamelRoute -->
<g id="node15" class="node">
<title>CamelRoute</title>
<polygon fill="none" stroke="black" points="3942,-754.5 3942,-775.5 4045,-775.5 4045,-754.5 3942,-754.5"/>
<text text-anchor="start" x="3945" y="-762.3" font-family="Times,serif" font-weight="bold" font-size="14.00">CamelRoute</text>
<polygon fill="none" stroke="black" points="3940.5,-754 3940.5,-777 4045.5,-777 4045.5,-754 3940.5,-754"/>
</g>
<!-- IntegrationSpec -->
<g id="node16" class="node">
<title>IntegrationSpec</title>
<polygon fill="none" stroke="black" points="4081,-754.5 4081,-775.5 4215,-775.5 4215,-754.5 4081,-754.5"/>
<text text-anchor="start" x="4084" y="-762.3" font-family="Times,serif" font-weight="bold" font-size="14.00">IntegrationSpec</text>
<polygon fill="none" stroke="black" points="4080,-754 4080,-777 4216,-777 4216,-754 4080,-754"/>
</g>
<!-- MetadataCatalog -->
<g id="node18" class="node">
<title>MetadataCatalog</title>
<polygon fill="none" stroke="black" points="2499,-265.5 2499,-286.5 2842,-286.5 2842,-265.5 2499,-265.5"/>
<text text-anchor="start" x="2602.5" y="-273.3" font-family="Times,serif" font-weight="bold" font-size="14.00">MetadataCatalog</text>
<polygon fill="none" stroke="black" points="2499,-175.5 2499,-265.5 2842,-265.5 2842,-175.5 2499,-175.5"/>
<text text-anchor="start" x="2639" y="-252.3" font-family="Times,serif" font-style="italic" font-size="14.00">Methods</text>
<text text-anchor="start" x="2502" y="-238.3" font-family="Times,serif" font-size="14.00">searchStepByID(&lt;String&gt; id):Metadata</text>
<text text-anchor="start" x="2502" y="-224.3" font-family="Times,serif" font-size="14.00">searchStepByName(&lt;String&gt; name):Metadata</text>
<text text-anchor="start" x="2502" y="-210.3" font-family="Times,serif" font-size="14.00">store(&lt;List[Step]&gt; steps):boolean</text>
<text text-anchor="start" x="2502" y="-196.3" font-family="Times,serif" font-size="14.00">getAll():List[Metadata]</text>
<text text-anchor="start" x="2502" y="-182.3" font-family="Times,serif" font-size="14.00">clear():void</text>
<polygon fill="none" stroke="black" points="2497.5,-175 2497.5,-288 2842.5,-288 2842.5,-175 2497.5,-175"/>
</g>
<!-- AbstractCatalog&#45;&gt;MetadataCatalog -->
<g id="edge6" class="edge">
<title>AbstractCatalog&#45;&gt;MetadataCatalog</title>
<path fill="none" stroke="black" stroke-dasharray="5,2" d="M2772.07,-404.8C2754.85,-375.73 2730.83,-335.18 2710.41,-300.72"/>
<polygon fill="black" stroke="black" points="2705.31,-292.1 2714.27,-298.41 2707.85,-296.4 2710.4,-300.7 2710.4,-300.7 2710.4,-300.7 2707.85,-296.4 2706.53,-302.99 2705.31,-292.1 2705.31,-292.1"/>
</g>
<!-- Metadata -->
<g id="node25" class="node">
<title>Metadata</title>
<polygon fill="none" stroke="black" points="1866,-66.5 1866,-87.5 1961,-87.5 1961,-66.5 1866,-66.5"/>
<text text-anchor="start" x="1875.5" y="-74.3" font-family="Times,serif" font-weight="bold" font-size="14.00">Metadata</text>
<polygon fill="none" stroke="black" points="1866,-4.5 1866,-66.5 1961,-66.5 1961,-4.5 1866,-4.5"/>
<text text-anchor="start" x="1875.5" y="-53.3" font-family="Times,serif" font-style="italic" font-size="14.00">Properties</text>
<text text-anchor="start" x="1869" y="-39.3" font-family="Times,serif" font-size="14.00">ID:String</text>
<text text-anchor="start" x="1869" y="-25.3" font-family="Times,serif" font-size="14.00">name:String</text>
<text text-anchor="start" x="1869" y="-11.3" font-family="Times,serif" font-size="14.00">type:String</text>
<polygon fill="none" stroke="black" points="1864.5,-4 1864.5,-89 1961.5,-89 1961.5,-4 1864.5,-4"/>
</g>
<!-- MetadataCatalog&#45;&gt;Metadata -->
<g id="edge10" class="edge">
<title>MetadataCatalog&#45;&gt;Metadata</title>
<path fill="none" stroke="black" stroke-dasharray="5,2" d="M2489.16,-186.78C2325.29,-147.17 2092.7,-90.94 1979.73,-63.63"/>
<polygon fill="black" stroke="black" points="1969.83,-61.24 1980.61,-59.22 1974.69,-62.41 1979.55,-63.59 1979.55,-63.59 1979.55,-63.59 1974.69,-62.41 1978.5,-67.96 1969.83,-61.24 1969.83,-61.24"/>
</g>
<!-- ViewDefinitionCatalog -->
<g id="node19" class="node">
<title>ViewDefinitionCatalog</title>
<polygon fill="none" stroke="black" points="2729,-583.5 2729,-604.5 2911,-604.5 2911,-583.5 2729,-583.5"/>
<text text-anchor="start" x="2732" y="-591.3" font-family="Times,serif" font-weight="bold" font-size="14.00">ViewDefinitionCatalog</text>
<polygon fill="none" stroke="black" points="2728,-583 2728,-606 2912,-606 2912,-583 2728,-583"/>
</g>
<!-- ViewDefinitionCatalog&#45;&gt;AbstractCatalog -->
<g id="edge8" class="edge">
<title>ViewDefinitionCatalog&#45;&gt;AbstractCatalog</title>
<path fill="none" stroke="black" d="M2817.08,-576.23C2813.71,-556.27 2808.01,-522.53 2803.25,-494.33"/>
<polygon fill="none" stroke="black" points="2806.66,-493.5 2801.54,-484.23 2799.76,-494.67 2806.66,-493.5"/>
</g>
<!-- KameletParseCatalog -->
<g id="node20" class="node">
<title>KameletParseCatalog</title>
<polygon fill="none" stroke="black" points="4252,-754.5 4252,-775.5 4429,-775.5 4429,-754.5 4252,-754.5"/>
<text text-anchor="start" x="4255" y="-762.3" font-family="Times,serif" font-weight="bold" font-size="14.00">KameletParseCatalog</text>
<polygon fill="none" stroke="black" points="4250.5,-754 4250.5,-777 4429.5,-777 4429.5,-754 4250.5,-754"/>
</g>
<!-- ParseCatalog -->
<g id="node21" class="node">
<title>ParseCatalog</title>
<polygon fill="none" stroke="black" points="4673,-607.5 4673,-628.5 5005,-628.5 5005,-607.5 4673,-607.5"/>
<text text-anchor="start" x="4786.5" y="-615.3" font-family="Times,serif" font-weight="bold" font-size="14.00">ParseCatalog</text>
<polygon fill="none" stroke="black" points="4673,-559.5 4673,-607.5 5005,-607.5 5005,-559.5 4673,-559.5"/>
<text text-anchor="start" x="4807.5" y="-594.3" font-family="Times,serif" font-style="italic" font-size="14.00">Methods</text>
<text text-anchor="start" x="4676" y="-580.3" font-family="Times,serif" font-size="14.00">parse():CompletableFuture[List[T]]</text>
<text text-anchor="start" x="4676" y="-566.3" font-family="Times,serif" font-size="14.00">setFileVisitor(&lt;YamlProcessFile&gt; fileVisitor):</text>
<polygon fill="none" stroke="black" points="4672,-559 4672,-630 5006,-630 5006,-559 4672,-559"/>
</g>
<!-- KameletParseCatalog&#45;&gt;ParseCatalog -->
<g id="edge9" class="edge">
<title>KameletParseCatalog&#45;&gt;ParseCatalog</title>
<path fill="none" stroke="black" stroke-dasharray="5,2" d="M4353.81,-747.46C4372.38,-725.8 4407.52,-688.96 4446,-670 4509.98,-638.48 4585.87,-620.26 4653.82,-609.75"/>
<polygon fill="black" stroke="black" points="4663.79,-608.25 4654.57,-614.18 4658.85,-608.99 4653.9,-609.73 4653.9,-609.73 4653.9,-609.73 4658.85,-608.99 4653.23,-605.28 4663.79,-608.25 4663.79,-608.25"/>
</g>
<!-- Condition -->
<g id="node22" class="node">
<title>Condition</title>
<polygon fill="none" stroke="black" points="5512,-754.5 5512,-775.5 5596,-775.5 5596,-754.5 5512,-754.5"/>
<text text-anchor="start" x="5515" y="-762.3" font-family="Times,serif" font-weight="bold" font-size="14.00">Condition</text>
<polygon fill="none" stroke="black" points="5511,-754 5511,-777 5597,-777 5597,-754 5511,-754"/>
</g>
<!-- Kamelet -->
<g id="node23" class="node">
<title>Kamelet</title>
<polygon fill="none" stroke="black" points="5633,-754.5 5633,-775.5 5706,-775.5 5706,-754.5 5633,-754.5"/>
<text text-anchor="start" x="5636" y="-762.3" font-family="Times,serif" font-weight="bold" font-size="14.00">Kamelet</text>
<polygon fill="none" stroke="black" points="5631.5,-754 5631.5,-777 5706.5,-777 5706.5,-754 5631.5,-754"/>
</g>
<!-- KameletBinding -->
<g id="node24" class="node">
<title>KameletBinding</title>
<polygon fill="none" stroke="black" points="5742,-754.5 5742,-775.5 5878,-775.5 5878,-754.5 5742,-754.5"/>
<text text-anchor="start" x="5745" y="-762.3" font-family="Times,serif" font-weight="bold" font-size="14.00">KameletBinding</text>
<polygon fill="none" stroke="black" points="5741,-754 5741,-777 5879,-777 5879,-754 5741,-754"/>
</g>
<!-- CatalogCollection -->
<g id="node26" class="node">
<title>CatalogCollection</title>
<polygon fill="none" stroke="black" points="2970,-433.5 2970,-454.5 3116,-454.5 3116,-433.5 2970,-433.5"/>
<text text-anchor="start" x="2973" y="-441.3" font-family="Times,serif" font-weight="bold" font-size="14.00">CatalogCollection</text>
<polygon fill="none" stroke="black" points="2969,-433 2969,-456 3117,-456 3117,-433 2969,-433"/>
</g>
<!-- CatalogCollection&#45;&gt;MetadataCatalog -->
<g id="edge11" class="edge">
<title>CatalogCollection&#45;&gt;MetadataCatalog</title>
<path fill="none" stroke="black" d="M3024.43,-426.4C3006.68,-410.58 2978.73,-387 2952,-370 2909.76,-343.13 2861.49,-317.83 2816.98,-296.43"/>
<polygon fill="none" stroke="black" points="2818.37,-293.22 2807.84,-292.07 2815.35,-299.53 2818.37,-293.22"/>
</g>
<!-- InMemoryCatalog -->
<g id="node27" class="node">
<title>InMemoryCatalog</title>
<polygon fill="none" stroke="black" points="2472,-433.5 2472,-454.5 2620,-454.5 2620,-433.5 2472,-433.5"/>
<text text-anchor="start" x="2475" y="-441.3" font-family="Times,serif" font-weight="bold" font-size="14.00">InMemoryCatalog</text>
<polygon fill="none" stroke="black" points="2471,-433 2471,-456 2621,-456 2621,-433 2471,-433"/>
</g>
<!-- InMemoryCatalog&#45;&gt;MetadataCatalog -->
<g id="edge12" class="edge">
<title>InMemoryCatalog&#45;&gt;MetadataCatalog</title>
<path fill="none" stroke="black" d="M2556.15,-426.23C2572.09,-399.1 2603.86,-345.04 2629.8,-300.9"/>
<polygon fill="none" stroke="black" points="2632.86,-302.61 2634.9,-292.22 2626.82,-299.07 2632.86,-302.61"/>
</g>
<!-- ReadOnlyCatalog -->
<g id="node28" class="node">
<title>ReadOnlyCatalog</title>
<polygon fill="none" stroke="black" points="2972,-583.5 2972,-604.5 3114,-604.5 3114,-583.5 2972,-583.5"/>
<text text-anchor="start" x="2975" y="-591.3" font-family="Times,serif" font-weight="bold" font-size="14.00">ReadOnlyCatalog</text>
<polygon fill="none" stroke="black" points="2971,-583 2971,-606 3115,-606 3115,-583 2971,-583"/>
</g>
<!-- ReadOnlyCatalog&#45;&gt;CatalogCollection -->
<g id="edge13" class="edge">
<title>ReadOnlyCatalog&#45;&gt;CatalogCollection</title>
<path fill="none" stroke="black" d="M3043,-576.23C3043,-550.83 3043,-503.15 3043,-472.93"/>
<polygon fill="none" stroke="black" points="3046.5,-472.66 3043,-462.66 3039.5,-472.66 3046.5,-472.66"/>
</g>
<!-- ClusterParseCatalog -->
<g id="node29" class="node">
<title>ClusterParseCatalog</title>
<polygon fill="none" stroke="black" points="4465,-754.5 4465,-775.5 4634,-775.5 4634,-754.5 4465,-754.5"/>
<text text-anchor="start" x="4468" y="-762.3" font-family="Times,serif" font-weight="bold" font-size="14.00">ClusterParseCatalog</text>
<polygon fill="none" stroke="black" points="4463.5,-754 4463.5,-777 4634.5,-777 4634.5,-754 4463.5,-754"/>
</g>
<!-- ClusterParseCatalog&#45;&gt;ParseCatalog -->
<g id="edge14" class="edge">
<title>ClusterParseCatalog&#45;&gt;ParseCatalog</title>
<path fill="none" stroke="black" d="M4563.9,-747.46C4582.71,-726.82 4616.86,-692.07 4652,-670 4671.08,-658.02 4692.4,-647.35 4713.64,-638.09"/>
<polygon fill="none" stroke="black" points="4715.23,-641.21 4723.05,-634.07 4712.48,-634.78 4715.23,-641.21"/>
</g>
<!-- GitParseCatalog -->
<g id="node30" class="node">
<title>GitParseCatalog</title>
<polygon fill="none" stroke="black" points="5341,-754.5 5341,-775.5 5476,-775.5 5476,-754.5 5341,-754.5"/>
<text text-anchor="start" x="5344" y="-762.3" font-family="Times,serif" font-weight="bold" font-size="14.00">GitParseCatalog</text>
<polygon fill="none" stroke="black" points="5339.5,-754 5339.5,-777 5476.5,-777 5476.5,-754 5339.5,-754"/>
</g>
<!-- GitParseCatalog&#45;&gt;ParseCatalog -->
<g id="edge15" class="edge">
<title>GitParseCatalog&#45;&gt;ParseCatalog</title>
<path fill="none" stroke="black" d="M5397.65,-747.24C5383.52,-725.35 5356.01,-688.26 5322,-670 5271.16,-642.7 5137.99,-623.38 5024.33,-611.27"/>
<polygon fill="none" stroke="black" points="5024.41,-607.76 5014.1,-610.19 5023.68,-614.72 5024.41,-607.76"/>
</g>
<!-- YamlProcessFile -->
<g id="node31" class="node">
<title>YamlProcessFile</title>
<polygon fill="none" stroke="black" points="5341,-583.5 5341,-604.5 5476,-604.5 5476,-583.5 5341,-583.5"/>
<text text-anchor="start" x="5344" y="-591.3" font-family="Times,serif" font-weight="bold" font-size="14.00">YamlProcessFile</text>
<polygon fill="none" stroke="black" points="5339.5,-583 5339.5,-606 5476.5,-606 5476.5,-583 5339.5,-583"/>
</g>
<!-- GitParseCatalog&#45;&gt;YamlProcessFile -->
<g id="edge16" class="edge">
<title>GitParseCatalog&#45;&gt;YamlProcessFile</title>
<path fill="none" stroke="black" stroke-dasharray="5,2" d="M5403.72,-747.37C5400.74,-718.01 5400.45,-657.88 5402.88,-622.73"/>
<polygon fill="black" stroke="black" points="5403.72,-612.68 5407.37,-623.02 5403.3,-617.66 5402.89,-622.65 5402.89,-622.65 5402.89,-622.65 5403.3,-617.66 5398.4,-622.27 5403.72,-612.68 5403.72,-612.68"/>
</g>
<!-- YamlProcessFile&#45;&gt;GitParseCatalog -->
<g id="edge19" class="edge">
<title>YamlProcessFile&#45;&gt;GitParseCatalog</title>
<path fill="none" stroke="black" stroke-dasharray="5,2" d="M5412.28,-612.68C5415.27,-642.07 5415.54,-702.2 5413.12,-737.33"/>
<polygon fill="black" stroke="black" points="5412.28,-747.37 5408.63,-737.02 5412.69,-742.38 5413.11,-737.4 5413.11,-737.4 5413.11,-737.4 5412.69,-742.38 5417.59,-737.78 5412.28,-747.37 5412.28,-747.37"/>
</g>
<!-- JarParseCatalog -->
<g id="node32" class="node">
<title>JarParseCatalog</title>
<polygon fill="none" stroke="black" points="4670,-754.5 4670,-775.5 4804,-775.5 4804,-754.5 4670,-754.5"/>
<text text-anchor="start" x="4673" y="-762.3" font-family="Times,serif" font-weight="bold" font-size="14.00">JarParseCatalog</text>
<polygon fill="none" stroke="black" points="4669,-754 4669,-777 4805,-777 4805,-754 4669,-754"/>
</g>
<!-- JarParseCatalog&#45;&gt;ParseCatalog -->
<g id="edge17" class="edge">
<title>JarParseCatalog&#45;&gt;ParseCatalog</title>
<path fill="none" stroke="black" d="M4747.34,-747.37C4762,-723.07 4789.38,-677.71 4810.42,-642.86"/>
<polygon fill="none" stroke="black" points="4813.44,-644.62 4815.61,-634.25 4807.45,-641 4813.44,-644.62"/>
</g>
<!-- LocalFolderParseCatalog -->
<g id="node33" class="node">
<title>LocalFolderParseCatalog</title>
<polygon fill="none" stroke="black" points="4840,-754.5 4840,-775.5 5042,-775.5 5042,-754.5 4840,-754.5"/>
<text text-anchor="start" x="4843" y="-762.3" font-family="Times,serif" font-weight="bold" font-size="14.00">LocalFolderParseCatalog</text>
<polygon fill="none" stroke="black" points="4839,-754 4839,-777 5043,-777 5043,-754 4839,-754"/>
</g>
<!-- LocalFolderParseCatalog&#45;&gt;ParseCatalog -->
<g id="edge18" class="edge">
<title>LocalFolderParseCatalog&#45;&gt;ParseCatalog</title>
<path fill="none" stroke="black" d="M4930.66,-747.37C4916,-723.07 4888.62,-677.71 4867.58,-642.86"/>
<polygon fill="none" stroke="black" points="4870.55,-641 4862.39,-634.25 4864.56,-644.62 4870.55,-641"/>
</g>
<!-- ViewDefinitionParseCatalog -->
<g id="node34" class="node">
<title>ViewDefinitionParseCatalog</title>
<polygon fill="none" stroke="black" points="5078,-754.5 5078,-775.5 5304,-775.5 5304,-754.5 5078,-754.5"/>
<text text-anchor="start" x="5081" y="-762.3" font-family="Times,serif" font-weight="bold" font-size="14.00">ViewDefinitionParseCatalog</text>
<polygon fill="none" stroke="black" points="5077,-754 5077,-777 5305,-777 5305,-754 5077,-754"/>
</g>
<!-- ViewDefinitionParseCatalog&#45;&gt;ParseCatalog -->
<g id="edge20" class="edge">
<title>ViewDefinitionParseCatalog&#45;&gt;ParseCatalog</title>
<path fill="none" stroke="black" stroke-dasharray="5,2" d="M5171.37,-747.42C5146.77,-726.73 5102.64,-691.93 5060,-670 5036.19,-657.75 5009.93,-646.86 4984.08,-637.45"/>
<polygon fill="black" stroke="black" points="4974.58,-634.04 4985.52,-633.18 4979.29,-635.73 4984,-637.41 4984,-637.41 4984,-637.41 4979.29,-635.73 4982.48,-641.65 4974.58,-634.04 4974.58,-634.04"/>
</g>
<!-- Parameter -->
<g id="node35" class="node">
<title>Parameter</title>
<polygon fill="none" stroke="black" points="5914,-834.5 5914,-855.5 6050,-855.5 6050,-834.5 5914,-834.5"/>
<text text-anchor="start" x="5940" y="-842.3" font-family="Times,serif" font-weight="bold" font-size="14.00">Parameter</text>
<polygon fill="none" stroke="black" points="5914,-674.5 5914,-834.5 6050,-834.5 6050,-674.5 5914,-674.5"/>
<text text-anchor="start" x="5944" y="-821.3" font-family="Times,serif" font-style="italic" font-size="14.00">Properties</text>
<text text-anchor="start" x="5917" y="-807.3" font-family="Times,serif" font-size="14.00">description:String</text>
<text text-anchor="start" x="5917" y="-793.3" font-family="Times,serif" font-size="14.00">title:String</text>
<text text-anchor="start" x="5917" y="-779.3" font-family="Times,serif" font-size="14.00">id:String</text>
<text text-anchor="start" x="5917" y="-765.3" font-family="Times,serif" font-size="14.00">value:Object</text>
<text text-anchor="start" x="5917" y="-751.3" font-family="Times,serif" font-size="14.00">default:Object</text>
<text text-anchor="start" x="5917" y="-737.3" font-family="Times,serif" font-size="14.00">type:String</text>
<text text-anchor="start" x="5917" y="-723.3" font-family="Times,serif" font-size="14.00">path:Boolean</text>
<text text-anchor="start" x="5917" y="-709.3" font-family="Times,serif" font-size="14.00">nullable:Boolean</text>
<text text-anchor="start" x="5917" y="-695.3" font-family="Times,serif" font-size="14.00">enum:Object[]</text>
<text text-anchor="start" x="5917" y="-681.3" font-family="Times,serif" font-size="14.00">examples:Object[]</text>
<polygon fill="none" stroke="black" points="5913,-674 5913,-857 6051,-857 6051,-674 5913,-674"/>
</g>
<!-- Branch -->
<g id="node36" class="node">
<title>Branch</title>
<polygon fill="none" stroke="black" points="6086,-754.5 6086,-775.5 6150,-775.5 6150,-754.5 6086,-754.5"/>
<text text-anchor="start" x="6089" y="-762.3" font-family="Times,serif" font-weight="bold" font-size="14.00">Branch</text>
<polygon fill="none" stroke="black" points="6085,-754 6085,-777 6151,-777 6151,-754 6085,-754"/>
</g>
<!-- Step&#45;&gt;Metadata -->
<g id="edge21" class="edge">
<title>Step&#45;&gt;Metadata</title>
<path fill="none" stroke="black" d="M1020.36,-210.04C1230.55,-171.77 1677.24,-90.43 1846.29,-59.65"/>
<polygon fill="none" stroke="black" points="1847.09,-63.06 1856.3,-57.82 1845.84,-56.17 1847.09,-63.06"/>
</g>
<!-- ViewDefinition&#45;&gt;Metadata -->
<g id="edge22" class="edge">
<title>ViewDefinition&#45;&gt;Metadata</title>
<path fill="none" stroke="black" d="M1913,-177.57C1913,-154.3 1913,-126.97 1913,-103.38"/>
<polygon fill="none" stroke="black" points="1916.5,-103.18 1913,-93.18 1909.5,-103.18 1916.5,-103.18"/>
</g>
<!-- ViewDefinitionConstraint -->
<g id="node39" class="node">
<title>ViewDefinitionConstraint</title>
<polygon fill="none" stroke="black" points="1576,-464.5 1576,-485.5 1802,-485.5 1802,-464.5 1576,-464.5"/>
<text text-anchor="start" x="1588.5" y="-472.3" font-family="Times,serif" font-weight="bold" font-size="14.00">ViewDefinitionConstraint</text>
<polygon fill="none" stroke="black" points="1576,-402.5 1576,-464.5 1802,-464.5 1802,-402.5 1576,-402.5"/>
<text text-anchor="start" x="1651" y="-451.3" font-family="Times,serif" font-style="italic" font-size="14.00">Properties</text>
<text text-anchor="start" x="1579" y="-437.3" font-family="Times,serif" font-size="14.00">mandatory:boolean</text>
<text text-anchor="start" x="1579" y="-423.3" font-family="Times,serif" font-size="14.00">operation:ConstraintOperation</text>
<text text-anchor="start" x="1579" y="-409.3" font-family="Times,serif" font-size="14.00">parameter:String</text>
<polygon fill="none" stroke="black" points="1575,-402 1575,-487 1803,-487 1803,-402 1575,-402"/>
</g>
<!-- ViewDefinitionConstraint&#45;&gt;ViewDefinition -->
<g id="edge23" class="edge">
<title>ViewDefinitionConstraint&#45;&gt;ViewDefinition</title>
<path fill="none" stroke="black" d="M1737.33,-397.98C1769.82,-367.37 1813,-326.69 1848.43,-293.32"/>
<polygon fill="black" stroke="black" points="1848.52,-293.24 1850.15,-286.21 1857.26,-285.01 1855.63,-292.03 1848.52,-293.24"/>
<text text-anchor="middle" x="1723.33" y="-386.78" font-family="Times,serif" font-size="14.00">0..n</text>
</g>
<!-- DeploymentGeneratorService -->
<g id="node40" class="node">
<title>DeploymentGeneratorService</title>
<polygon fill="none" stroke="black" points="132,-492.5 132,-513.5 745,-513.5 745,-492.5 132,-492.5"/>
<text text-anchor="start" x="322.5" y="-500.3" font-family="Times,serif" font-weight="bold" font-size="14.00">DeploymentGeneratorService</text>
<polygon fill="none" stroke="black" points="132,-374.5 132,-492.5 745,-492.5 745,-374.5 132,-374.5"/>
<text text-anchor="start" x="407" y="-479.3" font-family="Times,serif" font-style="italic" font-size="14.00">Methods</text>
<text text-anchor="start" x="135" y="-465.3" font-family="Times,serif" font-size="14.00">identifier():String</text>
<text text-anchor="start" x="135" y="-451.3" font-family="Times,serif" font-size="14.00">description():String</text>
<text text-anchor="start" x="135" y="-437.3" font-family="Times,serif" font-size="14.00">parse(&lt;List[Step]&gt; steps, &lt;List[Parameter]&gt; parameters, &lt;Map&gt; metadata):String</text>
<text text-anchor="start" x="135" y="-423.3" font-family="Times,serif" font-size="14.00">appliesTo(&lt;List[Step]&gt; steps):boolean</text>
<text text-anchor="start" x="135" y="-409.3" font-family="Times,serif" font-size="14.00">getStatus():CustomResource</text>
<text text-anchor="start" x="135" y="-395.3" font-family="Times,serif" font-size="14.00">supportedCustomResources():List&lt;Class&gt;</text>
<text text-anchor="start" x="135" y="-381.3" font-family="Times,serif" font-size="14.00">getKinds():String[]</text>
<polygon fill="none" stroke="black" points="130.5,-374 130.5,-515 745.5,-515 745.5,-374 130.5,-374"/>
</g>
<!-- DeploymentGeneratorService&#45;&gt;Step -->
<g id="edge24" class="edge">
<title>DeploymentGeneratorService&#45;&gt;Step</title>
<path fill="none" stroke="black" stroke-dasharray="5,2" d="M601.72,-370C662.45,-342.73 730.2,-312.32 786.51,-287.04"/>
<polygon fill="black" stroke="black" points="795.8,-282.87 788.52,-291.07 791.24,-284.92 786.68,-286.97 786.68,-286.97 786.68,-286.97 791.24,-284.92 784.83,-282.86 795.8,-282.87 795.8,-282.87"/>
</g>
</g>
</svg>
