<?xml version="1.0" encoding="UTF-8" standalone="no"?>
<!DOCTYPE svg PUBLIC "-//W3C//DTD SVG 1.1//EN"
 "http://www.w3.org/Graphics/SVG/1.1/DTD/svg11.dtd">
<!-- Generated by graphviz version 2.43.0 (0)
 -->
<!-- Title: ClassDiagram Pages: 1 -->
<svg width="4736pt" height="715pt"
 viewBox="0.00 0.00 4736.00 715.00" xmlns="http://www.w3.org/2000/svg" xmlns:xlink="http://www.w3.org/1999/xlink">
<g id="graph0" class="graph" transform="scale(1 1) rotate(0) translate(4 711)">
<title>ClassDiagram</title>
<polygon fill="white" stroke="transparent" points="-4,4 -4,-711 4732,-711 4732,4 -4,4"/>
<!-- AbstractCatalog -->
<g id="node1" class="node">
<title>AbstractCatalog</title>
<polygon fill="none" stroke="black" points="2306,-359.5 2306,-380.5 2584,-380.5 2584,-359.5 2306,-359.5"/>
<text text-anchor="start" x="2381.5" y="-367.3" font-family="Times,serif" font-weight="bold" font-size="14.00">AbstractCatalog</text>
<polygon fill="none" stroke="black" points="2306,-311.5 2306,-359.5 2584,-359.5 2584,-311.5 2306,-311.5"/>
<text text-anchor="start" x="2413.5" y="-346.3" font-family="Times,serif" font-style="italic" font-size="14.00">Methods</text>
<text text-anchor="start" x="2309" y="-332.3" font-family="Times,serif" font-size="14.00">waitForWarmUp():CompletableFuture</text>
<text text-anchor="start" x="2309" y="-318.3" font-family="Times,serif" font-size="14.00">loadParsers():List[ParseCatalog]</text>
<polygon fill="none" stroke="black" points="2305,-311 2305,-382 2585,-382 2585,-311 2305,-311"/>
</g>
<!-- MetadataCatalog -->
<g id="node2" class="node">
<title>MetadataCatalog</title>
<polygon fill="none" stroke="black" points="1933,-216.5 1933,-237.5 2276,-237.5 2276,-216.5 1933,-216.5"/>
<text text-anchor="start" x="2036.5" y="-224.3" font-family="Times,serif" font-weight="bold" font-size="14.00">MetadataCatalog</text>
<polygon fill="none" stroke="black" points="1933,-140.5 1933,-216.5 2276,-216.5 2276,-140.5 1933,-140.5"/>
<text text-anchor="start" x="2073" y="-203.3" font-family="Times,serif" font-style="italic" font-size="14.00">Methods</text>
<text text-anchor="start" x="1936" y="-189.3" font-family="Times,serif" font-size="14.00">searchStepByID(&lt;String&gt; id):Metadata</text>
<text text-anchor="start" x="1936" y="-175.3" font-family="Times,serif" font-size="14.00">searchStepByName(&lt;String&gt; name):Metadata</text>
<text text-anchor="start" x="1936" y="-161.3" font-family="Times,serif" font-size="14.00">store(&lt;List[Step]&gt; steps):boolean</text>
<text text-anchor="start" x="1936" y="-147.3" font-family="Times,serif" font-size="14.00">getAll():List[Metadata]</text>
<polygon fill="none" stroke="black" points="1931.5,-140 1931.5,-239 2276.5,-239 2276.5,-140 1931.5,-140"/>
</g>
<!-- AbstractCatalog&#45;&gt;MetadataCatalog -->
<g id="edge1" class="edge">
<title>AbstractCatalog&#45;&gt;MetadataCatalog</title>
<path fill="none" stroke="black" stroke-dasharray="5,2" d="M2360.27,-306.99C2320.59,-288.95 2272.52,-267.1 2228.78,-247.22"/>
<polygon fill="black" stroke="black" points="2219.52,-243.01 2230.49,-243.05 2224.07,-245.08 2228.63,-247.15 2228.63,-247.15 2228.63,-247.15 2224.07,-245.08 2226.76,-251.25 2219.52,-243.01 2219.52,-243.01"/>
</g>
<!-- Metadata -->
<g id="node15" class="node">
<title>Metadata</title>
<polygon fill="none" stroke="black" points="1388,-66.5 1388,-87.5 1483,-87.5 1483,-66.5 1388,-66.5"/>
<text text-anchor="start" x="1397.5" y="-74.3" font-family="Times,serif" font-weight="bold" font-size="14.00">Metadata</text>
<polygon fill="none" stroke="black" points="1388,-4.5 1388,-66.5 1483,-66.5 1483,-4.5 1388,-4.5"/>
<text text-anchor="start" x="1397.5" y="-53.3" font-family="Times,serif" font-style="italic" font-size="14.00">Properties</text>
<text text-anchor="start" x="1391" y="-39.3" font-family="Times,serif" font-size="14.00">ID:String</text>
<text text-anchor="start" x="1391" y="-25.3" font-family="Times,serif" font-size="14.00">name:String</text>
<text text-anchor="start" x="1391" y="-11.3" font-family="Times,serif" font-size="14.00">type:String</text>
<polygon fill="none" stroke="black" points="1386.5,-4 1386.5,-89 1483.5,-89 1483.5,-4 1386.5,-4"/>
</g>
<!-- MetadataCatalog&#45;&gt;Metadata -->
<g id="edge12" class="edge">
<title>MetadataCatalog&#45;&gt;Metadata</title>
<path fill="none" stroke="black" stroke-dasharray="5,2" d="M1923.4,-150.44C1783.99,-121.05 1598.97,-82.06 1501.54,-61.52"/>
<polygon fill="black" stroke="black" points="1491.53,-59.41 1502.24,-57.07 1496.42,-60.45 1501.31,-61.48 1501.31,-61.48 1501.31,-61.48 1496.42,-60.45 1500.39,-65.88 1491.53,-59.41 1491.53,-59.41"/>
</g>
<!-- StepCatalog -->
<g id="node3" class="node">
<title>StepCatalog</title>
<polygon fill="none" stroke="black" points="2483,-499.5 2483,-520.5 2585,-520.5 2585,-499.5 2483,-499.5"/>
<text text-anchor="start" x="2486" y="-507.3" font-family="Times,serif" font-weight="bold" font-size="14.00">StepCatalog</text>
<polygon fill="none" stroke="black" points="2482,-499 2482,-522 2586,-522 2586,-499 2482,-499"/>
</g>
<!-- StepCatalog&#45;&gt;AbstractCatalog -->
<g id="edge2" class="edge">
<title>StepCatalog&#45;&gt;AbstractCatalog</title>
<path fill="none" stroke="black" d="M2524.64,-492.47C2512.08,-469.6 2489.25,-428.05 2471.25,-395.28"/>
<polygon fill="none" stroke="black" points="2474.19,-393.37 2466.31,-386.29 2468.06,-396.74 2474.19,-393.37"/>
</g>
<!-- ViewDefinitionCatalog -->
<g id="node4" class="node">
<title>ViewDefinitionCatalog</title>
<polygon fill="none" stroke="black" points="2265,-499.5 2265,-520.5 2447,-520.5 2447,-499.5 2265,-499.5"/>
<text text-anchor="start" x="2268" y="-507.3" font-family="Times,serif" font-weight="bold" font-size="14.00">ViewDefinitionCatalog</text>
<polygon fill="none" stroke="black" points="2264,-499 2264,-522 2448,-522 2448,-499 2264,-499"/>
</g>
<!-- ViewDefinitionCatalog&#45;&gt;AbstractCatalog -->
<g id="edge3" class="edge">
<title>ViewDefinitionCatalog&#45;&gt;AbstractCatalog</title>
<path fill="none" stroke="black" d="M2365.36,-492.47C2377.92,-469.6 2400.75,-428.05 2418.75,-395.28"/>
<polygon fill="none" stroke="black" points="2421.94,-396.74 2423.69,-386.29 2415.81,-393.37 2421.94,-396.74"/>
</g>
<!-- DeploymentResource -->
<g id="node5" class="node">
<title>DeploymentResource</title>
<polygon fill="none" stroke="black" points="2696,-516.5 2696,-537.5 3109,-537.5 3109,-516.5 2696,-516.5"/>
<text text-anchor="start" x="2818" y="-524.3" font-family="Times,serif" font-weight="bold" font-size="14.00">DeploymentResource</text>
<polygon fill="none" stroke="black" points="2696,-482.5 2696,-516.5 3109,-516.5 3109,-482.5 2696,-482.5"/>
<text text-anchor="start" x="2871" y="-503.3" font-family="Times,serif" font-style="italic" font-size="14.00">Methods</text>
<text text-anchor="start" x="2699" y="-489.3" font-family="Times,serif" font-size="14.00">yaml(&lt;DeploymentResourceYamlRequest&gt; steps):String</text>
<polygon fill="none" stroke="black" points="2694.5,-482 2694.5,-539 3109.5,-539 3109.5,-482 2694.5,-482"/>
</g>
<!-- DeploymentService -->
<g id="node6" class="node">
<title>DeploymentService</title>
<polygon fill="none" stroke="black" points="2722,-666.5 2722,-687.5 3082,-687.5 3082,-666.5 2722,-666.5"/>
<text text-anchor="start" x="2826" y="-674.3" font-family="Times,serif" font-weight="bold" font-size="14.00">DeploymentService</text>
<polygon fill="none" stroke="black" points="2722,-632.5 2722,-666.5 3082,-666.5 3082,-632.5 2722,-632.5"/>
<text text-anchor="start" x="2870.5" y="-653.3" font-family="Times,serif" font-style="italic" font-size="14.00">Methods</text>
<text text-anchor="start" x="2725" y="-639.3" font-family="Times,serif" font-size="14.00">yaml(&lt;List[Step]&gt; steps, &lt;String&gt; name):String</text>
<polygon fill="none" stroke="black" points="2721,-632 2721,-689 3083,-689 3083,-632 2721,-632"/>
</g>
<!-- DeploymentService&#45;&gt;DeploymentResource -->
<g id="edge4" class="edge">
<title>DeploymentService&#45;&gt;DeploymentResource</title>
<path fill="none" stroke="black" d="M2902,-627.75C2902,-606.58 2902,-578.48 2902,-555.21"/>
<polygon fill="black" stroke="black" points="2902,-555.2 2898,-549.2 2902,-543.2 2906,-549.2 2902,-555.2"/>
<text text-anchor="middle" x="2888" y="-616.55" font-family="Times,serif" font-size="14.00">0..1</text>
</g>
<!-- StepResource -->
<g id="node7" class="node">
<title>StepResource</title>
<polygon fill="none" stroke="black" points="2382,-680.5 2382,-701.5 2686,-701.5 2686,-680.5 2382,-680.5"/>
<text text-anchor="start" x="2479.5" y="-688.3" font-family="Times,serif" font-weight="bold" font-size="14.00">StepResource</text>
<polygon fill="none" stroke="black" points="2382,-618.5 2382,-680.5 2686,-680.5 2686,-618.5 2382,-618.5"/>
<text text-anchor="start" x="2502.5" y="-667.3" font-family="Times,serif" font-style="italic" font-size="14.00">Methods</text>
<text text-anchor="start" x="2385" y="-653.3" font-family="Times,serif" font-size="14.00">stepById(&lt;String&gt; id):Step</text>
<text text-anchor="start" x="2385" y="-639.3" font-family="Times,serif" font-size="14.00">stepsByName(&lt;String&gt; name):List[Step]</text>
<text text-anchor="start" x="2385" y="-625.3" font-family="Times,serif" font-size="14.00">allSteps():List[Step]</text>
<polygon fill="none" stroke="black" points="2381,-618 2381,-703 2687,-703 2687,-618 2381,-618"/>
</g>
<!-- StepResource&#45;&gt;StepCatalog -->
<g id="edge5" class="edge">
<title>StepResource&#45;&gt;StepCatalog</title>
<path fill="none" stroke="black" stroke-dasharray="5,2" d="M2534,-613.89C2534,-589.3 2534,-559.78 2534,-538.76"/>
<polygon fill="black" stroke="black" points="2534,-528.62 2538.5,-538.62 2534,-533.62 2534,-538.62 2534,-538.62 2534,-538.62 2534,-533.62 2529.5,-538.62 2534,-528.62 2534,-528.62"/>
</g>
<!-- ViewDefinitionResource -->
<g id="node8" class="node">
<title>ViewDefinitionResource</title>
<polygon fill="none" stroke="black" points="193,-352.5 193,-373.5 389,-373.5 389,-352.5 193,-352.5"/>
<text text-anchor="start" x="196" y="-360.3" font-family="Times,serif" font-weight="bold" font-size="14.00">ViewDefinitionResource</text>
<polygon fill="none" stroke="black" points="193,-318.5 193,-352.5 389,-352.5 389,-318.5 193,-318.5"/>
<text text-anchor="start" x="259.5" y="-339.3" font-family="Times,serif" font-style="italic" font-size="14.00">Methods</text>
<text text-anchor="start" x="206.5" y="-325.3" font-family="Times,serif" font-size="14.00">views:(&lt;String&gt; yaml):</text>
<polygon fill="none" stroke="black" points="192,-318 192,-375 390,-375 390,-318 192,-318"/>
</g>
<!-- ViewDefinitionService -->
<g id="node9" class="node">
<title>ViewDefinitionService</title>
<polygon fill="none" stroke="black" points="396,-516.5 396,-537.5 708,-537.5 708,-516.5 396,-516.5"/>
<text text-anchor="start" x="465.5" y="-524.3" font-family="Times,serif" font-weight="bold" font-size="14.00">ViewDefinitionService</text>
<polygon fill="none" stroke="black" points="396,-482.5 396,-516.5 708,-516.5 708,-482.5 396,-482.5"/>
<text text-anchor="start" x="520.5" y="-503.3" font-family="Times,serif" font-style="italic" font-size="14.00">Methods</text>
<text text-anchor="start" x="399" y="-489.3" font-family="Times,serif" font-size="14.00">views(&lt;String&gt; yaml):List[ViewDefinition]</text>
<polygon fill="none" stroke="black" points="395,-482 395,-539 709,-539 709,-482 395,-482"/>
</g>
<!-- ViewDefinitionService&#45;&gt;ViewDefinitionResource -->
<g id="edge6" class="edge">
<title>ViewDefinitionService&#45;&gt;ViewDefinitionResource</title>
<path fill="none" stroke="black" d="M501.06,-477.88C458.39,-451.4 397.38,-413.53 352.09,-385.42"/>
<polygon fill="black" stroke="black" points="352.01,-385.37 344.8,-385.6 341.81,-379.04 349.02,-378.81 352.01,-385.37"/>
<text text-anchor="middle" x="487.06" y="-466.68" font-family="Times,serif" font-size="14.00">0..1</text>
</g>
<!-- StepParserService -->
<g id="node12" class="node">
<title>StepParserService</title>
<polygon fill="none" stroke="black" points="426,-359.5 426,-380.5 679,-380.5 679,-359.5 426,-359.5"/>
<text text-anchor="start" x="480" y="-367.3" font-family="Times,serif" font-weight="bold" font-size="14.00">StepParserService</text>
<polygon fill="none" stroke="black" points="426,-311.5 426,-359.5 679,-359.5 679,-311.5 426,-311.5"/>
<text text-anchor="start" x="521" y="-346.3" font-family="Times,serif" font-style="italic" font-size="14.00">Methods</text>
<text text-anchor="start" x="429" y="-332.3" font-family="Times,serif" font-size="14.00">parse(&lt;String&gt; yaml):List[Step]</text>
<text text-anchor="start" x="429" y="-318.3" font-family="Times,serif" font-size="14.00">appliesTo(&lt;String&gt; yaml):boolean</text>
<polygon fill="none" stroke="black" points="424.5,-311 424.5,-382 679.5,-382 679.5,-311 424.5,-311"/>
</g>
<!-- ViewDefinitionService&#45;&gt;StepParserService -->
<g id="edge9" class="edge">
<title>ViewDefinitionService&#45;&gt;StepParserService</title>
<path fill="none" stroke="black" stroke-dasharray="5,2" d="M552,-477.88C552,-454.71 552,-422.83 552,-396.39"/>
<polygon fill="black" stroke="black" points="552,-386.18 556.5,-396.18 552,-391.18 552,-396.18 552,-396.18 552,-396.18 552,-391.18 547.5,-396.18 552,-386.18 552,-386.18"/>
</g>
<!-- ViewDefinitionParserService -->
<g id="node13" class="node">
<title>ViewDefinitionParserService</title>
<polygon fill="none" stroke="black" points="1378,-359.5 1378,-380.5 1904,-380.5 1904,-359.5 1378,-359.5"/>
<text text-anchor="start" x="1528.5" y="-367.3" font-family="Times,serif" font-weight="bold" font-size="14.00">ViewDefinitionParserService</text>
<polygon fill="none" stroke="black" points="1378,-311.5 1378,-359.5 1904,-359.5 1904,-311.5 1378,-311.5"/>
<text text-anchor="start" x="1609.5" y="-346.3" font-family="Times,serif" font-style="italic" font-size="14.00">Methods</text>
<text text-anchor="start" x="1381" y="-332.3" font-family="Times,serif" font-size="14.00">parse(&lt;List[Step]&gt; steps):List[ViewDefinition]</text>
<text text-anchor="start" x="1381" y="-318.3" font-family="Times,serif" font-size="14.00">appliesTo(&lt;List[Step]&gt; steps, &lt;ViewDefinition&gt; viewDefinition):boolean</text>
<polygon fill="none" stroke="black" points="1377,-311 1377,-382 1905,-382 1905,-311 1377,-311"/>
</g>
<!-- ViewDefinitionService&#45;&gt;ViewDefinitionParserService -->
<g id="edge10" class="edge">
<title>ViewDefinitionService&#45;&gt;ViewDefinitionParserService</title>
<path fill="none" stroke="black" stroke-dasharray="5,2" d="M717.01,-492.6C880.72,-474.88 1138.49,-444.44 1360,-407 1392.56,-401.5 1427.07,-394.86 1460.35,-388.05"/>
<polygon fill="black" stroke="black" points="1470.17,-386.02 1461.28,-392.45 1465.27,-387.03 1460.37,-388.04 1460.37,-388.04 1460.37,-388.04 1465.27,-387.03 1459.47,-383.63 1470.17,-386.02 1470.17,-386.02"/>
</g>
<!-- DeploymentGeneratorService -->
<g id="node10" class="node">
<title>DeploymentGeneratorService</title>
<polygon fill="none" stroke="black" points="715,-359.5 715,-380.5 1080,-380.5 1080,-359.5 715,-359.5"/>
<text text-anchor="start" x="781.5" y="-367.3" font-family="Times,serif" font-weight="bold" font-size="14.00">DeploymentGeneratorService</text>
<polygon fill="none" stroke="black" points="715,-311.5 715,-359.5 1080,-359.5 1080,-311.5 715,-311.5"/>
<text text-anchor="start" x="866" y="-346.3" font-family="Times,serif" font-style="italic" font-size="14.00">Methods</text>
<text text-anchor="start" x="718" y="-332.3" font-family="Times,serif" font-size="14.00">parse(&lt;String&gt; name, &lt;List[Step]&gt; steps):String</text>
<text text-anchor="start" x="718" y="-318.3" font-family="Times,serif" font-size="14.00">appliesTo(&lt;List[Step]&gt; steps):boolean</text>
<polygon fill="none" stroke="black" points="713.5,-311 713.5,-382 1080.5,-382 1080.5,-311 713.5,-311"/>
</g>
<!-- Step -->
<g id="node11" class="node">
<title>Step</title>
<polygon fill="none" stroke="black" points="622,-223.5 622,-244.5 828,-244.5 828,-223.5 622,-223.5"/>
<text text-anchor="start" x="707" y="-231.3" font-family="Times,serif" font-weight="bold" font-size="14.00">Step</text>
<polygon fill="none" stroke="black" points="622,-133.5 622,-223.5 828,-223.5 828,-133.5 622,-133.5"/>
<text text-anchor="start" x="687" y="-210.3" font-family="Times,serif" font-style="italic" font-size="14.00">Properties</text>
<text text-anchor="start" x="625" y="-196.3" font-family="Times,serif" font-size="14.00">subtype:String</text>
<text text-anchor="start" x="625" y="-182.3" font-family="Times,serif" font-size="14.00">description:String</text>
<text text-anchor="start" x="625" y="-168.3" font-family="Times,serif" font-size="14.00">title:String</text>
<text text-anchor="start" x="625" y="-154.3" font-family="Times,serif" font-size="14.00">parameters:List[Parameter]</text>
<text text-anchor="start" x="625" y="-140.3" font-family="Times,serif" font-size="14.00">icon:String</text>
<polygon fill="none" stroke="black" points="621,-133 621,-246 829,-246 829,-133 621,-133"/>
</g>
<!-- DeploymentGeneratorService&#45;&gt;Step -->
<g id="edge7" class="edge">
<title>DeploymentGeneratorService&#45;&gt;Step</title>
<path fill="none" stroke="black" stroke-dasharray="5,2" d="M854.04,-306.79C837.26,-291.67 817.54,-273.89 798.63,-256.85"/>
<polygon fill="black" stroke="black" points="791.15,-250.12 801.6,-253.47 794.87,-253.46 798.58,-256.81 798.58,-256.81 798.58,-256.81 794.87,-253.46 795.57,-260.15 791.15,-250.12 791.15,-250.12"/>
</g>
<!-- Step&#45;&gt;Metadata -->
<g id="edge20" class="edge">
<title>Step&#45;&gt;Metadata</title>
<path fill="none" stroke="black" d="M837.11,-166.24C986.67,-136.53 1246.74,-84.89 1368.52,-60.7"/>
<polygon fill="none" stroke="black" points="1369.33,-64.11 1378.45,-58.73 1367.96,-57.24 1369.33,-64.11"/>
</g>
<!-- StepParserService&#45;&gt;Step -->
<g id="edge8" class="edge">
<title>StepParserService&#45;&gt;Step</title>
<path fill="none" stroke="black" stroke-dasharray="5,2" d="M595.21,-306.79C612.08,-291.67 631.92,-273.89 650.94,-256.85"/>
<polygon fill="black" stroke="black" points="658.46,-250.12 654.02,-260.14 654.74,-253.45 651.01,-256.79 651.01,-256.79 651.01,-256.79 654.74,-253.45 648.01,-253.44 658.46,-250.12 658.46,-250.12"/>
</g>
<!-- ViewDefinition -->
<g id="node14" class="node">
<title>ViewDefinition</title>
<polygon fill="none" stroke="black" points="1281,-209.5 1281,-230.5 1590,-230.5 1590,-209.5 1281,-209.5"/>
<text text-anchor="start" x="1377.5" y="-217.3" font-family="Times,serif" font-weight="bold" font-size="14.00">ViewDefinition</text>
<polygon fill="none" stroke="black" points="1281,-147.5 1281,-209.5 1590,-209.5 1590,-147.5 1281,-147.5"/>
<text text-anchor="start" x="1397.5" y="-196.3" font-family="Times,serif" font-style="italic" font-size="14.00">Properties</text>
<text text-anchor="start" x="1284" y="-182.3" font-family="Times,serif" font-size="14.00">steps:List[Step]</text>
<text text-anchor="start" x="1284" y="-168.3" font-family="Times,serif" font-size="14.00">properties:Map[String, String]</text>
<text text-anchor="start" x="1284" y="-154.3" font-family="Times,serif" font-size="14.00">constraints:List[ViewDefinitionConstraint]</text>
<polygon fill="none" stroke="black" points="1279.5,-147 1279.5,-232 1590.5,-232 1590.5,-147 1279.5,-147"/>
</g>
<!-- ViewDefinitionParserService&#45;&gt;ViewDefinition -->
<g id="edge11" class="edge">
<title>ViewDefinitionParserService&#45;&gt;ViewDefinition</title>
<path fill="none" stroke="black" stroke-dasharray="5,2" d="M1589.81,-306.99C1563.89,-287.48 1532.05,-263.53 1504,-242.42"/>
<polygon fill="black" stroke="black" points="1495.82,-236.26 1506.51,-238.68 1499.81,-239.27 1503.81,-242.27 1503.81,-242.27 1503.81,-242.27 1499.81,-239.27 1501.1,-245.87 1495.82,-236.26 1495.82,-236.26"/>
</g>
<!-- ViewDefinition&#45;&gt;Metadata -->
<g id="edge23" class="edge">
<title>ViewDefinition&#45;&gt;Metadata</title>
<path fill="none" stroke="black" d="M1435,-142.72C1435,-130.16 1435,-116.4 1435,-103.34"/>
<polygon fill="none" stroke="black" points="1438.5,-103.05 1435,-93.05 1431.5,-103.05 1438.5,-103.05"/>
</g>
<!-- ParseCatalog -->
<g id="node16" class="node">
<title>ParseCatalog</title>
<polygon fill="none" stroke="black" points="3418,-352.5 3418,-373.5 3675,-373.5 3675,-352.5 3418,-352.5"/>
<text text-anchor="start" x="3494" y="-360.3" font-family="Times,serif" font-weight="bold" font-size="14.00">ParseCatalog</text>
<polygon fill="none" stroke="black" points="3418,-318.5 3418,-352.5 3675,-352.5 3675,-318.5 3418,-318.5"/>
<text text-anchor="start" x="3515" y="-339.3" font-family="Times,serif" font-style="italic" font-size="14.00">Methods</text>
<text text-anchor="start" x="3421" y="-325.3" font-family="Times,serif" font-size="14.00">parse():CompletableFuture[List[T]]</text>
<polygon fill="none" stroke="black" points="3416.5,-318 3416.5,-375 3675.5,-375 3675.5,-318 3416.5,-318"/>
</g>
<!-- CatalogCollection -->
<g id="node17" class="node">
<title>CatalogCollection</title>
<polygon fill="none" stroke="black" points="1940,-335.5 1940,-356.5 2086,-356.5 2086,-335.5 1940,-335.5"/>
<text text-anchor="start" x="1943" y="-343.3" font-family="Times,serif" font-weight="bold" font-size="14.00">CatalogCollection</text>
<polygon fill="none" stroke="black" points="1939,-335 1939,-358 2087,-358 2087,-335 1939,-335"/>
</g>
<!-- CatalogCollection&#45;&gt;MetadataCatalog -->
<g id="edge13" class="edge">
<title>CatalogCollection&#45;&gt;MetadataCatalog</title>
<path fill="none" stroke="black" d="M2023.09,-328.32C2033.9,-309.9 2051.7,-279.58 2067.86,-252.06"/>
<polygon fill="none" stroke="black" points="2070.99,-253.64 2073.03,-243.24 2064.95,-250.1 2070.99,-253.64"/>
</g>
<!-- InMemoryCatalog -->
<g id="node18" class="node">
<title>InMemoryCatalog</title>
<polygon fill="none" stroke="black" points="2122,-335.5 2122,-356.5 2270,-356.5 2270,-335.5 2122,-335.5"/>
<text text-anchor="start" x="2125" y="-343.3" font-family="Times,serif" font-weight="bold" font-size="14.00">InMemoryCatalog</text>
<polygon fill="none" stroke="black" points="2121,-335 2121,-358 2271,-358 2271,-335 2121,-335"/>
</g>
<!-- InMemoryCatalog&#45;&gt;MetadataCatalog -->
<g id="edge14" class="edge">
<title>InMemoryCatalog&#45;&gt;MetadataCatalog</title>
<path fill="none" stroke="black" d="M2185.8,-328.32C2174.87,-309.9 2156.87,-279.58 2140.54,-252.06"/>
<polygon fill="none" stroke="black" points="2143.42,-250.06 2135.31,-243.24 2137.4,-253.63 2143.42,-250.06"/>
</g>
<!-- ReadOnlyCatalog -->
<g id="node19" class="node">
<title>ReadOnlyCatalog</title>
<polygon fill="none" stroke="black" points="1942,-499.5 1942,-520.5 2084,-520.5 2084,-499.5 1942,-499.5"/>
<text text-anchor="start" x="1945" y="-507.3" font-family="Times,serif" font-weight="bold" font-size="14.00">ReadOnlyCatalog</text>
<polygon fill="none" stroke="black" points="1941,-499 1941,-522 2085,-522 2085,-499 1941,-499"/>
</g>
<!-- ReadOnlyCatalog&#45;&gt;CatalogCollection -->
<g id="edge15" class="edge">
<title>ReadOnlyCatalog&#45;&gt;CatalogCollection</title>
<path fill="none" stroke="black" d="M2013,-492.47C2013,-464.47 2013,-408.46 2013,-374.85"/>
<polygon fill="none" stroke="black" points="2016.5,-374.79 2013,-364.79 2009.5,-374.79 2016.5,-374.79"/>
</g>
<!-- GitParseCatalog -->
<g id="node20" class="node">
<title>GitParseCatalog</title>
<polygon fill="none" stroke="black" points="3145,-516.5 3145,-537.5 3947,-537.5 3947,-516.5 3145,-516.5"/>
<text text-anchor="start" x="3481.5" y="-524.3" font-family="Times,serif" font-weight="bold" font-size="14.00">GitParseCatalog</text>
<polygon fill="none" stroke="black" points="3145,-482.5 3145,-516.5 3947,-516.5 3947,-482.5 3145,-482.5"/>
<text text-anchor="start" x="3514.5" y="-503.3" font-family="Times,serif" font-style="italic" font-size="14.00">Methods</text>
<text text-anchor="start" x="3148" y="-489.3" font-family="Times,serif" font-size="14.00">getFileVisitor(&lt;List[Metadata]&gt; metadataList, &lt;List[CompletableFuture[]]&gt; futureMetadata):YamlProcessFile</text>
<polygon fill="none" stroke="black" points="3144,-482 3144,-539 3948,-539 3948,-482 3144,-482"/>
</g>
<!-- GitParseCatalog&#45;&gt;ParseCatalog -->
<g id="edge16" class="edge">
<title>GitParseCatalog&#45;&gt;ParseCatalog</title>
<path fill="none" stroke="black" d="M3546,-477.88C3546,-452.57 3546,-416.86 3546,-389.2"/>
<polygon fill="none" stroke="black" points="3549.5,-389.04 3546,-379.04 3542.5,-389.04 3549.5,-389.04"/>
</g>
<!-- YamlProcessFile -->
<g id="node21" class="node">
<title>YamlProcessFile</title>
<polygon fill="none" stroke="black" points="3287,-649.5 3287,-670.5 3422,-670.5 3422,-649.5 3287,-649.5"/>
<text text-anchor="start" x="3290" y="-657.3" font-family="Times,serif" font-weight="bold" font-size="14.00">YamlProcessFile</text>
<polygon fill="none" stroke="black" points="3285.5,-649 3285.5,-672 3422.5,-672 3422.5,-649 3285.5,-649"/>
</g>
<!-- YamlProcessFile&#45;&gt;GitParseCatalog -->
<g id="edge17" class="edge">
<title>YamlProcessFile&#45;&gt;GitParseCatalog</title>
<path fill="none" stroke="black" stroke-dasharray="5,2" d="M3376.4,-642.23C3405.77,-619.6 3458.1,-579.25 3496.89,-549.35"/>
<polygon fill="black" stroke="black" points="3504.95,-543.14 3499.78,-552.81 3500.99,-546.19 3497.03,-549.25 3497.03,-549.25 3497.03,-549.25 3500.99,-546.19 3494.29,-545.68 3504.95,-543.14 3504.95,-543.14"/>
</g>
<!-- KameletParseCatalog -->
<g id="node22" class="node">
<title>KameletParseCatalog</title>
<polygon fill="none" stroke="black" points="3458,-649.5 3458,-670.5 3635,-670.5 3635,-649.5 3458,-649.5"/>
<text text-anchor="start" x="3461" y="-657.3" font-family="Times,serif" font-weight="bold" font-size="14.00">KameletParseCatalog</text>
<polygon fill="none" stroke="black" points="3456.5,-649 3456.5,-672 3635.5,-672 3635.5,-649 3456.5,-649"/>
</g>
<!-- KameletParseCatalog&#45;&gt;GitParseCatalog -->
<g id="edge18" class="edge">
<title>KameletParseCatalog&#45;&gt;GitParseCatalog</title>
<path fill="none" stroke="black" d="M3546,-642.23C3546,-620.54 3546,-582.6 3546,-553.16"/>
<polygon fill="none" stroke="black" points="3549.5,-553.14 3546,-543.14 3542.5,-553.14 3549.5,-553.14"/>
</g>
<!-- ViewDefinitionParseCatalog -->
<g id="node23" class="node">
<title>ViewDefinitionParseCatalog</title>
<polygon fill="none" stroke="black" points="3671,-649.5 3671,-670.5 3897,-670.5 3897,-649.5 3671,-649.5"/>
<text text-anchor="start" x="3674" y="-657.3" font-family="Times,serif" font-weight="bold" font-size="14.00">ViewDefinitionParseCatalog</text>
<polygon fill="none" stroke="black" points="3670,-649 3670,-672 3898,-672 3898,-649 3670,-649"/>
</g>
<!-- ViewDefinitionParseCatalog&#45;&gt;GitParseCatalog -->
<g id="edge19" class="edge">
<title>ViewDefinitionParseCatalog&#45;&gt;GitParseCatalog</title>
<path fill="none" stroke="black" d="M3756.23,-642.23C3719.52,-619.41 3653.87,-578.58 3605.67,-548.6"/>
<polygon fill="none" stroke="black" points="3607.22,-545.45 3596.88,-543.14 3603.53,-551.39 3607.22,-545.45"/>
</g>
<!-- KameletBinding -->
<g id="node24" class="node">
<title>KameletBinding</title>
<polygon fill="none" stroke="black" points="3933,-660.5 3933,-681.5 4069,-681.5 4069,-660.5 3933,-660.5"/>
<text text-anchor="start" x="3936" y="-668.3" font-family="Times,serif" font-weight="bold" font-size="14.00">KameletBinding</text>
<polygon fill="none" stroke="black" points="3933,-639.5 3933,-660.5 4069,-660.5 4069,-639.5 3933,-639.5"/>
<text text-anchor="start" x="3946" y="-647.3" font-family="Times,serif" font-style="italic" font-size="14.00">Usage example</text>
<polygon fill="none" stroke="black" points="3932,-638.5 3932,-682.5 4070,-682.5 4070,-638.5 3932,-638.5"/>
</g>
<!-- KameletBindingSpec -->
<g id="node25" class="node">
<title>KameletBindingSpec</title>
<polygon fill="none" stroke="black" points="4105,-660.5 4105,-681.5 4277,-681.5 4277,-660.5 4105,-660.5"/>
<text text-anchor="start" x="4108" y="-668.3" font-family="Times,serif" font-weight="bold" font-size="14.00">KameletBindingSpec</text>
<polygon fill="none" stroke="black" points="4105,-639.5 4105,-660.5 4277,-660.5 4277,-639.5 4105,-639.5"/>
<text text-anchor="start" x="4136" y="-647.3" font-family="Times,serif" font-style="italic" font-size="14.00">Usage example</text>
<polygon fill="none" stroke="black" points="4104,-638.5 4104,-682.5 4278,-682.5 4278,-638.5 4104,-638.5"/>
</g>
<!-- KameletBindingStep -->
<g id="node26" class="node">
<title>KameletBindingStep</title>
<polygon fill="none" stroke="black" points="4314,-660.5 4314,-681.5 4485,-681.5 4485,-660.5 4314,-660.5"/>
<text text-anchor="start" x="4317" y="-668.3" font-family="Times,serif" font-weight="bold" font-size="14.00">KameletBindingStep</text>
<polygon fill="none" stroke="black" points="4314,-639.5 4314,-660.5 4485,-660.5 4485,-639.5 4314,-639.5"/>
<text text-anchor="start" x="4344.5" y="-647.3" font-family="Times,serif" font-style="italic" font-size="14.00">Usage example</text>
<polygon fill="none" stroke="black" points="4312.5,-638.5 4312.5,-682.5 4485.5,-682.5 4485.5,-638.5 4312.5,-638.5"/>
</g>
<!-- KameletBindingStepRef -->
<g id="node27" class="node">
<title>KameletBindingStepRef</title>
<polygon fill="none" stroke="black" points="4521,-660.5 4521,-681.5 4719,-681.5 4719,-660.5 4521,-660.5"/>
<text text-anchor="start" x="4524" y="-668.3" font-family="Times,serif" font-weight="bold" font-size="14.00">KameletBindingStepRef</text>
<polygon fill="none" stroke="black" points="4521,-639.5 4521,-660.5 4719,-660.5 4719,-639.5 4521,-639.5"/>
<text text-anchor="start" x="4565" y="-647.3" font-family="Times,serif" font-style="italic" font-size="14.00">Usage example</text>
<polygon fill="none" stroke="black" points="4520,-638.5 4520,-682.5 4720,-682.5 4720,-638.5 4520,-638.5"/>
</g>
<!-- Parameter -->
<g id="node28" class="node">
<title>Parameter</title>
<polygon fill="none" stroke="black" points="15,-551.5 15,-572.5 151,-572.5 151,-551.5 15,-551.5"/>
<text text-anchor="start" x="41" y="-559.3" font-family="Times,serif" font-weight="bold" font-size="14.00">Parameter</text>
<polygon fill="none" stroke="black" points="15,-447.5 15,-551.5 151,-551.5 151,-447.5 15,-447.5"/>
<text text-anchor="start" x="45" y="-538.3" font-family="Times,serif" font-style="italic" font-size="14.00">Properties</text>
<text text-anchor="start" x="18" y="-524.3" font-family="Times,serif" font-size="14.00">description:String</text>
<text text-anchor="start" x="18" y="-510.3" font-family="Times,serif" font-size="14.00">label:String</text>
<text text-anchor="start" x="18" y="-496.3" font-family="Times,serif" font-size="14.00">id:String</text>
<text text-anchor="start" x="18" y="-482.3" font-family="Times,serif" font-size="14.00">value:String</text>
<text text-anchor="start" x="18" y="-468.3" font-family="Times,serif" font-size="14.00">default:String</text>
<text text-anchor="start" x="18" y="-454.3" font-family="Times,serif" font-size="14.00">type:String</text>
<polygon fill="none" stroke="black" points="14,-447 14,-574 152,-574 152,-447 14,-447"/>
</g>
<!-- KameletStep -->
<g id="node29" class="node">
<title>KameletStep</title>
<polygon fill="none" stroke="black" points="9,-380.5 9,-401.5 157,-401.5 157,-380.5 9,-380.5"/>
<text text-anchor="start" x="32" y="-388.3" font-family="Times,serif" font-weight="bold" font-size="14.00">KameletStep</text>
<polygon fill="none" stroke="black" points="9,-290.5 9,-380.5 157,-380.5 157,-290.5 9,-290.5"/>
<text text-anchor="start" x="45" y="-367.3" font-family="Times,serif" font-style="italic" font-size="14.00">Properties</text>
<text text-anchor="start" x="12" y="-353.3" font-family="Times,serif" font-size="14.00">group:String</text>
<text text-anchor="start" x="12" y="-339.3" font-family="Times,serif" font-size="14.00">kameletType:String</text>
<text text-anchor="start" x="12" y="-325.3" font-family="Times,serif" font-size="14.00">apiVersion:String</text>
<text text-anchor="start" x="12" y="-311.3" font-family="Times,serif" font-size="14.00">kind:String</text>
<text text-anchor="start" x="12" y="-297.3" font-family="Times,serif" font-size="14.00">spec:String</text>
<polygon fill="none" stroke="black" points="8,-290 8,-403 158,-403 158,-290 8,-290"/>
</g>
<!-- Parameter&#45;&gt;KameletStep -->
<g id="edge22" class="edge">
<title>Parameter&#45;&gt;KameletStep</title>
<path fill="none" stroke="black" d="M83,-442.67C83,-434.95 83,-427.05 83,-419.27"/>
<polygon fill="black" stroke="black" points="83,-419.17 79,-413.17 83,-407.17 87,-413.17 83,-419.17"/>
<text text-anchor="middle" x="69" y="-431.47" font-family="Times,serif" font-size="14.00">0..n</text>
</g>
<!-- KameletStep&#45;&gt;Step -->
<g id="edge21" class="edge">
<title>KameletStep&#45;&gt;Step</title>
<path fill="none" stroke="black" d="M166.23,-289.71C169.15,-288.39 172.08,-287.14 175,-286 315.61,-230.98 488.78,-207.56 602.8,-197.65"/>
<polygon fill="none" stroke="black" points="603.29,-201.12 612.96,-196.79 602.7,-194.15 603.29,-201.12"/>
</g>
<!-- ViewDefinitionConstraint -->
<g id="node30" class="node">
<title>ViewDefinitionConstraint</title>
<polygon fill="none" stroke="black" points="1116,-366.5 1116,-387.5 1342,-387.5 1342,-366.5 1116,-366.5"/>
<text text-anchor="start" x="1128.5" y="-374.3" font-family="Times,serif" font-weight="bold" font-size="14.00">ViewDefinitionConstraint</text>
<polygon fill="none" stroke="black" points="1116,-304.5 1116,-366.5 1342,-366.5 1342,-304.5 1116,-304.5"/>
<text text-anchor="start" x="1191" y="-353.3" font-family="Times,serif" font-style="italic" font-size="14.00">Properties</text>
<text text-anchor="start" x="1119" y="-339.3" font-family="Times,serif" font-size="14.00">mandatory:boolean</text>
<text text-anchor="start" x="1119" y="-325.3" font-family="Times,serif" font-size="14.00">operation:ConstraintOperation</text>
<text text-anchor="start" x="1119" y="-311.3" font-family="Times,serif" font-size="14.00">parameter:String</text>
<polygon fill="none" stroke="black" points="1115,-304 1115,-389 1343,-389 1343,-304 1115,-304"/>
</g>
<!-- ViewDefinitionConstraint&#45;&gt;ViewDefinition -->
<g id="edge24" class="edge">
<title>ViewDefinitionConstraint&#45;&gt;ViewDefinition</title>
<path fill="none" stroke="black" d="M1289.69,-299.83C1313.16,-282.17 1340.18,-261.85 1364.5,-243.54"/>
<polygon fill="black" stroke="black" points="1364.8,-243.32 1367.19,-236.52 1374.39,-236.11 1372,-242.91 1364.8,-243.32"/>
<text text-anchor="middle" x="1275.69" y="-288.63" font-family="Times,serif" font-size="14.00">0..n</text>
</g>
</g>
</svg>
