<?xml version="1.0" encoding="UTF-8" standalone="no"?>
<!DOCTYPE svg PUBLIC "-//W3C//DTD SVG 1.1//EN"
 "http://www.w3.org/Graphics/SVG/1.1/DTD/svg11.dtd">
<!-- Generated by graphviz version 2.43.0 (0)
 -->
<!-- Title: ClassDiagram Pages: 1 -->
<svg width="3561pt" height="743pt"
 viewBox="0.00 0.00 3560.50 743.00" xmlns="http://www.w3.org/2000/svg" xmlns:xlink="http://www.w3.org/1999/xlink">
<g id="graph0" class="graph" transform="scale(1 1) rotate(0) translate(4 739)">
<title>ClassDiagram</title>
<polygon fill="white" stroke="transparent" points="-4,4 -4,-739 3556.5,-739 3556.5,4 -4,4"/>
<!-- DeploymentResource -->
<g id="node1" class="node">
<title>DeploymentResource</title>
<polygon fill="none" stroke="black" points="67.5,-537.5 67.5,-558.5 605.5,-558.5 605.5,-537.5 67.5,-537.5"/>
<text text-anchor="start" x="252" y="-545.3" font-family="Times,serif" font-weight="bold" font-size="14.00">DeploymentResource</text>
<polygon fill="none" stroke="black" points="67.5,-461.5 67.5,-537.5 605.5,-537.5 605.5,-461.5 67.5,-461.5"/>
<text text-anchor="start" x="305" y="-524.3" font-family="Times,serif" font-style="italic" font-size="14.00">Methods</text>
<text text-anchor="start" x="70.5" y="-510.3" font-family="Times,serif" font-size="14.00">yaml(&lt;DeploymentResourceYamlRequest&gt; steps, &lt;String&gt; type):String[]</text>
<text text-anchor="start" x="70.5" y="-496.3" font-family="Times,serif" font-size="14.00">start(&lt;DeploymentResourceYamlRequest&gt; steps):String</text>
<text text-anchor="start" x="70.5" y="-482.3" font-family="Times,serif" font-size="14.00">integrations():String</text>
<text text-anchor="start" x="70.5" y="-468.3" font-family="Times,serif" font-size="14.00">stop():String</text>
<polygon fill="none" stroke="black" points="66.5,-461 66.5,-560 606.5,-560 606.5,-461 66.5,-461"/>
</g>
<!-- DeploymentService -->
<g id="node2" class="node">
<title>DeploymentService</title>
<polygon fill="none" stroke="black" points="156.5,-673.5 156.5,-694.5 516.5,-694.5 516.5,-673.5 156.5,-673.5"/>
<text text-anchor="start" x="260.5" y="-681.3" font-family="Times,serif" font-weight="bold" font-size="14.00">DeploymentService</text>
<polygon fill="none" stroke="black" points="156.5,-639.5 156.5,-673.5 516.5,-673.5 516.5,-639.5 156.5,-639.5"/>
<text text-anchor="start" x="305" y="-660.3" font-family="Times,serif" font-style="italic" font-size="14.00">Methods</text>
<text text-anchor="start" x="159.5" y="-646.3" font-family="Times,serif" font-size="14.00">yaml(&lt;List[Step]&gt; steps, &lt;String&gt; name):String</text>
<polygon fill="none" stroke="black" points="155.5,-639 155.5,-696 517.5,-696 517.5,-639 155.5,-639"/>
</g>
<!-- DeploymentService&#45;&gt;DeploymentResource -->
<g id="edge1" class="edge">
<title>DeploymentService&#45;&gt;DeploymentResource</title>
<path fill="none" stroke="black" d="M336.5,-634.76C336.5,-617.88 336.5,-596.5 336.5,-576.3"/>
<polygon fill="black" stroke="black" points="336.5,-576.25 332.5,-570.25 336.5,-564.25 340.5,-570.25 336.5,-576.25"/>
<text text-anchor="middle" x="322.5" y="-623.56" font-family="Times,serif" font-size="14.00">0..1</text>
</g>
<!-- StepResource -->
<g id="node3" class="node">
<title>StepResource</title>
<polygon fill="none" stroke="black" points="1813.5,-701.5 1813.5,-722.5 2182.5,-722.5 2182.5,-701.5 1813.5,-701.5"/>
<text text-anchor="start" x="1943.5" y="-709.3" font-family="Times,serif" font-weight="bold" font-size="14.00">StepResource</text>
<polygon fill="none" stroke="black" points="1813.5,-611.5 1813.5,-701.5 2182.5,-701.5 2182.5,-611.5 1813.5,-611.5"/>
<text text-anchor="start" x="1966.5" y="-688.3" font-family="Times,serif" font-style="italic" font-size="14.00">Methods</text>
<text text-anchor="start" x="1816.5" y="-674.3" font-family="Times,serif" font-size="14.00">stepById(&lt;String&gt; id):Step</text>
<text text-anchor="start" x="1816.5" y="-660.3" font-family="Times,serif" font-size="14.00">stepsByName(&lt;String&gt; name):List[Step]</text>
<text text-anchor="start" x="1816.5" y="-646.3" font-family="Times,serif" font-size="14.00">stepsByKind(&lt;String&gt; type):List[Step]</text>
<text text-anchor="start" x="1816.5" y="-632.3" font-family="Times,serif" font-size="14.00">stepsByIntegrationType(&lt;String&gt; type):List[Step]</text>
<text text-anchor="start" x="1816.5" y="-618.3" font-family="Times,serif" font-size="14.00">allSteps():List[Step]</text>
<polygon fill="none" stroke="black" points="1812,-611 1812,-724 2183,-724 2183,-611 1812,-611"/>
</g>
<!-- StepCatalog -->
<g id="node4" class="node">
<title>StepCatalog</title>
<polygon fill="none" stroke="black" points="1946.5,-499.5 1946.5,-520.5 2048.5,-520.5 2048.5,-499.5 1946.5,-499.5"/>
<text text-anchor="start" x="1949.5" y="-507.3" font-family="Times,serif" font-weight="bold" font-size="14.00">StepCatalog</text>
<polygon fill="none" stroke="black" points="1945.5,-499 1945.5,-522 2049.5,-522 2049.5,-499 1945.5,-499"/>
</g>
<!-- StepResource&#45;&gt;StepCatalog -->
<g id="edge2" class="edge">
<title>StepResource&#45;&gt;StepCatalog</title>
<path fill="none" stroke="black" stroke-dasharray="5,2" d="M1997.5,-606.57C1997.5,-583.22 1997.5,-557.61 1997.5,-538.86"/>
<polygon fill="black" stroke="black" points="1997.5,-528.68 2002,-538.68 1997.5,-533.68 1997.5,-538.68 1997.5,-538.68 1997.5,-538.68 1997.5,-533.68 1993,-538.68 1997.5,-528.68 1997.5,-528.68"/>
</g>
<!-- AbstractCatalog -->
<g id="node9" class="node">
<title>AbstractCatalog</title>
<polygon fill="none" stroke="black" points="2011.5,-380.5 2011.5,-401.5 2289.5,-401.5 2289.5,-380.5 2011.5,-380.5"/>
<text text-anchor="start" x="2087" y="-388.3" font-family="Times,serif" font-weight="bold" font-size="14.00">AbstractCatalog</text>
<polygon fill="none" stroke="black" points="2011.5,-332.5 2011.5,-380.5 2289.5,-380.5 2289.5,-332.5 2011.5,-332.5"/>
<text text-anchor="start" x="2119" y="-367.3" font-family="Times,serif" font-style="italic" font-size="14.00">Methods</text>
<text text-anchor="start" x="2014.5" y="-353.3" font-family="Times,serif" font-size="14.00">waitForWarmUp():CompletableFuture</text>
<text text-anchor="start" x="2014.5" y="-339.3" font-family="Times,serif" font-size="14.00">loadParsers():List[ParseCatalog]</text>
<polygon fill="none" stroke="black" points="2010.5,-332 2010.5,-403 2290.5,-403 2290.5,-332 2010.5,-332"/>
</g>
<!-- StepCatalog&#45;&gt;AbstractCatalog -->
<g id="edge7" class="edge">
<title>StepCatalog&#45;&gt;AbstractCatalog</title>
<path fill="none" stroke="black" d="M2015.96,-492.49C2036.89,-473.2 2071.91,-440.93 2100.97,-414.15"/>
<polygon fill="none" stroke="black" points="2103.62,-416.46 2108.6,-407.11 2098.88,-411.31 2103.62,-416.46"/>
</g>
<!-- ViewDefinitionResource -->
<g id="node5" class="node">
<title>ViewDefinitionResource</title>
<polygon fill="none" stroke="black" points="699.5,-373.5 699.5,-394.5 895.5,-394.5 895.5,-373.5 699.5,-373.5"/>
<text text-anchor="start" x="702.5" y="-381.3" font-family="Times,serif" font-weight="bold" font-size="14.00">ViewDefinitionResource</text>
<polygon fill="none" stroke="black" points="699.5,-339.5 699.5,-373.5 895.5,-373.5 895.5,-339.5 699.5,-339.5"/>
<text text-anchor="start" x="766" y="-360.3" font-family="Times,serif" font-style="italic" font-size="14.00">Methods</text>
<text text-anchor="start" x="713" y="-346.3" font-family="Times,serif" font-size="14.00">views:(&lt;String&gt; yaml):</text>
<polygon fill="none" stroke="black" points="698.5,-339 698.5,-396 896.5,-396 896.5,-339 698.5,-339"/>
</g>
<!-- ViewDefinitionService -->
<g id="node6" class="node">
<title>ViewDefinitionService</title>
<polygon fill="none" stroke="black" points="641.5,-516.5 641.5,-537.5 953.5,-537.5 953.5,-516.5 641.5,-516.5"/>
<text text-anchor="start" x="711" y="-524.3" font-family="Times,serif" font-weight="bold" font-size="14.00">ViewDefinitionService</text>
<polygon fill="none" stroke="black" points="641.5,-482.5 641.5,-516.5 953.5,-516.5 953.5,-482.5 641.5,-482.5"/>
<text text-anchor="start" x="766" y="-503.3" font-family="Times,serif" font-style="italic" font-size="14.00">Methods</text>
<text text-anchor="start" x="644.5" y="-489.3" font-family="Times,serif" font-size="14.00">views(&lt;String&gt; yaml):List[ViewDefinition]</text>
<polygon fill="none" stroke="black" points="640.5,-482 640.5,-539 954.5,-539 954.5,-482 640.5,-482"/>
</g>
<!-- ViewDefinitionService&#45;&gt;ViewDefinitionResource -->
<g id="edge3" class="edge">
<title>ViewDefinitionService&#45;&gt;ViewDefinitionResource</title>
<path fill="none" stroke="black" d="M797.5,-477.86C797.5,-458.45 797.5,-433.32 797.5,-412.04"/>
<polygon fill="black" stroke="black" points="797.5,-412.04 793.5,-406.04 797.5,-400.04 801.5,-406.04 797.5,-412.04"/>
<text text-anchor="middle" x="783.5" y="-466.66" font-family="Times,serif" font-size="14.00">0..1</text>
</g>
<!-- StepParserService -->
<g id="node7" class="node">
<title>StepParserService</title>
<polygon fill="none" stroke="black" points="410.5,-380.5 410.5,-401.5 663.5,-401.5 663.5,-380.5 410.5,-380.5"/>
<text text-anchor="start" x="464.5" y="-388.3" font-family="Times,serif" font-weight="bold" font-size="14.00">StepParserService</text>
<polygon fill="none" stroke="black" points="410.5,-332.5 410.5,-380.5 663.5,-380.5 663.5,-332.5 410.5,-332.5"/>
<text text-anchor="start" x="505.5" y="-367.3" font-family="Times,serif" font-style="italic" font-size="14.00">Methods</text>
<text text-anchor="start" x="413.5" y="-353.3" font-family="Times,serif" font-size="14.00">parse(&lt;String&gt; yaml):List[Step]</text>
<text text-anchor="start" x="413.5" y="-339.3" font-family="Times,serif" font-size="14.00">appliesTo(&lt;String&gt; yaml):boolean</text>
<polygon fill="none" stroke="black" points="409,-332 409,-403 664,-403 664,-332 409,-332"/>
</g>
<!-- ViewDefinitionService&#45;&gt;StepParserService -->
<g id="edge4" class="edge">
<title>ViewDefinitionService&#45;&gt;StepParserService</title>
<path fill="none" stroke="black" stroke-dasharray="5,2" d="M738.93,-477.86C702.88,-458.38 656.18,-433.15 616.72,-411.84"/>
<polygon fill="black" stroke="black" points="607.9,-407.07 618.83,-407.87 612.3,-409.45 616.7,-411.82 616.7,-411.82 616.7,-411.82 612.3,-409.45 614.56,-415.78 607.9,-407.07 607.9,-407.07"/>
</g>
<!-- ViewDefinitionParserService -->
<g id="node8" class="node">
<title>ViewDefinitionParserService</title>
<polygon fill="none" stroke="black" points="1193.5,-387.5 1193.5,-408.5 1791.5,-408.5 1791.5,-387.5 1193.5,-387.5"/>
<text text-anchor="start" x="1380" y="-395.3" font-family="Times,serif" font-weight="bold" font-size="14.00">ViewDefinitionParserService</text>
<polygon fill="none" stroke="black" points="1193.5,-325.5 1193.5,-387.5 1791.5,-387.5 1791.5,-325.5 1193.5,-325.5"/>
<text text-anchor="start" x="1461" y="-374.3" font-family="Times,serif" font-style="italic" font-size="14.00">Methods</text>
<text text-anchor="start" x="1196.5" y="-360.3" font-family="Times,serif" font-size="14.00">parse(&lt;List[Step]&gt; steps):List[ViewDefinition]</text>
<text text-anchor="start" x="1196.5" y="-346.3" font-family="Times,serif" font-size="14.00">getViewsPerStep(&lt;List[Step]&gt; steps, &lt;ViewDefinition&gt; view):List[ViewDefinition]</text>
<text text-anchor="start" x="1196.5" y="-332.3" font-family="Times,serif" font-size="14.00">appliesTo(&lt;List[Step]&gt; steps, &lt;ViewDefinition&gt; viewDefinition):boolean</text>
<polygon fill="none" stroke="black" points="1192.5,-325 1192.5,-410 1792.5,-410 1792.5,-325 1192.5,-325"/>
</g>
<!-- ViewDefinitionService&#45;&gt;ViewDefinitionParserService -->
<g id="edge5" class="edge">
<title>ViewDefinitionService&#45;&gt;ViewDefinitionParserService</title>
<path fill="none" stroke="black" stroke-dasharray="5,2" d="M953.04,-477.94C1042.78,-459.74 1157.42,-436.48 1257.92,-416.09"/>
<polygon fill="black" stroke="black" points="1267.91,-414.06 1259,-420.46 1263.01,-415.06 1258.11,-416.05 1258.11,-416.05 1258.11,-416.05 1263.01,-415.06 1257.21,-411.64 1267.91,-414.06 1267.91,-414.06"/>
</g>
<!-- Step -->
<g id="node25" class="node">
<title>Step</title>
<polygon fill="none" stroke="black" points="433.5,-251.5 433.5,-272.5 639.5,-272.5 639.5,-251.5 433.5,-251.5"/>
<text text-anchor="start" x="518.5" y="-259.3" font-family="Times,serif" font-weight="bold" font-size="14.00">Step</text>
<polygon fill="none" stroke="black" points="433.5,-133.5 433.5,-251.5 639.5,-251.5 639.5,-133.5 433.5,-133.5"/>
<text text-anchor="start" x="498.5" y="-238.3" font-family="Times,serif" font-style="italic" font-size="14.00">Properties</text>
<text text-anchor="start" x="436.5" y="-224.3" font-family="Times,serif" font-size="14.00">description:String</text>
<text text-anchor="start" x="436.5" y="-210.3" font-family="Times,serif" font-size="14.00">title:String</text>
<text text-anchor="start" x="436.5" y="-196.3" font-family="Times,serif" font-size="14.00">parameters:List[Parameter]</text>
<text text-anchor="start" x="436.5" y="-182.3" font-family="Times,serif" font-size="14.00">icon:String</text>
<text text-anchor="start" x="436.5" y="-168.3" font-family="Times,serif" font-size="14.00">UUID:String</text>
<text text-anchor="start" x="436.5" y="-154.3" font-family="Times,serif" font-size="14.00">group:String</text>
<text text-anchor="start" x="436.5" y="-140.3" font-family="Times,serif" font-size="14.00">kind:String</text>
<polygon fill="none" stroke="black" points="432.5,-133 432.5,-274 640.5,-274 640.5,-133 432.5,-133"/>
</g>
<!-- StepParserService&#45;&gt;Step -->
<g id="edge23" class="edge">
<title>StepParserService&#45;&gt;Step</title>
<path fill="none" stroke="black" stroke-dasharray="5,2" d="M536.5,-327.7C536.5,-315.72 536.5,-302.04 536.5,-288.25"/>
<polygon fill="black" stroke="black" points="536.5,-278.21 541,-288.21 536.5,-283.21 536.5,-288.21 536.5,-288.21 536.5,-288.21 536.5,-283.21 532,-288.21 536.5,-278.21 536.5,-278.21"/>
</g>
<!-- ViewDefinition -->
<g id="node26" class="node">
<title>ViewDefinition</title>
<polygon fill="none" stroke="black" points="1114.5,-230.5 1114.5,-251.5 1423.5,-251.5 1423.5,-230.5 1114.5,-230.5"/>
<text text-anchor="start" x="1211" y="-238.3" font-family="Times,serif" font-weight="bold" font-size="14.00">ViewDefinition</text>
<polygon fill="none" stroke="black" points="1114.5,-154.5 1114.5,-230.5 1423.5,-230.5 1423.5,-154.5 1114.5,-154.5"/>
<text text-anchor="start" x="1231" y="-217.3" font-family="Times,serif" font-style="italic" font-size="14.00">Properties</text>
<text text-anchor="start" x="1117.5" y="-203.3" font-family="Times,serif" font-size="14.00">properties:Map[String, String]</text>
<text text-anchor="start" x="1117.5" y="-189.3" font-family="Times,serif" font-size="14.00">step:Step</text>
<text text-anchor="start" x="1117.5" y="-175.3" font-family="Times,serif" font-size="14.00">url:String</text>
<text text-anchor="start" x="1117.5" y="-161.3" font-family="Times,serif" font-size="14.00">constraints:List[ViewDefinitionConstraint]</text>
<polygon fill="none" stroke="black" points="1113,-154 1113,-253 1424,-253 1424,-154 1113,-154"/>
</g>
<!-- ViewDefinitionParserService&#45;&gt;ViewDefinition -->
<g id="edge24" class="edge">
<title>ViewDefinitionParserService&#45;&gt;ViewDefinition</title>
<path fill="none" stroke="black" stroke-dasharray="5,2" d="M1429.51,-320.94C1404.75,-303.04 1376.02,-282.26 1349.74,-263.25"/>
<polygon fill="black" stroke="black" points="1341.3,-257.15 1352.04,-259.36 1345.35,-260.08 1349.4,-263.01 1349.4,-263.01 1349.4,-263.01 1345.35,-260.08 1346.76,-266.66 1341.3,-257.15 1341.3,-257.15"/>
</g>
<!-- MetadataCatalog -->
<g id="node10" class="node">
<title>MetadataCatalog</title>
<polygon fill="none" stroke="black" points="1854.5,-230.5 1854.5,-251.5 2197.5,-251.5 2197.5,-230.5 1854.5,-230.5"/>
<text text-anchor="start" x="1958" y="-238.3" font-family="Times,serif" font-weight="bold" font-size="14.00">MetadataCatalog</text>
<polygon fill="none" stroke="black" points="1854.5,-154.5 1854.5,-230.5 2197.5,-230.5 2197.5,-154.5 1854.5,-154.5"/>
<text text-anchor="start" x="1994.5" y="-217.3" font-family="Times,serif" font-style="italic" font-size="14.00">Methods</text>
<text text-anchor="start" x="1857.5" y="-203.3" font-family="Times,serif" font-size="14.00">searchStepByID(&lt;String&gt; id):Metadata</text>
<text text-anchor="start" x="1857.5" y="-189.3" font-family="Times,serif" font-size="14.00">searchStepByName(&lt;String&gt; name):Metadata</text>
<text text-anchor="start" x="1857.5" y="-175.3" font-family="Times,serif" font-size="14.00">store(&lt;List[Step]&gt; steps):boolean</text>
<text text-anchor="start" x="1857.5" y="-161.3" font-family="Times,serif" font-size="14.00">getAll():List[Metadata]</text>
<polygon fill="none" stroke="black" points="1853,-154 1853,-253 2198,-253 2198,-154 1853,-154"/>
</g>
<!-- AbstractCatalog&#45;&gt;MetadataCatalog -->
<g id="edge6" class="edge">
<title>AbstractCatalog&#45;&gt;MetadataCatalog</title>
<path fill="none" stroke="black" stroke-dasharray="5,2" d="M2120.56,-327.7C2106.09,-308.94 2088.38,-285.99 2072.19,-265.01"/>
<polygon fill="black" stroke="black" points="2066.07,-257.07 2075.74,-262.24 2069.12,-261.03 2072.18,-264.99 2072.18,-264.99 2072.18,-264.99 2069.12,-261.03 2068.61,-267.74 2066.07,-257.07 2066.07,-257.07"/>
</g>
<!-- Metadata -->
<g id="node16" class="node">
<title>Metadata</title>
<polygon fill="none" stroke="black" points="1221.5,-66.5 1221.5,-87.5 1316.5,-87.5 1316.5,-66.5 1221.5,-66.5"/>
<text text-anchor="start" x="1231" y="-74.3" font-family="Times,serif" font-weight="bold" font-size="14.00">Metadata</text>
<polygon fill="none" stroke="black" points="1221.5,-4.5 1221.5,-66.5 1316.5,-66.5 1316.5,-4.5 1221.5,-4.5"/>
<text text-anchor="start" x="1231" y="-53.3" font-family="Times,serif" font-style="italic" font-size="14.00">Properties</text>
<text text-anchor="start" x="1224.5" y="-39.3" font-family="Times,serif" font-size="14.00">ID:String</text>
<text text-anchor="start" x="1224.5" y="-25.3" font-family="Times,serif" font-size="14.00">name:String</text>
<text text-anchor="start" x="1224.5" y="-11.3" font-family="Times,serif" font-size="14.00">type:String</text>
<polygon fill="none" stroke="black" points="1220,-4 1220,-89 1317,-89 1317,-4 1220,-4"/>
</g>
<!-- MetadataCatalog&#45;&gt;Metadata -->
<g id="edge10" class="edge">
<title>MetadataCatalog&#45;&gt;Metadata</title>
<path fill="none" stroke="black" stroke-dasharray="5,2" d="M1844.66,-165.47C1680.79,-131.92 1448.2,-84.29 1335.23,-61.16"/>
<polygon fill="black" stroke="black" points="1325.33,-59.14 1336.03,-56.73 1330.23,-60.14 1335.13,-61.14 1335.13,-61.14 1335.13,-61.14 1330.23,-60.14 1334.23,-65.55 1325.33,-59.14 1325.33,-59.14"/>
</g>
<!-- ViewDefinitionCatalog -->
<g id="node11" class="node">
<title>ViewDefinitionCatalog</title>
<polygon fill="none" stroke="black" points="2084.5,-499.5 2084.5,-520.5 2266.5,-520.5 2266.5,-499.5 2084.5,-499.5"/>
<text text-anchor="start" x="2087.5" y="-507.3" font-family="Times,serif" font-weight="bold" font-size="14.00">ViewDefinitionCatalog</text>
<polygon fill="none" stroke="black" points="2083.5,-499 2083.5,-522 2267.5,-522 2267.5,-499 2083.5,-499"/>
</g>
<!-- ViewDefinitionCatalog&#45;&gt;AbstractCatalog -->
<g id="edge8" class="edge">
<title>ViewDefinitionCatalog&#45;&gt;AbstractCatalog</title>
<path fill="none" stroke="black" d="M2172.48,-492.49C2169.19,-473.93 2163.78,-443.38 2159.14,-417.25"/>
<polygon fill="none" stroke="black" points="2162.54,-416.35 2157.35,-407.11 2155.65,-417.57 2162.54,-416.35"/>
</g>
<!-- KameletParseCatalog -->
<g id="node12" class="node">
<title>KameletParseCatalog</title>
<polygon fill="none" stroke="black" points="2309.5,-656.5 2309.5,-677.5 2486.5,-677.5 2486.5,-656.5 2309.5,-656.5"/>
<text text-anchor="start" x="2312.5" y="-664.3" font-family="Times,serif" font-weight="bold" font-size="14.00">KameletParseCatalog</text>
<polygon fill="none" stroke="black" points="2308,-656 2308,-679 2487,-679 2487,-656 2308,-656"/>
</g>
<!-- ParseCatalog -->
<g id="node13" class="node">
<title>ParseCatalog</title>
<polygon fill="none" stroke="black" points="2505.5,-523.5 2505.5,-544.5 2837.5,-544.5 2837.5,-523.5 2505.5,-523.5"/>
<text text-anchor="start" x="2619" y="-531.3" font-family="Times,serif" font-weight="bold" font-size="14.00">ParseCatalog</text>
<polygon fill="none" stroke="black" points="2505.5,-475.5 2505.5,-523.5 2837.5,-523.5 2837.5,-475.5 2505.5,-475.5"/>
<text text-anchor="start" x="2640" y="-510.3" font-family="Times,serif" font-style="italic" font-size="14.00">Methods</text>
<text text-anchor="start" x="2508.5" y="-496.3" font-family="Times,serif" font-size="14.00">parse():CompletableFuture[List[T]]</text>
<text text-anchor="start" x="2508.5" y="-482.3" font-family="Times,serif" font-size="14.00">setFileVisitor(&lt;YamlProcessFile&gt; fileVisitor):</text>
<polygon fill="none" stroke="black" points="2504.5,-475 2504.5,-546 2838.5,-546 2838.5,-475 2504.5,-475"/>
</g>
<!-- KameletParseCatalog&#45;&gt;ParseCatalog -->
<g id="edge9" class="edge">
<title>KameletParseCatalog&#45;&gt;ParseCatalog</title>
<path fill="none" stroke="black" stroke-dasharray="5,2" d="M2424.02,-649.31C2445.48,-635.57 2476.63,-616.02 2504.5,-600 2531.08,-584.72 2560.51,-568.81 2587.16,-554.75"/>
<polygon fill="black" stroke="black" points="2596.08,-550.06 2589.32,-558.7 2591.66,-552.39 2587.23,-554.72 2587.23,-554.72 2587.23,-554.72 2591.66,-552.39 2585.14,-550.73 2596.08,-550.06 2596.08,-550.06"/>
</g>
<!-- Kamelet -->
<g id="node14" class="node">
<title>Kamelet</title>
<polygon fill="none" stroke="black" points="3126.5,-656.5 3126.5,-677.5 3199.5,-677.5 3199.5,-656.5 3126.5,-656.5"/>
<text text-anchor="start" x="3129.5" y="-664.3" font-family="Times,serif" font-weight="bold" font-size="14.00">Kamelet</text>
<polygon fill="none" stroke="black" points="3125,-656 3125,-679 3200,-679 3200,-656 3125,-656"/>
</g>
<!-- KameletBinding -->
<g id="node15" class="node">
<title>KameletBinding</title>
<polygon fill="none" stroke="black" points="3235.5,-656.5 3235.5,-677.5 3371.5,-677.5 3371.5,-656.5 3235.5,-656.5"/>
<text text-anchor="start" x="3238.5" y="-664.3" font-family="Times,serif" font-weight="bold" font-size="14.00">KameletBinding</text>
<polygon fill="none" stroke="black" points="3234.5,-656 3234.5,-679 3372.5,-679 3372.5,-656 3234.5,-656"/>
</g>
<!-- CatalogCollection -->
<g id="node17" class="node">
<title>CatalogCollection</title>
<polygon fill="none" stroke="black" points="2325.5,-356.5 2325.5,-377.5 2471.5,-377.5 2471.5,-356.5 2325.5,-356.5"/>
<text text-anchor="start" x="2328.5" y="-364.3" font-family="Times,serif" font-weight="bold" font-size="14.00">CatalogCollection</text>
<polygon fill="none" stroke="black" points="2324.5,-356 2324.5,-379 2472.5,-379 2472.5,-356 2324.5,-356"/>
</g>
<!-- CatalogCollection&#45;&gt;MetadataCatalog -->
<g id="edge11" class="edge">
<title>CatalogCollection&#45;&gt;MetadataCatalog</title>
<path fill="none" stroke="black" d="M2371.21,-349.29C2353.44,-338.45 2329.54,-324.56 2307.5,-314 2267.84,-295 2223.96,-276.71 2182.86,-260.71"/>
<polygon fill="none" stroke="black" points="2183.9,-257.36 2173.31,-257.01 2181.37,-263.89 2183.9,-257.36"/>
</g>
<!-- InMemoryCatalog -->
<g id="node18" class="node">
<title>InMemoryCatalog</title>
<polygon fill="none" stroke="black" points="1827.5,-356.5 1827.5,-377.5 1975.5,-377.5 1975.5,-356.5 1827.5,-356.5"/>
<text text-anchor="start" x="1830.5" y="-364.3" font-family="Times,serif" font-weight="bold" font-size="14.00">InMemoryCatalog</text>
<polygon fill="none" stroke="black" points="1826.5,-356 1826.5,-379 1976.5,-379 1976.5,-356 1826.5,-356"/>
</g>
<!-- InMemoryCatalog&#45;&gt;MetadataCatalog -->
<g id="edge12" class="edge">
<title>InMemoryCatalog&#45;&gt;MetadataCatalog</title>
<path fill="none" stroke="black" d="M1914.54,-349.47C1929.83,-329.48 1956.05,-295.23 1979.16,-265.04"/>
<polygon fill="none" stroke="black" points="1981.97,-267.13 1985.27,-257.06 1976.41,-262.87 1981.97,-267.13"/>
</g>
<!-- ReadOnlyCatalog -->
<g id="node19" class="node">
<title>ReadOnlyCatalog</title>
<polygon fill="none" stroke="black" points="2327.5,-499.5 2327.5,-520.5 2469.5,-520.5 2469.5,-499.5 2327.5,-499.5"/>
<text text-anchor="start" x="2330.5" y="-507.3" font-family="Times,serif" font-weight="bold" font-size="14.00">ReadOnlyCatalog</text>
<polygon fill="none" stroke="black" points="2326.5,-499 2326.5,-522 2470.5,-522 2470.5,-499 2326.5,-499"/>
</g>
<!-- ReadOnlyCatalog&#45;&gt;CatalogCollection -->
<g id="edge13" class="edge">
<title>ReadOnlyCatalog&#45;&gt;CatalogCollection</title>
<path fill="none" stroke="black" d="M2398.5,-492.49C2398.5,-468.46 2398.5,-424.31 2398.5,-395.7"/>
<polygon fill="none" stroke="black" points="2402,-395.57 2398.5,-385.57 2395,-395.57 2402,-395.57"/>
</g>
<!-- GitParseCatalog -->
<g id="node20" class="node">
<title>GitParseCatalog</title>
<polygon fill="none" stroke="black" points="2955.5,-656.5 2955.5,-677.5 3090.5,-677.5 3090.5,-656.5 2955.5,-656.5"/>
<text text-anchor="start" x="2958.5" y="-664.3" font-family="Times,serif" font-weight="bold" font-size="14.00">GitParseCatalog</text>
<polygon fill="none" stroke="black" points="2954,-656 2954,-679 3091,-679 3091,-656 2954,-656"/>
</g>
<!-- GitParseCatalog&#45;&gt;ParseCatalog -->
<g id="edge14" class="edge">
<title>GitParseCatalog&#45;&gt;ParseCatalog</title>
<path fill="none" stroke="black" d="M3004.31,-649.47C2987.72,-634.69 2961.98,-613.6 2936.5,-600 2902.13,-581.66 2863.24,-566.11 2826.05,-553.41"/>
<polygon fill="none" stroke="black" points="2826.72,-549.95 2816.12,-550.08 2824.49,-556.58 2826.72,-549.95"/>
</g>
<!-- YamlProcessFile -->
<g id="node21" class="node">
<title>YamlProcessFile</title>
<polygon fill="none" stroke="black" points="2955.5,-499.5 2955.5,-520.5 3090.5,-520.5 3090.5,-499.5 2955.5,-499.5"/>
<text text-anchor="start" x="2958.5" y="-507.3" font-family="Times,serif" font-weight="bold" font-size="14.00">YamlProcessFile</text>
<polygon fill="none" stroke="black" points="2954,-499 2954,-522 3091,-522 3091,-499 2954,-499"/>
</g>
<!-- GitParseCatalog&#45;&gt;YamlProcessFile -->
<g id="edge15" class="edge">
<title>GitParseCatalog&#45;&gt;YamlProcessFile</title>
<path fill="none" stroke="black" stroke-dasharray="5,2" d="M3018.07,-649.32C3015.29,-622.55 3015.01,-570.66 3017.22,-538.75"/>
<polygon fill="black" stroke="black" points="3018.06,-528.76 3021.7,-539.1 3017.64,-533.74 3017.22,-538.72 3017.22,-538.72 3017.22,-538.72 3017.64,-533.74 3012.73,-538.34 3018.06,-528.76 3018.06,-528.76"/>
</g>
<!-- YamlProcessFile&#45;&gt;GitParseCatalog -->
<g id="edge17" class="edge">
<title>YamlProcessFile&#45;&gt;GitParseCatalog</title>
<path fill="none" stroke="black" stroke-dasharray="5,2" d="M3026.94,-528.76C3029.71,-555.57 3029.99,-607.47 3027.78,-639.34"/>
<polygon fill="black" stroke="black" points="3026.93,-649.32 3023.29,-638.98 3027.35,-644.34 3027.78,-639.36 3027.78,-639.36 3027.78,-639.36 3027.35,-644.34 3032.26,-639.74 3026.93,-649.32 3026.93,-649.32"/>
</g>
<!-- JarParseCatalog -->
<g id="node22" class="node">
<title>JarParseCatalog</title>
<polygon fill="none" stroke="black" points="2522.5,-656.5 2522.5,-677.5 2656.5,-677.5 2656.5,-656.5 2522.5,-656.5"/>
<text text-anchor="start" x="2525.5" y="-664.3" font-family="Times,serif" font-weight="bold" font-size="14.00">JarParseCatalog</text>
<polygon fill="none" stroke="black" points="2521.5,-656 2521.5,-679 2657.5,-679 2657.5,-656 2521.5,-656"/>
</g>
<!-- JarParseCatalog&#45;&gt;ParseCatalog -->
<g id="edge16" class="edge">
<title>JarParseCatalog&#45;&gt;ParseCatalog</title>
<path fill="none" stroke="black" d="M2598.59,-649.32C2610.05,-627.65 2630.22,-589.53 2646.44,-558.86"/>
<polygon fill="none" stroke="black" points="2649.54,-560.5 2651.12,-550.02 2643.35,-557.23 2649.54,-560.5"/>
</g>
<!-- ViewDefinitionParseCatalog -->
<g id="node23" class="node">
<title>ViewDefinitionParseCatalog</title>
<polygon fill="none" stroke="black" points="2692.5,-656.5 2692.5,-677.5 2918.5,-677.5 2918.5,-656.5 2692.5,-656.5"/>
<text text-anchor="start" x="2695.5" y="-664.3" font-family="Times,serif" font-weight="bold" font-size="14.00">ViewDefinitionParseCatalog</text>
<polygon fill="none" stroke="black" points="2691.5,-656 2691.5,-679 2919.5,-679 2919.5,-656 2691.5,-656"/>
</g>
<!-- ViewDefinitionParseCatalog&#45;&gt;ParseCatalog -->
<g id="edge18" class="edge">
<title>ViewDefinitionParseCatalog&#45;&gt;ParseCatalog</title>
<path fill="none" stroke="black" stroke-dasharray="5,2" d="M2790.65,-649.32C2771.68,-627.38 2738.11,-588.55 2711.43,-557.68"/>
<polygon fill="black" stroke="black" points="2704.8,-550.02 2714.75,-554.65 2708.07,-553.81 2711.34,-557.59 2711.34,-557.59 2711.34,-557.59 2708.07,-553.81 2707.94,-560.53 2704.8,-550.02 2704.8,-550.02"/>
</g>
<!-- Parameter -->
<g id="node24" class="node">
<title>Parameter</title>
<polygon fill="none" stroke="black" points="3407.5,-708.5 3407.5,-729.5 3543.5,-729.5 3543.5,-708.5 3407.5,-708.5"/>
<text text-anchor="start" x="3433.5" y="-716.3" font-family="Times,serif" font-weight="bold" font-size="14.00">Parameter</text>
<polygon fill="none" stroke="black" points="3407.5,-604.5 3407.5,-708.5 3543.5,-708.5 3543.5,-604.5 3407.5,-604.5"/>
<text text-anchor="start" x="3437.5" y="-695.3" font-family="Times,serif" font-style="italic" font-size="14.00">Properties</text>
<text text-anchor="start" x="3410.5" y="-681.3" font-family="Times,serif" font-size="14.00">description:String</text>
<text text-anchor="start" x="3410.5" y="-667.3" font-family="Times,serif" font-size="14.00">label:String</text>
<text text-anchor="start" x="3410.5" y="-653.3" font-family="Times,serif" font-size="14.00">id:String</text>
<text text-anchor="start" x="3410.5" y="-639.3" font-family="Times,serif" font-size="14.00">value:String</text>
<text text-anchor="start" x="3410.5" y="-625.3" font-family="Times,serif" font-size="14.00">default:String</text>
<text text-anchor="start" x="3410.5" y="-611.3" font-family="Times,serif" font-size="14.00">type:String</text>
<polygon fill="none" stroke="black" points="3406.5,-604 3406.5,-731 3544.5,-731 3544.5,-604 3406.5,-604"/>
</g>
<!-- Step&#45;&gt;Metadata -->
<g id="edge19" class="edge">
<title>Step&#45;&gt;Metadata</title>
<path fill="none" stroke="black" d="M648.87,-178.71C803.39,-145.99 1076.57,-88.14 1202.07,-61.57"/>
<polygon fill="none" stroke="black" points="1202.88,-64.97 1211.93,-59.48 1201.43,-58.13 1202.88,-64.97"/>
</g>
<!-- ViewDefinition&#45;&gt;Metadata -->
<g id="edge20" class="edge">
<title>ViewDefinition&#45;&gt;Metadata</title>
<path fill="none" stroke="black" d="M1268.5,-149.59C1268.5,-134.7 1268.5,-118.45 1268.5,-103.39"/>
<polygon fill="none" stroke="black" points="1272,-103.19 1268.5,-93.19 1265,-103.19 1272,-103.19"/>
</g>
<!-- ViewDefinitionConstraint -->
<g id="node27" class="node">
<title>ViewDefinitionConstraint</title>
<polygon fill="none" stroke="black" points="931.5,-387.5 931.5,-408.5 1157.5,-408.5 1157.5,-387.5 931.5,-387.5"/>
<text text-anchor="start" x="944" y="-395.3" font-family="Times,serif" font-weight="bold" font-size="14.00">ViewDefinitionConstraint</text>
<polygon fill="none" stroke="black" points="931.5,-325.5 931.5,-387.5 1157.5,-387.5 1157.5,-325.5 931.5,-325.5"/>
<text text-anchor="start" x="1006.5" y="-374.3" font-family="Times,serif" font-style="italic" font-size="14.00">Properties</text>
<text text-anchor="start" x="934.5" y="-360.3" font-family="Times,serif" font-size="14.00">mandatory:boolean</text>
<text text-anchor="start" x="934.5" y="-346.3" font-family="Times,serif" font-size="14.00">operation:ConstraintOperation</text>
<text text-anchor="start" x="934.5" y="-332.3" font-family="Times,serif" font-size="14.00">parameter:String</text>
<polygon fill="none" stroke="black" points="930.5,-325 930.5,-410 1158.5,-410 1158.5,-325 930.5,-325"/>
</g>
<!-- ViewDefinitionConstraint&#45;&gt;ViewDefinition -->
<g id="edge21" class="edge">
<title>ViewDefinitionConstraint&#45;&gt;ViewDefinition</title>
<path fill="none" stroke="black" d="M1107.49,-320.94C1131.82,-303.35 1159.99,-282.98 1185.89,-264.24"/>
<polygon fill="black" stroke="black" points="1185.98,-264.18 1188.5,-257.42 1195.7,-257.15 1193.18,-263.91 1185.98,-264.18"/>
<text text-anchor="middle" x="1093.49" y="-309.74" font-family="Times,serif" font-size="14.00">0..n</text>
</g>
<!-- DeploymentGeneratorService -->
<g id="node28" class="node">
<title>DeploymentGeneratorService</title>
<polygon fill="none" stroke="black" points="9.5,-394.5 9.5,-415.5 374.5,-415.5 374.5,-394.5 9.5,-394.5"/>
<text text-anchor="start" x="76" y="-402.3" font-family="Times,serif" font-weight="bold" font-size="14.00">DeploymentGeneratorService</text>
<polygon fill="none" stroke="black" points="9.5,-318.5 9.5,-394.5 374.5,-394.5 374.5,-318.5 9.5,-318.5"/>
<text text-anchor="start" x="160.5" y="-381.3" font-family="Times,serif" font-style="italic" font-size="14.00">Methods</text>
<text text-anchor="start" x="12.5" y="-367.3" font-family="Times,serif" font-size="14.00">identifier():String</text>
<text text-anchor="start" x="12.5" y="-353.3" font-family="Times,serif" font-size="14.00">parse(&lt;String&gt; name, &lt;List[Step]&gt; steps):String</text>
<text text-anchor="start" x="12.5" y="-339.3" font-family="Times,serif" font-size="14.00">appliesTo(&lt;List[Step]&gt; steps):boolean</text>
<text text-anchor="start" x="12.5" y="-325.3" font-family="Times,serif" font-size="14.00">getKinds():String[]</text>
<polygon fill="none" stroke="black" points="8,-318 8,-417 375,-417 375,-318 8,-318"/>
</g>
<!-- DeploymentGeneratorService&#45;&gt;Step -->
<g id="edge22" class="edge">
<title>DeploymentGeneratorService&#45;&gt;Step</title>
<path fill="none" stroke="black" stroke-dasharray="5,2" d="M303.51,-313.9C339.24,-297.12 378.94,-278.48 415.29,-261.41"/>
<polygon fill="black" stroke="black" points="424.46,-257.11 417.32,-265.43 419.93,-259.24 415.41,-261.36 415.41,-261.36 415.41,-261.36 419.93,-259.24 413.5,-257.29 424.46,-257.11 424.46,-257.11"/>
</g>
</g>
</svg>
